<svg width="841" height="596" viewBox="0 0 841 596" fill="none" xmlns="http://www.w3.org/2000/svg">
<g clip-path="url(#clip0_2862_44927)">
<mask id="mask0_2862_44927" style="mask-type:luminance" maskUnits="userSpaceOnUse" x="0" y="0" width="841" height="596">
<path d="M840.05 0H0V595.21H840.05V0Z" fill="white"/>
</mask>
<g mask="url(#mask0_2862_44927)">
<path d="M284.36 99.0801C290.24 99.0801 294.97 100.71 299.06 104.79C302.98 108.87 304.77 114.1 305.43 119.32V221.86H329.27V254.35H305.43V299.25H265.26V254.35H177.9V218.26L254.15 99.0601H284.36V99.0801ZM265.75 223.01V134.51L209.91 223.01H265.75Z" fill="#2E3192"/>
<path d="M384.55 188.61C383.82 190.52 385.11 192.91 386.97 195.49C387.02 192.29 387.15 189.13 387.37 186.03C385.87 186.74 384.93 187.6 384.55 188.61ZM384.55 188.61C383.82 190.52 385.11 192.91 386.97 195.49C387.02 192.29 387.15 189.13 387.37 186.03C385.87 186.74 384.93 187.6 384.55 188.61Z" fill="#2E3192"/>
<path d="M494.01 194.96C494.01 194.61 494.01 194.26 494.01 193.9C494 193.76 494 193.61 494 193.48C493.99 192.92 493.97 192.36 493.96 191.8C493.94 191.3 493.93 190.8 493.91 190.31C493.9 189.96 493.89 189.62 493.87 189.28C493.87 188.93 493.85 188.6 493.84 188.26C493.83 188.08 493.82 187.91 493.81 187.73C493.8 187.56 493.8 187.38 493.79 187.2C493.79 187.17 493.79 187.15 493.78 187.11C493.78 187.02 493.77 186.92 493.77 186.82C493.42 179.44 492.74 172.53 491.75 166.07C491.72 165.9 491.69 165.73 491.67 165.56C491.64 165.39 491.61 165.23 491.58 165.06C491.51 164.6 491.43 164.14 491.36 163.68C491.28 163.21 491.19 162.74 491.11 162.27C491.02 161.78 490.93 161.29 490.85 160.81C490.63 159.69 490.4 158.58 490.17 157.48C490.13 157.31 490.1 157.14 490.06 156.97C490.03 156.81 489.99 156.64 489.95 156.47C489.6 154.86 489.21 153.28 488.82 151.73C487.94 148.39 486.97 145.21 485.89 142.19C485.61 141.37 485.31 140.57 485.01 139.79C484.9 139.49 484.78 139.2 484.66 138.91C484.5 138.49 484.34 138.07 484.16 137.66C483.08 135.02 481.91 132.51 480.65 130.13C480.37 129.59 480.08 129.07 479.8 128.54C479.67 128.32 479.54 128.1 479.42 127.88C478.07 125.52 476.64 123.28 475.12 121.18C474.19 119.91 473.23 118.68 472.23 117.5C472.11 117.35 471.98 117.19 471.85 117.04C471.44 116.58 471 116.14 470.58 115.69C469.5 114.58 468.39 113.51 467.25 112.5C466.5 111.82 465.75 111.16 464.97 110.53C463.74 109.51 462.47 108.55 461.18 107.65C461.02 107.53 460.87 107.43 460.71 107.32C460.56 107.21 460.41 107.11 460.25 107.01C457.94 105.43 455.53 104.03 453.02 102.78C452.86 102.69 452.69 102.61 452.53 102.54C452.36 102.45 452.2 102.37 452.03 102.29C444.18 98.55 435.4 96.35 425.72 95.7C423.79 95.56 421.82 95.49 419.82 95.49H419.44C417.49 95.49 415.6 95.54 413.75 95.64C413.5 95.64 413.26 95.66 413.02 95.69C412.79 95.69 412.57 95.71 412.34 95.73C393.12 97.03 378.77 103.86 367.67 116.55C352.98 133.53 345.63 161.12 345.63 199.17C345.63 237.22 351.84 265.47 365.39 280C378.94 294.53 396.58 302.2 419.44 302.2C433.72 302.2 445.59 299.52 455.51 294.21C455.82 294.03 456.13 293.86 456.43 293.69C456.73 293.52 457.03 293.35 457.32 293.18C462.53 290.15 467.18 286.35 471.36 281.79C472.56 280.48 473.73 279.09 474.84 277.64C474.96 277.49 475.07 277.33 475.18 277.19C475.3 277.04 475.41 276.89 475.52 276.73C487.47 260.52 493.72 235.89 494.03 201.93C494.03 201.74 494.04 201.54 494.04 201.35V200.94C494.05 200.49 494.05 200.05 494.05 199.59V199.17C494.05 197.75 494.03 196.35 494.01 194.96ZM391.51 240.48C389.08 230.4 387.66 219.71 387.15 208.58C387.14 208.41 387.13 208.25 387.13 208.08C387.13 207.91 387.11 207.75 387.11 207.58C387.08 206.97 387.06 206.37 387.04 205.76C386.97 203.58 386.94 201.38 386.94 199.17V198.22C386.94 197.81 386.94 197.41 386.94 197.01V196.41C386.94 196.41 386.95 196.38 386.94 196.37C386.95 196.07 386.95 195.78 386.96 195.49C385.1 192.91 383.81 190.52 384.54 188.61C384.92 187.6 385.86 186.74 387.36 186.03C387.36 185.87 387.36 185.72 387.38 185.56H387.39C387.4 185.37 387.41 185.18 387.43 185C387.7 181.21 388.09 177.49 388.6 173.81C389.23 169.25 390.04 164.76 391.05 160.3C391.08 160.14 391.12 159.98 391.16 159.82C391.19 159.67 391.22 159.51 391.27 159.36C391.34 159.02 391.42 158.69 391.5 158.35C392.41 154.69 393.45 151.38 394.62 148.39C394.68 148.23 394.74 148.07 394.8 147.91C394.89 147.68 394.98 147.46 395.08 147.23C396.45 143.9 397.98 141.02 399.66 138.57C399.88 138.26 400.1 137.95 400.31 137.65C400.52 137.36 400.73 137.09 400.94 136.82C401.56 136.03 402.19 135.29 402.85 134.61C402.99 134.47 403.14 134.32 403.28 134.17C403.43 134.02 403.59 133.88 403.74 133.73C404.12 133.38 404.5 133.04 404.89 132.71C406.46 131.64 408.15 130.71 409.95 129.98C410.11 129.91 410.27 129.84 410.43 129.79C410.59 129.72 410.76 129.66 410.92 129.6C413.17 128.79 415.61 128.28 418.26 128.17C418.64 128.15 419.03 128.14 419.42 128.14C422.32 128.14 425.08 128.7 427.66 129.67C427.83 129.73 427.99 129.79 428.16 129.87C428.32 129.93 428.48 130 428.65 130.07C428.81 130.13 428.97 130.2 429.12 130.28C430.53 130.91 431.87 131.66 433.16 132.52C433.26 132.58 433.36 132.64 433.46 132.71C433.5 132.75 433.55 132.78 433.6 132.83C433.74 132.94 433.89 133.07 434.03 133.19C436.35 135.19 438.46 137.82 440.38 141.1C440.41 141.15 440.45 141.22 440.47 141.27C440.54 141.39 440.61 141.5 440.67 141.61C440.72 141.71 440.78 141.81 440.83 141.91C440.88 141.98 440.91 142.05 440.95 142.12C441.04 142.28 441.12 142.43 441.2 142.59C442.76 145.49 444.17 148.85 445.45 152.68C445.63 153.22 445.81 153.77 445.98 154.32C446.45 155.82 446.91 157.38 447.34 159C447.75 160.71 448.13 162.43 448.49 164.14C448.54 164.36 448.58 164.58 448.63 164.8C448.67 165.03 448.72 165.25 448.76 165.47C449.08 167.08 449.38 168.7 449.66 170.32V170.34C450.24 173.7 450.7 177.09 451.07 180.55C451.62 185.63 451.95 190.84 452.04 196.22C452.07 197.36 452.07 198.51 452.07 199.67C452.07 204.19 451.95 208.59 451.66 212.86V212.88C451.62 213.61 451.56 214.34 451.5 215.07C451.42 215.99 451.35 216.91 451.25 217.81C451.16 218.79 451.05 219.76 450.93 220.72C450.03 228.08 448.69 238.5 445.63 247.8C445.47 248.28 445.31 248.76 445.14 249.24C445.14 249.24 445.137 249.247 445.13 249.26C444.98 249.71 444.81 250.16 444.65 250.61C443.85 252.7 442.96 254.71 441.95 256.57C439.84 260.51 437.22 263.85 433.95 266.12C430.76 268.01 427.82 269.3 424.94 270C423.08 270.46 421.27 270.69 419.42 270.69C414.35 270.69 409.79 269.22 405.54 266.12C405.21 265.91 404.9 265.69 404.58 265.46C404.18 265.17 403.79 264.86 403.4 264.52C403.03 264.2 402.65 263.85 402.29 263.49C397.58 258.81 394.04 251.08 391.5 240.48H391.51Z" fill="#2E3192"/>
<path d="M621.11 99.0801C626.99 99.0801 631.72 100.71 635.81 104.79C639.73 108.87 641.52 114.1 642.18 119.32V221.86H666.02V254.35H642.18V299.25H602.01V254.35H514.65V218.26L590.91 99.0601H621.12L621.11 99.0801ZM602.5 223.01V134.51L546.66 223.01H602.5Z" fill="#2E3192"/>
<path d="M392.67 183.97C373.1 187.7 392.67 199.65 393.81 207.28C394.28 210.4 393.42 210.88 385.44 207.34C357.49 194.95 358.4 161.8 393.07 159.66C412.17 158.48 397.47 183.07 392.66 183.96L392.67 183.97Z" fill="#53AEDE"/>
<path opacity="0.56" d="M392.67 183.97C396.06 183.34 402.06 173.61 402.21 167.07C391.08 169.8 381.49 177.29 382.4 188.29C382.74 192.88 387.12 196.91 388.18 201.42C388.64 203.35 388.29 205.63 386.43 205.96C385.5 206.18 384.55 206.36 383.59 206.48C384.19 206.78 384.8 207.07 385.43 207.35C393.41 210.89 394.24 210.41 393.8 207.29C392.73 199.68 373.09 187.71 392.66 183.98L392.67 183.97Z" fill="#2180B4"/>
<path d="M383.87 165.02C381.65 165.51 379.49 166.31 377.55 167.51C375.97 168.49 374.02 169.98 373.59 171.9C373.43 172.6 374.07 173.09 374.71 172.83C376.3 172.19 377.63 170.8 379.11 169.91C380.79 168.89 382.61 168.23 384.53 167.81C386.33 167.41 385.68 164.62 383.88 165.02H383.87Z" fill="#ACE1FA"/>
<path d="M370.65 175.92C369.72 177.58 368.74 179.56 369.29 181.48C369.43 181.98 370.18 182.19 370.46 181.68C371.29 180.18 371.44 178.44 372.16 176.89C372.63 175.88 371.23 174.89 370.65 175.92Z" fill="#ACE1FA"/>
<path d="M391.51 210.11C390.15 209.81 388.18 209.05 385.27 207.76C371.44 201.63 363.51 189.81 365.54 178.34C367.47 167.39 377.76 160.24 393.06 159.21C400.64 158.7 402.68 162.19 403.06 165.21C403.98 172.53 396.09 183.8 392.77 184.42C387.97 185.34 385.29 186.7 384.57 188.61C383.6 191.17 386.24 194.59 389.03 198.21C391.33 201.19 393.71 204.27 394.28 207.2C394.49 208.29 394.59 209.37 393.88 209.93C393.42 210.3 392.7 210.38 391.52 210.11H391.51ZM397.4 160.35C396.19 160.08 394.76 160 393.11 160.11C378.26 161.11 368.29 167.98 366.43 178.49C364.48 189.54 372.19 200.97 385.63 206.92C388.78 208.32 392.5 209.84 393.29 209.2C393.62 208.93 393.49 208.02 393.36 207.36C392.83 204.65 390.52 201.65 388.29 198.76C385.34 194.93 382.54 191.32 383.7 188.28C384.54 186.06 387.45 184.5 392.59 183.52C395.61 182.96 403 172.09 402.15 165.32C401.81 162.64 400.22 160.98 397.4 160.35Z" fill="#1876A8"/>
<path d="M461.76 181.69C459.24 189.35 456.97 196.47 454.97 203.09C454.33 205.23 453.7 207.32 453.12 209.35C453.06 209.58 452.99 209.8 452.93 210.03C452.9 210.11 452.88 210.18 452.87 210.25C452.4 211.89 451.94 213.5 451.51 215.07C447.69 229.02 445.44 240.31 445.15 249.24C445.15 249.24 445.15 249.243 445.15 249.25C444.99 249.7 444.83 250.15 444.66 250.6C443.87 252.69 442.98 254.7 441.97 256.57C439.86 260.51 437.24 263.85 433.97 266.12C430.78 268.01 427.84 269.29 424.96 270C423.11 270.46 421.29 270.69 419.44 270.69C414.38 270.69 409.81 269.22 405.56 266.12C405.23 265.91 404.92 265.69 404.6 265.46C404.2 265.17 403.81 264.86 403.43 264.53C393.94 249.01 390.8 229.46 390.76 209.92V208.97C390.76 206.74 390.82 204.5 390.9 202.27C390.9 202.06 390.91 201.85 390.92 201.65V201.61C390.93 201.33 390.94 201.05 390.96 200.78C391.2 195.28 391.65 189.84 392.24 184.54C392.25 184.38 392.27 184.22 392.29 184.07C392.31 183.91 392.33 183.74 392.34 183.59C392.88 178.95 393.51 174.41 394.19 170.07C394.61 167.4 395.05 164.8 395.5 162.28C395.63 161.57 395.75 160.86 395.88 160.16C395.91 160.01 395.93 159.87 395.96 159.73C395.99 159.57 396.02 159.42 396.04 159.26C396.47 156.91 396.91 154.65 397.33 152.48C397.37 152.29 397.41 152.1 397.45 151.91C397.49 151.72 397.52 151.53 397.56 151.34C397.94 149.42 398.32 147.57 398.68 145.8C399.28 142.84 399.85 140.11 400.34 137.67C400.59 136.42 400.83 135.25 401.03 134.16C401.03 134.16 401.85 134.16 403.31 134.2C404.99 134.26 407.52 134.38 410.63 134.68C410.8 134.69 410.97 134.72 411.15 134.74C411.32 134.75 411.5 134.77 411.67 134.79C412.86 134.92 414.12 135.07 415.44 135.24C418.57 135.66 422.04 136.26 425.67 137.09C425.71 137.09 425.75 137.1 425.78 137.12C425.96 137.16 426.13 137.2 426.3 137.24C426.47 137.28 426.63 137.32 426.8 137.36C428.94 137.87 431.13 138.46 433.32 139.16C433.48 139.22 433.64 139.27 433.8 139.32C433.95 139.37 434.1 139.42 434.26 139.47C435.63 139.92 437 140.41 438.37 140.94C438.9 141.15 439.43 141.36 439.95 141.57C440.25 141.7 440.54 141.82 440.84 141.95C441.09 142.06 441.35 142.17 441.6 142.28C441.6 142.28 441.61 142.28 441.62 142.28C441.68 142.31 441.74 142.34 441.8 142.36C441.98 142.44 442.16 142.52 442.34 142.61C442.52 142.69 442.69 142.77 442.87 142.86C443.69 143.24 444.51 143.64 445.32 144.07C445.32 144.07 445.32 144.07 445.33 144.07C445.89 144.36 446.44 144.66 446.99 144.97C447 144.97 447.03 144.98 447.04 145C450.56 146.97 453.88 149.3 456.81 152.06C457.23 152.46 457.65 152.87 458.05 153.29C458.55 153.79 459.03 154.31 459.5 154.84C459.82 155.2 460.14 155.58 460.44 155.95C460.53 156.06 460.62 156.17 460.7 156.28C460.9 156.53 461.1 156.79 461.3 157.04C462.76 158.96 464.04 161.05 465.11 163.31C465.19 163.48 465.27 163.65 465.34 163.82C465.42 163.98 465.5 164.15 465.57 164.32C465.7 164.61 465.82 164.91 465.94 165.2C465.99 165.33 466.04 165.45 466.1 165.57C466.16 165.73 466.22 165.9 466.28 166.06C466.4 166.36 466.52 166.68 466.63 166.99C466.15 168.42 465.68 169.83 465.21 171.22C465.19 171.29 465.16 171.36 465.14 171.43C465.12 171.5 465.09 171.58 465.07 171.65C465.02 171.8 464.97 171.95 464.92 172.09C463.92 175.09 462.95 178 462.01 180.85C461.95 181 461.9 181.15 461.86 181.3C461.81 181.43 461.77 181.58 461.72 181.71L461.76 181.69Z" fill="#53AEDE"/>
<path d="M487.96 281.18C487.82 281.37 487.65 281.57 487.47 281.77C487.37 281.88 487.26 282 487.14 282.11C487.03 282.22 486.92 282.32 486.81 282.43C482.02 286.93 469.58 292.71 456.43 293.69C456.73 293.53 457.02 293.36 457.32 293.18C462.53 290.15 467.18 286.35 471.35 281.8C472.56 280.49 473.73 279.1 474.84 277.64C474.96 277.49 475.07 277.34 475.18 277.19C477.46 277.21 479.88 277.14 482.45 276.99C482.96 276.96 483.45 276.94 483.89 276.94C484.06 276.94 484.23 276.94 484.39 276.94C484.55 276.94 484.72 276.94 484.88 276.96C486.93 277.07 488.13 277.53 488.61 278.25C489.13 278.99 488.85 280.01 487.95 281.17L487.96 281.18Z" fill="#53AEDE"/>
<path d="M464.41 166.17C464.41 166.35 464.41 166.52 464.41 166.69C464.37 167.86 464.04 169.13 463.36 170.49C463.3 170.6 463.25 170.71 463.2 170.82C463.13 170.96 463.06 171.1 462.99 171.24C462.92 171.38 462.85 171.52 462.78 171.66C462.31 172.62 461.81 173.63 461.32 174.69C458.43 180.72 455.14 188.14 452.07 196.22C444.65 215.7 438.45 239.09 441.98 256.57C439.87 260.51 437.25 263.85 433.98 266.12C430.79 268.01 427.85 269.29 424.97 270C422.68 267.62 420.21 264.71 417.54 261.27C401.99 241.15 401.92 204.64 407.08 174.94C407.87 170.37 408.79 165.96 409.8 161.79C409.84 161.6 409.89 161.41 409.93 161.22V161.21C409.95 161.1 409.98 160.99 410.01 160.88C410.87 157.42 411.78 154.13 412.73 151.07C412.96 151.07 425.17 151.07 437.66 152.84C437.85 152.87 438.04 152.9 438.23 152.92C438.42 152.94 438.61 152.98 438.8 153C441.23 153.36 443.66 153.8 446 154.31C446.89 154.51 447.76 154.71 448.62 154.93C448.9 155 449.16 155.08 449.43 155.15C449.73 155.23 450.02 155.31 450.32 155.4C451.13 155.63 451.93 155.87 452.7 156.14C454.21 156.64 455.63 157.19 456.92 157.81C459.85 159.19 462.13 160.86 463.37 162.86C463.48 163.04 463.58 163.22 463.67 163.4C463.75 163.57 463.83 163.75 463.9 163.92C464.13 164.49 464.29 165.09 464.36 165.72C464.37 165.86 464.38 166 464.39 166.15L464.41 166.17Z" fill="#ACE1FA"/>
<path opacity="0.56" d="M466.67 166.96C466.16 168.46 465.66 169.95 465.17 171.41C456.08 180.04 443.34 184.87 430.8 183.98C416.47 182.96 402.93 174.51 395.48 162.25C396.54 156.23 397.65 150.67 398.66 145.77C400.28 147.26 402.03 149.76 403.66 149.61C423.09 147.85 442.74 151.02 461.33 157C463.55 159.93 465.37 163.23 466.67 166.96Z" fill="#2180B4"/>
<path d="M428.81 228.39C428.31 231.44 427.94 234.54 427.98 237.64C428.01 240.32 428.1 243.77 429.45 246.14C429.83 246.81 430.86 246.74 431.1 245.99C431.91 243.41 431.63 240.12 431.61 237.44C431.58 234.46 431.71 231.46 431.96 228.49C432.14 226.42 429.13 226.46 428.81 228.39Z" fill="#E1F4FD"/>
<path d="M428.87 253C428.94 254.11 429.02 255.17 429.24 256.26C429.44 257.25 429.55 258.17 430.16 259C430.46 259.41 431.19 259.31 431.43 258.89C431.91 258.04 431.91 257.13 431.97 256.18C432.04 255.13 432.01 254.14 431.94 253.09C431.81 251.13 428.73 251.01 428.86 253H428.87Z" fill="#E1F4FD"/>
<path d="M465.1 171.63C465.12 171.56 465.15 171.48 465.17 171.41C465.19 171.34 465.22 171.27 465.24 171.2C465.08 171.18 464.94 171.15 464.78 171.12C464.74 171.27 464.69 171.41 464.64 171.56C464.59 171.71 464.54 171.86 464.49 172C464.49 172.02 464.48 172.04 464.47 172.06C463.44 175.14 462.45 178.13 461.49 181.03C461.49 181.03 461.49 181.03 461.49 181.04C461.49 181.05 461.49 181.07 461.49 181.08C461.48 181.12 461.47 181.15 461.45 181.18C458.86 189.07 456.56 196.34 454.54 203.04C454.69 203.06 454.83 203.08 454.97 203.09C456.97 196.47 459.24 189.35 461.76 181.69C461.81 181.56 461.85 181.41 461.9 181.28C462.03 181.35 462.17 181.41 462.31 181.48C462.36 181.32 462.41 181.18 462.46 181.02C463.41 178.14 464.39 175.19 465.41 172.14C465.46 171.99 465.51 171.85 465.56 171.7C465.4 171.68 465.26 171.66 465.11 171.63H465.1ZM447.54 145.81C447.54 145.81 447.58 145.82 447.6 145.84C447.5 145.71 447.4 145.56 447.32 145.42C447.39 145.55 447.47 145.68 447.55 145.81H447.54ZM392.33 183.57C392.32 183.73 392.3 183.89 392.28 184.05C392.12 184.08 391.97 184.11 391.82 184.15C391.8 184.31 391.78 184.46 391.76 184.62C391.2 189.7 390.76 194.92 390.52 200.19C390.51 200.47 390.49 200.75 390.49 201.03C390.49 201.04 390.49 201.06 390.49 201.07C390.64 201.26 390.77 201.44 390.91 201.64C390.91 201.85 390.9 202.05 390.89 202.26C391.04 202.48 391.19 202.69 391.32 202.91C391.32 202.69 391.33 202.47 391.35 202.25C391.35 202.25 391.35 202.23 391.35 202.21C391.35 201.93 391.36 201.65 391.39 201.37C391.62 195.64 392.09 189.95 392.71 184.43C392.72 184.27 392.74 184.1 392.76 183.95C392.77 183.78 392.8 183.62 392.82 183.46C392.74 183.49 392.66 183.51 392.59 183.52C392.51 183.53 392.42 183.56 392.34 183.57H392.33ZM489.13 278.21C489.08 278.11 489.02 278.01 488.95 277.93C488.31 277.07 486.89 276.59 484.7 276.5C484.54 276.5 484.37 276.5 484.21 276.49C484.05 276.49 483.89 276.49 483.73 276.49C483.32 276.49 482.88 276.5 482.43 276.53C479.99 276.67 477.69 276.74 475.52 276.73C475.41 276.89 475.3 277.03 475.18 277.18C475.07 277.33 474.96 277.48 474.84 277.63C477.22 277.67 479.77 277.6 482.47 277.44C483.08 277.4 483.62 277.39 484.12 277.39C484.33 277.39 484.54 277.39 484.73 277.4C484.75 277.4 484.77 277.4 484.79 277.4C487.37 277.52 488.1 278.2 488.3 278.57C488.3 278.57 488.3 278.59 488.31 278.6C488.64 279.24 488.18 280.12 487.65 280.8C487.6 280.88 487.54 280.94 487.49 281.01C487.41 281.12 487.31 281.22 487.21 281.33C487.11 281.44 487 281.56 486.88 281.68L486.55 282.01C482.08 286.26 470.18 291.99 457.31 293.16C457.01 293.34 456.72 293.51 456.42 293.67C456.12 293.85 455.8 294.02 455.49 294.19C469.17 293.41 482.13 287.31 487.05 282.77C487.16 282.66 487.28 282.56 487.38 282.46C487.5 282.35 487.61 282.23 487.71 282.13C487.81 282.02 487.9 281.93 487.99 281.83C488.06 281.75 488.12 281.67 488.19 281.6C488.21 281.57 488.23 281.54 488.25 281.52C488.31 281.44 488.38 281.36 488.43 281.28C489.53 279.8 489.41 278.79 489.11 278.2L489.13 278.21ZM462.31 181.48C462.36 181.32 462.41 181.18 462.46 181.02C463.41 178.14 464.39 175.19 465.41 172.14C465.46 171.99 465.51 171.85 465.56 171.7C465.6 171.56 465.65 171.41 465.71 171.26C466.16 169.9 466.63 168.51 467.1 167.1C467.14 167.01 467.14 166.9 467.1 166.8C466.99 166.49 466.88 166.18 466.75 165.87C466.69 165.71 466.63 165.54 466.57 165.38C466.52 165.26 466.47 165.13 466.41 165.01C466.33 164.8 466.24 164.58 466.15 164.37C466.08 164.2 466 164.04 465.92 163.87C465.85 163.7 465.77 163.54 465.69 163.38C464.54 160.9 463.09 158.55 461.36 156.35C461.2 156.13 461.03 155.92 460.85 155.71C460.65 155.46 460.45 155.22 460.23 154.97C459.67 154.32 459.08 153.68 458.46 153.05C458.18 152.75 457.88 152.46 457.58 152.17C455.9 150.54 454.06 149.02 452.04 147.6C451.55 147.25 451.04 146.9 450.51 146.56C449.3 145.76 448.03 145 446.71 144.28C446.67 144.25 446.65 144.24 446.61 144.22C446.11 143.94 445.61 143.68 445.09 143.41C444.83 143.27 444.57 143.13 444.31 143.01C443.8 142.75 443.28 142.5 442.75 142.26C442.57 142.18 442.39 142.09 442.21 142.02C442.03 141.93 441.86 141.85 441.68 141.77C441.66 141.77 441.64 141.76 441.63 141.75C441.26 141.58 440.87 141.42 440.49 141.26C440.31 141.18 440.12 141.1 439.93 141.02C438.11 140.27 436.2 139.57 434.21 138.93C434.05 138.87 433.91 138.82 433.75 138.78C433.59 138.72 433.43 138.67 433.27 138.62C432.08 138.24 430.85 137.88 429.59 137.55C428.76 137.33 427.94 137.12 427.12 136.92C426.96 136.88 426.79 136.84 426.63 136.8C426.46 136.76 426.3 136.72 426.13 136.68C426.11 136.68 426.09 136.68 426.07 136.67C422.21 135.78 418.51 135.15 415.18 134.71C413.87 134.53 412.62 134.39 411.45 134.27C411.28 134.25 411.11 134.23 410.94 134.21C410.77 134.2 410.59 134.18 410.43 134.17C407.67 133.9 405.38 133.78 403.74 133.72C402.03 133.66 401.04 133.66 401 133.66C400.78 133.66 400.6 133.82 400.55 134.03C400.29 135.42 399.98 136.92 399.65 138.55C399.4 139.81 399.12 141.14 398.83 142.57C398.31 145.11 397.74 147.86 397.16 150.81C397.12 151.01 397.08 151.21 397.04 151.4C397 151.6 396.96 151.8 396.93 151.99C396.47 154.29 396.01 156.68 395.56 159.18C395.52 159.34 395.5 159.48 395.48 159.64C395.45 159.79 395.42 159.93 395.4 160.08C394.81 163.35 394.23 166.76 393.68 170.29C393.01 174.59 392.39 179.06 391.87 183.65C391.85 183.81 391.83 183.97 391.82 184.13C391.8 184.29 391.78 184.44 391.76 184.6C391.2 189.68 390.76 194.9 390.52 200.17C390.51 200.45 390.49 200.73 390.49 201.01C390.49 201.02 390.49 201.04 390.49 201.05C390.48 201.24 390.47 201.44 390.47 201.63C390.37 204.01 390.31 206.41 390.31 208.8C390.31 208.96 390.31 209.13 390.31 209.29V209.76C390.31 214.92 390.54 220.09 391.03 225.18C392.51 240.33 396.28 253.12 402.32 263.48C402.68 263.84 403.06 264.19 403.43 264.51C403.81 264.84 404.21 265.15 404.6 265.44C397.75 254.78 393.52 241.31 391.93 225.09C391.44 220.12 391.22 215.07 391.21 210.03V209.08C391.21 207.02 391.26 204.95 391.33 202.89C391.33 202.67 391.34 202.45 391.36 202.23C391.36 202.23 391.36 202.21 391.36 202.19C391.36 201.91 391.37 201.63 391.4 201.35C391.63 195.62 392.1 189.93 392.72 184.41C392.73 184.25 392.75 184.08 392.77 183.93C392.78 183.76 392.81 183.6 392.83 183.44C393.37 178.74 394.01 174.17 394.7 169.78C395.07 167.4 395.46 165.08 395.86 162.82C396.02 161.92 396.18 161.04 396.33 160.17C396.36 160.03 396.39 159.88 396.41 159.74C396.44 159.58 396.47 159.43 396.49 159.27C396.9 157.06 397.31 154.94 397.71 152.89C397.75 152.7 397.79 152.5 397.82 152.31C397.86 152.13 397.9 151.94 397.93 151.76C398.32 149.8 398.69 147.93 399.06 146.14C399.3 144.97 399.53 143.85 399.75 142.76C400.2 140.59 400.61 138.61 400.96 136.81C401.12 136.03 401.26 135.29 401.4 134.58C401.71 134.58 402.21 134.58 402.87 134.61C404.57 134.65 407.35 134.79 410.84 135.13C411.01 135.15 411.19 135.17 411.37 135.19C411.55 135.21 411.74 135.23 411.92 135.25C413.13 135.38 414.41 135.54 415.75 135.72C418.67 136.13 421.86 136.67 425.19 137.42C425.25 137.43 425.32 137.45 425.38 137.46C425.56 137.5 425.74 137.54 425.92 137.59C426.1 137.63 426.27 137.67 426.44 137.71C427.4 137.94 428.37 138.18 429.35 138.45C430.66 138.8 432 139.19 433.37 139.63C433.53 139.69 433.7 139.74 433.86 139.79C434.02 139.84 434.17 139.89 434.33 139.95C435.21 140.24 436.08 140.54 436.97 140.88C437.46 141.06 437.97 141.25 438.47 141.45C438.87 141.61 439.26 141.76 439.66 141.93C440.18 142.14 440.7 142.37 441.22 142.59C441.47 142.7 441.73 142.82 441.98 142.94C442.16 143.02 442.34 143.1 442.52 143.19C442.7 143.27 442.89 143.36 443.08 143.46C443.95 143.87 444.82 144.3 445.67 144.77C445.67 144.77 445.673 144.77 445.68 144.77C446.3 145.1 446.92 145.44 447.53 145.8C447.55 145.8 447.57 145.81 447.59 145.83C450.49 147.52 453.27 149.48 455.8 151.75C456.42 152.31 457.03 152.89 457.62 153.49C457.97 153.84 458.31 154.19 458.63 154.55C459.1 155.05 459.54 155.56 459.97 156.09C459.97 156.09 460 156.13 460.01 156.14C460.18 156.34 460.34 156.54 460.5 156.75C462.05 158.7 463.41 160.83 464.56 163.15C464.64 163.32 464.72 163.49 464.8 163.67C464.88 163.85 464.96 164.02 465.04 164.19C465.21 164.56 465.37 164.95 465.53 165.33C465.58 165.46 465.63 165.58 465.68 165.7C465.74 165.86 465.81 166.03 465.86 166.18C465.96 166.44 466.06 166.7 466.15 166.96C465.68 168.36 465.21 169.75 464.75 171.12C464.71 171.27 464.66 171.41 464.61 171.56C464.56 171.71 464.51 171.86 464.46 172C464.46 172.02 464.45 172.04 464.44 172.06C463.41 175.14 462.42 178.13 461.46 181.03C461.46 181.03 461.46 181.03 461.46 181.04C461.46 181.05 461.46 181.07 461.46 181.08C461.45 181.12 461.44 181.15 461.42 181.18C458.83 189.07 456.53 196.34 454.51 203.04C453.86 205.19 453.24 207.28 452.66 209.31C452.63 209.4 452.61 209.49 452.58 209.57C452.58 209.58 452.58 209.59 452.58 209.6C452.52 209.8 452.47 210 452.41 210.19C452.16 211.09 451.9 211.99 451.65 212.86C447.17 228.91 444.74 241.21 444.63 250.6C444.8 250.15 444.96 249.7 445.12 249.25C445.12 249.25 445.12 249.247 445.12 249.24C445.29 248.76 445.45 248.28 445.61 247.8C446.06 239.89 447.97 230.04 451.22 217.81C451.86 215.4 452.56 212.9 453.31 210.3C453.33 210.23 453.35 210.15 453.37 210.08C453.37 210.08 453.37 210.077 453.37 210.07C453.43 209.85 453.49 209.62 453.55 209.41C454.14 207.38 454.75 205.3 455.4 203.15C457.37 196.63 459.61 189.56 462.12 181.89C462.16 181.76 462.21 181.61 462.25 181.48H462.31Z" fill="#1876A8"/>
<path d="M484.47 277.1C482.63 273.13 482.65 265.96 485.72 259.49C489.86 250.77 499.14 244.53 504.46 243.07C507.55 250.82 506.88 260.02 502.74 268.75C498.6 277.47 492.53 283.68 488.45 281.74L484.47 277.09V277.1Z" fill="#53AEDE"/>
<path d="M489.12 282.46C488.82 282.39 488.53 282.29 488.25 282.16C488.02 282.05 487.93 281.78 488.03 281.55C488.14 281.32 488.41 281.23 488.64 281.33C492.18 283.01 498.06 277.52 502.32 268.55C506.39 259.98 507.04 251.15 504.18 243.62C499.1 245.19 490.15 251.19 486.12 259.68C482.91 266.44 483.23 273.34 484.88 276.9C484.99 277.13 484.88 277.4 484.66 277.51C484.43 277.62 484.16 277.51 484.05 277.29C482.32 273.55 481.97 266.32 485.3 259.3C489.6 250.23 499.02 244.1 504.33 242.64C504.55 242.58 504.79 242.69 504.87 242.91C508 250.76 507.38 260 503.13 268.95C499.47 276.67 493.63 283.47 489.11 282.46H489.12Z" fill="#1876A8"/>
<path d="M495.16 271.56C497.07 271.11 499.19 270.88 501.39 270.92C502.67 270.94 503.99 271.06 505.31 271.29C514.83 272.91 523.34 280.14 526.2 284.88C519.58 289.96 510.54 291.81 501.02 290.19C493.51 288.91 487.92 284.45 486.34 280.62L495.17 271.57L495.16 271.56Z" fill="#53AEDE"/>
<path d="M499.68 290.38C492.6 288.8 487.44 284.46 485.92 280.78C485.82 280.55 485.93 280.28 486.17 280.18C486.4 280.08 486.67 280.19 486.77 280.43C488.29 284.1 493.7 288.47 501.11 289.73C510.46 291.32 519.14 289.55 525.61 284.76C522.72 280.3 514.51 273.31 505.25 271.74C503.99 271.53 502.69 271.4 501.4 271.38C499.3 271.34 497.24 271.55 495.28 272.01C495.03 272.07 494.79 271.91 494.73 271.67C494.67 271.42 494.83 271.18 495.07 271.12C497.11 270.65 499.24 270.42 501.41 270.47C502.75 270.49 504.09 270.62 505.4 270.84C515.3 272.52 523.76 279.92 526.6 284.64C526.72 284.84 526.67 285.1 526.49 285.24C519.79 290.38 510.72 292.29 500.95 290.64C500.52 290.57 500.1 290.48 499.68 290.39V290.38Z" fill="#1876A8"/>
<path d="M500.74 275.62C502.49 276 504.22 276.5 505.95 276.98C507.53 277.42 509.06 278.11 510.72 278.12C511.32 278.12 511.52 277.48 511.22 277.04C509.11 274.05 504.24 274.28 501.01 274.05C500.12 273.99 499.85 275.43 500.75 275.62H500.74Z" fill="#ACE1FA"/>
<path d="M514.54 281.66C514.94 281.94 515.33 282.25 515.75 282.51C516.21 282.8 516.73 282.91 517.23 283.12C518.32 283.58 519.22 282 518.44 281.21C518.06 280.83 517.75 280.38 517.31 280.08C516.91 279.8 516.49 279.54 516.07 279.28C514.53 278.28 513.06 280.62 514.55 281.67L514.54 281.66Z" fill="#ACE1FA"/>
<path d="M443.93 77.1401C444.29 76.4701 444.81 75.7201 445.56 75.7401C446.36 75.7601 446.84 76.6301 447.13 77.3701C448.61 81.1401 449.73 85.0601 450.47 89.0501L439.71 88.2401C440.63 84.3801 442.05 80.6401 443.92 77.1301L443.93 77.1401Z" fill="#53AEDE"/>
<path d="M439.15 88.6601L439.27 88.1401C440.2 84.2401 441.63 80.4601 443.52 76.9301C443.74 76.5201 444.41 75.2601 445.57 75.2901C446.82 75.3201 447.37 76.7501 447.55 77.2101C449.04 81.0101 450.17 84.9601 450.92 88.9701L451.03 89.5501L439.15 88.6601ZM445.66 76.2201C445.66 76.2201 445.58 76.2101 445.54 76.2101C445.14 76.2001 444.74 76.5801 444.32 77.3601C442.55 80.6701 441.19 84.1901 440.28 87.8401L449.91 88.5601C449.18 84.8101 448.1 81.1101 446.7 77.5501C446.39 76.7501 446.04 76.3001 445.66 76.2201Z" fill="#1876A8"/>
<path d="M393.11 139.26C392.45 147.06 397.47 153.87 406.01 158.93C413.95 163.63 424.67 169.98 436.96 171.02C449.06 172.04 460.53 167.64 469.1 164.45C478.59 160.92 484.85 154.99 485.52 147.08C485.86 143.12 484.74 139.23 482.45 135.62C480.31 132.25 479.27 128.28 479.67 124.3C479.69 124.12 479.7 123.94 479.72 123.76C481.37 104.25 465.42 86.97 444.09 85.17C422.76 83.37 404.13 97.72 402.48 117.23C402.47 117.39 402.45 117.55 402.44 117.71C402.16 121.74 400.62 125.6 397.94 128.62C395.14 131.77 393.43 135.36 393.1 139.27L393.11 139.26Z" fill="#53AEDE"/>
<path d="M405.07 158.36C405.38 158.55 405.69 158.74 406.01 158.93C415.86 164.76 425.55 170.07 436.96 171.02C448.4 172 459.02 168.2 469.1 164.45C469.44 164.32 469.78 164.19 470.12 164.06C473.21 160.35 473.97 156.03 472.93 152.6C472.07 149.81 469.84 147.39 467 146.63C462.06 145.3 456.17 149.09 451.74 146.23C447.87 143.73 444.07 141.78 439.36 141.48C434.64 141.18 430.49 142.18 426.31 144.08C421.61 146.22 416.32 141.43 411.2 141.91C405.01 142.49 400.57 150.23 405.08 158.36H405.07Z" fill="#ACE1FA"/>
<path d="M462.02 143.76C467.085 143.76 471.19 139.654 471.19 134.59C471.19 129.525 467.085 125.42 462.02 125.42C456.956 125.42 452.85 129.525 452.85 134.59C452.85 139.654 456.956 143.76 462.02 143.76Z" fill="white"/>
<path d="M459.91 143.99C455.28 142.96 452.01 138.63 452.42 133.78C452.64 131.22 453.84 128.89 455.8 127.23C457.76 125.57 460.26 124.78 462.82 124.99C465.38 125.21 467.71 126.41 469.37 128.37C471.03 130.34 471.82 132.83 471.61 135.39C471.39 137.95 470.19 140.28 468.23 141.94C466.27 143.6 463.77 144.39 461.21 144.18C460.77 144.14 460.34 144.08 459.92 143.98L459.91 143.99ZM463.92 126.09C463.53 126 463.14 125.94 462.74 125.91C460.42 125.71 458.16 126.43 456.38 127.93C454.6 129.43 453.51 131.54 453.32 133.86C452.92 138.65 456.48 142.87 461.27 143.28C463.59 143.48 465.85 142.76 467.63 141.26C469.41 139.76 470.5 137.65 470.69 135.33C470.89 133.01 470.17 130.75 468.67 128.97C467.43 127.5 465.77 126.5 463.92 126.09Z" fill="#010101"/>
<path d="M453.39 134.61C453.08 138.32 455.83 141.59 459.54 141.9C463.25 142.21 466.52 139.46 466.83 135.75C467.14 132.04 464.39 128.78 460.68 128.46C458.72 128.29 456.88 128.98 455.54 130.22C457.84 131.75 459.18 133.76 458.54 134.74C457.93 135.68 455.7 135.32 453.47 133.96C453.43 134.17 453.4 134.39 453.38 134.61H453.39Z" fill="#010101"/>
<path d="M410.39 130.24C409.96 135.29 413.71 139.73 418.76 140.15C423.81 140.58 428.25 136.83 428.67 131.78C429.1 126.73 425.35 122.29 420.3 121.87C415.25 121.44 410.81 125.19 410.39 130.24Z" fill="white"/>
<path d="M417.419 140.41C415.379 139.96 413.549 138.85 412.179 137.23C410.519 135.26 409.729 132.77 409.939 130.21C410.389 124.92 415.059 120.98 420.349 121.43C422.909 121.65 425.239 122.85 426.899 124.81C428.559 126.78 429.349 129.27 429.139 131.83C428.919 134.39 427.719 136.72 425.759 138.38C423.799 140.04 421.299 140.83 418.739 140.62C418.299 140.58 417.859 140.52 417.439 140.42L417.419 140.41ZM410.849 130.28C410.649 132.6 411.369 134.86 412.869 136.64C414.369 138.42 416.479 139.51 418.799 139.7C421.119 139.9 423.379 139.18 425.159 137.68C426.939 136.18 428.029 134.07 428.219 131.75C428.419 129.43 427.699 127.17 426.199 125.39C424.699 123.61 422.589 122.52 420.269 122.33C415.479 121.92 411.259 125.49 410.849 130.28Z" fill="#010101"/>
<path d="M414.579 131.34C414.269 135.05 417.02 138.32 420.73 138.63C424.44 138.94 427.71 136.19 428.02 132.48C428.33 128.77 425.58 125.51 421.87 125.19C419.91 125.02 418.07 125.71 416.73 126.95C419.03 128.48 420.37 130.49 419.73 131.47C419.12 132.41 416.89 132.05 414.66 130.69C414.62 130.9 414.59 131.12 414.57 131.34H414.579Z" fill="#010101"/>
<path d="M459.169 112.43C459.089 113.39 460.939 113.45 463.209 113.65C465.479 113.84 467.319 114.09 467.399 113.13C467.479 112.17 465.779 110.37 463.509 110.18C461.239 109.99 459.259 111.48 459.179 112.44L459.169 112.43Z" fill="#176995"/>
<path d="M420.25 111.17C420.49 112.1 422.26 111.55 424.47 110.97C426.68 110.4 428.49 110.02 428.25 109.09C428.01 108.16 425.8 107.02 423.6 107.6C421.39 108.17 420.02 110.24 420.26 111.17H420.25Z" fill="#176995"/>
<path d="M425.3 145.38C425.19 145.36 425.09 145.29 425.02 145.19C424.88 144.98 424.93 144.7 425.14 144.56C429.22 141.82 434.17 140.53 439.07 140.95C443.97 141.36 448.63 143.46 452.2 146.84C452.38 147.01 452.39 147.3 452.22 147.48C452.05 147.66 451.76 147.67 451.58 147.5C448.16 144.26 443.7 142.25 439 141.86C434.31 141.46 429.57 142.69 425.66 145.32C425.55 145.39 425.42 145.41 425.31 145.39L425.3 145.38Z" fill="#1977A9"/>
<path d="M415.09 164.56C415.09 164.56 415.02 164.54 414.98 164.52L414.06 164.05C408.13 161 402 157.85 397.54 152.74C391.82 146.19 391.09 137.37 395.73 130.8C396.18 130.16 396.64 129.54 397.09 128.94C398.99 126.37 400.79 123.93 401.55 120.65C401.83 119.47 401.95 118.23 402.07 117.03C402.16 116.1 402.26 115.14 402.43 114.2C402.8 112.09 403.39 109.99 404.18 107.96C406.85 101.1 411.94 95.0201 418.51 90.8501C425.08 86.6701 433.15 84.4501 441.23 84.5801C449.48 84.7201 457.67 87.3001 464.29 91.8501C470.55 96.1501 475.44 102.23 478.04 108.96C479.59 112.96 480.35 117.17 480.29 121.46C480.29 121.97 480.27 122.48 480.26 122.98C480.18 126.59 480.1 130 481.72 133.27C482.07 133.97 482.42 134.65 482.77 135.32C484.3 138.25 485.75 141.02 485.99 144.53C486.27 148.55 485.04 152.58 482.54 155.88C478.23 161.56 471.51 164.24 464.99 166.49C463.72 166.93 459.96 168.07 456.94 168.98C455.81 169.32 454.76 169.64 453.97 169.88C453.73 169.95 453.47 169.82 453.4 169.58C453.33 169.34 453.46 169.08 453.7 169.01C454.49 168.77 455.54 168.45 456.68 168.11C459.69 167.2 463.44 166.06 464.69 165.63C471.08 163.42 477.66 160.81 481.81 155.33C484.18 152.21 485.34 148.39 485.08 144.59C484.85 141.26 483.45 138.58 481.96 135.74C481.6 135.06 481.24 134.37 480.9 133.67C479.19 130.2 479.27 126.52 479.35 122.96C479.36 122.46 479.37 121.95 479.38 121.44C479.43 117.26 478.7 113.17 477.19 109.28C474.65 102.72 469.89 96.7901 463.78 92.5901C457.31 88.1401 449.29 85.6201 441.22 85.4801C433.32 85.3501 425.43 87.5201 419 91.6001C412.59 95.6701 407.63 101.59 405.03 108.27C404.26 110.24 403.69 112.28 403.33 114.33C403.17 115.24 403.07 116.18 402.98 117.1C402.86 118.33 402.73 119.6 402.44 120.84C401.63 124.31 399.78 126.81 397.82 129.47C397.37 130.07 396.92 130.69 396.48 131.32C392.09 137.54 392.8 145.91 398.24 152.14C402.59 157.12 408.64 160.23 414.49 163.24L415.41 163.71C415.63 163.83 415.72 164.1 415.61 164.32C415.51 164.51 415.3 164.6 415.11 164.56H415.09Z" fill="#1876A8"/>
<path d="M430.54 89.8301C427.12 90.8601 423.97 92.4001 421.08 94.5001C419.67 95.5201 418.39 96.6701 417.34 98.0601C416.34 99.3801 415.07 100.7 414.88 102.4C414.78 103.25 415.79 103.73 416.47 103.39C417.7 102.79 418.55 101.51 419.55 100.59C420.7 99.5301 421.91 98.4901 423.14 97.5201C425.58 95.5701 428.34 94.0401 431.29 93.0301C433.24 92.3601 432.59 89.2301 430.54 89.8401V89.8301Z" fill="#ACE1FA"/>
<path d="M412.22 106.76C411.36 108.45 410.06 110.48 410.45 112.46C410.53 112.85 411.07 113.15 411.43 112.9C412.99 111.82 413.61 109.8 414.45 108.18C415.24 106.68 412.99 105.25 412.22 106.76Z" fill="#ACE1FA"/>
<path d="M438.64 143.74C436.16 143.43 431.56 143.2 429.96 145.57C429.58 146.14 429.87 147.05 430.56 147.22C431.84 147.53 433.07 146.95 434.33 146.69C435.74 146.41 437.13 146.24 438.57 146.26C440.21 146.29 440.23 143.94 438.65 143.74H438.64Z" fill="#E1F4FD"/>
<path d="M423.24 162.66C422.14 162.42 421.13 161.77 420.48 160.85C419.64 159.67 419.4 158.09 419.86 156.71C419.94 156.47 420.2 156.35 420.44 156.42C420.68 156.5 420.81 156.76 420.73 157C420.36 158.1 420.55 159.37 421.22 160.31C421.9 161.25 423.04 161.84 424.2 161.85C424.45 161.85 424.65 162.06 424.65 162.31C424.65 162.56 424.44 162.77 424.19 162.76C423.87 162.76 423.55 162.72 423.24 162.65V162.66Z" fill="#1977A9"/>
<path d="M501.68 186.22C493.89 187.55 477.3 188.91 461.17 180.93C458.31 182.65 455.29 198.07 453.84 202.95C453.41 204.38 451.79 210.12 453.01 210.04C458.53 210.68 485.45 208.19 503.99 195.96C503.18 192.73 502.4 189.48 501.68 186.22Z" fill="#53AEDE"/>
<path opacity="0.56" d="M504.76 195.46C481.8 210.27 454.31 210.18 453.02 210.04C451.8 210.12 453.22 204.31 453.85 202.95C473.02 205.42 487.27 203.11 504.76 195.46Z" fill="#2180B4"/>
<path d="M468.82 189.94C471.92 191.13 475.13 192.08 478.45 192.7C480.03 193 481.61 193.21 483.23 193.24C484.81 193.27 486.46 193.47 487.92 192.86C488.81 192.49 488.83 191.35 488.02 190.92C486.78 190.27 485.31 190.32 483.91 190.04C482.3 189.73 480.67 189.51 479.04 189.23C475.92 188.69 472.89 187.89 469.95 186.86C467.72 186.08 466.69 189.11 468.82 189.93V189.94Z" fill="#ACE1FA"/>
<path d="M474.76 186.18C470.07 185.14 465.61 183.62 461.7 181.66C461.47 181.55 461.38 181.27 461.5 181.05C461.61 180.83 461.89 180.74 462.11 180.85C473.52 186.56 489.67 188.49 502.29 185.66C502.54 185.61 502.78 185.76 502.83 186.01C502.88 186.26 502.73 186.5 502.48 186.56C494 188.46 483.94 188.24 474.75 186.19L474.76 186.18Z" fill="#1876A8"/>
<path d="M452.46 210.2C452.24 210.15 452.08 209.94 452.11 209.7C452.14 209.45 452.36 209.27 452.61 209.3C458.86 210.01 464.18 208.98 470.34 207.79L471.83 207.5C480.24 205.89 487.88 203.61 494.54 200.72C498.64 198.94 501.59 197.3 504.1 195.39C504.3 195.24 504.59 195.28 504.74 195.48C504.89 195.68 504.85 195.97 504.65 196.12C502.08 198.07 499.08 199.75 494.9 201.56C488.18 204.47 480.48 206.77 472 208.4L470.51 208.69C464.53 209.85 458.89 210.94 452.5 210.21C452.48 210.21 452.47 210.21 452.45 210.21L452.46 210.2Z" fill="#1876A8"/>
<path d="M508.1 202.55L506.7 203.31C504.67 204.41 502.14 203.65 501.04 201.62L481.56 165.53L490.31 160.81L509.79 196.9C510.89 198.93 510.13 201.46 508.1 202.56V202.55Z" fill="#F7903D"/>
<path d="M503.72 204.16C503.61 204.14 503.5 204.11 503.39 204.08C502.2 203.73 501.23 202.93 500.64 201.84L481.16 165.75C481.04 165.53 481.12 165.25 481.34 165.13L490.09 160.41C490.2 160.35 490.32 160.34 490.44 160.37C490.56 160.4 490.65 160.48 490.71 160.59L510.19 196.68C510.78 197.77 510.91 199.02 510.55 200.21C510.2 201.4 509.4 202.37 508.31 202.96L506.91 203.72C505.92 204.25 504.8 204.41 503.71 204.17L503.72 204.16ZM482.18 165.71L501.45 201.4C502.42 203.21 504.69 203.88 506.49 202.91L507.89 202.15C508.76 201.68 509.4 200.89 509.69 199.94C509.97 198.99 509.87 197.98 509.4 197.11L490.13 161.42L482.18 165.71Z" fill="#A24323"/>
<path d="M499.364 141.326C502.889 125.505 492.92 109.821 477.099 106.296C461.277 102.771 445.594 112.74 442.069 128.561C438.544 144.383 448.512 160.067 464.334 163.591C480.155 167.116 495.839 157.148 499.364 141.326Z" fill="#53AEDE"/>
<path d="M464.509 156.58C476.052 156.58 485.409 147.223 485.409 135.68C485.409 124.137 476.052 114.78 464.509 114.78C452.967 114.78 443.609 124.137 443.609 135.68C443.609 147.223 452.967 156.58 464.509 156.58Z" fill="white"/>
<path d="M458.3 155.65C454.52 154.48 451.15 152.26 448.53 149.17C444.93 144.9 443.21 139.49 443.68 133.93C444.15 128.37 446.76 123.32 451.02 119.72C455.29 116.12 460.7 114.4 466.26 114.87C471.82 115.34 476.87 117.95 480.47 122.21C484.07 126.48 485.79 131.89 485.32 137.45C484.85 143.01 482.24 148.06 477.98 151.66C473.71 155.26 468.3 156.98 462.74 156.51C461.21 156.38 459.73 156.09 458.3 155.65ZM470.37 116.82C469.02 116.4 467.61 116.13 466.17 116.01C460.91 115.56 455.8 117.19 451.77 120.6C447.74 124 445.27 128.77 444.83 134.03C444.38 139.29 446.01 144.4 449.42 148.43C452.82 152.46 457.59 154.93 462.85 155.37C468.11 155.82 473.22 154.19 477.25 150.78C481.28 147.38 483.75 142.61 484.19 137.35C484.64 132.09 483.01 126.98 479.6 122.95C477.13 120.02 473.94 117.92 470.37 116.82Z" fill="#010101"/>
<path d="M444.87 135.73C444.15 144.19 450.44 151.63 458.89 152.34C467.34 153.06 474.79 146.78 475.5 138.32C476.22 129.87 469.93 122.43 461.48 121.72C457.01 121.34 452.83 122.92 449.78 125.73C455.02 129.21 458.08 133.8 456.62 136.02C455.22 138.15 450.15 137.34 445.07 134.25C444.98 134.74 444.91 135.23 444.87 135.73Z" fill="#010101"/>
<path opacity="0.38" d="M499.75 130.76L451.27 156.93C448.74 154.7 446.56 152 444.87 148.86C443.2 145.77 442.15 142.52 441.66 139.24L490.24 113.01C492.71 115.22 494.85 117.88 496.52 120.97C498.21 124.11 499.27 127.42 499.75 130.75V130.76Z" fill="white"/>
<path opacity="0.38" d="M497.39 147.1L466.22 163.92C461.96 163.26 457.87 161.67 454.28 159.25L500.04 134.54C500.09 138.88 499.18 143.17 497.39 147.09V147.1Z" fill="white"/>
<path d="M503.36 117.28C493.62 99.23 471.09 92.5 453.04 102.24C434.99 111.99 428.26 134.51 438.01 152.56C447.75 170.61 470.28 177.34 488.32 167.6C506.37 157.86 513.1 135.33 503.36 117.29V117.28ZM484.41 160.34C478.82 163.36 472.56 164.45 466.29 163.48C462.11 162.83 458.04 161.24 454.53 158.88C453.49 158.18 452.49 157.41 451.57 156.59C449.02 154.34 446.9 151.67 445.26 148.65C443.66 145.68 442.59 142.5 442.1 139.18C440.31 127.19 446.29 115.26 456.96 109.5C463.21 106.12 470.34 105.26 477 106.74C481.71 107.79 486.19 110.01 489.93 113.36C492.43 115.59 494.51 118.23 496.11 121.19C497.74 124.22 498.81 127.45 499.29 130.82C499.47 132.05 499.56 133.3 499.58 134.55C499.63 138.78 498.73 143.06 496.97 146.91C495.65 149.79 493.92 152.4 491.8 154.66C489.68 156.92 487.2 158.84 484.4 160.34H484.41Z" fill="#F7903D"/>
<path d="M503.77 117.06C493.92 98.82 471.07 91.99 452.84 101.84C444 106.61 437.56 114.53 434.68 124.15C431.8 133.77 432.85 143.94 437.62 152.77C442.39 161.6 450.31 168.05 459.93 170.93C460.81 171.19 461.69 171.42 462.58 171.62C471.4 173.58 480.52 172.33 488.55 167.99C497.39 163.23 503.83 155.3 506.71 145.68C506.97 144.8 507.2 143.92 507.4 143.03C509.36 134.21 508.11 125.09 503.78 117.06H503.77ZM505.83 145.42C503.02 154.81 496.73 162.54 488.11 167.19C479.49 171.84 469.57 172.86 460.18 170.06C450.8 167.26 443.06 160.96 438.41 152.34C433.76 143.72 432.74 133.8 435.54 124.41C438.35 115.02 444.64 107.29 453.26 102.64C461.32 98.29 470.31 97.28 478.62 99.13C488.65 101.36 497.7 107.77 502.96 117.5C507.61 126.12 508.63 136.04 505.82 145.42H505.83Z" fill="#A24323"/>
<path d="M500.039 134.54C500.029 133.28 499.929 132.02 499.749 130.76C499.269 127.43 498.209 124.12 496.519 120.98C494.859 117.89 492.719 115.23 490.239 113.02C481.279 105.03 467.929 103.07 456.749 109.1C445.569 115.13 439.879 127.37 441.649 139.25C442.139 142.53 443.199 145.78 444.859 148.87C446.559 152.01 448.739 154.71 451.259 156.94C452.219 157.78 453.229 158.56 454.269 159.27C457.869 161.69 461.949 163.28 466.209 163.94C472.309 164.89 478.759 163.92 484.619 160.76C490.469 157.6 494.819 152.73 497.379 147.12C499.169 143.2 500.079 138.9 500.029 134.56L500.039 134.54ZM496.979 146.91C495.659 149.79 493.929 152.4 491.809 154.66C489.689 156.92 487.209 158.84 484.409 160.34C478.819 163.36 472.559 164.45 466.289 163.48C462.109 162.83 458.039 161.24 454.529 158.88C453.489 158.18 452.489 157.41 451.569 156.59C449.019 154.34 446.899 151.67 445.259 148.65C443.659 145.68 442.589 142.5 442.099 139.18C440.309 127.19 446.289 115.26 456.959 109.5C463.209 106.12 470.339 105.26 476.999 106.74C481.709 107.79 486.189 110.01 489.929 113.36C492.429 115.59 494.509 118.23 496.109 121.19C497.739 124.22 498.809 127.45 499.289 130.82C499.469 132.05 499.559 133.3 499.579 134.55C499.629 138.78 498.729 143.06 496.969 146.91H496.979Z" fill="#F7903D"/>
<path d="M500.49 134.54C500.48 133.26 500.38 131.96 500.2 130.7C499.7 127.23 498.6 123.88 496.92 120.76C495.27 117.7 493.12 114.98 490.54 112.68C481.21 104.35 467.54 102.75 456.53 108.69C445.52 114.64 439.35 126.94 441.2 139.31C441.71 142.73 442.8 146.01 444.46 149.08C446.14 152.2 448.33 154.96 450.96 157.27C451.91 158.12 452.94 158.91 454.02 159.63C457.1 161.7 460.6 163.2 464.24 164.01C464.87 164.15 465.51 164.27 466.15 164.37C469.38 164.87 472.62 164.84 475.76 164.3C478.9 163.76 481.96 162.7 484.84 161.14C490.61 158.02 495.09 153.23 497.8 147.28C499.61 143.31 500.54 138.9 500.49 134.53V134.54ZM491.8 154.66C489.68 156.92 487.2 158.84 484.4 160.34C478.81 163.36 472.55 164.45 466.28 163.48C462.1 162.83 458.03 161.24 454.52 158.88C453.48 158.18 452.48 157.41 451.56 156.59C449.01 154.34 446.89 151.67 445.25 148.65C443.65 145.68 442.58 142.5 442.09 139.18C440.3 127.19 446.28 115.26 456.95 109.5C463.2 106.12 470.33 105.26 476.99 106.74C481.7 107.79 486.18 110.01 489.92 113.36C492.42 115.59 494.5 118.23 496.1 121.19C497.73 124.22 498.8 127.45 499.28 130.82C499.46 132.05 499.55 133.3 499.57 134.55C499.62 138.78 498.72 143.06 496.96 146.91C495.64 149.79 493.91 152.4 491.79 154.66H491.8Z" fill="#A24323"/>
<path d="M494.29 194.56C494.09 194.23 493.96 193.86 493.89 193.46C493.13 188.85 501.06 180.63 503.8 181.95C506.38 183.2 508.89 187.79 509.72 191.46C510 192.67 510.09 193.78 509.94 194.64C509.37 197.99 496.35 197.95 494.28 194.56H494.29Z" fill="#53AEDE"/>
<path d="M498.16 197.11C496.21 196.68 494.58 195.92 493.89 194.8C493.66 194.42 493.51 193.99 493.43 193.53C492.86 190.05 496.7 185.09 499.7 182.85C500.95 181.91 502.71 180.92 503.99 181.54C506.76 182.88 509.3 187.58 510.16 191.36C510.46 192.69 510.54 193.82 510.39 194.71C510.19 195.92 508.81 196.8 506.41 197.26C504.09 197.71 500.82 197.7 498.16 197.11ZM503.4 182.29C502.71 182.14 501.56 182.6 500.26 183.58C497.09 185.95 493.88 190.56 494.34 193.38C494.4 193.73 494.51 194.04 494.68 194.32C495.93 196.37 502.08 197.16 506.24 196.36C508.15 195.99 509.37 195.32 509.5 194.55C509.63 193.79 509.55 192.75 509.28 191.55C508.49 188.06 506.1 183.55 503.61 182.35C503.55 182.32 503.48 182.3 503.41 182.28L503.4 182.29Z" fill="#1876A8"/>
<path opacity="0.56" d="M494.29 194.56C494.09 194.23 493.96 193.86 493.89 193.46C496.57 194.35 499.45 194.63 502.25 194.24C503.54 194.06 504.82 193.74 506.04 193.29C507.12 192.9 508.17 192.4 509.16 191.81C509.35 191.7 509.54 191.58 509.73 191.46C510.01 192.67 510.1 193.78 509.95 194.64C509.38 197.99 496.36 197.95 494.29 194.56Z" fill="#2180B4"/>
<path d="M498.16 197.11C496.21 196.68 494.58 195.92 493.89 194.8C493.66 194.42 493.51 193.99 493.43 193.53C492.86 190.05 496.7 185.09 499.7 182.85C500.95 181.91 502.71 180.92 503.99 181.54C506.76 182.88 509.3 187.58 510.16 191.36C510.46 192.69 510.54 193.82 510.39 194.71C510.19 195.92 508.81 196.8 506.41 197.26C504.09 197.71 500.82 197.7 498.16 197.11ZM503.4 182.29C502.71 182.14 501.56 182.6 500.26 183.58C497.09 185.95 493.88 190.56 494.34 193.38C494.4 193.73 494.51 194.04 494.68 194.32C495.93 196.37 502.08 197.16 506.24 196.36C508.15 195.99 509.37 195.32 509.5 194.55C509.63 193.79 509.55 192.75 509.28 191.55C508.49 188.06 506.1 183.55 503.61 182.35C503.55 182.32 503.48 182.3 503.41 182.28L503.4 182.29Z" fill="#1876A8"/>
<path d="M505.05 378.99H358.67C346.166 378.99 336.03 389.124 336.03 401.625C336.03 414.126 346.166 424.26 358.67 424.26H505.05C517.553 424.26 527.69 414.126 527.69 401.625C527.69 389.124 517.553 378.99 505.05 378.99Z" fill="#53AEDE"/>
<path d="M376.464 407.123C376.464 406.049 375.713 405.427 374.488 405.427H371.825V408.756H374.531C375.756 408.756 376.464 408.197 376.464 407.123ZM376.099 401.174C376.099 400.142 375.433 399.584 374.23 399.584H371.825V402.742H374.23C375.433 402.742 376.099 402.205 376.099 401.174ZM380.18 407.618C380.18 410.109 378.355 411.72 375.176 411.72H368.152V396.641H374.939C378.011 396.641 379.837 398.166 379.837 400.551C379.837 402.376 378.741 403.558 377.281 403.987C379.042 404.353 380.18 405.899 380.18 407.618ZM392.6 411.72L391.698 409.057H386.07L385.168 411.72H381.323L386.779 396.641H391.032L396.488 411.72H392.6ZM390.752 406.221L388.884 400.701L387.036 406.221H390.752ZM397.525 404.159C397.525 399.648 400.661 396.469 405.108 396.469C408.695 396.469 411.401 398.489 412.26 401.753H408.222C407.599 400.465 406.461 399.82 405.065 399.82C402.809 399.82 401.263 401.496 401.263 404.159C401.263 406.823 402.809 408.498 405.065 408.498C406.461 408.498 407.599 407.854 408.222 406.565H412.26C411.401 409.83 408.695 411.828 405.108 411.828C400.661 411.828 397.525 408.67 397.525 404.159ZM423.252 411.72L418.183 405.061V411.72H414.51V396.641H418.183V403.257L423.209 396.641H427.527L421.684 404.03L427.741 411.72H423.252ZM443.426 411.72V405.512H437.712V411.72H434.039V396.641H437.712V402.548H443.426V396.641H447.099V411.72H443.426ZM464.593 404.138C464.593 408.67 461.156 411.871 456.882 411.871C452.607 411.871 449.127 408.67 449.127 404.138C449.127 399.605 452.607 396.426 456.882 396.426C461.178 396.426 464.593 399.605 464.593 404.138ZM452.886 404.138C452.886 406.78 454.433 408.52 456.882 408.52C459.288 408.52 460.856 406.78 460.856 404.138C460.856 401.453 459.288 399.756 456.882 399.756C454.433 399.756 452.886 401.453 452.886 404.138ZM466.637 411.72V396.641H470.976L475.207 407.081L479.396 396.641H483.713V411.72H480.04V402.677L476.668 411.72H473.703L470.31 402.656V411.72H466.637ZM495.591 396.641V399.584H490.028V402.634H494.947V405.47H490.028V408.777H495.591V411.72H486.355V396.641H495.591Z" fill="white"/>
<path d="M282.558 326.302H286.662V339.982H292.038V343.15H282.558V326.302ZM310.579 334.678C310.579 339.742 306.739 343.318 301.963 343.318C297.187 343.318 293.299 339.742 293.299 334.678C293.299 329.614 297.187 326.062 301.963 326.062C306.763 326.062 310.579 329.614 310.579 334.678ZM297.499 334.678C297.499 337.63 299.227 339.574 301.963 339.574C304.651 339.574 306.403 337.63 306.403 334.678C306.403 331.678 304.651 329.782 301.963 329.782C299.227 329.782 297.499 331.678 297.499 334.678ZM329.447 334.678C329.447 339.742 325.607 343.318 320.831 343.318C316.055 343.318 312.167 339.742 312.167 334.678C312.167 329.614 316.055 326.062 320.831 326.062C325.631 326.062 329.447 329.614 329.447 334.678ZM316.367 334.678C316.367 337.63 318.095 339.574 320.831 339.574C323.519 339.574 325.271 337.63 325.271 334.678C325.271 331.678 323.519 329.782 320.831 329.782C318.095 329.782 316.367 331.678 316.367 334.678ZM341.498 343.15L335.834 335.71V343.15H331.73V326.302H335.834V333.694L341.45 326.302H346.274L339.746 334.558L346.514 343.15H341.498ZM360.704 338.134C360.704 340.966 358.496 343.318 354.56 343.318C350.936 343.318 348.104 341.518 347.984 338.11H352.352C352.472 339.406 353.288 340.03 354.44 340.03C355.64 340.03 356.408 339.43 356.408 338.446C356.408 335.326 347.984 337.006 348.032 331.03C348.032 327.838 350.648 326.062 354.176 326.062C357.848 326.062 360.32 327.886 360.488 331.102H356.048C355.976 330.022 355.208 329.374 354.104 329.35C353.12 329.326 352.376 329.83 352.376 330.886C352.376 333.814 360.704 332.494 360.704 338.134ZM368.316 326.302H372.42V339.982H377.796V343.15H368.316V326.302ZM379.753 343.15V326.302H383.857V343.15H379.753ZM396.599 343.15L390.935 335.71V343.15H386.831V326.302H390.935V333.694L396.551 326.302H401.375L394.847 334.558L401.615 343.15H396.599ZM413.886 326.302V329.59H407.67V332.998H413.166V336.166H407.67V339.862H413.886V343.15H403.566V326.302H413.886ZM426.148 337.582L420.316 326.302H424.972L428.236 333.358L431.476 326.302H436.084L430.252 337.582V343.15H426.148V337.582ZM454.322 334.678C454.322 339.742 450.482 343.318 445.706 343.318C440.93 343.318 437.042 339.742 437.042 334.678C437.042 329.614 440.93 326.062 445.706 326.062C450.506 326.062 454.322 329.614 454.322 334.678ZM441.242 334.678C441.242 337.63 442.97 339.574 445.706 339.574C448.394 339.574 450.146 337.63 450.146 334.678C450.146 331.678 448.394 329.782 445.706 329.782C442.97 329.782 441.242 331.678 441.242 334.678ZM456.533 336.358V326.302H460.637V336.382C460.637 338.374 461.621 339.526 463.565 339.526C465.509 339.526 466.541 338.374 466.541 336.382V326.302H470.645V336.358C470.645 341.014 467.381 343.318 463.493 343.318C459.581 343.318 456.533 341.014 456.533 336.358ZM490.109 343.15L489.101 340.174H482.813L481.805 343.15H477.509L483.605 326.302H488.357L494.453 343.15H490.109ZM488.045 337.006L485.957 330.838L483.893 337.006H488.045ZM505.212 331.774C505.212 330.526 504.492 329.71 502.956 329.71H500.412V333.886H502.956C504.492 333.886 505.212 333.094 505.212 331.774ZM496.308 326.302H503.196C507.324 326.302 509.388 328.678 509.388 331.606C509.388 333.718 508.236 335.71 505.644 336.478L509.532 343.15H504.9L501.396 336.79H500.412V343.15H496.308V326.302ZM522.284 326.302V329.59H516.068V332.998H521.564V336.166H516.068V339.862H522.284V343.15H511.964V326.302H522.284ZM530.034 326.302H534.138V339.982H539.514V343.15H530.034V326.302ZM558.056 334.678C558.056 339.742 554.216 343.318 549.44 343.318C544.664 343.318 540.776 339.742 540.776 334.678C540.776 329.614 544.664 326.062 549.44 326.062C554.24 326.062 558.056 329.614 558.056 334.678ZM544.976 334.678C544.976 337.63 546.704 339.574 549.44 339.574C552.128 339.574 553.88 337.63 553.88 334.678C553.88 331.678 552.128 329.782 549.44 329.782C546.704 329.782 544.976 331.678 544.976 334.678ZM572.579 338.134C572.579 340.966 570.371 343.318 566.435 343.318C562.811 343.318 559.979 341.518 559.859 338.11H564.227C564.347 339.406 565.163 340.03 566.315 340.03C567.515 340.03 568.283 339.43 568.283 338.446C568.283 335.326 559.859 337.006 559.907 331.03C559.907 327.838 562.523 326.062 566.051 326.062C569.723 326.062 572.195 327.886 572.363 331.102H567.923C567.851 330.022 567.083 329.374 565.979 329.35C564.995 329.326 564.251 329.83 564.251 330.886C564.251 333.814 572.579 332.494 572.579 338.134ZM574.193 329.59V326.302H587.225V329.59H582.761V343.15H578.657V329.59H574.193Z" fill="#2E3192"/>
<path d="M286.796 352.702L284.42 361.09H283.484L281.372 353.938L279.212 361.09L278.3 361.102L275.972 352.702H276.872L278.792 360.058L280.94 352.702H281.876L283.964 360.058L285.896 352.702H286.796ZM294.009 357.478C294.009 357.766 294.001 357.986 293.985 358.138H288.549C288.573 358.634 288.693 359.058 288.909 359.41C289.125 359.762 289.409 360.03 289.761 360.214C290.113 360.39 290.497 360.478 290.913 360.478C291.457 360.478 291.913 360.346 292.281 360.082C292.657 359.818 292.905 359.462 293.025 359.014H293.913C293.753 359.654 293.409 360.178 292.881 360.586C292.361 360.986 291.705 361.186 290.913 361.186C290.297 361.186 289.745 361.05 289.257 360.778C288.769 360.498 288.385 360.106 288.105 359.602C287.833 359.09 287.697 358.494 287.697 357.814C287.697 357.134 287.833 356.538 288.105 356.026C288.377 355.514 288.757 355.122 289.245 354.85C289.733 354.578 290.289 354.442 290.913 354.442C291.537 354.442 292.081 354.578 292.545 354.85C293.017 355.122 293.377 355.49 293.625 355.954C293.881 356.41 294.009 356.918 294.009 357.478ZM293.157 357.454C293.165 356.966 293.065 356.55 292.857 356.206C292.657 355.862 292.381 355.602 292.029 355.426C291.677 355.25 291.293 355.162 290.877 355.162C290.253 355.162 289.721 355.362 289.281 355.762C288.841 356.162 288.597 356.726 288.549 357.454H293.157ZM298.455 356.89C298.455 356.066 298.635 355.33 298.995 354.682C299.355 354.026 299.847 353.518 300.471 353.158C301.095 352.79 301.791 352.606 302.559 352.606C303.495 352.606 304.295 352.83 304.959 353.278C305.631 353.718 306.119 354.342 306.423 355.15H305.439C305.199 354.582 304.831 354.138 304.335 353.818C303.847 353.498 303.255 353.338 302.559 353.338C301.943 353.338 301.387 353.482 300.891 353.77C300.403 354.058 300.019 354.474 299.739 355.018C299.459 355.554 299.319 356.178 299.319 356.89C299.319 357.602 299.459 358.226 299.739 358.762C300.019 359.298 300.403 359.71 300.891 359.998C301.387 360.286 301.943 360.43 302.559 360.43C303.255 360.43 303.847 360.274 304.335 359.962C304.831 359.642 305.199 359.202 305.439 358.642H306.423C306.119 359.442 305.631 360.062 304.959 360.502C304.287 360.942 303.487 361.162 302.559 361.162C301.791 361.162 301.095 360.982 300.471 360.622C299.847 360.254 299.355 359.746 298.995 359.098C298.635 358.45 298.455 357.714 298.455 356.89ZM307.713 357.802C307.713 357.13 307.845 356.542 308.109 356.038C308.381 355.526 308.753 355.134 309.225 354.862C309.705 354.582 310.245 354.442 310.845 354.442C311.469 354.442 312.005 354.586 312.453 354.874C312.909 355.162 313.237 355.53 313.437 355.978V354.538H314.277V361.09H313.437V359.638C313.229 360.086 312.897 360.458 312.441 360.754C311.993 361.042 311.457 361.186 310.833 361.186C310.241 361.186 309.705 361.046 309.225 360.766C308.753 360.486 308.381 360.09 308.109 359.578C307.845 359.066 307.713 358.474 307.713 357.802ZM313.437 357.814C313.437 357.286 313.329 356.822 313.113 356.422C312.897 356.022 312.601 355.714 312.225 355.498C311.857 355.282 311.449 355.174 311.001 355.174C310.537 355.174 310.121 355.278 309.753 355.486C309.385 355.694 309.093 355.998 308.877 356.398C308.669 356.79 308.565 357.258 308.565 357.802C308.565 358.338 308.669 358.81 308.877 359.218C309.093 359.618 309.385 359.926 309.753 360.142C310.121 360.35 310.537 360.454 311.001 360.454C311.449 360.454 311.857 360.346 312.225 360.13C312.601 359.914 312.897 359.606 313.113 359.206C313.329 358.806 313.437 358.342 313.437 357.814ZM319.266 354.418C320.05 354.418 320.69 354.662 321.186 355.15C321.682 355.63 321.93 356.33 321.93 357.25V361.09H321.102V357.346C321.102 356.634 320.922 356.09 320.562 355.714C320.21 355.338 319.726 355.15 319.11 355.15C318.478 355.15 317.974 355.35 317.598 355.75C317.222 356.15 317.034 356.738 317.034 357.514V361.09H316.194V354.538H317.034V355.654C317.242 355.254 317.542 354.95 317.934 354.742C318.326 354.526 318.77 354.418 319.266 354.418ZM324.148 351.55L324.004 353.866H323.416L323.272 351.55H324.148ZM326.65 355.246V359.314C326.65 359.714 326.726 359.99 326.878 360.142C327.03 360.294 327.298 360.37 327.682 360.37H328.45V361.09H327.55C326.958 361.09 326.518 360.954 326.23 360.682C325.942 360.402 325.798 359.946 325.798 359.314V355.246H324.886V354.538H325.798V352.894H326.65V354.538H328.45V355.246H326.65ZM335.672 361.174C335.12 361.174 334.632 361.078 334.208 360.886C333.792 360.694 333.464 360.426 333.224 360.082C332.984 359.738 332.856 359.354 332.84 358.93H333.728C333.768 359.338 333.948 359.698 334.268 360.01C334.588 360.314 335.056 360.466 335.672 360.466C336.24 360.466 336.688 360.322 337.016 360.034C337.352 359.738 337.52 359.366 337.52 358.918C337.52 358.558 337.428 358.27 337.244 358.054C337.06 357.83 336.832 357.666 336.56 357.562C336.288 357.45 335.912 357.33 335.432 357.202C334.872 357.05 334.428 356.902 334.1 356.758C333.772 356.614 333.492 356.39 333.26 356.086C333.028 355.782 332.912 355.37 332.912 354.85C332.912 354.418 333.024 354.034 333.248 353.698C333.472 353.354 333.788 353.086 334.196 352.894C334.604 352.702 335.072 352.606 335.6 352.606C336.376 352.606 337 352.798 337.472 353.182C337.952 353.558 338.228 354.046 338.3 354.646H337.388C337.332 354.302 337.144 353.998 336.824 353.734C336.504 353.462 336.072 353.326 335.528 353.326C335.024 353.326 334.604 353.462 334.268 353.734C333.932 353.998 333.764 354.362 333.764 354.826C333.764 355.178 333.856 355.462 334.04 355.678C334.224 355.894 334.452 356.058 334.724 356.17C335.004 356.282 335.38 356.402 335.852 356.53C336.396 356.682 336.836 356.834 337.172 356.986C337.508 357.13 337.792 357.354 338.024 357.658C338.256 357.962 338.372 358.37 338.372 358.882C338.372 359.274 338.268 359.646 338.06 359.998C337.852 360.35 337.544 360.634 337.136 360.85C336.728 361.066 336.24 361.174 335.672 361.174ZM345.923 357.478C345.923 357.766 345.915 357.986 345.899 358.138H340.463C340.487 358.634 340.607 359.058 340.823 359.41C341.039 359.762 341.323 360.03 341.675 360.214C342.027 360.39 342.411 360.478 342.827 360.478C343.371 360.478 343.827 360.346 344.195 360.082C344.571 359.818 344.819 359.462 344.939 359.014H345.827C345.667 359.654 345.323 360.178 344.795 360.586C344.275 360.986 343.619 361.186 342.827 361.186C342.211 361.186 341.659 361.05 341.171 360.778C340.683 360.498 340.299 360.106 340.019 359.602C339.747 359.09 339.611 358.494 339.611 357.814C339.611 357.134 339.747 356.538 340.019 356.026C340.291 355.514 340.671 355.122 341.159 354.85C341.647 354.578 342.203 354.442 342.827 354.442C343.451 354.442 343.995 354.578 344.459 354.85C344.931 355.122 345.291 355.49 345.539 355.954C345.795 356.41 345.923 356.918 345.923 357.478ZM345.071 357.454C345.079 356.966 344.979 356.55 344.771 356.206C344.571 355.862 344.295 355.602 343.943 355.426C343.591 355.25 343.207 355.162 342.791 355.162C342.167 355.162 341.635 355.362 341.195 355.762C340.755 356.162 340.511 356.726 340.463 357.454H345.071ZM353.388 357.478C353.388 357.766 353.38 357.986 353.364 358.138H347.928C347.952 358.634 348.072 359.058 348.288 359.41C348.504 359.762 348.788 360.03 349.14 360.214C349.492 360.39 349.876 360.478 350.292 360.478C350.836 360.478 351.292 360.346 351.66 360.082C352.036 359.818 352.284 359.462 352.404 359.014H353.292C353.132 359.654 352.788 360.178 352.26 360.586C351.74 360.986 351.084 361.186 350.292 361.186C349.676 361.186 349.124 361.05 348.636 360.778C348.148 360.498 347.764 360.106 347.484 359.602C347.212 359.09 347.076 358.494 347.076 357.814C347.076 357.134 347.212 356.538 347.484 356.026C347.756 355.514 348.136 355.122 348.624 354.85C349.112 354.578 349.668 354.442 350.292 354.442C350.916 354.442 351.46 354.578 351.924 354.85C352.396 355.122 352.756 355.49 353.004 355.954C353.26 356.41 353.388 356.918 353.388 357.478ZM352.536 357.454C352.544 356.966 352.444 356.55 352.236 356.206C352.036 355.862 351.76 355.602 351.408 355.426C351.056 355.25 350.672 355.162 350.256 355.162C349.632 355.162 349.1 355.362 348.66 355.762C348.22 356.162 347.976 356.726 347.928 357.454H352.536ZM362.725 354.418C363.493 354.418 364.117 354.662 364.597 355.15C365.085 355.63 365.329 356.33 365.329 357.25V361.09H364.501V357.346C364.501 356.634 364.329 356.09 363.985 355.714C363.641 355.338 363.173 355.15 362.581 355.15C361.965 355.15 361.473 355.354 361.105 355.762C360.737 356.17 360.553 356.762 360.553 357.538V361.09H359.725V357.346C359.725 356.634 359.553 356.09 359.209 355.714C358.865 355.338 358.393 355.15 357.793 355.15C357.177 355.15 356.685 355.354 356.317 355.762C355.949 356.17 355.765 356.762 355.765 357.538V361.09H354.925V354.538H355.765V355.666C355.973 355.258 356.269 354.95 356.653 354.742C357.037 354.526 357.465 354.418 357.937 354.418C358.505 354.418 359.001 354.554 359.425 354.826C359.857 355.098 360.169 355.498 360.361 356.026C360.537 355.506 360.837 355.11 361.261 354.838C361.693 354.558 362.181 354.418 362.725 354.418ZM375.395 352.702V353.398H373.067V361.09H372.227V353.398H369.887V352.702H375.395ZM379.59 361.186C378.974 361.186 378.418 361.05 377.922 360.778C377.434 360.498 377.046 360.106 376.758 359.602C376.478 359.09 376.338 358.494 376.338 357.814C376.338 357.134 376.482 356.542 376.77 356.038C377.058 355.526 377.45 355.134 377.946 354.862C378.442 354.582 378.998 354.442 379.614 354.442C380.23 354.442 380.786 354.582 381.282 354.862C381.786 355.134 382.178 355.526 382.458 356.038C382.746 356.542 382.89 357.134 382.89 357.814C382.89 358.486 382.746 359.078 382.458 359.59C382.17 360.102 381.774 360.498 381.27 360.778C380.766 361.05 380.206 361.186 379.59 361.186ZM379.59 360.454C380.022 360.454 380.422 360.358 380.79 360.166C381.158 359.966 381.454 359.67 381.678 359.278C381.91 358.878 382.026 358.39 382.026 357.814C382.026 357.238 381.914 356.754 381.69 356.362C381.466 355.962 381.17 355.666 380.802 355.474C380.434 355.274 380.034 355.174 379.602 355.174C379.17 355.174 378.77 355.274 378.402 355.474C378.034 355.666 377.738 355.962 377.514 356.362C377.298 356.754 377.19 357.238 377.19 357.814C377.19 358.39 377.298 358.878 377.514 359.278C377.738 359.67 378.03 359.966 378.39 360.166C378.758 360.358 379.158 360.454 379.59 360.454ZM392.25 352.702V353.398H388.554V356.53H391.674V357.226H388.554V361.09H387.714V352.702H392.25ZM394.052 353.302C393.884 353.302 393.74 353.242 393.62 353.122C393.5 353.002 393.44 352.854 393.44 352.678C393.44 352.502 393.5 352.358 393.62 352.246C393.74 352.126 393.884 352.066 394.052 352.066C394.22 352.066 394.364 352.126 394.484 352.246C394.604 352.358 394.664 352.502 394.664 352.678C394.664 352.854 394.604 353.002 394.484 353.122C394.364 353.242 394.22 353.302 394.052 353.302ZM394.472 354.538V361.09H393.632V354.538H394.472ZM399.446 354.418C400.23 354.418 400.87 354.662 401.366 355.15C401.862 355.63 402.11 356.33 402.11 357.25V361.09H401.282V357.346C401.282 356.634 401.102 356.09 400.742 355.714C400.39 355.338 399.906 355.15 399.29 355.15C398.658 355.15 398.154 355.35 397.778 355.75C397.402 356.15 397.214 356.738 397.214 357.514V361.09H396.374V354.538H397.214V355.654C397.422 355.254 397.722 354.95 398.114 354.742C398.506 354.526 398.95 354.418 399.446 354.418ZM403.584 357.802C403.584 357.13 403.72 356.542 403.992 356.038C404.264 355.526 404.636 355.134 405.108 354.862C405.588 354.582 406.128 354.442 406.728 354.442C407.304 354.442 407.824 354.582 408.288 354.862C408.752 355.142 409.092 355.506 409.308 355.954V352.21H410.148V361.09H409.308V359.626C409.108 360.082 408.78 360.458 408.324 360.754C407.868 361.042 407.332 361.186 406.716 361.186C406.116 361.186 405.576 361.046 405.096 360.766C404.624 360.486 404.252 360.09 403.98 359.578C403.716 359.066 403.584 358.474 403.584 357.802ZM409.308 357.814C409.308 357.286 409.2 356.822 408.984 356.422C408.768 356.022 408.472 355.714 408.096 355.498C407.728 355.282 407.32 355.174 406.872 355.174C406.408 355.174 405.992 355.278 405.624 355.486C405.256 355.694 404.964 355.998 404.748 356.398C404.54 356.79 404.436 357.258 404.436 357.802C404.436 358.338 404.54 358.81 404.748 359.218C404.964 359.618 405.256 359.926 405.624 360.142C405.992 360.35 406.408 360.454 406.872 360.454C407.32 360.454 407.728 360.346 408.096 360.13C408.472 359.914 408.768 359.606 408.984 359.206C409.2 358.806 409.308 358.342 409.308 357.814ZM420.266 352.702V353.398H417.938V361.09H417.098V353.398H414.758V352.702H420.266ZM424.713 354.418C425.209 354.418 425.653 354.522 426.045 354.73C426.445 354.938 426.757 355.258 426.981 355.69C427.213 356.114 427.329 356.634 427.329 357.25V361.09H426.501V357.346C426.501 356.634 426.321 356.09 425.961 355.714C425.609 355.338 425.125 355.15 424.509 355.15C423.877 355.15 423.373 355.35 422.997 355.75C422.621 356.15 422.433 356.738 422.433 357.514V361.09H421.593V352.21H422.433V355.654C422.641 355.262 422.945 354.958 423.345 354.742C423.753 354.526 424.209 354.418 424.713 354.418ZM435.115 357.478C435.115 357.766 435.107 357.986 435.091 358.138H429.655C429.679 358.634 429.799 359.058 430.015 359.41C430.231 359.762 430.515 360.03 430.867 360.214C431.219 360.39 431.603 360.478 432.019 360.478C432.563 360.478 433.019 360.346 433.387 360.082C433.763 359.818 434.011 359.462 434.131 359.014H435.019C434.859 359.654 434.515 360.178 433.987 360.586C433.467 360.986 432.811 361.186 432.019 361.186C431.403 361.186 430.851 361.05 430.363 360.778C429.875 360.498 429.491 360.106 429.211 359.602C428.939 359.09 428.803 358.494 428.803 357.814C428.803 357.134 428.939 356.538 429.211 356.026C429.483 355.514 429.863 355.122 430.351 354.85C430.839 354.578 431.395 354.442 432.019 354.442C432.643 354.442 433.187 354.578 433.651 354.85C434.123 355.122 434.483 355.49 434.731 355.954C434.987 356.41 435.115 356.918 435.115 357.478ZM434.263 357.454C434.271 356.966 434.171 356.55 433.963 356.206C433.763 355.862 433.487 355.602 433.135 355.426C432.783 355.25 432.399 355.162 431.983 355.162C431.359 355.162 430.827 355.362 430.387 355.762C429.947 356.162 429.703 356.726 429.655 357.454H434.263ZM445.308 355.114C445.308 355.834 445.072 356.414 444.6 356.854C444.128 357.294 443.42 357.514 442.476 357.514H440.784V361.09H439.944V352.702H442.476C443.412 352.702 444.116 352.922 444.588 353.362C445.068 353.802 445.308 354.386 445.308 355.114ZM442.476 356.794C443.788 356.794 444.444 356.234 444.444 355.114C444.444 354.554 444.288 354.13 443.976 353.842C443.664 353.554 443.164 353.41 442.476 353.41H440.784V356.794H442.476ZM446.334 357.802C446.334 357.13 446.466 356.542 446.73 356.038C447.002 355.526 447.374 355.134 447.846 354.862C448.326 354.582 448.866 354.442 449.466 354.442C450.09 354.442 450.626 354.586 451.074 354.874C451.53 355.162 451.858 355.53 452.058 355.978V354.538H452.898V361.09H452.058V359.638C451.85 360.086 451.518 360.458 451.062 360.754C450.614 361.042 450.078 361.186 449.454 361.186C448.862 361.186 448.326 361.046 447.846 360.766C447.374 360.486 447.002 360.09 446.73 359.578C446.466 359.066 446.334 358.474 446.334 357.802ZM452.058 357.814C452.058 357.286 451.95 356.822 451.734 356.422C451.518 356.022 451.222 355.714 450.846 355.498C450.478 355.282 450.07 355.174 449.622 355.174C449.158 355.174 448.742 355.278 448.374 355.486C448.006 355.694 447.714 355.998 447.498 356.398C447.29 356.79 447.186 357.258 447.186 357.802C447.186 358.338 447.29 358.81 447.498 359.218C447.714 359.618 448.006 359.926 448.374 360.142C448.742 360.35 449.158 360.454 449.622 360.454C450.07 360.454 450.478 360.346 450.846 360.13C451.222 359.914 451.518 359.606 451.734 359.206C451.95 358.806 452.058 358.342 452.058 357.814ZM457.563 354.442C458.179 354.442 458.715 354.586 459.171 354.874C459.627 355.162 459.955 355.526 460.155 355.966V354.538H460.995V361.258C460.995 361.858 460.863 362.39 460.599 362.854C460.343 363.318 459.983 363.674 459.519 363.922C459.055 364.178 458.527 364.306 457.935 364.306C457.095 364.306 456.395 364.106 455.835 363.706C455.283 363.306 454.939 362.762 454.803 362.074H455.631C455.775 362.53 456.047 362.894 456.447 363.166C456.855 363.438 457.351 363.574 457.935 363.574C458.359 363.574 458.739 363.482 459.075 363.298C459.411 363.122 459.675 362.858 459.867 362.506C460.059 362.154 460.155 361.738 460.155 361.258V359.638C459.947 360.086 459.615 360.458 459.159 360.754C458.711 361.042 458.179 361.186 457.563 361.186C456.963 361.186 456.423 361.046 455.943 360.766C455.471 360.486 455.099 360.09 454.827 359.578C454.563 359.066 454.431 358.474 454.431 357.802C454.431 357.13 454.563 356.542 454.827 356.038C455.099 355.526 455.471 355.134 455.943 354.862C456.423 354.582 456.963 354.442 457.563 354.442ZM460.155 357.814C460.155 357.286 460.047 356.822 459.831 356.422C459.615 356.022 459.319 355.714 458.943 355.498C458.575 355.282 458.167 355.174 457.719 355.174C457.255 355.174 456.839 355.278 456.471 355.486C456.103 355.694 455.811 355.998 455.595 356.398C455.387 356.79 455.283 357.258 455.283 357.802C455.283 358.338 455.387 358.81 455.595 359.218C455.811 359.618 456.103 359.926 456.471 360.142C456.839 360.35 457.255 360.454 457.719 360.454C458.167 360.454 458.575 360.346 458.943 360.13C459.319 359.914 459.615 359.606 459.831 359.206C460.047 358.806 460.155 358.342 460.155 357.814ZM468.841 357.478C468.841 357.766 468.833 357.986 468.817 358.138H463.381C463.405 358.634 463.525 359.058 463.741 359.41C463.957 359.762 464.241 360.03 464.593 360.214C464.945 360.39 465.329 360.478 465.745 360.478C466.289 360.478 466.745 360.346 467.113 360.082C467.489 359.818 467.737 359.462 467.857 359.014H468.745C468.585 359.654 468.241 360.178 467.713 360.586C467.193 360.986 466.537 361.186 465.745 361.186C465.129 361.186 464.577 361.05 464.089 360.778C463.601 360.498 463.217 360.106 462.937 359.602C462.665 359.09 462.529 358.494 462.529 357.814C462.529 357.134 462.665 356.538 462.937 356.026C463.209 355.514 463.589 355.122 464.077 354.85C464.565 354.578 465.121 354.442 465.745 354.442C466.369 354.442 466.913 354.578 467.377 354.85C467.849 355.122 468.209 355.49 468.457 355.954C468.713 356.41 468.841 356.918 468.841 357.478ZM467.989 357.454C467.997 356.966 467.897 356.55 467.689 356.206C467.489 355.862 467.213 355.602 466.861 355.426C466.509 355.25 466.125 355.162 465.709 355.162C465.085 355.162 464.553 355.362 464.113 355.762C463.673 356.162 463.429 356.726 463.381 357.454H467.989ZM479.215 352.702L476.527 357.826V361.09H475.687V357.826L472.975 352.702H473.923L476.107 357.058L478.279 352.702H479.215ZM483.312 361.186C482.696 361.186 482.14 361.05 481.644 360.778C481.156 360.498 480.768 360.106 480.48 359.602C480.2 359.09 480.06 358.494 480.06 357.814C480.06 357.134 480.204 356.542 480.492 356.038C480.78 355.526 481.172 355.134 481.668 354.862C482.164 354.582 482.72 354.442 483.336 354.442C483.952 354.442 484.508 354.582 485.004 354.862C485.508 355.134 485.9 355.526 486.18 356.038C486.468 356.542 486.612 357.134 486.612 357.814C486.612 358.486 486.468 359.078 486.18 359.59C485.892 360.102 485.496 360.498 484.992 360.778C484.488 361.05 483.928 361.186 483.312 361.186ZM483.312 360.454C483.744 360.454 484.144 360.358 484.512 360.166C484.88 359.966 485.176 359.67 485.4 359.278C485.632 358.878 485.748 358.39 485.748 357.814C485.748 357.238 485.636 356.754 485.412 356.362C485.188 355.962 484.892 355.666 484.524 355.474C484.156 355.274 483.756 355.174 483.324 355.174C482.892 355.174 482.492 355.274 482.124 355.474C481.756 355.666 481.46 355.962 481.236 356.362C481.02 356.754 480.912 357.238 480.912 357.814C480.912 358.39 481.02 358.878 481.236 359.278C481.46 359.67 481.752 359.966 482.112 360.166C482.48 360.358 482.88 360.454 483.312 360.454ZM493.82 354.538V361.09H492.98V359.938C492.788 360.346 492.492 360.658 492.092 360.874C491.692 361.09 491.244 361.198 490.748 361.198C489.964 361.198 489.324 360.958 488.828 360.478C488.332 359.99 488.084 359.286 488.084 358.366V354.538H488.912V358.27C488.912 358.982 489.088 359.526 489.44 359.902C489.8 360.278 490.288 360.466 490.904 360.466C491.536 360.466 492.04 360.266 492.416 359.866C492.792 359.466 492.98 358.878 492.98 358.102V354.538H493.82ZM503.89 359.098H500.074L499.342 361.09H498.454L501.514 352.81H502.462L505.51 361.09H504.622L503.89 359.098ZM503.638 358.402L501.982 353.866L500.326 358.402H503.638ZM507.698 355.702C507.882 355.294 508.162 354.978 508.538 354.754C508.922 354.53 509.39 354.418 509.942 354.418V355.294H509.714C509.106 355.294 508.618 355.458 508.25 355.786C507.882 356.114 507.698 356.662 507.698 357.43V361.09H506.858V354.538H507.698V355.702ZM517.134 357.478C517.134 357.766 517.126 357.986 517.11 358.138H511.674C511.698 358.634 511.818 359.058 512.034 359.41C512.25 359.762 512.534 360.03 512.886 360.214C513.238 360.39 513.622 360.478 514.038 360.478C514.582 360.478 515.038 360.346 515.406 360.082C515.782 359.818 516.03 359.462 516.15 359.014H517.038C516.878 359.654 516.534 360.178 516.006 360.586C515.486 360.986 514.83 361.186 514.038 361.186C513.422 361.186 512.87 361.05 512.382 360.778C511.894 360.498 511.51 360.106 511.23 359.602C510.958 359.09 510.822 358.494 510.822 357.814C510.822 357.134 510.958 356.538 511.23 356.026C511.502 355.514 511.882 355.122 512.37 354.85C512.858 354.578 513.414 354.442 514.038 354.442C514.662 354.442 515.206 354.578 515.67 354.85C516.142 355.122 516.502 355.49 516.75 355.954C517.006 356.41 517.134 356.918 517.134 357.478ZM516.282 357.454C516.29 356.966 516.19 356.55 515.982 356.206C515.782 355.862 515.506 355.602 515.154 355.426C514.802 355.25 514.418 355.162 514.002 355.162C513.378 355.162 512.846 355.362 512.406 355.762C511.966 356.162 511.722 356.726 511.674 357.454H516.282ZM522.804 360.406H525.816V361.09H521.964V352.702H522.804V360.406ZM529.883 361.186C529.267 361.186 528.711 361.05 528.215 360.778C527.727 360.498 527.339 360.106 527.051 359.602C526.771 359.09 526.631 358.494 526.631 357.814C526.631 357.134 526.775 356.542 527.063 356.038C527.351 355.526 527.743 355.134 528.239 354.862C528.735 354.582 529.291 354.442 529.907 354.442C530.523 354.442 531.079 354.582 531.575 354.862C532.079 355.134 532.471 355.526 532.751 356.038C533.039 356.542 533.183 357.134 533.183 357.814C533.183 358.486 533.039 359.078 532.751 359.59C532.463 360.102 532.067 360.498 531.563 360.778C531.059 361.05 530.499 361.186 529.883 361.186ZM529.883 360.454C530.315 360.454 530.715 360.358 531.083 360.166C531.451 359.966 531.747 359.67 531.971 359.278C532.203 358.878 532.319 358.39 532.319 357.814C532.319 357.238 532.207 356.754 531.983 356.362C531.759 355.962 531.463 355.666 531.095 355.474C530.727 355.274 530.327 355.174 529.895 355.174C529.463 355.174 529.063 355.274 528.695 355.474C528.327 355.666 528.031 355.962 527.807 356.362C527.591 356.754 527.483 357.238 527.483 357.814C527.483 358.39 527.591 358.878 527.807 359.278C528.031 359.67 528.323 359.966 528.683 360.166C529.051 360.358 529.451 360.454 529.883 360.454ZM537.582 361.186C536.966 361.186 536.41 361.05 535.914 360.778C535.426 360.498 535.038 360.106 534.75 359.602C534.47 359.09 534.33 358.494 534.33 357.814C534.33 357.134 534.474 356.542 534.762 356.038C535.05 355.526 535.442 355.134 535.938 354.862C536.434 354.582 536.99 354.442 537.606 354.442C538.222 354.442 538.778 354.582 539.274 354.862C539.778 355.134 540.17 355.526 540.45 356.038C540.738 356.542 540.882 357.134 540.882 357.814C540.882 358.486 540.738 359.078 540.45 359.59C540.162 360.102 539.766 360.498 539.262 360.778C538.758 361.05 538.198 361.186 537.582 361.186ZM537.582 360.454C538.014 360.454 538.414 360.358 538.782 360.166C539.15 359.966 539.446 359.67 539.67 359.278C539.902 358.878 540.018 358.39 540.018 357.814C540.018 357.238 539.906 356.754 539.682 356.362C539.458 355.962 539.162 355.666 538.794 355.474C538.426 355.274 538.026 355.174 537.594 355.174C537.162 355.174 536.762 355.274 536.394 355.474C536.026 355.666 535.73 355.962 535.506 356.362C535.29 356.754 535.182 357.238 535.182 357.814C535.182 358.39 535.29 358.878 535.506 359.278C535.73 359.67 536.022 359.966 536.382 360.166C536.75 360.358 537.15 360.454 537.582 360.454ZM545.953 361.09L543.253 358.15V361.09H542.413V352.21H543.253V357.466L545.893 354.538H547.069L543.961 357.802L547.093 361.09H545.953ZM548.599 353.302C548.431 353.302 548.287 353.242 548.167 353.122C548.047 353.002 547.987 352.854 547.987 352.678C547.987 352.502 548.047 352.358 548.167 352.246C548.287 352.126 548.431 352.066 548.599 352.066C548.767 352.066 548.911 352.126 549.031 352.246C549.151 352.358 549.211 352.502 549.211 352.678C549.211 352.854 549.151 353.002 549.031 353.122C548.911 353.242 548.767 353.302 548.599 353.302ZM549.019 354.538V361.09H548.179V354.538H549.019ZM553.993 354.418C554.777 354.418 555.417 354.662 555.913 355.15C556.409 355.63 556.657 356.33 556.657 357.25V361.09H555.829V357.346C555.829 356.634 555.649 356.09 555.289 355.714C554.937 355.338 554.453 355.15 553.837 355.15C553.205 355.15 552.701 355.35 552.325 355.75C551.949 356.15 551.761 356.738 551.761 357.514V361.09H550.921V354.538H551.761V355.654C551.969 355.254 552.269 354.95 552.661 354.742C553.053 354.526 553.497 354.418 553.993 354.418ZM561.263 354.442C561.879 354.442 562.415 354.586 562.871 354.874C563.327 355.162 563.655 355.526 563.855 355.966V354.538H564.695V361.258C564.695 361.858 564.563 362.39 564.299 362.854C564.043 363.318 563.683 363.674 563.219 363.922C562.755 364.178 562.227 364.306 561.635 364.306C560.795 364.306 560.095 364.106 559.535 363.706C558.983 363.306 558.639 362.762 558.503 362.074H559.331C559.475 362.53 559.747 362.894 560.147 363.166C560.555 363.438 561.051 363.574 561.635 363.574C562.059 363.574 562.439 363.482 562.775 363.298C563.111 363.122 563.375 362.858 563.567 362.506C563.759 362.154 563.855 361.738 563.855 361.258V359.638C563.647 360.086 563.315 360.458 562.859 360.754C562.411 361.042 561.879 361.186 561.263 361.186C560.663 361.186 560.123 361.046 559.643 360.766C559.171 360.486 558.799 360.09 558.527 359.578C558.263 359.066 558.131 358.474 558.131 357.802C558.131 357.13 558.263 356.542 558.527 356.038C558.799 355.526 559.171 355.134 559.643 354.862C560.123 354.582 560.663 354.442 561.263 354.442ZM563.855 357.814C563.855 357.286 563.747 356.822 563.531 356.422C563.315 356.022 563.019 355.714 562.643 355.498C562.275 355.282 561.867 355.174 561.419 355.174C560.955 355.174 560.539 355.278 560.171 355.486C559.803 355.694 559.511 355.998 559.295 356.398C559.087 356.79 558.983 357.258 558.983 357.802C558.983 358.338 559.087 358.81 559.295 359.218C559.511 359.618 559.803 359.926 560.171 360.142C560.539 360.35 560.955 360.454 561.419 360.454C561.867 360.454 562.275 360.346 562.643 360.13C563.019 359.914 563.315 359.606 563.531 359.206C563.747 358.806 563.855 358.342 563.855 357.814ZM574.441 352.702V353.398H570.745V356.53H573.865V357.226H570.745V361.09H569.905V352.702H574.441ZM578.691 361.186C578.075 361.186 577.519 361.05 577.023 360.778C576.535 360.498 576.147 360.106 575.859 359.602C575.579 359.09 575.439 358.494 575.439 357.814C575.439 357.134 575.583 356.542 575.871 356.038C576.159 355.526 576.551 355.134 577.047 354.862C577.543 354.582 578.099 354.442 578.715 354.442C579.331 354.442 579.887 354.582 580.383 354.862C580.887 355.134 581.279 355.526 581.559 356.038C581.847 356.542 581.991 357.134 581.991 357.814C581.991 358.486 581.847 359.078 581.559 359.59C581.271 360.102 580.875 360.498 580.371 360.778C579.867 361.05 579.307 361.186 578.691 361.186ZM578.691 360.454C579.123 360.454 579.523 360.358 579.891 360.166C580.259 359.966 580.555 359.67 580.779 359.278C581.011 358.878 581.127 358.39 581.127 357.814C581.127 357.238 581.015 356.754 580.791 356.362C580.567 355.962 580.271 355.666 579.903 355.474C579.535 355.274 579.135 355.174 578.703 355.174C578.271 355.174 577.871 355.274 577.503 355.474C577.135 355.666 576.839 355.962 576.615 356.362C576.399 356.754 576.291 357.238 576.291 357.814C576.291 358.39 576.399 358.878 576.615 359.278C576.839 359.67 577.131 359.966 577.491 360.166C577.859 360.358 578.259 360.454 578.691 360.454ZM584.363 355.702C584.547 355.294 584.827 354.978 585.203 354.754C585.587 354.53 586.055 354.418 586.607 354.418V355.294H586.379C585.771 355.294 585.283 355.458 584.915 355.786C584.547 356.114 584.363 356.662 584.363 357.43V361.09H583.523V354.538H584.363V355.702Z" fill="#414042"/>
<path d="M284.84 516.28C290.634 516.28 295.33 511.583 295.33 505.79C295.33 499.996 290.634 495.3 284.84 495.3C279.047 495.3 274.35 499.996 274.35 505.79C274.35 511.583 279.047 516.28 284.84 516.28Z" fill="#53AEDE"/>
<path d="M264.95 490.5C276.15 490.5 285.23 481.42 285.23 470.22C285.23 459.02 276.15 449.94 264.95 449.94C253.75 449.94 244.67 459.02 244.67 470.22C244.67 481.42 253.75 490.5 264.95 490.5Z" fill="#53AEDE"/>
<path d="M256.92 456.36C256.92 456.36 246.3 464.06 252.49 476.79Z" fill="#53AEDE"/>
<path d="M256.92 456.36C256.92 456.36 246.3 464.06 252.49 476.79" stroke="#A0DCED" stroke-width="2" stroke-miterlimit="10" stroke-linecap="round"/>
<path d="M254.28 480.45C254.578 480.45 254.82 480.208 254.82 479.91C254.82 479.612 254.578 479.37 254.28 479.37C253.982 479.37 253.74 479.612 253.74 479.91C253.74 480.208 253.982 480.45 254.28 480.45Z" fill="#53AEDE" stroke="#A0DCED" stroke-width="2" stroke-miterlimit="10" stroke-linecap="round"/>
<path d="M280.91 498.13C280.91 498.13 274.69 502.64 278.32 510.08Z" fill="#53AEDE"/>
<path d="M280.91 498.13C280.91 498.13 274.69 502.64 278.32 510.08" stroke="#A0DCED" stroke-miterlimit="10" stroke-linecap="round"/>
<path d="M279.37 512.22C279.547 512.22 279.69 512.077 279.69 511.9C279.69 511.723 279.547 511.58 279.37 511.58C279.193 511.58 279.05 511.723 279.05 511.9C279.05 512.077 279.193 512.22 279.37 512.22Z" fill="#53AEDE" stroke="#A0DCED" stroke-miterlimit="10" stroke-linecap="round"/>
<path d="M77.1702 182.34C82.9636 182.34 87.6602 177.643 87.6602 171.85C87.6602 166.056 82.9636 161.36 77.1702 161.36C71.3767 161.36 66.6802 166.056 66.6802 171.85C66.6802 177.643 71.3767 182.34 77.1702 182.34Z" fill="#53AEDE"/>
<path d="M57.28 156.56C68.4803 156.56 77.56 147.48 77.56 136.28C77.56 125.08 68.4803 116 57.28 116C46.0797 116 37 125.08 37 136.28C37 147.48 46.0797 156.56 57.28 156.56Z" fill="#53AEDE"/>
<path d="M49.25 122.42C49.25 122.42 38.63 130.12 44.82 142.85Z" fill="#53AEDE"/>
<path d="M49.25 122.42C49.25 122.42 38.63 130.12 44.82 142.85" stroke="#A0DCED" stroke-width="2" stroke-miterlimit="10" stroke-linecap="round"/>
<path d="M46.6098 146.51C46.9081 146.51 47.1498 146.268 47.1498 145.97C47.1498 145.672 46.9081 145.43 46.6098 145.43C46.3116 145.43 46.0698 145.672 46.0698 145.97C46.0698 146.268 46.3116 146.51 46.6098 146.51Z" fill="#53AEDE" stroke="#A0DCED" stroke-width="2" stroke-miterlimit="10" stroke-linecap="round"/>
<path d="M73.24 164.19C73.24 164.19 67.02 168.7 70.65 176.14Z" fill="#53AEDE"/>
<path d="M73.24 164.19C73.24 164.19 67.02 168.7 70.65 176.14" stroke="#A0DCED" stroke-miterlimit="10" stroke-linecap="round"/>
<path d="M71.6999 178.28C71.8766 178.28 72.0199 178.137 72.0199 177.96C72.0199 177.783 71.8766 177.64 71.6999 177.64C71.5232 177.64 71.3799 177.783 71.3799 177.96C71.3799 178.137 71.5232 178.28 71.6999 178.28Z" fill="#53AEDE" stroke="#A0DCED" stroke-miterlimit="10" stroke-linecap="round"/>
<path d="M701.84 442.37C707.634 442.37 712.33 437.674 712.33 431.88C712.33 426.087 707.634 421.39 701.84 421.39C696.047 421.39 691.35 426.087 691.35 431.88C691.35 437.674 696.047 442.37 701.84 442.37Z" fill="#53AEDE"/>
<path d="M721.73 416.59C732.93 416.59 742.01 407.51 742.01 396.31C742.01 385.11 732.93 376.03 721.73 376.03C710.53 376.03 701.45 385.11 701.45 396.31C701.45 407.51 710.53 416.59 721.73 416.59Z" fill="#53AEDE"/>
<path d="M729.76 382.45C729.76 382.45 740.38 390.15 734.19 402.88Z" fill="#53AEDE"/>
<path d="M729.76 382.45C729.76 382.45 740.38 390.15 734.19 402.88" stroke="#A0DCED" stroke-width="2" stroke-miterlimit="10" stroke-linecap="round"/>
<path d="M732.4 406.53C732.699 406.53 732.94 406.288 732.94 405.99C732.94 405.692 732.699 405.45 732.4 405.45C732.102 405.45 731.86 405.692 731.86 405.99C731.86 406.288 732.102 406.53 732.4 406.53Z" fill="#53AEDE" stroke="#A0DCED" stroke-width="2" stroke-miterlimit="10" stroke-linecap="round"/>
<path d="M705.77 424.21C705.77 424.21 711.99 428.72 708.36 436.16Z" fill="#53AEDE"/>
<path d="M705.77 424.21C705.77 424.21 711.99 428.72 708.36 436.16" stroke="#A0DCED" stroke-miterlimit="10" stroke-linecap="round"/>
<path d="M707.31 438.31C707.487 438.31 707.63 438.167 707.63 437.99C707.63 437.813 707.487 437.67 707.31 437.67C707.134 437.67 706.99 437.813 706.99 437.99C706.99 438.167 707.134 438.31 707.31 438.31Z" fill="#53AEDE" stroke="#A0DCED" stroke-miterlimit="10" stroke-linecap="round"/>
<path d="M737.49 166.34C743.284 166.34 747.98 161.644 747.98 155.85C747.98 150.057 743.284 145.36 737.49 145.36C731.697 145.36 727 150.057 727 155.85C727 161.644 731.697 166.34 737.49 166.34Z" fill="#53AEDE"/>
<path d="M757.38 140.56C768.58 140.56 777.66 131.48 777.66 120.28C777.66 109.08 768.58 100 757.38 100C746.18 100 737.1 109.08 737.1 120.28C737.1 131.48 746.18 140.56 757.38 140.56Z" fill="#53AEDE"/>
<path d="M765.41 106.42C765.41 106.42 776.03 114.12 769.84 126.85Z" fill="#53AEDE"/>
<path d="M765.41 106.42C765.41 106.42 776.03 114.12 769.84 126.85" stroke="#A0DCED" stroke-width="2" stroke-miterlimit="10" stroke-linecap="round"/>
<path d="M768.05 130.5C768.348 130.5 768.59 130.258 768.59 129.96C768.59 129.662 768.348 129.42 768.05 129.42C767.752 129.42 767.51 129.662 767.51 129.96C767.51 130.258 767.752 130.5 768.05 130.5Z" fill="#53AEDE" stroke="#A0DCED" stroke-width="2" stroke-miterlimit="10" stroke-linecap="round"/>
<path d="M741.42 148.18C741.42 148.18 747.64 152.69 744.01 160.13Z" fill="#53AEDE"/>
<path d="M741.42 148.18C741.42 148.18 747.64 152.69 744.01 160.13" stroke="#A0DCED" stroke-miterlimit="10" stroke-linecap="round"/>
<path d="M742.96 162.28C743.137 162.28 743.28 162.137 743.28 161.96C743.28 161.783 743.137 161.64 742.96 161.64C742.783 161.64 742.64 161.783 742.64 161.96C742.64 162.137 742.783 162.28 742.96 162.28Z" fill="#53AEDE" stroke="#A0DCED" stroke-miterlimit="10" stroke-linecap="round"/>
</g>
</g>
<defs>
<clipPath id="clip0_2862_44927">
<rect width="840.05" height="595.21" fill="white"/>
</clipPath>
</defs>
</svg>
