<svg width="204" height="59" viewBox="0 0 204 59" fill="none" xmlns="http://www.w3.org/2000/svg">
<path d="M202.647 52.0343C202.647 52.7769 202.497 53.5122 202.205 54.1981C201.914 54.8841 201.487 55.5073 200.949 56.0321C200.41 56.5569 199.771 56.973 199.068 57.2566C198.365 57.5403 197.611 57.6859 196.85 57.6851H7.1499C5.61237 57.6867 4.13715 57.0922 3.04868 56.0326C1.96021 54.9729 1.34761 53.5347 1.3456 52.0343V6.97129C1.34761 5.47023 1.95996 4.0313 3.04822 2.97045C4.13648 1.90959 5.61167 1.31353 7.1499 1.31314H196.849C197.61 1.31314 198.364 1.4595 199.067 1.74387C199.771 2.02824 200.41 2.44504 200.948 2.97046C201.486 3.49589 201.913 4.11965 202.205 4.80612C202.496 5.49259 202.646 6.22832 202.645 6.97129L202.647 52.0343Z" fill="white"/>
<path d="M196.85 58.9997H7.14991C5.25585 58.9993 3.43931 58.2657 2.09887 56.9598C0.758438 55.654 0.00360387 53.8826 0 52.0343L0 6.97273C0.00280199 5.12352 0.757138 3.3509 2.09753 2.04372C3.43792 0.736545 5.25491 0.0015608 7.14991 0L196.849 0C198.743 0.00233961 200.56 0.737575 201.9 2.04458C203.24 3.35159 203.995 5.12376 203.998 6.97273V52.0343C204.002 55.8762 200.789 58.9997 196.85 58.9997Z" fill="#A6A6A6"/>
<path d="M202.647 52.0343C202.647 52.7769 202.497 53.5122 202.205 54.1981C201.914 54.8841 201.487 55.5073 200.949 56.0321C200.41 56.5569 199.771 56.973 199.068 57.2566C198.365 57.5403 197.611 57.6859 196.85 57.6851H7.1499C5.61237 57.6867 4.13715 57.0922 3.04868 56.0326C1.96021 54.9729 1.34761 53.5347 1.3456 52.0343V6.97129C1.34761 5.47023 1.95996 4.0313 3.04822 2.97045C4.13648 1.90959 5.61167 1.31353 7.1499 1.31314H196.849C197.61 1.31314 198.364 1.4595 199.067 1.74387C199.771 2.02824 200.41 2.44504 200.948 2.97046C201.486 3.49589 201.913 4.11965 202.205 4.80612C202.496 5.49259 202.646 6.22832 202.645 6.97129L202.647 52.0343Z" fill="black"/>
<path d="M45.5514 29.1893C45.5075 24.4341 49.5414 22.1207 49.7258 22.013C47.4413 18.7627 43.9003 18.3186 42.656 18.2832C39.6821 17.9778 36.7973 20.0197 35.2824 20.0197C33.7372 20.0197 31.4043 18.3127 28.8899 18.3628C25.6544 18.4115 22.6275 20.2395 20.9674 23.0782C17.5414 28.8662 20.0965 37.3719 23.3789 42.0503C25.0209 44.3431 26.9395 46.9 29.4508 46.81C31.9077 46.7126 32.8255 45.2829 35.7904 45.2829C38.728 45.2829 39.5898 46.81 42.151 46.7524C44.7879 46.7126 46.4479 44.4508 48.0325 42.1389C49.9299 39.5141 50.6919 36.9263 50.7222 36.7935C50.6617 36.7728 45.6028 34.8873 45.5514 29.1893ZM40.7132 15.2055C42.0346 13.5929 42.9388 11.399 42.6878 9.17259C40.7752 9.25521 38.3833 10.4636 37.006 12.0408C35.7873 13.4306 34.6988 15.7086 34.98 17.8509C37.1284 18.0073 39.3343 16.793 40.7132 15.2055Z" fill="white"/>
<path d="M196.85 0.000366211H95.2409L135.039 59H196.85C198.745 58.9985 200.561 58.2639 201.901 56.9573C203.242 55.6508 203.996 53.8789 204 52.0302V6.97309C203.997 5.124 203.242 3.35161 201.902 2.04452C200.562 0.737426 198.745 0.00231656 196.85 0.000366211Z" fill="url(#paint0_linear_8_3)"/>
<path d="M81.1376 46.4809H77.7041L75.8232 40.7136H69.2856L67.494 46.4809H64.1511L70.6297 26.8463H74.6303L81.1376 46.4809ZM75.2562 38.2939L73.5553 33.1669C73.3754 32.6432 73.0367 31.4097 72.5408 29.4681H72.4803C72.2808 30.3032 71.9617 31.5366 71.5248 33.1669L69.8526 38.2939H75.2562ZM97.7658 39.2279C97.7658 41.6357 97.096 43.539 95.755 44.9362C94.5545 46.1799 93.0622 46.8011 91.2827 46.8011C89.361 46.8011 87.9791 46.1327 87.14 44.7931V52.2217H83.9166V36.9764C83.9166 35.4641 83.8757 33.9135 83.7971 32.323H86.632L86.8119 34.5671H86.8724C87.9474 32.8763 89.5787 32.0309 91.768 32.0309C93.4795 32.0309 94.9083 32.6904 96.0513 34.0109C97.1928 35.3343 97.7658 37.0723 97.7658 39.2279ZM94.4819 39.3429C94.4819 37.9649 94.1644 36.8289 93.5264 35.9333C92.8294 35.0023 91.8935 34.5361 90.7202 34.5361C89.925 34.5361 89.2023 34.7958 88.5567 35.3077C87.9096 35.8241 87.4862 36.4984 87.2882 37.3335C87.1998 37.6458 87.1495 37.9672 87.1385 38.291V40.6531C87.1385 41.6814 87.462 42.5505 88.1091 43.2616C88.7563 43.9698 89.5969 44.3254 90.631 44.3254C91.8451 44.3254 92.7901 43.8665 93.4659 42.9562C94.1433 42.0429 94.4819 40.839 94.4819 39.3429ZM114.453 39.2279C114.453 41.6357 113.783 43.539 112.442 44.9362C111.24 46.1799 109.749 46.8011 107.968 46.8011C106.047 46.8011 104.665 46.1327 103.826 44.7931V52.2217H100.602V36.9764C100.602 35.4641 100.561 33.9135 100.483 32.323H103.318L103.498 34.5671H103.558C104.632 32.8763 106.263 32.0309 108.454 32.0309C110.164 32.0309 111.592 32.6904 112.738 34.0109C113.878 35.3343 114.453 37.0723 114.453 39.2279ZM111.168 39.3429C111.168 37.9649 110.849 36.8289 110.211 35.9333C109.514 35.0023 108.581 34.5361 107.407 34.5361C106.612 34.5361 105.889 34.7958 105.241 35.3077C104.594 35.8241 104.172 36.4984 103.974 37.3335C103.876 37.723 103.823 38.0402 103.823 38.291V40.6531C103.823 41.6814 104.148 42.5505 104.792 43.2616C105.439 43.9683 106.28 44.3254 107.317 44.3254C108.532 44.3254 109.477 43.8665 110.152 42.9562C110.829 42.0429 111.168 40.839 111.168 39.3429ZM133.11 40.9733C133.11 42.6449 132.511 44.0037 131.322 45.0527C130.012 46.1976 128.184 46.7716 125.841 46.7716C123.676 46.7716 121.94 46.3644 120.631 45.5485L121.376 42.9267C122.79 43.7441 124.343 44.1513 126.033 44.1513C127.248 44.1513 128.193 43.8827 128.868 43.3501C129.544 42.816 129.885 42.1019 129.885 41.2108C129.885 40.4126 129.603 39.7443 129.048 39.1998C128.49 38.6569 127.567 38.1508 126.272 37.6861C122.749 36.404 120.986 34.5287 120.986 32.0619C120.986 30.4507 121.609 29.1317 122.852 28.1004C124.095 27.0706 125.743 26.5557 127.793 26.5557C129.624 26.5557 131.149 26.867 132.36 27.4881L131.551 30.0524C130.411 29.4504 129.125 29.1494 127.685 29.1494C126.548 29.1494 125.656 29.4224 125.018 29.9653C124.482 30.4507 124.209 31.0424 124.209 31.7447C124.209 32.5192 124.519 33.1625 125.136 33.6671C125.671 34.1318 126.648 34.6379 128.06 35.1808C129.793 35.8625 131.066 36.6562 131.881 37.568C132.702 38.4798 133.11 39.6174 133.11 40.9733ZM143.795 34.6836H140.242V41.5575C140.242 43.3059 140.868 44.1778 142.123 44.1778C142.699 44.1778 143.177 44.1306 143.555 44.0318L143.644 46.4204C143.009 46.6521 142.173 46.7686 141.137 46.7686C139.864 46.7686 138.869 46.3894 138.151 45.6311C137.436 44.8727 137.076 43.6024 137.076 41.8142V34.6777H134.959V32.3171H137.076V29.7248L140.242 28.7924V32.3171H143.795V34.6836ZM159.794 39.2854C159.794 41.4616 159.156 43.2483 157.883 44.6455C156.551 46.084 154.779 46.8011 152.57 46.8011C150.438 46.8011 148.744 46.1121 147.48 44.7355C146.216 43.356 145.584 41.618 145.584 39.5215C145.584 37.3276 146.237 35.5305 147.539 34.1333C148.843 32.7346 150.6 32.0353 152.809 32.0353C154.938 32.0353 156.648 32.7258 157.942 34.1038C159.179 35.4405 159.794 37.1667 159.794 39.2854ZM156.453 39.3577C156.453 38.0608 156.166 36.9484 155.59 36.0174C154.914 34.8931 153.946 34.331 152.693 34.331C151.401 34.331 150.411 34.8931 149.737 36.0174C149.159 36.9484 148.872 38.08 148.872 39.4167C148.872 40.7151 149.159 41.8305 149.737 42.7585C150.434 43.8827 151.406 44.4449 152.665 44.4449C153.898 44.4449 154.864 43.8709 155.562 42.7305C156.155 41.7773 156.453 40.6575 156.453 39.3577ZM170.276 35.0894C169.941 35.0303 169.601 35.0012 169.26 35.0023C168.126 35.0023 167.25 35.4184 166.633 36.2564C166.097 36.9941 165.828 37.9266 165.828 39.0523V46.4809H162.605V36.7817C162.608 35.2954 162.577 33.8093 162.511 32.3245H165.319L165.437 35.0333H165.526C165.868 34.1023 166.403 33.3514 167.138 32.7892C167.81 32.298 168.627 32.032 169.468 32.0309C169.765 32.0309 170.035 32.0515 170.273 32.0884L170.276 35.0894ZM184.693 38.7321C184.701 39.2103 184.661 39.6881 184.575 40.1588H174.904C174.941 41.5575 175.409 42.6287 176.308 43.3663C177.122 44.0244 178.176 44.3549 179.47 44.3549C180.902 44.3549 182.209 44.1336 183.383 43.6865L183.888 45.8686C182.515 46.4529 180.895 46.7435 179.024 46.7435C176.775 46.7435 175.009 46.0973 173.724 44.8078C172.442 43.5168 171.799 41.7818 171.799 39.6085C171.799 37.4751 172.396 35.6972 173.592 34.2794C174.844 32.7656 176.536 32.0087 178.665 32.0087C180.756 32.0087 182.339 32.7656 183.414 34.2794C184.265 35.4789 184.693 36.9661 184.693 38.7321ZM181.619 37.9162C181.642 36.9823 181.43 36.1782 180.993 35.4981C180.435 34.6217 179.576 34.185 178.426 34.185C177.372 34.185 176.513 34.6113 175.86 35.4671C175.323 36.1472 175.004 36.9646 174.906 37.9133L181.619 37.9162Z" fill="white"/>
<path d="M68.3558 19.9046C67.4592 19.9046 66.6836 19.8618 66.038 19.7895V10.2968C66.941 10.1607 67.8534 10.0936 68.7671 10.0962C72.4637 10.0962 74.1662 11.8711 74.1662 14.7643C74.1662 18.1017 72.1553 19.9046 68.3558 19.9046ZM68.8971 11.3134C68.3982 11.3134 67.9733 11.3429 67.621 11.4137V18.6299C67.8115 18.6594 68.1774 18.6727 68.6915 18.6727C71.1136 18.6727 72.4925 17.3271 72.4925 14.8071C72.4925 12.5601 71.2451 11.3134 68.8971 11.3134ZM79.4715 19.9769C77.3881 19.9769 76.0379 18.4587 76.0379 16.3976C76.0379 14.2494 77.4168 12.7179 79.5894 12.7179C81.6426 12.7179 83.023 14.1638 83.023 16.284C83.023 18.4587 81.6003 19.9769 79.4715 19.9769ZM79.532 13.8481C78.3875 13.8481 77.6542 14.8927 77.6542 16.3533C77.6542 17.7859 78.4026 18.8305 79.5169 18.8305C80.6312 18.8305 81.3796 17.7136 81.3796 16.3238C81.3796 14.9074 80.6463 13.8481 79.532 13.8481ZM94.9038 12.8611L92.6737 19.819H91.2207L90.2969 16.7974C90.0672 16.0583 89.876 15.3083 89.7239 14.5504H89.6937C89.5772 15.3087 89.3565 16.0686 89.1222 16.7974L88.1394 19.819H86.6713L84.5728 12.8611H86.2011L87.0085 16.1689C87.199 16.9568 87.3592 17.7004 87.4923 18.4027H87.5225C87.639 17.8169 87.8295 17.0851 88.1092 16.1837L89.1222 12.8625H90.4133L91.3825 16.1128C91.6168 16.9007 91.8073 17.6738 91.9555 18.4041H91.9978C92.1007 17.6886 92.2624 16.9287 92.4817 16.1128L93.348 12.8625L94.9038 12.8611ZM103.114 19.819H101.529V15.8237C101.529 14.5932 101.045 13.9765 100.091 13.9765C99.1523 13.9765 98.5067 14.7643 98.5067 15.6805V19.819H96.9222V14.8499C96.9222 14.2347 96.9071 13.5752 96.8632 12.8596H98.2572L98.3313 13.9337H98.3752C98.8015 13.1901 99.6663 12.7179 100.635 12.7179C102.132 12.7179 103.115 13.8348 103.115 15.6525L103.114 19.819ZM107.483 19.819H105.897V9.6683H107.483V19.819ZM113.26 19.9769C111.178 19.9769 109.827 18.4587 109.827 16.3976C109.827 14.2494 111.205 12.7179 113.377 12.7179C115.431 12.7179 116.81 14.1638 116.81 16.284C116.812 18.4587 115.387 19.9769 113.26 19.9769ZM113.319 13.8481C112.175 13.8481 111.441 14.8927 111.441 16.3533C111.441 17.7859 112.191 18.8305 113.302 18.8305C114.418 18.8305 115.165 17.7136 115.165 16.3238C115.167 14.9074 114.435 13.8481 113.319 13.8481ZM123.057 19.819L122.942 19.0179H122.9C122.416 19.6626 121.71 19.9769 120.815 19.9769C119.538 19.9769 118.63 19.1035 118.63 17.9291C118.63 16.2117 120.156 15.3235 122.797 15.3235V15.1951C122.797 14.2789 122.3 13.8201 121.317 13.8201C120.614 13.8201 119.997 13.9927 119.454 14.3365L119.132 13.3199C119.792 12.9186 120.614 12.7179 121.58 12.7179C123.443 12.7179 124.383 13.677 124.383 15.5964V18.1592C124.383 18.8615 124.415 19.4059 124.486 19.8205L123.057 19.819ZM122.84 16.3533C121.08 16.3533 120.197 16.7694 120.197 17.7564C120.197 18.4868 120.652 18.8438 121.284 18.8438C122.09 18.8438 122.84 18.2433 122.84 17.4274V16.3533ZM132.078 19.819L132.003 18.7022H131.96C131.505 19.5461 130.74 19.9769 129.671 19.9769C127.952 19.9769 126.678 18.5015 126.678 16.4256C126.678 14.2494 127.998 12.7165 129.801 12.7165C130.755 12.7165 131.43 13.0307 131.811 13.6622H131.843V9.6683H133.429V17.9438C133.429 18.6166 133.446 19.2466 133.488 19.819H132.078ZM131.843 15.7248C131.843 14.751 131.182 13.9204 130.174 13.9204C128.999 13.9204 128.281 14.9369 128.281 16.3681C128.281 17.7712 129.026 18.7317 130.142 18.7317C131.139 18.7317 131.843 17.8863 131.843 16.8845V15.7248ZM143.485 19.9769C141.403 19.9769 140.053 18.4587 140.053 16.3976C140.053 14.2494 141.432 12.7179 143.603 12.7179C145.658 12.7179 147.037 14.1638 147.037 16.284C147.038 18.4587 145.615 19.9769 143.485 19.9769ZM143.544 13.8481C142.401 13.8481 141.668 14.8927 141.668 16.3533C141.668 17.7859 142.416 18.8305 143.529 18.8305C144.645 18.8305 145.392 17.7136 145.392 16.3238C145.395 14.9074 144.661 13.8481 143.544 13.8481ZM155.558 19.819H153.972V15.8237C153.972 14.5932 153.488 13.9765 152.534 13.9765C151.595 13.9765 150.951 14.7643 150.951 15.6805V19.819H149.365V14.8499C149.365 14.2347 149.35 13.5752 149.306 12.8596H150.7L150.774 13.9337H150.818C151.243 13.1901 152.109 12.7165 153.077 12.7165C154.574 12.7165 155.558 13.8333 155.558 15.651V19.819ZM166.218 14.0207H164.475V17.3994C164.475 18.2595 164.781 18.6889 165.397 18.6889C165.677 18.6889 165.911 18.6594 166.1 18.6166L166.144 19.791C165.837 19.9061 165.426 19.9636 164.915 19.9636C163.666 19.9636 162.919 19.2908 162.919 17.5292V14.0207H161.879V12.8611H162.919V11.5863L164.475 11.1275V12.8596H166.218V14.0207ZM174.607 19.819H173.024V15.8532C173.024 14.6079 172.541 13.9779 171.586 13.9779C170.765 13.9779 170 14.5224 170 15.6245V19.819H168.417V9.6683H170V13.8481H170.031C170.53 13.0897 171.253 12.7165 172.175 12.7165C173.684 12.7165 174.607 13.8614 174.607 15.6805V19.819ZM183.2 16.7118H178.445C178.476 18.0294 179.369 18.773 180.692 18.773C181.395 18.773 182.042 18.6579 182.614 18.444L182.86 19.5181C182.186 19.8043 181.392 19.9474 180.468 19.9474C178.238 19.9474 176.918 18.5723 176.918 16.4404C176.918 14.307 178.27 12.7032 180.29 12.7032C182.112 12.7032 183.255 14.0207 183.255 16.011C183.265 16.2459 183.247 16.4812 183.2 16.7118ZM181.747 15.6097C181.747 14.5356 181.193 13.7773 180.18 13.7773C179.269 13.7773 178.55 14.5504 178.447 15.6097H181.747Z" fill="white"/>
<defs>
<linearGradient id="paint0_linear_8_3" x1="149.619" y1="59.1567" x2="149.619" y2="-153.625" gradientUnits="userSpaceOnUse">
<stop stop-color="#1A1A1A" stop-opacity="0.1"/>
<stop offset="0.123" stop-color="#212121" stop-opacity="0.151"/>
<stop offset="0.308" stop-color="#353535" stop-opacity="0.227"/>
<stop offset="0.532" stop-color="#575757" stop-opacity="0.318"/>
<stop offset="0.783" stop-color="#858585" stop-opacity="0.421"/>
<stop offset="1" stop-color="#B3B3B3" stop-opacity="0.51"/>
</linearGradient>
</defs>
</svg>
