<svg width="24" height="24" viewBox="0 0 24 24" fill="none" xmlns="http://www.w3.org/2000/svg">
<g id="basil:cancel-outline">
<path id="Vector" d="M8.47 8.47015C8.61063 8.3297 8.80125 8.25081 9 8.25081C9.19875 8.25081 9.38938 8.3297 9.53 8.47015L12 10.9402L14.47 8.47015C14.5387 8.39647 14.6215 8.33736 14.7135 8.29637C14.8055 8.25538 14.9048 8.23334 15.0055 8.23156C15.1062 8.22979 15.2062 8.24831 15.2996 8.28603C15.393 8.32375 15.4778 8.3799 15.549 8.45112C15.6203 8.52233 15.6764 8.60717 15.7141 8.70056C15.7518 8.79394 15.7704 8.89397 15.7686 8.99468C15.7668 9.09538 15.7448 9.19469 15.7038 9.28669C15.6628 9.37869 15.6037 9.46149 15.53 9.53015L13.06 12.0002L15.53 14.4702C15.6625 14.6123 15.7346 14.8004 15.7312 14.9947C15.7277 15.189 15.649 15.3744 15.5116 15.5118C15.3742 15.6492 15.1888 15.7279 14.9945 15.7313C14.8002 15.7348 14.6122 15.6626 14.47 15.5302L12 13.0602L9.53 15.5302C9.46134 15.6038 9.37854 15.6629 9.28654 15.7039C9.19454 15.7449 9.09523 15.767 8.99452 15.7687C8.89382 15.7705 8.79379 15.752 8.7004 15.7143C8.60702 15.6766 8.52218 15.6204 8.45096 15.5492C8.37974 15.478 8.3236 15.3931 8.28588 15.2998C8.24816 15.2064 8.22963 15.1063 8.23141 15.0056C8.23319 14.9049 8.25523 14.8056 8.29622 14.7136C8.33721 14.6216 8.39631 14.5388 8.47 14.4702L10.94 12.0002L8.47 9.53015C8.32955 9.38953 8.25066 9.1989 8.25066 9.00015C8.25066 8.8014 8.32955 8.61078 8.47 8.47015Z" fill="#0DB1FF"/>
<path id="Vector_2" fill-rule="evenodd" clip-rule="evenodd" d="M7.31699 3.76904C10.4295 3.42399 13.5705 3.42399 16.683 3.76904C18.51 3.97304 19.985 5.41204 20.199 7.24904C20.569 10.406 20.569 13.595 20.199 16.752C19.984 18.589 18.509 20.027 16.683 20.232C13.5705 20.5771 10.4295 20.5771 7.31699 20.232C5.48999 20.027 4.01499 18.589 3.80099 16.752C3.43177 13.5951 3.43177 10.4059 3.80099 7.24904C4.01499 5.41204 5.49099 3.97304 7.31699 3.76904ZM16.517 5.25904C13.5149 4.92627 10.4851 4.92627 7.48299 5.25904C6.92724 5.32069 6.4085 5.56791 6.01057 5.96075C5.61265 6.35359 5.35879 6.86912 5.28999 7.42404C4.93434 10.465 4.93434 13.5371 5.28999 16.578C5.359 17.1328 5.61295 17.6481 6.01086 18.0407C6.40876 18.4333 6.92739 18.6804 7.48299 18.742C10.46 19.074 13.54 19.074 16.517 18.742C17.0724 18.6802 17.5908 18.433 17.9885 18.0404C18.3862 17.6478 18.64 17.1326 18.709 16.578C19.0647 13.5371 19.0647 10.465 18.709 7.42404C18.6398 6.86963 18.3859 6.35468 17.9882 5.96226C17.5906 5.56983 17.0723 5.32281 16.517 5.26104V5.25904Z" fill="#0DB1FF"/>
</g>
</svg>
