<svg width="26" height="24" viewBox="0 0 26 24" fill="none" xmlns="http://www.w3.org/2000/svg">
<path d="M18.5533 22.75C17.397 22.75 16.1794 22.48 14.9207 21.96C13.6928 21.45 12.4547 20.75 11.2473 19.9C10.0501 19.04 8.89377 18.08 7.79889 17.03C6.71424 15.96 5.73191 14.83 4.86214 13.67C3.98214 12.47 3.2761 11.27 2.7747 10.11C2.24261 8.87 1.97656 7.67 1.97656 6.54C1.97656 5.76 2.11982 5.02 2.3961 4.33C2.68261 3.62 3.14307 2.96 3.76726 2.39C4.55517 1.63 5.45563 1.25 6.41749 1.25C6.81656 1.25 7.22586 1.34 7.57377 1.5C7.97284 1.68 8.31052 1.95 8.5561 2.31L10.9301 5.58C11.1449 5.87 11.3087 6.15 11.4212 6.43C11.5542 6.73 11.6259 7.03 11.6259 7.32C11.6259 7.7 11.5133 8.07 11.2984 8.42C11.1449 8.69 10.9096 8.98 10.6128 9.27L9.91703 9.98C9.92726 10.01 9.93749 10.03 9.94773 10.05C10.0705 10.26 10.3161 10.62 10.7868 11.16C11.2882 11.72 11.7589 12.23 12.2296 12.7C12.8333 13.28 13.3347 13.74 13.8054 14.12C14.3887 14.6 14.7673 14.84 14.9924 14.95L14.9719 15L15.7189 14.28C16.0361 13.97 16.3431 13.74 16.6398 13.59C17.2026 13.25 17.9189 13.19 18.6352 13.48C18.9012 13.59 19.1877 13.74 19.4947 13.95L22.8919 16.31C23.2705 16.56 23.5468 16.88 23.7105 17.26C23.864 17.64 23.9356 17.99 23.9356 18.34C23.9356 18.82 23.8231 19.3 23.6082 19.75C23.3933 20.2 23.1273 20.59 22.7896 20.95C22.2063 21.58 21.5719 22.03 20.8352 22.32C20.1291 22.6 19.3617 22.75 18.5533 22.75ZM6.41749 2.75C5.8547 2.75 5.33284 2.99 4.83145 3.47C4.36075 3.9 4.03331 4.37 3.82866 4.88C3.61377 5.4 3.51145 5.95 3.51145 6.54C3.51145 7.47 3.73656 8.48 4.1868 9.52C4.64726 10.58 5.29191 11.68 6.11052 12.78C6.92912 13.88 7.86028 14.95 8.88354 15.96C9.9068 16.95 11.0119 17.87 12.1477 18.68C13.2528 19.47 14.3887 20.11 15.5142 20.57C17.264 21.3 18.9012 21.47 20.2519 20.92C20.7738 20.71 21.2342 20.39 21.6538 19.93C21.8891 19.68 22.0733 19.41 22.2268 19.09C22.3496 18.84 22.411 18.58 22.411 18.32C22.411 18.16 22.3803 18 22.2984 17.82C22.2677 17.76 22.2063 17.65 22.0119 17.52L18.6147 15.16C18.4101 15.02 18.2259 14.92 18.0519 14.85C17.8268 14.76 17.7347 14.67 17.3868 14.88C17.1821 14.98 16.998 15.13 16.7933 15.33L16.0156 16.08C15.6166 16.46 15.0026 16.55 14.5319 16.38L14.2556 16.26C13.8361 16.04 13.3449 15.7 12.8026 15.25C12.3114 14.84 11.7794 14.36 11.1347 13.74C10.6333 13.24 10.1319 12.71 9.61005 12.12C9.12912 11.57 8.78121 11.1 8.56633 10.71L8.44354 10.41C8.38214 10.18 8.36168 10.05 8.36168 9.91C8.36168 9.55 8.4947 9.23 8.75052 8.98L9.51796 8.2C9.72261 8 9.8761 7.81 9.97842 7.64C10.0603 7.51 10.091 7.4 10.091 7.3C10.091 7.22 10.0603 7.1 10.0091 6.98C9.93749 6.82 9.82493 6.64 9.68168 6.45L7.30773 3.17C7.2054 3.03 7.08261 2.93 6.92912 2.86C6.7654 2.79 6.59145 2.75 6.41749 2.75ZM14.9719 15.01L14.8082 15.69L15.0845 14.99C15.0333 14.98 14.9924 14.99 14.9719 15.01Z" fill="#0DB1FF"/>
<path d="M19.6281 9.75C19.2086 9.75 18.8607 9.41 18.8607 9C18.8607 8.64 18.4923 7.89 17.8784 7.25C17.2746 6.62 16.6095 6.25 16.0467 6.25C15.6272 6.25 15.2793 5.91 15.2793 5.5C15.2793 5.09 15.6272 4.75 16.0467 4.75C17.0393 4.75 18.083 5.27 18.9937 6.22C19.843 7.11 20.3956 8.2 20.3956 9C20.3956 9.41 20.0477 9.75 19.6281 9.75Z" fill="#0DB1FF"/>
<path d="M23.2095 9.75C22.79 9.75 22.4421 9.41 22.4421 9C22.4421 5.55 19.577 2.75 16.0467 2.75C15.6272 2.75 15.2793 2.41 15.2793 2C15.2793 1.59 15.6272 1.25 16.0467 1.25C20.416 1.25 23.977 4.73 23.977 9C23.977 9.41 23.6291 9.75 23.2095 9.75Z" fill="#0DB1FF"/>
</svg>
