<svg width="29" height="29" viewBox="0 0 29 29" fill="none" xmlns="http://www.w3.org/2000/svg">
<g id="vuesax/outline/call">
<g id="call">
<path id="Vector" d="M21.0854 27.4889C19.72 27.4889 18.282 27.1627 16.7958 26.5343C15.3458 25.9181 13.8837 25.0723 12.4579 24.0452C11.0441 23.006 9.67871 21.846 8.38579 20.5773C7.10496 19.2843 5.94496 17.9189 4.91788 16.5173C3.87871 15.0673 3.04496 13.6173 2.45288 12.2156C1.82454 10.7173 1.51038 9.26727 1.51038 7.90185C1.51038 6.95935 1.67954 6.06518 2.00579 5.23143C2.34413 4.37352 2.88788 3.57602 3.62496 2.88727C4.55538 1.96893 5.61871 1.50977 6.75454 1.50977C7.22579 1.50977 7.70913 1.61852 8.11996 1.81185C8.59121 2.02935 8.98996 2.3556 9.27996 2.7906L12.0833 6.74185C12.337 7.09227 12.5304 7.4306 12.6633 7.76893C12.8204 8.13143 12.905 8.49393 12.905 8.84435C12.905 9.30352 12.772 9.7506 12.5183 10.1735C12.337 10.4998 12.0591 10.8502 11.7087 11.2006L10.887 12.0585C10.8991 12.0948 10.9112 12.1189 10.9233 12.1431C11.0683 12.3968 11.3583 12.8318 11.9141 13.4843C12.5062 14.161 13.062 14.7773 13.6179 15.3452C14.3308 16.046 14.9229 16.6018 15.4787 17.061C16.1675 17.641 16.6145 17.931 16.8804 18.0639L16.8562 18.1243L17.7383 17.2543C18.1129 16.8798 18.4754 16.6018 18.8258 16.4206C19.4904 16.0098 20.3362 15.9373 21.182 16.2877C21.4962 16.4206 21.8345 16.6018 22.197 16.8556L26.2087 19.7073C26.6558 20.0093 26.982 20.396 27.1754 20.8552C27.3566 21.3144 27.4412 21.7373 27.4412 22.1602C27.4412 22.7402 27.3083 23.3202 27.0545 23.8639C26.8008 24.4077 26.4866 24.8789 26.0879 25.3139C25.3991 26.0752 24.65 26.6189 23.78 26.9693C22.9462 27.3077 22.04 27.4889 21.0854 27.4889ZM6.75454 3.32227C6.08996 3.32227 5.47371 3.61227 4.88163 4.19227C4.32579 4.71185 3.93913 5.27977 3.69746 5.89602C3.44371 6.52435 3.32288 7.18893 3.32288 7.90185C3.32288 9.0256 3.58871 10.246 4.12038 11.5027C4.66413 12.7835 5.42538 14.1127 6.39204 15.4418C7.35871 16.771 8.45829 18.0639 9.66663 19.2843C10.875 20.4806 12.18 21.5923 13.5212 22.571C14.8262 23.5256 16.1675 24.2989 17.4966 24.8548C19.5629 25.7368 21.4962 25.9423 23.0912 25.2777C23.7075 25.0239 24.2512 24.6373 24.7466 24.0814C25.0245 23.7794 25.242 23.4531 25.4233 23.0664C25.5683 22.7643 25.6408 22.4502 25.6408 22.136C25.6408 21.9427 25.6045 21.7493 25.5079 21.5318C25.4716 21.4593 25.3991 21.3264 25.1695 21.1693L21.1579 18.3177C20.9162 18.1485 20.6987 18.0277 20.4933 17.9431C20.2275 17.8344 20.1187 17.7256 19.7079 17.9793C19.4662 18.1002 19.2487 18.2814 19.007 18.5231L18.0887 19.4293C17.6175 19.8885 16.8925 19.9973 16.3366 19.7918L16.0104 19.6469C15.515 19.381 14.935 18.9702 14.2945 18.4264C13.7145 17.931 13.0862 17.351 12.325 16.6018C11.7329 15.9977 11.1408 15.3573 10.5245 14.6443C9.95663 13.9798 9.54579 13.4118 9.29204 12.9406L9.14704 12.5781C9.07454 12.3002 9.05038 12.1431 9.05038 11.9739C9.05038 11.5389 9.20746 11.1523 9.50954 10.8502L10.4158 9.90768C10.6575 9.66602 10.8387 9.43643 10.9595 9.23102C11.0562 9.07393 11.0925 8.94102 11.0925 8.82018C11.0925 8.72352 11.0562 8.57852 10.9958 8.43352C10.9112 8.24018 10.7783 8.02268 10.6091 7.7931L7.80579 3.82977C7.68496 3.6606 7.53996 3.53977 7.35871 3.45518C7.16538 3.3706 6.95996 3.32227 6.75454 3.32227ZM16.8562 18.1364L16.6629 18.9581L16.9891 18.1123C16.9287 18.1002 16.8804 18.1123 16.8562 18.1364Z" fill="#0DB1FF"/>
</g>
</g>
</svg>
