<svg width="26" height="24" viewBox="0 0 26 24" fill="none" xmlns="http://www.w3.org/2000/svg">
<path d="M14.4321 17.4201H11.8638C10.1856 17.4201 8.82469 16.0401 8.82469 14.3401C8.82469 13.9301 9.17259 13.5901 9.59213 13.5901C10.0117 13.5901 10.3596 13.9301 10.3596 14.3401C10.3596 15.2101 11.0349 15.9201 11.8638 15.9201H14.4321C15.0972 15.9201 15.6498 15.3401 15.6498 14.6401C15.6498 13.7701 15.3326 13.6001 14.8107 13.4201L10.687 12.0001C9.88887 11.7301 8.81445 11.1501 8.81445 9.36008C8.81445 7.82008 10.0526 6.58008 11.567 6.58008H14.1354C15.8135 6.58008 17.1745 7.96008 17.1745 9.66008C17.1745 10.0701 16.8265 10.4101 16.407 10.4101C15.9875 10.4101 15.6396 10.0701 15.6396 9.66008C15.6396 8.79008 14.9642 8.08008 14.1354 8.08008H11.567C10.9019 8.08008 10.3493 8.66008 10.3493 9.36008C10.3493 10.2301 10.6665 10.4001 11.1884 10.5801L15.3121 12.0001C16.1103 12.2701 17.1847 12.8501 17.1847 14.6401C17.1745 16.1701 15.9465 17.4201 14.4321 17.4201Z" fill="#0DB1FF"/>
<path d="M12.9999 18.75C12.5803 18.75 12.2324 18.41 12.2324 18V6C12.2324 5.59 12.5803 5.25 12.9999 5.25C13.4194 5.25 13.7673 5.59 13.7673 6V18C13.7673 18.41 13.4194 18.75 12.9999 18.75Z" fill="#0DB1FF"/>
<path d="M16.0698 22.75H9.93023C4.37395 22.75 2 20.43 2 15V9C2 3.57 4.37395 1.25 9.93023 1.25H16.0698C21.626 1.25 24 3.57 24 9V15C24 20.43 21.626 22.75 16.0698 22.75ZM9.93023 2.75C5.21302 2.75 3.53488 4.39 3.53488 9V15C3.53488 19.61 5.21302 21.25 9.93023 21.25H16.0698C20.787 21.25 22.4651 19.61 22.4651 15V9C22.4651 4.39 20.787 2.75 16.0698 2.75H9.93023Z" fill="#0DB1FF"/>
</svg>
