<svg width="26" height="24" viewBox="0 0 26 24" fill="none" xmlns="http://www.w3.org/2000/svg">
<path d="M18.897 22.7498H8.55191C8.22446 22.7498 7.93795 22.5498 7.82539 22.2598C7.71283 21.9598 7.80492 21.6297 8.0505 21.4297C8.29609 21.2297 8.5212 20.9698 8.68492 20.6898C9.01236 20.1798 9.17609 19.5998 9.17609 19.0098C9.17609 17.2198 7.68214 15.7598 5.85051 15.7598C5.0933 15.7598 4.37702 16.0097 3.7733 16.4797C3.54819 16.6597 3.23097 16.6898 2.96492 16.5698C2.69888 16.4498 2.53516 16.1798 2.53516 15.8898V11.5198C2.53516 9.02978 4.60213 7.00977 7.15003 7.00977H18.897C21.4449 7.00977 23.5119 9.02978 23.5119 11.5198V12.9598C23.5119 13.3698 23.164 13.7098 22.7445 13.7098H20.6775C20.3193 13.7098 19.9919 13.8398 19.7566 14.0798L19.7463 14.0898C19.4598 14.3598 19.3268 14.7297 19.3575 15.1097C19.4189 15.7697 20.0635 16.2997 20.8003 16.2997H22.7445C23.164 16.2997 23.5119 16.6397 23.5119 17.0497V18.2397C23.5119 20.7297 21.4449 22.7498 18.897 22.7498ZM10.1379 21.2498H18.897C20.5956 21.2498 21.977 19.8997 21.977 18.2397V17.7997H20.8003C19.2552 17.7997 17.9454 16.6797 17.8226 15.2397C17.7407 14.4197 18.0477 13.6098 18.6617 13.0198C19.1938 12.4898 19.91 12.1998 20.6775 12.1998H21.977V11.5098C21.977 9.84977 20.5956 8.49976 18.897 8.49976H7.15003C5.45143 8.49976 4.07004 9.84977 4.07004 11.5098V14.5898C4.64306 14.3698 5.24678 14.2498 5.86074 14.2498C8.54167 14.2498 10.7212 16.3798 10.7212 18.9998C10.7212 19.7898 10.5165 20.5698 10.1379 21.2498Z" fill="#0DB1FF"/>
<path d="M3.3026 13.16C2.88306 13.16 2.53516 12.82 2.53516 12.41V7.84006C2.53516 6.35006 3.49702 5.00001 4.91934 4.47001L13.044 1.47001C13.8831 1.16001 14.8142 1.27005 15.5407 1.77005C16.2775 2.27005 16.7073 3.08005 16.7073 3.95005V7.75003C16.7073 8.16003 16.3593 8.50003 15.9398 8.50003C15.5203 8.50003 15.1724 8.16003 15.1724 7.75003V3.95005C15.1724 3.57005 14.9882 3.22003 14.6607 3.00003C14.3333 2.78003 13.9445 2.73003 13.5761 2.87003L5.45144 5.87003C4.6226 6.18003 4.05981 6.97006 4.05981 7.84006V12.41C4.07005 12.83 3.72213 13.16 3.3026 13.16Z" fill="#0DB1FF"/>
<path d="M20.7993 17.7992C19.2542 17.7992 17.9444 16.6792 17.8216 15.2392C17.7398 14.4092 18.0467 13.5992 18.6607 13.0092C19.1825 12.4892 19.8988 12.1992 20.6663 12.1992H22.7946C23.8077 12.2292 24.5853 13.0092 24.5853 13.9692V16.0292C24.5853 16.9892 23.8077 17.7692 22.8253 17.7992H20.7993ZM22.7742 13.6992H20.6765C20.3184 13.6992 19.9909 13.8292 19.7556 14.0692C19.4588 14.3492 19.3156 14.7292 19.3565 15.1092C19.4179 15.7692 20.0626 16.2992 20.7993 16.2992H22.8049C22.9379 16.2992 23.0607 16.1792 23.0607 16.0292V13.9692C23.0607 13.8192 22.9379 13.7092 22.7742 13.6992Z" fill="#0DB1FF"/>
<path d="M15.0689 12.75H7.90611C7.48658 12.75 7.13867 12.41 7.13867 12C7.13867 11.59 7.48658 11.25 7.90611 11.25H15.0689C15.4884 11.25 15.8363 11.59 15.8363 12C15.8363 12.41 15.4884 12.75 15.0689 12.75Z" fill="#0DB1FF"/>
<path d="M5.86047 23.75C4.16186 23.75 2.56558 22.87 1.70605 21.44C1.24558 20.72 1 19.87 1 19C1 17.54 1.66512 16.19 2.82139 15.29C3.68093 14.62 4.76558 14.25 5.86047 14.25C8.5414 14.25 10.7209 16.38 10.7209 19C10.7209 19.87 10.4753 20.72 10.0149 21.45C9.7693 21.87 9.43163 22.25 9.04279 22.57C8.19349 23.33 7.05768 23.75 5.86047 23.75ZM5.86047 15.75C5.10326 15.75 4.38698 16 3.78326 16.47C2.99535 17.08 2.53488 18.01 2.53488 19C2.53488 19.59 2.69861 20.17 3.01582 20.67C3.61954 21.67 4.68372 22.25 5.86047 22.25C6.66884 22.25 7.44652 21.96 8.04001 21.44C8.30605 21.22 8.53117 20.96 8.69489 20.68C9.02233 20.17 9.18605 19.59 9.18605 19C9.18605 17.21 7.69209 15.75 5.86047 15.75Z" fill="#0DB1FF"/>
<path d="M5.2779 20.7396C5.08348 20.7396 4.88906 20.6696 4.73557 20.5196L3.72256 19.5296C3.42581 19.2396 3.42581 18.7595 3.72256 18.4695C4.0193 18.1795 4.51046 18.1795 4.80721 18.4695L5.29837 18.9496L6.93558 17.4695C7.24256 17.1895 7.73372 17.2096 8.02023 17.5096C8.30674 17.8096 8.28628 18.2896 7.97931 18.5696L5.79977 20.5396C5.64628 20.6696 5.46208 20.7396 5.2779 20.7396Z" fill="#0DB1FF"/>
</svg>
