<svg width="23" height="23" viewBox="0 0 23 23" fill="none" xmlns="http://www.w3.org/2000/svg">
<path id="Forma 1" d="M17.8337 22.0941V19.6247H15.3632C15.125 19.6247 14.8965 19.5301 14.728 19.3618C14.5596 19.1934 14.4649 18.965 14.4649 18.7269C14.4649 18.4888 14.5596 18.2604 14.728 18.092C14.8965 17.9236 15.125 17.829 15.3632 17.829H17.8337V15.3596C17.8337 15.1213 17.9284 14.8928 18.097 14.7243C18.2655 14.5558 18.4942 14.4612 18.7325 14.4612C18.9709 14.4612 19.1996 14.5558 19.3681 14.7243C19.5367 14.8928 19.6314 15.1213 19.6314 15.3596V17.829H22.1018C22.34 17.829 22.5684 17.9236 22.7369 18.092C22.9054 18.2604 23 18.4888 23 18.7269C23 18.965 22.9054 19.1934 22.7369 19.3618C22.5684 19.5301 22.34 19.6247 22.1018 19.6247H19.6314V22.0941C19.6314 22.3323 19.5367 22.5606 19.3683 22.729C19.1998 22.8974 18.9713 22.992 18.7331 22.992C18.4949 22.992 18.2664 22.8974 18.098 22.729C17.9295 22.5606 17.8337 22.3323 17.8337 22.0941ZM2.72566 22.992C2.31982 22.9915 1.91929 22.9005 1.55307 22.7256C1.18686 22.5508 0.86427 22.2966 0.608776 21.9814C0.353281 21.6662 0.171287 21.298 0.0761161 20.9037C-0.0190545 20.5093 -0.0250638 20.0987 0.0585667 19.7018C0.47805 17.6956 1.41841 15.8351 2.78518 14.3073C4.15196 12.7794 5.89701 11.6381 7.84489 10.998C6.81721 10.2301 6.05756 9.15826 5.67354 7.93452C5.28952 6.71078 5.30062 5.39725 5.70541 4.18022C6.11019 2.96318 6.88811 1.90443 7.92871 1.15411C8.9693 0.403794 10.2198 0 11.5029 0C12.786 0 14.0365 0.403794 15.0771 1.15411C16.1177 1.90443 16.8954 2.96318 17.3002 4.18022C17.705 5.39725 17.7163 6.71078 17.3322 7.93452C16.9482 9.15826 16.1884 10.2301 15.1607 10.998C15.6218 11.1513 16.0731 11.3326 16.5122 11.5406C16.7185 11.6482 16.8751 11.8314 16.9491 12.0519C17.0231 12.2725 17.0087 12.513 16.909 12.7232C16.8092 12.9333 16.6319 13.0966 16.4142 13.1788C16.1965 13.2609 15.9554 13.2556 15.7416 13.1639C14.4901 12.5677 13.1263 12.244 11.7403 12.2143C11.6609 12.2143 11.5804 12.2143 11.4999 12.2143C11.4194 12.2143 11.34 12.2143 11.2618 12.2143C9.03324 12.2739 6.88962 13.0815 5.17612 14.5071C3.46261 15.9327 2.27909 17.8933 1.81603 20.0731C1.78721 20.2101 1.78932 20.3518 1.82235 20.4879C1.85539 20.6239 1.91839 20.7508 2.00683 20.8594C2.09276 20.9675 2.20214 21.0547 2.32665 21.1145C2.45116 21.1742 2.58755 21.2049 2.72566 21.2043H13.7911C14.0293 21.2043 14.2577 21.2989 14.4262 21.4673C14.5947 21.6356 14.6893 21.864 14.6893 22.1021C14.6893 22.3403 14.5947 22.5686 14.4262 22.737C14.2577 22.9054 14.0293 23 13.7911 23L2.72566 22.992ZM11.7197 10.4128C12.8435 10.3559 13.9004 9.86224 14.6653 9.03727C15.4302 8.2123 15.8424 7.12124 15.8139 5.99685C15.7854 4.87245 15.3184 3.80371 14.5127 3.01853C13.707 2.23334 12.6263 1.7939 11.5011 1.7939C10.3758 1.7939 9.29513 2.23334 8.48944 3.01853C7.68376 3.80371 7.21691 4.87245 7.1884 5.99685C7.15989 7.12124 7.57198 8.2123 8.33683 9.03727C9.10169 9.86224 10.1588 10.3559 11.2826 10.4128H11.4999H11.7197Z" fill="#0DB1FF"/>
</svg>
