<svg width="26" height="24" viewBox="0 0 26 24" fill="none" xmlns="http://www.w3.org/2000/svg">
<path d="M12.9531 22.75C6.88522 22.75 1.95312 17.93 1.95312 12C1.95312 6.07 6.88522 1.25 12.9531 1.25C19.021 1.25 23.9531 6.07 23.9531 12C23.9531 12.41 23.6052 12.75 23.1857 12.75C22.7661 12.75 22.4182 12.41 22.4182 12C22.4182 6.9 18.1717 2.75 12.9531 2.75C7.73452 2.75 3.48801 6.9 3.48801 12C3.48801 17.1 7.73452 21.25 12.9531 21.25C13.3727 21.25 13.7206 21.59 13.7206 22C13.7206 22.41 13.3727 22.75 12.9531 22.75Z" fill="#0DB1FF"/>
<path d="M9.88336 21.75H8.8601C8.44057 21.75 8.09266 21.41 8.09266 21C8.09266 20.59 8.42011 20.26 8.83965 20.25C7.23314 14.89 7.23314 9.11 8.83965 3.75C8.43035 3.74 8.09266 3.41 8.09266 3C8.09266 2.59 8.44057 2.25 8.8601 2.25H9.88336C10.1289 2.25 10.3643 2.37 10.5075 2.56C10.6508 2.76 10.6917 3.00999 10.6099 3.23999C8.68614 8.88999 8.68614 15.12 10.6099 20.77C10.6917 21 10.6508 21.25 10.5075 21.45C10.3643 21.65 10.1289 21.75 9.88336 21.75Z" fill="#0DB1FF"/>
<path d="M17.5157 12.7505C17.0961 12.7505 16.7482 12.4105 16.7482 12.0005C16.7482 9.02045 16.2571 6.07044 15.2952 3.24044C15.1622 2.85044 15.3771 2.42043 15.7762 2.29043C16.1752 2.16043 16.6152 2.37046 16.7482 2.76046C17.7613 5.74046 18.2831 8.85045 18.2831 12.0005C18.2831 12.4105 17.9352 12.7505 17.5157 12.7505Z" fill="#0DB1FF"/>
<path d="M12.9533 17.2108C10.0882 17.2108 7.25377 16.8108 4.51145 16.0208C4.50121 16.4208 4.16354 16.7508 3.744 16.7508C3.32447 16.7508 2.97656 16.4108 2.97656 16.0008V15.0008C2.97656 14.7608 3.09935 14.5308 3.29377 14.3908C3.48819 14.2508 3.75423 14.2108 3.98958 14.2908C6.88539 15.2308 9.904 15.7108 12.9533 15.7108C13.3728 15.7108 13.7207 16.0508 13.7207 16.4608C13.7207 16.8708 13.3728 17.2108 12.9533 17.2108Z" fill="#0DB1FF"/>
<path d="M22.1615 9.7494C22.0797 9.7494 21.9978 9.73942 21.9159 9.70942C16.1346 7.82942 9.75967 7.82942 3.97828 9.70942C3.57921 9.83942 3.1392 9.62939 3.00617 9.23939C2.87315 8.84939 3.08803 8.41938 3.4871 8.28938C9.58571 6.29937 16.2983 6.29937 22.3866 8.28938C22.7857 8.41938 23.0006 8.84939 22.8676 9.23939C22.7857 9.54939 22.4787 9.7494 22.1615 9.7494Z" fill="#0DB1FF"/>
<path d="M19.3581 22.7498C16.8204 22.7498 14.7637 20.7298 14.7637 18.2598C14.7637 15.7898 16.8307 13.7598 19.3581 13.7598C19.8697 13.7598 20.3814 13.8297 20.8623 13.9797C21.2716 14.0997 21.4967 14.5197 21.3739 14.9197C21.2511 15.3197 20.8214 15.5397 20.4121 15.4197C20.0744 15.3197 19.7163 15.2698 19.3581 15.2698C17.6697 15.2698 16.2986 16.6098 16.2986 18.2698C16.2986 19.9298 17.6697 21.2598 19.3581 21.2598C21.0465 21.2598 22.4176 19.9198 22.4176 18.2698C22.4176 17.6698 22.2437 17.0997 21.906 16.6097C21.6707 16.2697 21.7627 15.7998 22.1209 15.5698C22.4688 15.3398 22.9497 15.4298 23.1851 15.7798C23.6967 16.5198 23.9628 17.3898 23.9628 18.2798C23.9525 20.7298 21.8856 22.7498 19.3581 22.7498Z" fill="#0DB1FF"/>
<path d="M21.1796 15.5493C20.9647 15.5493 20.7499 15.4593 20.5964 15.2893L19.3173 13.8593C19.041 13.5493 19.0717 13.0693 19.3889 12.7993C19.7061 12.5293 20.1871 12.5594 20.4736 12.8694L21.7527 14.2993C22.0289 14.6093 21.9982 15.0893 21.681 15.3593C21.5378 15.4893 21.3638 15.5493 21.1796 15.5493Z" fill="#0DB1FF"/>
<path d="M19.6859 16.6097C19.4505 16.6097 19.2152 16.4997 19.0617 16.2997C18.8161 15.9697 18.8878 15.4997 19.2255 15.2497L20.7194 14.1897C21.0571 13.9397 21.538 14.0197 21.7938 14.3497C22.0394 14.6797 21.9678 15.1497 21.6301 15.3997L20.1361 16.4597C20.0031 16.5597 19.8496 16.6097 19.6859 16.6097Z" fill="#0DB1FF"/>
</svg>
