<?xml version="1.0" encoding="utf-8"?>
<!-- Generator: Adobe Illustrator 28.7.3, SVG Export Plug-In . SVG Version: 9.03 Build 54978)  -->
<svg version="1.0" id="Layer_1" xmlns="http://www.w3.org/2000/svg" xmlns:xlink="http://www.w3.org/1999/xlink" x="0px" y="0px"
	 viewBox="0 0 88 60.5" style="enable-background:new 0 0 88 60.5;" xml:space="preserve">
<style type="text/css">
	.st0{fill:url(#XMLID_00000152222299225621067950000012136233093112662962_);}
	.st1{fill:url(#XMLID_00000099639356042605716600000002393719678987578762_);}
	.st2{fill:url(#XMLID_00000024000576715465512190000016203293424232749491_);}
	.st3{fill:#FFFFFF;}
	.st4{fill-rule:evenodd;clip-rule:evenodd;fill:#FFFFFF;}
	.st5{fill:#262261;}
	.st6{fill:#404041;}
	.st7{fill:#26A9E0;}
	.st8{fill:#1B75BB;}
	.st9{fill:url(#SVGID_1_);}
	.st10{fill:url(#SVGID_00000000220381976492964990000007966007005880573631_);}
	.st11{fill:url(#SVGID_00000102511644980282166060000010791749099912264081_);}
	.st12{fill:url(#SVGID_00000133520413453990280070000010696415175068878259_);}
	.st13{fill:url(#SVGID_00000013162708753793570480000017364806056113209749_);}
	.st14{fill:url(#SVGID_00000158001781108096737440000012607275881704748422_);}
	.st15{fill:url(#SVGID_00000141447617891341561790000000878078087599305656_);}
	.st16{fill:url(#SVGID_00000165946261885758102830000003723294530905432479_);}
	.st17{fill:url(#SVGID_00000137813422008741592070000012471560844698621115_);}
	.st18{fill:url(#SVGID_00000074409839178505407640000011617413055496834232_);}
	.st19{fill:url(#SVGID_00000177456304923318692260000011980393546299788934_);}
	.st20{fill:url(#SVGID_00000060719125613941483410000007756930746721144244_);}
	.st21{fill:url(#SVGID_00000021829892353512258340000011785122588603323312_);}
	.st22{fill-rule:evenodd;clip-rule:evenodd;fill:url(#SVGID_00000019668014475654067250000014535539496791179191_);}
</style>
<g>
	
		<linearGradient id="XMLID_00000003804691061360706650000009906521615546671495_" gradientUnits="userSpaceOnUse" x1="31.6116" y1="0.4007" x2="47.1223" y2="25.1028">
		<stop  offset="0" style="stop-color:#2BA6DE"/>
		<stop  offset="1" style="stop-color:#293E8F"/>
	</linearGradient>
	
		<path id="XMLID_00000095337263090368728320000001758203742265400210_" style="fill:url(#XMLID_00000003804691061360706650000009906521615546671495_);" d="
		M38.7,7.8c-0.8-1.3-2.6-0.1-1.8,1.5c0.7,1.4,2.6,4.4,1.9,6.2C38.8,15.6,41.3,12.1,38.7,7.8z"/>
	
		<linearGradient id="XMLID_00000098187955573439473980000008790400828623512511_" gradientUnits="userSpaceOnUse" x1="33.5706" y1="-0.8293" x2="49.0812" y2="23.8728">
		<stop  offset="0" style="stop-color:#2BA6DE"/>
		<stop  offset="1" style="stop-color:#293E8F"/>
	</linearGradient>
	
		<path id="XMLID_00000117639541275766489730000012447689029029173670_" style="fill:url(#XMLID_00000098187955573439473980000008790400828623512511_);" d="
		M40.6,13.2c0,0,2.7-1,2.2-2.1C42.3,9.9,40.7,11.2,40.6,13.2z"/>
	
		<linearGradient id="XMLID_00000175283521566216067990000011055856138444420752_" gradientUnits="userSpaceOnUse" x1="30.0577" y1="1.3764" x2="45.5683" y2="26.0786">
		<stop  offset="0" style="stop-color:#2BA6DE"/>
		<stop  offset="1" style="stop-color:#293E8F"/>
	</linearGradient>
	
		<path id="XMLID_00000160886073205149356480000018402307793709137810_" style="fill:url(#XMLID_00000175283521566216067990000011055856138444420752_);" d="
		M36.6,11.1c0,0-0.6-2.8-1.8-2.4C33.6,9,34.7,10.8,36.6,11.1z"/>
	<path class="st3" d="M82.9,50.9c-0.1,0-0.4-0.4-1-0.8c0.2-0.8,0-1.8-0.6-2.4c-0.1-0.1-1.3-1.4-3.6-2.7c0.1-0.1,0.1-0.1,0.2-0.2
		c0,0,0.1-0.1,0.1-0.1l0.2-0.3c0.6-0.9,0.7-2,0.1-2.9c0-0.1,0-0.1,0-0.2c0.1-0.3,0.2-1,0.7-2.4c0.4-1.1,0.8-2.2,1.2-3.2
		c0.3-0.6,0.4-1.1,0.6-1.5c0.2-0.6,0.3-1.1,0.3-1.5v0c0-0.1,0-0.3-0.1-0.4c-0.1-0.5-0.4-1.3-1.3-1.9c0.3-0.3,0.5-0.7,0.7-1.1
		c0,0,0-0.1,0.1-0.2c0.2-0.5,0.3-1.1,0.3-1.8c0-0.1,0-0.1,0-0.2c0-0.2,0-0.5,0-0.8c0.3-0.2,0.5-0.3,0.7-0.6c0.1-0.1,0.1-0.1,0.2-0.2
		c0.1-0.2,0.2-0.3,0.4-0.6c0.1-0.2,0.2-0.4,0.3-0.6c0,0,0-0.1,0-0.1c0-0.1,0.1-0.2,0.1-0.3c0,0,0-0.1,0.1-0.1c0.3-0.5,0.5-1,0.5-1.6
		c0,0,0-0.1,0-0.1c0-1.1-0.6-2.1-1.7-2.6c-0.5-0.2-0.9-0.3-1.4-0.4c-0.3,0-0.7,0-1,0.1c-0.1,0-0.1,0-0.2,0h0c-1.5,0-2.6,0.4-3.3,1
		c-0.2-0.2-0.4-0.3-0.6-0.5c0,0-0.1,0-0.1-0.1c-0.6-0.3-1.2-0.5-2-0.5c-0.7,0-1.3,0.1-1.9,0.3c0,0-0.1,0-0.1,0
		c-0.2,0.1-0.3,0.1-0.5,0.2C69.6,19.2,69,19,68.2,19l-0.1,0c-0.6,0-1.2,0.1-1.7,0.4c-0.5-0.3-1.1-0.5-1.8-0.5c-0.7,0-1.4,0.1-2,0.5
		c-0.1,0-0.1,0.1-0.2,0.1c-0.2,0-0.4,0-0.7-0.1c-0.3,0-0.5,0-0.6,0c-0.1,0-0.3,0-0.4,0c-0.6-0.2-1.2-0.4-2-0.4c-0.2,0-0.4,0-0.5,0
		c-0.1,0-0.3,0-0.4,0c0-0.2,0.1-0.4,0.1-0.6c0.1-0.5,0.1-1,0.1-1.5c0-0.4,0-0.8,0-1.1c0,0,0,0,0,0c-0.3-2.2-1.3-3.2-2.2-3.7
		c-0.5-0.3-1.1-0.5-1.8-0.5c0,0-0.1,0-0.1,0l-0.1,0c-0.5,0-1,0.1-1.5,0.2c0,0,0,0-0.1,0c-0.7,0.3-1.2,0.7-1.5,1.3
		c0,0.1-0.1,0.1-0.1,0.2c-0.2,0.3-0.2,0.7-0.2,1.1c0,0.2,0,0.4,0.1,0.7c0,0.1,0.1,0.3,0.1,0.5c0.1,0.2,0.1,0.4,0.2,0.6
		c0,0.1,0.1,0.3,0.1,0.9c0,0.1,0,0.2,0,0.2c0-0.1-0.1-0.2-0.1-0.2c-0.2-0.3-0.4-0.5-0.6-0.8c-0.6-0.5-1.4-0.8-2.3-0.9
		c0,0-0.1,0-0.1,0l-0.1,0c-0.3,0-0.7,0-1,0.1c-0.1-0.2-0.1-0.4-0.2-0.6c-0.3-0.4-0.6-0.8-1.1-1.1c0,0,0,0,0,0
		c-0.5-0.3-1.1-0.4-1.7-0.5c-0.2,0-0.4,0-0.7,0c-0.7,0.1-1.3,0.4-1.9,0.8c-0.1,0.1-0.1,0.1-0.2,0.2c-0.6,0.6-1.2,1.6-1.8,3.1
		c-0.1-0.1-0.2-0.2-0.3-0.3c-0.1-0.1-0.3-0.2-0.4-0.3c0.3-1.1,0-2.3-0.9-3.4c-2.3-3-5.3-4.8-10.1-6.2c-0.5-0.2-1.1-0.5-1.7-0.9
		c0,0,0,0,0,0c-2-1.3-4.2-2.5-6.7-2.5c-0.6,0-1.2,0.1-1.8,0.2c-0.8,0.1-1.4,0.7-1.5,1.4c-0.1,0.8,0.4,1.5,1.2,1.7c0,0,0.1,0,0.1,0
		c0.5,0.1,0.8,0.2,1.1,0.4C14.1,8.8,11.5,11,9.7,14c-1.7,2.7-2.5,6.1-2.6,9.9c0,0.4,0,0.7,0,1.1c0,0.6,0.1,1.7-0.2,1.9
		c-1.8,1.5-2.8,3.7-2.7,6.3c0,0.7,0.5,1.3,1.2,1.4c0.1,0,0.2,0,0.3,0c0.6,0,1.1-0.3,1.3-0.8c0.4-0.8,0.9-1.2,1.7-1.5
		c0.4-0.1,1.4-0.4,2.1-1c0.2,0,0.5,0.1,0.7,0.1c0.6,0,1.2-0.2,1.6-0.4c0.1-0.1,0.2-0.1,0.4-0.2c-0.2,0.4-0.4,0.8-0.6,1.2
		c-1.5,3.2-2.8,6.2-4,8.9c-1.2,2.9-1.9,5-2.3,6.6c-0.2,0.9-0.3,1.5-0.3,2c0,0.1,0,0.1,0,0.2c0,0.1,0,0.3,0.1,0.6
		c0.1,0.6,0.5,1.9,2.4,2.5c0,0,0,0,0,0c0.3,0.1,0.7,0.1,1,0.1c0.1,0,0.1,0,0.2,0c0.2,0,0.4,0,0.7-0.1c0.6-0.1,1.2-0.3,1.7-0.7
		c0.1-0.1,0.2-0.2,0.3-0.3c0.4-0.4,0.6-0.8,0.9-1.5c0.2-0.4,0.3-0.9,0.5-1.5c0.4-1.1,0.8-2.3,1.2-3.5c0.3,0.4,0.7,0.8,1.2,1.1
		c0,0,0,0,0,0c0.6,0.3,1.2,0.4,2,0.5c0.2,0,0.4,0,0.6,0c0.5,0,0.9-0.1,1.3-0.2c0.7-0.2,1.4-0.7,2-1.4c0.4-0.4,0.8-1,1.3-1.8
		c-0.5,2.4-0.6,3.5-0.6,4.2c0,0.1,0,0.2,0,0.2c0,0.6,0.2,1.1,0.4,1.6c0.4,0.7,1.4,1.9,3.7,1.8l0.2,0c0,0,0,0,0.1,0
		c0.4,0,1.7-0.1,2.6-1.1c0.1-0.1,0.2-0.2,0.3-0.3c3.5,2.8,8.2,5,14,4.1c0,0.1,0,0.2,0.1,0.4c0.3,1.1,1.4,1.9,2.5,1.9
		c0.2,0,0.4,0,0.7-0.1c0.1,0,10-2.5,17.6-2.5c0.3,0,0.5,0,0.8,0c8.3,0.2,13.4,2.8,13.5,2.8c0.4,0.2,0.8,0.3,1.2,0.3
		c0.9,0,1.8-0.5,2.3-1.3c0.2-0.4,0.3-0.8,0.4-1.2C84.1,53.2,83.9,51.8,82.9,50.9z"/>
	<g>
		<path class="st4" d="M12.9,13.1c-0.6,0.6-1.2,1.3-1.6,2.1c-0.1,0.2-0.4,0-0.2-0.2c0.5-0.8,0.9-1.5,1.5-2.1
			C12.9,12.6,13,12.9,12.9,13.1z"/>
		<path class="st4" d="M38.3,19L38.3,19c-0.2-0.2-0.6-0.2-0.8,0c-0.4,0.3-1-0.1-1.4-0.3c-0.8-0.4-1.5-0.7-2.2-1.2
			c-0.1-0.1-0.2-0.1-0.3-0.2c-0.1,0-0.2-0.1-0.3-0.1c-0.5-0.3-1.1-0.4-1.7-0.6c-0.1,0-0.2-0.1-0.2-0.1c0-0.1,0-0.1,0-0.1
			c0,0,0,0,0,0c0.3-0.2,0.6-0.2,0.9-0.2c0,0,0.1,0,0.1,0c0,0,0-0.1,0-0.1c0,0,0,0,0,0c0,0,0,0,0,0v0c-0.4-0.3-0.8-0.6-1.2-0.7
			c-0.1,0-0.2-0.1-0.2-0.1c-0.1,0-0.2,0-0.2-0.1c0,0-0.1,0-0.1,0c-0.4-0.1-0.6-0.3-0.8-0.5c-0.2-0.1-0.5-0.3-0.7-0.4
			C29,14.1,28.8,14,28.7,14c-1.8-0.6-4.2-0.8-6.6-1.1c-0.1,0-0.1,0-0.1-0.1c0-0.1-0.1-0.1,0-0.2c0,0,0,0,0.1,0c0,0,0,0,0,0
			c1.1,0.1,2.2,0.1,3.4,0.3c0.1,0,0.2,0,0.3-0.1c0.1-0.1,0.1-0.2-0.1-0.3c-0.1-0.1-0.2-0.1-0.3-0.2c-0.6-0.3-1.3-0.5-2-0.6
			c-3.7-0.7-8,0.5-10.8,3.3c-0.3,0.3-0.6,0.7-0.9,1c-0.1,0.1-0.1,0.2,0,0.2c0,0,0.1,0,0.2,0c1.5-1.2,3-2.1,4.6-2.5
			c0.1,0,0.3-0.1,0.5-0.1c0.7-0.2,1.4-0.3,2.1-0.3c0.1,0,0.1,0,0.1,0.1c0,0,0,0,0,0.1c0,0-0.1,0.1-0.2,0.1c-0.3,0.1-0.5,0.1-0.8,0.2
			s-0.5,0.1-0.8,0.2c-1.8,0.5-3.4,1.3-4.7,2.6c-0.1,0.1-0.2,0.2-0.3,0.3c-0.2,0.2-0.4,0.4-0.5,0.6c0,0,0,0,0,0
			c-0.1,0.1-0.2,0.2-0.2,0.3v0c-0.1,0.1-0.2,0.2-0.2,0.4c0,0,0,0,0,0c-0.1,0.1-0.1,0.3-0.2,0.4c0,0,0,0,0,0
			c-0.1,0.2-0.2,0.4-0.3,0.6c-0.4,0.9-0.7,2-0.9,3.3c0,0.2,0.1,0.3,0.2,0.4c0,0,0,0,0.1,0c0.1,0,0.2,0,0.3,0c0,0,0.1-0.1,0.1-0.2
			c0-0.1,0.1-0.2,0.2-0.3c0-0.1,0.1-0.2,0.2-0.3c0.1-0.2,0.2-0.3,0.3-0.5c0.1-0.1,0.1-0.2,0.2-0.4c0.2-0.4,0.5-0.8,0.7-1.1
			c0,0,0,0,0,0c0.1-0.1,0.2-0.2,0.3-0.3c0-0.1,0.1-0.1,0.1-0.2l0-0.1c0.2-0.2,0.4-0.5,0.6-0.7c1.6-1.6,3.8-2.6,6.3-2.5
			c0.1,0,0.2,0,0.3,0l0.6,0l0.6-0.5c0.8-0.5,2-0.4,3.4,0.4v0h0c-0.1,0.1-0.1,0.2-0.2,0.3c-0.4,0.5-0.8,1-1.3,1.5
			c-0.2,0.2-0.4,0.4-0.6,0.5v0c-0.1,0.1-0.1,0.2,0,0.2c0,0,0.1,0,0.2,0c0.6-0.4,1.1-1,1.7-1.5c0.1-0.1,0.2-0.2,0.3-0.3
			c0.1-0.1,0.2-0.2,0.3-0.3v0c0.1,0,0.1,0,0.1,0c0,0,0,0,0,0c0,0,0,0.1,0,0.1l-0.5,0.4l1.3,0.3c1.3,0.3,2.7,0.4,4,0.5
			c1.9,0,3.9,0.1,5.5,1.1c0.3,0.2,0.6,0.4,1,0.5c0.6,0.2,1.2,0.2,1.8,0.1c0.2,0,0.3,0,0.3-0.1C38.5,19.4,38.4,19.1,38.3,19z
			 M30.9,15.3c-0.4,0.1-0.9,0.2-1.1,0.1c0,0-0.1,0-0.1-0.1c0,0-0.1-0.1-0.1-0.1c0-0.1,0-0.1,0.1-0.2c0,0,0,0,0,0
			c0.2-0.2,0.7,0,1.1,0.2c0,0,0,0,0,0c0,0,0,0,0,0C30.9,15.2,30.9,15.3,30.9,15.3z"/>
	</g>
	<g>
		<path class="st5" d="M34.5,26.3c0.5-1.8,0.9-3,1.1-3.7c0.2-0.9,0.3-1.2,0.3-1.4l0,0c0-0.6-0.3-1.2-1.6-1.3c-0.1,0-0.3,0-0.5,0l0,0
			l-0.1,0c-0.2,0-0.4,0-0.6,0.1c-0.2,0.1-0.5,0.3-0.9,0.7c-0.3,0.4-0.8,1-1.5,1.8c-1.6,2.1-3.1,4.1-4.4,6c-1.3,1.9-2.9,4.6-4.9,8
			c-0.1,0.2-0.2,0.4-0.3,0.6c0-0.2,0.1-0.3,0.1-0.5c0.2-1.1,0.5-2.5,0.8-4c0.3-1.6,0.6-3,0.9-4.3c0.3-1.4,0.5-2.6,0.7-3.4
			c0.2-0.8,0.2-1.4,0.3-1.8l0,0l0,0l0-0.2c0-0.4-0.1-0.6-0.2-0.8c-0.1-0.2-0.4-0.3-0.7-0.4c-0.3-0.1-0.6-0.1-0.9-0.1l0,0l-0.1,0
			c-0.2,0-0.5,0.1-0.8,0.2c-0.4,0.1-0.7,0.4-1.1,0.8c-0.2,0.3-0.6,1-1.3,2.3c-0.7,1.3-1.4,2.6-2.2,4.1c-0.8,1.5-1.4,2.7-1.8,3.6
			c-1.5,3.1-2.8,6.1-3.9,8.8C9.8,44,9,46.1,8.7,47.6c-0.2,0.7-0.2,1.1-0.2,1.5l0,0l0,0.1c0,0,0,0.2,0,0.3C8.5,49.8,9,50,9.2,50
			c0.1,0,0.3,0.1,0.4,0.1l0.1,0c0.1,0,0.3,0,0.5-0.1c0.2,0,0.4-0.1,0.6-0.3c0.1-0.1,0.2-0.2,0.4-0.7c0.1-0.4,0.3-0.8,0.5-1.3
			c1.3-3.8,2.9-7.8,4.7-11.8c0.3-0.7,0.7-1.4,1.1-2.3c0.3-0.7,0.6-1.3,0.9-1.9c-0.4,2.1-0.8,4.1-1.1,5.8c-0.3,2-0.5,3.4-0.6,4.4
			c0,0.3,0,0.5,0,0.7l0,0.2c0,0.2,0,0.4,0.1,0.6c0.1,0.3,0.3,0.5,0.6,0.6c0.3,0.1,0.6,0.2,1.1,0.2l0.3,0l0.1,0
			c0.3,0,0.5-0.1,0.7-0.1c0.3-0.1,0.6-0.3,1-0.7c0.3-0.4,0.8-1,1.3-1.9c0.5-0.9,1.3-2.2,2.2-3.9c0.4-0.7,0.9-1.5,1.3-2.3
			c0.5-0.8,0.9-1.5,1.2-2.1c0.6-0.9,1.2-1.9,1.8-2.9c0.5-0.7,0.9-1.4,1.3-1.9c-0.1,0.3-0.2,0.7-0.3,1.1c-0.7,2.3-1.6,5.4-2.4,9.1
			c-1.1,4.7-1.7,7.6-1.7,8.8v0l0,0l0,0.1c0,0.2,0.1,0.4,0.1,0.5c0.2,0.4,0.7,0.7,1.5,0.7l0.2,0l0.2,0c0.5,0,0.9-0.2,1.1-0.4
			c0.2-0.2,0.3-0.6,0.3-1.1c0.1-0.8,0.5-2.5,1.2-5.1c0.7-2.7,1.5-5.4,2.3-8.1C33.2,30.6,34,28.1,34.5,26.3z"/>
		<path class="st5" d="M44.2,38.9c0.4-1.2,0.8-2.3,1.2-3.3c0.2-0.6,0.4-1,0.5-1.4c0.2-0.5,0.2-0.6,0.2-0.7l0-0.1
			c-0.1-0.5-0.6-0.8-1.6-0.8l-0.2,0c-0.3,0-0.5,0-0.7,0c-0.2,0-0.3,0.1-0.5,0.1c-0.1,0.1-0.2,0.1-0.3,0.2l-0.2,0.2l-0.2-0.1
			c-0.7-0.5-1.7-0.7-3-0.8l-0.2,0c-0.1,0-0.3,0-0.4,0c-0.4,0-0.8,0.1-1.1,0.1c-0.5,0.1-1,0.4-1.5,0.7c-0.3,0.2-0.6,0.4-0.9,0.7
			c-0.3,0.3-0.6,0.6-1,1.2c-0.8,1-1.5,2.2-1.9,3.5c-0.2,0.6-0.4,1.2-0.4,1.6c-0.1,0.5-0.1,0.8-0.1,1.1c0,0.4,0.1,0.8,0.2,1.2
			c0.3,0.7,0.7,1.2,1.3,1.5c0.5,0.3,1,0.4,1.5,0.4l0.1,0l0.2,0c0.2,0,0.3,0,0.5-0.1c1-0.3,2.1-1,3.3-2.1c0.2-0.2,0.5-0.4,0.7-0.6
			c0.1-0.1,0.2-0.2,0.3-0.3l0,0.8c0,0.5,0,0.9,0.1,1.2c0,0.3,0.1,0.5,0.2,0.6c0.2,0.4,0.7,0.7,1.2,0.9c0.2,0,0.3,0.1,0.5,0.1l0.1,0
			c0.2,0,0.4,0,0.6-0.1c0.4-0.1,0.7-0.3,0.9-0.6l0.2-0.3l0-0.3l-0.2-0.3c-0.1-0.1-0.2-0.3-0.2-0.6c0-0.3,0-0.6,0.1-1
			C43.6,41,43.8,40.1,44.2,38.9z M40.7,35.5l0.2,0.4l-0.5,0.6c-0.6,0.7-1.2,1.5-1.9,2.4c-0.7,0.8-1.4,1.5-1.8,1.9l-0.1,0.1
			c-0.4,0.4-0.7,0.6-0.8,0.7l0,0l0,0c0-0.8,0.2-1.7,0.5-2.8c0.4-1.1,0.9-2.1,1.6-3c0.6-0.9,1.2-1.4,1.7-1.4h0
			C40,34.4,40.4,34.8,40.7,35.5z M39.6,34.2L39.6,34.2L39.6,34.2L39.6,34.2z"/>
		<path class="st5" d="M56,35.4L56,35.4L56,35.4L56,35.4c0-0.1,0-0.2-0.1-0.3l0,0c0,0,0-0.1-0.1-0.4c0-0.3-0.1-0.6-0.1-0.9l0-0.2
			c0-0.7-0.1-1.2-0.3-1.5c-0.2-0.3-0.5-0.6-0.9-0.7c-0.3-0.1-0.6-0.2-0.8-0.2l0,0l-0.1,0c-0.3,0-0.6,0.1-0.9,0.2
			c-0.9,0.3-1.7,0.9-2.5,2c0.1-0.4,0.2-0.7,0.2-1c0.1-0.3,0.1-0.5,0.1-0.5v0v0l0,0l0-0.1c-0.1-0.3-0.5-0.5-1.2-0.5l-0.2,0
			c-0.4,0-0.7,0.1-1,0.3c-0.3,0.2-0.5,0.5-0.7,1c-0.2,0.5-0.5,1.2-0.8,2.2c-0.8,2.5-1.3,4.5-1.3,5.9l0,0.3l0,0.3
			c0,0.4,0.1,0.8,0.2,1c0.1,0.2,0.4,0.4,0.7,0.5c0.2,0.1,0.4,0.1,0.6,0.1l0.1,0c0.2,0,0.4,0,0.6-0.1c0.3-0.1,0.6-0.3,0.8-0.6
			c0.1-0.1,0.2-0.3,0.6-1c0.3-0.6,0.6-1.2,1-1.9c0.4-0.7,0.7-1.4,1-2.1c0.3-0.6,0.5-1,0.7-1.3c0.2-0.3,0.4-0.6,0.6-0.9
			c0.2-0.3,0.5-0.6,0.7-0.9l0.1-0.1c0,0.1,0.1,0.3,0.1,0.5c0.1,0.7,0.3,1.2,0.6,1.5c0.2,0.2,0.5,0.3,0.9,0.3l0.1,0
			c0.1,0,0.2,0,0.3,0C55.7,36,56,35.8,56,35.4z"/>
		<path class="st5" d="M64.6,33.2c0.1-0.3,0.2-0.5,0.3-0.7c0.1-0.2,0.2-0.4,0.2-0.5c0.1-0.2,0.2-0.4,0.2-0.6v0v0v0v0l0,0
			c0-0.2-0.1-0.5-0.5-0.6c-0.2-0.1-0.5-0.1-0.7-0.1l0,0l-0.1,0c-0.2,0-0.4,0.1-0.6,0.2c0,0-0.1,0.1-0.5,0.1c-0.3,0-0.5,0.1-0.8,0.1
			c-1.8,0.1-2.9,0.7-3.4,1.9c-0.2,0.4-0.3,0.9-0.3,1.4v0l0,0l0,0.1c0,0.5,0.1,1.2,0.3,2.1c0.3,1.4,0.4,2.4,0.5,3.1l0,0.2
			c0,0.2,0,0.4,0,0.5c0,0.1-0.1,0.2-0.1,0.3c-0.1,0.1-0.2,0.3-0.2,0.4c-0.1,0.2-0.3,0.2-0.3,0.2l-0.1,0l-0.1,0c0,0-0.1,0-0.3-0.3
			c-0.1-0.1-0.2-0.4-0.3-0.7l0-0.2l0-0.1l0,0l0,0c0-0.2,0-0.4,0.1-0.6c0.1-0.2,0.1-0.3,0.1-0.4l0-0.1v0v0v0v0l0,0l0-0.2
			c0-0.1-0.1-0.1-0.2-0.2c-0.2-0.2-0.5-0.3-0.8-0.3l0,0l-0.1,0c-0.1,0-0.3,0-0.5,0.1c-0.3,0-0.6,0.2-0.9,0.6
			c-0.3,0.3-0.4,0.8-0.4,1.2l0,0.2v0l0,0.2c0,0.3,0,0.6,0.1,0.8c0.1,0.3,0.2,0.5,0.4,0.7c0.2,0.2,0.3,0.3,0.5,0.4
			c0.3,0.2,0.7,0.4,1.1,0.6l0,0l0,0c0.4,0.1,0.8,0.2,1.3,0.2l0.2,0c0.6,0,1.3-0.2,1.9-0.4c0.8-0.4,1.3-1,1.6-1.8
			c0.1-0.3,0.2-0.8,0.2-1.2v0c0-0.1,0-0.2,0-0.3c0-0.7-0.2-1.6-0.4-2.7c-0.2-0.8-0.3-1.5-0.3-2.1l0-0.2c0-0.8,0.2-1.3,0.5-1.6
			c0.1,0,0.1-0.1,0.2-0.1l0,0c0,0.2-0.1,0.4-0.2,0.6c-0.1,0.4-0.2,0.7-0.2,0.9v0l0,0c0,0.1,0,0.2,0,0.3c0.1,0.3,0.5,0.4,0.7,0.4
			c0.1,0,0.2,0,0.3,0l0.1,0c0.4,0,0.8-0.2,1-0.5c0.1-0.1,0.2-0.3,0.3-0.5C64.4,33.7,64.5,33.4,64.6,33.2z"/>
		<path class="st5" d="M76.9,31.3l-0.2,0c-0.3,0-0.5,0-0.7,0c-0.2,0-0.3,0.1-0.5,0.1c-0.1,0.1-0.2,0.1-0.3,0.2l-0.2,0.2l-0.2-0.1
			c-0.7-0.5-1.7-0.7-3-0.8l-0.2,0c-0.1,0-0.3,0-0.4,0c-0.4,0-0.8,0.1-1.1,0.1c-0.5,0.1-1,0.4-1.5,0.7c-0.3,0.2-0.6,0.4-0.9,0.7
			c-0.3,0.3-0.6,0.6-1,1.2c-0.8,1-1.5,2.2-1.9,3.5c-0.2,0.6-0.4,1.2-0.4,1.6c-0.1,0.5-0.1,0.8-0.1,1.1c0,0.4,0.1,0.8,0.2,1.2
			c0.3,0.7,0.7,1.2,1.3,1.5c0.5,0.3,1,0.4,1.5,0.4l0.1,0l0.2,0c0.2,0,0.3,0,0.5-0.1c1-0.3,2.1-1,3.3-2.1c0.2-0.2,0.5-0.4,0.7-0.6
			c0.1-0.1,0.2-0.2,0.3-0.3l0,0.8c0,0.5,0,0.9,0.1,1.2c0,0.3,0.1,0.5,0.2,0.6c0.2,0.4,0.7,0.7,1.2,0.9c0.2,0,0.3,0.1,0.5,0.1l0.1,0
			c0.2,0,0.4,0,0.6-0.1c0.4-0.1,0.7-0.3,0.9-0.6l0.2-0.3l0-0.3l-0.2-0.3c-0.1-0.1-0.2-0.3-0.2-0.6c0-0.3,0-0.6,0.1-1
			c0.1-0.6,0.4-1.5,0.8-2.7c0.4-1.2,0.8-2.3,1.2-3.3c0.2-0.6,0.4-1,0.5-1.4c0.2-0.5,0.2-0.6,0.2-0.7l0-0.1
			C78.4,31.6,77.8,31.3,76.9,31.3z M73.1,34.2l0.2,0.4l-0.5,0.6c-0.6,0.7-1.2,1.5-1.9,2.4c-0.7,0.8-1.4,1.5-1.8,1.9L69,39.6
			c-0.4,0.4-0.7,0.6-0.8,0.7l0,0l0,0c0-0.8,0.2-1.7,0.5-2.8c0.4-1.1,0.9-2.1,1.6-3c0.6-0.9,1.2-1.4,1.7-1.4h0
			C72.4,33.2,72.7,33.5,73.1,34.2z M71.9,32.9L71.9,32.9L71.9,32.9L71.9,32.9z"/>
		<path class="st5" d="M39.2,31.2L39.2,31.2l0.3,0h0c0.7,0,1.3-0.4,2-1.2c0.6-0.7,1.5-2,2.6-4c0,0.3-0.1,0.5-0.1,0.8
			c-0.1,0.5-0.1,0.9-0.1,1.2c0,0.4,0,0.8,0.1,1.2c0.1,0.4,0.3,0.8,0.7,1.2c0.2,0.2,0.4,0.4,0.5,0.5c0.1,0.1,0.3,0.2,0.5,0.3
			c0.2,0.1,0.5,0.1,0.9,0.1l0.1,0c0.1,0,0.2,0,0.4,0c0.3,0,0.6-0.1,0.9-0.2c1.2-0.4,2.5-1.8,4-4.3c0.6-1,1.2-2.2,1.8-3.5
			c0.6-1.3,1-2.4,1.2-3.3c0.2-0.8,0.4-1.7,0.5-2.5c0.1-0.5,0.1-0.9,0.1-1.3c0-0.3,0-0.6,0-0.8c-0.1-1-0.5-1.7-1-2
			c-0.2-0.1-0.5-0.2-0.8-0.2l-0.2,0l-0.1,0c-0.2,0-0.4,0-0.6,0.1c-0.2,0.1-0.3,0.1-0.3,0.2l0,0.2c0,0.1,0,0.1,0,0.2
			c0,0.1,0,0.2,0.1,0.3c0,0.1,0.1,0.2,0.1,0.3c0.2,0.4,0.3,1,0.3,1.7c0,0.1,0,0.3,0,0.5c0,0.5-0.1,1.1-0.2,1.7
			c-0.3,1.5-0.9,3.1-1.8,4.9c-0.8,1.8-1.8,3.4-2.8,4.7c-0.2,0.2-0.4,0.5-0.6,0.7c-0.2,0.2-0.4,0.4-0.5,0.6L47,29.5l0,0
			c-0.1-0.2-0.1-0.6-0.1-1.1c0-0.5,0.1-1.4,0.2-2.7c0.2-1.2,0.5-2.9,0.9-5c0.1-0.5,0.2-1,0.3-1.5c0.1-0.5,0.1-0.8,0.2-0.9
			c0-0.2,0-0.3,0-0.4c0-0.1,0-0.2-0.1-0.3l-0.2-0.2c-0.2-0.2-0.5-0.3-1-0.4l-0.1,0l-0.1,0c-0.3,0-0.6,0.1-0.8,0.2
			c-0.1,0.1-0.3,0.2-0.6,0.9c-0.2,0.4-0.6,1.1-1.1,2.1c-0.5,1-1,1.9-1.4,2.8c-0.5,0.9-0.8,1.5-0.9,1.7c-0.2,0.3-0.4,0.7-0.7,1.2
			c-0.3,0.5-0.6,0.9-0.8,1.3l-0.1,0.1c0.1-0.3,0.1-0.6,0.2-0.9c0.2-0.8,0.4-1.6,0.6-2.5c0.4-1.5,1.1-3.5,1.9-6
			c0.2-0.5,0.3-1,0.4-1.4c0.2-0.5,0.2-0.7,0.2-0.8l0-0.1c0-0.1,0-0.2-0.1-0.3c0-0.1-0.1-0.2-0.3-0.2c-0.2-0.1-0.4-0.2-0.7-0.2l0,0
			c-0.1,0-0.2,0-0.4,0c-0.2,0-0.5,0.1-0.7,0.3c-0.5,0.5-1.1,1.6-1.7,3.2c-0.6,1.6-1.2,3.4-1.8,5.3c-0.5,1.9-0.9,3.5-1,4.7
			c0,0.1,0,0.2,0,0.3c0,0.8,0.1,1.3,0.4,1.6C38.2,31,38.6,31.2,39.2,31.2z"/>
		<path class="st5" d="M54.9,22.4c-0.6,0.6-1,1.4-1.4,2.2c-0.2,0.4-0.3,0.7-0.3,1c-0.1,0.3-0.1,0.5-0.1,0.7c0,0.3,0,0.5,0.1,0.8
			c0.2,0.5,0.4,0.8,0.8,1.1c0.3,0.2,0.7,0.3,1.1,0.3l0.1,0l0,0c0.1,0,0.2,0,0.3,0c0.7-0.2,1.4-0.6,2.2-1.2c0.2-0.1,0.3-0.3,0.5-0.4
			l0,0l0,0.3c0,0.3,0,0.6,0,0.8c0,0.2,0,0.3,0.1,0.4c0.2,0.3,0.4,0.5,0.8,0.7c0.1,0,0.3,0.1,0.4,0.1l0,0c0.2,0,0.3,0,0.4,0
			c0.3-0.1,0.5-0.2,0.7-0.3l0.2-0.2c0.1-0.1,0.1-0.2,0-0.3l-0.1-0.2c0,0-0.1-0.1-0.1-0.4c0-0.2,0-0.4,0.1-0.6
			c0.1-0.4,0.3-0.9,0.6-1.7c0.3-0.7,0.6-1.4,0.9-2.1c0.2-0.4,0.3-0.7,0.4-0.9c0.1-0.3,0.1-0.4,0.2-0.5l0-0.1
			c-0.1-0.6-0.9-0.6-1.2-0.6l-0.2,0l-0.2,0c-0.1,0-0.2,0-0.3,0.1l-0.2,0.1l-0.1,0.1l-0.1-0.1c-0.4-0.4-1.1-0.6-1.9-0.6
			c-0.1,0-0.3,0-0.4,0l-0.1,0c-0.2,0-0.4,0-0.6,0.1c-0.3,0.1-0.7,0.2-1,0.4c-0.2,0.1-0.4,0.2-0.6,0.4C55.4,21.8,55.2,22.1,54.9,22.4
			z M56.2,26.3L56.2,26.3c-0.2,0-0.4,0.2-0.5,0.2c0-0.5,0.2-1,0.4-1.6c0.3-0.7,0.7-1.3,1.1-1.8c0.5-0.6,0.9-0.8,1-0.8
			c0.2,0,0.5,0.2,0.6,0.7l0.1,0.2l-0.3,0.3c-0.4,0.4-0.8,0.9-1.3,1.4c-0.5,0.5-0.9,0.9-1.3,1.2L56.2,26.3
			C56.2,26.3,56.2,26.3,56.2,26.3C56.2,26.3,56.2,26.3,56.2,26.3z"/>
		<path class="st5" d="M61.7,26.3c0,0.1,0,0.2,0,0.3l0,0.2c0,0.1,0,0.3,0.1,0.3c0,0.1,0.1,0.1,0.2,0.2c0.1,0.1,0.2,0.2,0.3,0.3
			c0.1,0.1,0.2,0.1,0.3,0.2c0.2,0.1,0.4,0.1,0.6,0.1l0.1,0c0.9,0,1.8-0.6,2.9-1.7c0.7-0.8,1.4-1.7,1.9-2.7c0.5-0.8,0.7-1.4,0.7-1.9
			l0,0l0,0v0c0-0.5-0.3-0.7-0.8-0.8l-0.1,0l0,0l0,0c-0.2,0-0.4,0.1-0.6,0.2c-0.1,0.1-0.3,0.4-0.4,0.8c-0.2,0.4-0.3,0.8-0.5,1.1
			c-0.2,0.3-0.4,0.7-0.8,1.2c-0.2,0.2-0.4,0.5-0.7,0.9c-0.2,0.2-0.4,0.4-0.6,0.6c0.1-0.2,0.1-0.5,0.2-0.8c0.1-0.4,0.2-0.9,0.3-1.3
			c0.1-0.4,0.2-0.8,0.3-1c0.1-0.4,0.2-0.8,0.2-1h0l0,0c0-0.3-0.1-0.5-0.3-0.6c-0.2-0.1-0.4-0.2-0.7-0.2l-0.1,0l0,0
			c-0.3,0-0.5,0.1-0.7,0.2c-0.2,0.1-0.4,0.4-0.7,1.3c-0.3,0.7-0.5,1.4-0.7,2.2C61.9,25.2,61.8,25.8,61.7,26.3z"/>
		<path class="st5" d="M80.6,21.6c0-0.1,0-0.4-0.4-0.5c-0.2-0.1-0.3-0.1-0.5-0.1l0,0l0,0c-0.1,0-0.3,0-0.4,0.1c0,0-0.1,0-0.3,0
			c-0.1,0-0.2,0-0.4,0l-0.2,0l-0.1,0c-1.1,0-1.9,0.4-2.3,1.1c-0.1,0.3-0.2,0.6-0.3,0.9l0,0.1l0,0.1l0,0v0c0,0.3,0,0.7,0.1,1.3
			c0.1,0.8,0.2,1.4,0.2,1.9l0,0.1c0,0.2,0,0.3,0,0.5c0,0,0,0.1-0.1,0.2l-0.2,0.2c-0.1,0.1-0.1,0.1-0.1,0.1l-0.1,0
			c0,0-0.1-0.1-0.2-0.1c-0.1-0.1-0.1-0.2-0.1-0.4l0-0.1v0v0v0v0v0c0-0.2,0-0.3,0.1-0.4c0-0.1,0.1-0.2,0.1-0.3l0-0.1h0l0,0l0-0.1
			l-0.2-0.2c-0.2-0.1-0.4-0.2-0.6-0.2l0,0l0,0c-0.1,0-0.2,0-0.3,0c-0.2,0-0.4,0.1-0.6,0.3c-0.1,0.1-0.2,0.3-0.3,0.4
			c0,0-0.1-0.1-0.2-0.1c-0.1,0-0.3-0.1-0.4-0.1h0c-0.3,0-0.7,0.1-1,0.3l-0.4,0.3c-0.2,0.1-0.3,0.2-0.4,0.3c-0.1,0.1-0.2,0.1-0.4,0.2
			c-0.1,0.1-0.3,0.1-0.4,0.2c-0.1,0-0.2,0.1-0.3,0.1l0,0l0,0c-0.1-0.1-0.2-0.2-0.2-0.3c0-0.1,0-0.3,0-0.4l0-0.2c0-0.2,0-0.3,0.1-0.5
			c0-0.2,0.1-0.3,0.1-0.3l0-0.1l0,0l0.1,0c0.3,0,0.6-0.1,1-0.2c0.4-0.1,0.7-0.2,1-0.4c0.3-0.2,0.6-0.4,0.9-0.7
			c0.3-0.3,0.5-0.6,0.6-0.9c0.1-0.3,0.2-0.6,0.2-1l0-0.1c0-0.3,0-0.5-0.1-0.7c-0.1-0.2-0.3-0.4-0.5-0.5c-0.2-0.1-0.6-0.2-1-0.2
			l-0.1,0c-0.4,0-0.7,0-1,0.1c-0.7,0.2-1.3,0.8-2,1.5c-0.6,0.8-1.1,1.6-1.5,2.5c-0.1,0.3-0.2,0.6-0.2,0.8c0,0.2-0.1,0.4-0.1,0.5
			c0,0.2,0,0.5,0.1,0.7c0.2,0.7,0.6,1.1,1.2,1.3c0.4,0.2,0.8,0.2,1.2,0.2l0.1,0c0.3,0,0.7,0,1-0.1c0.4-0.1,0.8-0.3,1.2-0.5
			c0.4-0.2,0.8-0.5,1.1-0.8c0,0.1,0,0.2,0,0.3c0,0.2,0.1,0.3,0.2,0.5c0.1,0.1,0.2,0.2,0.3,0.3c0.2,0.2,0.5,0.3,0.7,0.4l0,0l0,0
			c0.3,0.1,0.6,0.2,1,0.2l0.1,0c0.4,0,0.8-0.1,1.2-0.2c0.5-0.2,0.9-0.6,1.2-1.2c0.1-0.3,0.2-0.6,0.2-1l0-0.1l0,0v0v0
			c0-0.4,0-1-0.1-1.6C78.1,24.4,78,24,78,23.6l0-0.1c0-0.5,0.1-0.9,0.3-1.1l0,0.1c-0.1,0.3-0.2,0.5-0.2,0.7h0l0,0l0,0.2
			c0,0.3,0.4,0.3,0.5,0.4c0.1,0,0.2,0,0.3,0h0c0.3,0,0.6-0.1,0.7-0.3c0.1-0.1,0.1-0.2,0.2-0.3c0.1-0.1,0.2-0.3,0.2-0.5
			c0.1-0.2,0.1-0.3,0.2-0.5c0.1-0.1,0.1-0.2,0.2-0.3C80.5,21.8,80.6,21.7,80.6,21.6L80.6,21.6L80.6,21.6z M70.7,24.2
			c0.2-0.3,0.5-0.7,0.7-1c0.2-0.3,0.4-0.5,0.6-0.6c0,0.2-0.1,0.5-0.3,0.8C71.5,23.6,71.2,24,70.7,24.2z"/>
	</g>
	<g>
		<path class="st6" d="M34.4,20.1c-0.2,0-0.4,0-0.5,0c-0.2,0-0.3,0-0.5,0.1c-0.2,0.1-0.5,0.3-0.8,0.7c-0.3,0.4-0.8,1-1.5,1.8
			c-1.6,2.1-3.1,4-4.4,6c-0.7,1-1.4,2.2-2.2,3.6c-0.8,1.3-1.7,2.8-2.6,4.4c-0.3,0.5-0.5,0.9-0.7,1.2c-0.2,0.3-0.3,0.5-0.3,0.5
			c0-0.1,0.1-0.7,0.3-1.8c0.2-1.1,0.5-2.5,0.8-4c0,0,0,0,0,0c0.3-1.6,0.6-3,0.9-4.3c0-0.1,0.1-0.2,0.1-0.4c0.3-1.3,0.5-2.3,0.6-3
			c0.2-0.8,0.2-1.4,0.3-1.8l0-0.2c0-0.3-0.1-0.5-0.2-0.7c-0.1-0.1-0.2-0.2-0.4-0.2c-0.1,0-0.1,0-0.2-0.1c-0.3-0.1-0.6-0.1-0.9-0.1
			c-0.2,0-0.4,0.1-0.8,0.1c-0.3,0.1-0.6,0.3-0.9,0.7c-0.2,0.3-0.6,1-1.3,2.3c-0.7,1.3-1.4,2.6-2.2,4.1c-0.8,1.5-1.4,2.7-1.8,3.6
			c-0.4,0.9-0.8,1.7-1.2,2.5c-1,2.2-1.9,4.3-2.7,6.3C10.1,44,9.4,46.1,9,47.5c-0.2,0.7-0.3,1.2-0.2,1.4c0,0,0,0.1,0,0.3
			c0,0.2,0.2,0.3,0.5,0.4c0.1,0,0.1,0,0.2,0c0.1,0,0.1,0,0.2,0c0,0,0.1,0,0.1,0c0.1,0,0.2,0,0.3,0c0.2,0,0.4-0.1,0.5-0.2
			c0.1-0.1,0.2-0.3,0.3-0.6c0.1-0.4,0.3-0.8,0.5-1.3c1.3-3.8,2.9-7.8,4.7-11.8c0.3-0.6,0.6-1.2,0.9-1.9c0.1-0.1,0.1-0.3,0.2-0.4
			c0.4-0.9,0.8-1.7,1.2-2.4c0.3-0.7,0.5-1,0.6-1v0c0,0,0,0.1,0,0.3c0,0,0,0.1,0,0.1c0,0.1-0.1,0.3-0.1,0.5c0,0.1,0,0.1,0,0.2
			c-0.2,0.8-0.3,1.6-0.5,2.4c-0.3,1.5-0.5,2.8-0.7,4.1c-0.3,2-0.5,3.4-0.6,4.3c0,0.3,0,0.6,0,0.9c0,0.2,0,0.4,0.1,0.6
			c0.1,0.2,0.2,0.3,0.4,0.5c0.2,0.1,0.6,0.2,1,0.2c0.1,0,0.3,0,0.4,0c0.3,0,0.5,0,0.7-0.1c0.3-0.1,0.5-0.3,0.9-0.7
			c0.3-0.4,0.7-1,1.3-1.9c0.5-0.9,1.3-2.2,2.2-3.9c0.4-0.7,0.9-1.5,1.3-2.3c0.5-0.8,0.9-1.5,1.2-2.1c0.1-0.2,0.3-0.5,0.4-0.7
			c0.4-0.7,0.9-1.4,1.3-2.1c0.6-1,1.1-1.7,1.5-2.3c0.4-0.5,0.5-0.8,0.6-0.8l0,0c0,0.1-0.1,0.3-0.2,0.8c-0.1,0.5-0.3,1-0.5,1.6
			c-0.3,0.9-0.6,1.9-0.9,3.1c-0.5,1.7-1,3.7-1.5,6c-1.2,4.8-1.7,7.8-1.7,8.8c0,0.2,0,0.3,0.1,0.4c0.2,0.4,0.7,0.6,1.4,0.6h0l0.2,0
			c0.1,0,0.1,0,0.2,0c0.3,0,0.6-0.1,0.7-0.3c0.1-0.2,0.2-0.5,0.2-0.9c0.1-0.8,0.5-2.5,1.2-5.2c0.7-2.7,1.5-5.4,2.3-8.1
			c1.1-3.3,1.9-5.8,2.4-7.6c0.6-1.8,0.9-3,1.1-3.7c0.2-0.7,0.3-1.1,0.3-1.3C35.8,20.5,35.3,20.1,34.4,20.1z M34.4,20.1
			c-0.2,0-0.4,0-0.5,0c-0.2,0-0.3,0-0.5,0.1c-0.2,0.1-0.5,0.3-0.8,0.7c-0.3,0.4-0.8,1-1.5,1.8c-1.6,2.1-3.1,4-4.4,6
			c-0.7,1-1.4,2.2-2.2,3.6c-0.8,1.3-1.7,2.8-2.6,4.4c-0.3,0.5-0.5,0.9-0.7,1.2c-0.2,0.3-0.3,0.5-0.3,0.5c0-0.1,0.1-0.7,0.3-1.8
			c0.2-1.1,0.5-2.5,0.8-4c0,0,0,0,0,0c0.3-1.6,0.6-3,0.9-4.3c0-0.1,0.1-0.2,0.1-0.4c0.3-1.3,0.5-2.3,0.6-3c0.2-0.8,0.2-1.4,0.3-1.8
			l0-0.2c0-0.3-0.1-0.5-0.2-0.7c-0.1-0.1-0.2-0.2-0.4-0.2c-0.1,0-0.1,0-0.2-0.1c-0.3-0.1-0.6-0.1-0.9-0.1c-0.2,0-0.4,0.1-0.8,0.1
			c-0.3,0.1-0.6,0.3-0.9,0.7c-0.2,0.3-0.6,1-1.3,2.3c-0.7,1.3-1.4,2.6-2.2,4.1c-0.8,1.5-1.4,2.7-1.8,3.6c-0.4,0.9-0.8,1.7-1.2,2.5
			c-1,2.2-1.9,4.3-2.7,6.3C10.1,44,9.4,46.1,9,47.5c-0.2,0.7-0.3,1.2-0.2,1.4c0,0,0,0.1,0,0.3c0,0.2,0.2,0.3,0.5,0.4
			c0.1,0,0.1,0,0.2,0c0.1,0,0.1,0,0.2,0c0,0,0.1,0,0.1,0c0.1,0,0.2,0,0.3,0c0.2,0,0.4-0.1,0.5-0.2c0.1-0.1,0.2-0.3,0.3-0.6
			c0.1-0.4,0.3-0.8,0.5-1.3c1.3-3.8,2.9-7.8,4.7-11.8c0.3-0.6,0.6-1.2,0.9-1.9c0.1-0.1,0.1-0.3,0.2-0.4c0.4-0.9,0.8-1.7,1.2-2.4
			c0.3-0.7,0.5-1,0.6-1v0c0,0,0,0.1,0,0.3c0,0,0,0.1,0,0.1c0,0.1-0.1,0.3-0.1,0.5c0,0.1,0,0.1,0,0.2c-0.2,0.8-0.3,1.6-0.5,2.4
			c-0.3,1.5-0.5,2.8-0.7,4.1c-0.3,2-0.5,3.4-0.6,4.3c0,0.3,0,0.6,0,0.9c0,0.2,0,0.4,0.1,0.6c0.1,0.2,0.2,0.3,0.4,0.5
			c0.2,0.1,0.6,0.2,1,0.2c0.1,0,0.3,0,0.4,0c0.3,0,0.5,0,0.7-0.1c0.3-0.1,0.5-0.3,0.9-0.7c0.3-0.4,0.7-1,1.3-1.9
			c0.5-0.9,1.3-2.2,2.2-3.9c0.4-0.7,0.9-1.5,1.3-2.3c0.5-0.8,0.9-1.5,1.2-2.1c0.1-0.2,0.3-0.5,0.4-0.7c0.4-0.7,0.9-1.4,1.3-2.1
			c0.6-1,1.1-1.7,1.5-2.3c0.4-0.5,0.5-0.8,0.6-0.8l0,0c0,0.1-0.1,0.3-0.2,0.8c-0.1,0.5-0.3,1-0.5,1.6c-0.3,0.9-0.6,1.9-0.9,3.1
			c-0.5,1.7-1,3.7-1.5,6c-1.2,4.8-1.7,7.8-1.7,8.8c0,0.2,0,0.3,0.1,0.4c0.2,0.4,0.7,0.6,1.4,0.6h0l0.2,0c0.1,0,0.1,0,0.2,0
			c0.3,0,0.6-0.1,0.7-0.3c0.1-0.2,0.2-0.5,0.2-0.9c0.1-0.8,0.5-2.5,1.2-5.2c0.7-2.7,1.5-5.4,2.3-8.1c1.1-3.3,1.9-5.8,2.4-7.6
			c0.6-1.8,0.9-3,1.1-3.7c0.2-0.7,0.3-1.1,0.3-1.3C35.8,20.5,35.3,20.1,34.4,20.1z"/>
		<path class="st6" d="M46,33.3c-0.1-0.4-0.6-0.6-1.6-0.6c-0.3,0-0.5,0-0.6,0c-0.1,0-0.3,0.1-0.4,0.1c-0.1,0.1-0.2,0.1-0.3,0.2
			l-0.4,0.3l-0.4-0.3c-0.6-0.5-1.6-0.7-2.8-0.7c-0.2,0-0.4,0-0.6,0c-0.4,0-0.7,0.1-1,0.1c-0.4,0.1-0.9,0.3-1.4,0.7
			c-0.3,0.2-0.6,0.4-0.9,0.6c-0.3,0.2-0.6,0.6-1,1.1c0,0,0,0,0,0c-0.8,1-1.4,2.1-1.8,3.4c-0.2,0.6-0.3,1.1-0.4,1.6
			c-0.1,0.5-0.1,0.8-0.1,1.1c0,0.4,0.1,0.8,0.2,1.2c0.3,0.6,0.6,1.1,1.1,1.3c0.5,0.3,1,0.4,1.5,0.4l0.2,0c0.1,0,0.3,0,0.4-0.1
			c1-0.3,2.1-1,3.2-2c0.2-0.2,0.5-0.4,0.7-0.6c0.2-0.2,0.3-0.3,0.4-0.4l0.3-0.3l0,1.3c0,0.5,0,0.9,0.1,1.1c0,0.2,0.1,0.4,0.1,0.5
			c0.2,0.4,0.6,0.6,1.1,0.8c0.2,0,0.4,0,0.5,0c0.2,0,0.4,0,0.5-0.1c0.4-0.1,0.6-0.3,0.8-0.5l0.2-0.3l-0.2-0.3
			c-0.1-0.2-0.2-0.4-0.2-0.8c0-0.3,0-0.6,0.1-1.1c0.1-0.6,0.4-1.5,0.8-2.7c0.2-0.5,0.3-1,0.5-1.5c0.2-0.6,0.5-1.3,0.7-1.8
			c0.2-0.6,0.4-1,0.5-1.4C45.9,33.6,46,33.4,46,33.3L46,33.3z M38.8,38.9c-0.7,0.8-1.4,1.5-1.9,2c0,0,0,0.1-0.1,0.1
			c-0.4,0.4-0.7,0.6-0.8,0.7c-0.1,0.1-0.2,0.2-0.3,0.2c0,0,0,0-0.1,0c0-0.1-0.1-0.2-0.1-0.4l0,0c0-0.8,0.2-1.8,0.6-2.8
			c0.3-0.9,0.7-1.7,1.2-2.4c0.1-0.2,0.3-0.4,0.4-0.6c0.7-1,1.3-1.5,1.9-1.5c0.5,0,1,0.4,1.4,1.2l0.3,0.5l-0.6,0.7
			c-0.1,0.1-0.2,0.2-0.3,0.4C40,37.5,39.4,38.2,38.8,38.9z"/>
		<path class="st6" d="M55.9,35.1C55.8,35.1,55.8,35.1,55.9,35.1c-0.1-0.1-0.1-0.3-0.1-0.6c0-0.3-0.1-0.6-0.1-0.9l0-0.2
			c0-0.7-0.1-1.1-0.2-1.4c-0.1-0.3-0.4-0.4-0.8-0.5c-0.3-0.1-0.6-0.2-0.8-0.1c-0.2,0-0.5,0.1-0.8,0.2c-1,0.3-2,1.2-2.8,2.5
			c-0.1,0.2-0.2,0.3-0.3,0.4c0,0-0.1,0.1-0.1,0.1l0,0c0.1-0.4,0.2-0.8,0.3-1.2c0.1-0.4,0.2-0.7,0.2-1c0-0.3,0.1-0.4,0.1-0.5l0,0
			c-0.1-0.2-0.5-0.4-1.2-0.3c-0.3,0-0.6,0.1-0.8,0.3c-0.2,0.2-0.4,0.5-0.6,0.9c-0.2,0.5-0.5,1.2-0.8,2.1c-0.3,0.8-0.5,1.6-0.7,2.3
			c-0.4,1.5-0.6,2.8-0.6,3.8l0,0.3c0,0.4,0.1,0.7,0.2,0.9c0.1,0.2,0.3,0.3,0.6,0.4c0.2,0.1,0.4,0.1,0.6,0.1c0.1,0,0.3,0,0.6-0.1
			c0.2-0.1,0.5-0.2,0.7-0.5c0.1-0.1,0.3-0.4,0.5-1c0.3-0.6,0.6-1.2,0.9-1.9c0.4-0.7,0.7-1.4,1-2.1c0.1-0.2,0.2-0.4,0.3-0.6h0
			c0.2-0.3,0.3-0.6,0.4-0.7c0.2-0.3,0.4-0.6,0.6-1c0.2-0.3,0.5-0.7,0.7-0.9c0.2-0.3,0.3-0.4,0.4-0.4c0,0,0,0.1,0.1,0.3
			c0,0.2,0.1,0.4,0.1,0.7c0.1,0.6,0.2,1,0.4,1.3c0,0,0,0.1,0.1,0.1c0.2,0.2,0.5,0.3,0.8,0.2c0.1,0,0.2,0,0.3,0
			c0.6-0.1,0.8-0.2,0.8-0.5C55.9,35.2,55.9,35.2,55.9,35.1z M55.9,35.1C55.8,35.1,55.8,35.1,55.9,35.1c-0.1-0.1-0.1-0.3-0.1-0.6
			c0-0.3-0.1-0.6-0.1-0.9l0-0.2c0-0.7-0.1-1.1-0.2-1.4c-0.1-0.3-0.4-0.4-0.8-0.5c-0.3-0.1-0.6-0.2-0.8-0.1c-0.2,0-0.5,0.1-0.8,0.2
			c-1,0.3-2,1.2-2.8,2.5c-0.1,0.2-0.2,0.3-0.3,0.4c0,0-0.1,0.1-0.1,0.1l0,0c0.1-0.4,0.2-0.8,0.3-1.2c0.1-0.4,0.2-0.7,0.2-1
			c0-0.3,0.1-0.4,0.1-0.5l0,0c-0.1-0.2-0.5-0.4-1.2-0.3c-0.3,0-0.6,0.1-0.8,0.3c-0.2,0.2-0.4,0.5-0.6,0.9c-0.2,0.5-0.5,1.2-0.8,2.1
			c-0.3,0.8-0.5,1.6-0.7,2.3c-0.4,1.5-0.6,2.8-0.6,3.8l0,0.3c0,0.4,0.1,0.7,0.2,0.9c0.1,0.2,0.3,0.3,0.6,0.4
			c0.2,0.1,0.4,0.1,0.6,0.1c0.1,0,0.3,0,0.6-0.1c0.2-0.1,0.5-0.2,0.7-0.5c0.1-0.1,0.3-0.4,0.5-1c0.3-0.6,0.6-1.2,0.9-1.9
			c0.4-0.7,0.7-1.4,1-2.1c0.1-0.2,0.2-0.4,0.3-0.6h0c0.2-0.3,0.3-0.6,0.4-0.7c0.2-0.3,0.4-0.6,0.6-1c0.2-0.3,0.5-0.7,0.7-0.9
			c0.2-0.3,0.3-0.4,0.4-0.4c0,0,0,0.1,0.1,0.3c0,0.2,0.1,0.4,0.1,0.7c0.1,0.6,0.2,1,0.4,1.3c0,0,0,0.1,0.1,0.1
			c0.2,0.2,0.5,0.3,0.8,0.2c0.1,0,0.2,0,0.3,0c0.6-0.1,0.8-0.2,0.8-0.5C55.9,35.2,55.9,35.2,55.9,35.1z"/>
		<path class="st6" d="M64.8,30.9c-0.2-0.1-0.5-0.1-0.7-0.1c-0.2,0-0.4,0.1-0.6,0.1c-0.1,0-0.3,0.1-0.5,0.1c-0.3,0-0.6,0.1-0.9,0.1
			c-1.7,0.1-2.7,0.7-3.2,1.8c-0.2,0.4-0.3,0.8-0.3,1.3l0,0.1c0,0.2,0,0.3,0,0.5c0,0.4,0.1,0.9,0.3,1.5c0.3,1.4,0.4,2.4,0.5,3.2
			c0,0.3,0,0.6,0,0.8c0,0.1-0.1,0.3-0.2,0.4c-0.1,0.2-0.2,0.3-0.3,0.4c-0.2,0.2-0.3,0.3-0.5,0.3c0,0-0.1,0-0.2,0
			c-0.1,0-0.3-0.1-0.5-0.3c-0.2-0.2-0.3-0.5-0.4-0.8c0-0.1,0-0.2,0-0.3c0-0.3,0-0.5,0.1-0.8c0.1-0.1,0.1-0.3,0.1-0.3
			c0,0,0-0.1,0-0.1c0,0,0-0.1,0-0.1c0,0,0-0.1-0.1-0.1c-0.2-0.2-0.5-0.2-0.8-0.2c-0.1,0-0.2,0-0.5,0.1c-0.2,0-0.5,0.2-0.7,0.5
			c-0.2,0.3-0.4,0.7-0.4,1.1c0,0.2,0,0.3,0,0.5c0,0.3,0,0.5,0.1,0.8c0.1,0.2,0.2,0.4,0.3,0.5c0.2,0.2,0.3,0.3,0.5,0.4
			c0.3,0.2,0.7,0.4,1.1,0.5c0,0,0,0,0.1,0c0.5,0.1,0.9,0.2,1.4,0.1c0.6,0,1.2-0.2,1.8-0.4c0.7-0.4,1.2-0.9,1.5-1.7
			c0.1-0.4,0.2-0.8,0.1-1.4c0-0.7-0.2-1.6-0.4-2.6c-0.2-0.7-0.3-1.3-0.3-1.9c0-0.1,0-0.2,0-0.3c0-1,0.1-1.7,0.6-2
			c0.1-0.1,0.2-0.1,0.3-0.2c0.1-0.1,0.2-0.1,0.3-0.1c0.1,0,0.1,0,0.1,0.1c0,0,0,0.1-0.1,0.3c-0.1,0.2-0.1,0.4-0.2,0.6
			c-0.1,0.4-0.2,0.7-0.2,0.9c0,0,0,0.1,0,0.2c0,0.1,0.2,0.2,0.5,0.2c0.1,0,0.3,0,0.4,0c0.4,0,0.6-0.1,0.9-0.4
			c0.1-0.1,0.1-0.2,0.2-0.4c0.1-0.2,0.2-0.5,0.3-0.7c0.1-0.3,0.2-0.5,0.3-0.7c0.1-0.2,0.2-0.4,0.2-0.5c0.1-0.2,0.2-0.3,0.2-0.4
			C65.1,31.1,65,31,64.8,30.9z M64.8,30.9c-0.2-0.1-0.5-0.1-0.7-0.1c-0.2,0-0.4,0.1-0.6,0.1c-0.1,0-0.3,0.1-0.5,0.1
			c-0.3,0-0.6,0.1-0.9,0.1c-1.7,0.1-2.7,0.7-3.2,1.8c-0.2,0.4-0.3,0.8-0.3,1.3l0,0.1c0,0.2,0,0.3,0,0.5c0,0.4,0.1,0.9,0.3,1.5
			c0.3,1.4,0.4,2.4,0.5,3.2c0,0.3,0,0.6,0,0.8c0,0.1-0.1,0.3-0.2,0.4c-0.1,0.2-0.2,0.3-0.3,0.4c-0.2,0.2-0.3,0.3-0.5,0.3
			c0,0-0.1,0-0.2,0c-0.1,0-0.3-0.1-0.5-0.3c-0.2-0.2-0.3-0.5-0.4-0.8c0-0.1,0-0.2,0-0.3c0-0.3,0-0.5,0.1-0.8
			c0.1-0.1,0.1-0.3,0.1-0.3c0,0,0-0.1,0-0.1c0,0,0-0.1,0-0.1c0,0,0-0.1-0.1-0.1c-0.2-0.2-0.5-0.2-0.8-0.2c-0.1,0-0.2,0-0.5,0.1
			c-0.2,0-0.5,0.2-0.7,0.5c-0.2,0.3-0.4,0.7-0.4,1.1c0,0.2,0,0.3,0,0.5c0,0.3,0,0.5,0.1,0.8c0.1,0.2,0.2,0.4,0.3,0.5
			c0.2,0.2,0.3,0.3,0.5,0.4c0.3,0.2,0.7,0.4,1.1,0.5c0,0,0,0,0.1,0c0.5,0.1,0.9,0.2,1.4,0.1c0.6,0,1.2-0.2,1.8-0.4
			c0.7-0.4,1.2-0.9,1.5-1.7c0.1-0.4,0.2-0.8,0.1-1.4c0-0.7-0.2-1.6-0.4-2.6c-0.2-0.7-0.3-1.3-0.3-1.9c0-0.1,0-0.2,0-0.3
			c0-1,0.1-1.7,0.6-2c0.1-0.1,0.2-0.1,0.3-0.2c0.1-0.1,0.2-0.1,0.3-0.1c0.1,0,0.1,0,0.1,0.1c0,0,0,0.1-0.1,0.3
			c-0.1,0.2-0.1,0.4-0.2,0.6c-0.1,0.4-0.2,0.7-0.2,0.9c0,0,0,0.1,0,0.2c0,0.1,0.2,0.2,0.5,0.2c0.1,0,0.3,0,0.4,0
			c0.4,0,0.6-0.1,0.9-0.4c0.1-0.1,0.1-0.2,0.2-0.4c0.1-0.2,0.2-0.5,0.3-0.7c0.1-0.3,0.2-0.5,0.3-0.7c0.1-0.2,0.2-0.4,0.2-0.5
			c0.1-0.2,0.2-0.3,0.2-0.4C65.1,31.1,65,31,64.8,30.9z"/>
		<path class="st6" d="M76.8,31.5c-0.3,0-0.5,0-0.6,0c-0.1,0-0.3,0.1-0.4,0.1c-0.1,0.1-0.2,0.1-0.3,0.2l-0.4,0.3l-0.4-0.3
			c-0.6-0.5-1.6-0.7-2.8-0.7c-0.2,0-0.4,0-0.6,0c-0.4,0-0.7,0.1-1,0.1c-0.4,0.1-0.9,0.3-1.4,0.7c-0.3,0.2-0.6,0.4-0.9,0.6
			c-0.3,0.2-0.6,0.6-1,1.1c-0.5,0.6-0.9,1.2-1.2,2c-0.2,0.5-0.4,1-0.6,1.5c-0.2,0.6-0.3,1.1-0.4,1.6c-0.1,0.5-0.1,0.8-0.1,1.1
			c0,0.4,0.1,0.8,0.2,1.2c0.3,0.6,0.6,1.1,1.1,1.3c0.5,0.3,1,0.4,1.5,0.4l0.2,0c0.1,0,0.3,0,0.4-0.1c1-0.3,2.1-1,3.2-2
			c0.2-0.2,0.5-0.4,0.7-0.6c0.2-0.2,0.3-0.3,0.4-0.4l0.3-0.2l0,0v0l0,1.3c0,0.5,0,0.9,0.1,1.1c0,0.2,0.1,0.4,0.1,0.5
			c0.2,0.4,0.6,0.6,1.1,0.8c0.2,0,0.4,0,0.5,0c0.2,0,0.4,0,0.5-0.1c0.4-0.1,0.6-0.3,0.8-0.5l0.2-0.3L75.8,42
			c-0.1-0.2-0.2-0.4-0.2-0.8c0-0.3,0-0.6,0.1-1.1c0-0.2,0.1-0.5,0.2-0.9c0.1-0.5,0.3-1.1,0.6-1.9c0.4-1.2,0.8-2.3,1.2-3.4
			c0.2-0.6,0.4-1,0.5-1.4c0.1-0.4,0.2-0.6,0.2-0.6v0C78.3,31.6,77.7,31.4,76.8,31.5z M71.2,37.6c-0.4,0.4-0.7,0.8-1.1,1.2
			c-0.3,0.3-0.6,0.6-0.8,0.8c0,0,0,0.1-0.1,0.1c-0.4,0.4-0.7,0.6-0.8,0.7c-0.1,0.1-0.2,0.2-0.3,0.2c0,0,0,0-0.1,0
			c0-0.1-0.1-0.2-0.1-0.4l0,0c0-0.7,0.1-1.5,0.4-2.3c0.1-0.2,0.1-0.3,0.2-0.5c0.4-1.1,0.9-2.1,1.6-3c0.7-1,1.3-1.5,1.9-1.5
			c0.5,0,1,0.4,1.4,1.2l0.3,0.5l-0.6,0.7C72.6,36,71.9,36.7,71.2,37.6z"/>
	</g>
	<path class="st7" d="M47.6,53.9C47.6,53.9,47.6,53.9,47.6,53.9C47.6,53.9,47.6,53.9,47.6,53.9z"/>
	<path class="st3" d="M47.6,53.5C47.6,53.5,47.6,53.5,47.6,53.5C47.6,53.4,47.6,53.5,47.6,53.5z"/>
	<g>
		<path class="st8" d="M45.7,31.1c-0.2-0.1-0.4-0.2-0.5-0.3c-0.1-0.1-0.3-0.3-0.5-0.5c-0.3-0.4-0.5-0.7-0.6-1.1
			c-0.1-0.4-0.1-0.7-0.1-1.1c0-0.4,0-0.8,0.1-1.2c0-0.4,0.1-0.7,0.1-1.1c0-0.3,0.1-0.5,0.1-0.6l0-0.3l-0.3,0.6
			c-1.3,2.2-2.2,3.7-2.9,4.4c-0.6,0.8-1.2,1.1-1.8,1.1c-0.1,0-0.2,0-0.3,0c-0.5,0-0.9-0.2-1.1-0.5c-0.2-0.3-0.3-0.8-0.3-1.5
			c0-0.1,0-0.2,0-0.3c0.1-1.2,0.4-2.8,1-4.7c0.5-1.9,1.1-3.6,1.8-5.3c0.6-1.6,1.2-2.7,1.7-3.1c0.2-0.2,0.4-0.3,0.6-0.3
			c0.2,0,0.3,0,0.4,0c0.2,0,0.4,0.1,0.5,0.1c0.1,0.1,0.2,0.1,0.2,0.1c0,0,0,0.1,0,0.2c0,0,0,0.1,0,0.1c0,0.1-0.1,0.3-0.2,0.7
			c-0.1,0.4-0.3,0.8-0.4,1.3c-0.9,2.5-1.5,4.5-1.9,6c-0.2,0.8-0.4,1.7-0.6,2.5c-0.2,0.8-0.3,1.4-0.4,1.7c0,0.1,0,0.2,0,0.3l0,0
			c0,0,0,0,0,0c0,0,0,0,0.1-0.1c0.1-0.2,0.3-0.5,0.6-0.9c0.3-0.4,0.6-0.9,0.8-1.3c0.3-0.5,0.5-0.9,0.7-1.2c0.1-0.2,0.4-0.8,0.9-1.7
			c0.5-0.9,1-1.8,1.4-2.8s0.8-1.7,1.1-2.1c0.2-0.4,0.4-0.7,0.5-0.8c0.2-0.1,0.5-0.2,0.8-0.1l0.1,0c0.3,0,0.6,0.1,0.8,0.3
			c0.1,0,0.1,0.1,0.1,0.1c0,0,0,0.1,0,0.2c0,0.1,0,0.2,0,0.4c0,0.2-0.1,0.5-0.2,0.9c-0.1,0.4-0.2,0.9-0.3,1.5
			c-0.5,2.1-0.8,3.7-0.9,5c-0.2,1.3-0.2,2.2-0.2,2.7c0,0.5,0,0.9,0.1,1.2c0,0.1,0.1,0.2,0.1,0.2c0,0.1,0.1,0.1,0.1,0.1
			c0,0,0.2-0.1,0.3-0.2c0.2-0.2,0.4-0.3,0.6-0.6s0.4-0.5,0.6-0.7c1-1.4,2-3,2.8-4.8c0.8-1.8,1.4-3.4,1.8-5c0.1-0.6,0.2-1.1,0.2-1.7
			c0-0.2,0-0.3,0-0.5c0-0.7-0.1-1.3-0.3-1.8c0-0.1-0.1-0.2-0.1-0.3c0-0.1,0-0.2-0.1-0.3c0-0.1,0-0.1,0-0.2c0,0,0-0.1,0-0.1
			c0,0,0.1-0.1,0.2-0.1c0.2-0.1,0.3-0.1,0.5-0.1l0.1,0c0.3,0,0.5,0.1,0.7,0.2c0.5,0.3,0.8,0.9,0.9,1.8c0,0.2,0,0.5,0,0.8
			c0,0.4,0,0.8-0.1,1.2c-0.1,0.8-0.2,1.7-0.4,2.5c-0.2,0.9-0.6,2-1.2,3.3c-0.6,1.3-1.2,2.4-1.7,3.4c-1.5,2.4-2.8,3.9-3.9,4.2
			c-0.3,0.1-0.6,0.2-0.8,0.2c-0.2,0-0.4,0-0.5,0C46.2,31.2,45.9,31.1,45.7,31.1z"/>
		<path class="st8" d="M61.8,23.2c-0.3,0.7-0.6,1.4-0.9,2.1c-0.3,0.8-0.5,1.3-0.6,1.7c-0.1,0.3-0.1,0.5-0.1,0.7c0,0.2,0,0.4,0.1,0.5
			l0.1,0.2l-0.1,0.2c-0.1,0.1-0.3,0.2-0.5,0.3c-0.1,0-0.2,0-0.3,0c-0.1,0-0.2,0-0.3,0c-0.3-0.1-0.5-0.3-0.7-0.5
			c0-0.1-0.1-0.2-0.1-0.4s0-0.4,0-0.7l0-0.8l-0.2,0.1c-0.1,0-0.2,0.1-0.3,0.2c-0.1,0.1-0.3,0.2-0.5,0.4c-0.8,0.6-1.5,1-2.1,1.2
			c-0.1,0-0.2,0-0.3,0l-0.1,0c-0.3,0-0.6-0.1-0.9-0.3c-0.3-0.2-0.5-0.5-0.7-0.9c-0.1-0.3-0.1-0.5-0.1-0.7c0-0.2,0-0.4,0.1-0.7
			c0.1-0.3,0.2-0.6,0.3-1c0.3-0.8,0.8-1.5,1.3-2.1c0.3-0.3,0.5-0.5,0.7-0.7c0.2-0.1,0.4-0.3,0.6-0.4c0.3-0.2,0.7-0.3,0.9-0.4
			c0.2,0,0.4-0.1,0.7,0c0.1,0,0.3,0,0.4,0c0.8,0.1,1.4,0.3,1.8,0.6l0.2,0.2l0.3-0.2c0.1,0,0.1-0.1,0.2-0.1c0.1,0,0.1,0,0.2-0.1
			c0.1,0,0.2,0,0.4,0c0.6,0,0.9,0.2,1,0.4l0,0c0,0.1,0,0.2-0.1,0.4C62.1,22.5,62,22.8,61.8,23.2z M58.9,23.7l0.4-0.5L59.1,23
			c-0.2-0.5-0.5-0.8-0.9-0.8c-0.4,0-0.8,0.3-1.3,0.9c-0.5,0.6-0.9,1.2-1.2,1.9c-0.3,0.7-0.5,1.3-0.5,1.8l0,0c0,0.1,0,0.2,0,0.2
			c0,0,0,0,0,0c0,0,0.1,0,0.2-0.1c0.1-0.1,0.3-0.2,0.6-0.4c0,0,0,0,0.1-0.1c0.3-0.3,0.8-0.7,1.3-1.2C58,24.7,58.5,24.2,58.9,23.7z"
			/>
		<path class="st8" d="M62.6,27.6c-0.1,0-0.2-0.1-0.3-0.1c-0.1-0.1-0.2-0.1-0.2-0.2C62,27.1,62,27.1,61.9,27c0-0.1,0-0.1,0-0.2
			c0-0.1,0-0.3,0-0.5c0-0.5,0.1-1.1,0.3-1.9c0.2-0.8,0.4-1.5,0.7-2.1c0.3-0.7,0.5-1.1,0.6-1.2c0.2-0.1,0.4-0.1,0.6-0.1
			c0.3,0,0.5,0.1,0.6,0.2c0.1,0.1,0.2,0.2,0.2,0.4c0,0.2-0.1,0.5-0.2,0.9c-0.1,0.3-0.2,0.6-0.3,1c-0.1,0.4-0.2,0.9-0.3,1.3
			c-0.1,0.4-0.2,0.8-0.3,1.1c-0.1,0.3-0.1,0.5-0.1,0.5c0,0,0.2-0.1,0.4-0.3c0.2-0.2,0.5-0.5,0.8-0.9c0.3-0.3,0.5-0.6,0.7-0.9
			c0.3-0.5,0.6-0.9,0.8-1.2c0.2-0.3,0.4-0.7,0.5-1.2c0.1-0.4,0.3-0.6,0.4-0.7c0.1-0.1,0.3-0.2,0.4-0.1l0.1,0c0.3,0,0.5,0.2,0.5,0.5
			c0,0.5-0.2,1.1-0.7,1.8c-0.5,1-1.2,1.9-1.9,2.6c-1,1.1-1.9,1.7-2.7,1.6C62.9,27.7,62.8,27.6,62.6,27.6z M62.6,27.6
			c-0.1,0-0.2-0.1-0.3-0.1c-0.1-0.1-0.2-0.1-0.2-0.2C62,27.1,62,27.1,61.9,27c0-0.1,0-0.1,0-0.2c0-0.1,0-0.3,0-0.5
			c0-0.5,0.1-1.1,0.3-1.9c0.2-0.8,0.4-1.5,0.7-2.1c0.3-0.7,0.5-1.1,0.6-1.2c0.2-0.1,0.4-0.1,0.6-0.1c0.3,0,0.5,0.1,0.6,0.2
			c0.1,0.1,0.2,0.2,0.2,0.4c0,0.2-0.1,0.5-0.2,0.9c-0.1,0.3-0.2,0.6-0.3,1c-0.1,0.4-0.2,0.9-0.3,1.3c-0.1,0.4-0.2,0.8-0.3,1.1
			c-0.1,0.3-0.1,0.5-0.1,0.5c0,0,0.2-0.1,0.4-0.3c0.2-0.2,0.5-0.5,0.8-0.9c0.3-0.3,0.5-0.6,0.7-0.9c0.3-0.5,0.6-0.9,0.8-1.2
			c0.2-0.3,0.4-0.7,0.5-1.2c0.1-0.4,0.3-0.6,0.4-0.7c0.1-0.1,0.3-0.2,0.4-0.1l0.1,0c0.3,0,0.5,0.2,0.5,0.5c0,0.5-0.2,1.1-0.7,1.8
			c-0.5,1-1.2,1.9-1.9,2.6c-1,1.1-1.9,1.7-2.7,1.6C62.9,27.7,62.8,27.6,62.6,27.6z"/>
		<path class="st8" d="M69.7,25.6c0,0.1-0.1,0.2-0.1,0.4c0,0.2-0.1,0.3-0.1,0.5c0,0.1,0,0.2,0,0.3c0,0.2,0,0.3,0,0.5
			c0,0.1,0.1,0.3,0.2,0.4c0,0,0.1,0.1,0.1,0.1l0,0c0,0,0.1,0,0.1,0c0.1,0,0.1,0,0.3-0.1c0.1,0,0.3-0.1,0.4-0.2
			c0.2-0.1,0.3-0.2,0.4-0.2c0.1-0.1,0.2-0.2,0.4-0.3c0.1-0.1,0.3-0.2,0.4-0.3c0.3-0.2,0.6-0.3,0.8-0.3c0.1,0,0.2,0,0.3,0.1
			c0.1,0,0.2,0.1,0.2,0.2s-0.1,0.2-0.2,0.4c-0.3,0.3-0.6,0.5-1,0.8c-0.4,0.2-0.8,0.4-1.2,0.5c-0.3,0.1-0.7,0.1-1,0.1
			c-0.4,0-0.8-0.1-1.1-0.2c-0.5-0.2-0.8-0.6-1-1.2c0-0.2-0.1-0.4-0.1-0.6c0-0.1,0-0.3,0.1-0.5c0-0.2,0.1-0.5,0.2-0.8
			c0.3-0.9,0.8-1.7,1.4-2.4c0.6-0.7,1.3-1.2,1.9-1.4c0.3-0.1,0.6-0.1,1-0.1c0.4,0,0.7,0.1,0.9,0.2c0.2,0.1,0.3,0.3,0.4,0.4
			c0.1,0.1,0.1,0.3,0.1,0.6l0,0.1c0,0.3-0.1,0.6-0.2,0.9c-0.1,0.3-0.3,0.5-0.6,0.8c-0.3,0.3-0.6,0.5-0.8,0.7
			c-0.2,0.1-0.6,0.3-0.9,0.4c-0.4,0.1-0.7,0.1-0.9,0.1l-0.1,0c-0.1,0-0.1,0-0.2,0c0,0-0.1,0-0.1,0.1S69.7,25.6,69.7,25.6z
			 M70.3,24.2l-0.2,0.3l0.2,0c0,0,0.1,0,0.2,0c0.1,0,0.2-0.1,0.2-0.1c0.5-0.2,0.8-0.6,1.1-1c0.3-0.4,0.4-0.7,0.4-1
			c0-0.1,0-0.1,0-0.2c0-0.1,0-0.1,0-0.2c0,0,0,0,0,0c0,0-0.1,0-0.1,0c-0.2,0.1-0.5,0.4-0.9,0.9C70.8,23.4,70.5,23.8,70.3,24.2z"/>
		<path class="st8" d="M74.7,28.6c-0.2-0.1-0.5-0.2-0.7-0.4c-0.1-0.1-0.2-0.2-0.3-0.3s-0.2-0.2-0.2-0.4c0-0.2,0-0.3,0-0.5
			c0-0.1,0-0.2,0-0.3c0-0.3,0.1-0.5,0.3-0.7c0.2-0.2,0.3-0.3,0.5-0.3c0.2,0,0.3,0,0.3,0c0.2,0,0.4,0.1,0.5,0.2c0,0,0.1,0,0.1,0.1
			c0,0,0,0,0,0.1c0,0,0,0,0,0.1c0,0,0,0.1-0.1,0.2C75,26.5,75,26.7,75,26.9c0,0.1,0,0.1,0,0.2c0,0.2,0.1,0.4,0.2,0.6
			c0.1,0.1,0.2,0.2,0.3,0.2c0.1,0,0.1,0,0.1,0c0.1,0,0.2-0.1,0.3-0.2c0.1-0.1,0.1-0.1,0.2-0.2c0.1-0.1,0.1-0.2,0.1-0.3
			c0-0.1,0.1-0.3,0.1-0.5c0-0.5,0-1.2-0.2-2.1C76,24,76,23.6,76,23.2l0-0.1c0-0.3,0.1-0.6,0.2-0.8c0.4-0.7,1.1-1,2.1-1
			c0.2,0,0.4,0,0.6,0c0.2,0,0.3,0,0.3-0.1c0.1,0,0.2-0.1,0.4-0.1c0.1,0,0.3,0,0.4,0.1c0.1,0.1,0.2,0.2,0.2,0.3c0,0.1,0,0.2-0.1,0.3
			c0,0.1-0.1,0.2-0.2,0.3c-0.1,0.1-0.1,0.3-0.2,0.5c-0.1,0.2-0.2,0.3-0.2,0.4c-0.1,0.1-0.1,0.2-0.2,0.3c-0.1,0.2-0.3,0.2-0.6,0.2
			c-0.1,0-0.2,0-0.2,0c-0.2,0-0.3-0.1-0.3-0.1c0-0.1,0-0.1,0-0.1c0-0.1,0.1-0.3,0.2-0.6c0.1-0.1,0.1-0.3,0.1-0.4
			c0-0.1,0.1-0.2,0.1-0.2c0,0,0,0-0.1,0c-0.1,0-0.1,0-0.2,0c-0.1,0-0.1,0.1-0.2,0.1c-0.3,0.2-0.4,0.6-0.4,1.3c0,0.4,0,0.9,0.1,1.4
			c0.1,0.7,0.1,1.3,0.1,1.7c0,0.4-0.1,0.7-0.1,0.9c-0.2,0.5-0.6,0.8-1,1c-0.4,0.1-0.8,0.2-1.2,0.2C75.3,28.7,75,28.7,74.7,28.6
			C74.7,28.6,74.7,28.6,74.7,28.6z M74.7,28.6c-0.2-0.1-0.5-0.2-0.7-0.4c-0.1-0.1-0.2-0.2-0.3-0.3s-0.2-0.2-0.2-0.4
			c0-0.2,0-0.3,0-0.5c0-0.1,0-0.2,0-0.3c0-0.3,0.1-0.5,0.3-0.7c0.2-0.2,0.3-0.3,0.5-0.3c0.2,0,0.3,0,0.3,0c0.2,0,0.4,0.1,0.5,0.2
			c0,0,0.1,0,0.1,0.1c0,0,0,0,0,0.1c0,0,0,0,0,0.1c0,0,0,0.1-0.1,0.2C75,26.5,75,26.7,75,26.9c0,0.1,0,0.1,0,0.2
			c0,0.2,0.1,0.4,0.2,0.6c0.1,0.1,0.2,0.2,0.3,0.2c0.1,0,0.1,0,0.1,0c0.1,0,0.2-0.1,0.3-0.2c0.1-0.1,0.1-0.1,0.2-0.2
			c0.1-0.1,0.1-0.2,0.1-0.3c0-0.1,0.1-0.3,0.1-0.5c0-0.5,0-1.2-0.2-2.1C76,24,76,23.6,76,23.2l0-0.1c0-0.3,0.1-0.6,0.2-0.8
			c0.4-0.7,1.1-1,2.1-1c0.2,0,0.4,0,0.6,0c0.2,0,0.3,0,0.3-0.1c0.1,0,0.2-0.1,0.4-0.1c0.1,0,0.3,0,0.4,0.1c0.1,0.1,0.2,0.2,0.2,0.3
			c0,0.1,0,0.2-0.1,0.3c0,0.1-0.1,0.2-0.2,0.3c-0.1,0.1-0.1,0.3-0.2,0.5c-0.1,0.2-0.2,0.3-0.2,0.4c-0.1,0.1-0.1,0.2-0.2,0.3
			c-0.1,0.2-0.3,0.2-0.6,0.2c-0.1,0-0.2,0-0.2,0c-0.2,0-0.3-0.1-0.3-0.1c0-0.1,0-0.1,0-0.1c0-0.1,0.1-0.3,0.2-0.6
			c0.1-0.1,0.1-0.3,0.1-0.4c0-0.1,0.1-0.2,0.1-0.2c0,0,0,0-0.1,0c-0.1,0-0.1,0-0.2,0c-0.1,0-0.1,0.1-0.2,0.1
			c-0.3,0.2-0.4,0.6-0.4,1.3c0,0.4,0,0.9,0.1,1.4c0.1,0.7,0.1,1.3,0.1,1.7c0,0.4-0.1,0.7-0.1,0.9c-0.2,0.5-0.6,0.8-1,1
			c-0.4,0.1-0.8,0.2-1.2,0.2C75.3,28.7,75,28.7,74.7,28.6C74.7,28.6,74.7,28.6,74.7,28.6z"/>
	</g>
	<path class="st8" d="M39.9,32.7"/>
	<path class="st8" d="M32.8,41.1"/>
	<g>
		<linearGradient id="SVGID_1_" gradientUnits="userSpaceOnUse" x1="6.8586" y1="-5.6081" x2="73.2719" y2="63.3256">
			<stop  offset="0" style="stop-color:#2BA6DE"/>
			<stop  offset="1" style="stop-color:#293E8F"/>
		</linearGradient>
		<path class="st9" d="M81.4,54.5c-0.2-0.1-5.7-2.9-14.7-3.1c-7.9-0.2-18.6,2.5-19.1,2.6c1.5-0.5,2.9-1,4.3-1.4
			c6.5-2,11.9-2.8,17-2.5c3.3,0.2,6.7,1.5,9.1,2.6C80,53.6,81.3,54.4,81.4,54.5z"/>
		
			<linearGradient id="SVGID_00000012471586375784193430000003587354240127613059_" gradientUnits="userSpaceOnUse" x1="10.2015" y1="-8.8287" x2="76.6147" y2="60.105">
			<stop  offset="0" style="stop-color:#2BA6DE"/>
			<stop  offset="1" style="stop-color:#293E8F"/>
		</linearGradient>
		<path style="fill:url(#SVGID_00000012471586375784193430000003587354240127613059_);" d="M78.6,51c1.8,1.1,3,2.1,3.2,2.3
			c-0.3-0.2-4.4-3.1-11.3-3.9c-6.2-0.7-14.7,1-14.9,1c1.7-0.6,3.4-1,4.9-1.4c4.5-1.1,8.2-1.3,11.7-0.7C74.5,48.7,76.8,49.9,78.6,51
			C78.6,51,78.6,51,78.6,51z"/>
		
			<linearGradient id="SVGID_00000137091786502609536500000001639459626525715640_" gradientUnits="userSpaceOnUse" x1="5.768" y1="-4.5573" x2="72.1813" y2="64.3763">
			<stop  offset="0" style="stop-color:#2BA6DE"/>
			<stop  offset="1" style="stop-color:#293E8F"/>
		</linearGradient>
		<path style="fill:url(#SVGID_00000137091786502609536500000001639459626525715640_);" d="M79.9,49.8c-10.4-6-20.6-0.9-31.4,0.9
			c-10.6,1.8-17.7-6.7-17.9-6.9c0.7,0.6,1.4,1.1,2.1,1.6c8.1,5.2,16,0.4,27.4-0.8c9.2-1,15.1,1.8,17.9,3.7
			C79.3,49.1,79.9,49.8,79.9,49.8z"/>
		<g>
			<g>
				
					<linearGradient id="SVGID_00000106115956454413224330000015814848413384091300_" gradientUnits="userSpaceOnUse" x1="-5.3018" y1="6.1078" x2="61.1114" y2="75.0414">
					<stop  offset="0" style="stop-color:#2BA6DE"/>
					<stop  offset="1" style="stop-color:#293E8F"/>
				</linearGradient>
				<path style="fill:url(#SVGID_00000106115956454413224330000015814848413384091300_);" d="M34.6,20c-0.2,0-0.4,0-0.5,0
					c-0.2,0-0.3,0-0.5,0.1c-0.2,0.1-0.5,0.3-0.8,0.7c-0.3,0.4-0.8,1-1.5,1.8c-1.6,2.1-3.1,4-4.4,6c-0.7,1-1.4,2.2-2.2,3.6
					c-0.8,1.3-1.7,2.8-2.6,4.4c-0.3,0.5-0.5,0.9-0.7,1.2C21.1,38,21,38.2,21,38.2c0-0.1,0.1-0.7,0.3-1.8c0.2-1.1,0.5-2.5,0.8-4
					c0,0,0,0,0,0c0.3-1.6,0.6-3,0.9-4.3c0-0.1,0.1-0.2,0.1-0.4c0.3-1.3,0.5-2.3,0.6-3c0.2-0.8,0.2-1.4,0.3-1.8l0-0.2
					c0-0.3-0.1-0.5-0.2-0.7c-0.1-0.1-0.2-0.2-0.4-0.2c-0.1,0-0.1,0-0.2-0.1c-0.3-0.1-0.6-0.1-0.9-0.1c-0.2,0-0.4,0.1-0.8,0.1
					c-0.3,0.1-0.6,0.3-0.9,0.7c-0.2,0.3-0.6,1-1.3,2.3c-0.7,1.3-1.4,2.6-2.2,4.1c-0.8,1.5-1.4,2.7-1.8,3.6c-0.4,0.9-0.8,1.7-1.2,2.5
					c-1,2.2-1.9,4.3-2.7,6.3c-1.1,2.7-1.8,4.8-2.2,6.3C9,48.1,9,48.6,9,48.9c0,0,0,0.1,0,0.3c0,0.2,0.2,0.3,0.5,0.4
					c0.1,0,0.1,0,0.2,0c0.1,0,0.1,0,0.2,0c0,0,0.1,0,0.1,0c0.1,0,0.2,0,0.3,0c0.2,0,0.4-0.1,0.5-0.2c0.1-0.1,0.2-0.3,0.3-0.6
					c0.1-0.4,0.3-0.8,0.5-1.3c1.3-3.8,2.9-7.8,4.7-11.8c0.3-0.6,0.6-1.2,0.9-1.9c0.1-0.1,0.1-0.3,0.2-0.4c0.4-0.9,0.8-1.7,1.2-2.4
					c0.3-0.7,0.5-1,0.6-1v0c0,0,0,0.1,0,0.3c0,0,0,0.1,0,0.1c0,0.1-0.1,0.3-0.1,0.5c0,0.1,0,0.1,0,0.2c-0.2,0.8-0.3,1.6-0.5,2.4
					c-0.3,1.5-0.5,2.8-0.7,4.1c-0.3,2-0.5,3.4-0.6,4.3c0,0.3,0,0.6,0,0.9c0,0.2,0,0.4,0.1,0.6c0.1,0.2,0.2,0.3,0.4,0.5
					c0.2,0.1,0.6,0.2,1,0.2c0.1,0,0.3,0,0.4,0c0.3,0,0.5,0,0.7-0.1c0.3-0.1,0.5-0.3,0.9-0.7s0.7-1,1.3-1.9c0.5-0.9,1.3-2.2,2.2-3.9
					c0.4-0.7,0.9-1.5,1.3-2.3c0.5-0.8,0.9-1.5,1.2-2.1c0.1-0.2,0.3-0.5,0.4-0.7c0.4-0.7,0.9-1.4,1.3-2.1c0.6-1,1.1-1.7,1.5-2.3
					c0.4-0.5,0.5-0.8,0.6-0.8l0,0c0,0.1-0.1,0.3-0.2,0.8s-0.3,1-0.5,1.6c-0.3,0.9-0.6,1.9-0.9,3.1c-0.5,1.7-1,3.7-1.5,6
					c-1.2,4.8-1.7,7.8-1.7,8.8c0,0.2,0,0.3,0.1,0.4c0.2,0.4,0.7,0.6,1.4,0.6h0l0.2,0c0.1,0,0.1,0,0.2,0c0.3,0,0.6-0.1,0.7-0.3
					c0.1-0.2,0.2-0.5,0.2-0.9c0.1-0.8,0.5-2.5,1.2-5.2c0.7-2.7,1.5-5.4,2.3-8.1c1.1-3.3,1.9-5.8,2.4-7.6c0.6-1.8,0.9-3,1.1-3.7
					c0.2-0.7,0.3-1.1,0.3-1.3C36,20.4,35.5,20.1,34.6,20z M34.6,20c-0.2,0-0.4,0-0.5,0c-0.2,0-0.3,0-0.5,0.1
					c-0.2,0.1-0.5,0.3-0.8,0.7c-0.3,0.4-0.8,1-1.5,1.8c-1.6,2.1-3.1,4-4.4,6c-0.7,1-1.4,2.2-2.2,3.6c-0.8,1.3-1.7,2.8-2.6,4.4
					c-0.3,0.5-0.5,0.9-0.7,1.2C21.1,38,21,38.2,21,38.2c0-0.1,0.1-0.7,0.3-1.8c0.2-1.1,0.5-2.5,0.8-4c0,0,0,0,0,0
					c0.3-1.6,0.6-3,0.9-4.3c0-0.1,0.1-0.2,0.1-0.4c0.3-1.3,0.5-2.3,0.6-3c0.2-0.8,0.2-1.4,0.3-1.8l0-0.2c0-0.3-0.1-0.5-0.2-0.7
					c-0.1-0.1-0.2-0.2-0.4-0.2c-0.1,0-0.1,0-0.2-0.1c-0.3-0.1-0.6-0.1-0.9-0.1c-0.2,0-0.4,0.1-0.8,0.1c-0.3,0.1-0.6,0.3-0.9,0.7
					c-0.2,0.3-0.6,1-1.3,2.3c-0.7,1.3-1.4,2.6-2.2,4.1c-0.8,1.5-1.4,2.7-1.8,3.6c-0.4,0.9-0.8,1.7-1.2,2.5c-1,2.2-1.9,4.3-2.7,6.3
					c-1.1,2.7-1.8,4.8-2.2,6.3C9,48.1,9,48.6,9,48.9c0,0,0,0.1,0,0.3c0,0.2,0.2,0.3,0.5,0.4c0.1,0,0.1,0,0.2,0c0.1,0,0.1,0,0.2,0
					c0,0,0.1,0,0.1,0c0.1,0,0.2,0,0.3,0c0.2,0,0.4-0.1,0.5-0.2c0.1-0.1,0.2-0.3,0.3-0.6c0.1-0.4,0.3-0.8,0.5-1.3
					c1.3-3.8,2.9-7.8,4.7-11.8c0.3-0.6,0.6-1.2,0.9-1.9c0.1-0.1,0.1-0.3,0.2-0.4c0.4-0.9,0.8-1.7,1.2-2.4c0.3-0.7,0.5-1,0.6-1v0
					c0,0,0,0.1,0,0.3c0,0,0,0.1,0,0.1c0,0.1-0.1,0.3-0.1,0.5c0,0.1,0,0.1,0,0.2c-0.2,0.8-0.3,1.6-0.5,2.4c-0.3,1.5-0.5,2.8-0.7,4.1
					c-0.3,2-0.5,3.4-0.6,4.3c0,0.3,0,0.6,0,0.9c0,0.2,0,0.4,0.1,0.6c0.1,0.2,0.2,0.3,0.4,0.5c0.2,0.1,0.6,0.2,1,0.2
					c0.1,0,0.3,0,0.4,0c0.3,0,0.5,0,0.7-0.1c0.3-0.1,0.5-0.3,0.9-0.7s0.7-1,1.3-1.9c0.5-0.9,1.3-2.2,2.2-3.9
					c0.4-0.7,0.9-1.5,1.3-2.3c0.5-0.8,0.9-1.5,1.2-2.1c0.1-0.2,0.3-0.5,0.4-0.7c0.4-0.7,0.9-1.4,1.3-2.1c0.6-1,1.1-1.7,1.5-2.3
					c0.4-0.5,0.5-0.8,0.6-0.8l0,0c0,0.1-0.1,0.3-0.2,0.8s-0.3,1-0.5,1.6c-0.3,0.9-0.6,1.9-0.9,3.1c-0.5,1.7-1,3.7-1.5,6
					c-1.2,4.8-1.7,7.8-1.7,8.8c0,0.2,0,0.3,0.1,0.4c0.2,0.4,0.7,0.6,1.4,0.6h0l0.2,0c0.1,0,0.1,0,0.2,0c0.3,0,0.6-0.1,0.7-0.3
					c0.1-0.2,0.2-0.5,0.2-0.9c0.1-0.8,0.5-2.5,1.2-5.2c0.7-2.7,1.5-5.4,2.3-8.1c1.1-3.3,1.9-5.8,2.4-7.6c0.6-1.8,0.9-3,1.1-3.7
					c0.2-0.7,0.3-1.1,0.3-1.3C36,20.4,35.5,20.1,34.6,20z"/>
				
					<linearGradient id="SVGID_00000146474378778264837680000003346354395603146406_" gradientUnits="userSpaceOnUse" x1="2.0459" y1="-0.9713" x2="68.4591" y2="67.9624">
					<stop  offset="0" style="stop-color:#2BA6DE"/>
					<stop  offset="1" style="stop-color:#293E8F"/>
				</linearGradient>
				<path style="fill:url(#SVGID_00000146474378778264837680000003346354395603146406_);" d="M46.2,33.2c-0.1-0.4-0.6-0.6-1.6-0.6
					c-0.3,0-0.5,0-0.6,0c-0.1,0-0.3,0.1-0.4,0.1c-0.1,0.1-0.2,0.1-0.3,0.2l-0.4,0.3l-0.4-0.3c-0.6-0.5-1.6-0.7-2.8-0.7
					c-0.2,0-0.4,0-0.6,0c-0.4,0-0.7,0.1-1,0.1c-0.4,0.1-0.9,0.3-1.4,0.7c-0.3,0.2-0.6,0.4-0.9,0.6c-0.3,0.2-0.6,0.6-1,1.1
					c0,0,0,0,0,0c-0.8,1-1.4,2.1-1.8,3.4c-0.2,0.6-0.3,1.1-0.4,1.6c-0.1,0.5-0.1,0.8-0.1,1.1c0,0.4,0.1,0.8,0.2,1.2
					c0.3,0.6,0.6,1.1,1.1,1.3c0.5,0.3,1,0.4,1.5,0.4l0.2,0c0.1,0,0.3,0,0.4-0.1c1-0.3,2.1-1,3.2-2c0.2-0.2,0.5-0.4,0.7-0.6
					c0.2-0.2,0.3-0.3,0.4-0.4l0.3-0.3l0,1.3c0,0.5,0,0.9,0.1,1.1c0,0.2,0.1,0.4,0.1,0.5c0.2,0.4,0.6,0.6,1.1,0.8c0.2,0,0.4,0,0.5,0
					c0.2,0,0.4,0,0.5-0.1c0.4-0.1,0.6-0.3,0.8-0.5l0.2-0.3l-0.2-0.3c-0.1-0.2-0.2-0.4-0.2-0.8c0-0.3,0-0.6,0.1-1.1
					c0.1-0.6,0.4-1.5,0.8-2.7c0.2-0.5,0.3-1,0.5-1.5c0.2-0.6,0.5-1.3,0.7-1.8c0.2-0.6,0.4-1,0.5-1.4C46.1,33.5,46.2,33.3,46.2,33.2
					L46.2,33.2z M39,38.8c-0.7,0.8-1.4,1.5-1.9,2c0,0,0,0.1-0.1,0.1c-0.4,0.4-0.7,0.6-0.8,0.7c-0.1,0.1-0.2,0.2-0.3,0.2
					c0,0,0,0-0.1,0c0-0.1-0.1-0.2-0.1-0.4l0,0c0-0.8,0.2-1.8,0.6-2.8c0.3-0.9,0.7-1.7,1.2-2.4c0.1-0.2,0.3-0.4,0.4-0.6
					c0.7-1,1.3-1.5,1.9-1.5c0.5,0,1,0.4,1.4,1.2l0.3,0.5L41,36.4c-0.1,0.1-0.2,0.2-0.3,0.4C40.2,37.4,39.6,38.1,39,38.8z"/>
				
					<linearGradient id="SVGID_00000119817978516993768810000013484510514097012103_" gradientUnits="userSpaceOnUse" x1="8.4302" y1="-7.1222" x2="74.8435" y2="61.8115">
					<stop  offset="0" style="stop-color:#2BA6DE"/>
					<stop  offset="1" style="stop-color:#293E8F"/>
				</linearGradient>
				<path style="fill:url(#SVGID_00000119817978516993768810000013484510514097012103_);" d="M56.1,35C56.1,35,56,35,56.1,35
					c-0.1-0.1-0.1-0.3-0.1-0.6c0-0.3-0.1-0.6-0.1-0.9l0-0.2c0-0.7-0.1-1.1-0.2-1.4c-0.1-0.3-0.4-0.4-0.8-0.5
					c-0.3-0.1-0.6-0.2-0.8-0.1c-0.2,0-0.5,0.1-0.8,0.2c-1,0.3-2,1.2-2.8,2.5c-0.1,0.2-0.2,0.3-0.3,0.4c0,0-0.1,0.1-0.1,0.1l0,0
					c0.1-0.4,0.2-0.8,0.3-1.2c0.1-0.4,0.2-0.7,0.2-1c0-0.3,0.1-0.4,0.1-0.5l0,0c-0.1-0.2-0.5-0.4-1.2-0.3c-0.3,0-0.6,0.1-0.8,0.3
					c-0.2,0.2-0.4,0.5-0.6,0.9c-0.2,0.5-0.5,1.2-0.8,2.1c-0.3,0.8-0.5,1.6-0.7,2.3c-0.4,1.5-0.6,2.8-0.6,3.8l0,0.3
					c0,0.4,0.1,0.7,0.2,0.9c0.1,0.2,0.3,0.3,0.6,0.4c0.2,0.1,0.4,0.1,0.6,0.1c0.1,0,0.3,0,0.6-0.1c0.2-0.1,0.5-0.2,0.7-0.5
					c0.1-0.1,0.3-0.4,0.5-1c0.3-0.6,0.6-1.2,0.9-1.9c0.4-0.7,0.7-1.4,1-2.1c0.1-0.2,0.2-0.4,0.3-0.6h0c0.2-0.3,0.3-0.6,0.4-0.7
					c0.2-0.3,0.4-0.6,0.6-1c0.2-0.3,0.5-0.7,0.7-0.9c0.2-0.3,0.3-0.4,0.4-0.4c0,0,0,0.1,0.1,0.3c0,0.2,0.1,0.4,0.1,0.7
					c0.1,0.6,0.2,1,0.4,1.3c0,0,0,0.1,0.1,0.1c0.2,0.2,0.5,0.3,0.8,0.2c0.1,0,0.2,0,0.3,0c0.6-0.1,0.8-0.2,0.8-0.5
					C56.1,35.1,56.1,35.1,56.1,35z M56.1,35C56.1,35,56,35,56.1,35c-0.1-0.1-0.1-0.3-0.1-0.6c0-0.3-0.1-0.6-0.1-0.9l0-0.2
					c0-0.7-0.1-1.1-0.2-1.4c-0.1-0.3-0.4-0.4-0.8-0.5c-0.3-0.1-0.6-0.2-0.8-0.1c-0.2,0-0.5,0.1-0.8,0.2c-1,0.3-2,1.2-2.8,2.5
					c-0.1,0.2-0.2,0.3-0.3,0.4c0,0-0.1,0.1-0.1,0.1l0,0c0.1-0.4,0.2-0.8,0.3-1.2c0.1-0.4,0.2-0.7,0.2-1c0-0.3,0.1-0.4,0.1-0.5l0,0
					c-0.1-0.2-0.5-0.4-1.2-0.3c-0.3,0-0.6,0.1-0.8,0.3c-0.2,0.2-0.4,0.5-0.6,0.9c-0.2,0.5-0.5,1.2-0.8,2.1c-0.3,0.8-0.5,1.6-0.7,2.3
					c-0.4,1.5-0.6,2.8-0.6,3.8l0,0.3c0,0.4,0.1,0.7,0.2,0.9c0.1,0.2,0.3,0.3,0.6,0.4c0.2,0.1,0.4,0.1,0.6,0.1c0.1,0,0.3,0,0.6-0.1
					c0.2-0.1,0.5-0.2,0.7-0.5c0.1-0.1,0.3-0.4,0.5-1c0.3-0.6,0.6-1.2,0.9-1.9c0.4-0.7,0.7-1.4,1-2.1c0.1-0.2,0.2-0.4,0.3-0.6h0
					c0.2-0.3,0.3-0.6,0.4-0.7c0.2-0.3,0.4-0.6,0.6-1c0.2-0.3,0.5-0.7,0.7-0.9c0.2-0.3,0.3-0.4,0.4-0.4c0,0,0,0.1,0.1,0.3
					c0,0.2,0.1,0.4,0.1,0.7c0.1,0.6,0.2,1,0.4,1.3c0,0,0,0.1,0.1,0.1c0.2,0.2,0.5,0.3,0.8,0.2c0.1,0,0.2,0,0.3,0
					c0.6-0.1,0.8-0.2,0.8-0.5C56.1,35.1,56.1,35.1,56.1,35z"/>
				
					<linearGradient id="SVGID_00000124122975000545520200000000414809482229871281_" gradientUnits="userSpaceOnUse" x1="13.7345" y1="-12.2325" x2="80.1477" y2="56.7011">
					<stop  offset="0" style="stop-color:#2BA6DE"/>
					<stop  offset="1" style="stop-color:#293E8F"/>
				</linearGradient>
				<path style="fill:url(#SVGID_00000124122975000545520200000000414809482229871281_);" d="M65,30.8c-0.2-0.1-0.5-0.1-0.7-0.1
					c-0.2,0-0.4,0.1-0.6,0.1c-0.1,0-0.3,0.1-0.5,0.1c-0.3,0-0.6,0.1-0.9,0.1c-1.7,0.1-2.7,0.7-3.2,1.8c-0.2,0.4-0.3,0.8-0.3,1.3
					l0,0.1c0,0.2,0,0.3,0,0.5c0,0.4,0.1,0.9,0.3,1.5c0.3,1.4,0.4,2.4,0.5,3.2c0,0.3,0,0.6,0,0.8c0,0.1-0.1,0.3-0.2,0.4
					c-0.1,0.2-0.2,0.3-0.3,0.4c-0.2,0.2-0.3,0.3-0.5,0.3c0,0-0.1,0-0.2,0c-0.1,0-0.3-0.1-0.5-0.3c-0.2-0.2-0.3-0.5-0.4-0.8
					c0-0.1,0-0.2,0-0.3c0-0.3,0-0.5,0.1-0.8c0.1-0.1,0.1-0.3,0.1-0.3c0,0,0-0.1,0-0.1c0,0,0-0.1,0-0.1c0,0,0-0.1-0.1-0.1
					c-0.2-0.2-0.5-0.2-0.8-0.2c-0.1,0-0.2,0-0.5,0.1c-0.2,0-0.5,0.2-0.7,0.5c-0.2,0.3-0.4,0.7-0.4,1.1c0,0.2,0,0.3,0,0.5
					c0,0.3,0,0.5,0.1,0.8c0.1,0.2,0.2,0.4,0.3,0.5c0.2,0.2,0.3,0.3,0.5,0.4c0.3,0.2,0.7,0.4,1.1,0.5c0,0,0,0,0.1,0
					c0.5,0.1,0.9,0.2,1.4,0.1c0.6,0,1.2-0.2,1.8-0.4c0.7-0.4,1.2-0.9,1.5-1.7c0.1-0.4,0.2-0.8,0.1-1.4c0-0.7-0.2-1.6-0.4-2.6
					c-0.2-0.7-0.3-1.3-0.3-1.9c0-0.1,0-0.2,0-0.3c0-1,0.1-1.7,0.6-2c0.1-0.1,0.2-0.1,0.3-0.2s0.2-0.1,0.3-0.1c0.1,0,0.1,0,0.1,0.1
					c0,0,0,0.1-0.1,0.3c-0.1,0.2-0.1,0.4-0.2,0.6c-0.1,0.4-0.2,0.7-0.2,0.9c0,0,0,0.1,0,0.2c0,0.1,0.2,0.2,0.5,0.2
					c0.1,0,0.3,0,0.4,0c0.4,0,0.6-0.1,0.9-0.4c0.1-0.1,0.1-0.2,0.2-0.4c0.1-0.2,0.2-0.5,0.3-0.7c0.1-0.3,0.2-0.5,0.3-0.7
					c0.1-0.2,0.2-0.4,0.2-0.5c0.1-0.2,0.2-0.3,0.2-0.4C65.3,31,65.2,30.9,65,30.8z M65,30.8c-0.2-0.1-0.5-0.1-0.7-0.1
					c-0.2,0-0.4,0.1-0.6,0.1c-0.1,0-0.3,0.1-0.5,0.1c-0.3,0-0.6,0.1-0.9,0.1c-1.7,0.1-2.7,0.7-3.2,1.8c-0.2,0.4-0.3,0.8-0.3,1.3
					l0,0.1c0,0.2,0,0.3,0,0.5c0,0.4,0.1,0.9,0.3,1.5c0.3,1.4,0.4,2.4,0.5,3.2c0,0.3,0,0.6,0,0.8c0,0.1-0.1,0.3-0.2,0.4
					c-0.1,0.2-0.2,0.3-0.3,0.4c-0.2,0.2-0.3,0.3-0.5,0.3c0,0-0.1,0-0.2,0c-0.1,0-0.3-0.1-0.5-0.3c-0.2-0.2-0.3-0.5-0.4-0.8
					c0-0.1,0-0.2,0-0.3c0-0.3,0-0.5,0.1-0.8c0.1-0.1,0.1-0.3,0.1-0.3c0,0,0-0.1,0-0.1c0,0,0-0.1,0-0.1c0,0,0-0.1-0.1-0.1
					c-0.2-0.2-0.5-0.2-0.8-0.2c-0.1,0-0.2,0-0.5,0.1c-0.2,0-0.5,0.2-0.7,0.5c-0.2,0.3-0.4,0.7-0.4,1.1c0,0.2,0,0.3,0,0.5
					c0,0.3,0,0.5,0.1,0.8c0.1,0.2,0.2,0.4,0.3,0.5c0.2,0.2,0.3,0.3,0.5,0.4c0.3,0.2,0.7,0.4,1.1,0.5c0,0,0,0,0.1,0
					c0.5,0.1,0.9,0.2,1.4,0.1c0.6,0,1.2-0.2,1.8-0.4c0.7-0.4,1.2-0.9,1.5-1.7c0.1-0.4,0.2-0.8,0.1-1.4c0-0.7-0.2-1.6-0.4-2.6
					c-0.2-0.7-0.3-1.3-0.3-1.9c0-0.1,0-0.2,0-0.3c0-1,0.1-1.7,0.6-2c0.1-0.1,0.2-0.1,0.3-0.2s0.2-0.1,0.3-0.1c0.1,0,0.1,0,0.1,0.1
					c0,0,0,0.1-0.1,0.3c-0.1,0.2-0.1,0.4-0.2,0.6c-0.1,0.4-0.2,0.7-0.2,0.9c0,0,0,0.1,0,0.2c0,0.1,0.2,0.2,0.5,0.2
					c0.1,0,0.3,0,0.4,0c0.4,0,0.6-0.1,0.9-0.4c0.1-0.1,0.1-0.2,0.2-0.4c0.1-0.2,0.2-0.5,0.3-0.7c0.1-0.3,0.2-0.5,0.3-0.7
					c0.1-0.2,0.2-0.4,0.2-0.5c0.1-0.2,0.2-0.3,0.2-0.4C65.3,31,65.2,30.9,65,30.8z"/>
				
					<linearGradient id="SVGID_00000006699117872928659110000005286885274640047539_" gradientUnits="userSpaceOnUse" x1="19.4728" y1="-17.761" x2="85.886" y2="51.1727">
					<stop  offset="0" style="stop-color:#2BA6DE"/>
					<stop  offset="1" style="stop-color:#293E8F"/>
				</linearGradient>
				<path style="fill:url(#SVGID_00000006699117872928659110000005286885274640047539_);" d="M77,31.4c-0.3,0-0.5,0-0.6,0
					c-0.1,0-0.3,0.1-0.4,0.1c-0.1,0.1-0.2,0.1-0.3,0.2l-0.4,0.3l-0.4-0.3c-0.6-0.5-1.6-0.7-2.8-0.7c-0.2,0-0.4,0-0.6,0
					c-0.4,0-0.7,0.1-1,0.1c-0.4,0.1-0.9,0.3-1.4,0.7c-0.3,0.2-0.6,0.4-0.9,0.6c-0.3,0.2-0.6,0.6-1,1.1c-0.5,0.6-0.9,1.2-1.2,2
					c-0.2,0.5-0.4,1-0.6,1.5c-0.2,0.6-0.3,1.1-0.4,1.6c-0.1,0.5-0.1,0.8-0.1,1.1c0,0.4,0.1,0.8,0.2,1.2c0.3,0.6,0.6,1.1,1.1,1.3
					c0.5,0.3,1,0.4,1.5,0.4l0.2,0c0.1,0,0.3,0,0.4-0.1c1-0.3,2.1-1,3.2-2c0.2-0.2,0.5-0.4,0.7-0.6c0.2-0.2,0.3-0.3,0.4-0.4l0.3-0.2
					l0,0v0l0,1.3c0,0.5,0,0.9,0.1,1.1c0,0.2,0.1,0.4,0.1,0.5c0.2,0.4,0.6,0.6,1.1,0.8c0.2,0,0.4,0,0.5,0c0.2,0,0.4,0,0.5-0.1
					c0.4-0.1,0.6-0.3,0.8-0.5l0.2-0.3L76,41.9c-0.1-0.2-0.2-0.4-0.2-0.8c0-0.3,0-0.6,0.1-1.1c0-0.2,0.1-0.5,0.2-0.9
					c0.1-0.5,0.3-1.1,0.6-1.9c0.4-1.2,0.8-2.3,1.2-3.4c0.2-0.6,0.4-1,0.5-1.4c0.1-0.4,0.2-0.6,0.2-0.6v0C78.5,31.5,78,31.4,77,31.4z
					 M71.4,37.5c-0.4,0.4-0.7,0.8-1.1,1.2c-0.3,0.3-0.6,0.6-0.8,0.8c0,0,0,0.1-0.1,0.1c-0.4,0.4-0.7,0.6-0.8,0.7
					c-0.1,0.1-0.2,0.2-0.3,0.2c0,0,0,0-0.1,0c0-0.1-0.1-0.2-0.1-0.4l0,0c0-0.7,0.1-1.5,0.4-2.3c0.1-0.2,0.1-0.3,0.2-0.5
					c0.4-1.1,0.9-2.1,1.6-3c0.7-1,1.3-1.5,1.9-1.5c0.5,0,1,0.4,1.4,1.2l0.3,0.5l-0.6,0.7C72.8,35.9,72.1,36.7,71.4,37.5z"/>
			</g>
			<g>
				
					<linearGradient id="SVGID_00000128467203036304335180000002817343637896118408_" gradientUnits="userSpaceOnUse" x1="13.3752" y1="-11.8864" x2="79.7884" y2="57.0473">
					<stop  offset="0" style="stop-color:#2BA6DE"/>
					<stop  offset="1" style="stop-color:#293E8F"/>
				</linearGradient>
				<path style="fill:url(#SVGID_00000128467203036304335180000002817343637896118408_);" d="M45.7,31.1c-0.2-0.1-0.4-0.2-0.5-0.3
					s-0.3-0.3-0.5-0.5c-0.3-0.4-0.5-0.7-0.6-1.1c-0.1-0.4-0.1-0.7-0.1-1.1c0-0.4,0-0.8,0.1-1.2c0-0.4,0.1-0.7,0.1-1.1
					c0-0.3,0.1-0.5,0.1-0.6l0-0.3l-0.3,0.6c-1.3,2.2-2.2,3.7-2.9,4.4c-0.6,0.8-1.2,1.1-1.8,1.1c-0.1,0-0.2,0-0.3,0
					c-0.5,0-0.9-0.2-1.1-0.5c-0.2-0.3-0.3-0.8-0.3-1.5c0-0.1,0-0.2,0-0.3c0.1-1.2,0.4-2.8,1-4.7c0.5-1.9,1.1-3.6,1.8-5.3
					c0.6-1.6,1.2-2.7,1.7-3.1c0.2-0.2,0.4-0.3,0.6-0.3c0.2,0,0.3,0,0.4,0c0.2,0,0.4,0.1,0.5,0.1c0.1,0.1,0.2,0.1,0.2,0.1
					c0,0,0,0.1,0,0.2c0,0,0,0.1,0,0.1c0,0.1-0.1,0.3-0.2,0.7c-0.1,0.4-0.3,0.8-0.4,1.3c-0.9,2.5-1.5,4.5-1.9,6
					c-0.2,0.8-0.4,1.7-0.6,2.5c-0.2,0.8-0.3,1.4-0.4,1.7c0,0.1,0,0.2,0,0.3l0,0c0,0,0,0,0,0c0,0,0,0,0.1-0.1
					c0.1-0.2,0.3-0.5,0.6-0.9c0.3-0.4,0.6-0.9,0.8-1.3c0.3-0.5,0.5-0.9,0.7-1.2c0.1-0.2,0.4-0.8,0.9-1.7c0.5-0.9,1-1.8,1.4-2.8
					c0.5-1,0.8-1.7,1.1-2.1c0.2-0.4,0.4-0.7,0.5-0.8c0.2-0.1,0.5-0.2,0.8-0.1l0.1,0c0.3,0,0.6,0.1,0.8,0.3c0.1,0,0.1,0.1,0.1,0.1
					c0,0,0,0.1,0,0.2c0,0.1,0,0.2,0,0.4c0,0.2-0.1,0.5-0.2,0.9c-0.1,0.4-0.2,0.9-0.3,1.5c-0.5,2.1-0.8,3.7-0.9,5
					c-0.2,1.3-0.2,2.2-0.2,2.7c0,0.5,0,0.9,0.1,1.2c0,0.1,0.1,0.2,0.1,0.2c0,0.1,0.1,0.1,0.1,0.1c0,0,0.2-0.1,0.3-0.2
					c0.2-0.2,0.4-0.3,0.6-0.6s0.4-0.5,0.6-0.7c1-1.4,2-3,2.8-4.8c0.8-1.8,1.4-3.4,1.8-5c0.1-0.6,0.2-1.1,0.2-1.7c0-0.2,0-0.3,0-0.5
					c0-0.7-0.1-1.3-0.3-1.8c0-0.1-0.1-0.2-0.1-0.3c0-0.1,0-0.2-0.1-0.3c0-0.1,0-0.1,0-0.2c0,0,0-0.1,0-0.1c0,0,0.1-0.1,0.2-0.1
					c0.2-0.1,0.3-0.1,0.5-0.1l0.1,0c0.3,0,0.5,0.1,0.7,0.2c0.5,0.3,0.8,0.9,0.9,1.8c0,0.2,0,0.5,0,0.8c0,0.4,0,0.8-0.1,1.2
					c-0.1,0.8-0.2,1.7-0.4,2.5c-0.2,0.9-0.6,2-1.2,3.3c-0.6,1.3-1.2,2.4-1.7,3.4c-1.5,2.4-2.8,3.9-3.9,4.2c-0.3,0.1-0.6,0.2-0.8,0.2
					c-0.2,0-0.4,0-0.5,0C46.2,31.2,45.9,31.1,45.7,31.1z"/>
				
					<linearGradient id="SVGID_00000129169223183428358520000015910418543817033616_" gradientUnits="userSpaceOnUse" x1="18.2096" y1="-16.544" x2="84.6228" y2="52.3897">
					<stop  offset="0" style="stop-color:#2BA6DE"/>
					<stop  offset="1" style="stop-color:#293E8F"/>
				</linearGradient>
				<path style="fill:url(#SVGID_00000129169223183428358520000015910418543817033616_);" d="M61.8,23.2c-0.3,0.7-0.6,1.4-0.9,2.1
					c-0.3,0.8-0.5,1.3-0.6,1.7c-0.1,0.3-0.1,0.5-0.1,0.7c0,0.2,0,0.4,0.1,0.5l0.1,0.2l-0.1,0.2c-0.1,0.1-0.3,0.2-0.5,0.3
					c-0.1,0-0.2,0-0.3,0c-0.1,0-0.2,0-0.3,0c-0.3-0.1-0.5-0.3-0.7-0.5c0-0.1-0.1-0.2-0.1-0.4c0-0.2,0-0.4,0-0.7l0-0.8l-0.2,0.1
					c-0.1,0-0.2,0.1-0.3,0.2c-0.1,0.1-0.3,0.2-0.5,0.4c-0.8,0.6-1.5,1-2.1,1.2c-0.1,0-0.2,0-0.3,0l-0.1,0c-0.3,0-0.6-0.1-0.9-0.3
					c-0.3-0.2-0.5-0.5-0.7-0.9c-0.1-0.3-0.1-0.5-0.1-0.7c0-0.2,0-0.4,0.1-0.7c0.1-0.3,0.2-0.6,0.3-1c0.3-0.8,0.8-1.5,1.3-2.1
					c0.3-0.3,0.5-0.5,0.7-0.7c0.2-0.1,0.4-0.3,0.6-0.4c0.3-0.2,0.7-0.3,0.9-0.4c0.2,0,0.4-0.1,0.7,0c0.1,0,0.3,0,0.4,0
					c0.8,0.1,1.4,0.3,1.8,0.6l0.2,0.2l0.3-0.2c0.1,0,0.1-0.1,0.2-0.1c0.1,0,0.1,0,0.2-0.1c0.1,0,0.2,0,0.4,0c0.6,0,0.9,0.2,1,0.4
					l0,0c0,0.1,0,0.2-0.1,0.4C62.1,22.5,62,22.8,61.8,23.2z M58.9,23.7l0.4-0.5l-0.2-0.3c-0.2-0.5-0.5-0.8-0.9-0.8
					c-0.4,0-0.8,0.3-1.3,0.9c-0.5,0.6-0.9,1.2-1.2,1.9c-0.3,0.7-0.5,1.3-0.5,1.8l0,0c0,0.1,0,0.2,0,0.2c0,0,0,0,0,0
					c0,0,0.1,0,0.2-0.1c0.1-0.1,0.3-0.2,0.6-0.4c0,0,0,0,0.1-0.1c0.3-0.3,0.8-0.7,1.3-1.2C58,24.7,58.5,24.2,58.9,23.7z"/>
				
					<linearGradient id="SVGID_00000073711834584679265530000010674020965756319140_" gradientUnits="userSpaceOnUse" x1="22.2298" y1="-20.4172" x2="88.6431" y2="48.5164">
					<stop  offset="0" style="stop-color:#2BA6DE"/>
					<stop  offset="1" style="stop-color:#293E8F"/>
				</linearGradient>
				<path style="fill:url(#SVGID_00000073711834584679265530000010674020965756319140_);" d="M62.6,27.5c-0.1,0-0.2-0.1-0.3-0.1
					c-0.1-0.1-0.2-0.1-0.2-0.2C62,27.1,62,27,62,27s0-0.1,0-0.2c0-0.1,0-0.3,0-0.5c0-0.5,0.1-1.1,0.3-1.9c0.2-0.8,0.4-1.5,0.7-2.1
					c0.3-0.7,0.5-1.1,0.6-1.2c0.2-0.1,0.4-0.1,0.6-0.1c0.3,0,0.5,0.1,0.6,0.2c0.1,0.1,0.2,0.2,0.2,0.4c0,0.2-0.1,0.5-0.2,0.9
					c-0.1,0.3-0.2,0.6-0.3,1c-0.1,0.4-0.2,0.9-0.3,1.3c-0.1,0.4-0.2,0.8-0.3,1.1c-0.1,0.3-0.1,0.5-0.1,0.5c0,0,0.2-0.1,0.4-0.3
					c0.2-0.2,0.5-0.5,0.8-0.9c0.3-0.3,0.5-0.6,0.7-0.9c0.3-0.5,0.6-0.9,0.8-1.2c0.2-0.3,0.4-0.7,0.5-1.2c0.1-0.4,0.3-0.6,0.4-0.7
					c0.1-0.1,0.3-0.2,0.4-0.1l0.1,0c0.3,0,0.5,0.2,0.5,0.5c0,0.5-0.2,1.1-0.7,1.8c-0.5,1-1.2,1.9-1.9,2.6c-1,1.1-1.9,1.7-2.7,1.6
					C63,27.6,62.8,27.6,62.6,27.5z M62.6,27.5c-0.1,0-0.2-0.1-0.3-0.1c-0.1-0.1-0.2-0.1-0.2-0.2C62,27.1,62,27,62,27s0-0.1,0-0.2
					c0-0.1,0-0.3,0-0.5c0-0.5,0.1-1.1,0.3-1.9c0.2-0.8,0.4-1.5,0.7-2.1c0.3-0.7,0.5-1.1,0.6-1.2c0.2-0.1,0.4-0.1,0.6-0.1
					c0.3,0,0.5,0.1,0.6,0.2c0.1,0.1,0.2,0.2,0.2,0.4c0,0.2-0.1,0.5-0.2,0.9c-0.1,0.3-0.2,0.6-0.3,1c-0.1,0.4-0.2,0.9-0.3,1.3
					c-0.1,0.4-0.2,0.8-0.3,1.1c-0.1,0.3-0.1,0.5-0.1,0.5c0,0,0.2-0.1,0.4-0.3c0.2-0.2,0.5-0.5,0.8-0.9c0.3-0.3,0.5-0.6,0.7-0.9
					c0.3-0.5,0.6-0.9,0.8-1.2c0.2-0.3,0.4-0.7,0.5-1.2c0.1-0.4,0.3-0.6,0.4-0.7c0.1-0.1,0.3-0.2,0.4-0.1l0.1,0
					c0.3,0,0.5,0.2,0.5,0.5c0,0.5-0.2,1.1-0.7,1.8c-0.5,1-1.2,1.9-1.9,2.6c-1,1.1-1.9,1.7-2.7,1.6C63,27.6,62.8,27.6,62.6,27.5z"/>
				
					<linearGradient id="SVGID_00000169521234346426916460000007172724370635608206_" gradientUnits="userSpaceOnUse" x1="24.8582" y1="-22.9495" x2="91.2715" y2="45.9841">
					<stop  offset="0" style="stop-color:#2BA6DE"/>
					<stop  offset="1" style="stop-color:#293E8F"/>
				</linearGradient>
				<path style="fill:url(#SVGID_00000169521234346426916460000007172724370635608206_);" d="M69.7,25.6c0,0.1-0.1,0.2-0.1,0.4
					c0,0.2-0.1,0.3-0.1,0.5c0,0.1,0,0.2,0,0.3c0,0.2,0,0.3,0,0.5c0,0.1,0.1,0.3,0.2,0.4c0,0,0.1,0.1,0.1,0.1l0,0c0,0,0.1,0,0.1,0
					c0.1,0,0.1,0,0.3-0.1c0.1,0,0.3-0.1,0.4-0.2c0.2-0.1,0.3-0.2,0.4-0.2c0.1-0.1,0.2-0.2,0.4-0.3c0.1-0.1,0.3-0.2,0.4-0.3
					c0.3-0.2,0.6-0.3,0.8-0.3c0.1,0,0.2,0,0.3,0.1c0.1,0,0.2,0.1,0.2,0.2s-0.1,0.2-0.2,0.4c-0.3,0.3-0.6,0.5-1,0.8
					c-0.4,0.2-0.8,0.4-1.2,0.5c-0.3,0.1-0.7,0.1-1,0.1c-0.4,0-0.8-0.1-1.1-0.2c-0.5-0.2-0.8-0.6-1-1.2c0-0.2-0.1-0.4-0.1-0.6
					c0-0.1,0-0.3,0.1-0.5c0-0.2,0.1-0.5,0.2-0.8c0.3-0.9,0.8-1.7,1.4-2.4c0.6-0.7,1.3-1.2,1.9-1.4c0.3-0.1,0.6-0.1,1-0.1
					c0.4,0,0.7,0.1,0.9,0.2c0.2,0.1,0.3,0.3,0.4,0.4c0.1,0.1,0.1,0.3,0.1,0.6l0,0.1c0,0.3-0.1,0.6-0.2,0.9c-0.1,0.3-0.3,0.5-0.6,0.8
					c-0.3,0.3-0.6,0.5-0.8,0.7c-0.2,0.1-0.6,0.3-0.9,0.4c-0.4,0.1-0.7,0.1-0.9,0.1l-0.1,0c-0.1,0-0.1,0-0.2,0c0,0-0.1,0-0.1,0.1
					S69.7,25.5,69.7,25.6z M70.3,24.2l-0.2,0.3l0.2,0c0,0,0.1,0,0.2,0c0.1,0,0.2-0.1,0.2-0.1c0.5-0.2,0.8-0.6,1.1-1
					c0.3-0.4,0.4-0.7,0.4-1c0-0.1,0-0.1,0-0.2c0-0.1,0-0.1,0-0.2c0,0,0,0,0,0c0,0-0.1,0-0.1,0c-0.2,0.1-0.5,0.4-0.9,0.9
					C70.9,23.4,70.6,23.8,70.3,24.2z"/>
				
					<linearGradient id="SVGID_00000109009740130021933870000006580659073614394301_" gradientUnits="userSpaceOnUse" x1="28.1066" y1="-26.0792" x2="94.5199" y2="42.8545">
					<stop  offset="0" style="stop-color:#2BA6DE"/>
					<stop  offset="1" style="stop-color:#293E8F"/>
				</linearGradient>
				<path style="fill:url(#SVGID_00000109009740130021933870000006580659073614394301_);" d="M74.7,28.6c-0.2-0.1-0.5-0.2-0.7-0.4
					c-0.1-0.1-0.2-0.2-0.3-0.3c-0.1-0.1-0.2-0.2-0.2-0.4c0-0.2,0-0.3,0-0.5c0-0.1,0-0.2,0-0.3c0-0.3,0.1-0.5,0.3-0.7
					c0.2-0.2,0.3-0.3,0.5-0.3c0.2,0,0.3,0,0.3,0c0.2,0,0.4,0.1,0.5,0.2c0,0,0.1,0,0.1,0.1c0,0,0,0,0,0.1c0,0,0,0,0,0.1
					c0,0,0,0.1-0.1,0.2C75,26.5,75,26.7,75,26.8c0,0.1,0,0.1,0,0.2c0,0.2,0.1,0.4,0.2,0.6c0.1,0.1,0.2,0.2,0.3,0.2
					c0.1,0,0.1,0,0.1,0c0.1,0,0.2-0.1,0.3-0.2c0.1-0.1,0.1-0.1,0.2-0.2c0.1-0.1,0.1-0.2,0.1-0.3c0-0.1,0.1-0.3,0.1-0.5
					c0-0.5,0-1.2-0.2-2.1C76,24,76,23.5,76,23.2l0-0.1c0-0.3,0.1-0.6,0.2-0.8c0.4-0.7,1.1-1,2.1-1c0.2,0,0.4,0,0.6,0
					c0.2,0,0.3,0,0.3-0.1c0.1,0,0.2-0.1,0.4-0.1c0.1,0,0.3,0,0.4,0.1c0.1,0.1,0.2,0.2,0.2,0.3c0,0.1,0,0.2-0.1,0.3
					c0,0.1-0.1,0.2-0.2,0.3c-0.1,0.1-0.1,0.3-0.2,0.5c-0.1,0.2-0.2,0.3-0.2,0.4c-0.1,0.1-0.1,0.2-0.2,0.3c-0.1,0.2-0.3,0.2-0.6,0.2
					c-0.1,0-0.2,0-0.2,0c-0.2,0-0.3-0.1-0.3-0.1c0-0.1,0-0.1,0-0.1c0-0.1,0.1-0.3,0.2-0.6c0.1-0.1,0.1-0.3,0.1-0.4
					c0-0.1,0.1-0.2,0.1-0.2c0,0,0,0-0.1,0c-0.1,0-0.1,0-0.2,0c-0.1,0-0.1,0.1-0.2,0.1c-0.3,0.2-0.4,0.6-0.4,1.3c0,0.4,0,0.9,0.1,1.4
					c0.1,0.7,0.1,1.3,0.1,1.7c0,0.4-0.1,0.7-0.1,0.9c-0.2,0.5-0.6,0.8-1,1c-0.4,0.1-0.8,0.2-1.2,0.2C75.3,28.7,75,28.7,74.7,28.6
					C74.7,28.6,74.7,28.6,74.7,28.6z M74.7,28.6c-0.2-0.1-0.5-0.2-0.7-0.4c-0.1-0.1-0.2-0.2-0.3-0.3c-0.1-0.1-0.2-0.2-0.2-0.4
					c0-0.2,0-0.3,0-0.5c0-0.1,0-0.2,0-0.3c0-0.3,0.1-0.5,0.3-0.7c0.2-0.2,0.3-0.3,0.5-0.3c0.2,0,0.3,0,0.3,0c0.2,0,0.4,0.1,0.5,0.2
					c0,0,0.1,0,0.1,0.1c0,0,0,0,0,0.1c0,0,0,0,0,0.1c0,0,0,0.1-0.1,0.2C75,26.5,75,26.7,75,26.8c0,0.1,0,0.1,0,0.2
					c0,0.2,0.1,0.4,0.2,0.6c0.1,0.1,0.2,0.2,0.3,0.2c0.1,0,0.1,0,0.1,0c0.1,0,0.2-0.1,0.3-0.2c0.1-0.1,0.1-0.1,0.2-0.2
					c0.1-0.1,0.1-0.2,0.1-0.3c0-0.1,0.1-0.3,0.1-0.5c0-0.5,0-1.2-0.2-2.1C76,24,76,23.5,76,23.2l0-0.1c0-0.3,0.1-0.6,0.2-0.8
					c0.4-0.7,1.1-1,2.1-1c0.2,0,0.4,0,0.6,0c0.2,0,0.3,0,0.3-0.1c0.1,0,0.2-0.1,0.4-0.1c0.1,0,0.3,0,0.4,0.1
					c0.1,0.1,0.2,0.2,0.2,0.3c0,0.1,0,0.2-0.1,0.3c0,0.1-0.1,0.2-0.2,0.3c-0.1,0.1-0.1,0.3-0.2,0.5c-0.1,0.2-0.2,0.3-0.2,0.4
					c-0.1,0.1-0.1,0.2-0.2,0.3c-0.1,0.2-0.3,0.2-0.6,0.2c-0.1,0-0.2,0-0.2,0c-0.2,0-0.3-0.1-0.3-0.1c0-0.1,0-0.1,0-0.1
					c0-0.1,0.1-0.3,0.2-0.6c0.1-0.1,0.1-0.3,0.1-0.4c0-0.1,0.1-0.2,0.1-0.2c0,0,0,0-0.1,0c-0.1,0-0.1,0-0.2,0
					c-0.1,0-0.1,0.1-0.2,0.1c-0.3,0.2-0.4,0.6-0.4,1.3c0,0.4,0,0.9,0.1,1.4c0.1,0.7,0.1,1.3,0.1,1.7c0,0.4-0.1,0.7-0.1,0.9
					c-0.2,0.5-0.6,0.8-1,1c-0.4,0.1-0.8,0.2-1.2,0.2C75.3,28.7,75,28.7,74.7,28.6C74.7,28.6,74.7,28.6,74.7,28.6z"/>
			</g>
		</g>
		
			<linearGradient id="SVGID_00000030453327345739836170000018078445015319294104_" gradientUnits="userSpaceOnUse" x1="-0.4902" y1="1.4721" x2="65.923" y2="70.4058">
			<stop  offset="0" style="stop-color:#2BA6DE"/>
			<stop  offset="1" style="stop-color:#293E8F"/>
		</linearGradient>
		<path style="fill-rule:evenodd;clip-rule:evenodd;fill:url(#SVGID_00000030453327345739836170000018078445015319294104_);" d="
			M30.8,15.2C30.8,15.2,30.8,15.2,30.8,15.2C30.8,15.2,30.8,15.2,30.8,15.2c-0.4-0.2-0.9-0.4-1.1-0.2c0,0,0,0,0,0
			c0,0-0.1,0.1-0.1,0.2c0,0.1,0,0.1,0.1,0.1c0,0,0.1,0,0.1,0.1c0.2,0.1,0.7,0.1,1.1-0.1c0,0,0,0,0,0C30.9,15.3,30.9,15.2,30.8,15.2z
			 M30.8,15.2C30.8,15.2,30.8,15.2,30.8,15.2C30.8,15.2,30.8,15.2,30.8,15.2c-0.4-0.2-0.9-0.4-1.1-0.2c0,0,0,0,0,0
			c0,0-0.1,0.1-0.1,0.2c0,0.1,0,0.1,0.1,0.1c0,0,0.1,0,0.1,0.1c0.2,0.1,0.7,0.1,1.1-0.1c0,0,0,0,0,0C30.9,15.3,30.9,15.2,30.8,15.2z
			 M30.8,15.2C30.8,15.2,30.8,15.2,30.8,15.2C30.8,15.2,30.8,15.2,30.8,15.2c-0.4-0.2-0.9-0.4-1.1-0.2c0,0,0,0,0,0
			c0,0-0.1,0.1-0.1,0.2c0,0.1,0,0.1,0.1,0.1c0,0,0.1,0,0.1,0.1c0.2,0.1,0.7,0.1,1.1-0.1c0,0,0,0,0,0C30.9,15.3,30.9,15.2,30.8,15.2z
			 M38.3,18.8C38.3,18.8,38.3,18.8,38.3,18.8c-0.7-0.7-1.5-1.2-2.2-1.9c-0.2-0.2-0.1-0.3,0-0.5c0.6-0.8,0.2-1.8-0.4-2.6
			c-2.3-3-5.3-4.5-9.3-5.7c-0.7-0.2-1.4-0.6-2.1-1.1c-2.5-1.5-4.9-2.8-7.5-2.1c-0.4,0-0.4,0.2-0.2,0.3C17.7,5.6,18.3,6,19,6.6
			c1.2,1,0.5,1.3-0.4,1.6c-7.5,2.4-10.2,8.8-10.4,15.3c-0.1,1.4,0.3,3.2-0.7,4.1c-1.3,1-2.1,2.6-2.2,4.7v0c0,0.1,0,0.3,0,0.4
			C6,31.6,6.9,30.9,8,30.5c0.8-0.2,1.9-0.7,2-1.4c0.5,0.4,1.5,0.5,2,0.1c1-0.5,1.8-0.5,2.5-0.3c-0.7-1.5-2-1.9-3.7-2.4
			c-0.2-0.1-0.6-0.4-0.6-0.8c0.3-5.6,4.3-9.9,9.7-9.5l0.2,0.1c-0.4,1.7-0.9,3.6-2,4.9c-0.2,0.2-0.2,0.3-0.1,0.3
			c2.1-0.2,3.7-1.6,5.2-3.2l1-1.2l1.3,0.3c1.3,0.3,2.7,0.6,4.1,0.5c1.8-0.1,3.8,0.1,5.4,1.1c0.8,0.6,2,0.8,2.9,0.7
			C38.7,19.7,38.7,19.2,38.3,18.8z M11,15c0.5-0.8,0.9-1.5,1.5-2.1c0.3-0.3,0.5,0,0.3,0.2c-0.6,0.6-1.2,1.3-1.6,2.1
			C11.1,15.4,10.9,15.2,11,15z M38.4,19.5c-0.1,0.1-0.2,0.1-0.3,0.1c-0.6,0.1-1.3,0.1-1.8-0.1c-0.4-0.1-0.7-0.3-1-0.5
			c-1.6-1-3.6-1.2-5.5-1.1c-1.4-0.1-2.7-0.2-4-0.5l-1.3-0.3l0,0l0.5-0.4v0c0,0,0-0.1,0-0.1c0,0,0,0,0,0c0,0-0.1,0-0.1,0
			c-0.1,0.1-0.2,0.2-0.3,0.3c-0.1,0.1-0.2,0.2-0.3,0.3c-0.6,0.6-1.1,1.1-1.7,1.5c-0.1,0.1-0.2,0.1-0.2,0c0,0,0-0.1,0-0.2
			c0.2-0.2,0.4-0.4,0.6-0.5c0.5-0.5,0.9-1,1.3-1.5c0.1-0.1,0.1-0.2,0.2-0.3h0c-1.4-0.8-2.5-0.9-3.4-0.4l-0.6,0.5l-0.6,0
			c-0.1,0-0.2,0-0.3,0c-2.6-0.1-4.7,0.9-6.3,2.5c-0.2,0.2-0.4,0.5-0.6,0.7l0,0.1c0,0.1-0.1,0.1-0.1,0.2c-0.1,0.1-0.2,0.2-0.3,0.3
			c0,0,0,0,0,0c-0.3,0.3-0.5,0.7-0.7,1.1c-0.1,0.1-0.1,0.2-0.2,0.4c-0.1,0.2-0.2,0.3-0.3,0.5c-0.1,0.1-0.1,0.2-0.2,0.3
			c-0.1,0.1-0.1,0.2-0.2,0.3c0,0.1-0.1,0.1-0.1,0.2c-0.1,0.1-0.2,0.1-0.3,0c0,0-0.1,0-0.1,0c-0.1-0.1-0.1-0.2-0.2-0.4
			c0.2-1.3,0.5-2.3,0.9-3.3c0.1-0.2,0.2-0.4,0.3-0.6c0,0,0,0,0,0c0.1-0.1,0.1-0.3,0.2-0.4c0,0,0,0,0,0c0.1-0.1,0.1-0.2,0.2-0.4v0
			c0.1-0.1,0.2-0.2,0.2-0.3c0,0,0,0,0,0c0.2-0.2,0.3-0.4,0.5-0.6c0.1-0.1,0.2-0.2,0.3-0.3c1.3-1.3,2.9-2.1,4.7-2.6
			c0.3-0.1,0.5-0.1,0.8-0.2c0.3-0.1,0.5-0.1,0.8-0.2c0.1,0,0.2,0,0.2-0.1c0,0,0-0.1,0-0.1c0,0-0.1,0-0.1-0.1c-0.7,0-1.4,0.1-2.1,0.3
			c-0.2,0-0.3,0.1-0.5,0.1c-1.6,0.5-3.1,1.3-4.6,2.5c-0.1,0.1-0.2,0.1-0.2,0c0,0,0-0.1,0-0.2c0.3-0.4,0.6-0.7,0.9-1
			c2.8-2.8,7.1-4,10.8-3.3c0.7,0.1,1.4,0.3,2,0.6c0.1,0,0.2,0.1,0.3,0.2c0.1,0.1,0.1,0.2,0.1,0.3c-0.1,0.1-0.2,0.1-0.3,0.1
			c-1.2-0.2-2.3-0.2-3.4-0.3c0,0,0,0,0,0c0,0-0.1,0-0.1,0c0,0,0,0.1,0,0.2c0,0,0.1,0.1,0.1,0.1c2.4,0.3,4.9,0.5,6.6,1.1
			c0.1,0,0.3,0.1,0.4,0.2c0.3,0.1,0.5,0.2,0.7,0.4c0.2,0.2,0.4,0.3,0.8,0.5c0,0,0.1,0,0.1,0c0.1,0,0.2,0,0.2,0.1
			c0.1,0,0.2,0.1,0.2,0.1c0.4,0.2,0.8,0.4,1.2,0.7c0,0,0,0,0,0c0,0,0,0,0,0c0,0.1,0,0.1,0,0.1c0,0,0,0-0.1,0c-0.2,0-0.6,0.1-0.9,0.2
			c0,0,0,0,0,0c-0.1,0,0,0.1,0,0.1c0,0,0.1,0.1,0.2,0.1c0.6,0.2,1.1,0.3,1.7,0.6c0.1,0,0.2,0.1,0.3,0.1c0.1,0,0.2,0.1,0.3,0.2
			c0.7,0.5,1.4,0.9,2.2,1.2c0.4,0.2,1,0.6,1.4,0.3c0.2-0.2,0.6-0.2,0.8,0C38.4,19.1,38.5,19.4,38.4,19.5z M30.8,15.2
			C30.8,15.2,30.8,15.2,30.8,15.2c-0.4-0.2-0.9-0.4-1.1-0.2c0,0,0,0,0,0c0,0-0.1,0.1-0.1,0.2c0,0.1,0,0.1,0.1,0.1c0,0,0.1,0,0.1,0.1
			c0.2,0.1,0.7,0.1,1.1-0.1c0,0,0,0,0,0C30.9,15.3,30.9,15.2,30.8,15.2C30.8,15.2,30.8,15.2,30.8,15.2z M30.8,15.2
			C30.8,15.2,30.8,15.2,30.8,15.2C30.8,15.2,30.8,15.2,30.8,15.2c-0.4-0.2-0.9-0.4-1.1-0.2c0,0,0,0,0,0c0,0-0.1,0.1-0.1,0.2
			c0,0.1,0,0.1,0.1,0.1c0,0,0.1,0,0.1,0.1c0.2,0.1,0.7,0.1,1.1-0.1c0,0,0,0,0,0C30.9,15.3,30.9,15.2,30.8,15.2z M30.8,15.2
			C30.8,15.2,30.8,15.2,30.8,15.2C30.8,15.2,30.8,15.2,30.8,15.2c-0.4-0.2-0.9-0.4-1.1-0.2c0,0,0,0,0,0c0,0-0.1,0.1-0.1,0.2
			c0,0.1,0,0.1,0.1,0.1c0,0,0.1,0,0.1,0.1c0.2,0.1,0.7,0.1,1.1-0.1c0,0,0,0,0,0C30.9,15.3,30.9,15.2,30.8,15.2z M30.8,15.2
			C30.8,15.2,30.8,15.2,30.8,15.2C30.8,15.2,30.8,15.2,30.8,15.2c-0.4-0.2-0.9-0.4-1.1-0.2c0,0,0,0,0,0c0,0-0.1,0.1-0.1,0.2
			c0,0.1,0,0.1,0.1,0.1c0,0,0.1,0,0.1,0.1c0.2,0.1,0.7,0.1,1.1-0.1c0,0,0,0,0,0C30.9,15.3,30.9,15.2,30.8,15.2z"/>
	</g>
</g>
</svg>
