<svg width="56" height="49" viewBox="0 0 56 49" fill="none" xmlns="http://www.w3.org/2000/svg">
<path d="M48.3345 35.2589C48.1565 35.989 47.84 36.6418 47.1577 37.14C46.4456 37.664 45.6248 37.8616 44.715 37.8616C36.3785 37.8616 28.0321 37.8616 19.6955 37.8616C16.9464 37.8616 14.1972 37.8616 11.448 37.8616C10.0042 37.8616 8.88671 37.3376 8.26369 36.1952C8.03624 35.7828 7.91757 35.2932 7.91757 34.8465C7.90768 28.0777 7.90768 21.3089 7.91757 14.5486C7.91757 12.7619 9.39105 11.525 11.4974 11.525C21.2283 11.525 30.9691 11.525 40.7001 11.525C42.045 11.525 43.38 11.5422 44.7249 11.5164C46.6138 11.4821 48.0477 12.573 48.285 13.9989C48.2949 14.0418 48.3246 14.0848 48.3345 14.1277C48.3345 21.1714 48.3345 28.2152 48.3345 35.2589ZM10.9239 13.0282C11.0425 13.1399 11.0821 13.1743 11.1118 13.2C16.353 17.3489 21.5844 21.5065 26.8355 25.6468C27.7156 26.3426 28.5562 26.3168 29.466 25.6038C34.638 21.5065 39.81 17.4091 44.9821 13.3117C45.0809 13.2344 45.1897 13.1829 45.2985 13.1141C45.2787 13.0798 45.2491 13.0454 45.2293 13.0111C33.8271 13.0282 22.4249 13.0282 10.9239 13.0282ZM31.9976 25.5866C31.4735 25.999 31.0285 26.3511 30.5934 26.6862C30.0198 27.1328 29.377 27.4764 28.5859 27.5709C27.4288 27.7084 26.4795 27.339 25.6389 26.6776C25.1939 26.3254 24.7489 25.9818 24.2346 25.5781C19.7746 29.1515 15.3443 32.6991 10.9041 36.2467C10.9239 36.2811 10.9436 36.3154 10.9733 36.3412C22.4052 36.3412 33.8271 36.3412 45.2589 36.3412C45.2787 36.3068 45.2985 36.2725 45.3183 36.2381C40.8879 32.7077 36.4576 29.16 31.9976 25.5866ZM9.70751 14.059C9.51961 14.6088 9.54928 34.9239 9.70751 35.2331C14.1279 31.6941 18.5484 28.155 22.9886 24.5988C18.5879 21.1027 14.1675 17.5981 9.70751 14.059ZM33.2535 24.5988C37.7036 28.1636 42.1241 31.7112 46.5544 35.2503C46.7324 34.7521 46.6929 14.4284 46.505 14.0848C42.0845 17.5981 37.6641 21.1027 33.2535 24.5988Z" fill="#072C50"/>
</svg>
