<?xml version="1.0" encoding="UTF-8"?>
<svg xmlns="http://www.w3.org/2000/svg" version="1.1" viewBox="0 0 1054.6 131.2">
  <defs>
    <style>
      .cls-1 {
        fill: #0679bd;
      }
    </style>
  </defs>
  <!-- Generator: Adobe Illustrator 28.7.5, SVG Export Plug-In . SVG Version: 1.2.0 Build 176)  -->
  <g>
    <g id="Layer_2">
      <g>
        <g>
          <path class="cls-1" d="M872.9,40c-1.2,0-1.8.3-2.3,1.5-1.5,3.9-3.2,7.8-4.8,11.7-.3.8-.7,1.6-1.3,2.8-2.3-5-4.4-9.6-6.6-14.2-.3-.6-.9-1.4-1.4-1.5-2.6-.2-5.3,0-8.1,0v21.1c-.6-.3-.8-.7-1-1.2-2-4.7-4-9.5-6-14.2-.8-1.9-1.2-4.6-2.7-5.5-1.6-1-4.2-.3-6.4-.4-.2,0-.5,0-.6,0-.5.3-1.3.6-1.5,1-3,7-6,14.1-9,21.1,0,.2,0,.4,0,.8,1.5,0,3,0,4.5,0,.5,0,1.2-.5,1.3-.9.8-4,3.7-4.4,7-4,.9.1,1.9.2,2.8,0,2.8-.5,4.3.7,5,3.2.2.6.9,1.6,1.4,1.6,3.5.2,6.9,0,10.5,0v-17.4c.5.4.8.8,1,1.3,2.1,4.8,4.3,9.7,6.3,14.5.5,1.1,1,1.8,2.4,1.6,1.3-.2,2.9.6,3.7-1.5,2-4.8,4.2-9.6,6.3-14.3.2-.6.5-1.1.8-1.6.2,0,.3.1.5.2v17.2h5.1v-22.9c-2.5,0-4.9,0-7.2,0h0ZM831.2,53.1c1.2-3,2.3-5.9,3.6-9.3,1.3,3.3,2.4,6.2,3.7,9.3h-7.3Z"/>
          <polygon class="cls-1" points="903.1 63.3 884.9 63.3 884.9 40.1 903 40.1 903 44.6 890.2 44.6 890.2 49.2 902.6 49.2 902.6 53.6 890.3 53.6 890.3 58.4 903.1 58.4 903.1 63.3"/>
          <path class="cls-1" d="M925,52.2c.2-.2.4-.4.6-.5,2.8-2.2,3.8-5,2.7-8-1.1-3-3.6-3.7-6.4-3.6-.6,0-1.2,0-1.8,0h-12.9v22.9h5.5v-8c2.2,0,4.3,0,6.4,0,3.3,0,4.3,1,4.5,4.3,0,1.3,0,2.5,0,3.8h4.8c.9-5.5,0-8.4-3.2-10.7ZM920.7,50.2c-2.6.1-5.3,0-8,0v-5.3c2.8,0,5.6,0,8.3,0,1.3,0,2.1.8,2,2.3-.1,1.5-.5,2.9-2.3,3Z"/>
          <rect class="cls-1" x="932.7" y="40" width="5.1" height="22.9"/>
          <path class="cls-1" d="M997.2,40.3v15.4c-.7-.5-1.1-1.1-1.4-1.6-2.5-4.2-4.9-8.3-7.4-12.4-.3-.6-1-1.3-1.5-1.3-2.4-.2-4.8,0-7.4,0v21.4c-.7-.6-1-1.2-1.3-1.9-1.9-4.5-3.8-9-5.6-13.5-.8-1.9-1.2-4.6-2.7-5.6-1.6-1-4.2-.2-6.3-.3-1.3,0-1.9.4-2.4,1.6-2,5.1-4.2,10.1-6.4,15.2-.2.5-.5,1.2-1,1.4-3.2,1.2-7-.9-7.5-4.2-.3-1.9,0-3.9.3-5.8.4-2,1.8-3.1,3.9-3.3,2.2-.2,4.4-.4,6.7-.6v-4.3c-2.9,0-5.6-.2-8.3,0-3.6.3-5.9,2.5-7,5.9-1.2,3.4-1.2,6.9-.3,10.4.9,3.7,3.5,5.8,7.1,6.4,1.7.3,3.5.4,5.3.4,4,0,4.1,0,5.5-3.8.5-1.3,1.1-1.6,2.4-1.6,2.1,0,4.2,0,6.3,0,3.7,0,3.6,0,5,3.3.3.6.8,1.5,1.3,1.5,3.4.1,6.8,0,10.5,0v-16.8c.8.5,1.2,1,1.5,1.6,2.8,4.7,5.6,9.3,8.5,14,.3.5,1,1.2,1.6,1.2,2.1.2,4.2,0,6.3,0v-22.7h-5.5ZM962,53.1c1.3-3.1,2.5-6,4-9.5,1.4,3.5,2.5,6.4,3.7,9.5h-7.7Z"/>
          <path class="cls-1" d="M921.1,80.1c-5.7-.4-11.4-.2-17.1-.4-2.1,0-3.7.4-5,2.2-1.5,2-3.3,3.7-5.1,5.7-2.1-2.3-4-4.3-5.8-6.4-.9-1-1.8-1.4-3.1-1.4-4.2,0-8.4,0-12.7,0h-6.9v23c.3,0,.5.2.7.2,6.5,0,12.9,0,19.4,0,.7,0,1.5-.6,2-1.1,2.1-2.1,4.1-4.3,6.3-6.6,2,2.2,3.8,4.4,5.8,6.5.5.5,1.1,1.1,1.8,1.2,3.2.1,6.4,0,9.9,0,0-2.4,0-4.6,0-6.8,0-1.5.5-2,2.1-1.9,2.4,0,4.9,0,7.3-.2,4.2-.2,6.7-2.8,6.9-7.1.2-4.2-1.8-6.6-6.3-6.9h0ZM884.3,97.6c-.4.4-1,.7-1.5.8-4.1,0-8.3,0-12.5,0v-5.1h12v-4.5h-12v-4.5c3.3,0,6.7.2,10.1,0,2.7-.2,4.7.6,6.2,2.8,1,1.5,2.3,2.8,3.6,4.3-1.9,2.2-3.8,4.2-5.7,6.3ZM905.4,101c-3-3.4-5.8-6.4-8.6-9.6,2.8-3.1,5.6-6,8.6-9.3v18.9ZM918.3,90.4c-2.3,0-4.6,0-7,0v-6.1c2.5,0,4.8,0,7.1,0,2.1,0,3.7,1.6,3.5,3.4,0,1.6-1.5,2.7-3.6,2.7h0ZM948.1,92c.8-.7,1.4-1.1,2-1.7,1.8-1.9,2.1-4.2,1.5-6.6-.6-2.1-2.2-3.8-4.3-3.9-5.7-.2-11.4,0-17.2,0v22.9h5.3v-8.4c2.7,0,5.2-.1,7.6,0,2.4.2,3.3,1.3,3.4,3.7,0,1.5,0,3.1,0,4.7h5.5c-.4-4,1.5-8.5-3.8-10.7ZM946.2,87.1c-.2,1.4-.2,2.8-2.2,2.8-2.6,0-5.3,0-8.2,0v-5.2c2.8,0,5.7,0,8.5,0,1.3,0,2,.9,1.8,2.4ZM961,98.1v-4.9h12.3v-4.5h-12.3v-4.4h12.7v-4.8h-18.1v23.2h18.2v-4.6h-12.7ZM991.1,89.1c-2-.3-4-.3-6.1-.4-1.5,0-2.8-.5-2.9-2.2,0-1.8,1.4-1.8,2.8-1.8,3.5,0,6.9,0,10.4,0v-5.3c-4.4,0-8.8-.2-13.1,0-3.2.2-5.6,3.1-5.6,6.3,0,3.3,1,5.9,4.9,6.7,2.2.4,4.6.6,6.8.8,1.5.2,2.5.8,2.5,2.4,0,1.6-1,2.3-2.5,2.4-.7,0-1.5,0-2.2,0h-8.7v4.5c4.6,0,9,.2,13.4,0,3.6-.3,5.4-2.9,5.4-6.7,0-4.1-1.4-6.1-5.2-6.7h0ZM1018.3,94.4c-.4-2.9-1.7-4.8-4.8-5.2-2.3-.2-4.6-.3-6.9-.5-1.3-.1-2.7-.4-2.7-2.1,0-1.7,1.3-2,2.7-1.9,3.4,0,6.9,0,10.4,0v-5.3c-4.5,0-8.8-.2-13,0-3.3.2-5.6,3-5.7,6.2-.2,3.9,1.3,6.1,5.1,6.9,2.1.5,4.3.4,6.4.8.9.2,1.9.8,2.4,1.5.3.5.1,1.8-.3,2.3-.6.6-1.7.9-2.5.9-3.4.1-6.8,0-10.2,0v4.6c3.8,0,7.4.2,11,0,1.8-.1,3.8-.6,5.3-1.5,2.4-1.4,3.1-3.9,2.8-6.7h0ZM1018.3,94.4c-.4-2.9-1.7-4.8-4.8-5.2-2.3-.2-4.6-.3-6.9-.5-1.3-.1-2.7-.4-2.7-2.1,0-1.7,1.3-2,2.7-1.9,3.4,0,6.9,0,10.4,0v-5.3c-4.5,0-8.8-.2-13,0-3.3.2-5.6,3-5.7,6.2-.2,3.9,1.3,6.1,5.1,6.9,2.1.5,4.3.4,6.4.8.9.2,1.9.8,2.4,1.5.3.5.1,1.8-.3,2.3-.6.6-1.7.9-2.5.9-3.4.1-6.8,0-10.2,0v4.6c3.8,0,7.4.2,11,0,1.8-.1,3.8-.6,5.3-1.5,2.4-1.4,3.1-3.9,2.8-6.7h0ZM991.1,89.1c-2-.3-4-.3-6.1-.4-1.5,0-2.8-.5-2.9-2.2,0-1.8,1.4-1.8,2.8-1.8,3.5,0,6.9,0,10.4,0v-5.3c-4.4,0-8.8-.2-13.1,0-3.2.2-5.6,3.1-5.6,6.3,0,3.3,1,5.9,4.9,6.7,2.2.4,4.6.6,6.8.8,1.5.2,2.5.8,2.5,2.4,0,1.6-1,2.3-2.5,2.4-.7,0-1.5,0-2.2,0h-8.7v4.5c4.6,0,9,.2,13.4,0,3.6-.3,5.4-2.9,5.4-6.7,0-4.1-1.4-6.1-5.2-6.7h0ZM961,98.1v-4.9h12.3v-4.5h-12.3v-4.4h12.7v-4.8h-18.1v23.2h18.2v-4.6h-12.7ZM948.1,92c.8-.7,1.4-1.1,2-1.7,1.8-1.9,2.1-4.2,1.5-6.6-.6-2.1-2.2-3.8-4.3-3.9-5.7-.2-11.4,0-17.2,0v22.9h5.3v-8.4c2.7,0,5.2-.1,7.6,0,2.4.2,3.3,1.3,3.4,3.7,0,1.5,0,3.1,0,4.7h5.5c-.4-4,1.5-8.5-3.8-10.7ZM946.2,87.1c-.2,1.4-.2,2.8-2.2,2.8-2.6,0-5.3,0-8.2,0v-5.2c2.8,0,5.7,0,8.5,0,1.3,0,2,.9,1.8,2.4ZM921.1,80.1c-5.7-.4-11.4-.2-17.1-.4-2.1,0-3.7.4-5,2.2-1.5,2-3.3,3.7-5.1,5.7-2.1-2.3-4-4.3-5.8-6.4-.9-1-1.8-1.4-3.1-1.4-4.2,0-8.4,0-12.7,0h-6.9v23c.3,0,.5.2.7.2,6.5,0,12.9,0,19.4,0,.7,0,1.5-.6,2-1.1,2.1-2.1,4.1-4.3,6.3-6.6,2,2.2,3.8,4.4,5.8,6.5.5.5,1.1,1.1,1.8,1.2,3.2.1,6.4,0,9.9,0,0-2.4,0-4.6,0-6.8,0-1.5.5-2,2.1-1.9,2.4,0,4.9,0,7.3-.2,4.2-.2,6.7-2.8,6.9-7.1.2-4.2-1.8-6.6-6.3-6.9h0ZM884.3,97.6c-.4.4-1,.7-1.5.8-4.1,0-8.3,0-12.5,0v-5.1h12v-4.5h-12v-4.5c3.3,0,6.7.2,10.1,0,2.7-.2,4.7.6,6.2,2.8,1,1.5,2.3,2.8,3.6,4.3-1.9,2.2-3.8,4.2-5.7,6.3ZM905.4,101c-3-3.4-5.8-6.4-8.6-9.6,2.8-3.1,5.6-6,8.6-9.3v18.9ZM918.3,90.4c-2.3,0-4.6,0-7,0v-6.1c2.5,0,4.8,0,7.1,0,2.1,0,3.7,1.6,3.5,3.4,0,1.6-1.5,2.7-3.6,2.7h0ZM921.1,80.1c-5.7-.4-11.4-.2-17.1-.4-2.1,0-3.7.4-5,2.2-1.5,2-3.3,3.7-5.1,5.7-2.1-2.3-4-4.3-5.8-6.4-.9-1-1.8-1.4-3.1-1.4-4.2,0-8.4,0-12.7,0h-6.9v23c.3,0,.5.2.7.2,6.5,0,12.9,0,19.4,0,.7,0,1.5-.6,2-1.1,2.1-2.1,4.1-4.3,6.3-6.6,2,2.2,3.8,4.4,5.8,6.5.5.5,1.1,1.1,1.8,1.2,3.2.1,6.4,0,9.9,0,0-2.4,0-4.6,0-6.8,0-1.5.5-2,2.1-1.9,2.4,0,4.9,0,7.3-.2,4.2-.2,6.7-2.8,6.9-7.1.2-4.2-1.8-6.6-6.3-6.9h0ZM884.3,97.6c-.4.4-1,.7-1.5.8-4.1,0-8.3,0-12.5,0v-5.1h12v-4.5h-12v-4.5c3.3,0,6.7.2,10.1,0,2.7-.2,4.7.6,6.2,2.8,1,1.5,2.3,2.8,3.6,4.3-1.9,2.2-3.8,4.2-5.7,6.3ZM905.4,101c-3-3.4-5.8-6.4-8.6-9.6,2.8-3.1,5.6-6,8.6-9.3v18.9ZM918.3,90.4c-2.3,0-4.6,0-7,0v-6.1c2.5,0,4.8,0,7.1,0,2.1,0,3.7,1.6,3.5,3.4,0,1.6-1.5,2.7-3.6,2.7h0ZM948.1,92c.8-.7,1.4-1.1,2-1.7,1.8-1.9,2.1-4.2,1.5-6.6-.6-2.1-2.2-3.8-4.3-3.9-5.7-.2-11.4,0-17.2,0v22.9h5.3v-8.4c2.7,0,5.2-.1,7.6,0,2.4.2,3.3,1.3,3.4,3.7,0,1.5,0,3.1,0,4.7h5.5c-.4-4,1.5-8.5-3.8-10.7ZM946.2,87.1c-.2,1.4-.2,2.8-2.2,2.8-2.6,0-5.3,0-8.2,0v-5.2c2.8,0,5.7,0,8.5,0,1.3,0,2,.9,1.8,2.4ZM961,98.1v-4.9h12.3v-4.5h-12.3v-4.4h12.7v-4.8h-18.1v23.2h18.2v-4.6h-12.7ZM991.1,89.1c-2-.3-4-.3-6.1-.4-1.5,0-2.8-.5-2.9-2.2,0-1.8,1.4-1.8,2.8-1.8,3.5,0,6.9,0,10.4,0v-5.3c-4.4,0-8.8-.2-13.1,0-3.2.2-5.6,3.1-5.6,6.3,0,3.3,1,5.9,4.9,6.7,2.2.4,4.6.6,6.8.8,1.5.2,2.5.8,2.5,2.4,0,1.6-1,2.3-2.5,2.4-.7,0-1.5,0-2.2,0h-8.7v4.5c4.6,0,9,.2,13.4,0,3.6-.3,5.4-2.9,5.4-6.7,0-4.1-1.4-6.1-5.2-6.7h0ZM1018.3,94.4c-.4-2.9-1.7-4.8-4.8-5.2-2.3-.2-4.6-.3-6.9-.5-1.3-.1-2.7-.4-2.7-2.1,0-1.7,1.3-2,2.7-1.9,3.4,0,6.9,0,10.4,0v-5.3c-4.5,0-8.8-.2-13,0-3.3.2-5.6,3-5.7,6.2-.2,3.9,1.3,6.1,5.1,6.9,2.1.5,4.3.4,6.4.8.9.2,1.9.8,2.4,1.5.3.5.1,1.8-.3,2.3-.6.6-1.7.9-2.5.9-3.4.1-6.8,0-10.2,0v4.6c3.8,0,7.4.2,11,0,1.8-.1,3.8-.6,5.3-1.5,2.4-1.4,3.1-3.9,2.8-6.7h0ZM1018.3,94.4c-.4-2.9-1.7-4.8-4.8-5.2-2.3-.2-4.6-.3-6.9-.5-1.3-.1-2.7-.4-2.7-2.1,0-1.7,1.3-2,2.7-1.9,3.4,0,6.9,0,10.4,0v-5.3c-4.5,0-8.8-.2-13,0-3.3.2-5.6,3-5.7,6.2-.2,3.9,1.3,6.1,5.1,6.9,2.1.5,4.3.4,6.4.8.9.2,1.9.8,2.4,1.5.3.5.1,1.8-.3,2.3-.6.6-1.7.9-2.5.9-3.4.1-6.8,0-10.2,0v4.6c3.8,0,7.4.2,11,0,1.8-.1,3.8-.6,5.3-1.5,2.4-1.4,3.1-3.9,2.8-6.7h0ZM991.1,89.1c-2-.3-4-.3-6.1-.4-1.5,0-2.8-.5-2.9-2.2,0-1.8,1.4-1.8,2.8-1.8,3.5,0,6.9,0,10.4,0v-5.3c-4.4,0-8.8-.2-13.1,0-3.2.2-5.6,3.1-5.6,6.3,0,3.3,1,5.9,4.9,6.7,2.2.4,4.6.6,6.8.8,1.5.2,2.5.8,2.5,2.4,0,1.6-1,2.3-2.5,2.4-.7,0-1.5,0-2.2,0h-8.7v4.5c4.6,0,9,.2,13.4,0,3.6-.3,5.4-2.9,5.4-6.7,0-4.1-1.4-6.1-5.2-6.7h0ZM961,98.1v-4.9h12.3v-4.5h-12.3v-4.4h12.7v-4.8h-18.1v23.2h18.2v-4.6h-12.7ZM948.1,92c.8-.7,1.4-1.1,2-1.7,1.8-1.9,2.1-4.2,1.5-6.6-.6-2.1-2.2-3.8-4.3-3.9-5.7-.2-11.4,0-17.2,0v22.9h5.3v-8.4c2.7,0,5.2-.1,7.6,0,2.4.2,3.3,1.3,3.4,3.7,0,1.5,0,3.1,0,4.7h5.5c-.4-4,1.5-8.5-3.8-10.7ZM946.2,87.1c-.2,1.4-.2,2.8-2.2,2.8-2.6,0-5.3,0-8.2,0v-5.2c2.8,0,5.7,0,8.5,0,1.3,0,2,.9,1.8,2.4ZM921.1,80.1c-5.7-.4-11.4-.2-17.1-.4-2.1,0-3.7.4-5,2.2-1.5,2-3.3,3.7-5.1,5.7-2.1-2.3-4-4.3-5.8-6.4-.9-1-1.8-1.4-3.1-1.4-4.2,0-8.4,0-12.7,0h-6.9v23c.3,0,.5.2.7.2,6.5,0,12.9,0,19.4,0,.7,0,1.5-.6,2-1.1,2.1-2.1,4.1-4.3,6.3-6.6,2,2.2,3.8,4.4,5.8,6.5.5.5,1.1,1.1,1.8,1.2,3.2.1,6.4,0,9.9,0,0-2.4,0-4.6,0-6.8,0-1.5.5-2,2.1-1.9,2.4,0,4.9,0,7.3-.2,4.2-.2,6.7-2.8,6.9-7.1.2-4.2-1.8-6.6-6.3-6.9h0ZM884.3,97.6c-.4.4-1,.7-1.5.8-4.1,0-8.3,0-12.5,0v-5.1h12v-4.5h-12v-4.5c3.3,0,6.7.2,10.1,0,2.7-.2,4.7.6,6.2,2.8,1,1.5,2.3,2.8,3.6,4.3-1.9,2.2-3.8,4.2-5.7,6.3ZM905.4,101c-3-3.4-5.8-6.4-8.6-9.6,2.8-3.1,5.6-6,8.6-9.3v18.9ZM918.3,90.4c-2.3,0-4.6,0-7,0v-6.1c2.5,0,4.8,0,7.1,0,2.1,0,3.7,1.6,3.5,3.4,0,1.6-1.5,2.7-3.6,2.7h0ZM921.1,80.1c-5.7-.4-11.4-.2-17.1-.4-2.1,0-3.7.4-5,2.2-1.5,2-3.3,3.7-5.1,5.7-2.1-2.3-4-4.3-5.8-6.4-.9-1-1.8-1.4-3.1-1.4-4.2,0-8.4,0-12.7,0h-6.9v23c.3,0,.5.2.7.2,6.5,0,12.9,0,19.4,0,.7,0,1.5-.6,2-1.1,2.1-2.1,4.1-4.3,6.3-6.6,2,2.2,3.8,4.4,5.8,6.5.5.5,1.1,1.1,1.8,1.2,3.2.1,6.4,0,9.9,0,0-2.4,0-4.6,0-6.8,0-1.5.5-2,2.1-1.9,2.4,0,4.9,0,7.3-.2,4.2-.2,6.7-2.8,6.9-7.1.2-4.2-1.8-6.6-6.3-6.9h0ZM884.3,97.6c-.4.4-1,.7-1.5.8-4.1,0-8.3,0-12.5,0v-5.1h12v-4.5h-12v-4.5c3.3,0,6.7.2,10.1,0,2.7-.2,4.7.6,6.2,2.8,1,1.5,2.3,2.8,3.6,4.3-1.9,2.2-3.8,4.2-5.7,6.3ZM905.4,101c-3-3.4-5.8-6.4-8.6-9.6,2.8-3.1,5.6-6,8.6-9.3v18.9ZM918.3,90.4c-2.3,0-4.6,0-7,0v-6.1c2.5,0,4.8,0,7.1,0,2.1,0,3.7,1.6,3.5,3.4,0,1.6-1.5,2.7-3.6,2.7h0ZM948.1,92c.8-.7,1.4-1.1,2-1.7,1.8-1.9,2.1-4.2,1.5-6.6-.6-2.1-2.2-3.8-4.3-3.9-5.7-.2-11.4,0-17.2,0v22.9h5.3v-8.4c2.7,0,5.2-.1,7.6,0,2.4.2,3.3,1.3,3.4,3.7,0,1.5,0,3.1,0,4.7h5.5c-.4-4,1.5-8.5-3.8-10.7ZM946.2,87.1c-.2,1.4-.2,2.8-2.2,2.8-2.6,0-5.3,0-8.2,0v-5.2c2.8,0,5.7,0,8.5,0,1.3,0,2,.9,1.8,2.4ZM961,98.1v-4.9h12.3v-4.5h-12.3v-4.4h12.7v-4.8h-18.1v23.2h18.2v-4.6h-12.7ZM991.1,89.1c-2-.3-4-.3-6.1-.4-1.5,0-2.8-.5-2.9-2.2,0-1.8,1.4-1.8,2.8-1.8,3.5,0,6.9,0,10.4,0v-5.3c-4.4,0-8.8-.2-13.1,0-3.2.2-5.6,3.1-5.6,6.3,0,3.3,1,5.9,4.9,6.7,2.2.4,4.6.6,6.8.8,1.5.2,2.5.8,2.5,2.4,0,1.6-1,2.3-2.5,2.4-.7,0-1.5,0-2.2,0h-8.7v4.5c4.6,0,9,.2,13.4,0,3.6-.3,5.4-2.9,5.4-6.7,0-4.1-1.4-6.1-5.2-6.7h0ZM1018.3,94.4c-.4-2.9-1.7-4.8-4.8-5.2-2.3-.2-4.6-.3-6.9-.5-1.3-.1-2.7-.4-2.7-2.1,0-1.7,1.3-2,2.7-1.9,3.4,0,6.9,0,10.4,0v-5.3c-4.5,0-8.8-.2-13,0-3.3.2-5.6,3-5.7,6.2-.2,3.9,1.3,6.1,5.1,6.9,2.1.5,4.3.4,6.4.8.9.2,1.9.8,2.4,1.5.3.5.1,1.8-.3,2.3-.6.6-1.7.9-2.5.9-3.4.1-6.8,0-10.2,0v4.6c3.8,0,7.4.2,11,0,1.8-.1,3.8-.6,5.3-1.5,2.4-1.4,3.1-3.9,2.8-6.7h0ZM1018.3,94.4c-.4-2.9-1.7-4.8-4.8-5.2-2.3-.2-4.6-.3-6.9-.5-1.3-.1-2.7-.4-2.7-2.1,0-1.7,1.3-2,2.7-1.9,3.4,0,6.9,0,10.4,0v-5.3c-4.5,0-8.8-.2-13,0-3.3.2-5.6,3-5.7,6.2-.2,3.9,1.3,6.1,5.1,6.9,2.1.5,4.3.4,6.4.8.9.2,1.9.8,2.4,1.5.3.5.1,1.8-.3,2.3-.6.6-1.7.9-2.5.9-3.4.1-6.8,0-10.2,0v4.6c3.8,0,7.4.2,11,0,1.8-.1,3.8-.6,5.3-1.5,2.4-1.4,3.1-3.9,2.8-6.7h0ZM991.1,89.1c-2-.3-4-.3-6.1-.4-1.5,0-2.8-.5-2.9-2.2,0-1.8,1.4-1.8,2.8-1.8,3.5,0,6.9,0,10.4,0v-5.3c-4.4,0-8.8-.2-13.1,0-3.2.2-5.6,3.1-5.6,6.3,0,3.3,1,5.9,4.9,6.7,2.2.4,4.6.6,6.8.8,1.5.2,2.5.8,2.5,2.4,0,1.6-1,2.3-2.5,2.4-.7,0-1.5,0-2.2,0h-8.7v4.5c4.6,0,9,.2,13.4,0,3.6-.3,5.4-2.9,5.4-6.7,0-4.1-1.4-6.1-5.2-6.7h0ZM961,98.1v-4.9h12.3v-4.5h-12.3v-4.4h12.7v-4.8h-18.1v23.2h18.2v-4.6h-12.7ZM948.1,92c.8-.7,1.4-1.1,2-1.7,1.8-1.9,2.1-4.2,1.5-6.6-.6-2.1-2.2-3.8-4.3-3.9-5.7-.2-11.4,0-17.2,0v22.9h5.3v-8.4c2.7,0,5.2-.1,7.6,0,2.4.2,3.3,1.3,3.4,3.7,0,1.5,0,3.1,0,4.7h5.5c-.4-4,1.5-8.5-3.8-10.7ZM946.2,87.1c-.2,1.4-.2,2.8-2.2,2.8-2.6,0-5.3,0-8.2,0v-5.2c2.8,0,5.7,0,8.5,0,1.3,0,2,.9,1.8,2.4ZM921.1,80.1c-5.7-.4-11.4-.2-17.1-.4-2.1,0-3.7.4-5,2.2-1.5,2-3.3,3.7-5.1,5.7-2.1-2.3-4-4.3-5.8-6.4-.9-1-1.8-1.4-3.1-1.4-4.2,0-8.4,0-12.7,0h-6.9v23c.3,0,.5.2.7.2,6.5,0,12.9,0,19.4,0,.7,0,1.5-.6,2-1.1,2.1-2.1,4.1-4.3,6.3-6.6,2,2.2,3.8,4.4,5.8,6.5.5.5,1.1,1.1,1.8,1.2,3.2.1,6.4,0,9.9,0,0-2.4,0-4.6,0-6.8,0-1.5.5-2,2.1-1.9,2.4,0,4.9,0,7.3-.2,4.2-.2,6.7-2.8,6.9-7.1.2-4.2-1.8-6.6-6.3-6.9h0ZM884.3,97.6c-.4.4-1,.7-1.5.8-4.1,0-8.3,0-12.5,0v-5.1h12v-4.5h-12v-4.5c3.3,0,6.7.2,10.1,0,2.7-.2,4.7.6,6.2,2.8,1,1.5,2.3,2.8,3.6,4.3-1.9,2.2-3.8,4.2-5.7,6.3ZM905.4,101c-3-3.4-5.8-6.4-8.6-9.6,2.8-3.1,5.6-6,8.6-9.3v18.9ZM918.3,90.4c-2.3,0-4.6,0-7,0v-6.1c2.5,0,4.8,0,7.1,0,2.1,0,3.7,1.6,3.5,3.4,0,1.6-1.5,2.7-3.6,2.7h0ZM921.1,80.1c-5.7-.4-11.4-.2-17.1-.4-2.1,0-3.7.4-5,2.2-1.5,2-3.3,3.7-5.1,5.7-2.1-2.3-4-4.3-5.8-6.4-.9-1-1.8-1.4-3.1-1.4-4.2,0-8.4,0-12.7,0h-6.9v23c.3,0,.5.2.7.2,6.5,0,12.9,0,19.4,0,.7,0,1.5-.6,2-1.1,2.1-2.1,4.1-4.3,6.3-6.6,2,2.2,3.8,4.4,5.8,6.5.5.5,1.1,1.1,1.8,1.2,3.2.1,6.4,0,9.9,0,0-2.4,0-4.6,0-6.8,0-1.5.5-2,2.1-1.9,2.4,0,4.9,0,7.3-.2,4.2-.2,6.7-2.8,6.9-7.1.2-4.2-1.8-6.6-6.3-6.9h0ZM884.3,97.6c-.4.4-1,.7-1.5.8-4.1,0-8.3,0-12.5,0v-5.1h12v-4.5h-12v-4.5c3.3,0,6.7.2,10.1,0,2.7-.2,4.7.6,6.2,2.8,1,1.5,2.3,2.8,3.6,4.3-1.9,2.2-3.8,4.2-5.7,6.3ZM905.4,101c-3-3.4-5.8-6.4-8.6-9.6,2.8-3.1,5.6-6,8.6-9.3v18.9ZM918.3,90.4c-2.3,0-4.6,0-7,0v-6.1c2.5,0,4.8,0,7.1,0,2.1,0,3.7,1.6,3.5,3.4,0,1.6-1.5,2.7-3.6,2.7h0ZM948.1,92c.8-.7,1.4-1.1,2-1.7,1.8-1.9,2.1-4.2,1.5-6.6-.6-2.1-2.2-3.8-4.3-3.9-5.7-.2-11.4,0-17.2,0v22.9h5.3v-8.4c2.7,0,5.2-.1,7.6,0,2.4.2,3.3,1.3,3.4,3.7,0,1.5,0,3.1,0,4.7h5.5c-.4-4,1.5-8.5-3.8-10.7ZM946.2,87.1c-.2,1.4-.2,2.8-2.2,2.8-2.6,0-5.3,0-8.2,0v-5.2c2.8,0,5.7,0,8.5,0,1.3,0,2,.9,1.8,2.4ZM961,98.1v-4.9h12.3v-4.5h-12.3v-4.4h12.7v-4.8h-18.1v23.2h18.2v-4.6h-12.7ZM991.1,89.1c-2-.3-4-.3-6.1-.4-1.5,0-2.8-.5-2.9-2.2,0-1.8,1.4-1.8,2.8-1.8,3.5,0,6.9,0,10.4,0v-5.3c-4.4,0-8.8-.2-13.1,0-3.2.2-5.6,3.1-5.6,6.3,0,3.3,1,5.9,4.9,6.7,2.2.4,4.6.6,6.8.8,1.5.2,2.5.8,2.5,2.4,0,1.6-1,2.3-2.5,2.4-.7,0-1.5,0-2.2,0h-8.7v4.5c4.6,0,9,.2,13.4,0,3.6-.3,5.4-2.9,5.4-6.7,0-4.1-1.4-6.1-5.2-6.7h0ZM1018.3,94.4c-.4-2.9-1.7-4.8-4.8-5.2-2.3-.2-4.6-.3-6.9-.5-1.3-.1-2.7-.4-2.7-2.1,0-1.7,1.3-2,2.7-1.9,3.4,0,6.9,0,10.4,0v-5.3c-4.5,0-8.8-.2-13,0-3.3.2-5.6,3-5.7,6.2-.2,3.9,1.3,6.1,5.1,6.9,2.1.5,4.3.4,6.4.8.9.2,1.9.8,2.4,1.5.3.5.1,1.8-.3,2.3-.6.6-1.7.9-2.5.9-3.4.1-6.8,0-10.2,0v4.6c3.8,0,7.4.2,11,0,1.8-.1,3.8-.6,5.3-1.5,2.4-1.4,3.1-3.9,2.8-6.7h0ZM1018.3,94.4c-.4-2.9-1.7-4.8-4.8-5.2-2.3-.2-4.6-.3-6.9-.5-1.3-.1-2.7-.4-2.7-2.1,0-1.7,1.3-2,2.7-1.9,3.4,0,6.9,0,10.4,0v-5.3c-4.5,0-8.8-.2-13,0-3.3.2-5.6,3-5.7,6.2-.2,3.9,1.3,6.1,5.1,6.9,2.1.5,4.3.4,6.4.8.9.2,1.9.8,2.4,1.5.3.5.1,1.8-.3,2.3-.6.6-1.7.9-2.5.9-3.4.1-6.8,0-10.2,0v4.6c3.8,0,7.4.2,11,0,1.8-.1,3.8-.6,5.3-1.5,2.4-1.4,3.1-3.9,2.8-6.7h0ZM991.1,89.1c-2-.3-4-.3-6.1-.4-1.5,0-2.8-.5-2.9-2.2,0-1.8,1.4-1.8,2.8-1.8,3.5,0,6.9,0,10.4,0v-5.3c-4.4,0-8.8-.2-13.1,0-3.2.2-5.6,3.1-5.6,6.3,0,3.3,1,5.9,4.9,6.7,2.2.4,4.6.6,6.8.8,1.5.2,2.5.8,2.5,2.4,0,1.6-1,2.3-2.5,2.4-.7,0-1.5,0-2.2,0h-8.7v4.5c4.6,0,9,.2,13.4,0,3.6-.3,5.4-2.9,5.4-6.7,0-4.1-1.4-6.1-5.2-6.7h0ZM961,93.2h12.3v-4.5h-12.3v-4.4h12.7v-4.8h-18.1v23.2h18.2v-4.6h-12.7v-4.9h0ZM948.1,92c.8-.7,1.4-1.1,2-1.7,1.8-1.9,2.1-4.2,1.5-6.6-.6-2.1-2.2-3.8-4.3-3.9-5.7-.2-11.4,0-17.2,0v22.9h5.3v-8.4c2.7,0,5.2-.1,7.6,0,2.4.2,3.3,1.3,3.4,3.7,0,1.5,0,3.1,0,4.7h5.5c-.4-4,1.5-8.5-3.8-10.7ZM946.2,87.1c-.2,1.4-.2,2.8-2.2,2.8-2.6,0-5.3,0-8.2,0v-5.2c2.8,0,5.7,0,8.5,0,1.3,0,2,.9,1.8,2.4ZM921.1,80.1c-5.7-.4-11.4-.2-17.1-.4-2.1,0-3.7.4-5,2.2-1.5,2-3.3,3.7-5.1,5.7-2.1-2.3-4-4.3-5.8-6.4-.9-1-1.8-1.4-3.1-1.4-4.2,0-8.4,0-12.7,0h-6.9v23c.3,0,.5.2.7.2,6.5,0,12.9,0,19.4,0,.7,0,1.5-.6,2-1.1,2.1-2.1,4.1-4.3,6.3-6.6,2,2.2,3.8,4.4,5.8,6.5.5.5,1.1,1.1,1.8,1.2,3.2.1,6.4,0,9.9,0,0-2.4,0-4.6,0-6.8,0-1.5.5-2,2.1-1.9,2.4,0,4.9,0,7.3-.2,4.2-.2,6.7-2.8,6.9-7.1.2-4.2-1.8-6.6-6.3-6.9h0ZM884.3,97.6c-.4.4-1,.7-1.5.8-4.1,0-8.3,0-12.5,0v-5.1h12v-4.5h-12v-4.5c3.3,0,6.7.2,10.1,0,2.7-.2,4.7.6,6.2,2.8,1,1.5,2.3,2.8,3.6,4.3-1.9,2.2-3.8,4.2-5.7,6.3ZM905.4,101c-3-3.4-5.8-6.4-8.6-9.6,2.8-3.1,5.6-6,8.6-9.3v18.9ZM918.3,90.4c-2.3,0-4.6,0-7,0v-6.1c2.5,0,4.8,0,7.1,0,2.1,0,3.7,1.6,3.5,3.4,0,1.6-1.5,2.7-3.6,2.7h0ZM1013.4,18.9h-191.7c-6.6,0-12,5.4-12,12v74.1c0,6.6,5.4,12,12,12h191.7c6.6,0,12-5.4,12-12V30.9c0-6.6-5.4-12-12-12ZM858.1,68c-.6,0-1.1.2-1.6.2-5.3,0-10.6,0-15.9,0-1.3,0-2.1-.4-2.3-1.6,0-.4-.3-.8-.4-1.2-.9-2.4-2.3-3.2-4.8-2.4-.4.1-.7.5-.9.9-.3.7-.7,1.3-.8,2.1-.4,1.8-1.5,2.3-3.3,2.2-4.8-.1-9.7,0-15,0,1.1-2.6,2.1-4.8,3.1-7,3.5-8.1,7.1-16.1,10.5-24.2.6-1.4,1.3-1.8,2.7-1.7,3.2,0,6.4,0,9.6,0,1.9,0,3.9-.3,4.5,2.3.1-.7.2-1.4.4-2.2,5.4,0,10.8,0,16.1,0,.5,0,1.1.7,1.3,1.2,1,2.1,1.9,4.3,3.1,6.9,1.1-2.5,2-4.5,2.9-6.6.4-1.1,1-1.5,2.3-1.5,17.4,0,34.9,0,52.3,0,1.9,0,3.8.8,5.8,1.2,0-.2.1-.6.2-1.2h14.8c0,.5.2,1,.3,1.5.2,0,.3,0,.4,0,3.3-.5,6.6-1.4,10-1.6,5.3-.3,10.6,0,15.9,0s4.4.9,5.8,2.8c.1-1,.2-1.8.3-2.8,5,0,9.8-.1,14.7.1.9,0,1.7,1.6,2.6,2.5,0-.7.2-1.6.3-2.5h14.8v32.5c-3.9,0-7.7-.2-11.5,0-2.9.2-5-.4-6-3.3,0-.2-.2-.3-.3-.5,0-.1-.2-.2-.5-.5v4.4h-6.3c-3.9,0-7.8,0-11.6,0-1.3,0-1.9-.4-2.2-1.6,0,0,0-.1,0-.2-1-2.6-2.9-3.7-5.9-3.5-.1.3-.3.7-.5,1-1.1,2.8-3.1,4.2-6,4.2-4.8,0-9.7.4-14.3-1.9-.2.8-.3,1.3-.4,1.8h-24v-8h-.8s0,8.3,0,8.3h-46.5c0-.9-.2-1.7-.2-2.5,0,0-.3,0-.3,0-.5,2.3-2,2.9-4.2,2.6-1.1-.2-2.2,0-3.3,0-2.1,0-3.7-1-4.7-3,0,1.1-.2,1.9-.2,2.8h0ZM1022.5,95.2c0,2.7-.7,5.4-2.1,7.7-.3.5-.6,1-1,1.4-2.1,2.6-5.1,3.5-8.4,3.6-4.9,0-9.8,0-14.7,0-.7,0-1.3-.6-2-1-2.5.3-5.3.9-8.1,1-13.9.1-27.8,0-41.7,0h-2.5c0-2.3,0-4.6,0-6.8,0-.6-.5-1.2-.7-1.8-.2.6-.6,1.1-.6,1.7,0,2.2,0,4.5,0,6.8h-15.2v-8.4c-3.2.2-6,.5-9,.7-.2,2.3-.4,4.8-.6,7.4-.7,0-1.5.1-2.2.1-4.4,0-8.7-.1-13.1,0-2.2,0-3.6-.6-4.8-2.3-.6-.9-1.4-1.6-2.5-3-.8,1-1.4,1.8-2,2.8-1.5,2.2-3.5,2.6-6,2.5-7.7-.2-15.4,0-23.1,0h-2.5v-32.8h6c5.5,0,10.9,0,16.3,0,1.6,0,7.5-1.2,8.5.3.9,1.3,2,2.4,3.3,3.8,1.2-1.3,2.3-2.6,3.6-3.8.6-.6,1.6-1.1,2.4-1.1,6.4,0,12.8-.1,19.2,0,2.2,0,4.4.7,6.1,1,1.1-.4,2-1,2.8-1,5.2,0,10.3-.2,15.5,0,2.5,0,4.9.7,7,1,1-.4,1.8-1,2.6-1,8.4,0,16.7,0,25.3,0,0,.6.2,1.1.3,1.6.3,0,.5-.1.7-.2,1.8-.5,3.6-1.3,5.5-1.3,4.7-.2,9.4,0,14.1,0,1.1,0,1.9.1,1.7,1.3h20.4c0,3.6.2,7.2,0,10.9-.1,2.4.5,4.7,1.3,6.8.3.7.4,1.4.4,2.2h0ZM1013.5,89.2c-2.3-.2-4.6-.3-6.9-.5-1.3-.1-2.7-.4-2.7-2.1,0-1.7,1.3-2,2.7-1.9,3.4,0,6.9,0,10.4,0v-5.3c-4.5,0-8.8-.2-13,0-3.3.2-5.6,3-5.7,6.2-.2,3.9,1.3,6.1,5.1,6.9,2.1.5,4.3.4,6.4.8.9.2,1.9.8,2.4,1.5.3.5.1,1.8-.3,2.3-.6.6-1.7.9-2.5.9-3.4.1-6.8,0-10.2,0v4.6c3.8,0,7.4.2,11,0,1.8-.1,3.8-.6,5.3-1.5,2.4-1.4,3.1-3.9,2.8-6.7-.4-2.9-1.7-4.8-4.8-5.2h0ZM991.1,89.1c-2-.3-4-.3-6.1-.4-1.5,0-2.8-.5-2.9-2.2,0-1.8,1.4-1.8,2.8-1.8,3.5,0,6.9,0,10.4,0v-5.3c-4.4,0-8.8-.2-13.1,0-3.2.2-5.6,3.1-5.6,6.3,0,3.3,1,5.9,4.9,6.7,2.2.4,4.6.6,6.8.8,1.5.2,2.5.8,2.5,2.4,0,1.6-1,2.3-2.5,2.4-.7,0-1.5,0-2.2,0h-8.7v4.5c4.6,0,9,.2,13.4,0,3.6-.3,5.4-2.9,5.4-6.7,0-4.1-1.4-6.1-5.2-6.7h0ZM961,93.2h12.3v-4.5h-12.3v-4.4h12.7v-4.8h-18.1v23.2h18.2v-4.6h-12.7v-4.9h0ZM948.1,92c.8-.7,1.4-1.1,2-1.7,1.8-1.9,2.1-4.2,1.5-6.6-.6-2.1-2.2-3.8-4.3-3.9-5.7-.2-11.4,0-17.2,0v22.9h5.3v-8.4c2.7,0,5.2-.1,7.6,0,2.4.2,3.3,1.3,3.4,3.7,0,1.5,0,3.1,0,4.7h5.5c-.4-4,1.5-8.5-3.8-10.7ZM946.2,87.1c-.2,1.4-.2,2.8-2.2,2.8-2.6,0-5.3,0-8.2,0v-5.2c2.8,0,5.7,0,8.5,0,1.3,0,2,.9,1.8,2.4ZM921.1,80.1c-5.7-.4-11.4-.2-17.1-.4-2.1,0-3.7.4-5,2.2-1.5,2-3.3,3.7-5.1,5.7-2.1-2.3-4-4.3-5.8-6.4-.9-1-1.8-1.4-3.1-1.4-4.2,0-8.4,0-12.7,0h-6.9v23c.3,0,.5.2.7.2,6.5,0,12.9,0,19.4,0,.7,0,1.5-.6,2-1.1,2.1-2.1,4.1-4.3,6.3-6.6,2,2.2,3.8,4.4,5.8,6.5.5.5,1.1,1.1,1.8,1.2,3.2.1,6.4,0,9.9,0,0-2.4,0-4.6,0-6.8,0-1.5.5-2,2.1-1.9,2.4,0,4.9,0,7.3-.2,4.2-.2,6.7-2.8,6.9-7.1.2-4.2-1.8-6.6-6.3-6.9h0ZM884.3,97.6c-.4.4-1,.7-1.5.8-4.1,0-8.3,0-12.5,0v-5.1h12v-4.5h-12v-4.5c3.3,0,6.7.2,10.1,0,2.7-.2,4.7.6,6.2,2.8,1,1.5,2.3,2.8,3.6,4.3-1.9,2.2-3.8,4.2-5.7,6.3ZM905.4,101c-3-3.4-5.8-6.4-8.6-9.6,2.8-3.1,5.6-6,8.6-9.3v18.9ZM918.3,90.4c-2.3,0-4.6,0-7,0v-6.1c2.5,0,4.8,0,7.1,0,2.1,0,3.7,1.6,3.5,3.4,0,1.6-1.5,2.7-3.6,2.7h0ZM921.1,80.1c-5.7-.4-11.4-.2-17.1-.4-2.1,0-3.7.4-5,2.2-1.5,2-3.3,3.7-5.1,5.7-2.1-2.3-4-4.3-5.8-6.4-.9-1-1.8-1.4-3.1-1.4-4.2,0-8.4,0-12.7,0h-6.9v23c.3,0,.5.2.7.2,6.5,0,12.9,0,19.4,0,.7,0,1.5-.6,2-1.1,2.1-2.1,4.1-4.3,6.3-6.6,2,2.2,3.8,4.4,5.8,6.5.5.5,1.1,1.1,1.8,1.2,3.2.1,6.4,0,9.9,0,0-2.4,0-4.6,0-6.8,0-1.5.5-2,2.1-1.9,2.4,0,4.9,0,7.3-.2,4.2-.2,6.7-2.8,6.9-7.1.2-4.2-1.8-6.6-6.3-6.9h0ZM884.3,97.6c-.4.4-1,.7-1.5.8-4.1,0-8.3,0-12.5,0v-5.1h12v-4.5h-12v-4.5c3.3,0,6.7.2,10.1,0,2.7-.2,4.7.6,6.2,2.8,1,1.5,2.3,2.8,3.6,4.3-1.9,2.2-3.8,4.2-5.7,6.3ZM905.4,101c-3-3.4-5.8-6.4-8.6-9.6,2.8-3.1,5.6-6,8.6-9.3v18.9ZM918.3,90.4c-2.3,0-4.6,0-7,0v-6.1c2.5,0,4.8,0,7.1,0,2.1,0,3.7,1.6,3.5,3.4,0,1.6-1.5,2.7-3.6,2.7h0ZM948.1,92c.8-.7,1.4-1.1,2-1.7,1.8-1.9,2.1-4.2,1.5-6.6-.6-2.1-2.2-3.8-4.3-3.9-5.7-.2-11.4,0-17.2,0v22.9h5.3v-8.4c2.7,0,5.2-.1,7.6,0,2.4.2,3.3,1.3,3.4,3.7,0,1.5,0,3.1,0,4.7h5.5c-.4-4,1.5-8.5-3.8-10.7ZM946.2,87.1c-.2,1.4-.2,2.8-2.2,2.8-2.6,0-5.3,0-8.2,0v-5.2c2.8,0,5.7,0,8.5,0,1.3,0,2,.9,1.8,2.4ZM961,98.1v-4.9h12.3v-4.5h-12.3v-4.4h12.7v-4.8h-18.1v23.2h18.2v-4.6h-12.7ZM991.1,89.1c-2-.3-4-.3-6.1-.4-1.5,0-2.8-.5-2.9-2.2,0-1.8,1.4-1.8,2.8-1.8,3.5,0,6.9,0,10.4,0v-5.3c-4.4,0-8.8-.2-13.1,0-3.2.2-5.6,3.1-5.6,6.3,0,3.3,1,5.9,4.9,6.7,2.2.4,4.6.6,6.8.8,1.5.2,2.5.8,2.5,2.4,0,1.6-1,2.3-2.5,2.4-.7,0-1.5,0-2.2,0h-8.7v4.5c4.6,0,9,.2,13.4,0,3.6-.3,5.4-2.9,5.4-6.7,0-4.1-1.4-6.1-5.2-6.7h0ZM1018.3,94.4c-.4-2.9-1.7-4.8-4.8-5.2-2.3-.2-4.6-.3-6.9-.5-1.3-.1-2.7-.4-2.7-2.1,0-1.7,1.3-2,2.7-1.9,3.4,0,6.9,0,10.4,0v-5.3c-4.5,0-8.8-.2-13,0-3.3.2-5.6,3-5.7,6.2-.2,3.9,1.3,6.1,5.1,6.9,2.1.5,4.3.4,6.4.8.9.2,1.9.8,2.4,1.5.3.5.1,1.8-.3,2.3-.6.6-1.7.9-2.5.9-3.4.1-6.8,0-10.2,0v4.6c3.8,0,7.4.2,11,0,1.8-.1,3.8-.6,5.3-1.5,2.4-1.4,3.1-3.9,2.8-6.7h0ZM1018.3,94.4c-.4-2.9-1.7-4.8-4.8-5.2-2.3-.2-4.6-.3-6.9-.5-1.3-.1-2.7-.4-2.7-2.1,0-1.7,1.3-2,2.7-1.9,3.4,0,6.9,0,10.4,0v-5.3c-4.5,0-8.8-.2-13,0-3.3.2-5.6,3-5.7,6.2-.2,3.9,1.3,6.1,5.1,6.9,2.1.5,4.3.4,6.4.8.9.2,1.9.8,2.4,1.5.3.5.1,1.8-.3,2.3-.6.6-1.7.9-2.5.9-3.4.1-6.8,0-10.2,0v4.6c3.8,0,7.4.2,11,0,1.8-.1,3.8-.6,5.3-1.5,2.4-1.4,3.1-3.9,2.8-6.7h0ZM991.1,89.1c-2-.3-4-.3-6.1-.4-1.5,0-2.8-.5-2.9-2.2,0-1.8,1.4-1.8,2.8-1.8,3.5,0,6.9,0,10.4,0v-5.3c-4.4,0-8.8-.2-13.1,0-3.2.2-5.6,3.1-5.6,6.3,0,3.3,1,5.9,4.9,6.7,2.2.4,4.6.6,6.8.8,1.5.2,2.5.8,2.5,2.4,0,1.6-1,2.3-2.5,2.4-.7,0-1.5,0-2.2,0h-8.7v4.5c4.6,0,9,.2,13.4,0,3.6-.3,5.4-2.9,5.4-6.7,0-4.1-1.4-6.1-5.2-6.7h0ZM961,98.1v-4.9h12.3v-4.5h-12.3v-4.4h12.7v-4.8h-18.1v23.2h18.2v-4.6h-12.7ZM948.1,92c.8-.7,1.4-1.1,2-1.7,1.8-1.9,2.1-4.2,1.5-6.6-.6-2.1-2.2-3.8-4.3-3.9-5.7-.2-11.4,0-17.2,0v22.9h5.3v-8.4c2.7,0,5.2-.1,7.6,0,2.4.2,3.3,1.3,3.4,3.7,0,1.5,0,3.1,0,4.7h5.5c-.4-4,1.5-8.5-3.8-10.7ZM946.2,87.1c-.2,1.4-.2,2.8-2.2,2.8-2.6,0-5.3,0-8.2,0v-5.2c2.8,0,5.7,0,8.5,0,1.3,0,2,.9,1.8,2.4ZM921.1,80.1c-5.7-.4-11.4-.2-17.1-.4-2.1,0-3.7.4-5,2.2-1.5,2-3.3,3.7-5.1,5.7-2.1-2.3-4-4.3-5.8-6.4-.9-1-1.8-1.4-3.1-1.4-4.2,0-8.4,0-12.7,0h-6.9v23c.3,0,.5.2.7.2,6.5,0,12.9,0,19.4,0,.7,0,1.5-.6,2-1.1,2.1-2.1,4.1-4.3,6.3-6.6,2,2.2,3.8,4.4,5.8,6.5.5.5,1.1,1.1,1.8,1.2,3.2.1,6.4,0,9.9,0,0-2.4,0-4.6,0-6.8,0-1.5.5-2,2.1-1.9,2.4,0,4.9,0,7.3-.2,4.2-.2,6.7-2.8,6.9-7.1.2-4.2-1.8-6.6-6.3-6.9h0ZM884.3,97.6c-.4.4-1,.7-1.5.8-4.1,0-8.3,0-12.5,0v-5.1h12v-4.5h-12v-4.5c3.3,0,6.7.2,10.1,0,2.7-.2,4.7.6,6.2,2.8,1,1.5,2.3,2.8,3.6,4.3-1.9,2.2-3.8,4.2-5.7,6.3ZM905.4,101c-3-3.4-5.8-6.4-8.6-9.6,2.8-3.1,5.6-6,8.6-9.3v18.9ZM918.3,90.4c-2.3,0-4.6,0-7,0v-6.1c2.5,0,4.8,0,7.1,0,2.1,0,3.7,1.6,3.5,3.4,0,1.6-1.5,2.7-3.6,2.7h0ZM921.1,80.1c-5.7-.4-11.4-.2-17.1-.4-2.1,0-3.7.4-5,2.2-1.5,2-3.3,3.7-5.1,5.7-2.1-2.3-4-4.3-5.8-6.4-.9-1-1.8-1.4-3.1-1.4-4.2,0-8.4,0-12.7,0h-6.9v23c.3,0,.5.2.7.2,6.5,0,12.9,0,19.4,0,.7,0,1.5-.6,2-1.1,2.1-2.1,4.1-4.3,6.3-6.6,2,2.2,3.8,4.4,5.8,6.5.5.5,1.1,1.1,1.8,1.2,3.2.1,6.4,0,9.9,0,0-2.4,0-4.6,0-6.8,0-1.5.5-2,2.1-1.9,2.4,0,4.9,0,7.3-.2,4.2-.2,6.7-2.8,6.9-7.1.2-4.2-1.8-6.6-6.3-6.9h0ZM884.3,97.6c-.4.4-1,.7-1.5.8-4.1,0-8.3,0-12.5,0v-5.1h12v-4.5h-12v-4.5c3.3,0,6.7.2,10.1,0,2.7-.2,4.7.6,6.2,2.8,1,1.5,2.3,2.8,3.6,4.3-1.9,2.2-3.8,4.2-5.7,6.3ZM905.4,101c-3-3.4-5.8-6.4-8.6-9.6,2.8-3.1,5.6-6,8.6-9.3v18.9ZM918.3,90.4c-2.3,0-4.6,0-7,0v-6.1c2.5,0,4.8,0,7.1,0,2.1,0,3.7,1.6,3.5,3.4,0,1.6-1.5,2.7-3.6,2.7h0ZM948.1,92c.8-.7,1.4-1.1,2-1.7,1.8-1.9,2.1-4.2,1.5-6.6-.6-2.1-2.2-3.8-4.3-3.9-5.7-.2-11.4,0-17.2,0v22.9h5.3v-8.4c2.7,0,5.2-.1,7.6,0,2.4.2,3.3,1.3,3.4,3.7,0,1.5,0,3.1,0,4.7h5.5c-.4-4,1.5-8.5-3.8-10.7ZM946.2,87.1c-.2,1.4-.2,2.8-2.2,2.8-2.6,0-5.3,0-8.2,0v-5.2c2.8,0,5.7,0,8.5,0,1.3,0,2,.9,1.8,2.4ZM961,98.1v-4.9h12.3v-4.5h-12.3v-4.4h12.7v-4.8h-18.1v23.2h18.2v-4.6h-12.7ZM991.1,89.1c-2-.3-4-.3-6.1-.4-1.5,0-2.8-.5-2.9-2.2,0-1.8,1.4-1.8,2.8-1.8,3.5,0,6.9,0,10.4,0v-5.3c-4.4,0-8.8-.2-13.1,0-3.2.2-5.6,3.1-5.6,6.3,0,3.3,1,5.9,4.9,6.7,2.2.4,4.6.6,6.8.8,1.5.2,2.5.8,2.5,2.4,0,1.6-1,2.3-2.5,2.4-.7,0-1.5,0-2.2,0h-8.7v4.5c4.6,0,9,.2,13.4,0,3.6-.3,5.4-2.9,5.4-6.7,0-4.1-1.4-6.1-5.2-6.7h0ZM1018.3,94.4c-.4-2.9-1.7-4.8-4.8-5.2-2.3-.2-4.6-.3-6.9-.5-1.3-.1-2.7-.4-2.7-2.1,0-1.7,1.3-2,2.7-1.9,3.4,0,6.9,0,10.4,0v-5.3c-4.5,0-8.8-.2-13,0-3.3.2-5.6,3-5.7,6.2-.2,3.9,1.3,6.1,5.1,6.9,2.1.5,4.3.4,6.4.8.9.2,1.9.8,2.4,1.5.3.5.1,1.8-.3,2.3-.6.6-1.7.9-2.5.9-3.4.1-6.8,0-10.2,0v4.6c3.8,0,7.4.2,11,0,1.8-.1,3.8-.6,5.3-1.5,2.4-1.4,3.1-3.9,2.8-6.7h0ZM1018.3,94.4c-.4-2.9-1.7-4.8-4.8-5.2-2.3-.2-4.6-.3-6.9-.5-1.3-.1-2.7-.4-2.7-2.1,0-1.7,1.3-2,2.7-1.9,3.4,0,6.9,0,10.4,0v-5.3c-4.5,0-8.8-.2-13,0-3.3.2-5.6,3-5.7,6.2-.2,3.9,1.3,6.1,5.1,6.9,2.1.5,4.3.4,6.4.8.9.2,1.9.8,2.4,1.5.3.5.1,1.8-.3,2.3-.6.6-1.7.9-2.5.9-3.4.1-6.8,0-10.2,0v4.6c3.8,0,7.4.2,11,0,1.8-.1,3.8-.6,5.3-1.5,2.4-1.4,3.1-3.9,2.8-6.7h0ZM991.1,89.1c-2-.3-4-.3-6.1-.4-1.5,0-2.8-.5-2.9-2.2,0-1.8,1.4-1.8,2.8-1.8,3.5,0,6.9,0,10.4,0v-5.3c-4.4,0-8.8-.2-13.1,0-3.2.2-5.6,3.1-5.6,6.3,0,3.3,1,5.9,4.9,6.7,2.2.4,4.6.6,6.8.8,1.5.2,2.5.8,2.5,2.4,0,1.6-1,2.3-2.5,2.4-.7,0-1.5,0-2.2,0h-8.7v4.5c4.6,0,9,.2,13.4,0,3.6-.3,5.4-2.9,5.4-6.7,0-4.1-1.4-6.1-5.2-6.7h0ZM961,98.1v-4.9h12.3v-4.5h-12.3v-4.4h12.7v-4.8h-18.1v23.2h18.2v-4.6h-12.7ZM948.1,92c.8-.7,1.4-1.1,2-1.7,1.8-1.9,2.1-4.2,1.5-6.6-.6-2.1-2.2-3.8-4.3-3.9-5.7-.2-11.4,0-17.2,0v22.9h5.3v-8.4c2.7,0,5.2-.1,7.6,0,2.4.2,3.3,1.3,3.4,3.7,0,1.5,0,3.1,0,4.7h5.5c-.4-4,1.5-8.5-3.8-10.7ZM946.2,87.1c-.2,1.4-.2,2.8-2.2,2.8-2.6,0-5.3,0-8.2,0v-5.2c2.8,0,5.7,0,8.5,0,1.3,0,2,.9,1.8,2.4ZM921.1,80.1c-5.7-.4-11.4-.2-17.1-.4-2.1,0-3.7.4-5,2.2-1.5,2-3.3,3.7-5.1,5.7-2.1-2.3-4-4.3-5.8-6.4-.9-1-1.8-1.4-3.1-1.4-4.2,0-8.4,0-12.7,0h-6.9v23c.3,0,.5.2.7.2,6.5,0,12.9,0,19.4,0,.7,0,1.5-.6,2-1.1,2.1-2.1,4.1-4.3,6.3-6.6,2,2.2,3.8,4.4,5.8,6.5.5.5,1.1,1.1,1.8,1.2,3.2.1,6.4,0,9.9,0,0-2.4,0-4.6,0-6.8,0-1.5.5-2,2.1-1.9,2.4,0,4.9,0,7.3-.2,4.2-.2,6.7-2.8,6.9-7.1.2-4.2-1.8-6.6-6.3-6.9h0ZM884.3,97.6c-.4.4-1,.7-1.5.8-4.1,0-8.3,0-12.5,0v-5.1h12v-4.5h-12v-4.5c3.3,0,6.7.2,10.1,0,2.7-.2,4.7.6,6.2,2.8,1,1.5,2.3,2.8,3.6,4.3-1.9,2.2-3.8,4.2-5.7,6.3ZM905.4,101c-3-3.4-5.8-6.4-8.6-9.6,2.8-3.1,5.6-6,8.6-9.3v18.9ZM918.3,90.4c-2.3,0-4.6,0-7,0v-6.1c2.5,0,4.8,0,7.1,0,2.1,0,3.7,1.6,3.5,3.4,0,1.6-1.5,2.7-3.6,2.7h0ZM921.1,80.1c-5.7-.4-11.4-.2-17.1-.4-2.1,0-3.7.4-5,2.2-1.5,2-3.3,3.7-5.1,5.7-2.1-2.3-4-4.3-5.8-6.4-.9-1-1.8-1.4-3.1-1.4-4.2,0-8.4,0-12.7,0h-6.9v23c.3,0,.5.2.7.2,6.5,0,12.9,0,19.4,0,.7,0,1.5-.6,2-1.1,2.1-2.1,4.1-4.3,6.3-6.6,2,2.2,3.8,4.4,5.8,6.5.5.5,1.1,1.1,1.8,1.2,3.2.1,6.4,0,9.9,0,0-2.4,0-4.6,0-6.8,0-1.5.5-2,2.1-1.9,2.4,0,4.9,0,7.3-.2,4.2-.2,6.7-2.8,6.9-7.1.2-4.2-1.8-6.6-6.3-6.9h0ZM884.3,97.6c-.4.4-1,.7-1.5.8-4.1,0-8.3,0-12.5,0v-5.1h12v-4.5h-12v-4.5c3.3,0,6.7.2,10.1,0,2.7-.2,4.7.6,6.2,2.8,1,1.5,2.3,2.8,3.6,4.3-1.9,2.2-3.8,4.2-5.7,6.3ZM905.4,101c-3-3.4-5.8-6.4-8.6-9.6,2.8-3.1,5.6-6,8.6-9.3v18.9ZM918.3,90.4c-2.3,0-4.6,0-7,0v-6.1c2.5,0,4.8,0,7.1,0,2.1,0,3.7,1.6,3.5,3.4,0,1.6-1.5,2.7-3.6,2.7h0ZM948.1,92c.8-.7,1.4-1.1,2-1.7,1.8-1.9,2.1-4.2,1.5-6.6-.6-2.1-2.2-3.8-4.3-3.9-5.7-.2-11.4,0-17.2,0v22.9h5.3v-8.4c2.7,0,5.2-.1,7.6,0,2.4.2,3.3,1.3,3.4,3.7,0,1.5,0,3.1,0,4.7h5.5c-.4-4,1.5-8.5-3.8-10.7ZM946.2,87.1c-.2,1.4-.2,2.8-2.2,2.8-2.6,0-5.3,0-8.2,0v-5.2c2.8,0,5.7,0,8.5,0,1.3,0,2,.9,1.8,2.4ZM961,98.1v-4.9h12.3v-4.5h-12.3v-4.4h12.7v-4.8h-18.1v23.2h18.2v-4.6h-12.7ZM991.1,89.1c-2-.3-4-.3-6.1-.4-1.5,0-2.8-.5-2.9-2.2,0-1.8,1.4-1.8,2.8-1.8,3.5,0,6.9,0,10.4,0v-5.3c-4.4,0-8.8-.2-13.1,0-3.2.2-5.6,3.1-5.6,6.3,0,3.3,1,5.9,4.9,6.7,2.2.4,4.6.6,6.8.8,1.5.2,2.5.8,2.5,2.4,0,1.6-1,2.3-2.5,2.4-.7,0-1.5,0-2.2,0h-8.7v4.5c4.6,0,9,.2,13.4,0,3.6-.3,5.4-2.9,5.4-6.7,0-4.1-1.4-6.1-5.2-6.7h0ZM1018.3,94.4c-.4-2.9-1.7-4.8-4.8-5.2-2.3-.2-4.6-.3-6.9-.5-1.3-.1-2.7-.4-2.7-2.1,0-1.7,1.3-2,2.7-1.9,3.4,0,6.9,0,10.4,0v-5.3c-4.5,0-8.8-.2-13,0-3.3.2-5.6,3-5.7,6.2-.2,3.9,1.3,6.1,5.1,6.9,2.1.5,4.3.4,6.4.8.9.2,1.9.8,2.4,1.5.3.5.1,1.8-.3,2.3-.6.6-1.7.9-2.5.9-3.4.1-6.8,0-10.2,0v4.6c3.8,0,7.4.2,11,0,1.8-.1,3.8-.6,5.3-1.5,2.4-1.4,3.1-3.9,2.8-6.7h0ZM1018.3,94.4c-.4-2.9-1.7-4.8-4.8-5.2-2.3-.2-4.6-.3-6.9-.5-1.3-.1-2.7-.4-2.7-2.1,0-1.7,1.3-2,2.7-1.9,3.4,0,6.9,0,10.4,0v-5.3c-4.5,0-8.8-.2-13,0-3.3.2-5.6,3-5.7,6.2-.2,3.9,1.3,6.1,5.1,6.9,2.1.5,4.3.4,6.4.8.9.2,1.9.8,2.4,1.5.3.5.1,1.8-.3,2.3-.6.6-1.7.9-2.5.9-3.4.1-6.8,0-10.2,0v4.6c3.8,0,7.4.2,11,0,1.8-.1,3.8-.6,5.3-1.5,2.4-1.4,3.1-3.9,2.8-6.7h0ZM991.1,89.1c-2-.3-4-.3-6.1-.4-1.5,0-2.8-.5-2.9-2.2,0-1.8,1.4-1.8,2.8-1.8,3.5,0,6.9,0,10.4,0v-5.3c-4.4,0-8.8-.2-13.1,0-3.2.2-5.6,3.1-5.6,6.3,0,3.3,1,5.9,4.9,6.7,2.2.4,4.6.6,6.8.8,1.5.2,2.5.8,2.5,2.4,0,1.6-1,2.3-2.5,2.4-.7,0-1.5,0-2.2,0h-8.7v4.5c4.6,0,9,.2,13.4,0,3.6-.3,5.4-2.9,5.4-6.7,0-4.1-1.4-6.1-5.2-6.7h0ZM961,98.1v-4.9h12.3v-4.5h-12.3v-4.4h12.7v-4.8h-18.1v23.2h18.2v-4.6h-12.7ZM948.1,92c.8-.7,1.4-1.1,2-1.7,1.8-1.9,2.1-4.2,1.5-6.6-.6-2.1-2.2-3.8-4.3-3.9-5.7-.2-11.4,0-17.2,0v22.9h5.3v-8.4c2.7,0,5.2-.1,7.6,0,2.4.2,3.3,1.3,3.4,3.7,0,1.5,0,3.1,0,4.7h5.5c-.4-4,1.5-8.5-3.8-10.7ZM946.2,87.1c-.2,1.4-.2,2.8-2.2,2.8-2.6,0-5.3,0-8.2,0v-5.2c2.8,0,5.7,0,8.5,0,1.3,0,2,.9,1.8,2.4ZM921.1,80.1c-5.7-.4-11.4-.2-17.1-.4-2.1,0-3.7.4-5,2.2-1.5,2-3.3,3.7-5.1,5.7-2.1-2.3-4-4.3-5.8-6.4-.9-1-1.8-1.4-3.1-1.4-4.2,0-8.4,0-12.7,0h-6.9v23c.3,0,.5.2.7.2,6.5,0,12.9,0,19.4,0,.7,0,1.5-.6,2-1.1,2.1-2.1,4.1-4.3,6.3-6.6,2,2.2,3.8,4.4,5.8,6.5.5.5,1.1,1.1,1.8,1.2,3.2.1,6.4,0,9.9,0,0-2.4,0-4.6,0-6.8,0-1.5.5-2,2.1-1.9,2.4,0,4.9,0,7.3-.2,4.2-.2,6.7-2.8,6.9-7.1.2-4.2-1.8-6.6-6.3-6.9h0ZM884.3,97.6c-.4.4-1,.7-1.5.8-4.1,0-8.3,0-12.5,0v-5.1h12v-4.5h-12v-4.5c3.3,0,6.7.2,10.1,0,2.7-.2,4.7.6,6.2,2.8,1,1.5,2.3,2.8,3.6,4.3-1.9,2.2-3.8,4.2-5.7,6.3ZM905.4,101c-3-3.4-5.8-6.4-8.6-9.6,2.8-3.1,5.6-6,8.6-9.3v18.9ZM918.3,90.4c-2.3,0-4.6,0-7,0v-6.1c2.5,0,4.8,0,7.1,0,2.1,0,3.7,1.6,3.5,3.4,0,1.6-1.5,2.7-3.6,2.7h0Z"/>
        </g>
        <g>
          <path class="cls-1" d="M157.3,58.2c-1,0-1.9,0-2.9,0-.7,0-1-.2-.9-.9,0-1.9,0-3.8,0-5.6,0-6.6,0-13.2,0-19.8,0-1.1.3-1.4,1.3-1.2.9,0,1.7,0,2.6,0,2.3,0,4-1.7,4-4,0-1.8,0-3.6,0-5.4,0-2.1-.8-3.4-2.7-4.4-5.7-2.8-11.4-5.7-17.2-8.6-4.8-2.4-9.7-4.9-14.5-7.3h-2.4c-2.7,1.4-5.4,2.8-8.2,4.2-7.8,3.9-15.6,7.8-23.5,11.7-1.8.9-2.8,2.2-2.7,4.3,0,1.7,0,3.5,0,5.2,0,2.5,1.7,4.1,4.2,4.1,1,0,1.9,0,2.9,0,.6,0,.8.2.8.8,0,8.6,0,17.3,0,25.9,0,.7-.3.9-.9.8-1,0-2,0-3,0-2.5,0-4.2,2-4,4.5.2,2.1,2,3.5,4.6,3.5h61.7c.3,0,.6,0,.9,0,2.3-.2,3.9-1.9,3.8-4.2,0-2.1-1.8-3.7-4.1-3.8h0ZM112.8,58.2c-1.9,0-3.8,0-5.8,0-.7,0-1-.2-.9-1,0-8.5,0-17.1,0-25.7,0-.7.1-1,.9-1,2,0,4,0,6,0,.7,0,.9.2.9.9,0,4.3,0,8.6,0,12.8s0,8.5,0,12.7c0,.9-.3,1.2-1.2,1.1ZM129.7,57.3c0,.7-.2.9-.9.9-2,0-4,0-6,0-.8,0-.9-.3-.9-1,0-4.3,0-8.6,0-12.8s0-8.5,0-12.7c0-.9.2-1.1,1.1-1.1,1.9,0,3.8,0,5.8,0,.7,0,1,.1,1,.9,0,8.6,0,17.2,0,25.8ZM145.6,57.2c0,.7-.2,1-1,1-1.9,0-3.8,0-5.8,0-.9,0-1.2-.2-1.2-1.1,0-4.2,0-8.5,0-12.7s0-8.5,0-12.7c0-.8.2-1.1,1.1-1.1,1.9,0,3.8,0,5.8,0,.8,0,1.1.1,1.1,1,0,8.5,0,17.1,0,25.7Z"/>
          <path class="cls-1" d="M93.5,96.7c.9,0,1.7,0,2.6,0,2.5,0,4.1-1.7,4.1-4.3,0-1.7,0-3.4,0-5.1,0-2.1-.8-3.5-2.7-4.4-10.2-5.1-20.3-10.1-30.5-15.2-1.7-.8-3.2-.8-4.8,0-9.9,5-19.9,10-29.9,14.9-1.4.7-2.6,1.6-3.2,3.1v8.1c.3,1.3,1,2.2,2.2,2.8,1.1.5,2.2.5,3.3.5,1.9,0,1.9,0,1.9,2,0,7.4,0,14.8,0,22.1,0,2.8.2,2.6-2.7,2.6-.2,0-.4,0-.7,0-2.5,0-3.6.9-4.2,3.3v2.1c.8,1.6,1.9,2.9,4,2.9,21,0,42.1,0,63.2,0,2.2,0,3.9-1.7,3.9-3.9,0-2.2-1.6-3.9-3.8-4-1,0-1.9,0-2.9,0s-1.3-.2-1.2-1.2c0-3.2,0-6.4,0-9.6,0-5.2,0-10.5,0-15.7,0-.9.2-1.2,1.2-1.1h0ZM52.8,123.4c0,.7-.2,1-.9.9-2,0-3.9,0-5.9,0-.8,0-1-.2-1-1,0-4.3,0-8.6,0-12.8s0-8.4,0-12.6c0-.9.3-1.2,1.2-1.2,1.9,0,3.8,0,5.6,0,.7,0,1.1,0,1.1,1,0,8.6,0,17.1,0,25.7h0ZM68.6,123.3c0,.8-.3,1-1.1,1-1.9,0-3.8,0-5.8,0-.9,0-1-.3-1-1.1,0-4.2,0-8.5,0-12.7s0-8.5,0-12.7c0-.9.2-1.2,1.1-1.2,1.9,0,3.8,0,5.8,0,.8,0,.9.2.9,1,0,8.6,0,17.1,0,25.7h0ZM84.4,110.6c0,4.2,0,8.4,0,12.6,0,.9-.2,1.2-1.1,1.2-1.9,0-3.8,0-5.8,0-.8,0-1-.3-1-1,0-8.5,0-17,0-25.5,0-.7,0-1.1,1-1.1,2,0,3.9,0,5.9,0,.8,0,1,.2,1,1,0,4.3,0,8.5,0,12.8h0Z"/>
          <path class="cls-1" d="M47.9,44.4c0-3,.1-5.9,1.1-8.7,3-8.9,11.2-14.9,20.6-14.9h7.6c2.5,0,4.3,1.7,4.3,4,0,2.3-1.7,4-4.3,4-2.9,0-5.8,0-8.6.1-6.9.3-12.5,6.2-12.8,13,0,.9,0,1.7,0,2.9,1.1-1.1,2-2,2.9-2.9,1.8-1.7,4.2-1.8,5.8-.2,1.6,1.6,1.5,4-.2,5.7-3.2,3.2-6.3,6.4-9.5,9.5-1.8,1.8-4.1,1.8-5.9,0-3.2-3.2-6.4-6.4-9.6-9.6-1.7-1.7-1.7-4.1,0-5.7,1.6-1.5,3.9-1.5,5.6,0,1,.9,1.8,1.9,2.7,2.8.1,0,.2,0,.4-.2h0Z"/>
          <path class="cls-1" d="M141.6,92.8c0,2.7,0,5.4-.8,8-2.6,9.1-11.1,15.6-20.6,15.7-2.6,0-5.2,0-7.9,0-2.5,0-4.3-1.7-4.3-3.9,0-2.3,1.7-4,4.2-4,2.9,0,5.8,0,8.6-.1,6.9-.3,12.5-6.2,12.8-13,0-.9,0-1.7,0-3-1,1.1-1.8,1.9-2.7,2.8-1.9,1.9-4.4,2.1-6,.4-1.7-1.7-1.5-4.1.3-5.9,3.1-3.1,6.2-6.2,9.3-9.3,1.9-1.9,4.2-2,6.1,0,3.2,3.1,6.3,6.3,9.4,9.4,1.8,1.8,1.8,4.2.2,5.8-1.6,1.6-4,1.5-5.8-.3-.9-.9-1.7-1.8-2.5-2.8-.1,0-.2.2-.4.2h0Z"/>
        </g>
        <g>
          <path class="cls-1" d="M331.1,71.5c-.4,0-.9-.2-1.3-.2-1.4,0-2.7.3-3.6,1.5-.5.6-.9,1.4-.5,2.2s1.2.9,1.8,1c1.7,0,3.1-.9,3.5-2.2.2-.6.2-1.2.4-1.8,0-.2,0-.4-.3-.4h0ZM331.1,71.5c-.4,0-.9-.2-1.3-.2-1.4,0-2.7.3-3.6,1.5-.5.6-.9,1.4-.5,2.2s1.2.9,1.8,1c1.7,0,3.1-.9,3.5-2.2.2-.6.2-1.2.4-1.8,0-.2,0-.4-.3-.4h0ZM331.1,71.5c-.4,0-.9-.2-1.3-.2-1.4,0-2.7.3-3.6,1.5-.5.6-.9,1.4-.5,2.2s1.2.9,1.8,1c1.7,0,3.1-.9,3.5-2.2.2-.6.2-1.2.4-1.8,0-.2,0-.4-.3-.4h0ZM374,66.9c0-.2,0-.3,0-.5-.2-1.1-.8-1.6-1.9-1.8-2.1-.3-4,.9-4.5,3.3.3.1.6,0,.8,0,1.5,0,3,0,4.6,0s1.1,0,1.1-1.2ZM374,66.9c0-.2,0-.3,0-.5-.2-1.1-.8-1.6-1.9-1.8-2.1-.3-4,.9-4.5,3.3.3.1.6,0,.8,0,1.5,0,3,0,4.6,0s1.1,0,1.1-1.2ZM331.1,71.5c-.4,0-.9-.2-1.3-.2-1.4,0-2.7.3-3.6,1.5-.5.6-.9,1.4-.5,2.2s1.2.9,1.8,1c1.7,0,3.1-.9,3.5-2.2.2-.6.2-1.2.4-1.8,0-.2,0-.4-.3-.4h0ZM331.1,71.5c-.4,0-.9-.2-1.3-.2-1.4,0-2.7.3-3.6,1.5-.5.6-.9,1.4-.5,2.2s1.2.9,1.8,1c1.7,0,3.1-.9,3.5-2.2.2-.6.2-1.2.4-1.8,0-.2,0-.4-.3-.4h0ZM374,66.9c0-.2,0-.3,0-.5-.2-1.1-.8-1.6-1.9-1.8-2.1-.3-4,.9-4.5,3.3.3.1.6,0,.8,0,1.5,0,3,0,4.6,0s1.1,0,1.1-1.2ZM374,66.9c0-.2,0-.3,0-.5-.2-1.1-.8-1.6-1.9-1.8-2.1-.3-4,.9-4.5,3.3.3.1.6,0,.8,0,1.5,0,3,0,4.6,0s1.1,0,1.1-1.2ZM331.1,71.5c-.4,0-.9-.2-1.3-.2-1.4,0-2.7.3-3.6,1.5-.5.6-.9,1.4-.5,2.2s1.2.9,1.8,1c1.7,0,3.1-.9,3.5-2.2.2-.6.2-1.2.4-1.8,0-.2,0-.4-.3-.4h0ZM331.1,71.5c-.4,0-.9-.2-1.3-.2-1.4,0-2.7.3-3.6,1.5-.5.6-.9,1.4-.5,2.2s1.2.9,1.8,1c1.7,0,3.1-.9,3.5-2.2.2-.6.2-1.2.4-1.8,0-.2,0-.4-.3-.4h0ZM374,66.9c0-.2,0-.3,0-.5-.2-1.1-.8-1.6-1.9-1.8-2.1-.3-4,.9-4.5,3.3.3.1.6,0,.8,0,1.5,0,3,0,4.6,0s1.1,0,1.1-1.2ZM415.3,71.4c-1.3.4-2.3,1.1-2.7,2.4-.2.8,0,1.4.8,1.8.5.2.9.3,1.5.3,1.7,0,3-1.2,3.3-2.8,0-.5.2-1,.3-1.5-1.1-.3-2.1-.4-3.1-.1h0ZM415.3,71.4c-1.3.4-2.3,1.1-2.7,2.4-.2.8,0,1.4.8,1.8.5.2.9.3,1.5.3,1.7,0,3-1.2,3.3-2.8,0-.5.2-1,.3-1.5-1.1-.3-2.1-.4-3.1-.1h0ZM374,66.9c0-.2,0-.3,0-.5-.2-1.1-.8-1.6-1.9-1.8-2.1-.3-4,.9-4.5,3.3.3.1.6,0,.8,0,1.5,0,3,0,4.6,0s1.1,0,1.1-1.2ZM331.1,71.5c-.4,0-.9-.2-1.3-.2-1.4,0-2.7.3-3.6,1.5-.5.6-.9,1.4-.5,2.2s1.2.9,1.8,1c1.7,0,3.1-.9,3.5-2.2.2-.6.2-1.2.4-1.8,0-.2,0-.4-.3-.4h0ZM444.3,29.3c-20.9-18-49.5-14.9-65.6-.9,6.8,6.7,11.7,14.5,14.5,23.6-.1,0-.2,0-.2,0-1.1,0-2.2,0-3.3,0s-.7,0-.9-.6c-2.2-6.6-5.7-12.4-10.4-17.6-.9-1-1.9-2-2.9-2.9-.2.2-.4.4-.5.5-5.5,5.5-9.7,11.9-12.3,19.2-.1.4-.3.7-.4,1.1,0,.2-.2.3-.4.3-1.3,0-2.5,0-3.9,0,2.8-9.2,7.6-17,14.4-23.7-19.5-16.2-49.2-15.7-68.4,3.7-19.6,19.8-19.6,51.5-.3,71.4,19.2,19.8,49.1,20.3,68.8,4-6.8-6.7-11.6-14.5-14.4-23.6.1,0,.2,0,.2,0,1.1,0,2.2,0,3.3,0,.5,0,.8.1.8.6,0,.1,0,.2.1.4,2.6,7.5,6.8,14.1,12.5,19.6.2.2.4.3.5.5,0,0,.1,0,.2-.1,4.8-4.6,8.5-9.8,11.2-15.8.7-1.5,1.3-3.1,1.9-4.7,0-.2,0-.5.4-.5,1.3,0,2.6,0,3.9,0-2.8,9.2-7.7,17.1-14.5,23.7,19.5,16.3,50.7,15.9,70-5.2,19.3-21.1,17.5-54.1-4.4-73h0ZM318,79.4c0,.2,0,.5-.4.5-1.6,0-3.2,0-4.9,0,0-.9.2-1.7.4-2.5.7-3.7,1.4-7.5,2.1-11.2,0-.1,0-.3,0-.4,0,0,0,0,0-.1,0-.2.1-.3,0-.5,0,0,0,0,0-.1,0,0,0,0,0-.1,0,0,0,0,0,0h0c0-.2,0-.4,0-.6-.2.1-.3.3-.3.5,0,0,0,0,0,.1,0,0-.1.1-.1.2-2.1,4.6-4.1,9.2-6.1,13.8-.4.8-.8,1.2-1.7,1.1-1,0-2.1,0-3.1,0-.4,0-.5-.1-.6-.5-.3-4.1-.7-8.3-1.1-12.4,0-.8-.1-1.5-.2-2.3,0-.3,0-.5,0-.9-.2.2-.3.5-.2.7-.4,1.9-.8,3.8-1.1,5.6-.6,3.1-1.2,6.1-1.8,9.2,0,.3-.1.5-.5.5-1.5,0-2.9,0-4.4,0,0,0-.1,0-.2,0,.4-2,.8-4.1,1.2-6.1,1-5,1.9-10,2.9-15.1,0-.3.1-.7.2-1,0-.4.2-.5.6-.5,1.4,0,2.8,0,4.3,0h2.8c.7,0,.7,0,.7.7.3,4.2.6,8.5.9,12.7,0,0,0,0,0,.2.3-.2.3-.5.4-.7,1.9-4.1,3.7-8.2,5.5-12.3.2-.5.4-.7,1-.6,2.3,0,4.7,0,7,0h.7c-.2,1.1-.4,2.1-.6,3.1-.9,4.9-1.9,9.9-2.8,14.8-.3,1.4-.5,2.9-.8,4.3h0ZM335.6,79.5c0,.4-.3.5-.6.5-.8,0-1.7,0-2.5,0s-.5,0-.8,0c-.7.1-1.2-.1-1.5-.8,0,0,0,0-.1-.1,0,0,0,0,0,0-1.8,1-3.6,1.2-5.6.9-3-.5-4.6-3.1-3.9-6.1.8-3.3,3-5.1,6.2-5.8,1.6-.4,3.2-.3,4.9-.3,1,0,1,0,1-1,0-.9-.4-1.3-1.3-1.5-1.2-.3-2.5-.2-3.8,0-1.5.1-3,.3-4.5.5,0-.4,0-.8.2-1.2.1-.7.3-1.4.4-2.2.1-.7.1-.7.8-.8.7-.1,1.4-.2,2.1-.3,2-.2,4.1-.4,6.1,0,.8.1,1.6.3,2.4.7,1.7.9,2.6,2.3,2.9,4.2.2,1.5,0,2.9-.4,4.4-.6,2.9-1.2,5.8-1.7,8.7,0,.1,0,.3,0,.4ZM345.5,67.6c.2.2.5.4.8.5,1.1.5,2.1,1.1,3.1,1.7,1.9,1.1,2.5,2.7,2.1,4.8-.5,3-2.3,4.6-5,5.1-2.9.5-5.8.4-8.7-.3-.5-.1-.5-.1-.4-.7.2-1,.3-1.9.5-2.9,0-.3.1-.4.5-.3,2.1.6,4.3.4,6.4.3.7,0,1.2-.5,1.4-1.1.2-.7,0-1.4-.7-1.8-1.3-.7-2.5-1.5-3.9-2.1-1.6-.6-2.2-1.8-2.3-3.4,0-.8,0-1.5.2-2.3.4-1.5,1.3-2.6,2.6-3.3,1.1-.6,2.4-.9,3.7-1,1.8-.1,3.6-.2,5.4.3.4,0,.7.2,1.2.4-.4,1.1-.7,2.2-1,3.2-.2.6-.2.6-.8.4-1.4-.2-2.9-.3-4.3-.1-.6,0-1.1.3-1.3.9-.2.6,0,1.1.5,1.5h0ZM361.6,65.4c-.6,0-1.2,0-1.8,0-.3,0-.4,0-.5.4-.4,2.4-.9,4.9-1.4,7.3,0,.3,0,.7,0,1,0,.7.4,1,1.1,1.2.6.1,1.2,0,1.8,0,0,1-.2,1.9-.2,2.8,0,.9-.5,1.3-1.3,1.5-1.2.3-2.3.5-3.6.3-2-.4-3.2-1.8-3.3-3.8,0-1,.1-1.9.3-2.8,1.1-5.4,2.2-10.9,3.3-16.3,0-.4.4-.7.9-.7h4.4c-.3,1.7-.7,3.3-1,5h2.8c-.3,1.3-.6,2.5-.9,3.8,0,.3-.2.3-.5.3h0ZM377.8,71.5c-.5,0-1.1,0-1.7,0-2.8,0-5.6,0-8.4,0-.5,0-.7.2-.8.7,0,.2,0,.5,0,.7.2,1.6,1.1,2.5,2.8,2.6,1.8.1,3.6,0,5.4,0,.7,0,1.5-.1,2.3-.2-.2,1.2-.5,2.4-.7,3.5,0,.3-.2.4-.5.4-.5.2-1,.3-1.5.4-2.2.3-4.4.5-6.7.1-3.3-.5-5.2-2.5-6.2-5.6-1.2-3.9.7-8.8,3-10.9,1.4-1.2,3-2,4.9-2.2,1.5-.2,3,0,4.5.3,2.6.7,4.1,2.6,4.3,5.3,0,1.5,0,2.9-.3,4.3,0,.4-.2.5-.6.5h0ZM390,66.2c-.3,0-.6,0-.9,0-.9.2-1.7.7-2.3,1.4-1,1.4-1.5,2.9-1.8,4.6-.4,2.4-.9,4.8-1.3,7.1-.1.6-.1.6-.7.6h-4.5c0-.7.2-1.3.3-1.9,1-5.4,2-10.8,3-16.3,0-.3.1-.5.6-.5,1.2,0,2.3,0,3.5,0,.4,0,.5.1.6.5,0,.4.2.8.3,1.3,1.4-1.4,3-1.8,4.9-1.8-.4,1.6-.8,3.1-1.2,4.6,0,.3-.2.4-.5.3h0ZM406.5,62.3c-4.7-2.3-9,1-9.8,5-.2,1.3-.3,2.6,0,3.8.5,2.1,2.3,3.5,4.5,3.6,1.1,0,2.2,0,3.3-.4.3,0,.4,0,.5.2.4,1.3.9,2.6,1.3,3.9.1.3,0,.4-.3.6-.9.4-1.8.6-2.7.8-1,.2-2,.2-3,.2-3.7.1-7.7-2.2-8.9-6.8-1.1-4.1.2-11.1,5-14.6,2.2-1.6,4.6-2.5,7.3-2.4,2.5.2,4.7.8,6.4,2.8,0,0,.1.1.2.3-1,1-2.1,2-3.1,3-.2.2-.3.2-.6,0h0ZM422.6,79.2c-.1.7-.1.7-.9.7-1.1,0-2.2,0-3.3,0-.5,0-.9,0-1.1-.6,0-.1-.2-.3-.3-.4-1.4,1-3,1.1-4.5,1.1-1.3,0-2.5-.4-3.5-1.2-1.5-1.2-2-2.9-1.6-4.7.7-3.4,2.9-5.3,6.2-6,1.6-.4,3.2-.3,4.9-.3.9,0,1.1-.1,1-1.1,0-.8-.4-1.3-1.2-1.4-1.2-.3-2.5-.2-3.7-.1-1.5.1-3.1.3-4.6.5-.1-.1,0-.3,0-.4.2-1.1.4-2.1.6-3.2,0-.4.2-.5.6-.5.8-.1,1.6-.3,2.4-.4,1.6-.2,3.2-.3,4.9-.2,1.2,0,2.3.3,3.4.8,2.1,1,3,2.7,3.1,4.8,0,1.2-.1,2.3-.4,3.4-.6,3.1-1.2,6.1-1.8,9.2h0ZM435.9,66c-1.5,0-2.6.7-3.3,2-.9,1.5-1.3,3.1-1.6,4.8-.4,2.2-.8,4.5-1.2,6.7,0,.3-.1.4-.4.4-1.6,0-3.1,0-4.8,0,.6-3.3,1.2-6.5,1.8-9.7.5-2.7,1-5.5,1.5-8.2,0,0,0-.2,0-.2,0-.5.4-.7.9-.7,1.1,0,2.1,0,3.2,0,.4,0,.5.1.6.5,0,.4.1.9.4,1.3,1.3-1.3,2.9-1.8,4.7-1.8.1.2,0,.4,0,.5-.4,1.3-.7,2.5-1.1,3.8-.1.3-.2.6-.7.6ZM454.1,73.6c-.4,2-.8,4-1.1,5.9,0,.3-.2.4-.5.4-1.6,0-3.1,0-4.7,0-.3,0-.4,0-.5-.3-.1-.4-.3-.7-.5-1.1-.8.4-1.5.8-2.3,1.1-2.1.7-4,.5-5.6-1.2-.5-.5-.9-1.1-1.2-1.7-1.1-2.1-1.4-4.3-1-6.6.4-2.1,1.2-4.1,2.4-5.9.9-1.4,2.1-2.4,3.7-2.9,1.6-.5,3.3-.5,5-.2.7.1,1.3.6,1.9,1.1.3.3.6.6,1,1,.3-1.5.5-2.8.8-4.1.2-.9.3-1.8.5-2.7,0-.2.1-.5.4-.4,1.6,0,3.3,0,5,0-.3,1.5-.5,3-.8,4.5-.8,4.4-1.6,8.7-2.4,13.1ZM446.2,65.4c-.5,0-.9.2-1.3.5-2,1.5-3,3.4-2.9,5.9,0,1.5,1.1,2.6,2.4,2.8,1,.2,1.9-.2,2.6-.9,1.3-1.3,2.1-3,2.1-5.2,0-.4,0-1.1-.4-1.8-.4-1-1.5-1.6-2.5-1.4ZM415.3,71.4c-1.3.4-2.3,1.1-2.7,2.4-.2.8,0,1.4.8,1.8.5.2.9.3,1.5.3,1.7,0,3-1.2,3.3-2.8,0-.5.2-1,.3-1.5-1.1-.3-2.1-.4-3.1-.1h0ZM373.9,66.5c-.2-1.1-.8-1.6-1.9-1.8-2.1-.3-4,.9-4.5,3.3.3.1.6,0,.8,0,1.5,0,3,0,4.6,0s1.1,0,1.1-1.2c0-.2,0-.3,0-.5ZM331.1,71.5c-.4,0-.9-.2-1.3-.2-1.4,0-2.7.3-3.6,1.5-.5.6-.9,1.4-.5,2.2s1.2.9,1.8,1c1.7,0,3.1-.9,3.5-2.2.2-.6.2-1.2.4-1.8,0-.2,0-.4-.3-.4h0ZM331.1,71.5c-.4,0-.9-.2-1.3-.2-1.4,0-2.7.3-3.6,1.5-.5.6-.9,1.4-.5,2.2s1.2.9,1.8,1c1.7,0,3.1-.9,3.5-2.2.2-.6.2-1.2.4-1.8,0-.2,0-.4-.3-.4h0ZM374,66.9c0-.2,0-.3,0-.5-.2-1.1-.8-1.6-1.9-1.8-2.1-.3-4,.9-4.5,3.3.3.1.6,0,.8,0,1.5,0,3,0,4.6,0s1.1,0,1.1-1.2ZM415.3,71.4c-1.3.4-2.3,1.1-2.7,2.4-.2.8,0,1.4.8,1.8.5.2.9.3,1.5.3,1.7,0,3-1.2,3.3-2.8,0-.5.2-1,.3-1.5-1.1-.3-2.1-.4-3.1-.1h0ZM415.3,71.4c-1.3.4-2.3,1.1-2.7,2.4-.2.8,0,1.4.8,1.8.5.2.9.3,1.5.3,1.7,0,3-1.2,3.3-2.8,0-.5.2-1,.3-1.5-1.1-.3-2.1-.4-3.1-.1h0ZM374,66.9c0-.2,0-.3,0-.5-.2-1.1-.8-1.6-1.9-1.8-2.1-.3-4,.9-4.5,3.3.3.1.6,0,.8,0,1.5,0,3,0,4.6,0s1.1,0,1.1-1.2ZM331.1,71.5c-.4,0-.9-.2-1.3-.2-1.4,0-2.7.3-3.6,1.5-.5.6-.9,1.4-.5,2.2s1.2.9,1.8,1c1.7,0,3.1-.9,3.5-2.2.2-.6.2-1.2.4-1.8,0-.2,0-.4-.3-.4h0ZM331.1,71.5c-.4,0-.9-.2-1.3-.2-1.4,0-2.7.3-3.6,1.5-.5.6-.9,1.4-.5,2.2s1.2.9,1.8,1c1.7,0,3.1-.9,3.5-2.2.2-.6.2-1.2.4-1.8,0-.2,0-.4-.3-.4h0ZM374,66.9c0-.2,0-.3,0-.5-.2-1.1-.8-1.6-1.9-1.8-2.1-.3-4,.9-4.5,3.3.3.1.6,0,.8,0,1.5,0,3,0,4.6,0s1.1,0,1.1-1.2ZM374,66.9c0-.2,0-.3,0-.5-.2-1.1-.8-1.6-1.9-1.8-2.1-.3-4,.9-4.5,3.3.3.1.6,0,.8,0,1.5,0,3,0,4.6,0s1.1,0,1.1-1.2ZM331.1,71.5c-.4,0-.9-.2-1.3-.2-1.4,0-2.7.3-3.6,1.5-.5.6-.9,1.4-.5,2.2s1.2.9,1.8,1c1.7,0,3.1-.9,3.5-2.2.2-.6.2-1.2.4-1.8,0-.2,0-.4-.3-.4h0ZM331.1,71.5c-.4,0-.9-.2-1.3-.2-1.4,0-2.7.3-3.6,1.5-.5.6-.9,1.4-.5,2.2s1.2.9,1.8,1c1.7,0,3.1-.9,3.5-2.2.2-.6.2-1.2.4-1.8,0-.2,0-.4-.3-.4h0ZM331.1,71.5c-.4,0-.9-.2-1.3-.2-1.4,0-2.7.3-3.6,1.5-.5.6-.9,1.4-.5,2.2s1.2.9,1.8,1c1.7,0,3.1-.9,3.5-2.2.2-.6.2-1.2.4-1.8,0-.2,0-.4-.3-.4h0ZM331.1,71.5c-.4,0-.9-.2-1.3-.2-1.4,0-2.7.3-3.6,1.5-.5.6-.9,1.4-.5,2.2s1.2.9,1.8,1c1.7,0,3.1-.9,3.5-2.2.2-.6.2-1.2.4-1.8,0-.2,0-.4-.3-.4h0ZM331.1,71.5c-.4,0-.9-.2-1.3-.2-1.4,0-2.7.3-3.6,1.5-.5.6-.9,1.4-.5,2.2s1.2.9,1.8,1c1.7,0,3.1-.9,3.5-2.2.2-.6.2-1.2.4-1.8,0-.2,0-.4-.3-.4h0Z"/>
          <path class="cls-1" d="M302.2,63.9c.1.3.1.6,0,.9,0-.2-.2-.3,0-.6,0,.2,0,.3-.2.4,0-.3,0-.5.2-.7Z"/>
          <path class="cls-1" d="M315.2,64.9c0,0,0,.1-.1.2,0,0,0-.2.1-.2Z"/>
          <path class="cls-1" d="M315.3,65.2c0,.2,0,.4,0,.5,0-.2,0-.4,0-.5Z"/>
          <path class="cls-1" d="M315.4,64.9c0,0,0-.1-.2-.1,0-.2,0-.3.3-.5,0,.2,0,.4,0,.6h0Z"/>
          <path class="cls-1" d="M315.4,64.9s0,0,0,0c0,0,0,0,0,0Z"/>
          <path class="cls-1" d="M449.1,68.6c0,2.2-.8,3.9-2.1,5.2-.7.7-1.6,1.1-2.6.9-1.3-.2-2.4-1.4-2.4-2.8-.1-2.5.9-4.5,2.9-5.9.4-.3.8-.4,1.3-.5,1.1-.2,2.1.3,2.5,1.4.3.7.4,1.4.4,1.8Z"/>
          <path class="cls-1" d="M331.4,71.9c-.1.6-.2,1.2-.4,1.8-.4,1.2-1.8,2.2-3.5,2.2-.6,0-1.4-.2-1.8-1s0-1.5.5-2.2c.9-1.2,2.2-1.6,3.6-1.5.4,0,.9.1,1.3.2.3,0,.3.2.3.4h0Z"/>
          <path class="cls-1" d="M418.4,71.6c-.1.6-.2,1.1-.3,1.5-.3,1.7-1.6,2.8-3.3,2.8-.5,0-1,0-1.5-.3-.8-.4-1.1-1-.8-1.8.4-1.3,1.4-2.1,2.7-2.4,1-.3,2.1-.2,3.1.1h0Z"/>
          <path class="cls-1" d="M372.9,68.1c-1.5,0-3,0-4.6,0-.3,0-.5,0-.8,0,.5-2.4,2.3-3.6,4.5-3.3,1.1.1,1.7.7,1.9,1.8,0,.2,0,.3,0,.5,0,1.1,0,1.2-1.1,1.2Z"/>
          <path class="cls-1" d="M302.2,64.7c0,0-.2,0-.3-.2,0-.3,0-.5.2-.7.1.3.1.6,0,.9Z"/>
          <path class="cls-1" d="M315.4,64.9s0,0,0,0c0,0,0,0,0,.1,0-.1-.1-.2-.1-.3,0-.2,0-.3.3-.5,0,.2,0,.4,0,.6h0Z"/>
          <path class="cls-1" d="M315.2,65.7s0,0,0,.1c0-.2,0-.5.1-.7,0,.2,0,.4,0,.5Z"/>
          <path class="cls-1" d="M315.2,64.9c0,0,0,.2-.1.2,0,0,0-.2.1-.2Z"/>
          <path class="cls-1" d="M449.1,68.6c0,2.2-.8,3.9-2.1,5.2-.7.7-1.6,1.1-2.6.9-1.3-.2-2.4-1.4-2.4-2.8-.1-2.5.9-4.5,2.9-5.9.4-.3.8-.4,1.3-.5,1.1-.2,2.1.3,2.5,1.4.3.7.4,1.4.4,1.8Z"/>
          <path class="cls-1" d="M331.4,71.9c-.1.6-.2,1.2-.4,1.8-.4,1.2-1.8,2.2-3.5,2.2-.6,0-1.4-.2-1.8-1s0-1.5.5-2.2c.9-1.2,2.2-1.6,3.6-1.5.4,0,.9.1,1.3.2.3,0,.3.2.3.4h0Z"/>
          <path class="cls-1" d="M418.4,71.6c-.1.6-.2,1.1-.3,1.5-.3,1.7-1.6,2.8-3.3,2.8-.5,0-1,0-1.5-.3-.8-.4-1.1-1-.8-1.8.4-1.3,1.4-2.1,2.7-2.4,1-.3,2.1-.2,3.1.1h0Z"/>
          <path class="cls-1" d="M372.9,68.1c-1.5,0-3,0-4.6,0-.3,0-.5,0-.8,0,.5-2.4,2.3-3.6,4.5-3.3,1.1.1,1.7.7,1.9,1.8,0,.2,0,.3,0,.5,0,1.1,0,1.2-1.1,1.2Z"/>
        </g>
        <g id="g4158">
          <polygon id="polygon9" class="cls-1" points="634.8 98.9 618.9 98.9 628.8 37.3 644.8 37.3 634.8 98.9"/>
          <path id="path11" class="cls-1" d="M692.6,38.8c-3.1-1.2-8.1-2.6-14.3-2.6-15.7,0-26.8,8.4-26.9,20.4-.1,8.8,7.9,13.8,14,16.7,6.2,3,8.3,5,8.3,7.7,0,4.1-5,6-9.6,6s-9.8-1-15-3.3l-2.1-1-2.2,13.8c3.7,1.7,10.6,3.2,17.8,3.3,16.7,0,27.6-8.3,27.7-21,0-7-4.2-12.4-13.4-16.8-5.6-2.8-9-4.7-9-7.6,0-2.6,2.9-5.3,9.2-5.3,5.2-.1,9,1.1,11.9,2.4l1.4.7,2.2-13.3h0Z"/>
          <path id="path13" class="cls-1" d="M713.7,77.1c1.3-3.5,6.4-17.2,6.4-17.2,0,.1,1.3-3.6,2.1-5.9l1.1,5.3s3,14.7,3.7,17.8h-13.2,0ZM733.4,37.3h-12.3c-3.8,0-6.7,1.1-8.3,5.1l-23.7,56.5h16.7s2.8-7.6,3.3-9.2h20.5c.5,2.2,1.9,9.2,1.9,9.2h14.8l-12.8-61.6h0Z"/>
          <path id="path15" class="cls-1" d="M605.6,37.3l-15.6,42-1.7-8.5c-2.9-9.8-11.9-20.5-22-25.8l14.3,53.9h16.9l25-61.5s-16.9,0-16.9,0Z"/>
          <path id="path17" class="cls-1" d="M575.5,37.3h-25.6l-.3,1.2c20,5.1,33.2,17.4,38.7,32.2l-5.6-28.3c-.9-3.9-3.7-5-7.2-5.2h0Z"/>
        </g>
      </g>
    </g>
  </g>
</svg>