<svg width="56" height="49" viewBox="0 0 56 49" fill="none" xmlns="http://www.w3.org/2000/svg">
<path d="M16.6935 6.73047C17.9889 6.95002 18.9262 7.65443 19.8109 8.45031C21.3801 9.84997 23.002 11.1947 24.5291 12.631C25.9614 13.9758 25.9614 15.7871 24.5396 17.1502C23.5602 18.0924 22.4965 18.9706 21.4538 19.8671C21.2432 20.0501 21.1905 20.1782 21.3274 20.416C22.3701 22.3097 23.8867 23.9198 25.5191 25.4383C27.1937 26.9935 29.0262 28.3932 31.1009 29.5367C31.6697 29.8477 32.2805 30.1039 32.8598 30.3966C33.0599 30.4972 33.1757 30.4698 33.3337 30.3326C34.2078 29.555 35.082 28.7683 35.9982 28.0273C36.4932 27.6247 37.0514 27.2314 37.6623 27.0027C39.2315 26.408 40.6743 26.7374 41.8855 27.7528C43.6338 29.2257 45.3189 30.7351 47.0566 32.2171C48.847 33.7448 49.005 35.7757 47.341 37.34C46.1087 38.4927 44.8555 39.6271 43.5179 40.6791C42.0856 41.8043 40.2952 42.0879 38.41 41.9507C35.4506 41.7403 32.7439 40.8346 30.1215 39.7002C26.2247 38.017 22.6966 35.8763 19.5897 33.2417C14.9136 29.2714 11.1537 24.7705 9.00526 19.3457C8.40494 17.8363 8.03633 16.2994 8.07846 14.6985C8.12059 13.1433 8.71037 11.7802 9.97418 10.6642C11.0168 9.7402 12.07 8.82539 13.1442 7.91057C13.8288 7.29765 14.6819 6.90428 15.6613 6.73047C15.9984 6.73047 16.3459 6.73047 16.6935 6.73047ZM39.0841 40.2034C40.3268 40.2308 41.4642 39.9564 42.3594 39.2062C43.5495 38.2091 44.6975 37.1845 45.8139 36.1233C46.6564 35.3366 46.6353 34.4675 45.7823 33.6991C44.0024 32.1165 42.2015 30.5521 40.3795 28.997C39.6738 28.3932 38.7681 28.3749 37.9677 28.8872C37.7676 29.0153 37.5885 29.1708 37.4095 29.3171C36.43 30.1679 35.4506 31.0187 34.4606 31.8695C33.7971 32.4366 33.1125 32.5373 32.3016 32.1714C31.7223 31.9152 31.1536 31.6591 30.5954 31.3755C28.0994 30.0764 25.9088 28.4389 23.9393 26.5819C22.1068 24.8712 20.4428 23.0507 19.3369 20.9009C18.8525 19.9678 18.9683 19.4555 19.8109 18.7511C20.7798 17.9369 21.7487 17.1227 22.6861 16.2902C23.7919 15.3114 23.7814 14.5064 22.7071 13.5092C22.6861 13.4909 22.6755 13.4726 22.6545 13.4635C21.0326 12.0547 19.4107 10.6367 17.7782 9.23705C17.5149 9.0175 17.2201 8.80709 16.8936 8.66987C15.9984 8.30394 15.2401 8.62413 14.5976 9.17301C13.555 10.0512 12.5123 10.9294 11.5224 11.8534C11.0906 12.2559 10.7219 12.7408 10.4797 13.2531C9.93205 14.3966 10.0795 15.595 10.3533 16.7751C10.8799 19.0164 11.8699 21.1204 13.1653 23.0964C17.7888 30.1771 24.2448 35.5287 32.8598 38.8403C34.8187 39.6088 36.8829 40.1394 39.0841 40.2034Z" fill="#072C50"/>
</svg>
