<svg width="26" height="24" viewBox="0 0 26 24" fill="none" xmlns="http://www.w3.org/2000/svg">
<path d="M6.34192 10.75C5.61541 10.75 4.87866 10.49 4.31587 9.96C2.43308 8.21 1.67587 6.3 2.11587 4.43C2.63773 2.23 4.61261 1.25 6.34192 1.25C8.07122 1.25 10.0563 2.24 10.568 4.43C11.008 6.3 10.2405 8.21 8.36796 9.96C7.80517 10.49 7.07866 10.75 6.34192 10.75ZM3.60982 4.77C3.22099 6.44 4.3568 7.92 5.38006 8.87C5.92238 9.38 6.77169 9.37 7.31401 8.87C8.33727 7.92 9.47308 6.44 9.07401 4.76C8.7261 3.28 7.38564 2.75 6.35215 2.75C5.30843 2.75 3.96796 3.28 3.60982 4.77Z" fill="#0DB1FF"/>
<path d="M6.38263 6.19922C5.81984 6.19922 5.35938 5.74922 5.35938 5.19922C5.35938 4.64922 5.80961 4.19922 6.38263 4.19922H6.39286C6.95565 4.19922 7.41612 4.64922 7.41612 5.19922C7.41612 5.74922 6.95565 6.19922 6.38263 6.19922Z" fill="#0DB1FF"/>
<path d="M19.6649 22.7502C18.9384 22.7502 18.2017 22.4902 17.6286 21.9602C15.7356 20.2102 14.9682 18.3002 15.4184 16.4202C15.9403 14.2302 17.9254 13.2402 19.6649 13.2402C21.4045 13.2402 23.3896 14.2302 23.9114 16.4202C24.3514 18.2902 23.584 20.2102 21.691 21.9502C21.1282 22.4902 20.4017 22.7502 19.6649 22.7502ZM19.6649 14.7502C18.6212 14.7502 17.2705 15.2802 16.9124 16.7702C16.5133 18.4402 17.6593 19.9302 18.6826 20.8802C19.2249 21.3902 20.0845 21.3902 20.637 20.8802C21.6603 19.9302 22.8063 18.4502 22.4072 16.7802C22.0696 15.2802 20.7189 14.7502 19.6649 14.7502Z" fill="#0DB1FF"/>
<path d="M19.7049 18.1992C19.1421 18.1992 18.6816 17.7492 18.6816 17.1992C18.6816 16.6492 19.1319 16.1992 19.7049 16.1992H19.7151C20.2779 16.1992 20.7384 16.6492 20.7384 17.1992C20.7384 17.7492 20.2677 18.1992 19.7049 18.1992Z" fill="#0DB1FF"/>
<path d="M13.0222 19.75H10.2799C9.09294 19.75 8.05945 19.05 7.65015 17.97C7.23061 16.89 7.53759 15.7 8.42782 14.93L16.6036 7.94C17.0948 7.52 17.105 6.95 16.9618 6.56C16.8083 6.17 16.4195 5.75 15.7646 5.75H13.0222C12.6027 5.75 12.2548 5.41 12.2548 5C12.2548 4.59 12.6027 4.25 13.0222 4.25H15.7646C16.9515 4.25 17.985 4.95 18.3943 6.03C18.8139 7.11 18.5069 8.3 17.6167 9.07L9.44085 16.06C8.94968 16.48 8.93945 17.05 9.08271 17.44C9.23619 17.83 9.62503 18.25 10.2799 18.25H13.0222C13.4418 18.25 13.7897 18.59 13.7897 19C13.7897 19.41 13.4418 19.75 13.0222 19.75Z" fill="#0DB1FF"/>
<path d="M13.0222 19.75H10.2799C9.09294 19.75 8.05945 19.05 7.65015 17.97C7.23061 16.89 7.53759 15.7 8.42782 14.93L16.6036 7.94C17.0948 7.52 17.105 6.95 16.9618 6.56C16.8083 6.17 16.4195 5.75 15.7646 5.75H13.0222C12.6027 5.75 12.2548 5.41 12.2548 5C12.2548 4.59 12.6027 4.25 13.0222 4.25H15.7646C16.9515 4.25 17.985 4.95 18.3943 6.03C18.8139 7.11 18.5069 8.3 17.6167 9.07L9.44085 16.06C8.94968 16.48 8.93945 17.05 9.08271 17.44C9.23619 17.83 9.62503 18.25 10.2799 18.25H13.0222C13.4418 18.25 13.7897 18.59 13.7897 19C13.7897 19.41 13.4418 19.75 13.0222 19.75Z" fill="#0DB1FF"/>
</svg>
