<svg width="57" height="56" viewBox="0 0 57 56" fill="none" xmlns="http://www.w3.org/2000/svg">
<g filter="url(#filter0_d_10227_34973)">
<rect x="4.33331" width="48" height="48" rx="24" fill="white" shape-rendering="crispEdges"/>
<path d="M37.1169 21.2863L38.8333 19.4859H35.0271C33.1217 18.2309 30.8204 17.5 28.3317 17.5C25.8461 17.5 23.5513 18.2325 21.649 19.4859H17.8333L19.5497 21.2863C18.4976 22.2118 17.8381 23.5449 17.8381 25.0251C17.8381 27.8185 20.187 30.0832 23.0842 30.0832C24.4604 30.0832 25.7143 29.5714 26.6504 28.7348L28.3318 30.5L30.0132 28.7363C30.9492 29.573 32.2015 30.0832 33.5778 30.0832C36.4749 30.0832 38.827 27.8185 38.827 25.0251C38.8285 23.5434 38.169 22.2103 37.1169 21.2863ZM23.0857 28.4482C21.1246 28.4482 19.5354 26.916 19.5354 25.0251C19.5354 23.1343 21.1246 21.602 23.0857 21.602C25.0468 21.602 26.636 23.1343 26.636 25.0251C26.636 26.916 25.0468 28.4482 23.0857 28.4482ZM28.3333 24.9255C28.3333 22.673 26.6345 20.7393 24.392 19.9134C25.6046 19.4245 26.9348 19.1533 28.3317 19.1533C29.7286 19.1533 31.0604 19.4245 32.273 19.9134C30.0322 20.7408 28.3333 22.6731 28.3333 24.9255ZM33.5794 28.4482C31.6182 28.4482 30.029 26.916 30.029 25.0251C30.029 23.1343 31.6182 21.602 33.5794 21.602C35.5405 21.602 37.1297 23.1343 37.1297 25.0251C37.1297 26.916 35.5405 28.4482 33.5794 28.4482ZM33.5794 23.2292C32.5511 23.2292 31.7184 24.0322 31.7184 25.0236C31.7184 26.015 32.5511 26.8179 33.5794 26.8179C34.6076 26.8179 35.4403 26.015 35.4403 25.0236C35.4403 24.0337 34.6076 23.2292 33.5794 23.2292ZM24.9467 25.0251C24.9467 26.0165 24.1139 26.8194 23.0857 26.8194C22.0575 26.8194 21.2247 26.0165 21.2247 25.0251C21.2247 24.0337 22.0575 23.2308 23.0857 23.2308C24.1139 23.2292 24.9467 24.0337 24.9467 25.0251Z" fill="#0DB1FF"/>
</g>
<defs>
<filter id="filter0_d_10227_34973" x="0.333313" y="0" width="56" height="56" filterUnits="userSpaceOnUse" color-interpolation-filters="sRGB">
<feFlood flood-opacity="0" result="BackgroundImageFix"/>
<feColorMatrix in="SourceAlpha" type="matrix" values="0 0 0 0 0 0 0 0 0 0 0 0 0 0 0 0 0 0 127 0" result="hardAlpha"/>
<feOffset dy="4"/>
<feGaussianBlur stdDeviation="2"/>
<feComposite in2="hardAlpha" operator="out"/>
<feColorMatrix type="matrix" values="0 0 0 0 0 0 0 0 0 0 0 0 0 0 0 0 0 0 0.1 0"/>
<feBlend mode="normal" in2="BackgroundImageFix" result="effect1_dropShadow_10227_34973"/>
<feBlend mode="normal" in="SourceGraphic" in2="effect1_dropShadow_10227_34973" result="shape"/>
</filter>
</defs>
</svg>
