<svg width="22" height="22" viewBox="0 0 22 22" fill="none" xmlns="http://www.w3.org/2000/svg">
<g id="Apple Logo">
<path id="Vector" d="M18.5403 7.09592C18.4511 7.15176 16.3276 8.33024 16.3276 10.9432C16.4277 13.9231 19.0073 14.9682 19.0516 14.9682C19.0073 15.024 18.6621 16.3918 17.6396 17.8256C16.828 19.0606 15.9273 20.3058 14.5596 20.3058C13.2585 20.3058 12.7915 19.4827 11.2903 19.4827C9.67809 19.4827 9.22193 20.3058 7.9876 20.3058C6.61984 20.3058 5.65239 18.9939 4.79663 17.7704C3.68487 16.1691 2.73991 13.6563 2.70655 11.2435C2.68407 9.96489 2.92919 8.70808 3.55143 7.64056C4.42967 6.15023 5.9976 5.13855 7.70984 5.10519C9.02177 5.06095 10.1894 6.00591 10.99 6.00591C11.7573 6.00591 13.1918 5.10519 14.8148 5.10519C15.5154 5.10591 17.3836 5.31695 18.5403 7.09592ZM10.8791 4.84991C10.6455 3.6823 11.2903 2.5147 11.8907 1.7699C12.658 0.869173 13.8699 0.257812 14.9149 0.257812C14.9816 1.42542 14.5588 2.57054 13.8031 3.40454C13.1251 4.30527 11.9575 4.98335 10.8791 4.84991Z" fill="black"/>
</g>
</svg>
