<?xml version="1.0" encoding="UTF-8"?>
<svg id="Layer_2" data-name="Layer 2" xmlns="http://www.w3.org/2000/svg" viewBox="0 0 85.16 47.17">
  <g id="Layer_1-2" data-name="Layer 1">
    <g>
      <path d="M72.01,30.72c3.4,0,6.8,0,10.2,0,.31,0,.63-.03,.93,.04,.76,.17,1.21,.65,1.21,1.44,0,.79-.45,1.28-1.21,1.45-.3,.07-.62,.04-.93,.04-26.7,0-53.4,0-80.11,0-1.76,0-2.24-.52-2.07-2.26,.57-6.23,4.78-11.02,11.29-12.63,1.89-.47,3.87-.57,5.82-.77,.54-.06,.9-.16,1.2-.65,1.07-1.75,2.19-3.47,3.36-5.31-.32-.04-.55-.08-.77-.08-1.4,0-2.81,.02-4.21-.01-.93-.02-1.5-.6-1.52-1.44-.02-.88,.57-1.46,1.54-1.52,.22-.01,.44,0,.65,0,3.56,0,7.11,0,10.67,0,2.93,0,4.47-2.17,3.46-4.9-.22-.61-.57-1.18-.88-1.74-.64-1.13-.05-2.29,1.25-2.33,1.62-.05,3.25-.05,4.86,.01,.43,.02,.89,.27,1.25,.53,3.68,2.62,7.35,5.27,11.03,7.89,.32,.23,.7,.46,1.07,.49,3.75,.26,7.2,1.53,10.41,3.36,2.7,1.54,5.21,3.4,7.84,5.08,.44,.28,1,.51,1.51,.51,4.43,.04,8.86,.03,13.29,.02,.8,0,1.5,.1,1.88,.91,.37,.79-.05,1.38-.51,1.95-3.19,3.98-7.12,7.05-11.68,9.31-.3,.15-.59,.3-.88,.44,.02,.06,.04,.11,.06,.17Zm8.37-9.42c-.06-.11-.11-.22-.17-.34-.36,0-.72,0-1.08,0-17.5,0-35,0-52.5,0-3.28,0-6.55-.04-9.83,.02-2.93,.05-5.78,.56-8.35,2.05-2.95,1.7-4.64,4.3-5.36,7.65,.35,.02,.59,.04,.84,.04,17.84,0,35.68,.01,53.53,0,6.23,0,12.01-1.7,17.23-5.11,1.99-1.3,3.8-2.86,5.69-4.31Zm-58.85-3.38H63.78c-1.74-1.44-1.76-1.45-3.77-1.45-3.24,0-6.48,0-9.72,0-1.01,0-1.61-.43-1.74-1.2-.18-1.01,.49-1.75,1.64-1.76,1.79-.02,3.58,0,5.37,0-1.8-.9-3.67-1.48-5.64-1.49-8.01-.05-16.02-.03-24.03-.02-.25,0-.6,.1-.72,.28-1.21,1.84-2.38,3.7-3.63,5.65Zm23.03-8.95c-2.57-1.87-4.94-3.52-7.23-5.29-.91-.71-1.83-.76-2.79-.63,.12,1.03,.36,2.02,.3,2.99-.06,.99-.44,1.95-.67,2.93h10.39Z"/>
      <path d="M41.81,37.46c10.41,0,20.83,0,31.24,0,.31,0,.63-.02,.93,.01,.84,.09,1.39,.7,1.38,1.49,0,.79-.57,1.38-1.42,1.46-.25,.02-.5,0-.75,0-20.99,0-41.97,0-62.96,0-.31,0-.63,.03-.93-.03-.8-.17-1.26-.67-1.23-1.52,.03-.8,.51-1.25,1.26-1.39,.3-.06,.62-.03,.93-.03,10.51,0,21.02,0,31.52,0Z"/>
      <path d="M41.66,47.17c-5.83,0-11.66,0-17.49,0-.86,0-1.56-.2-1.82-1.11-.25-.88,.32-1.71,1.24-1.84,.28-.04,.56-.02,.84-.02,11.53,0,23.07,0,34.6,0,.06,0,.12,0,.19,0,1.26,0,1.95,.55,1.92,1.52-.02,.93-.69,1.45-1.9,1.45-5.86,0-11.72,0-17.58,0Z"/>
      <path d="M15.47,26.2c-1.12,0-1.76-.53-1.78-1.46-.01-.96,.65-1.51,1.82-1.51,1.15,0,1.85,.57,1.83,1.51-.01,.93-.7,1.47-1.88,1.46Z"/>
      <path d="M21.53,26.2c-1.18,0-1.84-.54-1.84-1.49,0-.93,.64-1.46,1.76-1.48,1.18-.01,1.87,.52,1.89,1.44,.02,.94-.66,1.52-1.81,1.52Z"/>
      <path d="M27.53,23.23c1.15,0,1.83,.59,1.8,1.53-.03,.93-.72,1.45-1.9,1.43-1.11-.01-1.75-.56-1.75-1.49,0-.95,.66-1.49,1.85-1.48Z"/>
      <path d="M33.51,23.23c1.15,0,1.83,.59,1.8,1.53-.03,.93-.72,1.45-1.9,1.43-1.11-.01-1.75-.56-1.75-1.49,0-.95,.66-1.49,1.85-1.48Z"/>
      <path d="M34.18,16.47c-2.34,0-4.67,0-7.01,0-1.22,0-1.86-.52-1.86-1.47,0-.96,.64-1.49,1.84-1.49,4.73,0,9.47,0,14.2,0,1.17,0,1.85,.58,1.83,1.52-.02,.91-.68,1.44-1.81,1.45-2.4,0-4.8,0-7.2,0Z"/>
    </g>
  </g>
</svg>