<svg width="31" height="28" viewBox="0 0 31 28" fill="none" xmlns="http://www.w3.org/2000/svg">
<g id="cil:boat-alt">
<path id="Vector" d="M24.8767 9.90188C24.74 9.56474 24.4921 9.27356 24.1666 9.0676C23.841 8.86163 23.4533 8.75078 23.0558 8.75H20.68L19.7113 3.5H13.3876L14.3564 8.75H11.9613L10.9925 3.5H4.66889L5.63764 8.75H2.90625V13.5625H0.96875V24.5H26.8663L30.0312 15.4474V13.5625H26.3504L24.8767 9.90188ZM18.07 5.25L18.7158 8.75H16.3207L15.6749 5.25H18.07ZM9.35122 5.25L9.99708 8.75H7.6019L6.95611 5.25H9.35122ZM4.84375 10.5H23.0558L24.2887 13.5625H4.84375V10.5ZM28.0466 15.3125L25.4462 22.75H2.90625V15.3125H28.0466Z" fill="white"/>
<path id="Vector_2" d="M4.84375 17.5H6.78125V19.25H4.84375V17.5ZM8.71875 17.5H10.6562V19.25H8.71875V17.5ZM12.5938 17.5H14.5312V19.25H12.5938V17.5ZM16.4688 17.5H18.4062V19.25H16.4688V17.5ZM20.3438 17.5H22.2812V19.25H20.3438V17.5Z" fill="white"/>
</g>
</svg>
