<svg width="34" height="34" viewBox="0 0 34 34" fill="none" xmlns="http://www.w3.org/2000/svg">
<g id="clarity:boat-line" clip-path="url(#clip0_3840_12590)">
<path id="Vector" d="M27.4833 25.5944C26.4444 25.5 25.4056 25.8778 24.5556 26.6333C23.5167 27.6722 21.8167 27.6722 20.6833 26.6333C19.7389 25.9722 18.7 25.5944 17.5667 25.5944C16.4333 25.5 15.3 25.8778 14.45 26.6333C13.8833 27.1056 13.2222 27.3889 12.4667 27.3889C11.7111 27.3889 11.05 27.1056 10.4833 26.6333C9.53889 25.8778 8.40555 25.5 7.27222 25.5C6.13889 25.5 5.00555 25.8778 4.06111 26.6333C3.49444 27.1056 2.64444 27.3889 1.88889 27.3889V29.2778C3.11666 29.3722 4.34444 28.9944 5.28889 28.1444C5.85555 27.6722 6.70555 27.3889 7.46111 27.3889C8.12222 27.3889 8.87777 27.6722 9.44444 28.1444C11.1444 29.6556 13.7889 29.6556 15.5833 28.1444C16.15 27.6722 16.8111 27.3889 17.5667 27.3889C18.2278 27.3889 18.8889 27.6722 19.4556 28.1444C21.25 29.6556 23.8 29.6556 25.5944 28.1444C26.0667 27.6722 26.8222 27.3889 27.4833 27.3889C28.1444 27.3889 28.8056 27.6722 29.2778 28.1444C30.1278 28.8056 31.0722 29.1833 32.1111 29.2778V27.3889C31.1667 27.3889 30.9778 27.0111 30.5056 26.6333C29.6556 25.9722 28.6167 25.5944 27.4833 25.5944Z" fill="white"/>
<path id="Vector_2" d="M5.66667 21.722C5.66667 21.1553 6.13889 20.7776 6.70556 20.7776H30.2222L26.9167 23.7053H27.1056C27.8611 23.7053 28.6167 23.8942 29.1833 24.1776L31.5444 22.0998L31.7333 21.9109C32.3944 21.1553 32.3 19.9276 31.5444 19.2664C31.1667 19.0776 30.7889 18.8887 30.3167 18.8887H6.70556C5.1 18.8887 3.87222 20.1164 3.87222 21.722V24.7442C4.34445 24.272 5.00556 23.9887 5.66667 23.7053V21.722Z" fill="white"/>
<path id="Vector_3" d="M8.40556 17.9443H14.1667V10.5776C14.1667 10.0109 13.8833 9.44427 13.4111 9.06649C12.5611 8.40538 11.3333 8.59427 10.7667 9.44427L6.89445 15.0165C6.51667 15.5832 6.51667 16.3387 6.8 16.9998C7.08333 17.5665 7.74445 17.9443 8.40556 17.9443ZM12.3722 10.5776L12.2778 16.0554H8.40556L12.3722 10.5776Z" fill="white"/>
<path id="Vector_4" d="M24.5556 17.0003C24.9333 16.4336 24.9333 15.6781 24.5556 15.1114L18.6056 5.28917C18.2278 4.7225 17.6611 4.34473 17 4.34473C15.9611 4.34473 15.1111 5.19473 15.1111 6.23362V17.9447H22.95C23.6111 17.9447 24.2722 17.5669 24.5556 17.0003ZM16.9056 6.23362L22.95 16.1503H16.9056V6.23362Z" fill="white"/>
</g>
<defs>
<clipPath id="clip0_3840_12590">
<rect width="34" height="34" fill="white"/>
</clipPath>
</defs>
</svg>
