<svg width="28" height="28" viewBox="0 0 28 28" fill="none" xmlns="http://www.w3.org/2000/svg">
<path d="M13.9999 26.5404C7.08159 26.5404 1.45825 20.917 1.45825 13.9987C1.45825 7.08037 7.08159 1.45703 13.9999 1.45703C20.9183 1.45703 26.5416 7.08037 26.5416 13.9987C26.5416 20.917 20.9183 26.5404 13.9999 26.5404ZM13.9999 3.20703C8.04992 3.20703 3.20825 8.0487 3.20825 13.9987C3.20825 19.9487 8.04992 24.7904 13.9999 24.7904C19.9499 24.7904 24.7916 19.9487 24.7916 13.9987C24.7916 8.0487 19.9499 3.20703 13.9999 3.20703Z" fill="#0DB1FF"/>
<path d="M18.3283 18.5851C18.1766 18.5851 18.025 18.5501 17.885 18.4567L14.2683 16.2984C13.37 15.7617 12.705 14.5834 12.705 13.5451V8.76172C12.705 8.28339 13.1016 7.88672 13.58 7.88672C14.0583 7.88672 14.455 8.28339 14.455 8.76172V13.5451C14.455 13.9651 14.805 14.5834 15.1666 14.7934L18.7833 16.9517C19.2033 17.1967 19.3316 17.7334 19.0866 18.1534C18.9116 18.4334 18.62 18.5851 18.3283 18.5851Z" fill="#0DB1FF"/>
</svg>
