<svg width="14" height="22" viewBox="0 0 14 22" fill="none" xmlns="http://www.w3.org/2000/svg">
<path d="M10.6673 10.0832L7.00065 13.7498L3.33399 10.0832L4.61732 8.79984L6.08399 10.2207V6.41651H7.91732V10.2207L9.38399 8.79984L10.6673 10.0832ZM5.16732 18.3332H8.83399V17.4165H5.16732V18.3332ZM2.41732 21.0832C1.91315 21.0832 1.4814 20.9035 1.12207 20.5442C0.762736 20.1848 0.583375 19.7534 0.583986 19.2498V2.74984C0.583986 2.24567 0.763652 1.81392 1.12299 1.45459C1.48232 1.09526 1.91376 0.915894 2.41732 0.916505H11.584C12.0882 0.916505 12.5199 1.09617 12.8792 1.45551C13.2386 1.81484 13.4179 2.24628 13.4173 2.74984V19.2498C13.4173 19.754 13.2377 20.1858 12.8783 20.5451C12.519 20.9044 12.0875 21.0838 11.584 21.0832H2.41732ZM2.41732 14.6665H11.584V5.49984H2.41732V14.6665Z" fill="black"/>
</svg>
