<svg width="25" height="25" viewBox="0 0 25 25" fill="none" xmlns="http://www.w3.org/2000/svg">
<path d="M18.3199 24.8771L16.8929 23.4531C15.3671 24.1986 13.6913 24.5861 11.993 24.5861C10.2948 24.5861 8.61889 24.1986 7.09302 23.4531L5.66602 24.8771C5.5883 24.9527 5.48392 24.9948 5.37549 24.9941C5.26706 24.9935 5.16323 24.9502 5.08643 24.8737C5.00962 24.7971 4.96599 24.6934 4.96497 24.585C4.96395 24.4766 5.00571 24.3721 5.08106 24.2941L6.33399 23.0441C4.87844 22.1947 3.63522 21.0253 2.69824 19.6245C1.76127 18.2237 1.15517 16.6282 0.925783 14.9586C0.696395 13.289 0.849678 11.5891 1.37415 9.98755C1.89862 8.38596 2.78048 6.92461 3.953 5.71411L3.26001 5.02212L1.56494 6.71313C1.48694 6.7899 1.3819 6.83291 1.27246 6.83291C1.16302 6.83291 1.05798 6.7899 0.979982 6.71313C0.668618 6.40118 0.421825 6.03092 0.253542 5.62356C0.0852586 5.2162 -0.00114874 4.77968 -0.000730914 4.33892C-0.000313083 3.89817 0.0868059 3.46182 0.255861 3.05478C0.424916 2.64773 0.672543 2.27797 0.984499 1.96661C1.29645 1.65525 1.66674 1.40839 2.0741 1.24011C2.48146 1.07183 2.91789 0.985418 3.35864 0.985836C3.7994 0.986254 4.23578 1.07349 4.64282 1.24255C5.04987 1.41161 5.41959 1.65917 5.73096 1.97113C5.76942 2.00941 5.79998 2.0549 5.8208 2.10501C5.84163 2.15512 5.8523 2.20885 5.8523 2.26312C5.8523 2.31738 5.84163 2.37112 5.8208 2.42123C5.79998 2.47134 5.76942 2.51683 5.73096 2.55511L3.84497 4.43811L4.54505 5.13812C6.59224 3.30506 9.24353 2.2915 11.9915 2.2915C14.7394 2.2915 17.3908 3.30506 19.438 5.13812L20.1379 4.43811L18.251 2.55511C18.1738 2.47753 18.1305 2.37256 18.1305 2.26312C18.1305 2.15368 18.1738 2.04871 18.251 1.97113C18.5606 1.65155 18.9308 1.39674 19.3398 1.22149C19.7489 1.04625 20.1887 0.954051 20.6337 0.950314C21.0787 0.946576 21.52 1.03136 21.9319 1.1997C22.3438 1.36805 22.7181 1.61664 23.0331 1.93097C23.3481 2.24529 23.5974 2.6191 23.7666 3.03067C23.9358 3.44224 24.0216 3.88335 24.0188 4.32834C24.016 4.77332 23.9247 5.2133 23.7504 5.62271C23.576 6.03211 23.322 6.40279 23.0031 6.71313C22.9251 6.7899 22.8199 6.83291 22.7105 6.83291C22.601 6.83291 22.496 6.7899 22.418 6.71313L20.723 5.02212L20.0291 5.71411C21.2016 6.92461 22.0834 8.38596 22.6079 9.98755C23.1324 11.5891 23.2857 13.289 23.0563 14.9586C22.8269 16.6282 22.2208 18.2237 21.2838 19.6245C20.3468 21.0253 19.1035 22.1947 17.648 23.0441L18.901 24.2941C18.9403 24.3323 18.9715 24.3779 18.9929 24.4283C19.0144 24.4787 19.0257 24.5329 19.026 24.5876C19.0263 24.6424 19.0157 24.6967 18.9949 24.7474C18.974 24.798 18.9433 24.844 18.9045 24.8827C18.8657 24.9213 18.8196 24.9519 18.7689 24.9726C18.7182 24.9932 18.6639 25.0036 18.6091 25.0031C18.5544 25.0026 18.5003 24.9912 18.45 24.9696C18.3996 24.9479 18.3541 24.9165 18.316 24.8771H18.3199ZM1.64905 13.4391C1.6447 15.4857 2.2475 17.4876 3.38135 19.1914C4.5152 20.8952 6.12913 22.2243 8.01868 23.0105C9.90823 23.7967 11.9885 24.0047 13.9963 23.6081C16.0041 23.2115 17.8492 22.2281 19.2979 20.7825C20.7465 19.3369 21.7338 17.494 22.1346 15.4871C22.5355 13.4801 22.332 11.3993 21.5498 9.50811C20.7676 7.6169 19.442 6.00024 17.7406 4.86276C16.0392 3.72528 14.0385 3.11813 11.9919 3.11813C9.25262 3.11812 6.62522 4.2048 4.68616 6.13974C2.7471 8.07467 1.65488 10.6998 1.64905 13.4391ZM19.156 2.28711L22.6899 5.81311C23.0368 5.32519 23.1996 4.73014 23.1492 4.13363C23.0988 3.53712 22.8386 2.97778 22.4148 2.55496C21.991 2.13214 21.4311 1.87322 20.8345 1.82418C20.2379 1.77515 19.6431 1.93916 19.156 2.28711ZM1.56397 2.55511C1.14045 2.97829 0.880931 3.53809 0.831667 4.13476C0.782402 4.73143 0.946671 5.3262 1.29505 5.81311L4.82898 2.28711C4.34059 1.93945 3.74507 1.77566 3.14758 1.8247C2.5501 1.87375 1.98913 2.13247 1.56397 2.55511ZM11.991 22.8901C11.8822 22.8901 11.7779 22.8469 11.7011 22.77C11.6242 22.6932 11.5811 22.5889 11.5811 22.4801V22.0601C11.5811 21.9514 11.6242 21.8471 11.7011 21.7702C11.7779 21.6933 11.8822 21.6501 11.991 21.6501H12.001C12.1095 21.6504 12.2136 21.6937 12.2903 21.7706C12.367 21.8474 12.41 21.9516 12.41 22.0601V22.4801C12.41 22.5887 12.367 22.6928 12.2903 22.7697C12.2136 22.8465 12.1095 22.8899 12.001 22.8901H11.991ZM18.137 20.1041L17.845 19.8121C17.7675 19.7346 17.7242 19.6294 17.7242 19.5198C17.7243 19.4102 17.7679 19.3051 17.8455 19.2276C17.923 19.1502 18.0282 19.1067 18.1378 19.1068C18.2474 19.1069 18.3526 19.1505 18.4301 19.2281L18.722 19.5201C18.7995 19.5977 18.8429 19.7029 18.8428 19.8125C18.8427 19.9221 18.7991 20.0272 18.7216 20.1046C18.644 20.1821 18.5388 20.2255 18.4292 20.2254C18.3196 20.2253 18.2144 20.1817 18.137 20.1041ZM5.26404 20.1041C5.18685 20.0265 5.14343 19.9216 5.14343 19.8121C5.14343 19.7027 5.18685 19.5977 5.26404 19.5201L5.55603 19.2281C5.63347 19.1505 5.73853 19.1069 5.84815 19.1068C5.95776 19.1067 6.06293 19.1502 6.1405 19.2276C6.21808 19.3051 6.26175 19.4102 6.26184 19.5198C6.26194 19.6294 6.21844 19.7346 6.14099 19.8121L5.849 20.1041C5.77125 20.1814 5.66612 20.2247 5.55652 20.2247C5.44692 20.2247 5.34179 20.1814 5.26404 20.1041ZM10.338 13.4391C10.3393 13.0738 10.4618 12.7192 10.6864 12.4311C10.911 12.1429 11.225 11.9375 11.579 11.8471V7.65911C11.5842 7.55297 11.6301 7.45288 11.707 7.3796C11.784 7.30632 11.8863 7.26547 11.9926 7.26547C12.0988 7.26547 12.201 7.30632 12.278 7.3796C12.3549 7.45288 12.4008 7.55297 12.406 7.65911V11.8471C12.6902 11.9207 12.9497 12.0688 13.1576 12.276C13.3655 12.4832 13.5144 12.7422 13.589 13.0261H16.5439C16.6535 13.0261 16.7586 13.0696 16.8361 13.1471C16.9135 13.2245 16.957 13.3296 16.957 13.4391C16.957 13.5486 16.9135 13.6537 16.8361 13.7312C16.7586 13.8086 16.6535 13.8521 16.5439 13.8521H13.589C13.4881 14.2409 13.2489 14.5797 12.9163 14.8049C12.5836 15.0302 12.1804 15.1265 11.7819 15.0759C11.3833 15.0252 11.0168 14.8311 10.7511 14.5299C10.4854 14.2286 10.3385 13.8408 10.338 13.4391ZM11.165 13.4391C11.1644 13.603 11.2124 13.7635 11.3031 13.9001C11.3938 14.0366 11.523 14.1432 11.6743 14.2063C11.8256 14.2694 11.9922 14.2862 12.1531 14.2545C12.3139 14.2228 12.4617 14.1441 12.5778 14.0283C12.6938 13.9125 12.7729 13.7649 12.8049 13.6042C12.837 13.4434 12.8207 13.2767 12.7579 13.1253C12.6952 12.9738 12.589 12.8444 12.4526 12.7534C12.3163 12.6624 12.1559 12.6139 11.9919 12.6141C11.773 12.6144 11.5632 12.7013 11.4082 12.8559C11.2532 13.0105 11.1658 13.2202 11.165 13.4391ZM20.681 13.8021C20.6252 13.8049 20.5693 13.7962 20.5168 13.7768C20.4644 13.7573 20.4165 13.7273 20.376 13.6887C20.3355 13.6502 20.3032 13.6038 20.2811 13.5523C20.2591 13.5009 20.2477 13.4456 20.2477 13.3896C20.2477 13.3337 20.2591 13.2783 20.2811 13.2269C20.3032 13.1755 20.3355 13.1291 20.376 13.0905C20.4165 13.0519 20.4644 13.022 20.5168 13.0025C20.5693 12.983 20.6252 12.9744 20.681 12.9771H21.095C21.1509 12.9744 21.2067 12.983 21.2592 13.0025C21.3116 13.022 21.3595 13.0519 21.4 13.0905C21.4405 13.1291 21.4728 13.1755 21.4949 13.2269C21.5169 13.2783 21.5283 13.3337 21.5283 13.3896C21.5283 13.4456 21.5169 13.5009 21.4949 13.5523C21.4728 13.6038 21.4405 13.6502 21.4 13.6887C21.3595 13.7273 21.3116 13.7573 21.2592 13.7768C21.2067 13.7962 21.1509 13.8049 21.095 13.8021H20.681ZM2.89099 13.8021C2.83511 13.8049 2.77925 13.7962 2.72681 13.7768C2.67437 13.7573 2.62646 13.7273 2.58594 13.6887C2.54542 13.6502 2.51313 13.6038 2.49109 13.5523C2.46905 13.5009 2.45764 13.4456 2.45764 13.3896C2.45764 13.3337 2.46905 13.2783 2.49109 13.2269C2.51313 13.1755 2.54542 13.1291 2.58594 13.0905C2.62646 13.0519 2.67437 13.022 2.72681 13.0025C2.77925 12.983 2.83511 12.9744 2.89099 12.9771H3.30506C3.36093 12.9744 3.41667 12.983 3.46912 13.0025C3.52156 13.022 3.56959 13.0519 3.61011 13.0905C3.65063 13.1291 3.68291 13.1755 3.70496 13.2269C3.727 13.2783 3.73828 13.3337 3.73828 13.3896C3.73828 13.4456 3.727 13.5009 3.70496 13.5523C3.68291 13.6038 3.65063 13.6502 3.61011 13.6887C3.56959 13.7273 3.52156 13.7573 3.46912 13.7768C3.41667 13.7962 3.36093 13.8049 3.30506 13.8021H2.89099ZM17.844 7.55111C17.8057 7.51285 17.7753 7.4674 17.7545 7.41739C17.7338 7.36737 17.7231 7.31375 17.7231 7.25961C17.7231 7.20546 17.7338 7.15185 17.7545 7.10183C17.7753 7.05182 17.8057 7.00637 17.844 6.96811L18.136 6.67611C18.2134 6.59854 18.3185 6.5549 18.4281 6.55481C18.5377 6.55471 18.6429 6.59818 18.7205 6.67562C18.798 6.75307 18.8417 6.85815 18.8418 6.96777C18.8419 7.07738 18.7984 7.18255 18.7209 7.26013L18.429 7.55212C18.3906 7.59061 18.345 7.62116 18.2948 7.64199C18.2446 7.66283 18.1908 7.67355 18.1365 7.67355C18.0821 7.67355 18.0283 7.66283 17.9782 7.64199C17.928 7.62116 17.8824 7.59061 17.844 7.55212V7.55111ZM5.55603 7.55111L5.26404 7.25912C5.1866 7.18155 5.1431 7.07638 5.14319 6.96676C5.14328 6.85715 5.18695 6.75206 5.26453 6.67462C5.3421 6.59717 5.44727 6.55374 5.55689 6.55383C5.6665 6.55392 5.77156 6.59753 5.849 6.67511L6.14099 6.96713C6.18025 7.00532 6.21158 7.05092 6.23303 7.10131C6.25449 7.15171 6.26566 7.20588 6.26599 7.26065C6.26632 7.31542 6.25572 7.3697 6.23486 7.42035C6.21401 7.47099 6.18333 7.517 6.14453 7.55566C6.10574 7.59432 6.05963 7.62489 6.00891 7.64557C5.95819 7.66624 5.90389 7.67663 5.84912 7.67611C5.79435 7.6756 5.74026 7.66417 5.68994 7.64254C5.63962 7.62091 5.59409 7.58949 5.55603 7.55011V7.55111ZM11.579 4.72012V4.30713C11.5842 4.20098 11.6301 4.1009 11.707 4.02761C11.784 3.95433 11.8863 3.91345 11.9926 3.91345C12.0988 3.91345 12.201 3.95433 12.278 4.02761C12.3549 4.1009 12.4008 4.20098 12.406 4.30713V4.72012C12.4008 4.82627 12.3549 4.92635 12.278 4.99963C12.201 5.07291 12.0988 5.11377 11.9926 5.11377C11.8863 5.11377 11.784 5.07291 11.707 4.99963C11.6301 4.92635 11.5842 4.82627 11.579 4.72012Z" fill="#0DB1FF"/>
</svg>
