<svg width="16" height="16" viewBox="0 0 16 16" fill="none" xmlns="http://www.w3.org/2000/svg">
<path d="M3.35961 6.40078H4.79961V4.48078C4.79961 2.16318 5.86761 0.800781 7.99961 0.800781C10.1324 0.800781 11.1996 2.16318 11.1996 4.48078V4.80078H9.59961V4.15998C9.59961 3.00398 8.96201 2.40078 7.99961 2.40078C7.03721 2.40078 6.39961 3.00398 6.39961 4.15998V6.40078H12.7996C13.242 6.40078 13.5996 6.91758 13.5996 7.35998V13.6008C13.5996 14.04 13.2572 14.512 12.8388 14.6464L11.8812 14.956C11.3733 15.104 10.8485 15.1863 10.3196 15.2008H5.67961C5.15094 15.1864 4.62634 15.1039 4.11881 14.9552L3.16201 14.6456C2.74281 14.512 2.39961 14.04 2.39961 13.6008V7.35998C2.39961 6.91758 2.91801 6.40078 3.35961 6.40078Z" fill="white"/>
</svg>
