<svg width="24" height="24" viewBox="0 0 24 24" fill="none" xmlns="http://www.w3.org/2000/svg">
<path d="M15.7248 13.5242L14.6248 12.4242C15.0581 11.2409 14.8331 10.2576 13.9498 9.47422C13.0665 8.69089 12.1081 8.49089 11.0748 8.87422L9.9748 7.77422C10.2581 7.59089 10.5748 7.45755 10.9248 7.37422C11.2748 7.29089 11.6331 7.24922 11.9998 7.24922C13.1831 7.24922 14.1873 7.66172 15.0123 8.48672C15.8373 9.31172 16.2498 10.3159 16.2498 11.4992C16.2498 11.8659 16.204 12.2284 16.1123 12.5867C16.0206 12.9451 15.8915 13.2576 15.7248 13.5242ZM18.9498 16.7492L17.9498 15.7492C18.7665 15.1492 19.479 14.4784 20.0873 13.7367C20.6956 12.9951 21.1415 12.2492 21.4248 11.4992C20.5915 9.64922 19.3415 8.18672 17.6748 7.11172C16.0081 6.03672 14.1998 5.49922 12.2498 5.49922C11.5498 5.49922 10.8331 5.56589 10.0998 5.69922C9.36647 5.83255 8.79147 5.99089 8.3748 6.17422L7.2248 4.99922C7.80814 4.73255 8.55397 4.49922 9.4623 4.29922C10.3706 4.09922 11.2581 3.99922 12.1248 3.99922C14.3748 3.99922 16.4498 4.61589 18.3498 5.84922C20.2498 7.08255 21.6998 8.74089 22.6998 10.8242C22.7498 10.9076 22.7831 11.0076 22.7998 11.1242C22.8165 11.2409 22.8248 11.3659 22.8248 11.4992C22.8248 11.6326 22.8165 11.7617 22.7998 11.8867C22.7831 12.0117 22.7498 12.1159 22.6998 12.1992C22.2665 13.1159 21.7331 13.9576 21.0998 14.7242C20.4665 15.4909 19.7498 16.1659 18.9498 16.7492ZM19.8498 21.8492L16.1998 18.2742C15.6165 18.5076 14.9581 18.6867 14.2248 18.8117C13.4915 18.9367 12.7498 18.9992 11.9998 18.9992C9.6998 18.9992 7.59147 18.3826 5.6748 17.1492C3.75814 15.9159 2.2998 14.2576 1.2998 12.1742C1.2498 12.0742 1.21647 11.9701 1.1998 11.8617C1.18314 11.7534 1.1748 11.6326 1.1748 11.4992C1.1748 11.3659 1.1873 11.2367 1.2123 11.1117C1.2373 10.9867 1.26647 10.8826 1.2998 10.7992C1.6498 10.0492 2.09564 9.32005 2.6373 8.61172C3.17897 7.90339 3.81647 7.23255 4.5498 6.59922L1.9248 3.97422C1.7748 3.82422 1.6998 3.64922 1.6998 3.44922C1.6998 3.24922 1.7748 3.07422 1.9248 2.92422C2.0748 2.77422 2.25397 2.69922 2.4623 2.69922C2.67064 2.69922 2.8498 2.77422 2.9998 2.92422L20.8998 20.8242C21.0331 20.9576 21.0998 21.1201 21.0998 21.3117C21.0998 21.5034 21.0331 21.6742 20.8998 21.8242C20.7665 21.9909 20.5956 22.0742 20.3873 22.0742C20.179 22.0742 19.9998 21.9992 19.8498 21.8492ZM5.5748 7.64922C4.95814 8.09922 4.3623 8.69089 3.7873 9.42422C3.2123 10.1576 2.7998 10.8492 2.5498 11.4992C3.3998 13.3492 4.67897 14.8117 6.3873 15.8867C8.09564 16.9617 10.0331 17.4992 12.1998 17.4992C12.7498 17.4992 13.2915 17.4659 13.8248 17.3992C14.3581 17.3326 14.7581 17.2326 15.0248 17.0992L13.4248 15.4992C13.2415 15.5826 13.0165 15.6451 12.7498 15.6867C12.4831 15.7284 12.2331 15.7492 11.9998 15.7492C10.8331 15.7492 9.83314 15.3409 8.9998 14.5242C8.16647 13.7076 7.7498 12.6992 7.7498 11.4992C7.7498 11.2492 7.77064 10.9992 7.8123 10.7492C7.85397 10.4992 7.91647 10.2742 7.9998 10.0742L5.5748 7.64922Z" fill="#8898AA"/>
</svg>
