<svg width="24" height="19" viewBox="0 0 24 19" fill="none" xmlns="http://www.w3.org/2000/svg">
<g id="Group 622">
<path id="Vector" d="M12 18.5143C4.00457 18.5143 0.246857 10.0251 0.0822856 9.66857C0.0279634 9.53815 0 9.3984 0 9.25714C0 9.11589 0.0279634 8.97614 0.0822856 8.84571C0.246857 8.48914 4.00457 0 12 0C19.9954 0 23.7531 8.48914 23.9177 8.84571C23.972 8.97614 24 9.11589 24 9.25714C24 9.3984 23.972 9.53815 23.9177 9.66857C23.7531 10.0251 19.9954 18.5143 12 18.5143ZM2.16686 9.25714C2.976 10.8343 6.28114 16.4571 12 16.4571C17.7189 16.4571 21.024 10.8343 21.8331 9.25714C21.024 7.68 17.7189 2.05714 12 2.05714C6.28114 2.05714 2.976 7.68 2.16686 9.25714Z" fill="#3C3C48"/>
<path id="Vector_2" d="M11.8624 13.5432C10.9809 13.5432 10.1192 13.2818 9.38616 12.7921C8.65319 12.3023 8.08191 11.6062 7.74455 10.7917C7.4072 9.97734 7.31894 9.08111 7.49092 8.21656C7.66289 7.35188 8.08739 6.55768 8.71073 5.93437C9.33405 5.31102 10.1282 4.88653 10.9929 4.71455C11.8575 4.54257 12.7537 4.63084 13.5681 4.96818C14.3826 5.30554 15.0787 5.87682 15.5684 6.60979C16.0582 7.34282 16.3196 8.20449 16.3196 9.08605C16.316 10.267 15.8452 11.3987 15.0101 12.2337C14.1751 13.0688 13.0434 13.5396 11.8624 13.5432ZM11.8624 6.68605C11.3878 6.68605 10.9237 6.82675 10.5291 7.09048C10.1344 7.35421 9.8268 7.72902 9.64509 8.1676C9.46351 8.60618 9.41592 9.08865 9.50849 9.55425C9.6012 10.0199 9.82968 10.4475 10.1654 10.7831C10.501 11.1188 10.9286 11.3474 11.3942 11.44C11.8598 11.5325 12.3423 11.4849 12.7809 11.3034C13.2194 11.1217 13.5943 10.814 13.858 10.4193C14.1217 10.0248 14.2624 9.5607 14.2624 9.08605C14.2588 8.45066 14.0049 7.8423 13.5554 7.39302C13.1062 6.9436 12.4978 6.68961 11.8624 6.68605Z" fill="#3C3C48"/>
</g>
</svg>
