<svg width="22" height="22" viewBox="0 0 22 22" fill="none" xmlns="http://www.w3.org/2000/svg">
<g id="flat-color-icons:google">
<path id="Vector" d="M19.7668 9.1033H19.0366V9.06568H10.8779V12.6918H16.0011C15.2537 14.8026 13.2453 16.3179 10.8779 16.3179C7.87411 16.3179 5.43872 13.8825 5.43872 10.8787C5.43872 7.87496 7.87411 5.43958 10.8779 5.43958C12.2644 5.43958 13.5258 5.96264 14.4863 6.81704L17.0504 4.25294C15.4314 2.74403 13.2657 1.81348 10.8779 1.81348C5.87159 1.81348 1.81262 5.87245 1.81262 10.8787C1.81262 15.885 5.87159 19.944 10.8779 19.944C15.8842 19.944 19.9431 15.885 19.9431 10.8787C19.9431 10.2709 19.8806 9.67759 19.7668 9.1033Z" fill="#FFC107"/>
<path id="Vector_2" d="M2.85767 6.65931L5.83606 8.84358C6.64196 6.84832 8.59371 5.43958 10.8777 5.43958C12.2642 5.43958 13.5257 5.96264 14.4861 6.81704L17.0502 4.25294C15.4312 2.74403 13.2655 1.81348 10.8777 1.81348C7.39573 1.81348 4.3761 3.77928 2.85767 6.65931Z" fill="#FF3D00"/>
<path id="Vector_3" d="M10.8789 19.9435C13.2204 19.9435 15.348 19.0474 16.9567 17.5902L14.151 15.216C13.2103 15.9314 12.0607 16.3184 10.8789 16.3174C8.521 16.3174 6.51894 14.814 5.76471 12.7158L2.80853 14.9935C4.30883 17.9292 7.35567 19.9435 10.8789 19.9435Z" fill="#4CAF50"/>
<path id="Vector_4" d="M19.7672 9.10305H19.037V9.06543H10.8783V12.6915H16.0015C15.644 13.6962 15 14.574 14.149 15.2167L14.1504 15.2158L16.9561 17.5899C16.7576 17.7703 19.9436 15.4111 19.9436 10.8785C19.9436 10.2707 19.881 9.67733 19.7672 9.10305Z" fill="#1976D2"/>
</g>
</svg>
