<svg width="16" height="16" viewBox="0 0 16 16" fill="none" xmlns="http://www.w3.org/2000/svg">
<path d="M8 4.5C8 5.16304 7.73661 5.79893 7.26777 6.26777C6.79893 6.73661 6.16304 7 5.5 7C4.83696 7 4.20107 6.73661 3.73223 6.26777C3.26339 5.79893 3 5.16304 3 4.5C3 3.83696 3.26339 3.20107 3.73223 2.73223C4.20107 2.26339 4.83696 2 5.5 2C6.16304 2 6.79893 2.26339 7.26777 2.73223C7.73661 3.20107 8 3.83696 8 4.5ZM11.5 6C10.9656 5.9996 10.434 6.07708 9.922 6.23C9.69175 5.93456 9.54909 5.58039 9.51027 5.20784C9.47145 4.83528 9.53804 4.45931 9.70244 4.12275C9.86684 3.78619 10.1225 3.50255 10.4402 3.30416C10.7579 3.10576 11.1249 3.00057 11.4995 3.00057C11.8741 3.00057 12.2411 3.10576 12.5588 3.30416C12.8765 3.50255 13.1322 3.78619 13.2966 4.12275C13.461 4.45931 13.5275 4.83528 13.4887 5.20784C13.4499 5.58039 13.3073 5.93456 13.077 6.23C12.5653 6.07718 12.034 5.9997 11.5 6ZM3 8H7.257C6.44269 8.9844 5.99806 10.2225 6 11.5C6 11.834 6.03 12.16 6.087 12.477C5.89172 12.4925 5.6959 12.5002 5.5 12.5C1.5 12.5 1.5 9.575 1.5 9.575V9.5C1.5 9.10218 1.65804 8.72064 1.93934 8.43934C2.22064 8.15804 2.60218 8 3 8ZM16 11.5C16 12.6935 15.5259 13.8381 14.682 14.682C13.8381 15.5259 12.6935 16 11.5 16C10.3065 16 9.16193 15.5259 8.31802 14.682C7.47411 13.8381 7 12.6935 7 11.5C7 10.3065 7.47411 9.16193 8.31802 8.31802C9.16193 7.47411 10.3065 7 11.5 7C12.6935 7 13.8381 7.47411 14.682 8.31802C15.5259 9.16193 16 10.3065 16 11.5ZM12 9.5C12 9.36739 11.9473 9.24021 11.8536 9.14645C11.7598 9.05268 11.6326 9 11.5 9C11.3674 9 11.2402 9.05268 11.1464 9.14645C11.0527 9.24021 11 9.36739 11 9.5V11H9.5C9.36739 11 9.24021 11.0527 9.14645 11.1464C9.05268 11.2402 9 11.3674 9 11.5C9 11.6326 9.05268 11.7598 9.14645 11.8536C9.24021 11.9473 9.36739 12 9.5 12H11V13.5C11 13.6326 11.0527 13.7598 11.1464 13.8536C11.2402 13.9473 11.3674 14 11.5 14C11.6326 14 11.7598 13.9473 11.8536 13.8536C11.9473 13.7598 12 13.6326 12 13.5V12H13.5C13.6326 12 13.7598 11.9473 13.8536 11.8536C13.9473 11.7598 14 11.6326 14 11.5C14 11.3674 13.9473 11.2402 13.8536 11.1464C13.7598 11.0527 13.6326 11 13.5 11H12V9.5Z" fill="white"/>
</svg>
