<svg width="29" height="29" viewBox="0 0 29 29" fill="none" xmlns="http://www.w3.org/2000/svg">
<path id="Forma 1" d="M1.24179e-06 14.4377C-0.000880931 12.315 0.468271 10.2185 1.37376 8.29867C0.624234 7.28599 0.15083 6.09584 1.24179e-06 4.84502C0.014549 3.54819 0.542629 2.31006 1.4685 1.4019C2.39437 0.493745 3.64249 -0.0103423 4.93936 0.000160902C6.20765 -0.00183208 7.42863 0.481557 8.35186 1.35117C11.1846 0.0344467 14.3679 -0.328016 17.4242 0.318192C20.4804 0.964401 23.2446 2.5844 25.3018 4.93506C27.3591 7.28573 28.5985 10.2402 28.8339 13.3551C29.0694 16.47 28.2882 19.5773 26.6077 22.2105C24.9272 24.8437 22.4379 26.8608 19.5136 27.9591C16.5893 29.0574 13.3876 29.1776 10.3891 28.3017C7.39067 27.4257 4.75718 25.6009 2.88394 23.1011C1.0107 20.6013 -0.00123938 17.5614 1.24179e-06 14.4377ZM12.4302 19.9501L10.4098 22.6443C10.3811 22.6845 10.3689 22.7342 10.3759 22.7831C10.3829 22.832 10.4086 22.8763 10.4475 22.9068L11.186 23.4615C11.3988 23.6251 11.5677 23.8388 11.6778 24.0836C11.7878 24.3203 11.8457 24.5778 11.8475 24.8388C11.8476 24.9817 11.8279 25.1239 11.7889 25.2614L11.1895 27.3264C13.1507 27.8203 15.1986 27.8604 17.1776 27.4438C19.1566 27.0271 21.0145 26.1646 22.6101 24.9219C24.2056 23.6792 25.4967 22.089 26.3852 20.2722C27.2737 18.4555 27.7362 16.46 27.7375 14.4377C27.7375 14.1909 27.7296 13.9459 27.7165 13.7026L26.5037 13.0289C26.3848 12.9682 26.2583 12.9237 26.1275 12.8968C25.9734 12.8611 25.8158 12.8427 25.6576 12.8417H25.6069C25.7594 13.3597 25.8372 13.8968 25.8379 14.4368C25.8379 17.2482 21.798 21.8935 20.9869 22.7965L20.1399 23.7415L19.292 22.7965C19.1345 22.6215 18.8545 22.3039 18.5045 21.8865L17.7607 22.7239C17.5547 22.9449 17.3034 23.119 17.024 23.234C16.7483 23.3567 16.4507 23.4225 16.149 23.4274C16.107 23.4274 16.0667 23.4274 16.0256 23.423L14.3631 23.2953C14.0666 23.2761 13.7877 23.148 13.58 22.9356C13.3771 22.7221 13.2645 22.4384 13.2659 22.1438C13.2661 22.0189 13.2849 21.8947 13.3218 21.7754L13.6176 20.7902C13.6254 20.7616 13.6292 20.7322 13.629 20.7026C13.6277 20.6196 13.6067 20.538 13.5677 20.4647C13.5379 20.4022 13.4924 20.3486 13.4356 20.3089L12.7697 19.8924C12.7312 19.8693 12.6869 19.8575 12.642 19.8583C12.6021 19.8571 12.5624 19.8647 12.5258 19.8806C12.4892 19.8964 12.4566 19.9202 12.4302 19.9501ZM5.89402 18.6376C5.74563 19.2307 5.43436 19.7705 4.99539 20.196L4.52811 20.6143C4.18485 20.9317 3.86194 21.2704 3.56126 21.6284L3.395 21.834C5.01054 24.2355 7.36242 26.0473 10.0966 26.9965L10.6925 24.9429C10.702 24.9084 10.7064 24.8728 10.7056 24.837C10.704 24.7411 10.6823 24.6466 10.6417 24.5596C10.6111 24.4865 10.563 24.4219 10.5018 24.3715L9.76326 23.8168C9.48181 23.6045 9.2961 23.2892 9.24688 22.9401C9.19767 22.591 9.28893 22.2366 9.50072 21.9548L11.5203 19.2615C11.6523 19.0882 11.8229 18.9479 12.0185 18.8518C12.2141 18.7557 12.4293 18.7063 12.6472 18.7077C12.906 18.7064 13.1599 18.7783 13.3796 18.915L14.0455 19.3315C14.2754 19.4788 14.4618 19.6848 14.5854 19.9283C14.7083 20.1639 14.7734 20.4254 14.7752 20.6913C14.7757 20.8325 14.7556 20.9732 14.7157 21.1087L14.4191 22.0965L14.4147 22.1315V22.1368L14.4567 22.1455L16.1192 22.2741H16.1551C16.3005 22.2684 16.4433 22.2349 16.576 22.1753C16.7015 22.1245 16.8158 22.0493 16.912 21.9539L17.7818 20.9756C16.3284 19.1206 14.4427 16.3443 14.4427 14.4245C14.4427 13.1542 14.8672 11.9204 15.6487 10.9189C16.4302 9.91747 17.5239 9.20586 18.7561 8.89718C19.9883 8.5885 21.2884 8.70047 22.4497 9.21521C23.611 9.72996 24.567 10.618 25.1659 11.7383L25.2708 11.719C25.3995 11.6971 25.5298 11.6866 25.6602 11.6875C25.9039 11.6905 26.1465 11.7198 26.3839 11.775C26.6198 11.826 26.8474 11.9097 27.0603 12.0236L27.5686 12.3062C27.0611 9.18962 25.4627 6.35476 23.0586 4.3076C20.6545 2.26044 17.6012 1.13419 14.4436 1.1298C14.0936 1.1298 13.755 1.14818 13.4146 1.1753L12.6953 2.46767C12.6512 2.5589 12.6299 2.65951 12.6332 2.76081C12.6294 2.89505 12.6638 3.02757 12.7321 3.14314L13.5984 4.3594C13.7424 4.57149 13.8503 4.80598 13.9177 5.05331C13.9893 5.299 14.0264 5.55338 14.028 5.80926C14.0286 5.92659 14.0187 6.04375 13.9982 6.15928L13.7734 7.38431C13.7022 7.7001 13.5625 7.9964 13.3643 8.25236C13.1661 8.50832 12.9142 8.71769 12.6262 8.86567L11.102 9.56566C11.0689 9.5814 11.041 9.60619 11.0215 9.63717C11.002 9.66815 10.9917 9.70406 10.9918 9.74067L11.0075 9.81592L11.6515 11.2159C11.7362 11.4085 11.7973 11.6106 11.8335 11.8179C11.8725 12.0283 11.8924 12.2418 11.893 12.4558C11.8944 12.6404 11.8759 12.8246 11.8379 13.0053L11.8431 12.9834L11.8379 13.007L11.6532 13.8068C11.4833 14.426 11.0779 14.9543 10.5236 15.2785L9.39749 15.8753C9.13058 16.0106 8.83483 16.079 8.53563 16.0748C8.17499 16.0802 7.82015 15.9838 7.51189 15.7965L6.59139 15.2033C6.47974 15.1429 6.35426 15.1128 6.22738 15.1158C6.1133 15.1126 6.00024 15.1378 5.8984 15.1893L4.97525 15.7362L4.94812 15.758L4.96826 15.7851L5.4845 16.325C5.66605 16.5214 5.80513 16.7532 5.89311 17.0058C5.9847 17.2535 6.03264 17.5152 6.03485 17.7793C6.03529 17.895 6.02385 18.0106 6.00072 18.124L5.89402 18.6376ZM15.575 14.4377C15.575 16.955 20.1337 22.0362 20.1337 22.0362C20.1337 22.0362 24.6934 16.955 24.6934 14.4377C24.6768 13.2394 24.1891 12.0959 23.3359 11.2544C22.4827 10.4129 21.3325 9.94121 20.1342 9.94121C18.9358 9.94121 17.7857 10.4129 16.9324 11.2544C16.0792 12.0959 15.5916 13.2394 15.575 14.4377ZM1.13749 14.4377C1.1357 16.6646 1.69546 18.8561 2.765 20.8094C3.07639 20.4449 3.40948 20.0995 3.76249 19.7751L4.22976 19.356C4.36074 19.2268 4.47242 19.0795 4.56138 18.9185C4.65649 18.761 4.72782 18.5903 4.77311 18.4119L4.87637 17.9193C4.88409 17.8807 4.8876 17.8413 4.88687 17.802C4.88433 17.6714 4.86008 17.5423 4.81512 17.4197C4.78007 17.3156 4.72509 17.2192 4.65324 17.1361L4.137 16.5963C3.92006 16.3771 3.79702 16.0821 3.794 15.7738C3.79429 15.5708 3.84994 15.3717 3.95499 15.198C4.06111 15.0235 4.20947 14.8785 4.38637 14.7763L5.30864 14.2294C5.60019 14.0714 5.92766 13.9917 6.25921 13.998C6.59075 14.0043 6.91503 14.0963 7.20038 14.2653L8.12088 14.8585C8.24592 14.9251 8.38611 14.958 8.52772 14.9539C8.64039 14.9573 8.75236 14.9349 8.85499 14.8883L9.98025 14.2915C10.243 14.1224 10.4388 13.8672 10.5341 13.5697L10.7091 12.8093L10.717 12.7787C10.7363 12.6786 10.7454 12.5769 10.7441 12.475C10.7434 12.3313 10.7302 12.1878 10.7048 12.0463C10.6851 11.9315 10.6522 11.8193 10.6068 11.712L9.96364 10.312C9.81582 9.99139 9.80135 9.62521 9.92343 9.29393C10.0455 8.96266 10.2941 8.69343 10.6146 8.5454L12.138 7.84541C12.2625 7.77775 12.3703 7.68333 12.4538 7.56893C12.5439 7.45922 12.6087 7.33106 12.6438 7.19354L12.8686 5.96852C12.8767 5.92025 12.8805 5.87135 12.88 5.8224C12.8774 5.67426 12.855 5.52712 12.8135 5.3849C12.782 5.26077 12.7306 5.1426 12.6612 5.03493L11.7941 3.81776C11.5863 3.50977 11.4779 3.14543 11.4835 2.77389C11.4792 2.47859 11.5502 2.1871 11.69 1.92693L11.9989 1.37215C11.0034 1.55842 10.0325 1.85816 9.10525 2.26553C9.60604 3.03462 9.8729 3.93254 9.87349 4.85031C9.87349 7.22068 6.46102 11.0523 5.77327 11.796L4.93501 12.7069L4.09676 11.796C3.40044 11.0344 2.74417 10.237 2.13062 9.40726C1.47484 11.0033 1.13746 12.7122 1.13749 14.4377ZM1.13749 4.84417C1.13749 6.88992 4.93675 11.0181 4.93675 11.0181C4.93675 11.0181 8.736 6.88992 8.736 4.84417C8.71468 3.85066 8.30501 2.90503 7.59483 2.20993C6.88466 1.51483 5.93048 1.12558 4.93675 1.12558C3.94301 1.12558 2.98881 1.51483 2.27864 2.20993C1.56846 2.90503 1.15881 3.85066 1.13749 4.84417ZM17.8552 14.0579C17.8544 13.6067 17.9875 13.1654 18.2376 12.7899C18.4877 12.4144 18.8436 12.1216 19.2603 11.9485C19.677 11.7755 20.1357 11.7299 20.5782 11.8177C21.0208 11.9055 21.4273 12.1227 21.7464 12.4418C22.0654 12.7608 22.2826 13.1674 22.3704 13.6099C22.4582 14.0525 22.4127 14.5111 22.2396 14.9278C22.0666 15.3445 21.7737 15.7005 21.3982 15.9506C21.0227 16.2007 20.5814 16.3338 20.1302 16.3329C19.5272 16.3325 18.949 16.0925 18.5227 15.6659C18.0964 15.2393 17.857 14.6609 17.857 14.0579H17.8552ZM18.9927 14.0579C18.9927 14.2829 19.0595 14.5028 19.1845 14.6899C19.3095 14.8769 19.4871 15.0227 19.6949 15.1088C19.9028 15.1949 20.1315 15.2174 20.3522 15.1735C20.5728 15.1296 20.7755 15.0213 20.9346 14.8622C21.0937 14.7031 21.202 14.5005 21.2459 14.2798C21.2898 14.0592 21.2672 13.8304 21.1811 13.6226C21.095 13.4147 20.9493 13.2371 20.7622 13.1121C20.5752 12.9871 20.3552 12.9204 20.1302 12.9204C19.8293 12.9216 19.5411 13.0419 19.3287 13.2551C19.1163 13.4683 18.9971 13.757 18.9971 14.0579H18.9927ZM3.13425 4.55893C3.13425 4.18322 3.24566 3.81592 3.45439 3.50352C3.66312 3.19113 3.9598 2.94769 4.30691 2.80391C4.65402 2.66013 5.03596 2.62246 5.40445 2.69576C5.77294 2.76906 6.11146 2.95 6.37713 3.21567C6.64279 3.48133 6.82368 3.8198 6.89698 4.18829C6.97028 4.55678 6.93266 4.93878 6.78888 5.28589C6.64511 5.633 6.40166 5.92967 6.08927 6.1384C5.77688 6.34714 5.40958 6.45852 5.03387 6.45852C4.78437 6.45863 4.5373 6.40959 4.30677 6.31416C4.07625 6.21874 3.86681 6.07882 3.69039 5.9024C3.51397 5.72598 3.37403 5.51652 3.27861 5.28599C3.18318 5.05547 3.13414 4.80842 3.13425 4.55893ZM4.27174 4.55893C4.27174 4.70914 4.3163 4.85599 4.39975 4.98089C4.48321 5.10579 4.60181 5.20309 4.74059 5.26057C4.87937 5.31806 5.03209 5.33314 5.17942 5.30383C5.32675 5.27453 5.46208 5.20219 5.5683 5.09598C5.67451 4.98976 5.74685 4.8544 5.77615 4.70708C5.80546 4.55975 5.79043 4.40702 5.73295 4.26824C5.67546 4.12946 5.57811 4.01086 5.45321 3.92741C5.32831 3.84395 5.18146 3.79939 5.03125 3.79939C4.83034 3.80032 4.63797 3.88075 4.49615 4.02306C4.35433 4.16536 4.27461 4.35802 4.27438 4.55893H4.27174Z" fill="white"/>
</svg>
