<svg width="144" height="24" viewBox="0 0 144 24" fill="none" xmlns="http://www.w3.org/2000/svg">
<g id="Group 48096639">
<g id="Group 48096635">
<circle id="Ellipse 5270" cx="12" cy="12" r="12" fill="white"/>
<path id="Vector" d="M8 17.2448L16.8437 12.1224L8 7V17.2448Z" fill="#465B5F"/>
</g>
<g id="Group 48096636">
<circle id="Ellipse 5270_2" cx="52" cy="12" r="12" fill="white"/>
<path id="Vector_2" d="M57.8558 9.6213L59 8.37483H56.4625C55.1922 7.506 53.6581 7 51.9989 7C50.3419 7 48.812 7.50709 47.5438 8.37483H45L46.1442 9.6213C45.4429 10.262 45.0032 11.1849 45.0032 12.2097C45.0032 14.1436 46.5691 15.7115 48.5006 15.7115C49.4181 15.7115 50.254 15.3572 50.878 14.7779L51.999 16L53.1199 14.779C53.7439 15.3582 54.5788 15.7115 55.4963 15.7115C57.4277 15.7115 58.9958 14.1436 58.9958 12.2097C58.9968 11.1839 58.5571 10.261 57.8558 9.6213ZM48.5016 14.5796C47.1942 14.5796 46.1347 13.5188 46.1347 12.2097C46.1347 10.9006 47.1942 9.83982 48.5016 9.83982C49.809 9.83982 50.8685 10.9006 50.8685 12.2097C50.8685 13.5188 49.809 14.5796 48.5016 14.5796ZM52 12.1407C52 10.5813 50.8674 9.24259 49.3725 8.6708C50.1809 8.33238 51.0677 8.14462 51.9989 8.14462C52.9302 8.14462 53.818 8.33238 54.6264 8.6708C53.1326 9.24365 52 10.5814 52 12.1407ZM55.4974 14.5796C54.19 14.5796 53.1305 13.5188 53.1305 12.2097C53.1305 10.9006 54.19 9.83982 55.4974 9.83982C56.8048 9.83982 57.8642 10.9006 57.8642 12.2097C57.8642 13.5188 56.8048 14.5796 55.4974 14.5796ZM55.4974 10.9664C54.8119 10.9664 54.2567 11.5223 54.2567 12.2086C54.2567 12.895 54.8119 13.4509 55.4974 13.4509C56.1828 13.4509 56.738 12.895 56.738 12.2086C56.738 11.5233 56.1828 10.9664 55.4974 10.9664ZM49.7422 12.2097C49.7422 12.896 49.1871 13.4519 48.5016 13.4519C47.8161 13.4519 47.2609 12.896 47.2609 12.2097C47.2609 11.5233 47.8161 10.9675 48.5016 10.9675C49.1871 10.9664 49.7422 11.5233 49.7422 12.2097Z" fill="#465B5F"/>
</g>
<g id="Group 48096637">
<circle id="Ellipse 5270_3" cx="92" cy="12" r="12" fill="white"/>
<path id="Vector_3" d="M95.4758 12.3738L95.8904 9.67961H93.2968V7.93131C93.2968 7.19413 93.6591 6.47573 94.8208 6.47573H96V4.18204C96 4.18204 94.9298 4 93.9066 4C91.7706 4 90.3744 5.29029 90.3744 7.62621V9.67961H88V12.3738H90.3744V18.8868C90.8578 18.9623 91.3463 19.0001 91.8356 19C92.3249 19.0001 92.8134 18.9623 93.2968 18.8868V12.3738H95.4758Z" fill="#465B5F"/>
</g>
<g id="Group 48096638">
<circle id="Ellipse 5270_4" cx="132" cy="12" r="12" fill="white"/>
<path id="Vector_4" d="M132 9.44444C131.495 9.44444 131 9.59433 130.58 9.87513C130.16 10.1559 129.832 10.5551 129.639 11.022C129.446 11.489 129.395 12.0028 129.494 12.4986C129.592 12.9943 129.836 13.4497 130.193 13.8071C130.55 14.1645 131.006 14.4078 131.501 14.5065C131.997 14.6051 132.511 14.5544 132.978 14.361C133.445 14.1676 133.844 13.84 134.125 13.4198C134.406 12.9995 134.556 12.5054 134.556 12C134.556 11.3222 134.286 10.6722 133.807 10.1929C133.328 9.71369 132.678 9.44444 132 9.44444ZM132 13.2222C131.758 13.2222 131.522 13.1505 131.321 13.0162C131.12 12.8819 130.963 12.6911 130.871 12.4677C130.778 12.2444 130.754 11.9986 130.801 11.7616C130.848 11.5245 130.965 11.3067 131.136 11.1358C131.307 10.9648 131.524 10.8484 131.762 10.8013C131.999 10.7541 132.244 10.7783 132.468 10.8708C132.691 10.9633 132.882 11.12 133.016 11.321C133.151 11.522 133.222 11.7583 133.222 12C133.221 12.3237 133.092 12.6337 132.863 12.8626C132.634 13.0915 132.324 13.2208 132 13.2222ZM134.667 6H129.333C128.449 6 127.601 6.35119 126.976 6.97631C126.351 7.60143 126 8.44928 126 9.33333V14.6667C126 15.5507 126.351 16.3986 126.976 17.0237C127.601 17.6488 128.449 18 129.333 18H134.667C135.551 18 136.399 17.6488 137.024 17.0237C137.649 16.3986 138 15.5507 138 14.6667V9.33333C138 8.44928 137.649 7.60143 137.024 6.97631C136.399 6.35119 135.551 6 134.667 6ZM136.667 14.6667C136.667 15.1971 136.456 15.7058 136.081 16.0809C135.706 16.456 135.197 16.6667 134.667 16.6667H129.333C128.803 16.6667 128.294 16.456 127.919 16.0809C127.544 15.7058 127.333 15.1971 127.333 14.6667V9.33333C127.333 8.8029 127.544 8.29419 127.919 7.91912C128.294 7.54405 128.803 7.33333 129.333 7.33333H134.667C135.197 7.33333 135.706 7.54405 136.081 7.91912C136.456 8.29419 136.667 8.8029 136.667 9.33333V14.6667ZM135.778 9.11111C135.778 9.28692 135.726 9.45877 135.628 9.60495C135.53 9.75113 135.391 9.86506 135.229 9.93234C135.067 9.99962 134.888 10.0172 134.715 9.98292C134.543 9.94862 134.385 9.86396 134.26 9.73965C134.136 9.61534 134.051 9.45695 134.017 9.28452C133.983 9.1121 134 8.93337 134.068 8.77095C134.135 8.60853 134.249 8.4697 134.395 8.37203C134.541 8.27435 134.713 8.22222 134.889 8.22222C135.125 8.22222 135.351 8.31587 135.517 8.48257C135.684 8.64927 135.778 8.87536 135.778 9.11111Z" fill="#465B5F"/>
</g>
</g>
</svg>
