<svg width="20" height="18" viewBox="0 0 20 18" fill="none" xmlns="http://www.w3.org/2000/svg">
<path d="M10.0005 18C9.69944 17.9996 9.40544 17.9086 9.15677 17.7389C5.47286 15.2381 3.87771 13.5234 2.99786 12.4514C1.12286 10.1663 0.225208 7.82016 0.250521 5.27953C0.280052 2.36813 2.61583 0 5.4574 0C7.52365 0 8.95474 1.16391 9.78818 2.13328C9.81458 2.16368 9.8472 2.18805 9.88383 2.20476C9.92047 2.22146 9.96026 2.23011 10.0005 2.23011C10.0408 2.23011 10.0806 2.22146 10.1172 2.20476C10.1538 2.18805 10.1865 2.16368 10.2129 2.13328C11.0463 1.16297 12.4774 0 14.5436 0C17.3852 0 19.721 2.36812 19.7505 5.28C19.7758 7.82109 18.8772 10.1672 17.0032 12.4519C16.1233 13.5239 14.5282 15.2386 10.8443 17.7394C10.5955 17.9089 10.3016 17.9998 10.0005 18Z" fill="black"/>
</svg>
