<svg width="18" height="18" viewBox="0 0 18 18" fill="none" xmlns="http://www.w3.org/2000/svg">
<path id="Icon awesome-lock" d="M3.51509 7.9377H2.65453C2.19334 7.94226 1.75301 8.11268 1.43029 8.41151C1.10757 8.71035 0.928852 9.11314 0.933404 9.53141V15.9063C0.928852 16.3246 1.10757 16.7274 1.43029 17.0262C1.75301 17.325 2.19334 17.4954 2.65453 17.5H15.2788C15.74 17.4954 16.1803 17.325 16.503 17.0262C16.8257 16.7274 17.0045 16.3246 16.9999 15.9063V9.53141C17.0045 9.11314 16.8257 8.71035 16.503 8.41151C16.1803 8.11268 15.74 7.94226 15.2788 7.9377H14.4182M3.51509 7.9377V5.54712M3.51509 7.9377H14.4182M3.51509 5.54712C3.50196 4.22271 4.0685 2.94764 5.09045 2.00151C6.11241 1.05538 7.50637 0.51542 8.96665 0.500042M3.51509 5.54712C3.51509 4.22843 5.00727 0.514614 8.96665 0.500042M8.96665 0.500042C10.4269 0.51542 11.8209 1.05538 12.8429 2.00151C13.8648 2.94764 14.4313 4.22271 14.4182 5.54712M8.96665 0.500042C12.926 0.485471 14.4182 4.22843 14.4182 5.54712M14.4182 5.54712V7.9377" stroke="#9B9C9E"/>
</svg>
