<svg width="16" height="19" viewBox="0 0 16 19" fill="none" xmlns="http://www.w3.org/2000/svg">
<path d="M7.59748 18.7649L2.13293 12.2099C1.66378 11.6658 1.29467 11.0436 1.04261 10.3719C0.617391 9.20841 0.474944 7.96125 0.626892 6.73245C0.77884 5.50366 1.22086 4.32812 1.91685 3.30191C2.59155 2.28637 3.50869 1.45307 4.5862 0.876556C5.66371 0.300047 6.86803 -0.00170898 8.0914 -0.00170898C9.31477 -0.00170898 10.5191 0.300047 11.5966 0.876556C12.6741 1.45307 13.5912 2.28637 14.2659 3.30191C14.9623 4.32851 15.4045 5.50468 15.5561 6.7341C15.7077 7.96352 15.5645 9.21119 15.1382 10.3749C14.8872 11.0466 14.5183 11.6685 14.0488 12.2119L8.58728 18.7649C8.52756 18.8384 8.45208 18.8977 8.36636 18.9384C8.28064 18.9792 8.18688 19.0003 8.09189 19.0003C7.99691 19.0003 7.90314 18.9792 7.81742 18.9384C7.73171 18.8977 7.65721 18.8384 7.59748 18.7649ZM2.9881 4.05789C2.4117 4.90638 2.04534 5.87861 1.91906 6.89505C1.79278 7.91149 1.91015 8.94328 2.26155 9.90591C2.46053 10.4325 2.75137 10.92 3.1207 11.3459L8.09189 17.3089L13.0611 11.3479C13.4298 10.9233 13.7204 10.4371 13.9192 9.9119C14.2712 8.94874 14.3889 7.91636 14.2628 6.8992C14.1367 5.88205 13.7703 4.90905 13.1937 4.05991C12.6356 3.22075 11.8774 2.53226 10.9867 2.05594C10.096 1.57962 9.10055 1.33029 8.08938 1.33029C7.0782 1.33029 6.08277 1.57962 5.19205 2.05594C4.30134 2.53226 3.54306 3.22075 2.98503 4.05991L2.9881 4.05789ZM4.45016 7.65793C4.46894 6.94503 4.69859 6.25348 5.1103 5.66977C5.522 5.08606 6.09753 4.63612 6.76488 4.37625C7.43223 4.11638 8.16172 4.05809 8.86218 4.20871C9.56264 4.35933 10.2029 4.71211 10.7029 5.22299C11.2029 5.73387 11.5405 6.38017 11.6733 7.08096C11.8061 7.78175 11.7283 8.50592 11.4496 9.16293C11.1709 9.81995 10.7037 10.3806 10.1065 10.7747C9.50928 11.1689 8.80852 11.3791 8.09189 11.3789C7.11339 11.3658 6.18007 10.9669 5.49663 10.2699C4.8132 9.57294 4.43545 8.63469 4.44618 7.66092L4.45016 7.65793ZM5.75049 7.65793C5.76235 8.11626 5.90977 8.56093 6.17431 8.93631C6.43884 9.31169 6.80872 9.60111 7.2377 9.76834C7.66668 9.93557 8.13569 9.97318 8.58605 9.8765C9.03642 9.77981 9.44812 9.55312 9.76966 9.22476C10.0912 8.8964 10.3084 8.48095 10.3939 8.03043C10.4793 7.57991 10.4294 7.1143 10.2503 6.69186C10.0713 6.26943 9.77093 5.90895 9.387 5.65549C9.00309 5.40203 8.55261 5.26689 8.09189 5.26694C7.77992 5.27085 7.47179 5.33585 7.18508 5.45828C6.89837 5.58072 6.63866 5.75813 6.42087 5.98044C6.20307 6.20275 6.03144 6.4656 5.91572 6.75394C5.80001 7.04227 5.74252 7.35047 5.74651 7.66092L5.75049 7.65793Z" fill="white"/>
</svg>
