<svg width="23" height="23" viewBox="0 0 23 23" fill="none" xmlns="http://www.w3.org/2000/svg">
<g id="logos:facebook" clip-path="url(#clip0_2204_94109)">
<path id="Vector" d="M22.5132 11.3969C22.5132 5.38898 17.6428 0.518555 11.6349 0.518555C5.62701 0.518555 0.756592 5.38889 0.756592 11.3969C0.756592 16.8265 4.73465 21.327 9.93516 22.143V14.5414H7.17309V11.3969H9.93516V9.00024C9.93516 6.27386 11.5593 4.76789 14.044 4.76789C15.2343 4.76789 16.4791 4.98036 16.4791 4.98036V7.65744H15.1075C13.756 7.65744 13.3346 8.49601 13.3346 9.35633V11.3969H16.3517L15.8694 14.5414H13.3346V22.143C18.5351 21.327 22.5132 16.8266 22.5132 11.3969Z" fill="#1877F2"/>
<path id="Vector_2" d="M15.8694 14.5411L16.3517 11.3965H13.3346V9.35601C13.3346 8.49561 13.7561 7.65713 15.1075 7.65713H16.4791V4.98005C16.4791 4.98005 15.2343 4.76758 14.044 4.76758C11.5593 4.76758 9.93517 6.27354 9.93517 8.99992V11.3965H7.1731V14.5411H9.93517V22.1427C10.4975 22.2308 11.0658 22.275 11.6349 22.2749C12.2041 22.275 12.7724 22.2308 13.3346 22.1427V14.5411H15.8694Z" fill="white"/>
</g>
<defs>
<clipPath id="clip0_2204_94109">
<rect width="21.7566" height="21.7566" fill="white" transform="translate(0.756592 0.518555)"/>
</clipPath>
</defs>
</svg>
