<svg xmlns="http://www.w3.org/2000/svg" width="56.48" height="36.603">
  <g fill="#fff">
    <path d="M15.051 15.873a5.33 5.33 0 0 0-1.869.34l-.224 1.33a4.869 4.869 0 0 1 1.682-.272c.575 0 .995.064.995.531a1 1 0 0 1-.051.389s-.453-.037-.663-.037c-1.335 0-2.737.568-2.737 2.287a1.463 1.463 0 0 0 1.49 1.663 2.006 2.006 0 0 0 1.583-.708l-.051.59h1.359l.606-4.25a1.826 1.826 0 0 0-2.12-1.863zm-.762 4.938a.562.562 0 0 1-.6-.583c0-.422.229-.93 1.36-.93a.968.968 0 0 1 .336.036c.026.26-.166 1.477-1.096 1.477zM19.959 17.298c.217 0 1.054.069 1.054.069l.195-1.362a7.2 7.2 0 0 0-1.424-.121c-1.142 0-2.3.456-2.3 2.015 0 1.768 1.932 1.588 1.932 2.334 0 .5-.54.537-.956.537a4.938 4.938 0 0 1-1.371-.236l-.206 1.351a4.984 4.984 0 0 0 1.732.188c.347 0 2.334.09 2.334-1.961 0-1.918-1.839-1.539-1.839-2.31 0-.384.299-.504.849-.504zM23.206 17.472h.817l.2-1.452h-.77l.157-.9h-1.546c-.034.033-.911 5.076-.911 5.688a1.145 1.145 0 0 0 1.23 1.308 3.977 3.977 0 0 0 1.157-.2l.193-1.312c-.106 0-.261.046-.4.046-.537 0-.6-.287-.562-.5zM29.673 9.048h-2.754c-.37.5-.718 1.032-1.033 1.552H30.8a14.677 14.677 0 0 0-1.127-1.552zM51.161 26.506a.8.8 0 0 0-.075-.1.108.108 0 0 0-.043-.026.157.157 0 0 0 .1-.046.138.138 0 0 0 .039-.1.134.134 0 0 0-.023-.074.121.121 0 0 0-.064-.049.38.38 0 0 0-.127-.015H50.8v.505h.082v-.21h.047a.1.1 0 0 1 .064.018.454.454 0 0 1 .086.117l.044.08h.1zm-.182-.182h-.1v-.152h.094a.24.24 0 0 1 .08.009.079.079 0 0 1 .035.026.069.069 0 0 1 .012.039.071.071 0 0 1-.025.057.168.168 0 0 1-.096.021zM31.634 12.123h-6.607c-.422.8-.7 1.4-.781 1.553h8.014a14.637 14.637 0 0 0-.626-1.553zM10.293 14.644l-1.521 4.51-.079-4.51H6.441l-1.234 7.349H6.7l.939-5.54.138 5.54h1.059l1.983-5.54-.879 5.54h1.58l1.217-7.349zM40.069 15.873a5.325 5.325 0 0 0-1.87.34l-.225 1.33a4.876 4.876 0 0 1 1.682-.272c.575 0 1 .064 1 .531a.966.966 0 0 1-.053.389s-.452-.037-.664-.037c-1.334 0-2.735.568-2.735 2.287a1.464 1.464 0 0 0 1.49 1.663 2.01 2.01 0 0 0 1.583-.708l-.051.59h1.354l.606-4.25a1.822 1.822 0 0 0-2.117-1.863zm-.76 4.938a.561.561 0 0 1-.6-.583c0-.422.229-.93 1.36-.93a.98.98 0 0 1 .336.036c.025.26-.168 1.477-1.096 1.477zM51.21 21.316a.422.422 0 0 0-.176-.174.466.466 0 0 0-.23-.061.5.5 0 0 0-.23.061.425.425 0 0 0-.175.174.473.473 0 0 0-.063.234.463.463 0 0 0 .063.232.448.448 0 0 0 .173.175.478.478 0 0 0 .232.062.47.47 0 0 0 .233-.062.474.474 0 0 0 .235-.407.461.461 0 0 0-.062-.234zm-.065.427a.377.377 0 0 1-.145.146.386.386 0 0 1-.387 0 .373.373 0 0 1-.146-.146.382.382 0 0 1-.052-.194.378.378 0 0 1 .054-.195.364.364 0 0 1 .146-.145.391.391 0 0 1 .192-.05.386.386 0 0 1 .19.05.358.358 0 0 1 .146.145.4.4 0 0 1 .054.195.39.39 0 0 1-.052.194z"/>
    <path d="M50.963 21.709a.627.627 0 0 0-.074-.1.115.115 0 0 0-.043-.026.155.155 0 0 0 .1-.046.139.139 0 0 0 .04-.1.13.13 0 0 0-.024-.074.142.142 0 0 0-.062-.049.387.387 0 0 0-.128-.015H50.6v.5h.082v-.214h.047a.109.109 0 0 1 .066.017.51.51 0 0 1 .086.119l.043.079h.1zm-.18-.185h-.1v-.153h.092a.3.3 0 0 1 .082.008.079.079 0 0 1 .033.027.065.065 0 0 1 .013.041.074.074 0 0 1-.024.055.145.145 0 0 1-.096.022zM45.313 15.946c-.691 0-1.2.943-1.2.943l.138-.867h-1.442l-.963 5.982h1.584c.451-2.556.533-4.629 1.6-4.25a5.934 5.934 0 0 1 .576-1.788 1.762 1.762 0 0 0-.293-.02zM49.293 14.652l-.333 2.065a2.037 2.037 0 0 0-1.49-.8c-1.415 0-2.593 1.706-2.593 3.664 0 1.265.629 2.5 1.913 2.5a1.928 1.928 0 0 0 1.437-.645l-.067.551h1.5l1.18-7.339zm-1.957 5.93c-.556 0-.816-.466-.816-1.2 0-1.2.537-1.986 1.216-1.986.554 0 .839.382.839 1.28 0 .817-.403 1.906-1.239 1.906z"/>
    <path d="M55.026 0H1.454A1.453 1.453 0 0 0 0 1.454v33.695a1.453 1.453 0 0 0 1.454 1.454h53.572a1.453 1.453 0 0 0 1.454-1.454V1.454A1.453 1.453 0 0 0 55.026 0zm-3.617 26.579a.435.435 0 0 1-.173.175.469.469 0 0 1-.466 0 .45.45 0 0 1-.174-.175.469.469 0 0 1-.062-.232.475.475 0 0 1 .063-.234.431.431 0 0 1 .175-.174.494.494 0 0 1 .231-.06.486.486 0 0 1 .229.06.425.425 0 0 1 .175.174.477.477 0 0 1 .062.234.454.454 0 0 1-.06.232zm1.048-8.277a14.493 14.493 0 0 1-24.22 10.75 14.494 14.494 0 1 1-9.81-25.246h.093a14.437 14.437 0 0 1 9.718 3.745 14.495 14.495 0 0 1 24.221 10.744s-.002.003-.002.007z"/>
    <path d="M26.753 27.467a14.426 14.426 0 0 0 1.482 1.584l.037-.031a14.488 14.488 0 0 0 1.472-1.552zM28.727 19.511a11.079 11.079 0 0 0 .2-1.407 2.069 2.069 0 0 0-2.2-2.257c-1.552 0-2.7 1.673-2.7 3.563a2.422 2.422 0 0 0 2.666 2.7 3.914 3.914 0 0 0 1.63-.254l.272-1.488a4.8 4.8 0 0 1-1.639.38c-1.657 0-1.367-1.236-1.367-1.236h3.136zm-1.992-2.279c.871 0 .71.979.71 1.057h-1.713c0-.101.162-1.057 1.003-1.057zM35.965 16.052a2.748 2.748 0 0 1 1.416.441l.252-1.635a5.534 5.534 0 0 0-1.738-.378c-1.781 0-3.514 1.546-3.514 4.449 0 1.925.935 3.2 2.777 3.2a7.152 7.152 0 0 0 1.35-.211l.276-1.684a3.707 3.707 0 0 1-1.276.379 1.528 1.528 0 0 1-1.535-1.733c0-1.827.942-2.828 1.992-2.828zM24.818 24.422a14.333 14.333 0 0 0 .856 1.552h5.143a14.514 14.514 0 0 0 .844-1.552zM32.353 15.948c-.691 0-1.2.943-1.2.943l.139-.867h-1.44l-.963 5.982h1.584c.449-2.555.533-4.629 1.6-4.25a5.935 5.935 0 0 1 .574-1.79 1.564 1.564 0 0 0-.294-.018z"/>
  </g>
</svg>
