<svg width="32" height="32" viewBox="0 0 32 32" fill="none" xmlns="http://www.w3.org/2000/svg">
<path d="M14.667 12.0003H17.3337V9.33366H14.667M16.0003 26.667C10.1203 26.667 5.33366 21.8803 5.33366 16.0003C5.33366 10.1203 10.1203 5.33366 16.0003 5.33366C21.8803 5.33366 26.667 10.1203 26.667 16.0003C26.667 21.8803 21.8803 26.667 16.0003 26.667ZM16.0003 2.66699C14.2494 2.66699 12.5156 3.01187 10.8979 3.68193C9.2802 4.35199 7.81035 5.33412 6.57223 6.57223C4.07175 9.07272 2.66699 12.4641 2.66699 16.0003C2.66699 19.5365 4.07175 22.9279 6.57223 25.4284C7.81035 26.6665 9.2802 27.6487 10.8979 28.3187C12.5156 28.9888 14.2494 29.3337 16.0003 29.3337C19.5365 29.3337 22.9279 27.9289 25.4284 25.4284C27.9289 22.9279 29.3337 19.5365 29.3337 16.0003C29.3337 14.2494 28.9888 12.5156 28.3187 10.8979C27.6487 9.2802 26.6665 7.81035 25.4284 6.57223C24.1903 5.33412 22.7204 4.35199 21.1028 3.68193C19.4851 3.01187 17.7513 2.66699 16.0003 2.66699ZM14.667 22.667H17.3337V14.667H14.667V22.667Z" fill="#0DB1FF"/>
</svg>
