<svg width="22" height="22" viewBox="0 0 22 22" fill="none" xmlns="http://www.w3.org/2000/svg">
<path d="M19.3308 21.9062L16.9118 20.2732L14.4998 21.9002C14.4091 21.9623 14.3018 21.9956 14.1918 21.9956C14.0819 21.9956 13.9745 21.9623 13.8838 21.9002L11.4658 20.2672L9.05585 21.8952C8.96515 21.9573 8.85774 21.9906 8.7478 21.9906C8.63787 21.9906 8.53052 21.9573 8.43982 21.8952L6.02081 20.2612L3.61182 21.8902C3.52896 21.9474 3.43182 21.9802 3.3313 21.9852C3.23078 21.9901 3.13091 21.9669 3.04285 21.9182C2.9536 21.869 2.87929 21.7965 2.82788 21.7085C2.77647 21.6204 2.74983 21.5201 2.75079 21.4182V1.11823H1.55084C1.40139 1.11823 1.25802 1.05883 1.15234 0.953156C1.04667 0.847479 0.987305 0.704167 0.987305 0.554718C0.987305 0.405269 1.04667 0.261927 1.15234 0.15625C1.25802 0.0505733 1.40139 -0.00878906 1.55084 -0.00878906H21.4398C21.5895 -0.0040906 21.7314 0.0590219 21.8351 0.167053C21.9389 0.275085 21.9962 0.41945 21.9948 0.569214C21.9953 0.717313 21.9373 0.859619 21.8333 0.965088C21.7293 1.07056 21.5879 1.13062 21.4398 1.1322H20.1768L20.1868 21.4322C20.1875 21.5341 20.1607 21.6343 20.1093 21.7222C20.0579 21.8102 19.9839 21.8827 19.8948 21.9322C19.8131 21.9741 19.7227 21.9967 19.6308 21.9982C19.5241 21.9967 19.42 21.9648 19.3308 21.9062ZM11.7768 19.1132L14.1958 20.7472L16.6048 19.1132C16.6955 19.0511 16.8029 19.0178 16.9128 19.0178C17.0228 19.0178 17.1301 19.0511 17.2208 19.1132L19.0848 20.3702V1.12122H3.86279V20.3662L5.71783 19.1132C5.80853 19.0511 5.91588 19.0178 6.02582 19.0178C6.13575 19.0178 6.2431 19.0511 6.3338 19.1132L8.75281 20.7412L11.1618 19.1132C11.2525 19.0511 11.3599 19.0178 11.4698 19.0178C11.5797 19.0178 11.6871 19.0511 11.7778 19.1132H11.7768ZM15.1348 15.5222C14.9854 15.5222 14.8421 15.4629 14.7364 15.3572C14.6307 15.2515 14.5713 15.1082 14.5713 14.9587C14.5713 14.8093 14.6307 14.6659 14.7364 14.5603C14.8421 14.4546 14.9854 14.3952 15.1348 14.3952H16.5878C16.7373 14.3952 16.8806 14.4546 16.9863 14.5603C17.0919 14.6659 17.1513 14.8093 17.1513 14.9587C17.1513 15.1082 17.0919 15.2515 16.9863 15.3572C16.8806 15.4629 16.7373 15.5222 16.5878 15.5222H15.1348ZM6.41583 15.5222C6.26638 15.5222 6.12301 15.4629 6.01733 15.3572C5.91166 15.2515 5.85229 15.1082 5.85229 14.9587C5.85229 14.8093 5.91166 14.6659 6.01733 14.5603C6.12301 14.4546 6.26638 14.3952 6.41583 14.3952H10.7738C10.9233 14.3952 11.0666 14.4546 11.1722 14.5603C11.2779 14.6659 11.3373 14.8093 11.3373 14.9587C11.3373 15.1082 11.2779 15.2515 11.1722 15.3572C11.0666 15.4629 10.9233 15.5222 10.7738 15.5222H6.41583ZM15.1348 13.5692C14.9854 13.5692 14.8421 13.5099 14.7364 13.4042C14.6307 13.2985 14.5713 13.1552 14.5713 13.0057C14.5713 12.8563 14.6307 12.7129 14.7364 12.6073C14.8421 12.5016 14.9854 12.4422 15.1348 12.4422H16.5878C16.7373 12.4422 16.8806 12.5016 16.9863 12.6073C17.0919 12.7129 17.1513 12.8563 17.1513 13.0057C17.1513 13.1552 17.0919 13.2985 16.9863 13.4042C16.8806 13.5099 16.7373 13.5692 16.5878 13.5692H15.1348ZM6.41583 13.5692C6.26638 13.5692 6.12301 13.5099 6.01733 13.4042C5.91166 13.2985 5.85229 13.1552 5.85229 13.0057C5.85229 12.8563 5.91166 12.7129 6.01733 12.6073C6.12301 12.5016 6.26638 12.4422 6.41583 12.4422H12.2308C12.3803 12.4422 12.5236 12.5016 12.6293 12.6073C12.7349 12.7129 12.7943 12.8563 12.7943 13.0057C12.7943 13.1552 12.7349 13.2985 12.6293 13.4042C12.5236 13.5099 12.3803 13.5692 12.2308 13.5692H6.41583ZM15.1348 10.9502C14.9854 10.9502 14.8421 10.8908 14.7364 10.7852C14.6307 10.6795 14.5713 10.5362 14.5713 10.3867C14.5713 10.2373 14.6307 10.0939 14.7364 9.98825C14.8421 9.88257 14.9854 9.82321 15.1348 9.82321H16.5878C16.7373 9.82321 16.8806 9.88257 16.9863 9.98825C17.0919 10.0939 17.1513 10.2373 17.1513 10.3867C17.1513 10.5362 17.0919 10.6795 16.9863 10.7852C16.8806 10.8908 16.7373 10.9502 16.5878 10.9502H15.1348ZM6.41583 10.9502C6.26638 10.9502 6.12301 10.8908 6.01733 10.7852C5.91166 10.6795 5.85229 10.5362 5.85229 10.3867C5.85229 10.2373 5.91166 10.0939 6.01733 9.98825C6.12301 9.88257 6.26638 9.82321 6.41583 9.82321H10.7738C10.9233 9.82321 11.0666 9.88257 11.1722 9.98825C11.2779 10.0939 11.3373 10.2373 11.3373 10.3867C11.3373 10.5362 11.2779 10.6795 11.1722 10.7852C11.0666 10.8908 10.9233 10.9502 10.7738 10.9502H6.41583ZM15.1348 8.99222C14.9854 8.99222 14.8421 8.93286 14.7364 8.82718C14.6307 8.7215 14.5713 8.57816 14.5713 8.42871C14.5713 8.27926 14.6307 8.13595 14.7364 8.03027C14.8421 7.9246 14.9854 7.8652 15.1348 7.8652H16.5878C16.7373 7.8652 16.8806 7.9246 16.9863 8.03027C17.0919 8.13595 17.1513 8.27926 17.1513 8.42871C17.1513 8.57816 17.0919 8.7215 16.9863 8.82718C16.8806 8.93286 16.7373 8.99222 16.5878 8.99222H15.1348ZM6.41583 8.99222C6.26638 8.99222 6.12301 8.93286 6.01733 8.82718C5.91166 8.7215 5.85229 8.57816 5.85229 8.42871C5.85229 8.27926 5.91166 8.13595 6.01733 8.03027C6.12301 7.9246 6.26638 7.8652 6.41583 7.8652H12.2308C12.3803 7.8652 12.5236 7.9246 12.6293 8.03027C12.7349 8.13595 12.7943 8.27926 12.7943 8.42871C12.7943 8.57816 12.7349 8.7215 12.6293 8.82718C12.5236 8.93286 12.3803 8.99222 12.2308 8.99222H6.41583ZM15.1348 6.42422C14.9855 6.42422 14.8423 6.36489 14.7367 6.25931C14.6311 6.15372 14.5718 6.01052 14.5718 5.86121C14.5718 5.71189 14.6311 5.56869 14.7367 5.4631C14.8423 5.35752 14.9855 5.29822 15.1348 5.29822H16.5878C16.7371 5.29822 16.8803 5.35752 16.9859 5.4631C17.0915 5.56869 17.1508 5.71189 17.1508 5.86121C17.1508 6.01052 17.0915 6.15372 16.9859 6.25931C16.8803 6.36489 16.7371 6.42422 16.5878 6.42422H15.1348ZM6.41583 6.42422C6.26652 6.42422 6.12328 6.36489 6.0177 6.25931C5.91212 6.15372 5.85284 6.01052 5.85284 5.86121C5.85284 5.71189 5.91212 5.56869 6.0177 5.4631C6.12328 5.35752 6.26652 5.29822 6.41583 5.29822H10.7738C10.9231 5.29822 11.0664 5.35752 11.1719 5.4631C11.2775 5.56869 11.3368 5.71189 11.3368 5.86121C11.3368 6.01052 11.2775 6.15372 11.1719 6.25931C11.0664 6.36489 10.9231 6.42422 10.7738 6.42422H6.41583ZM15.1348 4.47122C14.9855 4.47122 14.8423 4.41189 14.7367 4.3063C14.6311 4.20072 14.5718 4.05752 14.5718 3.9082C14.5718 3.75889 14.6311 3.61568 14.7367 3.5101C14.8423 3.40452 14.9855 3.34521 15.1348 3.34521H16.5878C16.7371 3.34521 16.8803 3.40452 16.9859 3.5101C17.0915 3.61568 17.1508 3.75889 17.1508 3.9082C17.1508 4.05752 17.0915 4.20072 16.9859 4.3063C16.8803 4.41189 16.7371 4.47122 16.5878 4.47122H15.1348ZM6.41583 4.47122C6.26652 4.47122 6.12328 4.41189 6.0177 4.3063C5.91212 4.20072 5.85284 4.05752 5.85284 3.9082C5.85284 3.75889 5.91212 3.61568 6.0177 3.5101C6.12328 3.40452 6.26652 3.34521 6.41583 3.34521H12.2308C12.3802 3.34521 12.5233 3.40452 12.6289 3.5101C12.7345 3.61568 12.7938 3.75889 12.7938 3.9082C12.7938 4.05752 12.7345 4.20072 12.6289 4.3063C12.5233 4.41189 12.3802 4.47122 12.2308 4.47122H6.41583Z" fill="#297CBB"/>
</svg>
