<?xml version="1.0" encoding="UTF-8"?>
<svg id="Layer_2" data-name="Layer 2" xmlns="http://www.w3.org/2000/svg" viewBox="0 0 65.06 65.04">
  <defs>
    <style>
      .cls-1 {
        fill: #fff;
      }
    </style>
  </defs>
  <g id="Layer_1-2" data-name="Layer 1">
    <g>
      <path d="M50.19,0c1.81,.71,2.85,2.33,4.18,3.6,.44,.41,.32,.87-.18,1.46-1.01,1.19-1.33,2.53-.85,4.03,.89,2.76,4.28,3.74,6.52,1.9,.92-.76,1.18-.75,2.03,.09,.72,.72,1.45,1.43,2.15,2.16,1.36,1.4,1.35,3.25-.01,4.64-.55,.56-1.1,1.12-1.66,1.66-.49,.47-1.05,.49-1.46,.07-.41-.42-.39-.97,.09-1.46,.53-.55,1.08-1.08,1.61-1.62,.63-.65,.63-1.29,0-1.95-.58-.61-1.18-1.21-1.74-1.79-3.28,1.62-5.9,1.36-7.95-.71-1.57-1.59-2.63-4.61-.69-7.75-.67-.7-1.31-1.44-2.02-2.09-.43-.4-1.1-.32-1.55,.13-1.49,1.47-2.97,2.96-4.47,4.47,.12,.15,.23,.27,.33,.4,.39,.5,.33,1.02-.13,1.47-.13,.13-.26,.39-.22,.54,1.78,6.68,3.57,13.36,5.36,20.04,.02,.06,.05,.11,.05,.11,2.36-2.36,4.74-4.74,7.12-7.13-.6-.8-.67-1.23-.21-1.68,.44-.43,.97-.35,1.7,.29,.11-.07,.22-.15,.33-.23,.49-.35,1.02-.32,1.37,.08,.35,.38,.34,.96-.06,1.38-.81,.84-1.63,1.66-2.47,2.47-.42,.41-.88,.79-1.29,1.16,1.07,1.66,3.26,2.24,5.05,1.45,1.1-.49,1.34-.42,1.93,.6,.51,.88,1.02,1.75,1.52,2.64,.95,1.7,.49,3.5-1.2,4.48-3.38,1.97-6.77,3.93-10.17,5.87-.4,.23-.51,.42-.38,.89,.7,2.48,1.34,4.98,2.01,7.47,.94,3.49-.71,6.38-4.19,7.32-10.37,2.79-20.74,5.57-31.12,8.35-3.45,.92-6.34-.73-7.27-4.18-3.58-13.31-7.14-26.63-10.71-39.95-.03-.1-.05-.21-.07-.31-.12-.6,.15-1.1,.68-1.25,.51-.14,1.04,.16,1.21,.75,.36,1.28,.7,2.57,1.04,3.86,3.24,12.09,6.47,24.18,9.71,36.27,.67,2.51,2.47,3.55,4.96,2.89,10.37-2.78,20.74-5.56,31.11-8.35,2.3-.62,3.38-2.46,2.77-4.76-4-14.93-8-29.86-12.01-44.79-.65-2.43-2.46-3.44-4.9-2.79C25.67,4.98,15.28,7.77,4.88,10.56c-2.23,.6-3.3,2.44-2.74,4.67,.1,.41,.22,.82,.31,1.23,.12,.57-.16,1.06-.66,1.2-.52,.14-1.02-.1-1.2-.66C.37,16.3,.2,15.58,0,14.87c0-.51,0-1.02,0-1.53,.04-.1,.09-.19,.11-.29,.53-2.33,1.96-3.78,4.25-4.4,7.77-2.09,15.54-4.16,23.31-6.25C30.65,1.61,33.62,.8,36.6,0c.55,0,1.1,0,1.65,0,.05,.03,.1,.09,.15,.1,2.38,.53,3.85,1.98,4.46,4.33,.05,.21,.14,.41,.23,.68,1.24-1.24,2.41-2.39,3.56-3.58C47.31,.87,47.99,.26,48.92,0h1.27Zm6.8,36.31c1.83-1.06,3.65-2.09,5.45-3.15,.64-.38,.82-1,.48-1.64-.42-.8-.89-1.57-1.35-2.38-2.7,.82-4.98,.19-6.94-1.91-.43,.45-.81,.91-1.25,1.3-.43,.38-.63,.7-.24,1.26,.31,.44,.2,.95-.26,1.29-.46,.33-.92,.25-1.31-.16-.08-.09-.16-.18-.3-.34-.21,.24-.37,.48-.58,.64-.46,.34-.5,.72-.34,1.26,.41,1.37,.75,2.77,1.13,4.16,.22,.8,.44,1.6,.68,2.46,1.06-.61,2.04-1.18,3.02-1.74-.41-1.07-.34-1.54,.22-1.82,.54-.27,.97-.07,1.59,.78Z"/>
      <path class="cls-1" d="M36.6,0c-2.97,.8-5.95,1.61-8.92,2.41-7.77,2.08-15.54,4.16-23.31,6.25C2.07,9.27,.64,10.73,.11,13.05c-.02,.1-.07,.2-.11,.29C0,8.9,0,4.45,0,0,12.2,0,24.4,0,36.6,0Z"/>
      <path class="cls-1" d="M48.92,0c-.93,.26-1.61,.87-2.27,1.54-1.15,1.18-2.32,2.34-3.56,3.58-.1-.28-.18-.47-.23-.68-.61-2.35-2.08-3.81-4.46-4.33-.06-.01-.1-.07-.15-.1,3.56,0,7.12,0,10.67,0Z"/>
      <path d="M19.08,48.31c-.59-.05-.94-.33-1.01-.86-.07-.56,.22-.93,.76-1.08,1.34-.37,2.69-.73,4.04-1.1,6.27-1.68,12.54-3.36,18.81-5.03,.12-.03,.24-.07,.37-.09,.62-.12,1.1,.15,1.25,.68,.14,.51-.16,1.04-.75,1.21-1.1,.32-2.2,.6-3.3,.9-6.49,1.74-12.99,3.48-19.48,5.21-.24,.07-.49,.11-.69,.16Z"/>
      <path d="M52.03,50.71c-.04,1.32-.82,2.44-2.11,2.81-2.91,.82-5.83,1.59-8.75,2.36-.59,.16-1.11-.15-1.25-.68-.15-.57,.17-1.06,.86-1.25,2.61-.71,5.22-1.4,7.83-2.1,.16-.04,.33-.08,.49-.13,.8-.23,1.05-.66,.84-1.48-.77-2.9-1.55-5.8-2.32-8.69-.04-.14-.08-.28-.11-.43-.09-.6,.18-1.06,.68-1.19,.53-.14,1.05,.14,1.22,.74,.33,1.16,.62,2.33,.93,3.49,.49,1.82,.98,3.63,1.47,5.45,.1,.37,.15,.74,.22,1.11Z"/>
      <path d="M29.86,52.25c-.59-.02-.94-.27-1.06-.8-.11-.52,.17-.97,.76-1.13,1.34-.37,2.7-.7,4.04-1.06,3.28-.88,6.56-1.78,9.85-2.66,.1-.03,.2-.06,.31-.08,.63-.12,1.11,.15,1.24,.69,.13,.56-.13,1.03-.75,1.21-1.25,.37-2.51,.73-3.78,1.07-3.37,.89-6.74,1.77-10.11,2.65-.18,.05-.37,.09-.5,.12Z"/>
      <path d="M20.66,54.66c-.48-.06-.81-.32-.88-.83-.07-.56,.18-.94,.73-1.1,1.24-.34,2.48-.67,3.72-1.01,.61-.16,1.22-.35,1.83-.48,.52-.11,1.01,.2,1.12,.69,.13,.54-.04,1.02-.59,1.17-1.88,.54-3.78,1.03-5.68,1.54-.08,.02-.17,.01-.27,.02Z"/>
      <path d="M45.63,8.7c.36,.21,.64,.31,.85,.5,.6,.56,1.18,1.15,1.76,1.74,.46,.47,.47,1.07,.07,1.47-.42,.41-.97,.4-1.46-.08-.61-.59-1.24-1.16-1.78-1.81-.21-.26-.31-.76-.22-1.08,.08-.29,.5-.48,.79-.74Z"/>
      <path d="M56.31,19.48c-.19,.23-.36,.61-.64,.72-.28,.12-.77,.1-.99-.08-.75-.65-1.45-1.36-2.11-2.1-.36-.39-.29-.88,.09-1.26,.36-.36,.85-.44,1.21-.11,.77,.69,1.48,1.44,2.2,2.19,.12,.12,.13,.35,.24,.64Z"/>
      <path d="M52.48,15.64c-.18,.22-.33,.6-.61,.73-.28,.12-.78,.12-.98-.06-.77-.66-1.48-1.39-2.16-2.14-.33-.37-.26-.84,.09-1.21,.35-.37,.84-.47,1.2-.15,.79,.7,1.51,1.47,2.24,2.23,.1,.11,.11,.31,.21,.6Z"/>
      <path d="M53.7,31.35c.12,.09,.45,.23,.62,.48,.43,.65,.81,1.34,1.18,2.02,.28,.52,.13,1.05-.32,1.33-.48,.3-1.04,.17-1.37-.36-.41-.66-.82-1.34-1.17-2.03-.36-.7,.1-1.44,1.06-1.44Z"/>
    </g>
    <g>
      <path d="M9.69,33.31c0-7.12,0-14.24,0-21.36,2.23,.81,4.45,1.62,6.68,2.44,.72,.26,1.45,.53,2.21,.81-.11-1.77,.39-3.31,1.54-4.61,1.16-1.31,2.64-2.02,4.39-2.09,1.58-.07,3,.4,4.21,1.43,1.62,1.37,2.34,3.14,2.23,5.28,2.97-1.09,5.91-2.17,8.86-3.25,0,.1,.01,.17,.01,.23,0,6.96,0,13.93,0,20.89,0,.19-.07,.27-.24,.33-2.84,1.11-5.69,2.23-8.53,3.34-.15,.06-.32,.09-.48,.09-3.88,0-7.77,0-11.65,0-.15,0-.31-.03-.45-.09-2.93-1.14-5.85-2.29-8.78-3.44Zm8.85,1.56V18.33s-.06-.02-.07-.02c-.04,0-.08,.02-.11,.03-1.33,.42-2.37,1.23-3.18,2.36-.33,.46-.65,.93-1,1.38-.67,.88-1.48,1.6-2.55,1.95-.07,.02-.15,.17-.15,.26,0,2.53,0,5.06-.01,7.59,0,.18,.06,.25,.22,.32,1.79,.7,3.57,1.4,5.36,2.1,.49,.19,.98,.38,1.5,.58Zm19.5-9.33V14.5c-.06,.02-.12,.02-.17,.04-2.23,.82-4.46,1.64-6.7,2.45-.17,.06-.21,.15-.21,.32,0,3.72,0,7.45,0,11.17,0,.07,.02,.14,.03,.24,.36-.29,.69-.56,1.02-.82,1.24-.98,2.55-1.84,4.12-2.16,.62-.12,1.26-.14,1.91-.21Zm-8.85-5.86c-.1,.12-.14,.17-.18,.22-.8,1.1-1.72,2.09-2.75,2.97-.38,.32-.74,.63-.79,1.16-.01,.14-.1,.28-.16,.41-.52,1.07-1.26,1.96-2.2,2.68-.55,.42-1.12,.82-1.67,1.25-.44,.34-.79,.76-.99,1.29-.26,.69-.09,1.27,.57,1.59,.44,.22,.93,.38,1.42,.44,2.32,.28,4.47-.22,6.48-1.42,.2-.12,.28-.24,.28-.48,0-3.25,0-6.51,0-9.76v-.36Zm-4.42,2.14c1.52-1.3,2.84-2.7,3.73-4.46,.46-.91,.72-1.88,.68-2.91-.1-2.63-2.67-4.65-5.25-4.11-2.6,.54-4.11,3-3.44,5.62,.27,1.04,.77,1.97,1.39,2.83,.81,1.14,1.79,2.13,2.88,3.04Zm6.21,13.03c.09-.03,.16-.04,.22-.06,2.22-.87,4.44-1.75,6.67-2.61,.18-.07,.2-.18,.2-.33,0-1.23,0-2.45,0-3.68,0-.24,0-.49,0-.75-.18-.02-.33-.05-.49-.05-1.15-.03-2.19,.35-3.11,.99-1.13,.79-2.2,1.67-3.3,2.5-.15,.11-.2,.23-.2,.42,0,1.09,0,2.18,0,3.26,0,.09,.01,.19,.02,.31ZM11.47,22.11l.09,.07c.33-.3,.69-.58,.97-.91,.42-.5,.8-1.04,1.18-1.58,.67-.95,1.49-1.75,2.5-2.33,.41-.23,.85-.43,1.32-.66-2.04-.75-4.04-1.48-6.06-2.22v7.63Zm17.69,12.95v-2.84c-2.86,1.34-5.77,1.84-8.81,.8v2.05h8.81Zm-8.82-8.06c.77-.6,1.53-1.1,2.18-1.73,.47-.45,.79-1.05,1.18-1.59,.14-.2,.11-.34-.1-.51-1.17-.96-2.22-2.04-3.11-3.27-.04-.05-.08-.09-.15-.17v7.27Z"/>
      <path d="M22.1,14.67c0-1.46,1.21-2.66,2.67-2.65,1.47,.01,2.65,1.2,2.64,2.67,0,1.46-1.21,2.66-2.67,2.65-1.47-.01-2.65-1.2-2.64-2.67Zm2.67-.87c-.48,0-.89,.39-.9,.86-.01,.48,.37,.89,.85,.9,.49,.02,.91-.38,.91-.88,0-.48-.39-.88-.87-.89Z"/>
    </g>
  </g>
</svg>