<svg width="29" height="16" viewBox="0 0 29 16" fill="none" xmlns="http://www.w3.org/2000/svg">
<path id="Forma 1" d="M20.5137 13.3533H8.36081C8.23944 14.052 7.87375 14.6849 7.32901 15.1391C6.78427 15.5933 6.0959 15.8391 5.3867 15.8328C4.6775 15.8265 3.99362 15.5684 3.45704 15.1047C2.92047 14.6409 2.5661 14.0016 2.45718 13.3008C1.75829 13.1561 1.1313 12.7734 0.683202 12.2179C0.235102 11.6624 -0.00630896 10.9685 0.000196232 10.2549V7.776C-0.00964378 6.96689 0.301127 6.18678 0.864621 5.60607C1.42812 5.02536 2.19854 4.69126 3.00758 4.67676C3.28103 4.67556 3.5498 4.60579 3.78933 4.47387C4.02887 4.34195 4.23153 4.15212 4.37872 3.92165L5.40245 2.33791C5.67023 1.91634 6.03979 1.56894 6.47714 1.32779C6.91448 1.08664 7.40552 0.959472 7.90494 0.958008H16.6007C17.2868 0.960425 17.9509 1.20035 18.4802 1.63701L23.22 5.5439C23.5088 5.78366 23.872 5.91542 24.2473 5.91662H25.265C27.61 5.91662 28.8752 8.15138 28.8752 10.2549C28.9002 10.9739 28.6656 11.6778 28.2143 12.238C27.763 12.7983 27.1251 13.1774 26.4173 13.306C26.3066 14.0058 25.9512 14.6436 25.4143 15.1059C24.8775 15.5683 24.194 15.8251 23.4855 15.8308C22.777 15.8365 22.0895 15.5906 21.5453 15.1369C21.0012 14.6832 20.6355 14.0512 20.5137 13.3533ZM21.6564 12.7338C21.6671 13.0883 21.782 13.4318 21.9867 13.7214C22.1914 14.011 22.4769 14.234 22.8075 14.3623C23.1382 14.4907 23.4993 14.5187 23.8458 14.4431C24.1923 14.3674 24.5088 14.1914 24.7559 13.9369C25.0029 13.6824 25.1696 13.3608 25.2349 13.0122C25.3003 12.6636 25.2616 12.3035 25.1235 11.9768C24.9854 11.6501 24.7541 11.3713 24.4586 11.1752C24.163 10.9792 23.8162 10.8745 23.4615 10.8744C22.976 10.8829 22.5136 11.0833 22.1754 11.4317C21.8371 11.7801 21.6506 12.2482 21.6564 12.7338ZM3.60957 12.7338C3.62006 13.0885 3.73486 13.4323 3.93962 13.7222C4.14437 14.0122 4.43 14.2353 4.76084 14.3638C5.09167 14.4923 5.45303 14.5205 5.79979 14.4449C6.14655 14.3692 6.46335 14.193 6.71057 13.9384C6.9578 13.6837 7.12452 13.3619 7.18989 13.013C7.25526 12.6642 7.21637 12.3038 7.07811 11.9769C6.93986 11.65 6.70836 11.3711 6.41252 11.175C6.11667 10.9789 5.76961 10.8744 5.41468 10.8744C4.92917 10.8829 4.46675 11.0833 4.12851 11.4317C3.79027 11.7801 3.60371 12.2482 3.60957 12.7338ZM20.5137 12.1143C20.6332 11.4267 20.9895 10.8027 21.5207 10.3502C22.0519 9.89761 22.7246 9.64505 23.4223 9.63623C24.1201 9.6274 24.799 9.86286 25.3415 10.3018C25.884 10.7408 26.2559 11.3556 26.3928 12.0399C26.7767 11.9312 27.1123 11.6954 27.3447 11.3712C27.5771 11.0469 27.6925 10.6533 27.6721 10.2549C27.6721 9.00888 27.0307 7.15564 25.2658 7.15564H24.2491C23.5992 7.15361 22.9703 6.92563 22.4702 6.51076L17.7295 2.60563C17.4118 2.34313 17.0128 2.19901 16.6007 2.19788H7.90494C7.60538 2.19914 7.31092 2.27558 7.04858 2.4202C6.78624 2.56483 6.56442 2.77298 6.40344 3.02561L5.3797 4.6085C5.12576 5.00801 4.77541 5.3372 4.36088 5.5658C3.94635 5.7944 3.48096 5.91505 3.00758 5.91662C2.52222 5.92537 2.06005 6.12585 1.722 6.47423C1.38394 6.82262 1.19746 7.29059 1.20332 7.776V10.2549C1.20024 10.6491 1.32272 11.0341 1.55302 11.3541C1.78333 11.674 2.1095 11.9124 2.48431 12.0346C2.62179 11.3507 2.99412 10.7363 3.53683 10.2979C4.07954 9.85955 4.75849 9.6248 5.45607 9.63425C6.15365 9.6437 6.82598 9.89676 7.35662 10.3497C7.88726 10.8026 8.24282 11.4268 8.36172 12.1143H20.5137ZM15.0388 9.63537C14.8784 9.62934 14.7266 9.56138 14.6153 9.44578C14.5039 9.33018 14.4417 9.17594 14.4417 9.01544C14.4417 8.85494 14.5039 8.7007 14.6153 8.58509C14.7266 8.46949 14.8784 8.40153 15.0388 8.3955H16.2419C16.4023 8.40153 16.5541 8.46949 16.6655 8.58509C16.7768 8.7007 16.839 8.85494 16.839 9.01544C16.839 9.17594 16.7768 9.33018 16.6655 9.44578C16.5541 9.56138 16.4023 9.62934 16.2419 9.63537H15.0388ZM13.8357 7.15649C13.674 7.1535 13.5201 7.08669 13.4074 6.97064C13.2948 6.85458 13.2327 6.69869 13.2346 6.53698V4.05816C13.2346 3.89873 13.2979 3.74578 13.4106 3.63305C13.5234 3.52031 13.6763 3.45702 13.8357 3.45702C13.9951 3.45702 14.148 3.52031 14.2608 3.63305C14.3735 3.74578 14.4368 3.89873 14.4368 4.05816V5.91753H19.8513C20.0117 5.92356 20.1635 5.99147 20.2748 6.10707C20.3862 6.22267 20.4484 6.37696 20.4484 6.53747C20.4484 6.69797 20.3862 6.85221 20.2748 6.96781C20.1635 7.08341 20.0117 7.15137 19.8513 7.1574L13.8357 7.15649ZM6.61781 7.15649C6.51437 7.15582 6.41287 7.12838 6.32317 7.07686C6.23347 7.02534 6.15867 6.9515 6.10597 6.86249C6.05202 6.77219 6.02136 6.66989 6.01678 6.56481C6.0122 6.45972 6.03381 6.35516 6.07969 6.2605L7.28282 3.78162C7.31644 3.70943 7.36428 3.64476 7.42343 3.59144C7.48259 3.53813 7.55184 3.4973 7.62712 3.47133C7.70241 3.44537 7.78218 3.4348 7.86163 3.44031C7.94107 3.44582 8.01858 3.46727 8.08956 3.50338C8.23326 3.58019 8.34159 3.70967 8.39184 3.86467C8.44209 4.01966 8.43034 4.18813 8.35905 4.33464L7.59081 5.91662H11.4303C11.5907 5.92265 11.7425 5.99061 11.8539 6.10621C11.9652 6.22182 12.0274 6.37606 12.0274 6.53656C12.0274 6.69706 11.9652 6.8513 11.8539 6.9669C11.7425 7.0825 11.5907 7.15046 11.4303 7.15649H6.61781Z" fill="white"/>
</svg>
