<svg width="13" height="13" viewBox="0 0 13 13" fill="none" xmlns="http://www.w3.org/2000/svg">
<path id="icon" d="M8.11116 7.45361C8.69571 7.09957 9.17833 6.60017 9.51185 6.00421C9.84537 5.40824 10.0184 4.73608 10.014 4.05337C10.0211 3.52363 9.92267 2.99777 9.72454 2.50631C9.52642 2.01485 9.2325 1.56759 8.85987 1.19049C8.48724 0.813393 8.0433 0.513971 7.55384 0.309604C7.06438 0.105238 6.53915 0 6.00863 0C5.47811 0 4.95287 0.105238 4.46341 0.309604C3.97395 0.513971 3.53002 0.813393 3.15739 1.19049C2.78475 1.56759 2.49084 2.01485 2.29271 2.50631C2.09458 2.99777 1.99617 3.52363 2.00322 4.05337C1.99893 4.73606 2.17198 5.4082 2.50549 6.00415C2.839 6.60011 3.32159 7.09951 3.90609 7.45361C2.91585 7.82373 2.03698 8.44088 1.35323 9.24626C0.669475 10.0516 0.203612 11.0184 0 12.0546H1.00161C1.25706 10.9189 1.8921 9.90384 2.80215 9.17654C3.71219 8.44924 4.84303 8.05298 6.00863 8.05298C7.17423 8.05298 8.30515 8.44924 9.2152 9.17654C10.1252 9.90384 10.7602 10.9189 11.0156 12.0546H12.0166C11.8281 11.0125 11.3678 10.0385 10.6821 9.23069C9.99649 8.42292 9.10971 7.80995 8.11116 7.45361ZM3.00414 4.05337C3.00414 3.46003 3.18037 2.88001 3.51047 2.38666C3.84057 1.89332 4.30967 1.5088 4.8586 1.28173C5.40754 1.05467 6.01159 0.995261 6.59434 1.11102C7.17708 1.22677 7.71243 1.51249 8.13256 1.93205C8.5527 2.35161 8.83878 2.88616 8.9547 3.4681C9.07061 4.05005 9.01114 4.65325 8.78377 5.20142C8.55639 5.7496 8.17135 6.21814 7.67732 6.54778C7.18329 6.87743 6.60245 7.05337 6.00828 7.05337C5.2124 7.05095 4.44978 6.7342 3.88694 6.17227C3.32409 5.61034 3.00675 4.84816 3.00414 4.05337Z" fill="white"/>
</svg>
