<svg xmlns="http://www.w3.org/2000/svg" width="56.48" height="36.603">
  <g fill="#fff">
    <path d="M55.026 0H1.454A1.453 1.453 0 0 0 0 1.454v33.695a1.453 1.453 0 0 0 1.454 1.454h53.572a1.453 1.453 0 0 0 1.454-1.454V1.454A1.453 1.453 0 0 0 55.026 0zM4.373 11.061H10.4a1.564 1.564 0 0 1 1.7 1.159l1.311 6.305c-1.288-3.3-4.392-6.042-9.083-7.178zm7.294 14.38l-3.482-11.9a15.269 15.269 0 0 1 5.386 5.92l.406 1.469 3.808-9.729h4.12l-6.123 14.24zm13.266.01h-3.888l2.431-14.268h3.89zm6.767.21a12.308 12.308 0 0 1-4.332-.762l.547-3.193.5.227a8.148 8.148 0 0 0 3.661.749c1.117 0 2.314-.437 2.325-1.393.007-.625-.5-1.071-2.015-1.771-1.476-.682-3.43-1.826-3.406-3.875.021-2.773 2.729-4.708 6.572-4.708a10.036 10.036 0 0 1 3.483.6l-.525 3.096-.351-.165a7.174 7.174 0 0 0-2.91-.546c-1.522 0-2.228.634-2.228 1.227-.008.668.824 1.108 2.184 1.77 2.243 1.018 3.28 2.253 3.266 3.876-.03 2.96-2.683 4.868-6.771 4.868zm16.85-.208s-.355-1.64-.473-2.138l-4.98-.006c-.151.385-.817 2.144-.817 2.144H38.2l5.773-13.075a1.936 1.936 0 0 1 2.037-1.184h3l3.147 14.267z"/>
    <path d="M46.542 16.276l-.262-1.23c-.2.537-.539 1.4-.517 1.362 0 0-1.229 3.167-1.549 3.988h3.229l-.901-4.12z"/>
  </g>
</svg>
