<?xml version="1.0" encoding="UTF-8"?>
<svg id="Layer_2" data-name="Layer 2" xmlns="http://www.w3.org/2000/svg" viewBox="0 0 277.39 195.74">
  <defs>
    <style>
      .cls-1 {
        fill: #ed1b69;
      }

      .cls-1, .cls-2, .cls-3 {
        stroke-width: 0px;
      }

      .cls-2, .cls-4 {
        fill: #414042;
      }

      .cls-4 {
        font-family: Lenos-SemiBold, Lenos;
        font-size: 30.06px;
        font-weight: 600;
      }

      .cls-3 {
        fill: #2a2b7a;
      }
    </style>
  </defs>
  <g id="Layer_1-2" data-name="Layer 1">
    <text class="cls-4" transform="translate(22.74 181.55)"><tspan x="0" y="0">Jossor Almarefa</tspan></text>
    <g>
      <path class="cls-2" d="M26.63,131.4v7.2l-1.3.05c-5.76,0-8.11-1.97-8.69-6.67l-3.5,4.9c-1.1.58-7.1.43-9.93-.86,0,0-2.4-3.98-2.4-7.1,0-4.37,2.26-7.53,6.53-9.93l8.78-3.36v-2.88l6.67-1.63v15.93c0,3.31.91,4.37,3.84,4.37ZM9.21,100.25l3.89,3.74-3.89,3.89-3.7-3.89,3.7-3.74ZM16.12,121.03l-7.39,2.69c-2.35,1.25-3.17,2.16-3.17,3.55,0,1.15,1.2,2.93,1.2,2.93,0,0,5.18-.29,6.43-.77,1.1-.29,2.88-2.06,2.93-3.98v-4.42ZM17.71,100.25l3.89,3.74-3.89,3.89-3.74-3.89,3.74-3.74Z"/>
      <path class="cls-2" d="M49.09,125.54c0,5.71-3.31,11.13-3.31,11.13,0,0-4.32,2.06-8.78,2.06h-11.66v-7.25c2.88,0,14.01.05,18.04-.24.43,0,1.3-2.21,1.49-3.69-1.82.67-4.61,1.01-7.73,1.01-7.25,0-9.26-8.06-9.26-8.06,0,0,3.07-11.18,10.22-11.18,6.19,0,10.99,6.38,10.99,16.22ZM43.67,122.85c-.82-3.41-3.07-6.77-6.62-6.77-2.78,0-4.7,3.93-4.7,3.93,0,0,1.68,3.17,5.09,3.17,2.3,0,4.46-.14,6.24-.34ZM42.33,102.12l-3.94,3.84-3.7-3.84,3.7-3.74,3.94,3.74Z"/>
      <path class="cls-2" d="M63.4,136.29c-.05,3.46-.82,14.3-9.65,15.88-.82.1-1.34.14-2.06,0l-2.74-5.33.48-.91c.91.19,1.2.19,1.82.1,5.71-.67,6.67-8.73,6.67-12.43,0-3.46-.38-5.9-1.25-10.65l5.66-1.39.77.48.58,4.13c.53,4.13,2.26,5.23,5.9,5.23v7.25h-.77c-2.83,0-5.04-1.54-5.42-2.35Z"/>
      <path class="cls-2" d="M95.69,131.4h3.31v7.2h-3.41c-4.13,0-7.68-.67-10.89-2.02-3.22,1.25-7.05,2.02-11.13,2.02h-5.47l.05-7.2h4.17c1.78,0,4.13-.14,4.85-.29-.96-.62-2.5-2.5-3.89-4.66l-2.16-2.78,1.39-5.13c3.31-.86,7.77-1.63,11.95-1.63,7.82,0,11.66,5.23,11.66,5.23,0,0-2.16,7.68-5.18,8.97.67.14,3.5.29,4.75.29ZM91.61,125.35s-2.74-2.02-6.67-2.26c-2.11-.1-4.51.1-7.39,1.06l2.3,2.16c1.78,2.25,3.36,3.65,5.33,4.32,4.56-1.1,6.43-5.28,6.43-5.28Z"/>
      <path class="cls-2" d="M129.86,131.4v7.25h-1.01c-3.74,0-5.95-1.92-7.49-5.52l-2.26,5.95h-5.76c-4.27,0-7.2-3.02-7.87-6.05l-2.54,5.61h-4.51v-7.25c3.12,0,4.03-.53,5.52-4.17l1.25-3.5c1.78-4.08,5.18-6.24,9.17-6.05l5.47.14,6,10.65c.48,1.06.96,1.78,1.49,2.26.77.58,1.44.67,2.54.67ZM118.15,124.63l-3.94-.1c-2.98.1-4.99,2.21-5.85,4.17,1.15,1.92,3.74,3.12,6.38,3.17l3.6.05,1.82-1.92-2.02-5.38Z"/>
      <path class="cls-2" d="M129.19,132.02l.38-.62c1.92.1,4.8-.53,4.8-.53,0,0,.05-2.4.05-4.03l.05-23.08,6.29-1.25.38.43v23.9c0,4.56-1.54,10.27-1.54,10.27,0,0-4.9,1.54-8.01,1.54h-2.26l-.14-6.62Z"/>
      <path class="cls-2" d="M146.61,138.64l-.05-35.03,6.77-1.34v36.38h-6.72Z"/>
      <path class="cls-2" d="M176.08,119.45c1.01,4.51,1.58,9.55,1.58,14.01,0,5.13-.43,15.36-10.03,16.65-.91.05-1.39.05-2.16,0l-2.25-4.85.53-.96c.91.1,1.54.14,2.11.1,4.99-.53,5.76-7.01,5.76-10.75,0-4.32-.72-7.53-1.97-13.05l6.14-1.34.29.19Z"/>
      <path class="cls-2" d="M204.68,131.4v7.25h-2.59c-1.25,7.87-5.95,12.19-12.96,11.61-1.15,0-2.16-.19-3.02-.48l-4.66-5.9.53-1.01c2.69.62,4.56.91,6.58.91,5.33,0,8.49-1.58,9.36-5.52l-5.95.86c-9.89.82-11.66-9.21-11.66-9.21,0,0,3.6-12.29,11.08-12.29,8.3,0,10.8,9.89,10.8,13.77h2.5ZM190.57,123.91c-3.31,0-5.86,4.99-5.33,5.81.91,0,2.64,2.25,6,2.25l5.09-.05c1.1-3.79-1.82-8.01-5.76-8.01Z"/>
      <path class="cls-2" d="M244.66,131.4v7.25h-1.3c-4.13,0-6.81-1.92-7.58-5.23l-3.26,5.76h-2.88c-3.02,0-5.18-1.63-5.9-4.66l-2.16,4.7h-3.65c-3.55,0-5.9-1.87-6.53-5.28l-2.88,4.7h-4.13v-7.25h4.66c.91-1.82,1.01-2.21,1.1-4.46v-.82l6.24-1.54v2.78c0,3.02.91,4.42,2.93,4.42.82,0,1.87-.19,1.87-.19l.62-1.97c.24-.82.34-1.92.34-2.54v-.96l6.24-1.54v2.78c0,3.02.91,4.42,2.83,4.42.86,0,1.82-.24,1.82-.24.86-1.63,1.06-2.98,1.06-4.7v-3.98l6.24-1.54v6.05c0,2.78,1.39,4.03,4.32,4.03Z"/>
      <path class="cls-2" d="M276.33,122.09l-.19,5.47h-1.06c-1.97,0-3.41.38-5.28,1.39-1.82,1.01-3.79,2.54-6.62,4.75-4.03,3.36-7.82,4.94-12.48,4.94h-7.53v-7.25h5.37c6.43,0,8.93-1.15,15.88-4.32l1.73-.72c-.62-.14-4.56-1.01-6.62-1.63l-4.51-1.39c-1.82-.58-6.62-1.49-8.06-1.44l-.82-1.39,4.27-5.57c1.44-.24,5.76.96,7.49,1.63l6.48,2.21c4.22,1.44,7.25,1.97,11.18,2.35l.77.96ZM264.38,145.07l-2.93,3.84-3.7-2.88,2.74-3.74,3.89,2.78Z"/>
    </g>
    <g>
      <polygon class="cls-3" points="177.58 27.92 114.04 64.61 138.69 78.85 177.58 56.4 177.58 67.35 138.69 89.8 99.81 67.34 99.81 61.87 163.35 25.19 138.69 10.95 99.81 33.4 99.81 22.45 138.69 0 177.58 22.45 177.58 27.92"/>
      <polygon class="cls-3" points="177.58 45.62 168.09 51.1 168.09 40.14 177.58 34.67 177.58 45.62"/>
      <path class="cls-1" d="M138.69,68.07l-20.06-11.58v-23.17l20.06-11.58,20.06,11.58v23.17l-20.06,11.58ZM128.11,51.01l10.58,6.11,10.58-6.11v-12.22l-10.58-6.11-10.58,6.11v12.22Z"/>
      <polygon class="cls-1" points="125.74 40.16 99.81 55.13 99.81 44.18 121 31.95 125.74 40.16"/>
      <polygon class="cls-3" points="163.35 25.19 133.31 42.53 147.54 45.26 177.58 27.92 163.35 25.19"/>
    </g>
  </g>
</svg>