<?xml version="1.0" encoding="UTF-8"?>
<svg id="Layer_2" data-name="Layer 2" xmlns="http://www.w3.org/2000/svg" viewBox="0 0 77.77 89.8">
  <defs>
    <style>
      .cls-1 {
        fill: #ed1b69;
      }

      .cls-1, .cls-2 {
        stroke-width: 0px;
      }

      .cls-2 {
        fill: #2a2b7a;
      }
    </style>
  </defs>
  <g id="Layer_1-2" data-name="Layer 1">
    <g>
      <polygon class="cls-2" points="77.77 27.92 14.23 64.61 38.88 78.85 77.77 56.4 77.77 67.35 38.88 89.8 0 67.34 0 61.87 63.54 25.19 38.88 10.95 0 33.4 0 22.45 38.88 0 77.77 22.45 77.77 27.92"/>
      <polygon class="cls-2" points="77.77 45.62 68.28 51.1 68.28 40.14 77.77 34.67 77.77 45.62"/>
      <path class="cls-1" d="M38.88,68.07l-20.06-11.58v-23.17l20.06-11.58,20.06,11.58v23.17l-20.06,11.58ZM28.3,51.01l10.58,6.11,10.58-6.11v-12.22l-10.58-6.11-10.58,6.11v12.22Z"/>
      <polygon class="cls-1" points="25.93 40.16 0 55.13 0 44.18 21.19 31.95 25.93 40.16"/>
      <polygon class="cls-2" points="63.54 25.19 33.5 42.53 47.73 45.26 77.77 27.92 63.54 25.19"/>
    </g>
  </g>
</svg>