<svg width="19" height="13" viewBox="0 0 19 13" fill="none" xmlns="http://www.w3.org/2000/svg">
<path d="M16.2613 5.14332V2.13048C16.2889 1.89209 16.2624 1.65081 16.1839 1.42318C16.1055 1.19555 15.9768 0.986994 15.8067 0.811853C15.6366 0.636712 15.4292 0.499129 15.1987 0.408586C14.9682 0.318043 14.72 0.276672 14.4713 0.287326H3.49826C3.2491 0.275005 3.00023 0.315259 2.76889 0.405234C2.53754 0.495209 2.32936 0.632748 2.1589 0.808266C1.98845 0.983783 1.85977 1.19304 1.78195 1.42141C1.70412 1.64979 1.67892 1.89177 1.70822 2.13048V5.14332C1.45589 5.16995 1.21161 5.2446 0.989467 5.36293C0.767324 5.48126 0.57174 5.64093 0.41415 5.83265C0.256559 6.02437 0.140153 6.24434 0.0714984 6.47979C0.00284398 6.71524 -0.0166573 6.96148 0.0142474 7.20423V9.54262C0.0109104 9.63333 0.0262268 9.72378 0.0592914 9.80878C0.092356 9.89378 0.142597 9.97163 0.206996 10.0379C0.271395 10.1041 0.348672 10.1575 0.434536 10.1948C0.520399 10.2322 0.613071 10.2529 0.707241 10.2556H0.93832V12.0987C0.934983 12.1895 0.950177 12.2799 0.983242 12.3649C1.01631 12.4499 1.06655 12.5278 1.13095 12.594C1.19535 12.6603 1.27274 12.7136 1.35861 12.751C1.44447 12.7884 1.53714 12.809 1.63131 12.8117H2.28524C2.37941 12.809 2.47208 12.7884 2.55795 12.751C2.64381 12.7136 2.72121 12.6603 2.78561 12.594C2.85001 12.5278 2.90013 12.4499 2.93319 12.3649C2.96626 12.2799 2.98157 12.1895 2.97824 12.0987V10.2354H15.0493V12.0987C15.0459 12.1895 15.0613 12.2799 15.0943 12.3649C15.1274 12.4499 15.1775 12.5278 15.2419 12.594C15.3063 12.6603 15.3837 12.7136 15.4696 12.751C15.5554 12.7884 15.6481 12.809 15.7423 12.8117H16.3963C16.4905 12.809 16.5832 12.7884 16.669 12.751C16.7549 12.7136 16.8322 12.6603 16.8966 12.594C16.961 12.5278 17.0112 12.4499 17.0443 12.3649C17.0773 12.2799 17.0927 12.1895 17.0893 12.0987V10.2354H17.3203C17.4144 10.2326 17.5071 10.212 17.593 10.1746C17.6788 10.1373 17.7562 10.0839 17.8206 10.0177C17.885 9.9514 17.9352 9.87355 17.9682 9.78855C18.0013 9.70355 18.0166 9.6131 18.0133 9.52239V7.20326C18.0526 6.70863 17.8923 6.21844 17.566 5.83474C17.2397 5.45104 16.7724 5.20338 16.2613 5.14332ZM2.36129 2.13048H2.40023C2.40023 1.19878 3.00033 1.00033 3.50033 1.00033H14.4732C14.9732 1.00033 15.5733 1.19878 15.5733 2.13048V5.12309H15.0533V3.41867C15.0568 3.32787 15.0415 3.23732 15.0085 3.15221C14.9755 3.0671 14.9253 2.98911 14.8609 2.92275C14.7965 2.85639 14.7192 2.80298 14.6333 2.76556C14.5473 2.72814 14.4546 2.70746 14.3603 2.70472H10.1253C10.0311 2.70746 9.93819 2.72814 9.85226 2.76556C9.76633 2.80298 9.68901 2.85639 9.6246 2.92275C9.56019 2.98911 9.51002 3.0671 9.47702 3.15221C9.44401 3.23732 9.42874 3.32787 9.43222 3.41867V5.12309H8.62423V3.41867C8.6277 3.32787 8.61256 3.23732 8.57955 3.15221C8.54655 3.0671 8.49638 2.98911 8.43197 2.92275C8.36756 2.85639 8.29012 2.80298 8.20419 2.76556C8.11826 2.72814 8.0255 2.70746 7.93124 2.70472H3.69625C3.602 2.70746 3.50924 2.72814 3.42331 2.76556C3.33737 2.80298 3.25993 2.85639 3.19552 2.92275C3.13111 2.98911 3.08106 3.0671 3.04806 3.15221C3.01506 3.23732 2.99979 3.32787 3.00326 3.41867V5.12309H2.36825L2.36129 2.13048ZM14.3553 3.41867V5.12309H10.1203V3.41867H14.3553ZM7.96432 3.41867V5.12309H3.72921V3.41867H7.96432ZM2.26425 12.0987H1.60922V10.2354H2.26425V12.0987ZM16.3563 12.0987H15.7013V10.2354H16.3563V12.0987ZM17.2563 9.54262H0.68124V8.49242H17.2563V9.54262ZM17.2563 7.77845H0.68124V7.20038C0.654637 7.02239 0.669848 6.84093 0.725795 6.66938C0.781742 6.49783 0.877002 6.34058 1.00448 6.20925C1.13196 6.07791 1.28846 5.97583 1.46237 5.91057C1.63628 5.84531 1.82315 5.81854 2.00924 5.83221H15.9283C16.1148 5.81705 16.3024 5.84282 16.477 5.90757C16.6517 5.97232 16.8088 6.07436 16.9366 6.20604C17.0644 6.33773 17.1596 6.4956 17.2149 6.66782C17.2703 6.84004 17.2845 7.02214 17.2563 7.20038V7.77845Z" fill="#67747C"/>
</svg>
