<svg width="13" height="14" viewBox="0 0 13 14" fill="none" xmlns="http://www.w3.org/2000/svg">
<path d="M11.1078 8.89015C10.4129 8.21251 9.56822 7.69775 8.63782 7.38506C9.29937 6.94406 9.79832 6.30889 10.0616 5.57253C10.325 4.83618 10.3389 4.03731 10.1013 3.29274C9.86366 2.54817 9.38707 1.897 8.74121 1.43455C8.09535 0.972102 7.31412 0.722656 6.51184 0.722656C5.70956 0.722656 4.92833 0.972102 4.28247 1.43455C3.63661 1.897 3.15996 2.54817 2.92236 3.29274C2.68477 4.03731 2.69865 4.83618 2.96197 5.57253C3.2253 6.30889 3.72425 6.94406 4.3858 7.38506C3.10764 7.81553 1.99926 8.62216 1.21466 9.6929C0.430061 10.7636 0.00822601 12.0453 0.0078125 13.3597H1.0238C1.0238 11.9464 1.60164 10.5909 2.63019 9.59155C3.65873 8.59217 5.05372 8.03071 6.5083 8.03071C7.96288 8.03071 9.35787 8.59217 10.3864 9.59155C11.415 10.5909 11.9928 11.9464 11.9928 13.3597H13.0078C13.0111 12.5296 12.8448 11.7072 12.5187 10.94C12.1925 10.1727 11.713 9.47605 11.1078 8.89015ZM6.50781 7.044C5.9655 7.044 5.43536 6.88776 4.98444 6.595C4.53352 6.30225 4.18208 5.88613 3.97455 5.3993C3.76701 4.91247 3.71268 4.37681 3.81848 3.85999C3.92428 3.34318 4.18543 2.86841 4.56891 2.49581C4.95238 2.1232 5.441 1.86946 5.9729 1.76666C6.5048 1.66385 7.05609 1.71665 7.55713 1.9183C8.05816 2.11995 8.48642 2.46142 8.78772 2.89955C9.08901 3.33769 9.24982 3.8528 9.24982 4.37974C9.24902 5.08611 8.95985 5.7633 8.4458 6.26278C7.93175 6.76226 7.23479 7.04323 6.50781 7.044Z" fill="#67747C"/>
</svg>
