<svg width="69" height="58" viewBox="0 0 69 58" fill="none" xmlns="http://www.w3.org/2000/svg">
<path d="M0.125 30.2087C0.125 27.2295 2.9375 24.792 6.375 24.792C9.8125 24.792 12.625 27.2295 12.625 30.2087C12.625 33.1878 9.8125 35.6253 6.375 35.6253C2.9375 35.6253 0.125 33.1878 0.125 30.2087ZM24.7813 22.3816L38.9375 19.1045L36.5 11.2503L22.3437 14.5274C19.8437 15.0962 18.3438 17.3441 19.0312 19.5107C19.7188 21.6774 22.2813 22.9774 24.7813 22.3816ZM61.0625 10.9795L68.875 3.12533L65.75 0.416992L56.375 8.54199L50.125 19.3753L20.4375 27.1482C17.9375 27.6899 16.1562 29.5587 15.75 31.6982L13.375 43.7503L4.5 54.042L9.5 57.292L18.875 46.4587L22.4375 37.9545L40.75 32.917L56.375 23.4378L61.0625 10.9795Z" fill="black"/>
</svg>
