<svg width="22" height="20" viewBox="0 0 22 20" fill="none" xmlns="http://www.w3.org/2000/svg">
<mask id="path-1-inside-1_1117_38455" fill="white">
<path d="M5.04068 19.9973C4.52853 19.9965 4.03341 19.8222 3.64438 19.5056C3.25535 19.189 2.99793 18.751 2.91826 18.2701L1.54379 10.339C1.12146 10.3047 0.728102 10.1206 0.442062 9.82337C0.156023 9.52609 -0.00175762 9.13738 1.75696e-05 8.73455V7.81644C-0.00201918 7.39227 0.173099 6.98466 0.486897 6.68302C0.800696 6.38139 1.22755 6.21037 1.67386 6.20749H2.814L2.84073 6.17931L9.05785 0.202516C9.12393 0.138421 9.2028 0.0875048 9.28985 0.0527426C9.37689 0.0179804 9.47039 6.93525e-05 9.56481 6.93525e-05C9.65923 6.93525e-05 9.75273 0.0179804 9.83978 0.0527426C9.92682 0.0875048 10.0057 0.138421 10.0718 0.202516C10.2066 0.332319 10.2822 0.507367 10.2822 0.689752C10.2822 0.872138 10.2066 1.04718 10.0718 1.17698L4.84079 6.20658H17.1592L11.9273 1.17698C11.7927 1.04706 11.7172 0.872066 11.7172 0.689752C11.7172 0.507438 11.7927 0.332433 11.9273 0.202516C11.9935 0.138394 12.0724 0.087454 12.1595 0.0526802C12.2466 0.0179063 12.3402 0 12.4347 0C12.5292 0 12.6228 0.0179063 12.7099 0.0526802C12.797 0.087454 12.876 0.138394 12.9421 0.202516L19.1593 6.17931L19.186 6.20749H20.3261C20.7725 6.21037 21.1993 6.38139 21.5131 6.68302C21.8269 6.98466 22.002 7.39227 22 7.81644V8.73637C22.0014 9.13692 21.8452 9.52349 21.562 9.82018C21.2789 10.1169 20.8892 10.3022 20.4696 10.3399L19.298 18.2238C19.226 18.7135 18.9711 19.1624 18.5799 19.4884C18.1887 19.8145 17.6872 19.996 17.1669 20L5.04068 19.9973ZM4.3329 18.042C4.35951 18.2023 4.44534 18.3484 4.57505 18.4541C4.70477 18.5597 4.86987 18.6179 5.04068 18.6183H17.1669C17.3403 18.6169 17.5074 18.5564 17.6378 18.4478C17.7682 18.3392 17.8533 18.1897 17.8776 18.0265L19.0187 10.3426H13.1507C12.9628 10.3361 12.7849 10.2606 12.6545 10.132C12.524 10.0034 12.4511 9.83176 12.4511 9.65311C12.4511 9.47446 12.524 9.30278 12.6545 9.17418C12.7849 9.04559 12.9628 8.97011 13.1507 8.96362H20.3243C20.388 8.96314 20.449 8.93867 20.4938 8.89557C20.5386 8.85246 20.5637 8.79424 20.5634 8.73364V7.81644C20.5636 7.7864 20.5577 7.75661 20.5458 7.72878C20.5339 7.70095 20.5163 7.67562 20.494 7.65426C20.4718 7.63289 20.4454 7.6159 20.4163 7.60427C20.3871 7.59263 20.3559 7.58658 20.3243 7.58646H1.67292C1.64131 7.58658 1.61006 7.59263 1.58092 7.60427C1.55178 7.6159 1.52526 7.63289 1.50304 7.65426C1.48082 7.67562 1.46333 7.70095 1.45143 7.72878C1.43954 7.75661 1.43355 7.7864 1.4338 7.81644V8.73637C1.43355 8.76641 1.43954 8.7962 1.45143 8.82403C1.46333 8.85186 1.48082 8.87719 1.50304 8.89856C1.52526 8.91993 1.55178 8.93691 1.58092 8.94855C1.61006 8.96018 1.64131 8.96623 1.67292 8.96635H8.84652C9.03437 8.97283 9.21225 9.04832 9.34274 9.17691C9.47322 9.30551 9.54613 9.47719 9.54613 9.65584C9.54613 9.83449 9.47322 10.0062 9.34274 10.1348C9.21225 10.2634 9.03437 10.3389 8.84652 10.3453H2.99766L4.3329 18.042ZM14.5863 16.5612V12.407C14.5863 12.2262 14.662 12.0528 14.7965 11.9249C14.931 11.797 15.1134 11.7252 15.3037 11.7252C15.4939 11.7252 15.6764 11.797 15.8109 11.9249C15.9454 12.0528 16.021 12.2262 16.021 12.407V16.5603C16.021 16.7411 15.9454 16.9145 15.8109 17.0424C15.6764 17.1702 15.4939 17.242 15.3037 17.242C15.1134 17.242 14.931 17.1702 14.7965 17.0424C14.662 16.9145 14.5863 16.742 14.5863 16.5612ZM10.2822 16.5612V12.407C10.2822 12.2262 10.3578 12.0528 10.4923 11.9249C10.6269 11.797 10.8093 11.7252 10.9995 11.7252C11.1898 11.7252 11.3722 11.797 11.5067 11.9249C11.6413 12.0528 11.7169 12.2262 11.7169 12.407V16.5603C11.7169 16.7411 11.6413 16.9145 11.5067 17.0424C11.3722 17.1702 11.1898 17.242 10.9995 17.242C10.8093 17.242 10.6269 17.1702 10.4923 17.0424C10.3578 16.9145 10.2822 16.742 10.2822 16.5612ZM5.97801 16.5612V12.407C5.97801 12.2262 6.05365 12.0528 6.18818 11.9249C6.32271 11.797 6.50512 11.7252 6.69537 11.7252C6.88563 11.7252 7.06804 11.797 7.20257 11.9249C7.3371 12.0528 7.41273 12.2262 7.41273 12.407V16.5603C7.41273 16.7411 7.3371 16.9145 7.20257 17.0424C7.06804 17.1702 6.88563 17.242 6.69537 17.242C6.50512 17.242 6.32271 17.1702 6.18818 17.0424C6.05365 16.9145 5.97801 16.742 5.97801 16.5612Z"/>
</mask>
<path d="M5.04068 19.9973C4.52853 19.9965 4.03341 19.8222 3.64438 19.5056C3.25535 19.189 2.99793 18.751 2.91826 18.2701L1.54379 10.339C1.12146 10.3047 0.728102 10.1206 0.442062 9.82337C0.156023 9.52609 -0.00175762 9.13738 1.75696e-05 8.73455V7.81644C-0.00201918 7.39227 0.173099 6.98466 0.486897 6.68302C0.800696 6.38139 1.22755 6.21037 1.67386 6.20749H2.814L2.84073 6.17931L9.05785 0.202516C9.12393 0.138421 9.2028 0.0875048 9.28985 0.0527426C9.37689 0.0179804 9.47039 6.93525e-05 9.56481 6.93525e-05C9.65923 6.93525e-05 9.75273 0.0179804 9.83978 0.0527426C9.92682 0.0875048 10.0057 0.138421 10.0718 0.202516C10.2066 0.332319 10.2822 0.507367 10.2822 0.689752C10.2822 0.872138 10.2066 1.04718 10.0718 1.17698L4.84079 6.20658H17.1592L11.9273 1.17698C11.7927 1.04706 11.7172 0.872066 11.7172 0.689752C11.7172 0.507438 11.7927 0.332433 11.9273 0.202516C11.9935 0.138394 12.0724 0.087454 12.1595 0.0526802C12.2466 0.0179063 12.3402 0 12.4347 0C12.5292 0 12.6228 0.0179063 12.7099 0.0526802C12.797 0.087454 12.876 0.138394 12.9421 0.202516L19.1593 6.17931L19.186 6.20749H20.3261C20.7725 6.21037 21.1993 6.38139 21.5131 6.68302C21.8269 6.98466 22.002 7.39227 22 7.81644V8.73637C22.0014 9.13692 21.8452 9.52349 21.562 9.82018C21.2789 10.1169 20.8892 10.3022 20.4696 10.3399L19.298 18.2238C19.226 18.7135 18.9711 19.1624 18.5799 19.4884C18.1887 19.8145 17.6872 19.996 17.1669 20L5.04068 19.9973ZM4.3329 18.042C4.35951 18.2023 4.44534 18.3484 4.57505 18.4541C4.70477 18.5597 4.86987 18.6179 5.04068 18.6183H17.1669C17.3403 18.6169 17.5074 18.5564 17.6378 18.4478C17.7682 18.3392 17.8533 18.1897 17.8776 18.0265L19.0187 10.3426H13.1507C12.9628 10.3361 12.7849 10.2606 12.6545 10.132C12.524 10.0034 12.4511 9.83176 12.4511 9.65311C12.4511 9.47446 12.524 9.30278 12.6545 9.17418C12.7849 9.04559 12.9628 8.97011 13.1507 8.96362H20.3243C20.388 8.96314 20.449 8.93867 20.4938 8.89557C20.5386 8.85246 20.5637 8.79424 20.5634 8.73364V7.81644C20.5636 7.7864 20.5577 7.75661 20.5458 7.72878C20.5339 7.70095 20.5163 7.67562 20.494 7.65426C20.4718 7.63289 20.4454 7.6159 20.4163 7.60427C20.3871 7.59263 20.3559 7.58658 20.3243 7.58646H1.67292C1.64131 7.58658 1.61006 7.59263 1.58092 7.60427C1.55178 7.6159 1.52526 7.63289 1.50304 7.65426C1.48082 7.67562 1.46333 7.70095 1.45143 7.72878C1.43954 7.75661 1.43355 7.7864 1.4338 7.81644V8.73637C1.43355 8.76641 1.43954 8.7962 1.45143 8.82403C1.46333 8.85186 1.48082 8.87719 1.50304 8.89856C1.52526 8.91993 1.55178 8.93691 1.58092 8.94855C1.61006 8.96018 1.64131 8.96623 1.67292 8.96635H8.84652C9.03437 8.97283 9.21225 9.04832 9.34274 9.17691C9.47322 9.30551 9.54613 9.47719 9.54613 9.65584C9.54613 9.83449 9.47322 10.0062 9.34274 10.1348C9.21225 10.2634 9.03437 10.3389 8.84652 10.3453H2.99766L4.3329 18.042ZM14.5863 16.5612V12.407C14.5863 12.2262 14.662 12.0528 14.7965 11.9249C14.931 11.797 15.1134 11.7252 15.3037 11.7252C15.4939 11.7252 15.6764 11.797 15.8109 11.9249C15.9454 12.0528 16.021 12.2262 16.021 12.407V16.5603C16.021 16.7411 15.9454 16.9145 15.8109 17.0424C15.6764 17.1702 15.4939 17.242 15.3037 17.242C15.1134 17.242 14.931 17.1702 14.7965 17.0424C14.662 16.9145 14.5863 16.742 14.5863 16.5612ZM10.2822 16.5612V12.407C10.2822 12.2262 10.3578 12.0528 10.4923 11.9249C10.6269 11.797 10.8093 11.7252 10.9995 11.7252C11.1898 11.7252 11.3722 11.797 11.5067 11.9249C11.6413 12.0528 11.7169 12.2262 11.7169 12.407V16.5603C11.7169 16.7411 11.6413 16.9145 11.5067 17.0424C11.3722 17.1702 11.1898 17.242 10.9995 17.242C10.8093 17.242 10.6269 17.1702 10.4923 17.0424C10.3578 16.9145 10.2822 16.742 10.2822 16.5612ZM5.97801 16.5612V12.407C5.97801 12.2262 6.05365 12.0528 6.18818 11.9249C6.32271 11.797 6.50512 11.7252 6.69537 11.7252C6.88563 11.7252 7.06804 11.797 7.20257 11.9249C7.3371 12.0528 7.41273 12.2262 7.41273 12.407V16.5603C7.41273 16.7411 7.3371 16.9145 7.20257 17.0424C7.06804 17.1702 6.88563 17.242 6.69537 17.242C6.50512 17.242 6.32271 17.1702 6.18818 17.0424C6.05365 16.9145 5.97801 16.742 5.97801 16.5612Z" fill="white" stroke="white" stroke-width="4" mask="url(#path-1-inside-1_1117_38455)"/>
</svg>
