<svg width="27" height="25" viewBox="0 0 27 25" fill="none" xmlns="http://www.w3.org/2000/svg">
<path d="M1.4987 25C1.25668 24.9969 1.02548 24.8976 0.854568 24.7233C0.683658 24.549 0.586631 24.3136 0.584281 24.0674V2.70285C0.581174 2.57863 0.602521 2.45503 0.64705 2.33931C0.691579 2.22359 0.75839 2.11807 0.84358 2.02899C0.928769 1.9399 1.03061 1.86902 1.14312 1.82052C1.25562 1.77203 1.37651 1.74687 1.4987 1.74656H6.18482V0.929919C6.18482 0.683287 6.28117 0.44677 6.45265 0.272375C6.62414 0.0979801 6.8568 0 7.09932 0C7.34184 0 7.57442 0.0979801 7.74591 0.272375C7.9174 0.44677 8.01374 0.683287 8.01374 0.929919V1.74656H19.2148V0.929919C19.2148 0.683287 19.3112 0.44677 19.4827 0.272375C19.6541 0.0979801 19.8868 0 20.1293 0C20.3718 0 20.6044 0.0979801 20.7759 0.272375C20.9474 0.44677 21.0437 0.683287 21.0437 0.929919V1.74656H25.577C25.6993 1.74688 25.8202 1.77196 25.9328 1.82044C26.0454 1.86893 26.1473 1.93984 26.2326 2.02891C26.3179 2.11797 26.3848 2.22342 26.4295 2.33915C26.4742 2.45487 26.4957 2.57856 26.4927 2.70285V24.0411C26.4957 24.1653 26.4742 24.289 26.4295 24.4048C26.3848 24.5205 26.3179 24.6259 26.2326 24.715C26.1473 24.8041 26.0454 24.875 25.9328 24.9235C25.8202 24.9719 25.6993 24.997 25.577 24.9973L1.4987 25ZM2.41447 23.1111H24.66V8.04263H2.41447V23.1111ZM2.41447 6.13013H24.6755V3.66171H21.0489V4.17414C21.0489 4.42078 20.9525 4.65729 20.781 4.83169C20.6096 5.00608 20.377 5.10406 20.1345 5.10406C19.8919 5.10406 19.6594 5.00608 19.4879 4.83169C19.3164 4.65729 19.22 4.42078 19.22 4.17414V3.66171H8.01888V4.17414C8.01888 4.42078 7.92253 4.65729 7.75105 4.83169C7.57956 5.00608 7.34698 5.10406 7.10446 5.10406C6.86194 5.10406 6.62936 5.00608 6.45787 4.83169C6.28638 4.65729 6.19003 4.42078 6.19003 4.17414V3.66171H2.41961L2.41447 6.13013ZM6.96588 18.9594C6.72235 18.9502 6.49178 18.8454 6.32269 18.667C6.1536 18.4885 6.05912 18.2503 6.05912 18.0025C6.05912 17.7547 6.1536 17.5165 6.32269 17.338C6.49178 17.1596 6.72235 17.0548 6.96588 17.0456H13.5469C13.7904 17.0548 14.021 17.1596 14.1901 17.338C14.3592 17.5165 14.4537 17.7547 14.4537 18.0025C14.4537 18.2503 14.3592 18.4885 14.1901 18.667C14.021 18.8454 13.7904 18.9502 13.5469 18.9594H6.96588ZM6.96588 14.3414C6.72235 14.3322 6.49178 14.2274 6.32269 14.049C6.1536 13.8705 6.05912 13.6323 6.05912 13.3845C6.05912 13.1367 6.1536 12.8985 6.32269 12.72C6.49178 12.5416 6.72235 12.4368 6.96588 12.4276H20.1306C20.3741 12.4368 20.6046 12.5416 20.7737 12.72C20.9428 12.8985 21.0373 13.1367 21.0373 13.3845C21.0373 13.6323 20.9428 13.8705 20.7737 14.049C20.6046 14.2274 20.3741 14.3322 20.1306 14.3414H6.96588Z" fill="#67747C"/>
</svg>
