<svg width="30" height="29" viewBox="0 0 30 29" fill="none" xmlns="http://www.w3.org/2000/svg">
<path d="M21.6315 27.4895C20.2709 27.4895 18.838 27.1633 17.3569 26.535C15.912 25.9187 14.455 25.0729 13.0342 24.0458C11.6254 23.0066 10.2647 21.8466 8.97636 20.5779C7.7 19.285 6.54406 17.9195 5.52058 16.5179C4.48505 15.0679 3.65421 13.6179 3.0642 12.2162C2.43807 10.7179 2.125 9.26788 2.125 7.90246C2.125 6.95996 2.29357 6.06579 2.61868 5.23204C2.95583 4.37413 3.49768 3.57663 4.23218 2.88788C5.15934 1.96954 6.21896 1.51038 7.35081 1.51038C7.82042 1.51038 8.30206 1.61913 8.71145 1.81246C9.18105 2.02996 9.57841 2.35621 9.86739 2.79121L12.6609 6.74246C12.9138 7.09288 13.1064 7.43121 13.2389 7.76954C13.3954 8.13204 13.4797 8.49454 13.4797 8.84496C13.4797 9.30413 13.3473 9.75121 13.0944 10.1741C12.9138 10.5004 12.6368 10.8508 12.2876 11.2012L11.4689 12.0591C11.4809 12.0954 11.4929 12.1195 11.505 12.1437C11.6495 12.3975 11.9385 12.8325 12.4923 13.485C13.0824 14.1616 13.6362 14.7779 14.1901 15.3458C14.9006 16.0466 15.4906 16.6025 16.0445 17.0616C16.7308 17.6416 17.1763 17.9316 17.4412 18.0645L17.4171 18.125L18.2961 17.255C18.6694 16.8804 19.0306 16.6025 19.3798 16.4212C20.0421 16.0104 20.885 15.9379 21.7278 16.2883C22.0409 16.4212 22.378 16.6025 22.7393 16.8562L26.7369 19.7079C27.1824 20.01 27.5075 20.3966 27.7002 20.8558C27.8808 21.315 27.9651 21.7379 27.9651 22.1608C27.9651 22.7408 27.8326 23.3208 27.5798 23.8645C27.3269 24.4083 27.0138 24.8795 26.6165 25.3145C25.9301 26.0758 25.1836 26.6195 24.3166 26.97C23.4858 27.3083 22.5827 27.4895 21.6315 27.4895ZM7.35081 3.32288C6.68856 3.32288 6.07446 3.61288 5.48445 4.19288C4.93056 4.71246 4.54525 5.28038 4.30443 5.89663C4.05157 6.52496 3.93116 7.18954 3.93116 7.90246C3.93116 9.02621 4.19606 10.2466 4.72587 11.5033C5.26771 12.7841 6.0263 14.1133 6.98958 15.4425C7.95287 16.7716 9.0486 18.0645 10.2527 19.285C11.4568 20.4812 12.7572 21.5929 14.0938 22.5716C15.3942 23.5262 16.7308 24.2995 18.0553 24.8554C20.1143 25.7375 22.0409 25.9429 23.6303 25.2783C24.2444 25.0245 24.7862 24.6379 25.2799 24.082C25.5569 23.78 25.7736 23.4537 25.9542 23.067C26.0987 22.765 26.171 22.4508 26.171 22.1366C26.171 21.9433 26.1348 21.75 26.0385 21.5325C26.0024 21.46 25.9301 21.327 25.7014 21.17L21.7037 18.3183C21.4629 18.1491 21.2462 18.0283 21.0415 17.9437C20.7766 17.835 20.6682 17.7262 20.2588 17.98C20.018 18.1008 19.8013 18.282 19.5604 18.5237L18.6453 19.43C18.1757 19.8891 17.4533 19.9979 16.8994 19.7925L16.5743 19.6475C16.0806 19.3816 15.5026 18.9708 14.8644 18.427C14.2865 17.9316 13.6603 17.3516 12.9017 16.6025C12.3117 15.9983 11.7217 15.3579 11.1076 14.645C10.5417 13.9804 10.1323 13.4125 9.87943 12.9412L9.73494 12.5787C9.6627 12.3008 9.63861 12.1437 9.63861 11.9745C9.63861 11.5395 9.79515 11.1529 10.0962 10.8508L10.9993 9.90829C11.2401 9.66663 11.4207 9.43704 11.5411 9.23163C11.6374 9.07454 11.6736 8.94163 11.6736 8.82079C11.6736 8.72413 11.6374 8.57913 11.5772 8.43413C11.4929 8.24079 11.3605 8.02329 11.1919 7.79371L8.39839 3.83038C8.27798 3.66121 8.13348 3.54038 7.95287 3.45579C7.76021 3.37121 7.55551 3.32288 7.35081 3.32288ZM17.4171 18.137L17.2245 18.9587L17.5496 18.1129C17.4894 18.1008 17.4412 18.1129 17.4171 18.137Z" fill="#67747C"/>
</svg>
