<svg width="33" height="32" viewBox="0 0 33 32" fill="none" xmlns="http://www.w3.org/2000/svg">
<path fill-rule="evenodd" clip-rule="evenodd" d="M26.6523 6C26.6523 5.46957 26.4416 4.96086 26.0666 4.58579C25.6915 4.21071 25.1828 4 24.6523 4H8.65234C8.12191 4 7.6132 4.21071 7.23813 4.58579C6.86306 4.96086 6.65234 5.46957 6.65234 6V26C6.65234 26.5304 6.86306 27.0391 7.23813 27.4142C7.6132 27.7893 8.12191 28 8.65234 28H16.6523V26H8.65234V6H24.6523V12H26.6523V6Z" fill="#67747C"/>
<path d="M10.6523 18H16.6523V20H10.6523V18ZM10.6523 14H22.6523V16H10.6523V14Z" fill="#67747C"/>
<path fill-rule="evenodd" clip-rule="evenodd" d="M22.6523 10V12H10.6523V10H22.6523ZM25.6523 23L30.6523 25V23L25.6523 20.5V18C25.6523 17.7348 25.547 17.4804 25.3595 17.2929C25.1719 17.1054 24.9176 17 24.6523 17C24.3871 17 24.1328 17.1054 23.9452 17.2929C23.7577 17.4804 23.6523 17.7348 23.6523 18V20.5L18.6523 23V25L23.6523 23V26.5L21.6523 28V29L24.6523 28L27.6523 29V28L25.6523 26.5V23Z" fill="#67747C"/>
</svg>
