<svg width="29" height="28" viewBox="0 0 29 28" fill="none" xmlns="http://www.w3.org/2000/svg">
<path d="M14.0954 26.5404C7.20131 26.5404 1.59766 20.917 1.59766 13.9987C1.59766 7.08037 7.20131 1.45703 14.0954 1.45703C20.9896 1.45703 26.5932 7.08037 26.5932 13.9987C26.5932 20.917 20.9896 26.5404 14.0954 26.5404ZM14.0954 3.20703C8.16626 3.20703 3.34153 8.0487 3.34153 13.9987C3.34153 19.9487 8.16626 24.7904 14.0954 24.7904C20.0246 24.7904 24.8493 19.9487 24.8493 13.9987C24.8493 8.0487 20.0246 3.20703 14.0954 3.20703Z" fill="#67747C"/>
<path d="M18.4083 18.5851C18.2572 18.5851 18.1061 18.5501 17.9666 18.4567L14.3625 16.2984C13.4674 15.7617 12.8047 14.5834 12.8047 13.5451V8.76172C12.8047 8.28339 13.2 7.88672 13.6766 7.88672C14.1533 7.88672 14.5486 8.28339 14.5486 8.76172V13.5451C14.5486 13.9651 14.8973 14.5834 15.2577 14.7934L18.8617 16.9517C19.2803 17.1967 19.4082 17.7334 19.164 18.1534C18.9896 18.4334 18.699 18.5851 18.4083 18.5851Z" fill="#67747C"/>
</svg>
