<svg width="24" height="24" viewBox="0 0 24 24" fill="none" xmlns="http://www.w3.org/2000/svg">
<path d="M18.4122 3.15789C18.4122 4.92632 17.0116 6.31579 15.229 6.31579C13.4463 6.31579 12.0457 4.92632 12.0457 3.15789C12.0457 1.38947 13.4463 0 15.229 0C17.0116 0 18.4122 1.38947 18.4122 3.15789ZM15.8656 7.57895H14.847C12.173 7.57895 9.62641 6.06316 8.35311 3.66316C8.22577 3.53684 8.09844 3.41053 8.09844 3.28421L5.80649 4.29474C6.44315 6.06316 8.48044 8.33684 11.409 9.47368L9.11709 15.7895L4.15119 14.4L0.585938 21.3474L3.13255 21.9789L5.4245 17.4316L11.1544 18.9474C12.4277 19.2 13.701 18.5684 14.2103 17.4316L17.1389 9.34737C17.3936 8.46316 16.7569 7.57895 15.8656 7.57895ZM20.8315 6.31579L16.5023 18.1895C15.7383 20.2105 13.8283 21.4737 11.791 21.4737C11.409 21.4737 10.8997 21.4737 10.5177 21.3474L6.82514 20.3368L5.67916 22.6105L8.22577 23.2421L10.0084 23.7474C10.6451 23.8737 11.2817 24 11.9184 24C15.1016 24 17.9029 22.1053 19.0489 19.0737L23.5054 6.31579H20.8315Z" fill="#67747C"/>
</svg>
