<svg width="24" height="23" viewBox="0 0 24 23" fill="none" xmlns="http://www.w3.org/2000/svg">
<path d="M18.3573 22.0941V19.6247H15.8954C15.658 19.6247 15.4303 19.5301 15.2624 19.3618C15.0946 19.1934 15.0003 18.965 15.0003 18.7269C15.0003 18.4888 15.0946 18.2604 15.2624 18.092C15.4303 17.9236 15.658 17.829 15.8954 17.829H18.3573V15.3596C18.3573 15.1213 18.4516 14.8928 18.6196 14.7243C18.7876 14.5558 19.0154 14.4612 19.2529 14.4612C19.4905 14.4612 19.7183 14.5558 19.8863 14.7243C20.0542 14.8928 20.1486 15.1213 20.1486 15.3596V17.829H22.6103C22.8477 17.829 23.0754 17.9236 23.2433 18.092C23.4111 18.2604 23.5054 18.4888 23.5054 18.7269C23.5054 18.965 23.4111 19.1934 23.2433 19.3618C23.0754 19.5301 22.8477 19.6247 22.6103 19.6247H20.1486V22.0941C20.1486 22.3323 20.0543 22.5606 19.8864 22.729C19.7185 22.8974 19.4909 22.992 19.2535 22.992C19.0161 22.992 18.7884 22.8974 18.6206 22.729C18.4527 22.5606 18.3573 22.3323 18.3573 22.0941ZM3.30206 22.992C2.89764 22.9915 2.49851 22.9005 2.13358 22.7256C1.76864 22.5508 1.44718 22.2966 1.19258 21.9814C0.937982 21.6662 0.756625 21.298 0.661787 20.9037C0.56695 20.5093 0.560961 20.0987 0.644299 19.7018C1.06231 17.6956 1.99939 15.8351 3.36137 14.3073C4.72336 12.7794 6.46231 11.6381 8.40337 10.998C7.37929 10.2301 6.6223 9.15826 6.23962 7.93452C5.85694 6.71078 5.86801 5.39725 6.27138 4.18022C6.67475 2.96318 7.44994 1.90443 8.4869 1.15411C9.52385 0.403794 10.77 0 12.0486 0C13.3272 0 14.5733 0.403794 15.6102 1.15411C16.6472 1.90443 17.4223 2.96318 17.8256 4.18022C18.229 5.39725 18.2402 6.71078 17.8575 7.93452C17.4748 9.15826 16.7177 10.2301 15.6936 10.998C16.1531 11.1513 16.6028 11.3326 17.0403 11.5406C17.2459 11.6482 17.402 11.8314 17.4757 12.0519C17.5494 12.2725 17.5351 12.513 17.4357 12.7232C17.3363 12.9333 17.1596 13.0966 16.9427 13.1788C16.7258 13.2609 16.4855 13.2556 16.2724 13.1639C15.0254 12.5677 13.6663 12.244 12.2851 12.2143C12.2061 12.2143 12.1259 12.2143 12.0456 12.2143C11.9654 12.2143 11.8863 12.2143 11.8084 12.2143C9.58756 12.2739 7.45145 13.0815 5.74394 14.5071C4.03643 15.9327 2.85705 17.8933 2.39562 20.0731C2.3669 20.2101 2.369 20.3518 2.40191 20.4879C2.43483 20.6239 2.49761 20.7508 2.58575 20.8594C2.67137 20.9675 2.78038 21.0547 2.90445 21.1145C3.02852 21.1742 3.16443 21.2049 3.30206 21.2043H14.3287C14.5661 21.2043 14.7938 21.2989 14.9617 21.4673C15.1295 21.6356 15.2238 21.864 15.2238 22.1021C15.2238 22.3403 15.1295 22.5686 14.9617 22.737C14.7938 22.9054 14.5661 23 14.3287 23L3.30206 22.992ZM12.2646 10.4128C13.3844 10.3559 14.4377 9.86224 15.1999 9.03727C15.9621 8.2123 16.3729 7.12124 16.3445 5.99685C16.3161 4.87245 15.8507 3.80371 15.0478 3.01853C14.245 2.23334 13.1681 1.7939 12.0468 1.7939C10.9254 1.7939 9.84854 2.23334 9.04567 3.01853C8.24281 3.80371 7.77759 4.87245 7.74918 5.99685C7.72078 7.12124 8.13142 8.2123 8.8936 9.03727C9.65578 9.86224 10.7092 10.3559 11.8291 10.4128H12.0456H12.2646Z" fill="#67747C"/>
</svg>
