<svg width="27" height="26" viewBox="0 0 27 26" fill="none" xmlns="http://www.w3.org/2000/svg">
<path d="M10.5751 12.5883C10.5426 12.5883 10.521 12.5883 10.4885 12.5883C10.4343 12.5775 10.3585 12.5775 10.2935 12.5883C7.1518 12.4908 4.7793 10.0208 4.7793 6.97663C4.7793 3.87829 7.30346 1.35413 10.4018 1.35413C13.5001 1.35413 16.0243 3.87829 16.0243 6.97663C16.0135 10.0208 13.6301 12.4908 10.6076 12.5883C10.5968 12.5883 10.586 12.5883 10.5751 12.5883ZM10.4018 2.97913C8.20263 2.97913 6.4043 4.77746 6.4043 6.97663C6.4043 9.14329 8.0943 10.8875 10.2501 10.9633C10.3151 10.9525 10.456 10.9525 10.5968 10.9633C12.7201 10.8658 14.3885 9.12163 14.3993 6.97663C14.3993 4.77746 12.601 2.97913 10.4018 2.97913Z" fill="#67747C"/>
<path d="M18.5699 12.7292C18.5374 12.7292 18.5049 12.7292 18.4724 12.7184C18.0283 12.7617 17.5733 12.4475 17.5299 12.0034C17.4866 11.5592 17.7574 11.1584 18.2016 11.1042C18.3316 11.0934 18.4724 11.0934 18.5916 11.0934C20.1733 11.0067 21.4083 9.70671 21.4083 8.11421C21.4083 6.46754 20.0758 5.13504 18.4291 5.13504C17.9849 5.14587 17.6166 4.77754 17.6166 4.33337C17.6166 3.88921 17.9849 3.52087 18.4291 3.52087C20.9641 3.52087 23.0333 5.59004 23.0333 8.12504C23.0333 10.6167 21.0833 12.6317 18.6024 12.7292C18.5916 12.7292 18.5808 12.7292 18.5699 12.7292Z" fill="#67747C"/>
<path d="M10.5856 24.4292C8.46227 24.4292 6.3281 23.8875 4.71393 22.8042C3.2081 21.8075 2.38477 20.4425 2.38477 18.9584C2.38477 17.4742 3.2081 16.0984 4.71393 15.0909C7.96393 12.935 13.2289 12.935 16.4573 15.0909C17.9523 16.0875 18.7864 17.4525 18.7864 18.9367C18.7864 20.4209 17.9631 21.7967 16.4573 22.8042C14.8323 23.8875 12.7089 24.4292 10.5856 24.4292ZM5.6131 16.4559C4.5731 17.1492 4.00977 18.0375 4.00977 18.9692C4.00977 19.89 4.58393 20.7784 5.6131 21.4609C8.3106 23.27 12.8606 23.27 15.5581 21.4609C16.5981 20.7675 17.1614 19.8792 17.1614 18.9475C17.1614 18.0267 16.5873 17.1384 15.5581 16.4559C12.8606 14.6575 8.3106 14.6575 5.6131 16.4559Z" fill="#67747C"/>
<path d="M20.5194 22.4792C20.1402 22.4792 19.8044 22.2192 19.7286 21.8292C19.6419 21.385 19.9236 20.9625 20.3569 20.865C21.0394 20.7242 21.6677 20.4534 22.1552 20.0742C22.7727 19.6084 23.1086 19.0234 23.1086 18.4059C23.1086 17.7884 22.7727 17.2034 22.1661 16.7484C21.6894 16.38 21.0936 16.12 20.3894 15.9575C19.9561 15.86 19.6744 15.4267 19.7719 14.9825C19.8694 14.5492 20.3027 14.2675 20.7469 14.365C21.6786 14.5709 22.4911 14.9392 23.1519 15.4484C24.1594 16.2067 24.7336 17.2792 24.7336 18.4059C24.7336 19.5325 24.1486 20.605 23.1411 21.3742C22.4694 21.8942 21.6244 22.2734 20.6927 22.4575C20.6277 22.4792 20.5736 22.4792 20.5194 22.4792Z" fill="#67747C"/>
</svg>
