<svg width="27" height="25" viewBox="0 0 27 25" fill="none" xmlns="http://www.w3.org/2000/svg">
<path d="M11.9905 24.5V21.3402C8.08962 20.6528 5.00282 17.7934 4.26079 14.18H0.849609V10.82H4.26079C5.00282 7.20656 8.08962 4.3472 11.9905 3.65984V0.5H15.6177V3.65984C19.5186 4.3472 22.6054 7.20656 23.3474 10.82H26.7586V14.18H23.3474C22.6054 17.7934 19.5186 20.6528 15.6177 21.3402V24.5H11.9905ZM13.8041 19.1C14.7405 19.1024 15.6682 18.9333 16.5338 18.6024C17.3994 18.2716 18.1858 17.7855 18.848 17.1722C19.5101 16.5589 20.0348 15.8303 20.392 15.0285C20.7491 14.2267 20.9317 13.3674 20.9291 12.5C20.9317 11.6326 20.7491 10.7733 20.392 9.97148C20.0348 9.16966 19.5101 8.44114 18.848 7.8278C18.1858 7.21446 17.3994 6.7284 16.5338 6.39756C15.6682 6.06672 14.7405 5.89762 13.8041 5.9C12.8677 5.89762 11.9401 6.06672 11.0745 6.39756C10.2089 6.7284 9.4224 7.21446 8.76028 7.8278C8.09815 8.44114 7.57343 9.16966 7.21627 9.97148C6.85912 10.7733 6.67657 11.6326 6.67914 12.5C6.67657 13.3674 6.85912 14.2267 7.21627 15.0285C7.57343 15.8303 8.09815 16.5589 8.76028 17.1722C9.4224 17.7855 10.2089 18.2716 11.0745 18.6024C11.9401 18.9333 12.8677 19.1024 13.8041 19.1Z" fill="#FF681A"/>
</svg>
