<svg width="17" height="23" viewBox="0 0 17 23" fill="none" xmlns="http://www.w3.org/2000/svg">
<path d="M8.80403 0.5C4.40299 0.5 0.832031 3.6679 0.832031 7.57143C0.832031 13.8571 8.80403 22.5 8.80403 22.5C8.80403 22.5 16.776 13.8571 16.776 7.57143C16.776 3.6679 13.2051 0.5 8.80403 0.5ZM8.80403 11.5C8.17335 11.5 7.55683 11.3157 7.03243 10.9703C6.50804 10.625 6.09932 10.1341 5.85797 9.55986C5.61661 8.98558 5.55346 8.35366 5.6765 7.744C5.79955 7.13435 6.10325 6.57434 6.54921 6.13481C6.99517 5.69527 7.56336 5.39594 8.18193 5.27467C8.8005 5.15341 9.44166 5.21565 10.0243 5.45352C10.607 5.6914 11.105 6.09422 11.4554 6.61107C11.8058 7.12791 11.9928 7.73554 11.9928 8.35714C11.9919 9.1904 11.6557 9.98927 11.0578 10.5785C10.46 11.1677 9.64947 11.4991 8.80403 11.5Z" fill="#0DB1FF"/>
</svg>
