<svg width="22" height="14" viewBox="0 0 22 14" fill="none" xmlns="http://www.w3.org/2000/svg">
<path d="M20.1166 4.28632L21.833 2.48586H18.0268C16.1214 1.23089 13.8201 0.5 11.3314 0.5C8.84584 0.5 6.55104 1.23247 4.64873 2.48586H0.833008L2.54937 4.28632C1.49732 5.21181 0.837792 6.54493 0.837792 8.02513C0.837792 10.8185 3.18669 13.0832 6.08385 13.0832C7.46012 13.0832 8.71399 12.5714 9.65006 11.7348L11.3315 13.5L13.0128 11.7363C13.9489 12.573 15.2012 13.0832 16.5775 13.0832C19.4746 13.0832 21.8267 10.8185 21.8267 8.02513C21.8282 6.54339 21.1687 5.21031 20.1166 4.28632ZM6.0854 11.4482C4.12428 11.4482 2.5351 9.916 2.5351 8.02513C2.5351 6.13425 4.12432 4.60197 6.0854 4.60197C8.04649 4.60197 9.6357 6.13425 9.6357 8.02513C9.6357 9.916 8.04649 11.4482 6.0854 11.4482ZM11.333 7.92552C11.333 5.67303 9.63415 3.73929 7.39174 2.91337C8.60431 2.42455 9.93449 2.15334 11.3314 2.15334C12.7283 2.15334 14.0601 2.42455 15.2727 2.91337C13.0319 3.74083 11.333 5.67307 11.333 7.92552ZM16.5791 11.4482C14.6179 11.4482 13.0287 9.916 13.0287 8.02513C13.0287 6.13425 14.6179 4.60197 16.5791 4.60197C18.5402 4.60197 20.1294 6.13425 20.1294 8.02513C20.1294 9.916 18.5401 11.4482 16.5791 11.4482ZM16.5791 6.22924C15.5508 6.22924 14.718 7.03218 14.718 8.02359C14.718 9.01496 15.5508 9.81789 16.5791 9.81789C17.6073 9.81789 18.44 9.01496 18.44 8.02359C18.44 7.03371 17.6073 6.22924 16.5791 6.22924ZM7.94637 8.02513C7.94637 9.0165 7.11361 9.81943 6.0854 9.81943C5.05719 9.81943 4.22443 9.0165 4.22443 8.02513C4.22443 7.03371 5.05719 6.23078 6.0854 6.23078C7.11361 6.22924 7.94637 7.03371 7.94637 8.02513Z" fill="#0DB1FF"/>
</svg>
