<svg width="22" height="14" viewBox="0 0 22 14" fill="none" xmlns="http://www.w3.org/2000/svg">
<path d="M21.0664 2.19706C20.9496 1.77006 20.7156 1.38014 20.3882 1.06712C20.0608 0.754098 19.6517 0.529206 19.2027 0.415418C16.4807 0.110652 13.7407 -0.0266832 11 0.00427074C8.25929 -0.0266832 5.51933 0.110652 2.79729 0.415418C2.34833 0.529206 1.93923 0.754098 1.61181 1.06712C1.28438 1.38014 1.05035 1.77006 0.933639 2.19706C0.635466 3.78427 0.490498 5.394 0.500536 7.00623C0.489995 8.62673 0.634962 10.2448 0.933639 11.8403C1.0564 12.2604 1.29311 12.6426 1.62014 12.9487C1.94717 13.2547 2.35307 13.474 2.79729 13.5846C5.51933 13.8893 8.25929 14.0267 11 13.9957C13.7407 14.0267 16.4807 13.8893 19.2027 13.5846C19.6469 13.474 20.0528 13.2547 20.3799 12.9487C20.7069 12.6426 20.9436 12.2604 21.0664 11.8403C21.365 10.2448 21.51 8.62673 21.4995 7.00623C21.5095 5.394 21.3645 3.78427 21.0664 2.19706ZM8.84761 9.98393V4.05345L14.3467 7.00623L8.84761 9.97147V9.98393Z" fill="#0DB1FF"/>
</svg>
