<svg width="25" height="25" viewBox="0 0 25 25" fill="none" xmlns="http://www.w3.org/2000/svg">
<g clip-path="url(#clip0_1117_39260)">
<path d="M18.8472 23.6111H6.15272C5.88549 23.6048 5.62213 23.5459 5.37767 23.4378C5.13322 23.3296 4.91246 23.1744 4.72802 22.9809C4.54358 22.7874 4.39906 22.5595 4.30273 22.3102C4.20641 22.0609 4.16015 21.795 4.16661 21.5278V7.79858H5.5555V21.5278C5.54887 21.6126 5.55908 21.6979 5.58555 21.7788C5.61201 21.8597 5.65421 21.9346 5.70971 21.9992C5.76521 22.0637 5.83292 22.1166 5.90895 22.1549C5.98498 22.1932 6.06782 22.216 6.15272 22.2222H18.8472C18.9321 22.216 19.0149 22.1932 19.0909 22.1549C19.167 22.1166 19.2347 22.0637 19.2902 21.9992C19.3457 21.9346 19.3879 21.8597 19.4143 21.7788C19.4408 21.6979 19.451 21.6126 19.4444 21.5278V7.79858H20.8333V21.5278C20.8397 21.795 20.7935 22.0609 20.6972 22.3102C20.6008 22.5595 20.4563 22.7874 20.2719 22.9809C20.0874 23.1744 19.8667 23.3296 19.6222 23.4378C19.3778 23.5459 19.1144 23.6048 18.8472 23.6111Z" fill="#FF0000"/>
<path d="M21.3746 6.24997H3.47179C3.28761 6.24997 3.11098 6.17681 2.98074 6.04657C2.85051 5.91634 2.77734 5.73971 2.77734 5.55553C2.77734 5.37135 2.85051 5.19472 2.98074 5.06448C3.11098 4.93425 3.28761 4.86108 3.47179 4.86108H21.3746C21.5587 4.86108 21.7354 4.93425 21.8656 5.06448C21.9958 5.19472 22.069 5.37135 22.069 5.55553C22.069 5.73971 21.9958 5.91634 21.8656 6.04657C21.7354 6.17681 21.5587 6.24997 21.3746 6.24997Z" fill="#FF0000"/>
<path d="M14.584 9.02783H15.9729V19.4445H14.584V9.02783Z" fill="#FF0000"/>
<path d="M9.02734 9.02783H10.4162V19.4445H9.02734V9.02783Z" fill="#FF0000"/>
<path d="M15.9718 4.06947H14.6523V2.7778H10.3468V4.06947H9.02734V2.7778C9.0269 2.42117 9.16366 2.07803 9.40929 1.81947C9.65492 1.56091 9.9906 1.40675 10.3468 1.38892H14.6523C15.0085 1.40675 15.3442 1.56091 15.5898 1.81947C15.8355 2.07803 15.9722 2.42117 15.9718 2.7778V4.06947Z" fill="#FF0000"/>
</g>
<defs>
<clipPath id="clip0_1117_39260">
<rect width="25" height="25" fill="white"/>
</clipPath>
</defs>
</svg>
