<svg width="18" height="19" viewBox="0 0 18 19" fill="none" xmlns="http://www.w3.org/2000/svg">
<path d="M8.20595 18.7666L2.16553 12.2116C1.64694 11.6675 1.23894 11.0453 0.960313 10.3736C0.490286 9.21012 0.332827 7.96296 0.500787 6.73416C0.668748 5.50537 1.15735 4.32983 1.92669 3.30362C2.67249 2.28808 3.68628 1.45477 4.87733 0.878265C6.06839 0.301756 7.39962 0 8.75191 0C10.1042 0 11.4354 0.301756 12.6265 0.878265C13.8176 1.45477 14.8313 2.28808 15.5771 3.30362C16.3469 4.33022 16.8357 5.50639 17.0032 6.73581C17.1708 7.96523 17.0125 9.2129 16.5413 10.3766C16.2638 11.0483 15.8561 11.6702 15.3371 12.2136L9.30005 18.7666C9.23403 18.8401 9.1506 18.8994 9.05585 18.9402C8.9611 18.9809 8.85745 19.002 8.75246 19.002C8.64746 19.002 8.54382 18.9809 8.44907 18.9402C8.35432 18.8994 8.27196 18.8401 8.20595 18.7666ZM3.11082 4.0596C2.47368 4.90809 2.06871 5.88032 1.92913 6.89676C1.78954 7.9132 1.91927 8.94499 2.3077 9.90762C2.52766 10.4342 2.84915 10.9217 3.2574 11.3476L8.75246 17.3106L14.2453 11.3496C14.6529 10.925 14.9741 10.4388 15.1939 9.9136C15.583 8.95045 15.7131 7.91806 15.5737 6.90091C15.4343 5.88375 15.0293 4.91076 14.3919 4.06161C13.775 3.22246 12.9369 2.53397 11.9523 2.05765C10.9677 1.58133 9.86741 1.332 8.74968 1.332C7.63194 1.332 6.53161 1.58133 5.54703 2.05765C4.56245 2.53397 3.72427 3.22246 3.10743 4.06161L3.11082 4.0596ZM4.72696 7.65964C4.74772 6.94674 5.00156 6.25518 5.45666 5.67148C5.91175 5.08777 6.54793 4.63783 7.28561 4.37796C8.02328 4.11809 8.82964 4.0598 9.60392 4.21042C10.3782 4.36104 11.0859 4.71382 11.6386 5.2247C12.1913 5.73558 12.5644 6.38188 12.7112 7.08267C12.858 7.78346 12.772 8.50763 12.464 9.16464C12.1559 9.82165 11.6395 10.3823 10.9794 10.7765C10.3192 11.1706 9.5446 11.3808 8.75246 11.3806C7.67084 11.3675 6.63917 10.9686 5.88371 10.2716C5.12825 9.57465 4.71069 8.6364 4.72255 7.66263L4.72696 7.65964ZM6.16432 7.65964C6.17743 8.11797 6.34039 8.56264 6.63279 8.93802C6.9252 9.3134 7.33406 9.60282 7.80825 9.77005C8.28244 9.93728 8.80087 9.97489 9.29869 9.8782C9.79652 9.78152 10.2516 9.55483 10.607 9.22647C10.9625 8.89811 11.2025 8.48266 11.297 8.03214C11.3915 7.58161 11.3363 7.11601 11.1384 6.69357C10.9404 6.27114 10.6084 5.91065 10.1841 5.6572C9.75967 5.40374 9.26173 5.2686 8.75246 5.26865C8.40761 5.27256 8.06701 5.33756 7.75008 5.45999C7.43316 5.58242 7.14608 5.75984 6.90534 5.98215C6.66459 6.20446 6.47487 6.46731 6.34696 6.75565C6.21905 7.04398 6.15551 7.35218 6.15991 7.66263L6.16432 7.65964Z" fill="#0DB1FF"/>
</svg>
