<svg width="23" height="24" viewBox="0 0 23 24" fill="none" xmlns="http://www.w3.org/2000/svg">
<path d="M17.8889 3.15789C17.8889 4.92632 16.4833 6.31579 14.6944 6.31579C12.9056 6.31579 11.5 4.92632 11.5 3.15789C11.5 1.38947 12.9056 0 14.6944 0C16.4833 0 17.8889 1.38947 17.8889 3.15789ZM15.3333 7.57895H14.3111C11.6278 7.57895 9.07222 6.06316 7.79445 3.66316C7.66667 3.53684 7.53889 3.41053 7.53889 3.28421L5.23889 4.29474C5.87778 6.06316 7.92222 8.33684 10.8611 9.47368L8.56111 15.7895L3.57778 14.4L0 21.3474L2.55556 21.9789L4.85556 17.4316L10.6056 18.9474C11.8833 19.2 13.1611 18.5684 13.6722 17.4316L16.6111 9.34737C16.8667 8.46316 16.2278 7.57895 15.3333 7.57895ZM20.3167 6.31579L15.9722 18.1895C15.2056 20.2105 13.2889 21.4737 11.2444 21.4737C10.8611 21.4737 10.35 21.4737 9.96667 21.3474L6.26111 20.3368L5.11111 22.6105L7.66667 23.2421L9.45555 23.7474C10.0944 23.8737 10.7333 24 11.3722 24C14.5667 24 17.3778 22.1053 18.5278 19.0737L23 6.31579H20.3167Z" fill="#0DB1FF"/>
</svg>
