<svg width="24" height="24" viewBox="0 0 24 24" fill="none" xmlns="http://www.w3.org/2000/svg">
<path d="M21.6004 8.84838V17.4008C21.6004 18.1964 21.2843 18.9595 20.7217 19.5221C20.1591 20.0847 19.396 20.4008 18.6004 20.4008H5.40039C4.60474 20.4008 3.84168 20.0847 3.27907 19.5221C2.71646 18.9595 2.40039 18.1964 2.40039 17.4008V8.84838L11.6956 14.318C11.7879 14.3724 11.8932 14.4012 12.0004 14.4012C12.1076 14.4012 12.2128 14.3724 12.3052 14.318L21.6004 8.84838ZM18.6004 4.80078C19.3386 4.80067 20.0509 5.07271 20.601 5.56487C21.1512 6.05703 21.5006 6.73475 21.5824 7.46838L12.0004 13.1048L2.41839 7.46838C2.50018 6.73475 2.84958 6.05703 3.39974 5.56487C3.94991 5.07271 4.66222 4.80067 5.40039 4.80078H18.6004Z" fill="white"/>
</svg>
