<svg width="21" height="19" viewBox="0 0 21 19" fill="none" xmlns="http://www.w3.org/2000/svg">
<path d="M20.802 5.26404C20.232 2.38804 18.196 0.534058 15.573 0.534058C13.8904 0.614668 12.2769 1.22744 10.965 2.28406C9.6509 1.20299 8.02191 0.57669 6.32202 0.499023C3.69902 0.499023 1.64502 2.37003 1.09302 5.28003C0.265021 9.59403 2.922 15.328 10.706 18.447C10.7881 18.4812 10.8761 18.4988 10.965 18.4988C11.0539 18.4988 11.1419 18.4812 11.224 18.447C18.99 15.26 21.63 9.54304 20.802 5.26404ZM10.965 17.027C4.13103 14.186 1.765 9.22702 2.474 5.54102C2.888 3.34102 4.407 1.90295 6.323 1.90295C7.88789 2.01178 9.36815 2.6539 10.517 3.72205C10.6415 3.82271 10.7968 3.87756 10.957 3.87756C11.1171 3.87756 11.2724 3.82271 11.397 3.72205C12.5514 2.68075 14.0227 2.05824 15.574 1.95496C17.49 1.95496 18.991 3.35502 19.423 5.54102C20.129 9.20002 17.782 14.134 10.965 17.027Z" fill="white"/>
</svg>
