<svg width="21" height="20" viewBox="0 0 21 20" fill="none" xmlns="http://www.w3.org/2000/svg">
<path d="M20.8472 5.29453C20.2486 2.09893 18.1108 0.0389274 15.3566 0.0389274C13.5898 0.128495 11.8956 0.809365 10.518 1.9834C9.13817 0.782192 7.42769 0.0862971 5.64276 0C2.88853 0 0.731766 2.07892 0.15215 5.3123C-0.717274 10.1057 2.07263 16.4769 10.2461 19.9425C10.3322 19.9804 10.4247 20 10.518 20C10.6114 20 10.7038 19.9804 10.79 19.9425C18.9445 16.4013 21.7166 10.049 20.8472 5.29453ZM10.518 18.3646C3.34215 15.2079 0.85775 9.6979 1.60222 5.60229C2.03693 3.15781 3.63193 1.55994 5.64378 1.55994C7.28696 1.68087 8.84128 2.39434 10.0476 3.58118C10.1784 3.69303 10.3414 3.75398 10.5096 3.75398C10.6777 3.75398 10.8408 3.69303 10.9716 3.58118C12.1838 2.42417 13.7287 1.73249 15.3576 1.61772C17.3694 1.61772 18.9455 3.17337 19.3991 5.60229C20.1405 9.6679 17.6761 15.1502 10.518 18.3646Z" fill="white"/>
</svg>
