<svg width="15" height="20" viewBox="0 0 15 20" fill="none" xmlns="http://www.w3.org/2000/svg">
<path d="M6.99409 19.1411L1.55708 12.5862C1.0901 12.0417 0.72282 11.4191 0.472087 10.7471C0.0491832 9.58369 -0.0924494 8.33687 0.0587565 7.10828C0.209962 5.87968 0.649711 4.70422 1.34208 3.6781C2.0135 2.66256 2.92618 1.82932 3.99845 1.25281C5.07073 0.676298 6.26915 0.374512 7.48658 0.374512C8.70401 0.374512 9.90247 0.676298 10.9747 1.25281C12.047 1.82932 12.9597 2.66256 13.6311 3.6781C14.3238 4.70486 14.7635 5.88101 14.9144 7.11035C15.0653 8.3397 14.923 9.58731 14.4991 10.7511C14.2486 11.4226 13.8813 12.0446 13.4141 12.5881L7.97907 19.1411C7.91943 19.2143 7.84425 19.2733 7.75898 19.3138C7.67371 19.3544 7.5805 19.3754 7.48609 19.3754C7.39169 19.3754 7.29845 19.3544 7.21318 19.3138C7.1279 19.2733 7.05272 19.2143 6.99308 19.1411H6.99409ZM2.40708 4.43311C1.83356 5.28162 1.46906 6.25384 1.34339 7.27026C1.21773 8.28669 1.33448 9.31848 1.68409 10.2811C1.88207 10.8079 2.17188 11.2954 2.54008 11.7211L7.4871 17.6852L12.4311 11.7241C12.7982 11.2995 13.0873 10.8134 13.2851 10.2881C13.6355 9.32479 13.7528 8.29225 13.6273 7.2749C13.5018 6.25756 13.1371 5.28444 12.5631 4.43518C12.0078 3.59602 11.2532 2.90747 10.3668 2.43115C9.48045 1.95483 8.48985 1.70557 7.48359 1.70557C6.47733 1.70557 5.48674 1.95483 4.60035 2.43115C3.71397 2.90747 2.95941 3.59602 2.40409 4.43518L2.40708 4.43311ZM3.8621 8.03308C3.88078 7.32023 4.10924 6.62873 4.5189 6.04504C4.92856 5.46136 5.50121 5.01149 6.16526 4.75159C6.82931 4.49168 7.55527 4.43333 8.2523 4.58386C8.94933 4.7344 9.58648 5.08712 10.0841 5.5979C10.5817 6.10868 10.9177 6.75484 11.0499 7.45557C11.1822 8.15629 11.1049 8.88045 10.8277 9.53748C10.5506 10.1945 10.0858 10.7553 9.49165 11.1495C8.89746 11.5438 8.2002 11.7541 7.4871 11.7542C6.51319 11.7415 5.58403 11.3431 4.90351 10.6462C4.223 9.94941 3.84669 9.01105 3.8571 8.03711L3.8621 8.03308ZM5.15608 8.03308C5.16768 8.49142 5.31419 8.93615 5.57728 9.31165C5.84037 9.68714 6.20835 9.97675 6.63517 10.1442C7.062 10.3116 7.52872 10.3494 7.97694 10.2529C8.42515 10.1564 8.83495 9.92991 9.15507 9.60168C9.47519 9.27346 9.69142 8.85808 9.77668 8.40759C9.86195 7.95711 9.81247 7.49148 9.63444 7.06897C9.45641 6.64646 9.15775 6.28585 8.7758 6.03223C8.39385 5.77861 7.94559 5.64321 7.4871 5.64307C6.8602 5.65097 6.26208 5.9076 5.82423 6.35632C5.38638 6.80505 5.14461 7.40922 5.15208 8.03613L5.15608 8.03308Z" fill="#67747C"/>
</svg>
