<svg width="18" height="22" viewBox="0 0 18 22" fill="none" xmlns="http://www.w3.org/2000/svg">
<path d="M8.40917 21.7288L1.87209 14.1387C1.31051 13.5089 0.868925 12.7884 0.567776 12.0105C0.0592056 10.6634 -0.111157 9.21958 0.0706136 7.79695C0.252384 6.37432 0.781121 5.01333 1.61361 3.82526C2.42073 2.64935 3.51787 1.68446 4.80687 1.01692C6.09586 0.349371 7.53654 0 9.00003 0C10.4635 0 11.9042 0.349371 13.1932 1.01692C14.4822 1.68446 15.5793 2.64935 16.3864 3.82526C17.2195 5.01396 17.7484 6.37587 17.9298 7.79942C18.1112 9.22298 17.9399 10.6677 17.4299 12.0151C17.1293 12.7924 16.6881 13.5122 16.1267 14.1411L9.59323 21.7288C9.52153 21.8136 9.43116 21.8819 9.32866 21.9288C9.22615 21.9757 9.1141 22 9.00061 22C8.88713 22 8.77508 21.9757 8.67257 21.9288C8.57006 21.8819 8.48087 21.8136 8.40917 21.7288ZM2.89511 4.70061C2.20559 5.68287 1.76731 6.80846 1.61625 7.98522C1.46518 9.16198 1.60559 10.3565 2.02595 11.471C2.26374 12.0808 2.61169 12.6453 3.05374 13.1383L9.00061 20.0429L14.9451 13.1418C15.386 12.6504 15.7335 12.0879 15.9717 11.4802C16.3927 10.365 16.5336 9.1695 16.3827 7.99172C16.2318 6.81395 15.7935 5.68731 15.1037 4.70408C14.4365 3.73192 13.5296 2.93422 12.464 2.38232C11.3984 1.83043 10.2075 1.54159 8.99761 1.54159C7.78775 1.54159 6.59677 1.83043 5.53119 2.38232C4.4656 2.93422 3.55861 3.73192 2.89144 4.70408L2.89511 4.70061ZM4.64413 8.86913C4.66635 8.0436 4.94086 7.2427 5.43324 6.56667C5.92561 5.89064 6.61403 5.36948 7.41235 5.0684C8.21066 4.76731 9.0834 4.69963 9.92142 4.87391C10.7594 5.04818 11.5255 5.45663 12.1237 6.04814C12.722 6.63966 13.1259 7.38802 13.2848 8.1995C13.4438 9.01099 13.3508 9.84955 13.0175 10.6104C12.6841 11.3712 12.1253 12.0205 11.4108 12.4769C10.6963 12.9334 9.85794 13.1767 9.00061 13.1765C7.83028 13.1613 6.71397 12.6996 5.89643 11.8928C5.07889 11.086 4.62684 9.99994 4.63936 8.87259L4.64413 8.86913ZM6.19967 8.86913C6.21386 9.39984 6.39021 9.91473 6.70667 10.3494C7.02312 10.784 7.4656 11.1192 7.97877 11.3128C8.49195 11.5064 9.05301 11.55 9.59176 11.438C10.1305 11.3261 10.623 11.0636 11.0077 10.6834C11.3923 10.3032 11.6521 9.82211 11.7544 9.30045C11.8566 8.77879 11.7969 8.23965 11.5827 7.75052C11.3685 7.26138 11.0092 6.84397 10.5499 6.55049C10.0906 6.257 9.55176 6.10053 9.00061 6.10058C8.62737 6.10496 8.25866 6.18014 7.9156 6.32186C7.57255 6.46357 7.2619 6.66902 7.00132 6.92647C6.74075 7.18391 6.53541 7.48825 6.39704 7.82218C6.25867 8.15611 6.18998 8.51308 6.1949 8.87259L6.19967 8.86913Z" fill="white"/>
</svg>
