<svg width="24" height="24" viewBox="0 0 24 24" fill="none" xmlns="http://www.w3.org/2000/svg">
<circle cx="12" cy="12" r="12" fill="white"/>
<path d="M12 9.44444C11.4946 9.44444 11.0005 9.59433 10.5802 9.87513C10.16 10.1559 9.8324 10.5551 9.63897 11.022C9.44555 11.489 9.39494 12.0028 9.49355 12.4986C9.59216 12.9943 9.83555 13.4497 10.1929 13.8071C10.5504 14.1645 11.0057 14.4078 11.5014 14.5065C11.9972 14.6051 12.511 14.5544 12.978 14.361C13.4449 14.1676 13.8441 13.84 14.1249 13.4198C14.4057 12.9995 14.5556 12.5054 14.5556 12C14.5556 11.3222 14.2863 10.6722 13.8071 10.1929C13.3278 9.71369 12.6778 9.44444 12 9.44444ZM12 13.2222C11.7583 13.2222 11.522 13.1505 11.321 13.0162C11.12 12.8819 10.9633 12.6911 10.8708 12.4677C10.7783 12.2444 10.7541 11.9986 10.8013 11.7616C10.8484 11.5245 10.9648 11.3067 11.1358 11.1358C11.3067 10.9648 11.5245 10.8484 11.7616 10.8013C11.9986 10.7541 12.2444 10.7783 12.4677 10.8708C12.6911 10.9633 12.8819 11.12 13.0162 11.321C13.1505 11.522 13.2222 11.7583 13.2222 12C13.2208 12.3237 13.0915 12.6337 12.8626 12.8626C12.6337 13.0915 12.3237 13.2208 12 13.2222ZM14.6667 6H9.33333C8.44928 6 7.60143 6.35119 6.97631 6.97631C6.35119 7.60143 6 8.44928 6 9.33333V14.6667C6 15.5507 6.35119 16.3986 6.97631 17.0237C7.60143 17.6488 8.44928 18 9.33333 18H14.6667C15.5507 18 16.3986 17.6488 17.0237 17.0237C17.6488 16.3986 18 15.5507 18 14.6667V9.33333C18 8.44928 17.6488 7.60143 17.0237 6.97631C16.3986 6.35119 15.5507 6 14.6667 6ZM16.6667 14.6667C16.6667 15.1971 16.456 15.7058 16.0809 16.0809C15.7058 16.456 15.1971 16.6667 14.6667 16.6667H9.33333C8.8029 16.6667 8.29419 16.456 7.91912 16.0809C7.54405 15.7058 7.33333 15.1971 7.33333 14.6667V9.33333C7.33333 8.8029 7.54405 8.29419 7.91912 7.91912C8.29419 7.54405 8.8029 7.33333 9.33333 7.33333H14.6667C15.1971 7.33333 15.7058 7.54405 16.0809 7.91912C16.456 8.29419 16.6667 8.8029 16.6667 9.33333V14.6667ZM15.7778 9.11111C15.7778 9.28692 15.7256 9.45877 15.628 9.60495C15.5303 9.75113 15.3915 9.86506 15.2291 9.93234C15.0666 9.99962 14.8879 10.0172 14.7155 9.98292C14.543 9.94862 14.3847 9.86396 14.2604 9.73965C14.136 9.61534 14.0514 9.45695 14.0171 9.28452C13.9828 9.1121 14.0004 8.93337 14.0677 8.77095C14.1349 8.60853 14.2489 8.4697 14.395 8.37203C14.5412 8.27435 14.7131 8.22222 14.8889 8.22222C15.1246 8.22222 15.3507 8.31587 15.5174 8.48257C15.6841 8.64927 15.7778 8.87536 15.7778 9.11111Z" fill="#465B5F"/>
</svg>
