<svg width="32" height="32" viewBox="0 0 32 32" fill="none" xmlns="http://www.w3.org/2000/svg">
<path d="M8.52748 14.3278C7.92805 14.3278 7.46856 14.5204 7.46856 14.5204L7.34164 15.2739C7.34164 15.2739 7.72068 15.1198 8.29462 15.1198C8.6204 15.1198 8.85836 15.1561 8.85836 15.4207C8.85836 15.5816 8.82946 15.6411 8.82946 15.6411C8.82946 15.6411 8.5728 15.6201 8.45382 15.6201C7.69745 15.6201 6.90312 15.9419 6.90312 16.9159C6.90312 17.683 7.4238 17.8581 7.74731 17.8581C8.36431 17.8581 8.6306 17.4581 8.64419 17.4569L8.6153 17.7912H9.38527L9.72861 15.3833C9.72805 14.3606 8.83683 14.3278 8.52748 14.3278ZM8.09575 17.1249C7.82436 17.1249 7.75354 16.9181 7.75354 16.7946C7.75354 16.5555 7.88329 16.2677 8.52408 16.2677C8.67365 16.2683 8.68952 16.2836 8.71445 16.2881C8.73144 16.4354 8.62266 17.1249 8.09575 17.1249ZM10.8272 15.4201C10.8272 15.8569 11.8691 15.6422 11.8691 16.7289C11.8691 17.8909 10.7433 17.8399 10.5467 17.8399C9.81303 17.8399 9.5864 17.7391 9.56544 17.7334L9.68215 16.968C9.68329 16.9623 10.0504 17.1017 10.4589 17.1017C10.6946 17.1017 11.0006 17.0785 11.0006 16.7974C11.0006 16.3748 9.90595 16.4768 9.90595 15.4751C9.90595 14.5918 10.562 14.3334 11.2091 14.3334C11.7088 14.3334 12.0159 14.402 12.0159 14.402L11.9054 15.1736C11.9054 15.1736 11.4312 15.1346 11.3082 15.1346C10.9966 15.1351 10.8272 15.2031 10.8272 15.4201ZM12.9026 16.7504C12.8833 16.87 12.9167 17.0326 13.221 17.0326C13.2986 17.0326 13.3864 17.0065 13.4465 17.0065L13.3371 17.7498C13.2493 17.7742 13.0006 17.8626 12.6816 17.8649C12.2742 17.8688 11.9847 17.6399 11.9847 17.1238C11.9847 16.777 12.4816 13.9198 12.5008 13.9011H13.3751L13.2861 14.411H13.7224L13.6108 15.2337H13.1479L12.9026 16.7504ZM16.2759 16.3895C16.2759 16.3895 16.3909 15.8229 16.3909 15.5923C16.3909 15.0161 16.1042 14.3136 15.1445 14.3136C14.2652 14.3142 13.6142 15.2615 13.6142 16.3323C13.6142 17.568 14.4295 17.8615 15.1246 17.8615C15.766 17.8615 16.0482 17.7176 16.0482 17.7176L16.2023 16.8745C16.2023 16.8745 15.7144 17.0898 15.2737 17.0898C14.3348 17.0898 14.4992 16.3895 14.4992 16.3895H16.2759ZM15.1473 15.0972C15.6408 15.0972 15.5496 15.6518 15.5496 15.696H14.579C14.579 15.6394 14.6708 15.0972 15.1473 15.0972ZM7.21643 13.6309L6.52691 17.7952H5.63173L6.12975 14.6558L5.00623 17.7952H4.40397L4.32578 14.6558L3.79377 17.7952H2.95014L3.64929 13.6309H4.92521L4.96997 16.1861L5.83173 13.6309H7.21643ZM18.2776 13.0824H13.7371C13.7819 12.9974 13.9405 12.6552 14.1796 12.2025H17.9229C18.0572 12.487 18.1751 12.7804 18.2776 13.0824ZM17.4499 11.3396H14.6663C14.8448 11.045 15.0419 10.7436 15.2516 10.4603H16.8119C17.0431 10.7391 17.2567 11.0326 17.4499 11.3396ZM15.9972 21.794C15.6929 21.5193 15.4176 21.215 15.1575 20.8966H16.8533C16.5977 21.2099 16.3184 21.5034 16.0193 21.7759H16.0176C16.0176 21.7765 16.0181 21.7765 16.0181 21.7765C16.0113 21.7821 16.004 21.7878 15.9972 21.794ZM17.4601 20.0501H14.5462C14.3688 19.7668 14.2034 19.4762 14.0612 19.1708H17.9382C17.796 19.4745 17.6368 19.768 17.4601 20.0501ZM18.4992 14.3799C18.383 14.6167 18.2805 14.8337 18.1739 15.394C17.5671 15.1793 17.5195 16.3544 17.2652 17.802H16.3677L16.9133 14.4127H17.7275L17.6487 14.904C17.6487 14.904 17.9388 14.3697 18.3303 14.3697C18.4448 14.3685 18.4992 14.3799 18.4992 14.3799ZM20.1178 17.0105C20.4125 17.0105 20.8408 16.7957 20.8408 16.7957L20.6844 17.7498C20.6844 17.7498 20.2142 17.8694 19.9195 17.8694C18.8759 17.8694 18.3462 17.1493 18.3462 16.0586C18.3462 14.4139 19.328 13.538 20.3371 13.538C20.7926 13.538 21.3218 13.7521 21.3218 13.7521L21.179 14.6785C21.179 14.6785 20.8215 14.4286 20.3768 14.4286C19.7819 14.4286 19.2482 14.9963 19.2482 16.0286C19.2482 16.5368 19.4969 17.0105 20.1178 17.0105ZM28.6538 17.313C28.6113 17.3357 28.5785 17.3685 28.5547 17.4116C28.5309 17.4541 28.519 17.4983 28.519 17.5442C28.519 17.5901 28.5309 17.6337 28.5547 17.6756C28.5779 17.7176 28.6108 17.751 28.6527 17.7748C28.6952 17.798 28.7388 17.8099 28.7841 17.8099C28.8306 17.8099 28.8748 17.798 28.9161 17.7748C28.9581 17.751 28.9909 17.7176 29.0142 17.6756C29.0385 17.6337 29.0493 17.5901 29.0493 17.5442C29.0493 17.4977 29.038 17.4535 29.0142 17.4116C28.9909 17.3685 28.9569 17.3357 28.9144 17.313C28.8725 17.2898 28.8295 17.2785 28.7841 17.2785C28.7405 17.2785 28.6969 17.2898 28.6538 17.313ZM28.9762 17.4326C28.996 17.4683 29.0068 17.5051 29.0068 17.543C29.0068 17.581 28.9972 17.6184 28.9773 17.653C28.9581 17.6881 28.9309 17.7147 28.8952 17.7357C28.8601 17.7549 28.8238 17.7651 28.7858 17.7651C28.7473 17.7651 28.7105 17.7549 28.6759 17.7357C28.6402 17.7159 28.6136 17.6887 28.5932 17.653C28.5728 17.6173 28.5637 17.581 28.5637 17.543C28.5637 17.5051 28.5734 17.4683 28.5943 17.4326C28.6142 17.3974 28.6408 17.3702 28.6771 17.3504C28.7133 17.3306 28.749 17.3221 28.7858 17.3221C28.8227 17.3221 28.8589 17.3317 28.8935 17.3504C28.9297 17.3702 28.9564 17.3969 28.9762 17.4326ZM25.4261 16.4263C25.4261 17.143 25.7824 17.845 26.5099 17.845C27.034 17.845 27.3241 17.4796 27.3241 17.4796L27.2861 17.7918H28.1365L28.8051 13.6337L27.928 13.6354L27.7394 14.8054C27.7394 14.8054 27.4108 14.3504 26.8952 14.3504C26.0935 14.351 25.4261 15.317 25.4261 16.4263ZM27.5212 15.917C27.5212 16.3787 27.2929 16.9957 26.8193 16.9957C26.5042 16.9957 26.3569 16.7317 26.3569 16.317C26.3569 15.6388 26.6612 15.1918 27.0459 15.1918C27.3598 15.1923 27.5212 15.4082 27.5212 15.917ZM28.9439 20.296C28.9377 20.2904 28.9297 20.2841 28.9195 20.2813C28.9439 20.2796 28.9643 20.2705 28.979 20.2552C28.9932 20.2399 29.0011 20.2218 29.0011 20.2008C29.0011 20.1861 28.9966 20.1719 28.9881 20.1589C28.9796 20.1459 28.9671 20.1363 28.9518 20.1312C28.9377 20.1255 28.9133 20.1227 28.8799 20.1227H28.7813V20.4088H28.8278V20.287H28.8544C28.8703 20.287 28.8833 20.2904 28.8907 20.2972C28.9025 20.3068 28.9195 20.3289 28.9394 20.3634L28.9643 20.4088H29.0215L28.9864 20.3527C28.9694 20.3266 28.9552 20.3079 28.9439 20.296ZM28.8833 20.2484H28.8266V20.1623H28.8799C28.902 20.1623 28.9167 20.164 28.9252 20.1674C28.9343 20.1708 28.9399 20.1759 28.945 20.1821C28.9496 20.1889 28.9518 20.1963 28.9518 20.2042C28.9518 20.2173 28.9473 20.2286 28.9377 20.2365C28.928 20.2445 28.9093 20.2484 28.8833 20.2484ZM31.1762 5.33398H0.823796C0.368272 5.33398 0 5.70282 0 6.15778V25.2484C0 25.7034 0.368272 26.0722 0.823796 26.0722H31.1762C31.6317 26.0722 32 25.7034 32 25.2484V6.15778C32 5.70282 31.6317 5.33398 31.1762 5.33398ZM29.1269 20.3935C29.1031 20.4365 29.0708 20.4694 29.0289 20.4926C28.987 20.5159 28.9428 20.5278 28.8975 20.5278C28.851 20.5278 28.8068 20.5159 28.7649 20.4926C28.7235 20.4694 28.6907 20.4365 28.6663 20.3935C28.6431 20.3521 28.6312 20.3079 28.6312 20.262C28.6312 20.2161 28.6431 20.1725 28.6669 20.1295C28.6901 20.0864 28.7241 20.0541 28.766 20.0309C28.8085 20.0088 28.8516 19.9969 28.8969 19.9969C28.9416 19.9969 28.9847 20.0088 29.0266 20.0309C29.0691 20.0541 29.1026 20.0864 29.1258 20.1295C29.1496 20.1725 29.1609 20.2167 29.1609 20.262C29.1609 20.3074 29.1507 20.3527 29.1269 20.3935ZM29.7207 15.7034C29.7218 20.2388 26.047 23.917 21.511 23.9181C19.3898 23.9187 17.4555 23.1147 15.9983 21.794C14.5411 23.1125 12.6108 23.9159 10.4929 23.9159C5.95977 23.9159 2.28045 20.2371 2.28045 15.7034C2.28045 11.1878 5.93088 7.51982 10.4402 7.49036C10.4578 7.49036 10.4754 7.49036 10.4929 7.49036C12.6108 7.49036 14.5416 8.29376 15.9989 9.61217C17.4555 8.29319 19.3875 7.48922 21.5071 7.48866C26.0431 7.48696 29.7207 11.1634 29.7218 15.6994C29.7207 15.7006 29.7207 15.7017 29.7207 15.7034ZM28.6686 17.4048V17.6904H28.715V17.5691H28.7416C28.7581 17.5691 28.7711 17.5725 28.779 17.5787C28.7909 17.5889 28.8068 17.6105 28.8278 17.6462L28.8521 17.6909H28.9093L28.8742 17.6348C28.8578 17.6082 28.8431 17.5895 28.8323 17.5782C28.8255 17.5719 28.8181 17.5668 28.8079 17.5634C28.8323 17.5617 28.8521 17.5527 28.8669 17.5374C28.881 17.5227 28.8895 17.5034 28.8895 17.483C28.8895 17.4688 28.885 17.4541 28.8759 17.4411C28.8669 17.4286 28.855 17.419 28.8408 17.4133C28.8266 17.4076 28.8017 17.4048 28.7683 17.4048H28.6686ZM28.8334 17.4632C28.8385 17.4705 28.8408 17.4768 28.8408 17.4864C28.8408 17.4989 28.8357 17.5096 28.8272 17.5176C28.8164 17.5261 28.7989 17.5295 28.7722 17.5295H28.7161V17.4433H28.7683C28.7909 17.4433 28.8057 17.445 28.8147 17.4479C28.8221 17.4518 28.8289 17.4558 28.8334 17.4632ZM22.702 14.3278C22.1014 14.3278 21.6425 14.5204 21.6425 14.5204L21.515 15.2739C21.515 15.2739 21.8946 15.1198 22.468 15.1198C22.7938 15.1198 23.0323 15.1561 23.0323 15.4207C23.0323 15.5816 23.0023 15.6411 23.0023 15.6411C23.0023 15.6411 22.7462 15.6201 22.6261 15.6201C21.8703 15.6201 21.0765 15.9419 21.0765 16.9159C21.0765 17.683 21.5977 17.8581 21.9207 17.8581C22.5371 17.8581 22.8034 17.4581 22.8176 17.4569L22.7887 17.7912H23.5581L23.9014 15.3833C23.9031 14.3606 23.0113 14.3278 22.702 14.3278ZM22.2714 17.1249C21.9994 17.1249 21.9292 16.9181 21.9292 16.7946C21.9292 16.5555 22.0589 16.2677 22.6997 16.2677C22.8487 16.2683 22.8646 16.2836 22.8901 16.2881C22.9065 16.4354 22.7972 17.1249 22.2714 17.1249ZM25.515 15.3935C24.9082 15.1787 24.8618 16.3532 24.6062 17.8014H23.7088L24.2544 14.4122H25.0691L24.9909 14.9034C24.9909 14.9034 25.2816 14.3691 25.6731 14.3691C25.787 14.3691 25.8414 14.3804 25.8414 14.3804C25.7252 14.6167 25.6221 14.8337 25.515 15.3935Z" fill="white"/>
</svg>
