<svg width="24" height="24" viewBox="0 0 24 24" fill="none" xmlns="http://www.w3.org/2000/svg">
<circle cx="12" cy="12" r="12" fill="white"/>
<path d="M17.8558 9.6213L19 8.37483H16.4625C15.1922 7.506 13.6581 7 11.9989 7C10.3419 7 8.81202 7.50709 7.54381 8.37483H5L6.14424 9.6213C5.44288 10.262 5.00319 11.1849 5.00319 12.2097C5.00319 14.1436 6.56912 15.7115 8.50056 15.7115C9.41807 15.7115 10.254 15.3572 10.878 14.7779L11.999 16L13.1199 14.779C13.7439 15.3582 14.5788 15.7115 15.4963 15.7115C17.4277 15.7115 18.9958 14.1436 18.9958 12.2097C18.9968 11.1839 18.5571 10.261 17.8558 9.6213ZM8.5016 14.5796C7.19418 14.5796 6.13473 13.5188 6.13473 12.2097C6.13473 10.9006 7.19421 9.83982 8.5016 9.83982C9.80899 9.83982 10.8685 10.9006 10.8685 12.2097C10.8685 13.5188 9.80899 14.5796 8.5016 14.5796ZM12 12.1407C12 10.5813 10.8674 9.24259 9.37249 8.6708C10.1809 8.33238 11.0677 8.14462 11.9989 8.14462C12.9302 8.14462 13.818 8.33238 14.6264 8.6708C13.1326 9.24365 12 10.5814 12 12.1407ZM15.4974 14.5796C14.19 14.5796 13.1305 13.5188 13.1305 12.2097C13.1305 10.9006 14.19 9.83982 15.4974 9.83982C16.8048 9.83982 17.8642 10.9006 17.8642 12.2097C17.8642 13.5188 16.8048 14.5796 15.4974 14.5796ZM15.4974 10.9664C14.8119 10.9664 14.2567 11.5223 14.2567 12.2086C14.2567 12.895 14.8119 13.4509 15.4974 13.4509C16.1828 13.4509 16.738 12.895 16.738 12.2086C16.738 11.5233 16.1828 10.9664 15.4974 10.9664ZM9.74224 12.2097C9.74224 12.896 9.18707 13.4519 8.5016 13.4519C7.81612 13.4519 7.26095 12.896 7.26095 12.2097C7.26095 11.5233 7.81612 10.9675 8.5016 10.9675C9.18707 10.9664 9.74224 11.5233 9.74224 12.2097Z" fill="#465B5F"/>
</svg>
