<svg width="76" height="77" viewBox="0 0 76 77" fill="none" xmlns="http://www.w3.org/2000/svg">
<path d="M11.7841 65.0174C8.22296 61.4607 5.41422 57.2235 3.52529 52.5584C1.63635 47.8933 0.705836 42.8957 0.789203 37.8633C0.87257 32.831 1.96809 27.8668 4.01052 23.2668C6.05294 18.6668 9.00042 14.525 12.6774 11.0882C16.3544 7.65141 20.6856 4.99001 25.4129 3.2625C30.1402 1.535 35.1669 0.776757 40.1934 1.03301C45.2199 1.28927 50.1433 2.55479 54.6704 4.75408C59.1975 6.95338 63.2357 10.0415 66.5441 13.8344C67.6351 13.6259 68.7586 13.6609 69.8345 13.9369C70.9104 14.213 71.9121 14.7232 72.768 15.4312C73.6238 16.1392 74.3127 17.0274 74.7855 18.0325C75.2583 19.0376 75.5034 20.1347 75.5031 21.2454C75.4169 23.0821 74.8269 24.8595 73.798 26.3834C76.5389 34.4015 76.4836 43.1116 73.6408 51.0942C70.7979 59.0768 65.3353 65.8613 58.1432 70.342C50.9511 74.8227 42.4534 76.7354 34.0351 75.7685C25.6167 74.8016 17.773 71.012 11.7841 65.0174ZM39.7951 47.7794C41.4847 48.141 42.9994 49.0708 44.0868 50.4136C45.1742 51.7565 45.7686 53.4314 45.771 55.1594C45.771 59.4914 41.4951 63.7464 39.7951 65.2674V72.6014C44.0701 71.9664 48.0951 68.6203 51.2621 63.0143C54.7621 56.8253 56.7621 48.6694 56.9621 39.9194H49.9621C49.7627 39.9245 49.5643 39.8897 49.3786 39.8169C49.1928 39.7442 49.0236 39.6351 48.8808 39.4959C48.7379 39.3567 48.6244 39.1903 48.5469 39.0065C48.4694 38.8228 48.4293 38.6254 48.4293 38.426C48.4293 38.2265 48.4694 38.029 48.5469 37.8453C48.6244 37.6615 48.7379 37.4951 48.8808 37.3559C49.0236 37.2167 49.1928 37.1076 49.3786 37.0348C49.5643 36.9621 49.7627 36.9273 49.9621 36.9324H56.9621C56.7461 28.2394 54.7441 20.1414 51.2681 13.9864C48.1021 8.38138 44.076 5.03644 39.801 4.40044L39.7951 47.7794ZM25.34 63.0154C28.506 68.6204 32.532 71.9664 36.807 72.6014V65.4014C35.225 64.0104 30.682 59.6264 30.682 55.1614C30.6844 53.4075 31.2969 51.709 32.4144 50.3572C33.532 49.0054 35.0849 48.0845 36.807 47.7524V39.9224H19.6431C19.8391 48.6694 21.844 56.8254 25.34 63.0154ZM53.864 64.4844C52.4314 67.1073 50.5816 69.4796 48.3871 71.5084C55.219 69.4095 61.2327 65.2454 65.6011 59.5888C69.9695 53.9322 72.4778 47.0609 72.781 39.9203H59.947C59.749 49.1813 57.607 57.8574 53.864 64.4844ZM28.215 71.5084C26.021 69.4793 24.1716 67.1071 22.739 64.4844C18.996 57.8564 16.855 49.1844 16.655 39.9194H3.82106C4.12442 47.0601 6.63278 53.9314 11.0011 59.5882C15.3694 65.245 21.3831 69.4092 28.215 71.5084ZM33.6701 55.1594C33.6701 57.7734 36.4201 60.9374 38.2261 62.6484C40.0261 60.9344 42.7841 57.7644 42.7841 55.1594C42.7663 53.9626 42.2785 52.8209 41.4259 51.9809C40.5733 51.1408 39.4245 50.6699 38.2276 50.6699C37.0307 50.6699 35.8818 51.1408 35.0292 51.9809C34.1766 52.8209 33.6878 53.9626 33.6701 55.1594ZM53.864 12.5174C57.587 19.1084 59.726 27.7274 59.944 36.9324H72.777C72.6638 34.3542 72.2613 31.7968 71.577 29.3084C70.7503 30.2312 69.8579 31.0931 68.907 31.8874C68.6395 32.1049 68.3054 32.2237 67.9606 32.2237C67.6158 32.2237 67.2815 32.1049 67.0141 31.8874C66.3391 31.3344 60.4141 26.3414 60.4141 21.2444C60.4146 20.0314 60.7077 18.8364 61.2686 17.7609C61.8295 16.6854 62.6416 15.761 63.636 15.0663C59.4914 10.5789 54.2284 7.27409 48.386 5.49041C50.5813 7.51991 52.4315 9.89327 53.864 12.5174ZM19.646 36.9324H36.807V4.40142C32.958 4.97242 29.307 7.74342 26.312 12.3804C27.4133 12.1399 28.5545 12.1493 29.6516 12.408C30.7488 12.6667 31.7739 13.168 32.6518 13.8752C33.5296 14.5823 34.2378 15.4773 34.7241 16.4942C35.2105 17.5111 35.4626 18.6242 35.4621 19.7514C35.4621 24.8514 29.5381 29.8423 28.8621 30.3943C28.5954 30.6132 28.261 30.733 27.916 30.733C27.571 30.733 27.2367 30.6132 26.97 30.3943C24.7371 28.5524 22.8666 26.3109 21.454 23.7844C20.3446 28.0823 19.7379 32.4946 19.646 36.9324ZM3.82704 36.9324H16.6581C16.8771 27.7274 19.0151 19.1084 22.7381 12.5174C24.1706 9.89474 26.02 7.52241 28.214 5.49334C21.4066 7.585 15.411 11.7273 11.0462 17.3543C6.68132 22.9813 4.16018 29.8188 3.82704 36.9324ZM63.401 21.2444C63.401 23.8584 66.151 27.0234 67.957 28.7344C69.762 27.0194 72.515 23.8494 72.515 21.2444C72.515 20.0358 72.0349 18.8768 71.1803 18.0221C70.3257 17.1675 69.1666 16.6874 67.958 16.6874C66.7494 16.6874 65.5903 17.1675 64.7357 18.0221C63.8811 18.8768 63.401 20.0358 63.401 21.2444ZM23.3621 19.7504C23.3621 22.3644 26.112 25.5294 27.917 27.2404C29.722 25.5254 32.475 22.3554 32.475 19.7504C32.4573 18.5537 31.9694 17.4119 31.1168 16.5718C30.2643 15.7318 29.1155 15.2609 27.9186 15.2609C26.7217 15.2609 25.5728 15.7318 24.7202 16.5718C23.8677 17.4119 23.3798 18.5537 23.3621 19.7504ZM38.2221 56.8804C38.0264 56.8806 37.8325 56.8421 37.6516 56.7673C37.4708 56.6924 37.3065 56.5827 37.1681 56.4443C37.0297 56.3059 36.9201 56.1416 36.8452 55.9607C36.7704 55.7799 36.7319 55.5861 36.7321 55.3904V54.7804C36.7321 54.3853 36.889 54.0063 37.1685 53.7269C37.4479 53.4474 37.8269 53.2903 38.2221 53.2903H38.2321C38.6272 53.2903 39.0062 53.4474 39.2857 53.7269C39.5651 54.0063 39.7221 54.3853 39.7221 54.7804V55.3904C39.7221 55.7856 39.5651 56.1646 39.2857 56.444C39.0062 56.7235 38.6272 56.8804 38.2321 56.8804H38.2221ZM43.6801 39.9194C43.4807 39.9245 43.2823 39.8897 43.0966 39.8169C42.9109 39.7442 42.7416 39.6351 42.5988 39.4959C42.4559 39.3567 42.3423 39.1903 42.2648 39.0065C42.1873 38.8228 42.1474 38.6254 42.1474 38.426C42.1474 38.2265 42.1873 38.029 42.2648 37.8453C42.3423 37.6615 42.4559 37.4951 42.5988 37.3559C42.7416 37.2167 42.9109 37.1076 43.0966 37.0348C43.2823 36.9621 43.4807 36.9273 43.6801 36.9324H44.5801C44.7795 36.9273 44.9779 36.9621 45.1636 37.0348C45.3493 37.1076 45.5186 37.2167 45.6614 37.3559C45.8042 37.4951 45.9177 37.6615 45.9953 37.8453C46.0728 38.029 46.1127 38.2265 46.1127 38.426C46.1127 38.6254 46.0728 38.8228 45.9953 39.0065C45.9177 39.1903 45.8042 39.3567 45.6614 39.4959C45.5186 39.6351 45.3493 39.7442 45.1636 39.8169C44.9779 39.8897 44.7795 39.9245 44.5801 39.9194H43.6801ZM67.9511 22.9704C67.7554 22.9705 67.5615 22.9321 67.3806 22.8572C67.1998 22.7824 67.0355 22.6726 66.8971 22.5342C66.7587 22.3958 66.6491 22.2315 66.5742 22.0507C66.4994 21.8699 66.4609 21.6761 66.4611 21.4804V20.8704C66.4611 20.6747 66.4996 20.481 66.5745 20.3002C66.6494 20.1194 66.7591 19.9552 66.8975 19.8168C67.0358 19.6785 67.2001 19.5687 67.3809 19.4938C67.5617 19.4189 67.7554 19.3804 67.9511 19.3804H67.9621C68.3572 19.3804 68.7362 19.5374 69.0156 19.8168C69.2951 20.0963 69.452 20.4752 69.452 20.8704V21.4804C69.4522 21.6761 69.4137 21.8699 69.3389 22.0507C69.264 22.2315 69.1543 22.3958 69.0159 22.5342C68.8775 22.6726 68.7132 22.7824 68.5324 22.8572C68.3515 22.9321 68.1578 22.9705 67.9621 22.9704H67.9511ZM27.912 21.4704C27.5169 21.4701 27.1382 21.3131 26.8588 21.0337C26.5794 20.7544 26.4223 20.3755 26.422 19.9804V19.3704C26.422 18.9752 26.579 18.5963 26.8584 18.3168C27.1378 18.0374 27.5168 17.8804 27.912 17.8804H27.922C28.1177 17.8803 28.3116 17.9188 28.4924 17.9936C28.6733 18.0684 28.8376 18.1781 28.976 18.3165C29.1144 18.4548 29.224 18.6193 29.2988 18.8001C29.3737 18.9809 29.4121 19.1747 29.412 19.3704V19.9804C29.412 20.3756 29.255 20.7546 28.9756 21.034C28.6962 21.3134 28.3172 21.4704 27.922 21.4704H27.912Z" fill="#297CBB"/>
</svg>
