<svg width="101" height="20" viewBox="0 0 101 20" fill="none" xmlns="http://www.w3.org/2000/svg">
<g clip-path="url(#clip0_6315_362)">
<path d="M9.60785 14.3917L14.5559 17.5001L13.2428 11.6417L17.6144 7.70008L11.8577 7.19175L9.60785 1.66675L7.35802 7.19175L1.60132 7.70008L5.97289 11.6417L4.65982 17.5001L9.60785 14.3917Z" fill="#FFF500"/>
</g>
<path d="M28.8236 14.8589L34.1675 18L32.7493 12.08L37.4706 8.09684L31.2534 7.58316L28.8236 2L26.3937 7.58316L20.1765 8.09684L24.8978 12.08L23.4797 18L28.8236 14.8589Z" fill="#FFF500"/>
<g clip-path="url(#clip1_6315_362)">
<path d="M48.0393 14.3917L52.9873 17.5001L51.6742 11.6417L56.0458 7.70008L50.2891 7.19175L48.0393 1.66675L45.7894 7.19175L40.0327 7.70008L44.4043 11.6417L43.0912 17.5001L48.0393 14.3917Z" fill="#FFF500"/>
</g>
<g clip-path="url(#clip2_6315_362)">
<path d="M68.2158 14.3917L73.1638 17.5001L71.8507 11.6417L76.2223 7.70008L70.4656 7.19175L68.2158 1.66675L65.9659 7.19175L60.2092 7.70008L64.5808 11.6417L63.2677 17.5001L68.2158 14.3917Z" fill="#FFF500"/>
</g>
<g clip-path="url(#clip3_6315_362)">
<path d="M90.6079 14.3917L95.5559 17.5001L94.2428 11.6417L98.6144 7.70008L92.8577 7.19175L90.6079 1.66675L88.358 7.19175L82.6013 7.70008L86.9729 11.6417L85.6598 17.5001L90.6079 14.3917Z" fill="#FFF500"/>
</g>
<defs>
<clipPath id="clip0_6315_362">
<rect width="19.2157" height="20" fill="white"/>
</clipPath>
<clipPath id="clip1_6315_362">
<rect width="19.2157" height="20" fill="white" transform="translate(38.4314)"/>
</clipPath>
<clipPath id="clip2_6315_362">
<rect width="19.2157" height="20" fill="white" transform="translate(58.6079)"/>
</clipPath>
<clipPath id="clip3_6315_362">
<rect width="19.2157" height="20" fill="white" transform="translate(81)"/>
</clipPath>
</defs>
</svg>
