<svg width="15" height="16" viewBox="0 0 15 16" fill="none" xmlns="http://www.w3.org/2000/svg">
<path d="M0 7.87545C0 6.39209 0.439866 4.94207 1.26398 3.7087C2.08809 2.47533 3.25944 1.5139 4.62988 0.946247C6.00033 0.37859 7.50831 0.2301 8.96317 0.519489C10.418 0.808878 11.7544 1.52333 12.8033 2.57222C13.8522 3.62112 14.5665 4.95745 14.8559 6.41231C15.1453 7.86717 14.9968 9.37512 14.4291 10.7456C13.8615 12.116 12.9001 13.2874 11.6668 14.1115C10.4334 14.9356 8.98336 15.3754 7.5 15.3754C5.51266 15.3696 3.60839 14.5776 2.20312 13.1723C0.797858 11.7671 0.00580403 9.86279 0 7.87545ZM1.5 7.87545C1.5 9.06213 1.85188 10.2222 2.51117 11.2089C3.17046 12.1956 4.10753 12.9645 5.20389 13.4187C6.30024 13.8728 7.50665 13.9917 8.67053 13.7602C9.83442 13.5287 10.9035 12.9572 11.7426 12.1181C12.5818 11.279 13.1532 10.21 13.3847 9.0461C13.6162 7.88221 13.4974 6.67566 13.0433 5.5793C12.5891 4.48295 11.8201 3.54596 10.8334 2.88668C9.84674 2.22739 8.68669 1.87545 7.5 1.87545C5.91016 1.88019 4.38679 2.51395 3.2626 3.63814C2.13841 4.76233 1.50475 6.28561 1.5 7.87545ZM6.75 8.62545V4.12545H7.875V8.02535L11.25 10.0495L10.65 11.0253L6.75 8.62545Z" fill="#67747C"/>
</svg>
