<svg width="32" height="32" viewBox="0 0 32 32" fill="none" xmlns="http://www.w3.org/2000/svg">
<path d="M4.26615 5.33203C3.08748 5.33203 2.13281 6.2867 2.13281 7.46536V11.7841H5.35573C6.23573 11.7841 6.5724 12.6091 6.5724 12.6091L7.32031 16.4091C6.43498 13.5568 3.02241 12.1738 2.13281 11.857V24.532C2.13281 25.7107 3.08748 26.6654 4.26615 26.6654H27.7328C28.9115 26.6654 29.8661 25.7107 29.8661 24.532V7.46536C29.8661 6.2867 28.9115 5.33203 27.7328 5.33203H4.26615ZM19.5932 11.5945C20.6236 11.5945 21.6766 12.007 21.6766 12.007L21.3161 13.857C21.3161 13.857 20.4945 13.3174 19.7745 13.3174C18.6694 13.3174 18.2828 13.6779 18.2828 14.1633C18.2828 15.1137 21.3682 15.2675 21.3682 17.3987C21.3672 19.1694 19.1555 20.4029 17.5641 20.4029C15.9705 20.4029 15.1474 19.9174 15.1474 19.9174L15.5328 18.1424C15.5328 18.1424 16.3818 18.6299 17.6682 18.6299C18.9525 18.6299 19.1307 18.0906 19.1307 17.8591C19.1307 16.4991 16.0495 16.8618 16.0495 14.2154C16.0495 12.7519 17.2562 11.5945 19.5932 11.5945ZM9.6224 11.7633H12.0016L8.61823 20.1404H6.16823L4.3849 13.357C4.3849 13.357 6.264 14.3087 7.4224 16.9049C7.47253 17.2207 7.58906 17.7279 7.58906 17.7279L9.6224 11.7633ZM12.8786 11.7633H15.1286L13.7849 20.1404H11.562L12.8786 11.7633ZM24.9578 11.7633H27.2953L29.0161 20.1404H26.9932L26.7536 18.9466H23.9724L23.5161 20.1404H21.3078L24.9578 11.7633ZM25.7974 14.1799L24.5891 17.3445H26.4307L25.7974 14.1799Z" fill="white"/>
</svg>
