<svg width="25" height="25" viewBox="0 0 25 25" fill="none" xmlns="http://www.w3.org/2000/svg">
<path d="M18.3207 23.9269L16.8937 22.5029C15.3678 23.2484 13.692 23.636 11.9938 23.636C10.2955 23.636 8.61962 23.2484 7.09375 22.5029L5.66675 23.9269C5.58903 24.0026 5.48465 24.0446 5.37622 24.0439C5.26779 24.0433 5.16396 24 5.08716 23.9235C5.01036 23.8469 4.96672 23.7432 4.9657 23.6348C4.96468 23.5264 5.00644 23.4219 5.08179 23.3439L6.33472 22.0939C4.87917 21.2445 3.63595 20.0751 2.69898 18.6743C1.762 17.2735 1.1559 15.678 0.926515 14.0084C0.697127 12.3388 0.850411 10.6389 1.37488 9.03735C1.89935 7.43576 2.78121 5.97442 3.95374 4.76391L3.26074 4.07193L1.56568 5.76294C1.48767 5.8397 1.38264 5.88272 1.27319 5.88272C1.16375 5.88272 1.05872 5.8397 0.980714 5.76294C0.66935 5.45098 0.422557 5.08073 0.254274 4.67337C0.085991 4.266 -0.000416322 3.82948 1.50812e-06 3.38873C0.000419339 2.94798 0.0875383 2.51162 0.256593 2.10458C0.425648 1.69754 0.673276 1.32778 0.985231 1.01641C1.29719 0.705051 1.66747 0.458196 2.07483 0.289913C2.48219 0.12163 2.91862 0.035223 3.35938 0.0356409C3.80013 0.0360588 4.23651 0.1233 4.64356 0.292355C5.0506 0.46141 5.42033 0.708976 5.73169 1.02093C5.77015 1.05921 5.80071 1.1047 5.82153 1.15481C5.84236 1.20492 5.85303 1.25866 5.85303 1.31292C5.85303 1.36719 5.84236 1.42093 5.82153 1.47104C5.80071 1.52115 5.77015 1.56663 5.73169 1.60492L3.8457 3.48791L4.54578 4.18792C6.59297 2.35486 9.24426 1.3413 11.9922 1.3413C14.7401 1.3413 17.3915 2.35486 19.4387 4.18792L20.1387 3.48791L18.2517 1.60492C18.1745 1.52734 18.1312 1.42236 18.1312 1.31292C18.1312 1.20349 18.1745 1.09851 18.2517 1.02093C18.5614 0.701356 18.9315 0.446541 19.3406 0.271298C19.7496 0.0960541 20.1894 0.00385576 20.6344 0.000118397C21.0794 -0.00361896 21.5207 0.0811597 21.9326 0.249508C22.3445 0.417856 22.7188 0.666441 23.0338 0.98077C23.3488 1.2951 23.5981 1.6689 23.7673 2.08047C23.9366 2.49204 24.0223 2.93315 24.0195 3.37814C24.0167 3.82313 23.9255 4.26311 23.7511 4.67251C23.5767 5.08192 23.3227 5.4526 23.0038 5.76294C22.9258 5.8397 22.8206 5.88272 22.7112 5.88272C22.6017 5.88272 22.4967 5.8397 22.4187 5.76294L20.7238 4.07193L20.0298 4.76391C21.2023 5.97442 22.0842 7.43576 22.6086 9.03735C23.1331 10.6389 23.2864 12.3388 23.057 14.0084C22.8276 15.678 22.2215 17.2735 21.2845 18.6743C20.3476 20.0751 19.1042 21.2445 17.6487 22.0939L18.9017 23.3439C18.941 23.3821 18.9722 23.4278 18.9937 23.4781C19.0151 23.5285 19.0264 23.5827 19.0267 23.6374C19.0271 23.6922 19.0165 23.7465 18.9956 23.7972C18.9748 23.8478 18.9441 23.8938 18.9053 23.9325C18.8665 23.9711 18.8204 24.0017 18.7697 24.0224C18.7189 24.043 18.6646 24.0534 18.6099 24.0529C18.5551 24.0524 18.501 24.041 18.4507 24.0194C18.4004 23.9977 18.3548 23.9663 18.3168 23.9269H18.3207ZM1.64978 12.4889C1.64543 14.5355 2.24823 16.5374 3.38208 18.2412C4.51594 19.945 6.12986 21.2741 8.01941 22.0603C9.90896 22.8465 11.9893 23.0545 13.9971 22.6579C16.0049 22.2613 17.8499 21.2779 19.2986 19.8323C20.7473 18.3867 21.7345 16.5438 22.1354 14.5369C22.5363 12.5299 22.3327 10.4491 21.5505 8.55792C20.7684 6.6667 19.4427 5.05004 17.7413 3.91256C16.04 2.77508 14.0393 2.16794 11.9927 2.16793C9.25335 2.16793 6.62595 3.25461 4.68689 5.18954C2.74783 7.12447 1.65561 9.7496 1.64978 12.4889ZM19.1567 1.33691L22.6907 4.86291C23.0375 4.375 23.2003 3.77995 23.1499 3.18344C23.0995 2.58693 22.8393 2.02758 22.4155 1.60476C21.9918 1.18195 21.4318 0.923028 20.8352 0.873989C20.2386 0.824951 19.6439 0.988964 19.1567 1.33691ZM1.5647 1.60492C1.14118 2.02809 0.881664 2.5879 0.832399 3.18457C0.783134 3.78124 0.947404 4.37601 1.29578 4.86291L4.82971 1.33691C4.34132 0.989252 3.7458 0.825465 3.14832 0.874508C2.55083 0.923551 1.98986 1.18227 1.5647 1.60492ZM11.9917 21.9399C11.883 21.9399 11.7787 21.8967 11.7018 21.8199C11.6249 21.743 11.5818 21.6387 11.5818 21.5299V21.1099C11.5818 21.0012 11.6249 20.8969 11.7018 20.82C11.7787 20.7431 11.883 20.6999 11.9917 20.6999H12.0017C12.1103 20.7002 12.2143 20.7435 12.291 20.8204C12.3677 20.8972 12.4108 21.0014 12.4108 21.1099V21.5299C12.4108 21.6385 12.3677 21.7426 12.291 21.8195C12.2143 21.8963 12.1103 21.9397 12.0017 21.9399H11.9917ZM18.1377 19.1539L17.8457 18.8619C17.7683 18.7844 17.7249 18.6792 17.725 18.5696C17.7251 18.46 17.7686 18.3549 17.8462 18.2774C17.9238 18.2 18.0289 18.1565 18.1386 18.1566C18.2482 18.1567 18.3533 18.2003 18.4308 18.2779L18.7228 18.5699C18.8002 18.6475 18.8436 18.7527 18.8435 18.8623C18.8434 18.9719 18.7999 19.077 18.7223 19.1544C18.6447 19.2319 18.5395 19.2753 18.4299 19.2752C18.3203 19.2751 18.2151 19.2315 18.1377 19.1539ZM5.26477 19.1539C5.18758 19.0763 5.14417 18.9714 5.14417 18.8619C5.14417 18.7525 5.18758 18.6475 5.26477 18.5699L5.55676 18.2779C5.63421 18.2003 5.73926 18.1567 5.84888 18.1566C5.95849 18.1565 6.06366 18.2 6.14124 18.2774C6.21881 18.3549 6.26248 18.46 6.26257 18.5696C6.26267 18.6792 6.21917 18.7844 6.14173 18.8619L5.84973 19.1539C5.77198 19.2312 5.66685 19.2745 5.55725 19.2745C5.44765 19.2745 5.34252 19.2312 5.26477 19.1539ZM10.3387 12.4889C10.34 12.1236 10.4625 11.769 10.6871 11.4809C10.9118 11.1927 11.2257 10.9873 11.5797 10.8969V6.70892C11.5849 6.60277 11.6308 6.50269 11.7078 6.42941C11.7847 6.35613 11.887 6.31527 11.9933 6.31527C12.0996 6.31527 12.2017 6.35613 12.2787 6.42941C12.3557 6.50269 12.4015 6.60277 12.4067 6.70892V10.8969C12.6909 10.9705 12.9504 11.1186 13.1583 11.3258C13.3663 11.533 13.5152 11.792 13.5897 12.0759H16.5447C16.6542 12.0759 16.7593 12.1194 16.8368 12.1969C16.9142 12.2743 16.9578 12.3794 16.9578 12.4889C16.9578 12.5985 16.9142 12.7035 16.8368 12.781C16.7593 12.8584 16.6542 12.9019 16.5447 12.9019H13.5897C13.4888 13.2907 13.2496 13.6295 12.917 13.8547C12.5844 14.08 12.1811 14.1763 11.7826 14.1257C11.3841 14.075 11.0176 13.8809 10.7518 13.5797C10.4861 13.2784 10.3393 12.8906 10.3387 12.4889ZM11.1658 12.4889C11.1652 12.6529 11.2132 12.8133 11.3038 12.9499C11.3945 13.0864 11.5237 13.193 11.6751 13.2561C11.8264 13.3192 11.993 13.336 12.1538 13.3043C12.3147 13.2726 12.4624 13.1939 12.5785 13.0781C12.6946 12.9623 12.7736 12.8147 12.8057 12.654C12.8377 12.4932 12.8214 12.3265 12.7587 12.1751C12.6959 12.0236 12.5897 11.8942 12.4534 11.8032C12.317 11.7122 12.1566 11.6637 11.9927 11.6639C11.7738 11.6642 11.5639 11.7511 11.4089 11.9057C11.254 12.0603 11.1666 12.27 11.1658 12.4889ZM20.6818 12.8519C20.6259 12.8547 20.57 12.8461 20.5176 12.8266C20.4651 12.8071 20.4172 12.7771 20.3767 12.7386C20.3362 12.7 20.3039 12.6536 20.2819 12.6021C20.2598 12.5507 20.2484 12.4954 20.2484 12.4394C20.2484 12.3835 20.2598 12.3281 20.2819 12.2767C20.3039 12.2253 20.3362 12.1789 20.3767 12.1403C20.4172 12.1017 20.4651 12.0718 20.5176 12.0523C20.57 12.0328 20.6259 12.0242 20.6818 12.0269H21.0957C21.1516 12.0242 21.2074 12.0328 21.2599 12.0523C21.3123 12.0718 21.3602 12.1017 21.4008 12.1403C21.4413 12.1789 21.4736 12.2253 21.4956 12.2767C21.5177 12.3281 21.5291 12.3835 21.5291 12.4394C21.5291 12.4954 21.5177 12.5507 21.4956 12.6021C21.4736 12.6536 21.4413 12.7 21.4008 12.7386C21.3602 12.7771 21.3123 12.8071 21.2599 12.8266C21.2074 12.8461 21.1516 12.8547 21.0957 12.8519H20.6818ZM2.89173 12.8519C2.83585 12.8547 2.77998 12.8461 2.72754 12.8266C2.6751 12.8071 2.62719 12.7771 2.58667 12.7386C2.54615 12.7 2.51387 12.6536 2.49182 12.6021C2.46978 12.5507 2.45838 12.4954 2.45838 12.4394C2.45838 12.3835 2.46978 12.3281 2.49182 12.2767C2.51387 12.2253 2.54615 12.1789 2.58667 12.1403C2.62719 12.1017 2.6751 12.0718 2.72754 12.0523C2.77998 12.0328 2.83585 12.0242 2.89173 12.0269H3.30579C3.36167 12.0242 3.41741 12.0328 3.46985 12.0523C3.52229 12.0718 3.57032 12.1017 3.61084 12.1403C3.65136 12.1789 3.68365 12.2253 3.70569 12.2767C3.72773 12.3281 3.73902 12.3835 3.73902 12.4394C3.73902 12.4954 3.72773 12.5507 3.70569 12.6021C3.68365 12.6536 3.65136 12.7 3.61084 12.7386C3.57032 12.7771 3.52229 12.8071 3.46985 12.8266C3.41741 12.8461 3.36167 12.8547 3.30579 12.8519H2.89173ZM17.8447 6.60092C17.8064 6.56265 17.776 6.51721 17.7553 6.46719C17.7345 6.41717 17.7239 6.36356 17.7239 6.30941C17.7239 6.25527 17.7345 6.20166 17.7553 6.15164C17.776 6.10162 17.8064 6.05617 17.8447 6.01791L18.1367 5.72592C18.2142 5.64834 18.3192 5.6047 18.4288 5.60461C18.5385 5.60452 18.6436 5.64799 18.7212 5.72543C18.7988 5.80287 18.8424 5.90796 18.8425 6.01757C18.8426 6.12719 18.7991 6.23236 18.7217 6.30993L18.4297 6.60192C18.3913 6.64042 18.3457 6.67096 18.2955 6.6918C18.2453 6.71264 18.1916 6.72335 18.1372 6.72335C18.0829 6.72335 18.0291 6.71264 17.9789 6.6918C17.9287 6.67096 17.8831 6.64042 17.8447 6.60192V6.60092ZM5.55676 6.60092L5.26477 6.30893C5.18733 6.23135 5.14383 6.12618 5.14392 6.01657C5.14402 5.90695 5.18768 5.80187 5.26526 5.72442C5.34284 5.64698 5.448 5.60354 5.55762 5.60363C5.66723 5.60373 5.77229 5.64734 5.84973 5.72491L6.14173 6.01693C6.18098 6.05513 6.21231 6.10073 6.23377 6.15112C6.25522 6.20151 6.2664 6.25568 6.26673 6.31045C6.26705 6.36522 6.25645 6.4195 6.2356 6.47015C6.21475 6.5208 6.18406 6.5668 6.14527 6.60546C6.10647 6.64413 6.06036 6.67469 6.00964 6.69537C5.95893 6.71605 5.90462 6.72643 5.84985 6.72592C5.79509 6.7254 5.74099 6.71398 5.69068 6.69235C5.64036 6.67072 5.59482 6.6393 5.55676 6.59991V6.60092ZM11.5797 3.76992V3.35693C11.5849 3.25078 11.6308 3.1507 11.7078 3.07742C11.7847 3.00414 11.887 2.96325 11.9933 2.96325C12.0996 2.96325 12.2017 3.00414 12.2787 3.07742C12.3557 3.1507 12.4015 3.25078 12.4067 3.35693V3.76992C12.4015 3.87607 12.3557 3.97615 12.2787 4.04943C12.2017 4.12272 12.0996 4.16357 11.9933 4.16357C11.887 4.16357 11.7847 4.12272 11.7078 4.04943C11.6308 3.97615 11.5849 3.87607 11.5797 3.76992Z" fill="#297CBB"/>
</svg>
