<?xml version="1.0" encoding="UTF-8"?>
<svg xmlns="http://www.w3.org/2000/svg" baseProfile="tiny" version="1.2" viewBox="0 0 256 158.3">
  <!-- Generator: Adobe Illustrator 28.7.4, SVG Export Plug-In . SVG Version: 1.2.0 Build 166)  -->
  <g>
    <g id="Layer_1">
      <g>
        <path d="M87.8,153.3c-1.4-.1-2.7-.3-4.1-.4-6.5-.7-12.7-2.2-18.9-4.3-3.5-1.2-6.9-2.7-10.5-3.8-6.7-2.2-13.5-3.7-20.5-4.4-1.5-.2-3-.2-4.5-.3-1.1,0-1.2-.2-1.2-1.2,0-12.1,0-24.3,0-36.4,0-1.5.6-2.5,1.9-3.2,5.3-2.9,10.8-5,16.8-5.7,6.3-.8,12.3.1,18.2,2.7,3.4,1.5,6.6,3.4,9.5,5.7,4.9,3.8,10.3,5.9,16.5,6,4.8,0,9.6,0,14.4,0,2.1,0,4.3,0,6.4.1,3.7,0,6.9,2.5,7.7,6,.9,3.7-.7,7.3-4.1,9.1-1.8,1-3.8,1-5.8,1-8.4,0-16.8,0-25.2,0-.9,0-1.8,0-2.5.6-1.1.8-1.5,2-1.1,3.4.3,1.2,1.4,2,2.7,2.2.3,0,.5,0,.8,0,8.2,0,16.4,0,24.6,0,3.8,0,7.5-.9,11.1-2.2,8.3-3.2,16.8-6.2,25.2-9.2,6.2-2.2,12.3-4.4,18.5-6.6,2.2-.8,4.4-.7,6.5.3,5.7,2.6,6.4,10.4,1.3,14.2-2.3,1.7-4.9,3-7.4,4.4-10.5,5.8-21.5,10.6-32.9,14.3-8.9,2.9-18,5.2-27.3,6.9-2.5.4-5,.7-7.5.9-.2,0-.5,0-.7.1h-7.9Z" fill="#0679bd"/>
        <path d="M223.1,3.7c.8.1,1,.6.9,1.3-.2,8.7-.1,17.5-.1,26.2,0,3.5,0,7.1.1,10.6,0,1.7-.6,3.1-2,4.1-4.5,3.3-9.6,4.8-15.1,4.5-5.4-.3-10.2-2.4-14.3-5.9-.5-.5-1.1-.9-1.8-1.2-.9-.5-1.8-.4-2.6.1-.7.5-1.4,1.1-2,1.8-6.7,6.7-13.4,13.4-20.1,20.1-1.6,1.5-3.4,2.6-5.6,2.6-5.3,0-9-5.2-7.1-10.1.5-1.3,1.2-2.3,2.1-3.3,4.4-4.4,8.7-8.9,13.2-13.2,4.1-4.1,8.2-8.2,12.3-12.3.7-.7,1.3-1.3,1.5-2.3.3-2-1-3.5-3.2-3.7-.3,0-.7,0-1,0-12.2,0-24.3,0-36.5,0-.3,0-.6,0-.9,0-.3,0-.5,0-.6-.4-.1-.3,0-.5.3-.7,4.3-3.9,8.3-8.2,12.5-12.3,3.6-3.4,7.8-5.5,12.8-5.8.1,0,.3,0,.4-.1h57Z" fill="#0679bd"/>
        <path d="M7.8,89.4c4.3,0,8.6,0,12.8,0,1.1,0,1.1,0,1.1,1.1,0,19,0,37.9,0,56.9,0,1.1,0,1.1-1.1,1.1-4.3,0-8.6,0-12.8,0v-59.1Z" fill="#0679bd"/>
        <path d="M248.2,42.2c-5.5,0-11.1,0-16.6,0-.9,0-1,0-1-1,0-12.5,0-25,0-37.5,5.7,0,11.4,0,17,0,.5,0,.6.1.6.6,0,12.6,0,25.3,0,37.9Z" fill="#0679bd"/>
        <path d="M144.3,95.6c-20.5,0-41,0-61.5,0-.7,0-1.3,0-2-.2-1-.2-1.6-.8-1.8-1.8,0-.5-.1-1-.1-1.5,0-19.9,0-39.8,0-59.7,0,0,0-.1,0-.2,0-2.4.8-3.1,3.1-3.1,8.3,0,16.7,0,25,0,20.9,0,41.8,0,62.8,0,.3,0,.9-.2,1,.1.1.3-.4.6-.6.8-4.1,4.1-8.2,8.2-12.3,12.4-.5.5-.8.5-1.4.2-5.9-3.5-12.2-4.4-18.8-2.5-5.8,1.7-10.1,5.5-13.3,10.5-5.1,8.1-3.5,20,2.4,26.7,3.8,4.4,8.7,6.9,14.5,7.7,4.7.7,9.2.1,13.4-2,3.2-1.6,5.9-3.9,8-6.8,1.3-1.7,2.8-3.2,4.6-4.3,2.2-1.5,4.2-3.2,6.1-5.1,5.1-5.1,10.2-10.2,15.3-15.3,1.3-1.3,1.3-1.3,2.7-.3,4.7,3.2,9.9,4.9,15.6,5.3.7,0,1.5.1,2.2.1.4,0,.6.2.6.6,0,.1,0,.2,0,.3,0,11.6,0,23.2,0,34.7,0,.2,0,.5,0,.7-.2,1.7-.7,2.2-2.4,2.4-.5,0-1,0-1.5,0-20.5,0-41,0-61.5,0ZM99.9,75.3c6.9.2,13.2-5.8,13.1-13,0-7.1-5.9-13-12.9-13-7.4,0-13.2,5.8-13.3,13.1,0,7,6.1,13.1,13.1,12.9Z" fill="#0679bd"/>
        <path d="M145.3,79.2c-9.3,0-16.3-5.9-17.7-14.2-1.5-9.4,5.2-18.3,14.7-19.3,3.5-.4,6.8.4,9.9,1.9.6.3.5.5,0,.9-1.9,1.8-3.6,3.9-4.6,6.4-2.4,5.6-1.1,14.4,7.4,18,1.4.6,1.8.4.4,1.8-3.1,3-6.8,4.3-10.1,4.4Z" fill="#0679bd"/>
        <path d="M100.1,55.6c3.7,0,6.8,3.1,6.8,6.8,0,3.7-3.2,6.7-7,6.7-3.7,0-6.7-3.1-6.7-6.8,0-3.7,3-6.7,6.8-6.7Z" fill="#0679bd"/>
      </g>
    </g>
  </g>
</svg>