<svg width="16" height="24" viewBox="0 0 16 24" fill="none" xmlns="http://www.w3.org/2000/svg">
<path d="M0 24V4.70001H3.875V0H12.075V4.70001H16V24H0ZM0.958008 23.033H15.047V5.66901H12.078V8.88501H13.287V9.85699H2.71802V8.88501H3.87402V5.66901H0.95697L0.958008 23.033ZM4.88098 8.88501H11.168V0.971008H4.88L4.88098 8.88501ZM11.07 20.48V19.51H13.03V20.48H11.07ZM7.04102 20.48V19.51H9V20.48H7.04102ZM3.021 20.48V19.51H4.98102V20.48H3.021ZM11.071 17.06V16.09H13.031V17.06H11.071ZM7.04199 17.06V16.09H9V17.06H7.04199ZM3.02197 17.06V16.09H4.98199V17.06H3.02197ZM11.072 13.59V12.62H13.032V13.59H11.072ZM7.04303 13.59V12.62H9V13.59H7.04303ZM3.02301 13.59V12.62H4.98297V13.59H3.02301ZM6.39301 6.34V5.37H9.61298V6.34H6.39301ZM6.39301 3.53V2.56H9.61298V3.53H6.39301Z" fill="#297CBB"/>
</svg>
