<svg width="21" height="20" viewBox="0 0 21 20" fill="none" xmlns="http://www.w3.org/2000/svg">
<path d="M1.46521 19.4939C1.27843 19.4913 1.10007 19.4158 0.968168 19.2836C0.836269 19.1513 0.761283 18.9727 0.759214 18.7859V2.56494C0.757087 2.47075 0.773766 2.37708 0.808256 2.2894C0.842745 2.20172 0.894349 2.12179 0.96008 2.05429C1.02581 1.98679 1.10434 1.93308 1.19107 1.89627C1.2778 1.85947 1.37099 1.84031 1.46521 1.83994H5.08221V1.21994C5.07864 1.12492 5.09428 1.03015 5.12817 0.941315C5.16207 0.852479 5.21352 0.771397 5.27948 0.702911C5.34544 0.634425 5.42452 0.579935 5.51202 0.542725C5.59952 0.505514 5.69364 0.486328 5.78872 0.486328C5.88381 0.486328 5.9779 0.505514 6.0654 0.542725C6.1529 0.579935 6.23198 0.634425 6.29794 0.702911C6.3639 0.771397 6.41538 0.852479 6.44928 0.941315C6.48317 1.03015 6.49878 1.12492 6.49521 1.21994V1.83994H15.1432V1.21994C15.1432 1.12723 15.1615 1.03539 15.197 0.949738C15.2324 0.864082 15.2844 0.786261 15.35 0.720703C15.4156 0.655145 15.4934 0.603137 15.579 0.567657C15.6647 0.532178 15.7565 0.513916 15.8492 0.513916C15.9419 0.513916 16.0337 0.532178 16.1194 0.567657C16.205 0.603137 16.2829 0.655145 16.3484 0.720703C16.414 0.786261 16.466 0.864082 16.5015 0.949738C16.5369 1.03539 16.5552 1.12723 16.5552 1.21994V1.83994H20.0552C20.1495 1.84017 20.2427 1.85921 20.3295 1.89597C20.4163 1.93272 20.4949 1.98646 20.5607 2.05399C20.6264 2.12151 20.678 2.20148 20.7125 2.28922C20.7469 2.37695 20.7635 2.47071 20.7612 2.56494V18.7649C20.7635 18.8592 20.7469 18.953 20.7125 19.0408C20.6781 19.1286 20.6264 19.2086 20.5607 19.2762C20.495 19.3438 20.4164 19.3976 20.3296 19.4345C20.2428 19.4714 20.1495 19.4906 20.0552 19.4909L1.46521 19.4939ZM2.17221 18.0589H19.3472V6.61993H2.17221V18.0589ZM2.17221 5.16794H19.3592V3.29391H16.5592V3.68393C16.5592 3.87117 16.4848 4.05074 16.3524 4.18314C16.22 4.31554 16.0405 4.38992 15.8532 4.38992C15.666 4.38992 15.4864 4.31554 15.354 4.18314C15.2216 4.05074 15.1472 3.87117 15.1472 3.68393V3.29391H6.4992V3.68393C6.50278 3.77894 6.48717 3.87369 6.45328 3.96252C6.41938 4.05136 6.3679 4.13247 6.30194 4.20096C6.23598 4.26944 6.15689 4.3239 6.06939 4.36111C5.9819 4.39833 5.8878 4.41751 5.79272 4.41751C5.69764 4.41751 5.60352 4.39833 5.51602 4.36111C5.42852 4.3239 5.34943 4.26944 5.28348 4.20096C5.21752 4.13247 5.16606 4.05136 5.13217 3.96252C5.09827 3.87369 5.08263 3.77894 5.08621 3.68393V3.29391H2.1752L2.17221 5.16794ZM5.68622 14.9069C5.49367 14.9069 5.309 14.8304 5.17285 14.6943C5.0367 14.5581 4.9602 14.3735 4.9602 14.1809C4.9602 13.9884 5.0367 13.8037 5.17285 13.6676C5.309 13.5314 5.49367 13.4549 5.68622 13.4549H10.7682C10.9608 13.4549 11.1454 13.5314 11.2816 13.6676C11.4177 13.8037 11.4942 13.9884 11.4942 14.1809C11.4942 14.3735 11.4177 14.5581 11.2816 14.6943C11.1454 14.8304 10.9608 14.9069 10.7682 14.9069H5.68622ZM5.68622 11.4009C5.49367 11.4009 5.309 11.3244 5.17285 11.1883C5.0367 11.0521 4.9602 10.8675 4.9602 10.6749C4.9602 10.4824 5.0367 10.2977 5.17285 10.1616C5.309 10.0254 5.49367 9.94891 5.68622 9.94891H15.8492C16.0418 9.94891 16.2264 10.0254 16.3626 10.1616C16.4987 10.2977 16.5752 10.4824 16.5752 10.6749C16.5752 10.8675 16.4987 11.0521 16.3626 11.1883C16.2264 11.3244 16.0418 11.4009 15.8492 11.4009H5.68622Z" fill="#0057FF"/>
</svg>
