<svg width="16" height="12" viewBox="0 0 16 12" fill="none" xmlns="http://www.w3.org/2000/svg">
<path d="M15.7801 0.593994C15.6393 0.453177 15.4483 0.374023 15.2491 0.374023C15.0499 0.374023 14.8589 0.453177 14.7181 0.593994L5.71809 9.56799L2.26011 6.11804C2.11885 5.98121 1.92948 5.90531 1.73283 5.90674C1.53617 5.90816 1.34794 5.98675 1.20869 6.12561C1.06943 6.26447 0.990301 6.45252 0.988319 6.64917C0.986338 6.84582 1.06167 7.03536 1.1981 7.177L5.18711 11.156C5.32808 11.2966 5.51901 11.3755 5.71809 11.3755C5.91716 11.3755 6.10813 11.2966 6.24909 11.156L15.7761 1.65601C15.8464 1.58674 15.9024 1.5042 15.9407 1.41321C15.979 1.32221 15.9989 1.22458 15.9993 1.12585C15.9996 1.02713 15.9805 0.929292 15.9428 0.838013C15.9052 0.746734 15.8499 0.663791 15.7801 0.593994Z" fill="#297CBB"/>
</svg>
