<svg width="15" height="16" viewBox="0 0 15 16" fill="none" xmlns="http://www.w3.org/2000/svg">
<path d="M0 7.87508C0 6.39172 0.439866 4.9417 1.26398 3.70833C2.08809 2.47496 3.25944 1.51354 4.62988 0.945881C6.00033 0.378223 7.50831 0.229734 8.96317 0.519123C10.418 0.808512 11.7544 1.52296 12.8033 2.57186C13.8522 3.62075 14.5665 4.95709 14.8559 6.41195C15.1453 7.8668 14.9968 9.37475 14.4291 10.7452C13.8615 12.1156 12.9001 13.2871 11.6668 14.1112C10.4334 14.9353 8.98336 15.3751 7.5 15.3751C5.51266 15.3693 3.60839 14.5772 2.20312 13.172C0.797858 11.7667 0.00580403 9.86242 0 7.87508ZM1.5 7.87508C1.5 9.06177 1.85188 10.2219 2.51117 11.2086C3.17046 12.1953 4.10753 12.9642 5.20389 13.4183C6.30024 13.8724 7.50665 13.9914 8.67053 13.7598C9.83442 13.5283 10.9035 12.9569 11.7426 12.1178C12.5818 11.2786 13.1532 10.2096 13.3847 9.04573C13.6162 7.88185 13.4974 6.67529 13.0433 5.57894C12.5891 4.48258 11.8201 3.5456 10.8334 2.88631C9.84674 2.22702 8.68669 1.87508 7.5 1.87508C5.91016 1.87983 4.38679 2.51358 3.2626 3.63778C2.13841 4.76197 1.50475 6.28524 1.5 7.87508ZM6.75 8.62508V4.12508H7.875V8.02498L11.25 10.0492L10.65 11.025L6.75 8.62508Z" fill="#67747C"/>
</svg>
