<svg width="16" height="18" viewBox="0 0 16 18" fill="none" xmlns="http://www.w3.org/2000/svg">
<path d="M15.517 5.53001C15.5988 5.30212 15.6476 5.06387 15.662 4.8223C15.6794 4.47734 15.6182 4.13274 15.483 3.81467C15.3477 3.49661 15.1419 3.21359 14.881 2.98592C14.9487 2.52104 14.8668 2.04643 14.647 1.63076C14.4133 1.25975 14.1002 0.944961 13.7302 0.708195C13.3601 0.471429 12.9421 0.318544 12.506 0.26101C11.5979 0.096799 10.6708 0.0631772 9.7531 0.161366C8.21995 0.143187 6.68733 0.229916 5.16606 0.420441L4.3571 0.520086C4.1175 0.345188 3.82817 0.250711 3.53105 0.250317H1.43108C1.04517 0.256865 0.677583 0.415634 0.409105 0.691669C0.140627 0.967703 -0.00681302 1.33845 -0.000929052 1.72262V7.47332C-0.00681302 7.8575 0.140627 8.22824 0.409105 8.50428C0.677583 8.78031 1.04517 8.93908 1.43108 8.94563H3.53105C3.7696 8.94598 4.00422 8.88472 4.21208 8.76822C4.37858 9.1493 4.60652 9.50111 4.88701 9.80889C4.90369 9.82721 4.92216 9.84369 4.94206 9.85847C6.02306 10.7106 7.29599 13.7828 7.74199 15.0351C7.63366 15.6155 7.73615 16.215 8.03105 16.7271C8.11121 16.8253 8.21251 16.9041 8.32744 16.958C8.44237 17.0119 8.56794 17.0396 8.69499 17.0387C9.03554 17.0407 9.37174 16.9626 9.6762 16.8107C9.98065 16.6589 10.2448 16.4375 10.4471 16.1647C10.9871 15.3933 11.0181 14.2393 10.5361 12.7321C10.2791 12.0751 10.1337 11.3801 10.106 10.6756C10.292 10.7184 10.4741 10.7574 10.6501 10.7893C11.2073 10.9096 11.7736 10.9843 12.3431 11.0124C12.8259 11.0863 13.3187 11.064 13.7929 10.9473C14.2671 10.8306 14.7133 10.6217 15.106 10.3324C15.3948 10.0582 15.5918 9.70219 15.67 9.31261C15.7482 8.92304 15.7038 8.51887 15.543 8.15528C15.8396 7.78032 15.9981 7.31522 15.9919 6.83803C15.9857 6.36084 15.8153 5.90015 15.5091 5.53293L15.517 5.53001ZM3.53105 7.99391H1.43108C1.29598 7.99077 1.16756 7.93484 1.0739 7.83788C0.980238 7.74091 0.92893 7.61074 0.931078 7.47624V1.72554C0.929196 1.59121 0.980633 1.46163 1.07427 1.36488C1.1679 1.26812 1.29616 1.21198 1.43108 1.20885H3.53105C3.66606 1.21172 3.79442 1.26758 3.88811 1.36439C3.9818 1.4612 4.0332 1.59113 4.03105 1.72554V7.47624C4.03238 7.54291 4.02043 7.60905 3.99602 7.67115C3.97161 7.73326 3.93515 7.79029 3.88872 7.83836C3.84229 7.88643 3.78689 7.9249 3.72551 7.95162C3.66413 7.97833 3.59803 7.99261 3.53105 7.99391ZM14.6021 8.33659C14.6821 8.48099 14.7368 8.63766 14.7641 8.8003C14.7939 8.95058 14.7838 9.10612 14.7349 9.25137C14.686 9.39661 14.5999 9.52657 14.485 9.62856C13.828 10.2448 11.9351 10.1033 10.8781 9.86139L10.8331 9.85167C10.6441 9.81682 10.4411 9.77402 10.2331 9.72723C10.1074 9.67933 9.97076 9.66685 9.83843 9.69126C9.70609 9.71568 9.58318 9.77572 9.48308 9.86528C9.02508 10.2834 9.07703 11.2322 9.65203 13.033C9.84319 13.4339 9.94573 13.871 9.95281 14.3148C9.95988 14.7585 9.87133 15.1985 9.69304 15.6053C9.5795 15.7542 9.43277 15.8748 9.26445 15.9577C9.09614 16.0406 8.91086 16.0836 8.72307 16.0831C8.62785 15.7492 8.61239 15.3979 8.67803 15.057C8.6881 14.9774 8.68095 14.8964 8.65703 14.8198C8.59203 14.6396 7.08106 10.3852 5.53606 9.12596C5.23263 8.7753 5.01371 8.36 4.89604 7.91225C4.93882 7.76979 4.96077 7.62201 4.96111 7.47332V1.72651C4.9614 1.6222 4.95101 1.51813 4.9301 1.41591L5.278 1.37314C6.76183 1.18786 8.25666 1.1041 9.752 1.12233H9.8001C10.6358 1.02809 11.4808 1.05388 12.309 1.19961C12.6099 1.2335 12.9002 1.33049 13.1611 1.48348C13.4219 1.63647 13.6475 1.84213 13.823 2.08766C13.973 2.37321 14.0087 2.70485 13.923 3.01557C13.8879 3.11081 13.8843 3.21465 13.9128 3.31207C13.9412 3.4095 14.0002 3.49534 14.0811 3.55705C14.3777 3.74247 14.5928 4.03253 14.6835 4.36928C14.7742 4.70602 14.7336 5.06477 14.57 5.37301C14.5153 5.46252 14.4918 5.56728 14.503 5.67146C14.5142 5.77564 14.5595 5.87306 14.632 5.94901C14.763 6.07126 14.8685 6.21814 14.9423 6.38112C15.0161 6.54411 15.0568 6.72009 15.0621 6.89879C15.0368 7.21255 14.9004 7.50712 14.677 7.72997C14.5949 7.80605 14.5422 7.90839 14.5281 8.01918C14.5141 8.12997 14.5395 8.24255 14.6 8.33659H14.6021Z" fill="#9FA9B8"/>
</svg>
