<svg width="17" height="22" viewBox="0 0 17 22" fill="none" xmlns="http://www.w3.org/2000/svg">
<path d="M1.88901 22.0002C1.39566 22.0069 0.919768 21.8177 0.565674 21.4741C0.21158 21.1305 0.00816036 20.6605 0 20.1672V1.83318C0.00816036 1.33985 0.21158 0.869861 0.565674 0.526264C0.919768 0.182667 1.39566 -0.00651362 1.88901 0.000171326H11.805C11.9297 -0.000323691 12.0497 0.0481617 12.139 0.135181L16.861 4.71816C16.9048 4.76003 16.9397 4.81031 16.9636 4.86599C16.9874 4.92166 16.9998 4.98158 17 5.04216V20.1672C16.9918 20.6605 16.7884 21.1305 16.4343 21.4741C16.0802 21.8177 15.6043 22.0069 15.111 22.0002H1.88901ZM0.944 1.83318V20.1672C0.948211 20.4138 1.05006 20.6488 1.2272 20.8205C1.40434 20.9922 1.64233 21.0867 1.88901 21.0832H15.111C15.3576 21.0867 15.5955 20.9922 15.7725 20.8204C15.9494 20.6487 16.051 20.4137 16.055 20.1672V5.50017H13.222C12.7289 5.50686 12.2533 5.31776 11.8994 4.97435C11.5455 4.63094 11.3422 4.16124 11.334 3.66817V0.918171H1.88901C1.6425 0.914691 1.40465 1.00901 1.22754 1.1805C1.05043 1.35199 0.948472 1.58669 0.944 1.83318ZM12.278 3.66716C12.282 3.91374 12.3836 4.14869 12.5605 4.32042C12.7375 4.49216 12.9754 4.58665 13.222 4.58318H15.387L12.278 1.56417V3.66716ZM3.306 19.2502C3.18453 19.2502 3.06804 19.2019 2.98215 19.116C2.89626 19.0301 2.84799 18.9136 2.84799 18.7922C2.84799 18.6707 2.89626 18.5542 2.98215 18.4683C3.06804 18.3824 3.18453 18.3342 3.306 18.3342H8.97198C9.09345 18.3342 9.20998 18.3824 9.29587 18.4683C9.38176 18.5542 9.42999 18.6707 9.42999 18.7922C9.42999 18.9136 9.38176 19.0301 9.29587 19.116C9.20998 19.2019 9.09345 19.2502 8.97198 19.2502H3.306ZM3.306 16.5012C3.24399 16.5041 3.18202 16.4943 3.12387 16.4726C3.06572 16.4509 3.01259 16.4176 2.96768 16.3747C2.92277 16.3319 2.88703 16.2803 2.86261 16.2233C2.83819 16.1662 2.82559 16.1048 2.82559 16.0427C2.82559 15.9806 2.83819 15.9192 2.86261 15.8621C2.88703 15.805 2.92277 15.7535 2.96768 15.7106C3.01259 15.6678 3.06572 15.6345 3.12387 15.6127C3.18202 15.591 3.24399 15.5813 3.306 15.5842H13.695C13.757 15.5813 13.819 15.591 13.8771 15.6127C13.9353 15.6345 13.9884 15.6678 14.0333 15.7106C14.0782 15.7535 14.114 15.805 14.1384 15.8621C14.1628 15.9192 14.1754 15.9806 14.1754 16.0427C14.1754 16.1048 14.1628 16.1662 14.1384 16.2233C14.114 16.2803 14.0782 16.3319 14.0333 16.3747C13.9884 16.4176 13.9353 16.4509 13.8771 16.4726C13.819 16.4943 13.757 16.5041 13.695 16.5012H3.306ZM3.306 13.7512C3.18453 13.7512 3.06804 13.7029 2.98215 13.617C2.89626 13.5311 2.84799 13.4146 2.84799 13.2932C2.84799 13.1717 2.89626 13.0552 2.98215 12.9693C3.06804 12.8834 3.18453 12.8352 3.306 12.8352H13.695C13.8165 12.8352 13.933 12.8834 14.0189 12.9693C14.1048 13.0552 14.153 13.1717 14.153 13.2932C14.153 13.4146 14.1048 13.5311 14.0189 13.617C13.933 13.7029 13.8165 13.7512 13.695 13.7512H3.306ZM3.306 11.0022C3.24399 11.0051 3.18202 10.9954 3.12387 10.9736C3.06572 10.9519 3.01259 10.9186 2.96768 10.8757C2.92277 10.8329 2.88703 10.7813 2.86261 10.7243C2.83819 10.6672 2.82559 10.6057 2.82559 10.5437C2.82559 10.4816 2.83819 10.4202 2.86261 10.3631C2.88703 10.306 2.92277 10.2545 2.96768 10.2116C3.01259 10.1688 3.06572 10.1355 3.12387 10.1137C3.18202 10.092 3.24399 10.0823 3.306 10.0852H13.695C13.757 10.0823 13.819 10.092 13.8771 10.1137C13.9353 10.1355 13.9884 10.1688 14.0333 10.2116C14.0782 10.2545 14.114 10.306 14.1384 10.3631C14.1628 10.4202 14.1754 10.4816 14.1754 10.5437C14.1754 10.6057 14.1628 10.6672 14.1384 10.7243C14.114 10.7813 14.0782 10.8329 14.0333 10.8757C13.9884 10.9186 13.9353 10.9519 13.8771 10.9736C13.819 10.9954 13.757 11.0051 13.695 11.0022H3.306ZM3.77802 8.25219H3.306C3.18453 8.25219 3.06804 8.20392 2.98215 8.11803C2.89626 8.03214 2.84799 7.91565 2.84799 7.79418C2.84799 7.67271 2.89626 7.55622 2.98215 7.47032C3.06804 7.38443 3.18453 7.33617 3.306 7.33617H4.25C4.31201 7.33907 4.37398 7.32934 4.43213 7.30761C4.49028 7.28587 4.54341 7.25257 4.58832 7.2097C4.63323 7.16684 4.66897 7.11532 4.69339 7.05825C4.71781 7.00117 4.73041 6.93975 4.73041 6.87767C4.73041 6.81559 4.71781 6.75414 4.69339 6.69707C4.66897 6.64 4.63323 6.58847 4.58832 6.54561C4.54341 6.50275 4.49028 6.46945 4.43213 6.44771C4.37398 6.42598 4.31201 6.41628 4.25 6.41918C3.88005 6.42373 3.52336 6.28165 3.25784 6.02401C2.99233 5.76636 2.83959 5.41409 2.83301 5.04418C2.83638 4.75749 2.92913 4.47901 3.09836 4.24758C3.26758 4.01615 3.50484 3.8433 3.77701 3.75316V3.66817C3.7826 3.54662 3.83482 3.4319 3.92282 3.34786C4.01082 3.26382 4.12783 3.21691 4.24951 3.21691C4.37119 3.21691 4.48817 3.26382 4.57617 3.34786C4.66417 3.4319 4.71639 3.54662 4.72198 3.66817H5.194C5.25601 3.66527 5.31798 3.675 5.37613 3.69674C5.43428 3.71847 5.48741 3.75177 5.53232 3.79464C5.57723 3.8375 5.61297 3.88902 5.63739 3.94609C5.66181 4.00317 5.67441 4.06459 5.67441 4.12667C5.67441 4.18875 5.66181 4.2502 5.63739 4.30727C5.61297 4.36434 5.57723 4.41587 5.53232 4.45873C5.48741 4.50159 5.43428 4.53489 5.37613 4.55663C5.31798 4.57836 5.25601 4.58806 5.194 4.58516H4.24899C4.12752 4.58516 4.01103 4.63343 3.92514 4.71932C3.83925 4.80521 3.79099 4.9217 3.79099 5.04317C3.79099 5.16464 3.83925 5.28113 3.92514 5.36702C4.01103 5.45291 4.12752 5.50118 4.24899 5.50118C4.61894 5.49663 4.97566 5.6387 5.24118 5.89635C5.5067 6.154 5.65941 6.50626 5.66599 6.87618C5.66262 7.16286 5.56986 7.44135 5.40063 7.67278C5.23141 7.90421 4.99415 8.07703 4.72198 8.16716V8.25219C4.71639 8.37374 4.66417 8.48846 4.57617 8.5725C4.48817 8.65654 4.37119 8.70342 4.24951 8.70342C4.12783 8.70342 4.01082 8.65654 3.92282 8.5725C3.83482 8.48846 3.7826 8.37374 3.77701 8.25219H3.77802ZM8.021 8.25219C7.899 8.25219 7.78201 8.20372 7.69574 8.11745C7.60947 8.03118 7.561 7.91416 7.561 7.79216C7.561 7.67016 7.60947 7.55317 7.69574 7.46691C7.78201 7.38064 7.899 7.33217 8.021 7.33217H13.711C13.833 7.33217 13.95 7.38064 14.0363 7.46691C14.1225 7.55317 14.171 7.67016 14.171 7.79216C14.171 7.91416 14.1225 8.03118 14.0363 8.11745C13.95 8.20372 13.833 8.25219 13.711 8.25219H8.021Z" fill="#297CBB"/>
</svg>
