<svg width="22" height="22" viewBox="0 0 22 22" fill="none" xmlns="http://www.w3.org/2000/svg">
<path d="M11 0C8.82441 0 6.69768 0.645125 4.88874 1.85382C3.0798 3.06252 1.66988 4.78051 0.837317 6.7905C0.00475341 8.80048 -0.213066 11.0122 0.211371 13.146C0.635809 15.2798 1.68346 17.2398 3.22184 18.7782C4.76022 20.3165 6.72022 21.3642 8.85401 21.7886C10.9878 22.2131 13.1995 21.9953 15.2095 21.1627C17.2195 20.3301 18.9375 18.9202 20.1462 17.1113C21.3549 15.3023 22 13.1756 22 11C21.9968 8.08359 20.8369 5.28755 18.7747 3.22534C16.7125 1.16313 13.9164 0.00317634 11 0ZM11 1.431C12.5603 1.43118 14.0968 1.81285 15.4758 2.54276C16.8548 3.27266 18.0345 4.32865 18.912 5.61877C19.7895 6.9089 20.3382 8.394 20.5104 9.94473C20.6827 11.4955 20.4731 13.0648 19.9 14.516L9.09 9.155C9.08122 9.0973 9.06544 9.04088 9.04301 8.987C8.92072 8.69711 8.86435 8.38367 8.878 8.06934C8.89164 7.75501 8.97495 7.44764 9.12189 7.16943C9.26884 6.89123 9.47577 6.64916 9.7277 6.46069C9.97963 6.27223 10.2703 6.1421 10.5787 6.07968C10.887 6.01727 11.2054 6.02413 11.5108 6.09979C11.8162 6.17546 12.101 6.31802 12.3445 6.51718C12.5881 6.71634 12.7844 6.96712 12.9192 7.2514C13.054 7.53569 13.1239 7.84639 13.124 8.16101C13.1204 8.25722 13.1363 8.35317 13.1706 8.44312C13.2049 8.53306 13.2571 8.61514 13.3239 8.68448C13.3907 8.75382 13.4707 8.80898 13.5593 8.84665C13.6479 8.88432 13.7432 8.90375 13.8395 8.90375C13.9358 8.90375 14.0311 8.88432 14.1197 8.84665C14.2083 8.80898 14.2884 8.75382 14.3552 8.68448C14.422 8.61514 14.4741 8.53306 14.5084 8.44312C14.5428 8.35317 14.5586 8.25722 14.555 8.16101C14.5538 7.3428 14.271 6.54995 13.7539 5.9158C13.2369 5.28166 12.5172 4.84488 11.716 4.67899V3.608C11.7196 3.51179 11.7037 3.41584 11.6694 3.3259C11.6351 3.23595 11.583 3.15384 11.5162 3.0845C11.4494 3.01516 11.3693 2.96001 11.2807 2.92233C11.1921 2.88466 11.0968 2.86523 11.0005 2.86523C10.9042 2.86523 10.8089 2.88466 10.7203 2.92233C10.6317 2.96001 10.5516 3.01516 10.4848 3.0845C10.418 3.15384 10.3659 3.23595 10.3316 3.3259C10.2972 3.41584 10.2814 3.51179 10.285 3.608V4.67899C9.48379 4.84488 8.76415 5.28166 8.24711 5.9158C7.73007 6.54995 7.44718 7.3428 7.44602 8.16101C7.44602 8.22168 7.44602 8.28201 7.44602 8.34201L2.814 6.04199C3.66704 4.63459 4.86852 3.47087 6.30244 2.66318C7.73635 1.85549 9.35426 1.43111 11 1.431ZM11 20.569C9.42472 20.5691 7.87379 20.1802 6.4849 19.4369C5.09601 18.6936 3.9121 17.6189 3.03834 16.3081C2.16457 14.9974 1.62797 13.4911 1.47614 11.9232C1.32431 10.3552 1.56196 8.77405 2.16801 7.32001L12.711 12.549C12.7289 12.5942 12.7514 12.6374 12.778 12.678C12.9596 12.9548 13.0739 13.2702 13.1119 13.599C13.15 13.9279 13.1106 14.261 12.997 14.572C12.8834 14.8829 12.6987 15.1629 12.4576 15.3898C12.2165 15.6167 11.9257 15.784 11.6085 15.8785C11.2912 15.9731 10.9563 15.9922 10.6304 15.9342C10.3045 15.8763 9.99659 15.743 9.73133 15.545C9.46607 15.3469 9.25076 15.0896 9.10261 14.7936C8.95445 14.4976 8.87753 14.171 8.878 13.84C8.88159 13.7438 8.86576 13.6478 8.83143 13.5579C8.79709 13.4679 8.74496 13.3858 8.67817 13.3165C8.61137 13.2472 8.53127 13.192 8.44266 13.1543C8.35406 13.1167 8.25879 13.0973 8.16251 13.0973C8.06623 13.0973 7.97093 13.1167 7.88233 13.1543C7.79373 13.192 7.71365 13.2472 7.64686 13.3165C7.58006 13.3858 7.52793 13.4679 7.4936 13.5579C7.45926 13.6478 7.4434 13.7438 7.447 13.84C7.44816 14.6582 7.73104 15.4511 8.24808 16.0852C8.76513 16.7194 9.4848 17.1561 10.286 17.322V18.393C10.2824 18.4892 10.2983 18.5852 10.3326 18.6751C10.3669 18.7651 10.4191 18.8472 10.4858 18.9165C10.5526 18.9858 10.6327 19.041 10.7214 19.0787C10.81 19.1163 10.9052 19.1357 11.0015 19.1357C11.0978 19.1357 11.1931 19.1163 11.2817 19.0787C11.3703 19.041 11.4504 18.9858 11.5172 18.9165C11.584 18.8472 11.6361 18.7651 11.6704 18.6751C11.7048 18.5852 11.7206 18.4892 11.717 18.393V17.322C12.5182 17.1561 13.2379 16.7194 13.7549 16.0852C14.272 15.4511 14.5548 14.6582 14.556 13.84C14.5559 13.7107 14.5489 13.5815 14.535 13.453L19.275 15.804C18.4333 17.2529 17.2261 18.4556 15.774 19.2918C14.3218 20.128 12.6757 20.5684 11 20.569Z" fill="#297CBB"/>
</svg>
