<svg width="21" height="18" viewBox="0 0 21 18" fill="none" xmlns="http://www.w3.org/2000/svg">
<path d="M1.96307 18.0004H1.88604C1.63447 17.9966 1.38617 17.9433 1.15521 17.8435C0.924246 17.7436 0.715122 17.5993 0.539972 17.4187C0.364822 17.2381 0.226982 17.0247 0.134333 16.7908C0.0416833 16.5569 -0.00391475 16.3069 5.52016e-05 16.0554V5.85535C-0.0123259 5.32088 0.18726 4.80324 0.555231 4.41541C0.923202 4.02758 1.42966 3.80105 1.96404 3.78535H2.75408L3.00909 1.74036C3.0372 1.48465 3.1173 1.23737 3.24456 1.0138C3.37183 0.790228 3.54355 0.5951 3.74908 0.440376C3.95626 0.269924 4.19648 0.144272 4.45465 0.0712963C4.71281 -0.00167918 4.98333 -0.0204058 5.24908 0.0163646L19.174 1.56239C19.7078 1.61794 20.198 1.8825 20.5373 2.29829C20.8766 2.71407 21.0376 3.24728 20.985 3.78138L19.8121 13.9074C19.7484 14.4347 19.4832 14.917 19.0721 15.2534C18.7798 15.4515 18.45 15.5876 18.1031 15.6534V16.0534C18.0698 16.5927 17.8272 17.0978 17.4272 17.4611C17.0271 17.8243 16.5012 18.0171 15.9611 17.9984L1.96307 18.0004ZM4.97308 11.3664L1.0191 14.2094V16.0554C1.0191 16.0804 1.0191 16.1064 1.0191 16.1314C1.02924 16.3721 1.13431 16.5989 1.31146 16.7622C1.4886 16.9255 1.72332 17.0119 1.96404 17.0024H15.964C16.2369 17.0181 16.5054 16.9285 16.7142 16.7521C16.9229 16.5758 17.0561 16.326 17.0861 16.0544V11.2164L12.0611 14.0594C11.6901 14.2768 11.267 14.3891 10.8371 14.3843C10.2896 14.3751 9.76118 14.1818 9.33709 13.8354L6.55706 11.4404C6.34327 11.2466 6.06869 11.1331 5.78045 11.1194C5.49221 11.1057 5.20829 11.1927 4.97711 11.3654L4.97308 11.3664ZM4.38604 1.19239C4.18881 1.35874 4.05413 1.58729 4.00408 1.8404L3.77508 3.78535H15.965C16.5187 3.79215 17.0489 4.0103 17.4471 4.39509C17.8453 4.77988 18.0814 5.30223 18.1071 5.85535V14.6554C18.1071 14.6064 18.337 14.5554 18.439 14.4554C18.5424 14.3764 18.6262 14.2746 18.6836 14.1578C18.7411 14.041 18.7707 13.9125 18.7701 13.7824L19.97 3.65736C19.97 3.65736 19.97 3.65137 19.97 3.64637C19.9819 3.51449 19.9675 3.38153 19.9277 3.25526C19.8878 3.12898 19.8232 3.0119 19.7377 2.91077C19.6522 2.80965 19.5475 2.72653 19.4296 2.66621C19.3117 2.60588 19.1831 2.56958 19.0511 2.55939L5.15106 0.989387C5.11772 0.989387 5.08441 0.989387 5.05108 0.989387C4.81419 0.988619 4.58248 1.05896 4.38604 1.19135V1.19239ZM7.2171 10.6684L10.022 13.0884C10.2301 13.2586 10.485 13.3615 10.7529 13.3835C11.0208 13.4055 11.289 13.3454 11.522 13.2114L17.0821 10.0454V5.85535C17.0601 5.56971 16.9333 5.30226 16.7263 5.10426C16.5192 4.90625 16.2464 4.79161 15.96 4.78236H1.96002C1.69298 4.80061 1.44394 4.92362 1.26715 5.12458C1.09035 5.32554 1.00013 5.58817 1.01605 5.85535V12.9634L4.38311 10.5693C4.79907 10.2692 5.30311 10.1161 5.81573 10.1342C6.32835 10.1523 6.8203 10.3406 7.21404 10.6694L7.2171 10.6684ZM8.492 8.44935C8.48366 8.02401 8.60221 7.60585 8.83245 7.24812C9.06269 6.89038 9.39425 6.60932 9.78485 6.44074C10.1754 6.27216 10.6073 6.22368 11.0256 6.30152C11.4438 6.37937 11.8295 6.57999 12.1332 6.87781C12.437 7.17564 12.6451 7.55721 12.7313 7.97382C12.8174 8.39044 12.7776 8.82326 12.6168 9.21711C12.4559 9.61096 12.1814 9.94797 11.8283 10.1852C11.4752 10.4225 11.0595 10.5493 10.6341 10.5494C10.3553 10.5524 10.0786 10.5004 9.82 10.3963C9.56136 10.2922 9.32575 10.1382 9.12676 9.94294C8.92778 9.74767 8.76938 9.515 8.66046 9.25837C8.55153 9.00174 8.49422 8.72618 8.492 8.4474V8.44935ZM9.51202 8.44935C9.50745 8.67242 9.56949 8.89184 9.69012 9.07954C9.81075 9.26724 9.98457 9.41474 10.1894 9.50324C10.3942 9.59175 10.6207 9.61726 10.84 9.57648C11.0594 9.5357 11.2616 9.4305 11.421 9.2743C11.5803 9.1181 11.6896 8.91798 11.7347 8.69947C11.7798 8.48096 11.7587 8.25396 11.6742 8.04743C11.5898 7.8409 11.4458 7.66419 11.2606 7.53986C11.0753 7.41554 10.8572 7.34922 10.6341 7.34937C10.4883 7.34779 10.3436 7.37494 10.2083 7.42927C10.073 7.48359 9.94983 7.564 9.84564 7.66596C9.74145 7.76792 9.65837 7.88943 9.60113 8.02351C9.54389 8.15758 9.51359 8.30163 9.51202 8.4474V8.44935Z" fill="#297CBB"/>
</svg>
