<svg width="24" height="24" viewBox="0 0 24 24" fill="none" xmlns="http://www.w3.org/2000/svg">
<path d="M12 22.75C6.07 22.75 1.25 17.93 1.25 12C1.25 6.07 6.07 1.25 12 1.25C17.93 1.25 22.75 6.07 22.75 12C22.75 12.41 22.41 12.75 22 12.75C21.59 12.75 21.25 12.41 21.25 12C21.25 6.9 17.1 2.75 12 2.75C6.9 2.75 2.75 6.9 2.75 12C2.75 17.1 6.9 21.25 12 21.25C12.41 21.25 12.75 21.59 12.75 22C12.75 22.41 12.41 22.75 12 22.75Z" fill="#0DB1FF"/>
<path d="M9.00022 21.75H8.00022C7.59022 21.75 7.25022 21.41 7.25022 21C7.25022 20.59 7.57023 20.26 7.98023 20.25C6.41023 14.89 6.41023 9.11 7.98023 3.75C7.58023 3.74 7.25022 3.41 7.25022 3C7.25022 2.59 7.59022 2.25 8.00022 2.25H9.00022C9.24022 2.25 9.47021 2.37 9.61021 2.56C9.75021 2.76 9.79021 3.00999 9.71021 3.23999C7.83021 8.88999 7.83021 15.12 9.71021 20.77C9.79021 21 9.75021 21.25 9.61021 21.45C9.47021 21.65 9.24022 21.75 9.00022 21.75Z" fill="#0DB1FF"/>
<path d="M16.4599 12.7505C16.0499 12.7505 15.7099 12.4105 15.7099 12.0005C15.7099 9.02045 15.2299 6.07044 14.2899 3.24044C14.1599 2.85044 14.3699 2.42043 14.7599 2.29043C15.1499 2.16043 15.5799 2.37046 15.7099 2.76046C16.6999 5.74046 17.2099 8.85045 17.2099 12.0005C17.2099 12.4105 16.8699 12.7505 16.4599 12.7505Z" fill="#0DB1FF"/>
<path d="M12 17.2098C9.2 17.2098 6.43 16.8098 3.75 16.0198C3.74 16.4198 3.41 16.7498 3 16.7498C2.59 16.7498 2.25 16.4098 2.25 15.9998V14.9998C2.25 14.7598 2.37 14.5298 2.56 14.3898C2.75 14.2498 3.00999 14.2098 3.23999 14.2898C6.06999 15.2298 9.02 15.7098 12 15.7098C12.41 15.7098 12.75 16.0498 12.75 16.4598C12.75 16.8698 12.41 17.2098 12 17.2098Z" fill="#0DB1FF"/>
<path d="M21.0002 9.75037C20.9202 9.75037 20.8402 9.7404 20.7602 9.7104C15.1102 7.8304 8.88019 7.8304 3.23019 9.7104C2.84019 9.8404 2.41018 9.63036 2.28018 9.24036C2.15018 8.85036 2.36018 8.42035 2.75018 8.29035C8.71018 6.30035 15.2702 6.30035 21.2202 8.29035C21.6102 8.42035 21.8202 8.85036 21.6902 9.24036C21.6102 9.55036 21.3102 9.75037 21.0002 9.75037Z" fill="#0DB1FF"/>
<path d="M18.26 22.7498C15.78 22.7498 13.77 20.7298 13.77 18.2598C13.77 15.7898 15.79 13.7598 18.26 13.7598C18.76 13.7598 19.26 13.8297 19.73 13.9797C20.13 14.0997 20.35 14.5197 20.23 14.9197C20.11 15.3197 19.69 15.5397 19.29 15.4197C18.96 15.3197 18.61 15.2698 18.26 15.2698C16.61 15.2698 15.27 16.6098 15.27 18.2698C15.27 19.9298 16.61 21.2598 18.26 21.2598C19.91 21.2598 21.25 19.9198 21.25 18.2698C21.25 17.6698 21.08 17.0997 20.75 16.6097C20.52 16.2697 20.61 15.7998 20.96 15.5698C21.3 15.3398 21.77 15.4298 22 15.7798C22.5 16.5198 22.76 17.3898 22.76 18.2798C22.75 20.7298 20.73 22.7498 18.26 22.7498Z" fill="#0DB1FF"/>
<path d="M20.0403 15.5503C19.8303 15.5503 19.6202 15.4603 19.4702 15.2903L18.2202 13.8603C17.9502 13.5503 17.9803 13.0703 18.2903 12.8003C18.6003 12.5303 19.0702 12.5603 19.3502 12.8703L20.6002 14.3003C20.8702 14.6103 20.8402 15.0903 20.5302 15.3603C20.3902 15.4903 20.2203 15.5503 20.0403 15.5503Z" fill="#0DB1FF"/>
<path d="M18.58 16.6097C18.35 16.6097 18.12 16.4997 17.97 16.2997C17.73 15.9697 17.8 15.4997 18.13 15.2497L19.59 14.1897C19.92 13.9397 20.39 14.0197 20.64 14.3497C20.88 14.6797 20.81 15.1497 20.48 15.3997L19.02 16.4597C18.89 16.5597 18.74 16.6097 18.58 16.6097Z" fill="#0DB1FF"/>
</svg>
