<svg width="16" height="18" viewBox="0 0 16 18" fill="none" xmlns="http://www.w3.org/2000/svg">
<path d="M15.519 11.622C15.8411 11.225 16.0106 10.7265 15.997 10.2163C15.9743 9.77513 15.8182 9.35091 15.549 8.99968C15.7092 8.63599 15.7533 8.23228 15.6751 7.84284C15.5969 7.45339 15.4003 7.09704 15.112 6.82257C14.7189 6.53365 14.2724 6.32486 13.7981 6.20818C13.3238 6.0915 12.831 6.06961 12.348 6.14305C11.7785 6.17126 11.2123 6.24547 10.655 6.36567C10.483 6.39752 10.3 6.4366 10.115 6.47941C10.1427 5.77518 10.288 5.08053 10.545 4.42382C11.027 2.91568 10.999 1.7627 10.455 0.990215C10.253 0.71723 9.98888 0.495651 9.68437 0.343741C9.37987 0.19183 9.04359 0.113972 8.70299 0.11626C8.57599 0.115714 8.45049 0.143528 8.33562 0.197434C8.22074 0.251339 8.11939 0.329965 8.03899 0.427831C7.74052 0.938681 7.63787 1.53999 7.74999 2.12033C7.29599 3.37363 6.02199 6.44536 4.94499 7.29649C4.92505 7.31123 4.90663 7.32819 4.89 7.34656C4.60951 7.65434 4.38151 8.00567 4.21501 8.38675C4.00713 8.27029 3.77252 8.20903 3.53398 8.20933H1.43401C1.0481 8.21588 0.680513 8.37465 0.412035 8.65069C0.143557 8.92672 -0.00388333 9.29747 0.00200064 9.68164V15.4323C-0.00388333 15.8165 0.143557 16.1877 0.412035 16.4638C0.680513 16.7398 1.0481 16.8981 1.43401 16.9046H3.53398C3.8311 16.9043 4.12037 16.8098 4.35997 16.6349L5.16899 16.7345C6.69061 16.9248 8.22353 17.0115 9.75701 16.9936C10.167 17.0255 10.552 17.0432 10.91 17.0432C11.4471 17.051 11.9836 17.0011 12.51 16.894C12.9454 16.8369 13.3627 16.6848 13.7323 16.4487C14.1019 16.2126 14.4145 15.8983 14.648 15.5281C14.8675 15.1123 14.9494 14.6383 14.882 14.1734C15.1426 13.9455 15.3481 13.6617 15.4833 13.3437C15.6185 13.0257 15.68 12.6815 15.663 12.3366C15.651 12.0925 15.6024 11.8518 15.519 11.622ZM1.43102 15.9461C1.2961 15.943 1.16784 15.8868 1.07421 15.7901C0.980572 15.6933 0.929135 15.5638 0.931017 15.4294V9.67386C0.928872 9.53945 0.980211 9.40952 1.0739 9.31271C1.16759 9.2159 1.29601 9.16005 1.43102 9.15717H3.53099C3.666 9.16005 3.79436 9.2159 3.88805 9.31271C3.98174 9.40952 4.03314 9.53945 4.03099 9.67386V15.4246C4.03314 15.559 3.98174 15.6889 3.88805 15.7857C3.79436 15.8825 3.666 15.9384 3.53099 15.9413H1.43102V15.9461ZM14.638 11.2079C14.5669 11.2848 14.5224 11.3825 14.5113 11.4864C14.5001 11.5904 14.5228 11.6952 14.576 11.7854C14.6688 11.9693 14.7226 12.17 14.734 12.3754C14.7391 12.6174 14.6824 12.8569 14.5692 13.071C14.456 13.2852 14.2901 13.467 14.087 13.5999C14.0079 13.6639 13.9504 13.7507 13.9222 13.8482C13.8939 13.9457 13.8963 14.0491 13.929 14.1452C14.0116 14.4506 13.9785 14.7755 13.836 15.0581C13.6609 15.3064 13.4347 15.5151 13.1725 15.6695C12.9102 15.824 12.6179 15.9212 12.315 15.9544C11.4867 16.0993 10.6418 16.1251 9.80602 16.0317H9.75798C8.26232 16.0493 6.76722 15.9656 5.28301 15.7809L4.93498 15.7381C4.9558 15.6359 4.96619 15.5318 4.96599 15.4275V9.67386C4.96566 9.52518 4.94376 9.3774 4.90099 9.23494C5.01728 8.78666 5.23636 8.37106 5.541 8.02122C7.086 6.76096 8.59701 2.51156 8.66301 2.32739C8.69062 2.25159 8.69786 2.16964 8.68401 2.09019C8.62044 1.74912 8.63581 1.39835 8.72899 1.0641C8.91694 1.06355 9.10243 1.10611 9.27092 1.18902C9.43941 1.27193 9.5863 1.39292 9.7 1.5419C9.87829 1.94866 9.9669 2.38869 9.95983 2.83242C9.95275 3.27616 9.85015 3.71327 9.65898 4.11419C9.08098 5.91599 9.03298 6.86335 9.48998 7.28045C9.59014 7.36991 9.71313 7.43054 9.84545 7.45495C9.97776 7.47936 10.1143 7.46677 10.24 7.41898C10.45 7.36921 10.65 7.3264 10.84 7.29455L10.885 7.28385C11.942 7.04793 13.835 6.90146 14.492 7.51765C14.6555 7.68848 14.7561 7.9092 14.7773 8.1442C14.7986 8.3792 14.7392 8.61443 14.609 8.81157C14.5481 8.90768 14.523 9.02219 14.5382 9.13481C14.5534 9.24744 14.6078 9.35117 14.692 9.42791C14.911 9.65102 15.0459 9.94261 15.074 10.2533C15.0698 10.4335 15.0291 10.6107 14.9542 10.7748C14.8793 10.9389 14.7717 11.0864 14.638 11.2079Z" fill="#080E7B"/>
</svg>
