<svg width="17" height="22" viewBox="0 0 17 22" fill="none" xmlns="http://www.w3.org/2000/svg">
<path d="M8.28317 21.2936C8.02417 21.0396 1.81419 14.8187 0.932188 10.6767C0.932188 10.6217 0.915189 10.5857 0.915189 10.5497C0.811203 10.0011 0.758968 9.44398 0.759183 8.88565C0.707822 7.80315 0.876688 6.7215 1.25555 5.70616C1.63442 4.69083 2.21539 3.76294 2.96332 2.97868C3.71124 2.19443 4.61054 1.57013 5.60678 1.14357C6.60302 0.717011 7.67547 0.49707 8.75918 0.49707C9.8429 0.49707 10.9153 0.717011 11.9116 1.14357C12.9078 1.57013 13.8071 2.19443 14.5551 2.97868C15.303 3.76294 15.884 4.69083 16.2628 5.70616C16.6417 6.7215 16.8105 7.80315 16.7592 8.88565C16.7624 9.48073 16.7041 10.0746 16.5852 10.6577C16.5852 10.6937 16.5682 10.7307 16.5682 10.7667C15.6862 14.8187 9.51119 21.0216 9.25219 21.2936C9.1212 21.418 8.94872 21.4892 8.76819 21.4937C8.6779 21.4957 8.58816 21.479 8.50467 21.4446C8.42118 21.4102 8.34575 21.3587 8.28317 21.2936ZM2.15918 8.86865C2.1622 9.34192 2.20874 9.81391 2.29818 10.2787C2.31198 10.3065 2.31786 10.3377 2.31518 10.3687C2.97218 13.4447 7.29718 18.1836 8.76718 19.7206C10.2372 18.1836 14.5442 13.4447 15.2012 10.4417V10.3877C15.306 9.88816 15.3583 9.37904 15.3572 8.86865C15.3952 7.97825 15.2526 7.08938 14.938 6.25552C14.6235 5.42167 14.1434 4.66008 13.5268 4.01662C12.9102 3.37315 12.1698 2.86111 11.3501 2.51131C10.5304 2.1615 9.64838 1.98117 8.75717 1.98117C7.86596 1.98117 6.98396 2.1615 6.16427 2.51131C5.34458 2.86111 4.60416 3.37315 3.98755 4.01662C3.37094 4.66008 2.89091 5.42167 2.57635 6.25552C2.26179 7.08938 2.11922 7.97825 2.15719 8.86865H2.15918ZM6.08618 8.01865C6.1091 7.49351 6.28578 6.98667 6.59427 6.56107C6.90275 6.13547 7.32944 5.80987 7.82138 5.62468C8.31332 5.43949 8.84882 5.40289 9.36139 5.51941C9.87395 5.63593 10.341 5.90044 10.7045 6.28011C11.0681 6.65977 11.312 7.13786 11.4062 7.655C11.5004 8.17214 11.4406 8.70556 11.2342 9.189C11.0279 9.67243 10.684 10.0846 10.2455 10.3743C9.80686 10.6641 9.29282 10.8186 8.76718 10.8187C8.04086 10.8011 7.35108 10.4965 6.84881 9.97153C6.34654 9.44658 6.07269 8.74403 6.08719 8.01764L6.08618 8.01865ZM7.48617 8.01865C7.49714 8.26957 7.58159 8.51174 7.729 8.71509C7.87642 8.91844 8.0803 9.07401 8.31537 9.16248C8.55043 9.25095 8.80633 9.26843 9.05124 9.21274C9.29615 9.15705 9.5193 9.03063 9.69299 8.84921C9.86668 8.66779 9.98324 8.43936 10.0282 8.19226C10.0732 7.94516 10.0446 7.69028 9.94601 7.45929C9.8474 7.2283 9.68311 7.03137 9.47354 6.89294C9.26397 6.75452 9.01834 6.68071 8.76718 6.68066C8.59531 6.6843 8.42586 6.72178 8.26849 6.79095C8.11112 6.86013 7.96891 6.95966 7.85003 7.08383C7.73115 7.20801 7.63791 7.35438 7.57565 7.51462C7.51339 7.67485 7.48333 7.84578 7.48718 8.01764L7.48617 8.01865Z" fill="#0057FF"/>
</svg>
