<svg width="15" height="20" viewBox="0 0 15 20" fill="none" xmlns="http://www.w3.org/2000/svg">
<path d="M6.99409 19.1416L1.55708 12.5867C1.0901 12.0422 0.72282 11.4196 0.472087 10.7476C0.0491832 9.58418 -0.0924494 8.33736 0.0587565 7.10876C0.209962 5.88017 0.649711 4.70471 1.34208 3.67859C2.0135 2.66305 2.92618 1.82981 3.99845 1.2533C5.07073 0.676787 6.26915 0.375 7.48658 0.375C8.70401 0.375 9.90247 0.676787 10.9747 1.2533C12.047 1.82981 12.9597 2.66305 13.6311 3.67859C14.3238 4.70535 14.7635 5.88149 14.9144 7.11084C15.0653 8.34019 14.923 9.5878 14.4991 10.7516C14.2486 11.4231 13.8813 12.0451 13.4141 12.5886L7.97907 19.1416C7.91943 19.2148 7.84425 19.2738 7.75898 19.3143C7.67371 19.3548 7.5805 19.3759 7.48609 19.3759C7.39169 19.3759 7.29845 19.3548 7.21318 19.3143C7.1279 19.2738 7.05272 19.2148 6.99308 19.1416H6.99409ZM2.40708 4.43359C1.83356 5.28211 1.46906 6.25432 1.34339 7.27075C1.21773 8.28718 1.33448 9.31897 1.68409 10.2816C1.88207 10.8084 2.17188 11.2959 2.54008 11.7216L7.4871 17.6857L12.4311 11.7246C12.7982 11.3 13.0873 10.8138 13.2851 10.2886C13.6355 9.32528 13.7528 8.29274 13.6273 7.27539C13.5018 6.25805 13.1371 5.28493 12.5631 4.43567C12.0078 3.59651 11.2532 2.90796 10.3668 2.43164C9.48045 1.95532 8.48985 1.70605 7.48359 1.70605C6.47733 1.70605 5.48674 1.95532 4.60035 2.43164C3.71397 2.90796 2.95941 3.59651 2.40409 4.43567L2.40708 4.43359ZM3.8621 8.03357C3.88078 7.32071 4.10924 6.62922 4.5189 6.04553C4.92856 5.46185 5.50121 5.01198 6.16526 4.75208C6.82931 4.49217 7.55527 4.43382 8.2523 4.58435C8.94933 4.73489 9.58648 5.08761 10.0841 5.59839C10.5817 6.10917 10.9177 6.75533 11.0499 7.45605C11.1822 8.15678 11.1049 8.88093 10.8277 9.53796C10.5506 10.195 10.0858 10.7558 9.49165 11.15C8.89746 11.5443 8.2002 11.7546 7.4871 11.7546C6.51319 11.742 5.58403 11.3436 4.90351 10.6467C4.223 9.9499 3.84669 9.01154 3.8571 8.0376L3.8621 8.03357ZM5.15608 8.03357C5.16768 8.49191 5.31419 8.93664 5.57728 9.31213C5.84037 9.68762 6.20835 9.97724 6.63517 10.1447C7.062 10.3121 7.52872 10.3499 7.97694 10.2534C8.42515 10.1569 8.83495 9.9304 9.15507 9.60217C9.47519 9.27395 9.69142 8.85857 9.77668 8.40808C9.86195 7.95759 9.81247 7.49197 9.63444 7.06946C9.45641 6.64695 9.15775 6.28633 8.7758 6.03271C8.39385 5.7791 7.94559 5.6437 7.4871 5.64355C6.8602 5.65146 6.26208 5.90808 5.82423 6.35681C5.38638 6.80554 5.14461 7.40971 5.15208 8.03662L5.15608 8.03357Z" fill="#67747C"/>
</svg>
