<svg width="22" height="22" viewBox="0 0 22 22" fill="none" xmlns="http://www.w3.org/2000/svg">
<path d="M19.3311 21.9062L16.912 20.2732L14.5001 21.9002C14.4094 21.9623 14.302 21.9956 14.1921 21.9956C14.0821 21.9956 13.9747 21.9623 13.884 21.9002L11.4661 20.2672L9.05609 21.8952C8.96539 21.9573 8.85798 21.9906 8.74805 21.9906C8.63811 21.9906 8.53076 21.9573 8.44006 21.8952L6.02106 20.2612L3.61206 21.8902C3.52921 21.9474 3.43206 21.9802 3.33154 21.9852C3.23103 21.9901 3.13115 21.9669 3.04309 21.9182C2.95384 21.869 2.87953 21.7965 2.82812 21.7085C2.77672 21.6204 2.75008 21.5201 2.75104 21.4182V1.11823H1.55109C1.40164 1.11823 1.25826 1.05883 1.15259 0.953156C1.04691 0.847479 0.987549 0.704167 0.987549 0.554718C0.987549 0.405269 1.04691 0.261927 1.15259 0.15625C1.25826 0.0505733 1.40164 -0.00878906 1.55109 -0.00878906H21.4401C21.5898 -0.0040906 21.7317 0.0590219 21.8354 0.167053C21.9391 0.275085 21.9964 0.41945 21.9951 0.569214C21.9956 0.717313 21.9375 0.859619 21.8336 0.965088C21.7296 1.07056 21.5882 1.13062 21.4401 1.1322H20.1771L20.1871 21.4322C20.1877 21.5341 20.1609 21.6343 20.1096 21.7222C20.0582 21.8102 19.9841 21.8827 19.8951 21.9322C19.8133 21.9741 19.7229 21.9967 19.631 21.9982C19.5243 21.9967 19.4202 21.9648 19.3311 21.9062ZM11.777 19.1132L14.196 20.7472L16.605 19.1132C16.6957 19.0511 16.8031 19.0178 16.9131 19.0178C17.023 19.0178 17.1304 19.0511 17.2211 19.1132L19.0851 20.3702V1.12122H3.86304V20.3662L5.71808 19.1132C5.80878 19.0511 5.91613 19.0178 6.02606 19.0178C6.136 19.0178 6.24335 19.0511 6.33405 19.1132L8.75305 20.7412L11.162 19.1132C11.2527 19.0511 11.3601 19.0178 11.47 19.0178C11.58 19.0178 11.6874 19.0511 11.7781 19.1132H11.777ZM15.1351 15.5222C14.9856 15.5222 14.8423 15.4629 14.7366 15.3572C14.631 15.2515 14.5715 15.1082 14.5715 14.9587C14.5715 14.8093 14.631 14.6659 14.7366 14.5603C14.8423 14.4546 14.9856 14.3952 15.1351 14.3952H16.5881C16.7375 14.3952 16.8808 14.4546 16.9865 14.5603C17.0922 14.6659 17.1516 14.8093 17.1516 14.9587C17.1516 15.1082 17.0922 15.2515 16.9865 15.3572C16.8808 15.4629 16.7375 15.5222 16.5881 15.5222H15.1351ZM6.41608 15.5222C6.26663 15.5222 6.12325 15.4629 6.01758 15.3572C5.9119 15.2515 5.85254 15.1082 5.85254 14.9587C5.85254 14.8093 5.9119 14.6659 6.01758 14.5603C6.12325 14.4546 6.26663 14.3952 6.41608 14.3952H10.774C10.9235 14.3952 11.0668 14.4546 11.1725 14.5603C11.2782 14.6659 11.3376 14.8093 11.3376 14.9587C11.3376 15.1082 11.2782 15.2515 11.1725 15.3572C11.0668 15.4629 10.9235 15.5222 10.774 15.5222H6.41608ZM15.1351 13.5692C14.9856 13.5692 14.8423 13.5099 14.7366 13.4042C14.631 13.2985 14.5715 13.1552 14.5715 13.0057C14.5715 12.8563 14.631 12.7129 14.7366 12.6073C14.8423 12.5016 14.9856 12.4422 15.1351 12.4422H16.5881C16.7375 12.4422 16.8808 12.5016 16.9865 12.6073C17.0922 12.7129 17.1516 12.8563 17.1516 13.0057C17.1516 13.1552 17.0922 13.2985 16.9865 13.4042C16.8808 13.5099 16.7375 13.5692 16.5881 13.5692H15.1351ZM6.41608 13.5692C6.26663 13.5692 6.12325 13.5099 6.01758 13.4042C5.9119 13.2985 5.85254 13.1552 5.85254 13.0057C5.85254 12.8563 5.9119 12.7129 6.01758 12.6073C6.12325 12.5016 6.26663 12.4422 6.41608 12.4422H12.2311C12.3805 12.4422 12.5238 12.5016 12.6295 12.6073C12.7352 12.7129 12.7946 12.8563 12.7946 13.0057C12.7946 13.1552 12.7352 13.2985 12.6295 13.4042C12.5238 13.5099 12.3805 13.5692 12.2311 13.5692H6.41608ZM15.1351 10.9502C14.9856 10.9502 14.8423 10.8908 14.7366 10.7852C14.631 10.6795 14.5715 10.5362 14.5715 10.3867C14.5715 10.2373 14.631 10.0939 14.7366 9.98825C14.8423 9.88257 14.9856 9.82321 15.1351 9.82321H16.5881C16.7375 9.82321 16.8808 9.88257 16.9865 9.98825C17.0922 10.0939 17.1516 10.2373 17.1516 10.3867C17.1516 10.5362 17.0922 10.6795 16.9865 10.7852C16.8808 10.8908 16.7375 10.9502 16.5881 10.9502H15.1351ZM6.41608 10.9502C6.26663 10.9502 6.12325 10.8908 6.01758 10.7852C5.9119 10.6795 5.85254 10.5362 5.85254 10.3867C5.85254 10.2373 5.9119 10.0939 6.01758 9.98825C6.12325 9.88257 6.26663 9.82321 6.41608 9.82321H10.774C10.9235 9.82321 11.0668 9.88257 11.1725 9.98825C11.2782 10.0939 11.3376 10.2373 11.3376 10.3867C11.3376 10.5362 11.2782 10.6795 11.1725 10.7852C11.0668 10.8908 10.9235 10.9502 10.774 10.9502H6.41608ZM15.1351 8.99222C14.9856 8.99222 14.8423 8.93286 14.7366 8.82718C14.631 8.7215 14.5715 8.57816 14.5715 8.42871C14.5715 8.27926 14.631 8.13595 14.7366 8.03027C14.8423 7.9246 14.9856 7.8652 15.1351 7.8652H16.5881C16.7375 7.8652 16.8808 7.9246 16.9865 8.03027C17.0922 8.13595 17.1516 8.27926 17.1516 8.42871C17.1516 8.57816 17.0922 8.7215 16.9865 8.82718C16.8808 8.93286 16.7375 8.99222 16.5881 8.99222H15.1351ZM6.41608 8.99222C6.26663 8.99222 6.12325 8.93286 6.01758 8.82718C5.9119 8.7215 5.85254 8.57816 5.85254 8.42871C5.85254 8.27926 5.9119 8.13595 6.01758 8.03027C6.12325 7.9246 6.26663 7.8652 6.41608 7.8652H12.2311C12.3805 7.8652 12.5238 7.9246 12.6295 8.03027C12.7352 8.13595 12.7946 8.27926 12.7946 8.42871C12.7946 8.57816 12.7352 8.7215 12.6295 8.82718C12.5238 8.93286 12.3805 8.99222 12.2311 8.99222H6.41608ZM15.1351 6.42422C14.9858 6.42422 14.8425 6.36489 14.7369 6.25931C14.6314 6.15372 14.5721 6.01052 14.5721 5.86121C14.5721 5.71189 14.6314 5.56869 14.7369 5.4631C14.8425 5.35752 14.9858 5.29822 15.1351 5.29822H16.5881C16.7374 5.29822 16.8806 5.35752 16.9861 5.4631C17.0917 5.56869 17.1511 5.71189 17.1511 5.86121C17.1511 6.01052 17.0917 6.15372 16.9861 6.25931C16.8806 6.36489 16.7374 6.42422 16.5881 6.42422H15.1351ZM6.41608 6.42422C6.26676 6.42422 6.12353 6.36489 6.01794 6.25931C5.91236 6.15372 5.85309 6.01052 5.85309 5.86121C5.85309 5.71189 5.91236 5.56869 6.01794 5.4631C6.12353 5.35752 6.26676 5.29822 6.41608 5.29822H10.774C10.9234 5.29822 11.0666 5.35752 11.1722 5.4631C11.2778 5.56869 11.337 5.71189 11.337 5.86121C11.337 6.01052 11.2778 6.15372 11.1722 6.25931C11.0666 6.36489 10.9234 6.42422 10.774 6.42422H6.41608ZM15.1351 4.47122C14.9858 4.47122 14.8425 4.41189 14.7369 4.3063C14.6314 4.20072 14.5721 4.05752 14.5721 3.9082C14.5721 3.75889 14.6314 3.61568 14.7369 3.5101C14.8425 3.40452 14.9858 3.34521 15.1351 3.34521H16.5881C16.7374 3.34521 16.8806 3.40452 16.9861 3.5101C17.0917 3.61568 17.1511 3.75889 17.1511 3.9082C17.1511 4.05752 17.0917 4.20072 16.9861 4.3063C16.8806 4.41189 16.7374 4.47122 16.5881 4.47122H15.1351ZM6.41608 4.47122C6.26676 4.47122 6.12353 4.41189 6.01794 4.3063C5.91236 4.20072 5.85309 4.05752 5.85309 3.9082C5.85309 3.75889 5.91236 3.61568 6.01794 3.5101C6.12353 3.40452 6.26676 3.34521 6.41608 3.34521H12.2311C12.3804 3.34521 12.5236 3.40452 12.6292 3.5101C12.7347 3.61568 12.7941 3.75889 12.7941 3.9082C12.7941 4.05752 12.7347 4.20072 12.6292 4.3063C12.5236 4.41189 12.3804 4.47122 12.2311 4.47122H6.41608Z" fill="#297CBB"/>
</svg>
