<svg width="23" height="23" viewBox="0 0 23 23" fill="none" xmlns="http://www.w3.org/2000/svg">
<path d="M11.5 7.46214V5.03906M11.5 7.46214C10.1592 7.46214 9.0769 7.46214 9.0769 9.07752C9.0769 11.5006 13.9231 11.5006 13.9231 13.9237C13.9231 15.5391 12.8408 15.5391 11.5 15.5391M11.5 7.46214C12.8408 7.46214 13.9231 8.07599 13.9231 9.07752M9.0769 13.9237C9.0769 15.1352 10.1592 15.5391 11.5 15.5391M11.5 15.5391V17.9621" stroke="#297CBB" stroke-linecap="round" stroke-linejoin="round"/>
<path d="M11.5 22C17.299 22 22 17.299 22 11.5C22 5.70101 17.299 1 11.5 1C5.70101 1 1 5.70101 1 11.5C1 17.299 5.70101 22 11.5 22Z" stroke="#297CBB" stroke-linecap="round" stroke-linejoin="round"/>
</svg>
