<svg width="20" height="21" viewBox="0 0 20 21" fill="none" xmlns="http://www.w3.org/2000/svg">
<path d="M16.2 12.8489C15.6276 12.8466 15.0619 12.9709 14.5432 13.2129C14.0245 13.455 13.5658 13.8087 13.2 14.2489L7.37195 11.1799C7.51149 10.8025 7.583 10.4033 7.58301 10.0009C7.58352 9.59643 7.51026 9.19519 7.36694 8.81692L13.191 5.75194C13.5573 6.1939 14.0173 6.5488 14.5377 6.79095C15.0582 7.03309 15.626 7.15641 16.2 7.15194C16.8982 7.11073 17.5692 6.86597 18.13 6.44787C18.6908 6.02977 19.1169 5.45662 19.3557 4.79916C19.5945 4.14169 19.6357 3.42868 19.474 2.74813C19.3123 2.06758 18.9548 1.44928 18.4458 0.969504C17.9368 0.489729 17.2984 0.169477 16.6095 0.0483006C15.9206 -0.0728753 15.2113 0.0103047 14.5691 0.287589C13.9269 0.564873 13.3799 1.02413 12.9957 1.60866C12.6115 2.1932 12.4068 2.87743 12.407 3.57693C12.4062 3.98114 12.4794 4.3821 12.623 4.75994L6.80396 7.82494C6.43818 7.38239 5.97832 7.02704 5.45776 6.78484C4.93721 6.54264 4.36916 6.41967 3.79504 6.42492C3.30737 6.3955 2.81873 6.46618 2.35938 6.63256C1.90002 6.79894 1.47962 7.05751 1.1239 7.39242C0.768187 7.72732 0.484758 8.13147 0.291016 8.57998C0.0972736 9.02848 -0.00268555 9.51186 -0.00268555 10.0004C-0.00268555 10.489 0.0972736 10.9724 0.291016 11.4209C0.484758 11.8694 0.768187 12.2735 1.1239 12.6084C1.47962 12.9433 1.90002 13.2019 2.35938 13.3683C2.81873 13.5347 3.30737 13.6053 3.79504 13.5759C4.37024 13.5793 4.93897 13.4547 5.46008 13.2112C5.98119 12.9677 6.44158 12.6113 6.80798 12.1679L12.632 15.2359C12.4874 15.6168 12.4129 16.0206 12.412 16.4279C12.3671 17.1879 12.5516 17.9438 12.9414 18.5978C13.3312 19.2517 13.9085 19.7734 14.5984 20.0954C15.2883 20.4173 16.059 20.5247 16.8105 20.4034C17.5621 20.2822 18.2599 19.938 18.8136 19.4155C19.3673 18.893 19.7512 18.2162 19.9156 17.4728C20.0801 16.7295 20.0175 15.9539 19.736 15.2466C19.4544 14.5393 18.967 13.9328 18.3367 13.5059C17.7064 13.0789 16.9624 12.851 16.201 12.8519L16.2 12.8489ZM16.2 1.12594C16.6792 1.15367 17.14 1.32115 17.5251 1.60772C17.9103 1.89428 18.2032 2.28736 18.3676 2.73846C18.5319 3.18955 18.5604 3.6789 18.4498 4.14608C18.3392 4.61326 18.0943 5.03783 17.7451 5.36736C17.396 5.6969 16.958 5.91697 16.4852 6.00042C16.0124 6.08387 15.5256 6.02704 15.0847 5.83694C14.6439 5.64684 14.2684 5.33178 14.0045 4.93069C13.7407 4.5296 13.6 4.06001 13.6 3.57992C13.6206 2.91007 13.9058 2.2757 14.3931 1.8156C14.8803 1.35551 15.53 1.10716 16.2 1.12493V1.12594ZM3.80005 12.4499C3.32046 12.4224 2.85939 12.255 2.47388 11.9684C2.08837 11.6818 1.79527 11.2885 1.63074 10.8372C1.46621 10.3859 1.43748 9.89623 1.5481 9.42876C1.65871 8.96129 1.90383 8.53645 2.25317 8.20672C2.60252 7.87699 3.04072 7.6568 3.51379 7.57336C3.98687 7.48991 4.47409 7.54687 4.91516 7.73717C5.35624 7.92748 5.73185 8.2428 5.99573 8.64422C6.2596 9.04563 6.40021 9.51555 6.40002 9.99593C6.37885 10.6655 6.09351 11.2995 5.60632 11.7593C5.11914 12.2192 4.46974 12.4675 3.80005 12.4499ZM16.205 18.8739C15.7254 18.8464 15.2644 18.679 14.8789 18.3924C14.4934 18.1057 14.2003 17.7125 14.0358 17.2612C13.8712 16.8098 13.8425 16.3202 13.9531 15.8527C14.0637 15.3853 14.3089 14.9605 14.6582 14.6307C15.0075 14.301 15.4457 14.0808 15.9188 13.9974C16.3919 13.9139 16.8791 13.9709 17.3202 14.1612C17.7613 14.3515 18.1369 14.6668 18.4008 15.0682C18.6646 15.4696 18.8052 15.9396 18.8051 16.4199C18.7841 17.0905 18.4981 17.7254 18.0098 18.1854C17.5214 18.6454 16.8706 18.893 16.2 18.8739H16.205Z" fill="#3B444F"/>
</svg>
