<svg width="22" height="20" viewBox="0 0 22 20" fill="none" xmlns="http://www.w3.org/2000/svg">
<mask id="path-1-inside-1_2440_59865" fill="white">
<path d="M5.38321 19.9973C4.89033 19.9965 4.41384 19.8222 4.03945 19.5056C3.66506 19.189 3.41733 18.751 3.34066 18.2701L2.01792 10.339C1.61148 10.3047 1.23293 10.1206 0.957652 9.82337C0.682377 9.52609 0.530535 9.13738 0.532243 8.73455V7.81644C0.530283 7.39227 0.698811 6.98466 1.0008 6.68302C1.30279 6.38139 1.71357 6.21037 2.14309 6.20749H3.24032L3.26605 6.17931L9.24919 0.202516C9.31278 0.138421 9.38869 0.0875048 9.47246 0.0527426C9.55623 0.0179804 9.64621 6.93525e-05 9.73707 6.93525e-05C9.82794 6.93525e-05 9.91792 0.0179804 10.0017 0.0527426C10.0855 0.0875048 10.1614 0.138421 10.225 0.202516C10.3547 0.332319 10.4274 0.507367 10.4274 0.689752C10.4274 0.872138 10.3547 1.04718 10.225 1.17698L5.19084 6.20658H17.0457L12.0106 1.17698C11.8811 1.04706 11.8085 0.872066 11.8085 0.689752C11.8085 0.507438 11.8811 0.332433 12.0106 0.202516C12.0743 0.138394 12.1503 0.087454 12.2341 0.0526802C12.318 0.0179063 12.408 0 12.499 0C12.5899 0 12.68 0.0179063 12.7638 0.0526802C12.8477 0.087454 12.9236 0.138394 12.9873 0.202516L18.9704 6.17931L18.9962 6.20749H20.0934C20.5229 6.21037 20.9337 6.38139 21.2357 6.68302C21.5377 6.98466 21.7062 7.39227 21.7043 7.81644V8.73637C21.7056 9.13692 21.5553 9.52349 21.2828 9.82018C21.0103 10.1169 20.6353 10.3022 20.2315 10.3399L19.1039 18.2238C19.0346 18.7135 18.7894 19.1624 18.4129 19.4884C18.0364 19.8145 17.5538 19.996 17.0531 20L5.38321 19.9973ZM4.70206 18.042C4.72767 18.2023 4.81027 18.3484 4.9351 18.4541C5.05993 18.5597 5.21882 18.6179 5.38321 18.6183H17.0531C17.2199 18.6169 17.3807 18.5564 17.5062 18.4478C17.6317 18.3392 17.7137 18.1897 17.737 18.0265L18.8352 10.3426H13.188C13.0072 10.3361 12.836 10.2606 12.7104 10.132C12.5849 10.0034 12.5147 9.83176 12.5147 9.65311C12.5147 9.47446 12.5849 9.30278 12.7104 9.17418C12.836 9.04559 13.0072 8.97011 13.188 8.96362H20.0916C20.153 8.96314 20.2116 8.93867 20.2548 8.89557C20.2979 8.85246 20.322 8.79424 20.3217 8.73364V7.81644C20.322 7.7864 20.3162 7.75661 20.3048 7.72878C20.2933 7.70095 20.2764 7.67562 20.255 7.65426C20.2336 7.63289 20.2082 7.6159 20.1802 7.60427C20.1521 7.59263 20.122 7.58658 20.0916 7.58646H2.14219C2.11177 7.58658 2.08169 7.59263 2.05365 7.60427C2.0256 7.6159 2.00008 7.63289 1.9787 7.65426C1.95732 7.67562 1.94048 7.70095 1.92904 7.72878C1.91759 7.75661 1.91183 7.7864 1.91207 7.81644V8.73637C1.91183 8.76641 1.91759 8.7962 1.92904 8.82403C1.94048 8.85186 1.95732 8.87719 1.9787 8.89856C2.00008 8.91993 2.0256 8.93691 2.05365 8.94855C2.08169 8.96018 2.11177 8.96623 2.14219 8.96635H9.04581C9.2266 8.97283 9.39778 9.04832 9.52336 9.17691C9.64893 9.30551 9.71909 9.47719 9.71909 9.65584C9.71909 9.83449 9.64893 10.0062 9.52336 10.1348C9.39778 10.2634 9.2266 10.3389 9.04581 10.3453H3.41707L4.70206 18.042ZM14.5696 16.5612V12.407C14.5696 12.2262 14.6424 12.0528 14.7719 11.9249C14.9013 11.797 15.0769 11.7252 15.26 11.7252C15.4431 11.7252 15.6186 11.797 15.7481 11.9249C15.8775 12.0528 15.9503 12.2262 15.9503 12.407V16.5603C15.9503 16.7411 15.8775 16.9145 15.7481 17.0424C15.6186 17.1702 15.4431 17.242 15.26 17.242C15.0769 17.242 14.9013 17.1702 14.7719 17.0424C14.6424 16.9145 14.5696 16.742 14.5696 16.5612ZM10.4274 16.5612V12.407C10.4274 12.2262 10.5002 12.0528 10.6297 11.9249C10.7592 11.797 10.9347 11.7252 11.1178 11.7252C11.3009 11.7252 11.4764 11.797 11.6059 11.9249C11.7354 12.0528 11.8082 12.2262 11.8082 12.407V16.5603C11.8082 16.7411 11.7354 16.9145 11.6059 17.0424C11.4764 17.1702 11.3009 17.242 11.1178 17.242C10.9347 17.242 10.7592 17.1702 10.6297 17.0424C10.5002 16.9145 10.4274 16.742 10.4274 16.5612ZM6.28526 16.5612V12.407C6.28526 12.2262 6.35805 12.0528 6.48752 11.9249C6.61698 11.797 6.79253 11.7252 6.97562 11.7252C7.15872 11.7252 7.33426 11.797 7.46373 11.9249C7.5932 12.0528 7.66599 12.2262 7.66599 12.407V16.5603C7.66599 16.7411 7.5932 16.9145 7.46373 17.0424C7.33426 17.1702 7.15872 17.242 6.97562 17.242C6.79253 17.242 6.61698 17.1702 6.48752 17.0424C6.35805 16.9145 6.28526 16.742 6.28526 16.5612Z"/>
</mask>
<path d="M5.38321 19.9973C4.89033 19.9965 4.41384 19.8222 4.03945 19.5056C3.66506 19.189 3.41733 18.751 3.34066 18.2701L2.01792 10.339C1.61148 10.3047 1.23293 10.1206 0.957652 9.82337C0.682377 9.52609 0.530535 9.13738 0.532243 8.73455V7.81644C0.530283 7.39227 0.698811 6.98466 1.0008 6.68302C1.30279 6.38139 1.71357 6.21037 2.14309 6.20749H3.24032L3.26605 6.17931L9.24919 0.202516C9.31278 0.138421 9.38869 0.0875048 9.47246 0.0527426C9.55623 0.0179804 9.64621 6.93525e-05 9.73707 6.93525e-05C9.82794 6.93525e-05 9.91792 0.0179804 10.0017 0.0527426C10.0855 0.0875048 10.1614 0.138421 10.225 0.202516C10.3547 0.332319 10.4274 0.507367 10.4274 0.689752C10.4274 0.872138 10.3547 1.04718 10.225 1.17698L5.19084 6.20658H17.0457L12.0106 1.17698C11.8811 1.04706 11.8085 0.872066 11.8085 0.689752C11.8085 0.507438 11.8811 0.332433 12.0106 0.202516C12.0743 0.138394 12.1503 0.087454 12.2341 0.0526802C12.318 0.0179063 12.408 0 12.499 0C12.5899 0 12.68 0.0179063 12.7638 0.0526802C12.8477 0.087454 12.9236 0.138394 12.9873 0.202516L18.9704 6.17931L18.9962 6.20749H20.0934C20.5229 6.21037 20.9337 6.38139 21.2357 6.68302C21.5377 6.98466 21.7062 7.39227 21.7043 7.81644V8.73637C21.7056 9.13692 21.5553 9.52349 21.2828 9.82018C21.0103 10.1169 20.6353 10.3022 20.2315 10.3399L19.1039 18.2238C19.0346 18.7135 18.7894 19.1624 18.4129 19.4884C18.0364 19.8145 17.5538 19.996 17.0531 20L5.38321 19.9973ZM4.70206 18.042C4.72767 18.2023 4.81027 18.3484 4.9351 18.4541C5.05993 18.5597 5.21882 18.6179 5.38321 18.6183H17.0531C17.2199 18.6169 17.3807 18.5564 17.5062 18.4478C17.6317 18.3392 17.7137 18.1897 17.737 18.0265L18.8352 10.3426H13.188C13.0072 10.3361 12.836 10.2606 12.7104 10.132C12.5849 10.0034 12.5147 9.83176 12.5147 9.65311C12.5147 9.47446 12.5849 9.30278 12.7104 9.17418C12.836 9.04559 13.0072 8.97011 13.188 8.96362H20.0916C20.153 8.96314 20.2116 8.93867 20.2548 8.89557C20.2979 8.85246 20.322 8.79424 20.3217 8.73364V7.81644C20.322 7.7864 20.3162 7.75661 20.3048 7.72878C20.2933 7.70095 20.2764 7.67562 20.255 7.65426C20.2336 7.63289 20.2082 7.6159 20.1802 7.60427C20.1521 7.59263 20.122 7.58658 20.0916 7.58646H2.14219C2.11177 7.58658 2.08169 7.59263 2.05365 7.60427C2.0256 7.6159 2.00008 7.63289 1.9787 7.65426C1.95732 7.67562 1.94048 7.70095 1.92904 7.72878C1.91759 7.75661 1.91183 7.7864 1.91207 7.81644V8.73637C1.91183 8.76641 1.91759 8.7962 1.92904 8.82403C1.94048 8.85186 1.95732 8.87719 1.9787 8.89856C2.00008 8.91993 2.0256 8.93691 2.05365 8.94855C2.08169 8.96018 2.11177 8.96623 2.14219 8.96635H9.04581C9.2266 8.97283 9.39778 9.04832 9.52336 9.17691C9.64893 9.30551 9.71909 9.47719 9.71909 9.65584C9.71909 9.83449 9.64893 10.0062 9.52336 10.1348C9.39778 10.2634 9.2266 10.3389 9.04581 10.3453H3.41707L4.70206 18.042ZM14.5696 16.5612V12.407C14.5696 12.2262 14.6424 12.0528 14.7719 11.9249C14.9013 11.797 15.0769 11.7252 15.26 11.7252C15.4431 11.7252 15.6186 11.797 15.7481 11.9249C15.8775 12.0528 15.9503 12.2262 15.9503 12.407V16.5603C15.9503 16.7411 15.8775 16.9145 15.7481 17.0424C15.6186 17.1702 15.4431 17.242 15.26 17.242C15.0769 17.242 14.9013 17.1702 14.7719 17.0424C14.6424 16.9145 14.5696 16.742 14.5696 16.5612ZM10.4274 16.5612V12.407C10.4274 12.2262 10.5002 12.0528 10.6297 11.9249C10.7592 11.797 10.9347 11.7252 11.1178 11.7252C11.3009 11.7252 11.4764 11.797 11.6059 11.9249C11.7354 12.0528 11.8082 12.2262 11.8082 12.407V16.5603C11.8082 16.7411 11.7354 16.9145 11.6059 17.0424C11.4764 17.1702 11.3009 17.242 11.1178 17.242C10.9347 17.242 10.7592 17.1702 10.6297 17.0424C10.5002 16.9145 10.4274 16.742 10.4274 16.5612ZM6.28526 16.5612V12.407C6.28526 12.2262 6.35805 12.0528 6.48752 11.9249C6.61698 11.797 6.79253 11.7252 6.97562 11.7252C7.15872 11.7252 7.33426 11.797 7.46373 11.9249C7.5932 12.0528 7.66599 12.2262 7.66599 12.407V16.5603C7.66599 16.7411 7.5932 16.9145 7.46373 17.0424C7.33426 17.1702 7.15872 17.242 6.97562 17.242C6.79253 17.242 6.61698 17.1702 6.48752 17.0424C6.35805 16.9145 6.28526 16.742 6.28526 16.5612Z" fill="#0DB1FF" stroke="#0DB1FF" stroke-width="4" mask="url(#path-1-inside-1_2440_59865)"/>
</svg>
