<svg width="14" height="17" viewBox="0 0 14 17" fill="none" xmlns="http://www.w3.org/2000/svg">
<path d="M12.6481 5.9472C12.5922 5.91221 12.53 5.88851 12.465 5.87756C12.3999 5.86661 12.3334 5.8686 12.2692 5.88336C12.2049 5.89812 12.1442 5.92539 12.0905 5.96362C12.0367 6.00185 11.991 6.05032 11.9561 6.1062C11.9211 6.16208 11.8974 6.22429 11.8865 6.2893C11.8755 6.35432 11.8775 6.42085 11.8923 6.48511C11.907 6.54936 11.9343 6.6101 11.9725 6.66382C12.0108 6.71753 12.0592 6.76316 12.1151 6.79815C12.3832 6.96447 12.6045 7.19647 12.7579 7.47217C12.9113 7.74787 12.9918 8.05815 12.9918 8.37366C12.9918 8.68917 12.9113 8.99951 12.7579 9.27521C12.6045 9.55091 12.3832 9.78284 12.1151 9.94916L3.8551 15.0832C3.57341 15.2587 3.24996 15.3557 2.91821 15.3643C2.58645 15.3728 2.25839 15.2926 1.96801 15.132C1.67764 14.9713 1.43548 14.7359 1.26654 14.4503C1.09759 14.1646 1.00802 13.8391 1.00708 13.5072V3.24017C1.0082 2.90839 1.09789 2.58293 1.2669 2.29742C1.43592 2.01192 1.67816 1.77671 1.9685 1.61615C2.25884 1.45558 2.58678 1.37548 2.91845 1.38409C3.25012 1.39271 3.57348 1.48974 3.8551 1.66516L8.66406 4.65417C8.72 4.68917 8.78233 4.71283 8.84741 4.72375C8.91249 4.73468 8.97909 4.73264 9.04339 4.71783C9.1077 4.70302 9.16842 4.67568 9.22216 4.63739C9.27591 4.5991 9.32157 4.55063 9.35656 4.49469C9.39156 4.43875 9.41522 4.37648 9.42614 4.3114C9.43707 4.24632 9.43503 4.17972 9.42022 4.11542C9.40541 4.05111 9.37813 3.99032 9.33984 3.93658C9.30155 3.88284 9.25302 3.83718 9.19708 3.80218L4.38806 0.814207C3.95416 0.543787 3.45591 0.394178 2.94482 0.380858C2.43373 0.367537 1.9284 0.49095 1.48101 0.738401C1.03362 0.985853 0.660437 1.34832 0.400081 1.78833C0.139726 2.22833 0.0016031 2.72995 5.68727e-05 3.24121V13.5092C-0.00318834 14.0205 0.132504 14.5233 0.392635 14.9636C0.652766 15.4039 1.02762 15.7652 1.47711 16.0092C1.92392 16.2604 2.4303 16.3862 2.94274 16.3732C3.45519 16.3601 3.95458 16.2088 4.38806 15.9352L12.6481 10.8012C13.0613 10.5452 13.4024 10.1878 13.6389 9.76312C13.8754 9.33839 13.9995 8.86034 13.9995 8.3742C13.9995 7.88807 13.8754 7.40996 13.6389 6.98523C13.4024 6.5605 13.0613 6.20322 12.6481 5.9472Z" fill="#297CBB"/>
</svg>
