<svg width="327" height="109" viewBox="0 0 327 109" fill="none" xmlns="http://www.w3.org/2000/svg">
<path d="M59.0855 26.49C59.0855 29.79 58.2455 32.94 56.5655 35.94C54.9455 38.94 52.7255 41.58 49.9055 43.86C47.1455 46.08 43.8755 47.85 40.0955 49.17C36.3755 50.49 32.4155 51.15 28.2155 51.15C26.7155 51.15 25.5155 50.97 24.6155 50.61C23.7755 50.19 22.8155 49.41 21.7355 48.27C18.7355 54.81 16.2755 60.84 14.3555 66.36C12.4955 71.82 11.0255 77.13 9.94551 82.29C7.66551 81.75 5.80551 80.79 4.36551 79.41C2.92551 78.09 1.60551 76.41 0.405506 74.37C1.00551 73.23 1.72551 71.73 2.56551 69.87C3.40551 68.01 4.42551 65.73 5.62551 63.03C6.82551 60.27 8.20551 57 9.76551 53.22C11.3855 49.38 13.2755 44.91 15.4355 39.81C16.3955 37.47 17.2355 35.43 17.9555 33.69C18.6755 31.95 19.3055 30.33 19.8455 28.83C20.3855 27.27 20.8655 25.74 21.2855 24.24C21.7655 22.74 22.2455 21.09 22.7255 19.29C19.9055 20.19 17.2955 21.24 14.8955 22.44C12.5555 23.64 10.6055 24.9 9.04551 26.22C8.50551 25.86 7.93551 25.32 7.33551 24.6C6.79551 23.88 6.28551 23.1 5.80551 22.26C5.32551 21.36 4.90551 20.46 4.54551 19.56C4.18551 18.66 3.97551 17.85 3.91551 17.13C5.65551 15.93 7.81551 14.82 10.3955 13.8C12.9755 12.78 15.7355 11.91 18.6755 11.19C21.6155 10.41 24.6455 9.81 27.7655 9.39C30.9455 8.97 33.9755 8.75999 36.8555 8.75999C40.2755 8.75999 43.3655 9.21 46.1255 10.11C48.8855 10.95 51.2255 12.15 53.1455 13.71C55.0655 15.27 56.5355 17.13 57.5555 19.29C58.5755 21.45 59.0855 23.85 59.0855 26.49ZM43.0655 15.69C40.7855 15.69 38.4455 15.87 36.0455 16.23L37.1255 17.85C36.5255 18.63 35.7755 19.8 34.8755 21.36C33.9755 22.92 32.9855 24.81 31.9055 27.03C30.8255 29.19 29.6255 31.62 28.3055 34.32C27.0455 37.02 25.6955 39.87 24.2555 42.87C28.9355 42.87 33.1955 42.45 37.0355 41.61C40.8755 40.71 44.1455 39.51 46.8455 38.01C49.6055 36.45 51.7355 34.65 53.2355 32.61C54.7955 30.57 55.5755 28.38 55.5755 26.04C55.5755 22.92 54.5255 20.43 52.4255 18.57C50.3255 16.65 47.2055 15.69 43.0655 15.69ZM84.0324 38.64C84.6324 38.64 85.3224 38.76 86.1024 39C86.9424 39.18 87.6924 39.45 88.3524 39.81C89.0124 40.11 89.5524 40.44 89.9724 40.8C90.4524 41.16 90.6924 41.49 90.6924 41.79C89.4924 44.31 88.3824 46.86 87.3624 49.44C86.3424 51.96 85.4724 54.39 84.7524 56.73C84.0324 59.07 83.4624 61.26 83.0424 63.3C82.6824 65.34 82.5024 67.11 82.5024 68.61C82.5024 70.29 82.6824 71.7 83.0424 72.84C83.4024 73.92 84.0024 74.7 84.8424 75.18C84.1224 75.66 83.1924 76.05 82.0524 76.35C80.9124 76.65 79.8924 76.8 78.9924 76.8C75.7524 76.8 74.1324 74.58 74.1324 70.14C74.1324 66.72 75.2724 62.04 77.5524 56.1C76.3524 58.86 74.9724 61.47 73.4124 63.93C71.8524 66.33 70.2624 68.46 68.6424 70.32C67.0224 72.18 65.3724 73.71 63.6924 74.91C62.0724 76.05 60.5724 76.74 59.1924 76.98C56.9724 76.86 55.1724 75.81 53.7924 73.83C52.4124 71.79 51.7224 69.21 51.7224 66.09C51.7224 62.73 52.4424 59.19 53.8824 55.47C55.3224 51.75 57.1524 48.3 59.3724 45.12C61.6524 41.94 64.1124 39.3 66.7524 37.2C69.3924 35.04 71.9424 33.9 74.4024 33.78C75.0024 33.96 75.6624 34.32 76.3824 34.86C77.1624 35.4 77.8824 36.03 78.5424 36.75C79.2624 37.47 79.8624 38.22 80.3424 39C80.8224 39.72 81.0924 40.35 81.1524 40.89C78.7524 41.25 76.2624 42.42 73.6824 44.4C71.1624 46.38 68.8524 48.78 66.7524 51.6C64.7124 54.36 63.0324 57.33 61.7124 60.51C60.3924 63.69 59.7324 66.66 59.7324 69.42C59.7324 70.56 60.1524 71.28 60.9924 71.58C62.7324 71.22 64.7424 69.75 67.0224 67.17C69.3024 64.53 72.0624 60.48 75.3024 55.02C75.9024 53.94 76.5624 52.74 77.2824 51.42C78.0624 50.1 78.8424 48.72 79.6224 47.28C80.4024 45.84 81.1524 44.4 81.8724 42.96C82.6524 41.46 83.3724 40.02 84.0324 38.64ZM95.0946 59.16C95.0946 55.74 95.7846 52.44 97.1646 49.26C98.6046 46.02 100.465 43.17 102.745 40.71C105.085 38.19 107.725 36.18 110.665 34.68C113.665 33.12 116.755 32.34 119.935 32.34C123.055 32.34 125.455 33.12 127.135 34.68C128.815 36.24 129.655 38.46 129.655 41.34C129.655 42.72 129.445 44.07 129.025 45.39C128.665 46.65 128.155 47.79 127.495 48.81C126.895 49.83 126.175 50.67 125.335 51.33C124.495 51.93 123.655 52.23 122.815 52.23C122.095 52.23 121.345 52.02 120.565 51.6C119.845 51.12 119.245 50.52 118.765 49.8C122.785 46.14 124.795 42.81 124.795 39.81C124.795 38.07 124.105 37.2 122.725 37.2C121.525 37.2 120.025 37.77 118.225 38.91C116.425 40.05 114.685 41.55 113.005 43.41C110.425 46.29 108.445 49.5 107.065 53.04C105.745 56.52 105.085 60.18 105.085 64.02C105.085 68.88 106.165 71.79 108.325 72.75C109.225 72.63 110.275 72.36 111.475 71.94C112.675 71.52 113.965 70.98 115.345 70.32C116.725 69.6 118.135 68.79 119.575 67.89C121.075 66.99 122.515 66.03 123.895 65.01C124.135 65.19 124.345 65.46 124.525 65.82C124.705 66.18 124.795 66.51 124.795 66.81C123.775 68.07 122.605 69.3 121.285 70.5C119.965 71.7 118.585 72.81 117.145 73.83C115.705 74.79 114.295 75.6 112.915 76.26C111.595 76.98 110.425 77.43 109.405 77.61C107.425 77.43 105.565 76.8 103.825 75.72C102.085 74.7 100.555 73.35 99.2346 71.67C97.9746 69.99 96.9546 68.07 96.1746 65.91C95.4546 63.75 95.0946 61.5 95.0946 59.16ZM132.528 66.54C132.528 64.38 133.068 61.38 134.148 57.54C135.288 53.7 136.758 49.5 138.558 44.94C140.358 40.38 142.398 35.67 144.678 30.81C146.958 25.95 149.238 21.42 151.518 17.22C153.858 13.02 156.078 9.39 158.178 6.33C160.338 3.27 162.168 1.2 163.668 0.119998C164.508 0.179998 165.408 0.539997 166.368 1.2C167.388 1.86 168.318 2.67 169.158 3.63C169.998 4.53 170.688 5.49 171.228 6.51C171.828 7.53 172.128 8.46 172.128 9.3C169.428 11.46 166.668 14.25 163.848 17.67C161.088 21.03 158.448 24.75 155.928 28.83C153.408 32.85 151.068 37.14 148.908 41.7C146.808 46.2 145.038 50.64 143.598 55.02C145.518 51.72 147.528 48.72 149.628 46.02C151.728 43.32 153.828 41.01 155.928 39.09C158.028 37.17 160.068 35.7 162.048 34.68C164.088 33.6 166.008 33.03 167.808 32.97C170.448 34.89 171.768 37.44 171.768 40.62C171.768 42.54 171.378 44.49 170.598 46.47C169.818 48.39 168.768 50.19 167.448 51.87C166.188 53.49 164.718 54.9 163.038 56.1C161.418 57.24 159.708 57.99 157.908 58.35C158.508 60.45 159.258 62.58 160.158 64.74C161.118 66.9 162.228 69 163.488 71.04C164.808 73.08 166.278 74.97 167.898 76.71C169.578 78.45 171.468 79.92 173.568 81.12C173.268 81.72 172.818 82.32 172.218 82.92C171.618 83.52 170.898 84.03 170.058 84.45C169.218 84.93 168.288 85.29 167.268 85.53C166.308 85.83 165.348 85.98 164.388 85.98C162.768 85.98 161.238 85.17 159.798 83.55C158.418 81.93 157.158 79.59 156.018 76.53C155.118 74.07 154.248 71.13 153.408 67.71C152.568 64.29 151.818 60.72 151.158 57C151.998 56.46 153.048 55.68 154.308 54.66C155.568 53.58 156.888 52.35 158.268 50.97C163.548 45.87 166.188 41.46 166.188 37.74C166.188 37.26 165.858 37.02 165.198 37.02C163.998 37.08 162.588 37.65 160.968 38.73C159.348 39.81 157.608 41.31 155.748 43.23C153.948 45.15 152.088 47.4 150.168 49.98C148.308 52.56 146.508 55.35 144.768 58.35C144.048 59.55 143.388 60.93 142.788 62.49C142.188 64.05 141.648 65.67 141.168 67.35C140.748 68.97 140.418 70.59 140.178 72.21C139.938 73.83 139.818 75.33 139.818 76.71C139.818 77.55 139.908 78.24 140.088 78.78C138.228 78.6 137.088 78.12 136.668 77.34C136.188 76.62 135.768 76.02 135.408 75.54C135.108 75.12 134.778 74.76 134.418 74.46C133.878 74.04 133.428 73.14 133.068 71.76C132.708 70.38 132.528 68.64 132.528 66.54ZM207.694 38.64C208.294 38.64 208.984 38.76 209.764 39C210.604 39.18 211.354 39.45 212.014 39.81C212.674 40.11 213.214 40.44 213.634 40.8C214.114 41.16 214.354 41.49 214.354 41.79C213.154 44.31 212.044 46.86 211.024 49.44C210.004 51.96 209.134 54.39 208.414 56.73C207.694 59.07 207.124 61.26 206.704 63.3C206.344 65.34 206.164 67.11 206.164 68.61C206.164 70.29 206.344 71.7 206.704 72.84C207.064 73.92 207.664 74.7 208.504 75.18C207.784 75.66 206.854 76.05 205.714 76.35C204.574 76.65 203.554 76.8 202.654 76.8C199.414 76.8 197.794 74.58 197.794 70.14C197.794 66.72 198.934 62.04 201.214 56.1C200.014 58.86 198.634 61.47 197.074 63.93C195.514 66.33 193.924 68.46 192.304 70.32C190.684 72.18 189.034 73.71 187.354 74.91C185.734 76.05 184.234 76.74 182.854 76.98C180.634 76.86 178.834 75.81 177.454 73.83C176.074 71.79 175.384 69.21 175.384 66.09C175.384 62.73 176.104 59.19 177.544 55.47C178.984 51.75 180.814 48.3 183.034 45.12C185.314 41.94 187.774 39.3 190.414 37.2C193.054 35.04 195.604 33.9 198.064 33.78C198.664 33.96 199.324 34.32 200.044 34.86C200.824 35.4 201.544 36.03 202.204 36.75C202.924 37.47 203.524 38.22 204.004 39C204.484 39.72 204.754 40.35 204.814 40.89C202.414 41.25 199.924 42.42 197.344 44.4C194.824 46.38 192.514 48.78 190.414 51.6C188.374 54.36 186.694 57.33 185.374 60.51C184.054 63.69 183.394 66.66 183.394 69.42C183.394 70.56 183.814 71.28 184.654 71.58C186.394 71.22 188.404 69.75 190.684 67.17C192.964 64.53 195.724 60.48 198.964 55.02C199.564 53.94 200.224 52.74 200.944 51.42C201.724 50.1 202.504 48.72 203.284 47.28C204.064 45.84 204.814 44.4 205.534 42.96C206.314 41.46 207.034 40.02 207.694 38.64ZM200.213 101.82C200.213 101.46 200.333 101.13 200.573 100.83C200.813 100.53 201.083 100.23 201.383 99.93C202.103 100.59 202.733 101.1 203.273 101.46C203.753 101.82 204.233 102.12 204.713 102.36C205.133 102.6 205.583 102.75 206.063 102.81C206.543 102.87 207.113 102.9 207.773 102.9C210.893 102.9 213.863 102.06 216.683 100.38C219.503 98.76 222.143 96.39 224.603 93.27C227.123 90.15 229.403 86.34 231.443 81.84C233.483 77.34 235.283 72.24 236.843 66.54C236.123 67.26 235.223 68.07 234.143 68.97C233.123 69.81 232.043 70.62 230.903 71.4C229.763 72.18 228.623 72.9 227.483 73.56C226.403 74.22 225.473 74.7 224.693 75C223.673 74.82 222.713 74.4 221.813 73.74C220.973 73.02 220.223 72.15 219.563 71.13C218.903 70.11 218.393 68.97 218.033 67.71C217.673 66.39 217.493 65.01 217.493 63.57C217.493 61.23 217.913 58.83 218.753 56.37C219.653 53.91 220.823 51.51 222.263 49.17C223.703 46.77 225.383 44.52 227.303 42.42C229.283 40.32 231.353 38.49 233.513 36.93C235.733 35.37 237.953 34.14 240.173 33.24C242.453 32.28 244.673 31.8 246.833 31.8C248.933 31.8 250.493 32.25 251.513 33.15C252.593 33.99 253.373 35.46 253.853 37.56C253.193 37.2 252.353 37.02 251.333 37.02C249.893 37.02 248.213 37.59 246.293 38.73C244.433 39.87 242.513 41.37 240.533 43.23C238.613 45.03 236.693 47.13 234.773 49.53C232.853 51.87 231.143 54.27 229.643 56.73C228.203 59.19 227.003 61.59 226.043 63.93C225.143 66.27 224.693 68.37 224.693 70.23C224.693 70.65 224.723 70.92 224.783 71.04C224.843 71.1 224.933 71.13 225.053 71.13C225.593 71.13 226.313 70.83 227.213 70.23C228.173 69.63 229.223 68.88 230.363 67.98C231.563 67.02 232.793 65.94 234.053 64.74C235.313 63.48 236.513 62.22 237.653 60.96C240.233 58.08 242.573 54.87 244.673 51.33C246.833 47.73 248.543 44.25 249.803 40.89C251.423 41.01 252.863 41.28 254.123 41.7C255.383 42.12 256.253 42.57 256.733 43.05C254.693 47.73 253.043 51.66 251.783 54.84C250.583 58.02 249.533 60.84 248.633 63.3C247.013 67.62 245.483 71.55 244.043 75.09C242.663 78.69 241.223 81.99 239.723 84.99C238.283 88.05 236.693 90.87 234.953 93.45C233.273 96.09 231.353 98.61 229.193 101.01C228.173 102.15 227.003 103.14 225.683 103.98C224.423 104.88 223.103 105.63 221.723 106.23C220.403 106.83 219.083 107.28 217.763 107.58C216.503 107.88 215.333 108.03 214.253 108.03C212.813 108.03 211.343 107.85 209.843 107.49C208.343 107.19 206.963 106.74 205.703 106.14C204.383 105.6 203.243 104.94 202.283 104.16C201.323 103.44 200.633 102.66 200.213 101.82ZM291.13 37.74C290.89 41.46 290.23 44.67 289.15 47.37C288.07 50.01 286.51 52.35 284.47 54.39C282.49 56.37 280.06 58.17 277.18 59.79C274.3 61.41 270.94 62.97 267.1 64.47C267.1 64.83 267.07 65.22 267.01 65.64C267.01 66 267.01 66.39 267.01 66.81C267.01 67.59 267.07 68.4 267.19 69.24C267.31 70.08 267.52 70.86 267.82 71.58C268.12 72.3 268.54 72.9 269.08 73.38C269.62 73.8 270.31 74.01 271.15 74.01C272.77 74.01 274.36 73.65 275.92 72.93C277.48 72.21 278.95 71.34 280.33 70.32C281.77 69.24 283.09 68.1 284.29 66.9C285.55 65.64 286.66 64.5 287.62 63.48C288.22 64.02 288.73 64.53 289.15 65.01C286.45 68.61 283.48 71.61 280.24 74.01C277.06 76.35 274.03 77.85 271.15 78.51C267.01 78.03 263.77 76.53 261.43 74.01C259.15 71.43 258.01 68.34 258.01 64.74C258.01 62.28 258.34 59.79 259 57.27C259.72 54.69 260.68 52.23 261.88 49.89C263.14 47.49 264.58 45.24 266.2 43.14C267.88 41.04 269.65 39.21 271.51 37.65C273.43 36.09 275.38 34.86 277.36 33.96C279.4 33.06 281.41 32.61 283.39 32.61C286.15 32.97 288.73 34.68 291.13 37.74ZM284.92 40.71C283.3 40.95 281.62 41.61 279.88 42.69C278.14 43.77 276.49 45.21 274.93 47.01C273.43 48.81 272.05 50.91 270.79 53.31C269.53 55.71 268.54 58.29 267.82 61.05C272.62 58.65 276.61 55.71 279.79 52.23C282.97 48.69 284.68 44.85 284.92 40.71ZM326.347 39.18C326.287 40.32 326.077 41.52 325.717 42.78C325.417 43.98 325.027 45.09 324.547 46.11C324.067 47.07 323.557 47.88 323.017 48.54C322.477 49.2 321.967 49.53 321.487 49.53C320.827 49.47 320.437 49.02 320.317 48.18C320.317 48 320.377 47.73 320.497 47.37C320.677 46.95 320.857 46.5 321.037 46.02C321.217 45.54 321.367 45.06 321.487 44.58C321.667 44.1 321.757 43.68 321.757 43.32C321.757 42.48 321.547 41.79 321.127 41.25C320.767 40.65 320.257 40.35 319.597 40.35C317.197 40.35 315.367 41.85 314.107 44.85C312.847 47.85 312.217 52.26 312.217 58.08C312.217 58.68 312.247 59.04 312.307 59.16C313.567 59.1 314.677 59.07 315.637 59.07C316.657 59.01 317.647 58.98 318.607 58.98C318.667 59.1 318.697 59.34 318.697 59.7C318.697 60.24 318.577 60.63 318.337 60.87C316.957 61.17 315.847 61.44 315.007 61.68C314.227 61.86 313.627 62.04 313.207 62.22C312.787 62.4 312.517 62.61 312.397 62.85C312.337 63.03 312.307 63.3 312.307 63.66C312.307 64.14 312.307 64.62 312.307 65.1C312.367 65.58 312.397 66.18 312.397 66.9C312.397 71.94 311.017 75.99 308.257 79.05C305.557 82.11 301.777 83.88 296.917 84.36C296.077 84.3 295.207 84.06 294.307 83.64C293.407 83.22 292.537 82.68 291.697 82.02C290.917 81.36 290.227 80.61 289.627 79.77C289.027 78.99 288.607 78.18 288.367 77.34C288.367 75.06 288.847 72.9 289.807 70.86C290.767 68.76 292.057 66.93 293.677 65.37C295.357 63.75 297.307 62.46 299.527 61.5C301.807 60.48 304.267 59.88 306.907 59.7C306.907 58.2 306.757 56.73 306.457 55.29C306.157 53.85 305.827 52.47 305.467 51.15C305.167 49.77 304.867 48.45 304.567 47.19C304.267 45.87 304.117 44.58 304.117 43.32C304.117 41.7 304.447 40.11 305.107 38.55C305.767 36.93 306.637 35.46 307.717 34.14C308.797 32.76 310.057 31.59 311.497 30.63C312.937 29.67 314.437 29.01 315.997 28.65C316.657 28.83 317.527 29.37 318.607 30.27C319.747 31.11 320.857 32.07 321.937 33.15C323.017 34.23 323.977 35.34 324.817 36.48C325.657 37.56 326.167 38.46 326.347 39.18ZM296.647 80.22C298.087 79.62 299.437 78.75 300.697 77.61C302.017 76.47 303.157 75.18 304.117 73.74C305.077 72.3 305.827 70.77 306.367 69.15C306.967 67.53 307.267 65.94 307.267 64.38C306.067 64.56 304.747 65.13 303.307 66.09C301.867 66.99 300.517 68.1 299.257 69.42C297.997 70.68 296.947 72 296.107 73.38C295.267 74.76 294.847 75.96 294.847 76.98C294.847 78.3 295.447 79.38 296.647 80.22Z" fill="#FFCA0E"/>
</svg>
