<svg width="479" height="66" viewBox="0 0 479 66" fill="none" xmlns="http://www.w3.org/2000/svg">
<path d="M32.2719 49.52L48.0219 1.82H64.3119L41.9019 65H22.6419L0.231875 1.82H16.6119L32.2719 49.52ZM113.854 65L110.074 53.84H86.4941L82.7141 65H66.6041L89.4641 1.82H107.284L130.144 65H113.854ZM106.114 41.96L98.2841 18.83L90.5441 41.96H106.114ZM134.491 33.32C134.491 14.42 147.631 1.1 166.261 1.1C181.291 1.1 192.631 9.55999 196.231 23.24H179.311C176.701 17.84 171.931 15.14 166.081 15.14C156.631 15.14 150.151 22.16 150.151 33.32C150.151 44.48 156.631 51.5 166.081 51.5C171.931 51.5 176.701 48.8 179.311 43.4H196.231C192.631 57.08 181.291 65.45 166.261 65.45C147.631 65.45 134.491 52.22 134.491 33.32ZM248.766 65L244.986 53.84H221.406L217.626 65H201.516L224.376 1.82H242.196L265.056 65H248.766ZM241.026 41.96L233.196 18.83L225.456 41.96H241.026ZM268.594 14.15V1.82H317.464V14.15H300.724V65H285.334V14.15H268.594ZM325.187 65V1.82H340.577V65H325.187ZM413.92 33.23C413.92 52.22 399.52 65.63 381.61 65.63C363.7 65.63 349.12 52.22 349.12 33.23C349.12 14.24 363.7 0.919999 381.61 0.919999C399.61 0.919999 413.92 14.24 413.92 33.23ZM364.87 33.23C364.87 44.3 371.35 51.59 381.61 51.59C391.69 51.59 398.26 44.3 398.26 33.23C398.26 21.98 391.69 14.87 381.61 14.87C371.35 14.87 364.87 21.98 364.87 33.23ZM463.612 1.82H479.002V65H463.612L437.872 26.03V65H422.482V1.82H437.872L463.612 40.97V1.82Z" fill="white"/>
</svg>
