<svg width="27" height="27" viewBox="0 0 27 27" fill="none" xmlns="http://www.w3.org/2000/svg">
<g id="emojione-v1:flag-for-egypt" clip-path="url(#clip0_1331_44699)">
<path id="Vector" d="M0 10.1963H26.1034V15.9064H0V10.1963Z" fill="#E6E7E8"/>
<path id="Vector_2" d="M22.0247 4.0791H4.07865C1.37573 4.0791 0 6.08784 0 8.56561V10.1971H26.1034V8.56561C26.1034 6.08784 24.7276 4.0791 22.0247 4.0791Z" fill="#EC1C24"/>
<path id="Vector_3" d="M0 17.5377C0 20.0155 1.37573 22.0242 4.07865 22.0242H22.0247C24.7276 22.0242 26.1034 20.0155 26.1034 17.5377V15.9062H0V17.5377Z" fill="#25333A"/>
<g id="Group">
<path id="Vector_4" fill-rule="evenodd" clip-rule="evenodd" d="M14.9445 11.5868C14.9845 11.9523 14.9836 12.3185 15.0012 12.6856C15.0346 13.3871 15.0607 14.0919 15.0893 14.7955V14.9227C14.8743 14.7204 14.6773 14.5369 14.4824 14.3513C14.4771 14.333 14.486 14.3203 14.4991 14.3077C14.5346 14.2677 14.5219 14.2204 14.5191 14.1772C14.4991 13.8733 14.4934 13.5682 14.4775 13.2631C14.4563 12.8226 14.4432 12.383 14.4171 11.9425C14.4102 11.8075 14.4538 11.7104 14.5701 11.6427C14.6431 11.5995 14.692 11.617 14.6945 11.7018C14.701 11.867 14.7067 12.0318 14.7157 12.197C14.7414 12.6721 14.7561 13.1481 14.7789 13.6229C14.7895 13.8435 14.8107 14.0634 14.8038 14.2832C14.8013 14.3493 14.8054 14.4137 14.8156 14.4529C14.7817 14.315 14.8091 14.1498 14.796 13.9851C14.772 13.7049 14.7667 13.4234 14.7548 13.142C14.7373 12.6619 14.7096 12.1839 14.6957 11.7039C14.6924 11.5505 14.7246 11.5301 14.8747 11.584C14.8976 11.588 14.9216 11.5734 14.9445 11.5868ZM11.7509 14.4329C11.5816 14.5903 11.4116 14.7474 11.2305 14.9138C11.2305 14.7629 11.2256 14.6328 11.2313 14.5002C11.2672 13.6204 11.3059 12.7399 11.343 11.8585C11.3471 11.7675 11.3573 11.6774 11.3655 11.5864C11.3895 11.5766 11.4063 11.6125 11.4315 11.5942C11.455 11.5764 11.4822 11.5643 11.5111 11.5587C11.578 11.5473 11.6159 11.5791 11.6159 11.6472C11.6159 11.8564 11.602 12.0632 11.5918 12.2696C11.5849 12.4311 11.5731 12.5926 11.569 12.7541C11.5588 13.1179 11.538 13.4809 11.5245 13.8427C11.516 14.045 11.5119 14.2481 11.5001 14.4488C11.5156 14.26 11.5156 14.0675 11.5233 13.8774C11.5494 13.2656 11.5763 12.6538 11.6037 12.042C11.6077 11.9327 11.6196 11.8222 11.6155 11.7116C11.6139 11.6745 11.6196 11.6374 11.6587 11.6223C11.693 11.6072 11.7195 11.6313 11.748 11.6472C11.8565 11.7116 11.8977 11.8042 11.8924 11.9315C11.8685 12.4497 11.8459 12.9679 11.8247 13.4862C11.8149 13.7191 11.8166 13.9537 11.7892 14.187C11.7815 14.2681 11.7599 14.3497 11.7509 14.4329Z" fill="#BF9200"/>
<path id="Vector_5" fill-rule="evenodd" clip-rule="evenodd" d="M11.7516 14.4333C11.7238 14.3577 11.7227 14.2748 11.7483 14.1984C11.7622 14.1959 11.7842 14.2331 11.7899 14.1923C11.7932 14.1556 11.8038 14.1213 11.8038 14.0862C11.8038 13.8488 11.8205 13.6119 11.8319 13.3765C11.8483 13.04 11.856 12.7027 11.8797 12.3675C11.8882 12.2545 11.887 12.1403 11.8895 12.0277C11.8911 11.967 11.8882 11.8919 11.9616 11.874C12.0347 11.8564 12.0779 11.9164 12.1179 11.9702C12.1419 12.0028 12.1436 12.0424 12.1411 12.0824C12.1195 12.4026 12.115 12.7223 12.0991 13.0429C12.0852 13.3537 12.0742 13.6641 12.0595 13.9761C12.0807 13.5168 12.1015 13.0572 12.1191 12.5971C12.1236 12.4523 12.1346 12.3075 12.1387 12.1607C12.1419 12.0444 12.1729 12.022 12.2908 12.033C12.3459 12.0391 12.3989 12.0498 12.4552 12.0534C12.4809 12.0632 12.509 12.0726 12.5168 12.1036C12.5053 12.1452 12.4682 12.1407 12.4384 12.1415C12.3736 12.146 12.3516 12.1839 12.3695 12.2394C12.3903 12.2985 12.3826 12.3593 12.3854 12.4185C12.3826 12.4723 12.3813 12.5261 12.3769 12.58C12.363 12.698 12.3561 12.8168 12.3561 12.9356C12.3536 13.151 12.3332 13.3676 12.3275 13.5825C12.3071 13.6619 12.3022 13.7444 12.3132 13.8256C12.3185 13.8517 12.3263 13.8778 12.3328 13.9039C12.3389 13.9427 12.323 13.9777 12.3018 14.0079C12.2915 14.0193 12.2788 14.0282 12.2646 14.0342C12.2505 14.0402 12.2352 14.0431 12.2198 14.0426C12.1803 14.0365 12.1631 14.0687 12.1407 14.0883L11.7516 14.4333ZM14.5022 14.3371C14.4953 14.3428 14.4888 14.3477 14.4827 14.3538C14.3986 14.2755 14.313 14.198 14.2302 14.118C14.2241 14.1005 14.2318 14.0866 14.2416 14.0728C14.2498 14.0577 14.2477 14.0418 14.2477 14.025C14.2416 13.5446 14.2155 13.067 14.1914 12.5881C14.1829 12.414 14.1894 12.2382 14.1702 12.0644C14.1654 12.0345 14.1723 12.0038 14.1894 11.9788C14.2286 11.9233 14.2722 11.8576 14.3501 11.8764C14.4227 11.8944 14.4207 11.9698 14.4215 12.0302C14.4349 12.5612 14.4676 13.0923 14.4908 13.6233C14.499 13.8134 14.4908 14.0059 14.519 14.1955C14.5251 14.2408 14.532 14.2922 14.5022 14.3371ZM14.2445 14.6291C14.2526 14.7058 14.284 14.7241 14.3644 14.7013C14.4888 14.6654 14.6633 14.7506 14.6381 14.9089C14.6323 14.9521 14.6434 14.9807 14.687 15.0011C14.751 15.0308 14.7739 15.114 14.8522 15.1283C14.8636 15.1312 14.8697 15.1544 14.8595 15.1622C14.7861 15.205 14.8077 15.3082 14.7384 15.3543C14.729 15.3616 14.7156 15.3738 14.7143 15.3845C14.7094 15.5256 14.605 15.5509 14.4965 15.5741C13.9818 15.6863 13.4601 15.6969 12.9369 15.6863C12.551 15.6797 12.166 15.6585 11.7883 15.566C11.6888 15.5431 11.6256 15.5056 11.5913 15.3946C11.5641 15.3176 11.5236 15.2458 11.4718 15.1826C11.4416 15.1454 11.4498 15.1418 11.4836 15.114C11.5689 15.0447 11.6859 15.0027 11.679 14.8506C11.6737 14.7417 11.8275 14.6605 11.9478 14.7005C12.0261 14.7262 12.0591 14.707 12.0677 14.6291C12.0938 14.6238 12.104 14.6421 12.1134 14.6605C12.1272 14.6899 12.124 14.7196 12.1203 14.7506C12.1154 14.7643 12.1059 14.7758 12.0934 14.7833C12.0555 14.8012 12.0179 14.7906 11.9816 14.78C11.9555 14.7714 11.9233 14.7592 11.9001 14.7869C11.8711 14.8232 11.9152 14.8338 11.9274 14.8567C11.9339 14.8676 11.9367 14.8803 11.9355 14.893C11.9294 14.9142 11.9119 14.9252 11.8948 14.9354C11.8356 14.9489 11.7867 14.9754 11.7606 15.0357C11.7487 15.0651 11.7177 15.081 11.6892 15.1002C11.6093 15.156 11.6015 15.2001 11.6611 15.2751C11.6721 15.2902 11.69 15.3049 11.6937 15.3229C11.7177 15.4428 11.8107 15.4632 11.9098 15.4827C12.2439 15.5472 12.5832 15.5757 12.9242 15.5778C13.2297 15.5806 13.534 15.5863 13.8386 15.5582C14.0544 15.5382 14.2706 15.5166 14.481 15.4632C14.543 15.4477 14.5891 15.4236 14.6042 15.3555C14.6111 15.3241 14.634 15.298 14.654 15.2723C14.7074 15.2062 14.7041 15.156 14.6376 15.1083C14.5922 15.0822 14.5544 15.0445 14.5283 14.999C14.5018 14.9464 14.4513 14.9537 14.4007 14.9607C14.2632 14.9839 14.1307 15.0235 13.994 15.05C13.9761 15.0476 13.9643 15.0378 13.9541 15.0219C13.9446 15.0073 13.9391 14.9906 13.9379 14.9734C13.9368 14.9561 13.9401 14.9388 13.9475 14.9232C13.9548 14.9089 13.9668 14.8975 13.9814 14.8909C14.129 14.9513 14.2551 14.855 14.3933 14.8383C14.4125 14.8355 14.4231 14.8208 14.4211 14.8032C14.4141 14.7767 14.3929 14.7694 14.3668 14.7731C14.3199 14.7784 14.2738 14.8065 14.2241 14.7865C14.211 14.7791 14.2007 14.7677 14.1947 14.7539C14.1871 14.7233 14.1889 14.6912 14.2 14.6617C14.2086 14.643 14.2184 14.6242 14.2461 14.6291" fill="#BF9200"/>
<path id="Vector_6" fill-rule="evenodd" clip-rule="evenodd" d="M14.2501 14.0999L14.2305 14.115C14.171 14.0897 14.142 14.0195 14.0751 14.0036C14.0685 14.0089 14.0606 14.0124 14.0523 14.0137C14.0439 14.0151 14.0354 14.0143 14.0274 14.0114C13.9895 13.9865 13.976 13.9522 13.9781 13.909C13.9817 13.8821 13.9931 13.8572 13.9972 13.8291C14.0098 13.7505 14.0058 13.6702 13.9854 13.5933C13.9772 13.3584 13.9552 13.1255 13.9544 12.8897C13.9544 12.8118 13.9658 12.729 13.9193 12.6577C13.9031 12.6464 13.8903 12.6307 13.8826 12.6124C13.8997 12.4953 13.9234 12.3795 13.9377 12.2612C13.9491 12.1637 13.9524 12.1588 13.8565 12.1413C13.8316 12.1368 13.8047 12.1368 13.7949 12.105C13.8023 12.0724 13.832 12.0642 13.8585 12.0532C13.9193 12.0479 13.9801 12.0357 14.0409 12.03C14.133 12.021 14.1673 12.0475 14.1726 12.1405C14.1816 12.3261 14.1877 12.5104 14.1954 12.6952C14.2195 13.1532 14.2301 13.6141 14.2578 14.073C14.2578 14.0827 14.253 14.0917 14.2501 14.0999Z" fill="#BF9200"/>
<path id="Vector_7" fill-rule="evenodd" clip-rule="evenodd" d="M14.0367 14.0025C14.0497 14.0025 14.062 14.0037 14.0746 14.0037L14.1513 14.3129C14.1623 14.3312 14.1611 14.3471 14.1407 14.359C14.1256 14.3667 14.1052 14.3382 14.0913 14.3667C14.0253 14.4952 14.0505 14.6147 14.1688 14.7057C14.1847 14.7167 14.2015 14.7256 14.2088 14.7464C14.216 14.753 14.2237 14.7591 14.2316 14.7648C14.2308 14.8101 14.1929 14.8133 14.1656 14.8207C14.0942 14.8354 14.0253 14.8582 13.9518 14.8533C13.9261 14.8533 13.9007 14.8587 13.8772 14.8692C13.7312 14.8978 13.5835 14.8961 13.4367 14.8908C13.411 14.8892 13.3808 14.8868 13.3727 14.921C13.3657 14.9536 13.3923 14.9642 13.418 14.9716C13.4832 14.9936 13.5513 14.9855 13.6174 14.9891C13.6541 14.9912 13.6949 14.9785 13.7234 15.0156C13.7279 15.0666 13.6875 15.0691 13.6537 15.0748C13.6121 15.0809 13.5699 15.0817 13.5281 15.0772C13.4441 15.0723 13.3674 15.0878 13.305 15.1506C13.2969 15.1603 13.2865 15.1678 13.2748 15.1723C13.2087 15.1947 13.1532 15.1205 13.0688 15.1702C13.0186 15.2008 12.9399 15.1086 12.9016 15.0397C12.8978 15.0257 12.8972 15.0111 12.9 14.9969C12.9061 14.9651 12.9587 14.9528 12.9387 14.9145C12.9171 14.8749 12.8739 14.8945 12.8412 14.8908C12.769 14.8835 12.692 14.9235 12.6271 14.8672C12.6234 14.8023 12.6895 14.8109 12.7193 14.7791C12.7373 14.7638 12.7598 14.7548 12.7833 14.7534C12.798 14.7534 12.8106 14.7587 12.8225 14.7677C12.8335 14.7783 12.8453 14.7925 12.862 14.7909C12.9632 14.7807 13.046 14.8158 13.1218 14.877C13.1406 14.8921 13.163 14.8986 13.1834 14.881C13.2646 14.8186 13.3547 14.7815 13.462 14.7893C13.473 14.7893 13.482 14.775 13.4918 14.7668C13.5028 14.7583 13.5159 14.7528 13.5297 14.7509C13.6011 14.7791 13.6517 14.7766 13.6884 14.6906C13.7206 14.6135 13.7634 14.6204 13.8564 14.7036C13.9217 14.6131 13.9213 14.5939 13.8425 14.4785C13.7977 14.5156 13.7981 14.6029 13.723 14.6021C13.6533 14.6021 13.6382 14.5299 13.5974 14.4911C13.5595 14.5344 13.5893 14.622 13.504 14.6335C13.464 14.6074 13.4608 14.5686 13.4677 14.5274C13.4983 14.4397 13.4934 14.3504 13.4844 14.2615C13.4874 14.2469 13.4935 14.2331 13.5024 14.2211C13.5452 14.1705 13.535 14.1053 13.5505 14.047C13.5644 13.9968 13.5627 13.9262 13.6333 13.9201C13.6961 13.916 13.7238 13.9764 13.7544 14.0213C13.7628 14.0329 13.768 14.0466 13.7695 14.0608C13.765 14.0213 13.7826 13.9711 13.8103 13.9262C13.8466 13.8683 13.9143 13.8736 13.9641 13.9352C13.9845 13.9609 13.9934 14.0009 14.0367 14.0025Z" fill="#BF9200"/>
<path id="Vector_8" fill-rule="evenodd" clip-rule="evenodd" d="M12.7646 14.8222C12.7246 14.8581 12.6687 14.8267 12.6271 14.8577C12.5704 14.9254 12.5039 14.8646 12.4428 14.8707C12.415 14.8654 12.3905 14.8512 12.3624 14.8532C12.2882 14.8581 12.2176 14.8352 12.1462 14.8206C12.1181 14.8132 12.0798 14.8104 12.0781 14.7647C12.0862 14.7591 12.0938 14.753 12.101 14.7463C12.1079 14.7255 12.125 14.717 12.1409 14.7055C12.258 14.6146 12.2853 14.4951 12.2197 14.3678C12.2046 14.3401 12.185 14.3666 12.1691 14.3593C12.1479 14.3474 12.1479 14.3315 12.1585 14.3132C12.1674 14.2202 12.2184 14.137 12.2184 14.0428C12.2233 14.032 12.2309 14.0226 12.2405 14.0156C12.2501 14.0086 12.2613 14.0042 12.2731 14.0028C12.3025 14.0028 12.3196 13.9844 12.3326 13.9596C12.3571 13.9151 12.3918 13.8796 12.4477 13.8866C12.5023 13.8935 12.5109 13.9445 12.5276 13.9869C12.5321 13.9975 12.5321 14.0118 12.5427 14.0207C12.5496 14.0224 12.5533 14.0187 12.5582 14.0126C12.5937 13.9734 12.619 13.9065 12.6838 13.9216C12.7572 13.9384 12.7499 14.015 12.7629 14.0729C12.7735 14.119 12.7711 14.17 12.8151 14.2026C12.8257 14.2124 12.8331 14.225 12.8363 14.2389C12.8184 14.3397 12.8053 14.4384 12.8527 14.5363C12.8555 14.5738 12.8465 14.6056 12.8151 14.6285C12.7177 14.6321 12.7544 14.5326 12.7124 14.4922C12.5957 14.644 12.5774 14.644 12.4725 14.4837C12.3934 14.571 12.391 14.5913 12.4456 14.7015C12.4754 14.7027 12.4848 14.6713 12.5048 14.6578C12.5464 14.6289 12.592 14.6268 12.6128 14.6713C12.6426 14.7455 12.7042 14.7814 12.7646 14.8222ZM12.8784 11.2073C12.8963 11.0915 12.9277 10.9781 12.9208 10.8602C12.9196 10.8212 12.9089 10.783 12.8895 10.7491C12.8702 10.7152 12.8428 10.6865 12.8098 10.6656C12.79 10.6552 12.7678 10.6499 12.7454 10.6501C12.7111 10.6465 12.6671 10.724 12.6451 10.6465C12.6359 10.6167 12.6353 10.5849 12.6435 10.5548C12.6516 10.5246 12.6682 10.4975 12.6911 10.4764C12.703 10.4654 12.7205 10.4552 12.734 10.456C12.9281 10.4695 13.1239 10.3936 13.3176 10.478C13.4192 10.5237 13.4816 10.5894 13.4885 10.7024C13.4971 10.7219 13.4999 10.7403 13.4783 10.7525C13.4473 10.7525 13.4306 10.7305 13.4208 10.7072C13.3866 10.622 13.3148 10.6155 13.2532 10.6518C13.1276 10.7285 13.0313 10.6783 12.9391 10.5979C12.9011 10.567 12.8575 10.5436 12.8107 10.529C12.8955 10.5494 12.9652 10.6085 13.0276 10.6722C13.0725 10.7162 13.0876 10.7648 13.0333 10.8239C12.9689 10.8928 13.0068 10.9907 12.9803 11.0727C12.9599 11.1335 12.9754 11.2122 12.8926 11.2411C12.8767 11.2346 12.8706 11.224 12.8784 11.2073ZM13.6199 11.587C13.639 11.6343 13.6806 11.6258 13.7186 11.6237C13.8952 11.6172 14.0502 11.547 14.2027 11.4675C14.2198 11.4569 14.2288 11.4655 14.2353 11.4806C14.2337 11.5344 14.1905 11.5572 14.1521 11.5801C14.0875 11.6169 14.0182 11.6449 13.9461 11.6633C13.8601 11.6882 13.7769 11.7241 13.6949 11.7481C13.5827 11.7824 13.4534 11.8497 13.3262 11.7677C13.2923 11.7465 13.2589 11.7412 13.2181 11.7661C13.1247 11.8256 13.0692 11.7962 13.0435 11.6812C13.0455 11.6746 13.0487 11.6684 13.0531 11.663C13.0576 11.6577 13.063 11.6533 13.0692 11.6502C13.1896 11.6478 13.1928 11.6457 13.1912 11.5177C13.1912 11.4842 13.1855 11.4524 13.1891 11.4202C13.2014 11.3582 13.2046 11.2954 13.2038 11.233C13.2034 11.1975 13.1969 11.1616 13.2303 11.1367C13.2952 11.1343 13.2883 11.1844 13.2911 11.224C13.298 11.3337 13.2883 11.443 13.3119 11.5523C13.3209 11.5968 13.3356 11.6319 13.3947 11.6555C13.3462 11.5252 13.3137 11.3895 13.298 11.2513C13.2952 11.222 13.2903 11.1938 13.2919 11.1645C13.2932 11.1249 13.2952 11.0772 13.347 11.0772C13.387 11.0764 13.4053 11.1163 13.4078 11.1543C13.4114 11.2053 13.4253 11.255 13.4306 11.3068C13.4392 11.3941 13.4587 11.4789 13.495 11.5593C13.511 11.5923 13.5285 11.6388 13.5807 11.5968C13.5925 11.587 13.6048 11.5813 13.6199 11.587Z" fill="#BF9200"/>
<path id="Vector_9" fill-rule="evenodd" clip-rule="evenodd" d="M12.8785 11.2069C12.8846 11.2162 12.8904 11.2252 12.8977 11.2342C12.9389 11.2758 12.912 11.3198 12.8993 11.3602C12.87 11.4544 12.8104 11.5336 12.7623 11.62C12.8275 11.6041 12.8532 11.5527 12.8728 11.4989C12.9099 11.399 12.9458 11.2982 12.9597 11.1897C12.9617 11.182 12.9597 11.1706 12.9634 11.1628C12.9838 11.1208 12.9736 11.047 13.0384 11.0531C13.1118 11.06 13.0792 11.1281 13.0767 11.1714C13.0655 11.3431 13.0152 11.5099 12.9295 11.6592C12.9177 11.6788 12.9054 11.6963 12.9038 11.7204C12.8822 11.7403 12.8822 11.7652 12.8879 11.7917C12.8524 11.8358 12.8145 11.8509 12.7847 11.7909C12.7651 11.7509 12.7415 11.762 12.7121 11.7697C12.6546 11.7848 12.6036 11.7771 12.5649 11.7273C12.5376 11.6938 12.4984 11.6894 12.4588 11.6841C12.3561 11.669 12.2571 11.6345 12.1672 11.5825C12.1248 11.5613 12.0779 11.5385 12.0742 11.4801C12.0807 11.465 12.0897 11.4561 12.1073 11.4671C12.2557 11.545 12.407 11.6115 12.5796 11.6253C12.6371 11.6286 12.6734 11.6135 12.7056 11.5625C12.7757 11.4495 12.8296 11.3296 12.8785 11.2069Z" fill="#BF9200"/>
<path id="Vector_10" fill-rule="evenodd" clip-rule="evenodd" d="M12.1071 11.4654C12.0986 11.4707 12.0908 11.4768 12.0819 11.4837C12.0403 11.5163 12.0027 11.4923 11.9644 11.4751C11.8791 11.4364 11.7885 11.4105 11.6956 11.3985C11.5851 11.3834 11.5031 11.4356 11.4586 11.5396C11.4423 11.5812 11.4219 11.6236 11.3995 11.6619C11.3546 11.6509 11.3934 11.6028 11.3652 11.5849C11.4068 11.3809 11.5267 11.2953 11.7307 11.3234C11.8669 11.3422 11.9917 11.3887 12.1071 11.4654ZM14.2276 11.4857C14.2201 11.4787 14.2117 11.4725 14.2028 11.4674C14.3292 11.3834 14.4675 11.3348 14.6167 11.3202C14.7917 11.3026 14.9063 11.3985 14.9442 11.5869L14.9251 11.6497C14.8757 11.6318 14.868 11.5816 14.8513 11.5416C14.8044 11.4356 14.7199 11.3834 14.6045 11.4013C14.5148 11.4145 14.4273 11.4401 14.3447 11.4776C14.3068 11.4943 14.2688 11.518 14.2276 11.4857ZM13.6199 11.5869C13.613 11.5943 13.6066 11.6022 13.6007 11.6106C13.553 11.6097 13.5339 11.5767 13.5208 11.5392C13.4775 11.4353 13.454 11.3242 13.4515 11.2117C13.46 11.1733 13.4714 11.1346 13.5098 11.1125C13.5339 11.2732 13.5542 11.4348 13.6199 11.5869Z" fill="#BF9200"/>
<path id="Vector_11" fill-rule="evenodd" clip-rule="evenodd" d="M13.5106 11.1154C13.5021 11.148 13.5139 11.1868 13.4898 11.2178C13.4315 11.1497 13.4177 10.8213 13.4715 10.7499C13.4768 10.7344 13.4829 10.7206 13.489 10.7051C13.529 10.8409 13.5123 10.9775 13.5106 11.117M12.1582 14.3131C12.1647 14.3257 12.1704 14.34 12.1749 14.3534C12.23 14.4281 12.1945 14.4831 12.1374 14.5337C12.1047 14.537 12.1158 14.5043 12.1035 14.4913C12.1186 14.4309 12.1288 14.3681 12.1582 14.3131ZM14.1335 14.3538C14.1388 14.3408 14.1441 14.3265 14.1502 14.3135C14.1795 14.3685 14.1902 14.4313 14.2048 14.4921C14.1934 14.5047 14.2048 14.5374 14.171 14.5345C14.1139 14.4839 14.0784 14.4285 14.1335 14.3538Z" fill="#BF9200"/>
<path id="Vector_12" fill-rule="evenodd" clip-rule="evenodd" d="M12.1043 14.4913C12.1116 14.5048 12.1173 14.5191 12.1247 14.5342C12.1626 14.5937 12.1589 14.6418 12.0839 14.6679C12.0774 14.6549 12.0729 14.6418 12.0664 14.6284C12.0794 14.5831 12.0916 14.537 12.1043 14.4913ZM14.186 14.5346C14.1921 14.5195 14.1979 14.5052 14.2052 14.4917C14.2174 14.537 14.2301 14.5835 14.2435 14.6292C14.2366 14.6422 14.2321 14.6553 14.2256 14.6688C14.1505 14.6418 14.1469 14.5941 14.186 14.5346ZM12.3918 12.7012C12.3678 12.6588 12.3633 12.6119 12.3539 12.5658C12.3241 12.5169 12.351 12.4696 12.3568 12.421C12.3751 12.5063 12.3939 12.5923 12.4114 12.6784C12.4053 12.6861 12.4053 12.7004 12.3918 12.7012ZM12.3119 13.7474C12.3205 13.7274 12.3274 13.7078 12.3351 13.6891C12.3514 13.6972 12.3421 13.7176 12.3514 13.7282C12.34 13.7886 12.3286 13.8518 12.2984 13.9073C12.2923 13.8861 12.2878 13.864 12.2809 13.8412C12.2964 13.8118 12.2756 13.7698 12.3119 13.7474ZM12.628 12.089C12.588 12.0943 12.5493 12.1017 12.5105 12.1086C12.4897 12.1017 12.4685 12.0964 12.4485 12.0902C12.4909 12.0731 12.5362 12.0727 12.5819 12.0707C12.6011 12.0666 12.6239 12.0507 12.628 12.089ZM11.9244 14.8837C11.9999 14.8996 12.0774 14.9078 12.1487 14.9351C12.2662 14.9779 12.3245 14.9216 12.3661 14.825C12.3906 14.8217 12.4122 14.8237 12.4318 14.8401C12.4583 14.8609 12.4975 14.8662 12.5064 14.9082C12.5166 14.962 12.557 14.9738 12.6051 14.9681C12.7014 14.9812 12.7968 14.9946 12.8951 14.984C12.9001 14.9849 12.9048 14.9868 12.909 14.9895C12.9132 14.9922 12.9168 14.9958 12.9196 14.9999V15.0334C12.8102 15.0475 12.6995 15.0478 12.59 15.0342C12.4881 15.0212 12.42 15.0509 12.3784 15.1631C12.347 14.9881 12.2173 14.9759 12.088 14.9543C12.0178 14.9441 11.9473 14.9343 11.8828 14.9004C11.8971 14.8955 11.9105 14.889 11.9244 14.8837ZM13.9433 14.8262C13.9364 14.8666 13.9903 14.8674 13.9931 14.9008L13.9743 14.922C13.9539 14.9396 13.9111 14.9379 13.9128 14.9763C13.9164 15.0065 13.9544 15.0004 13.9731 15.0163L13.9923 15.0371C13.9727 15.0754 13.9519 15.1133 13.9258 15.1651C13.8907 15.0562 13.821 15.0179 13.7215 15.0354C13.6497 15.0036 13.5755 15.0273 13.5024 15.0203C13.4641 15.0171 13.4245 15.026 13.3903 15.002C13.4535 14.9384 13.5355 14.971 13.6081 14.9694C13.6958 14.9657 13.7806 14.9853 13.821 14.8776C13.8283 14.8588 13.8597 14.856 13.8777 14.8425C13.8956 14.825 13.9189 14.8221 13.9433 14.8262ZM13.9597 13.7282C13.9509 13.6995 13.9423 13.6706 13.934 13.6418C13.9172 13.6287 13.8985 13.6201 13.8883 13.6006C13.8224 13.4486 13.779 13.2878 13.7594 13.1234C13.7574 13.1042 13.7614 13.0858 13.7561 13.0658C13.8096 12.9186 13.8846 12.7779 13.9034 12.6192C13.9128 12.6262 13.9234 12.6315 13.9331 12.6384C13.9658 12.7232 13.9507 12.8134 13.9544 12.9015C13.9641 13.1613 13.9658 13.4223 14.0013 13.6793C13.9968 13.7046 13.9927 13.729 13.9597 13.7282ZM13.8002 12.109C13.7247 12.1098 13.6554 12.087 13.584 12.0703C13.5869 12.0315 13.6113 12.0474 13.6305 12.0507C13.7072 12.0637 13.7855 12.0772 13.861 12.0886C13.8409 12.0961 13.8207 12.1029 13.8002 12.109Z" fill="#BF9200"/>
<path id="Vector_13" fill-rule="evenodd" clip-rule="evenodd" d="M13.9743 13.6894C13.9817 13.7082 13.9894 13.7286 13.9976 13.7478C14.0339 13.7702 14.0131 13.8122 14.0282 13.8424C14.0217 13.8644 14.0172 13.8864 14.0115 13.9085C13.9809 13.8518 13.9711 13.7902 13.9576 13.7286C13.9625 13.7155 13.969 13.7029 13.9743 13.6894ZM13.5053 13.7494C13.4494 13.8591 13.3854 13.9664 13.427 14.0977C13.4372 14.1148 13.4262 14.1336 13.4298 14.1511C13.4621 14.2739 13.4967 14.3975 13.5033 14.5264C13.4947 14.5614 13.4959 14.598 13.5065 14.6324C13.5559 14.6683 13.5718 14.7115 13.5237 14.7613C13.5177 14.7683 13.512 14.7755 13.5065 14.7829C13.4739 14.7866 13.4458 14.8054 13.4123 14.8017C13.347 14.7935 13.2887 14.7691 13.283 14.6965C13.2744 14.5957 13.2598 14.4946 13.2504 14.3938C13.2512 14.3322 13.2386 14.2723 13.2369 14.2111C13.2296 14.1891 13.2333 14.1642 13.2247 14.1442C13.2274 14.1506 13.2292 14.1573 13.23 14.1642C13.23 14.1895 13.2386 14.2119 13.2406 14.238C13.252 14.3237 13.2386 14.4138 13.2679 14.4982C13.2671 14.5627 13.2818 14.6263 13.2789 14.692C13.2777 14.7784 13.2186 14.8445 13.1484 14.8408C13.0823 14.8384 13.0277 14.7739 13.0269 14.692C13.0257 14.6218 13.0363 14.5504 13.042 14.4807C13.0644 14.4012 13.0575 14.3192 13.066 14.238C13.0693 14.1948 13.0885 14.1532 13.084 14.1095C13.0868 14.1499 13.075 14.1874 13.0664 14.2258C13.0709 14.2817 13.0534 14.3367 13.0558 14.3922C13.0432 14.4905 13.0322 14.588 13.0252 14.6875C13.0199 14.7584 12.9584 14.8033 12.8841 14.8021C12.8543 14.8013 12.8291 14.7854 12.8001 14.7833L12.7826 14.7617C12.7357 14.712 12.7499 14.6691 12.7993 14.6328C12.807 14.5994 12.814 14.5635 12.8221 14.53C12.8148 14.4428 12.8111 14.3563 12.8458 14.2727C12.8543 14.2486 12.8458 14.236 12.8193 14.2368C12.8132 14.2301 12.8076 14.223 12.8025 14.2156C12.8356 14.1642 12.8686 14.1124 12.9021 14.0622C12.918 14.0246 12.927 13.9844 12.9286 13.9435C12.9298 13.8742 12.9376 13.8053 12.9645 13.7392C12.9756 13.7153 12.9948 13.696 13.0187 13.6849C13.1533 13.7828 13.1533 13.7828 13.2883 13.6829C13.3104 13.6949 13.3286 13.713 13.3405 13.7351C13.36 13.7843 13.3719 13.8361 13.376 13.8889C13.3767 13.8151 13.3996 13.7432 13.4417 13.6825C13.4514 13.6709 13.4653 13.6636 13.4804 13.6621C13.5155 13.6678 13.5343 13.6882 13.5359 13.7237C13.5314 13.7396 13.5241 13.7522 13.5053 13.7494Z" fill="#BF9200"/>
<path id="Vector_14" fill-rule="evenodd" clip-rule="evenodd" d="M13.5033 14.2588C13.4715 14.218 13.4401 14.1768 13.4075 14.1361C13.4144 14.1226 13.4214 14.1104 13.4287 14.0977C13.4675 14.1401 13.4964 14.187 13.5221 14.2376L13.5033 14.2588ZM12.998 11.6595C13.0767 11.5722 13.0767 11.4584 13.0943 11.3516C13.1118 11.25 13.1183 11.1476 13.1293 11.0408C13.1705 11.055 13.1595 11.0795 13.1583 11.0983C13.1469 11.2635 13.131 11.4287 13.0832 11.5881C13.0763 11.613 13.0661 11.6371 13.0763 11.6636C13.069 11.6705 13.0637 11.6779 13.0571 11.6836H13.0196C12.998 11.6897 12.9927 11.6799 12.998 11.6595ZM13.2317 11.4613C13.204 11.3291 13.2187 11.197 13.2125 11.0534C13.266 11.0824 13.2476 11.1142 13.2484 11.1399C13.215 11.2455 13.2427 11.3552 13.2317 11.4617" fill="#BF9200"/>
<path id="Vector_15" fill-rule="evenodd" clip-rule="evenodd" d="M12.9996 11.6592C13.0066 11.6676 13.0141 11.6756 13.022 11.6832C12.9812 11.724 12.936 11.7558 12.8829 11.7775C12.8577 11.7599 12.8593 11.7416 12.8829 11.724C12.9319 11.7208 12.9617 11.6824 12.9996 11.6592ZM12.6301 12.0887C12.615 12.0825 12.5991 12.0772 12.584 12.0703C12.7014 12.0369 12.8177 12.005 12.9356 11.9724C12.9555 11.9643 12.9617 11.9716 12.9617 11.9912C12.8553 12.0365 12.744 12.0693 12.6301 12.0887ZM13.4226 12.0177C13.3456 12.0017 13.2738 11.9671 13.2133 11.917C13.2154 11.9047 13.2256 11.9039 13.2345 11.9002L13.4487 11.9961C13.4507 12.0161 13.4454 12.0267 13.4226 12.0177Z" fill="#BF9200"/>
<path id="Vector_16" fill-rule="evenodd" clip-rule="evenodd" d="M12.9577 11.9907C12.9492 11.9841 12.9405 11.9779 12.9316 11.9719L13.1148 11.8789C13.1191 11.8804 13.1231 11.8829 13.1265 11.886C13.1299 11.8892 13.1325 11.893 13.1343 11.8973C13.0838 11.9462 13.0206 11.9695 12.9577 11.9907ZM13.4186 12.0176L13.4447 11.9964C13.5055 12.0143 13.5679 12.0331 13.6283 12.0502C13.6132 12.0576 13.5973 12.0629 13.5818 12.0698C13.5263 12.0576 13.4688 12.0469 13.4186 12.0176Z" fill="#BF9200"/>
<path id="Vector_17" fill-rule="evenodd" clip-rule="evenodd" d="M13.1373 11.8978C13.13 11.8917 13.1251 11.8856 13.1177 11.8795C13.1712 11.8052 13.1969 11.877 13.2336 11.9007L13.2124 11.9174C13.1883 11.9104 13.1699 11.8774 13.1373 11.8978ZM13.4098 13.4885C13.4285 13.4269 13.4326 13.3653 13.4326 13.3009C13.431 12.933 13.4326 12.5663 13.431 12.1984C13.431 12.1621 13.4485 12.1209 13.4098 12.0895C13.4045 12.0871 13.4024 12.0846 13.4045 12.0809C13.4061 12.0773 13.4077 12.0756 13.4098 12.0756C13.5647 12.1066 13.7157 12.1588 13.8768 12.1588C13.9192 12.1597 13.9212 12.187 13.92 12.2184C13.8996 12.7025 13.7414 13.1304 13.4098 13.4885ZM12.9007 12.0891C12.8547 12.0977 12.862 12.1352 12.862 12.165C12.862 12.5622 12.864 12.9603 12.8604 13.3576C12.8604 13.3979 12.8885 13.4293 12.8844 13.4685C12.6238 13.1863 12.4802 12.8485 12.4166 12.4753C12.4019 12.3897 12.3999 12.3016 12.393 12.2139C12.3885 12.1739 12.4031 12.1564 12.4456 12.1564C12.5957 12.1531 12.7388 12.1079 12.8824 12.0716C12.9028 12.0618 12.9048 12.0732 12.9007 12.0891ZM12.3542 13.7283C12.3493 13.715 12.3439 13.702 12.3379 13.6891C12.4031 13.3629 12.3962 13.0317 12.395 12.7009L12.4146 12.6785C12.4615 12.8073 12.5092 12.9354 12.5561 13.0635C12.5667 13.0839 12.5553 13.1022 12.5581 13.1218C12.5345 13.2866 12.4929 13.4469 12.426 13.6006C12.417 13.6202 12.3974 13.6288 12.3815 13.641C12.3722 13.6704 12.3636 13.7006 12.3542 13.7283ZM13.5085 13.7495C13.515 13.7426 13.5199 13.7352 13.5264 13.7283C13.6055 13.7026 13.5798 13.6382 13.5798 13.5843C13.5782 13.5284 13.5362 13.5305 13.497 13.5276C13.4901 13.5258 13.484 13.5218 13.4795 13.5162C13.475 13.5107 13.4724 13.5038 13.4722 13.4966C13.5745 13.36 13.6712 13.2168 13.7548 13.0659C13.763 13.0782 13.7711 13.0916 13.7797 13.1039C13.7521 13.2066 13.7338 13.3115 13.725 13.4175C13.7148 13.5578 13.7789 13.6133 13.9118 13.588C13.9192 13.6047 13.9261 13.6231 13.933 13.6418C13.8609 13.7609 13.8609 13.7609 13.7536 13.6565C13.7307 13.6345 13.7063 13.6129 13.6704 13.5794L13.6263 13.9118L13.5085 13.7495Z" fill="#BF9200"/>
<path id="Vector_18" fill-rule="evenodd" clip-rule="evenodd" d="M12.3809 13.6405L12.4013 13.5879C12.4918 13.6254 12.546 13.5769 12.5925 13.5092C12.6142 13.4819 12.6239 13.4448 12.6574 13.428C12.6823 13.4235 12.7092 13.4248 12.7288 13.4023C12.7341 13.3984 12.7405 13.396 12.7472 13.3956C12.7538 13.3951 12.7605 13.3966 12.7663 13.3999C12.7863 13.4248 12.8144 13.4431 12.8209 13.4782C12.8206 13.487 12.8175 13.4954 12.812 13.5023C12.7834 13.5231 12.739 13.5239 12.7255 13.5651C12.7027 13.5891 12.7018 13.6348 12.6549 13.632C12.6443 13.6189 12.6602 13.5643 12.6154 13.605C12.5808 13.634 12.5483 13.6655 12.5183 13.6993C12.4681 13.758 12.4298 13.769 12.4053 13.6797C12.4008 13.6654 12.3898 13.6536 12.3809 13.6405Z" fill="#BF9200"/>
<path id="Vector_19" fill-rule="evenodd" clip-rule="evenodd" d="M12.6654 13.4377C12.6547 13.4704 12.6437 13.5018 12.6344 13.5352C12.6038 13.5234 12.5936 13.4961 12.5915 13.4659C12.5803 13.3446 12.5608 13.2243 12.5332 13.1057C12.5401 13.091 12.5483 13.078 12.5552 13.0629C12.6001 13.1416 12.6462 13.2183 12.691 13.297C12.6956 13.3041 12.6981 13.3123 12.6984 13.3207C12.6878 13.3488 12.689 13.3782 12.6898 13.408C12.6866 13.4218 12.6804 13.4324 12.6654 13.4377ZM12.8069 13.4842C12.811 13.4806 12.8154 13.4793 12.8199 13.4769C12.888 13.5462 12.9558 13.6139 13.0222 13.6837C13.024 13.7068 13.0181 13.7299 13.0055 13.7493C12.9558 13.7294 12.9243 13.6698 12.8599 13.6837C12.8473 13.679 12.8368 13.6699 12.8305 13.658C12.8428 13.5972 12.7698 13.5479 12.8069 13.4842ZM13.4729 13.4965C13.4781 13.4996 13.4826 13.5037 13.486 13.5087C13.5113 13.5638 13.4974 13.6176 13.4843 13.6718L13.4656 13.6935C13.4024 13.6772 13.3571 13.7204 13.3086 13.7502C13.2926 13.7294 13.2918 13.7057 13.2906 13.6825C13.351 13.6209 13.4134 13.5589 13.4729 13.4965ZM12.904 13.4965C12.9888 13.5177 13.0337 13.5805 13.0708 13.6531C13.0031 13.6147 12.9537 13.5556 12.904 13.4965ZM13.2123 11.9935C13.1536 11.9502 13.112 12.0237 13.0581 12.0147C13.1071 11.9878 13.1434 11.8752 13.2123 11.9935ZM13.0895 13.6515C13.1405 13.7061 13.1899 13.6743 13.2388 13.647C13.2249 13.6898 13.1956 13.7241 13.1536 13.7241C13.1226 13.7228 13.0912 13.6931 13.0895 13.6515Z" fill="#BF9200"/>
<path id="Vector_20" fill-rule="evenodd" clip-rule="evenodd" d="M12.6844 13.3289C12.6852 13.3175 12.6873 13.3077 12.6889 13.2971C12.7138 13.3314 12.7375 13.3652 12.7636 13.3995C12.7566 13.4064 12.7501 13.4138 12.744 13.4215C12.6946 13.4248 12.6873 13.3852 12.6738 13.3534C12.675 13.3444 12.6786 13.3359 12.6844 13.3289ZM13.2922 13.594C13.315 13.5565 13.3285 13.5063 13.3892 13.5169C13.3619 13.55 13.3382 13.5867 13.2922 13.594ZM13.4096 12.0735V12.0878C13.3749 12.0776 13.3329 12.0792 13.315 12.0352C13.3499 12.0373 13.3831 12.0508 13.4096 12.0735ZM12.9006 12.0886C12.8949 12.0833 12.8888 12.0772 12.8822 12.0719C12.9108 12.047 12.9434 12.0352 12.9797 12.056C12.9589 12.0804 12.9283 12.0825 12.9006 12.0886ZM12.8435 13.6491L12.8619 13.6707C12.9157 13.7282 12.9198 13.8028 12.9324 13.8738C12.9393 13.9036 12.9365 13.935 12.9589 13.9611C12.9581 14.0043 12.9283 14.0308 12.9043 14.0618C12.8818 13.9538 12.8651 13.8444 12.8035 13.749C12.7852 13.7543 12.777 13.7421 12.7713 13.7258C12.7713 13.6772 12.7876 13.645 12.8435 13.6491Z" fill="#BF9200"/>
<path id="Vector_21" fill-rule="evenodd" clip-rule="evenodd" d="M12.7846 13.7266L12.8042 13.7499C12.7728 13.7963 12.7389 13.8816 12.6973 13.873C12.6386 13.8588 12.6769 13.7711 12.661 13.7184C12.6529 13.6907 12.6557 13.6605 12.6529 13.6324C12.6635 13.5998 12.6749 13.5671 12.6855 13.5361C12.7332 13.5569 12.7287 13.6014 12.7287 13.6426C12.7287 13.6838 12.7401 13.7144 12.7846 13.7266ZM13.8716 15.4095C13.8434 15.4152 13.8096 15.4282 13.8047 15.3821C13.8018 15.3397 13.8291 15.3156 13.8601 15.2965C13.9168 15.2622 13.9095 15.3381 13.9482 15.356C13.9544 15.2879 14.0302 15.2553 14.0078 15.1811C14.0062 15.1766 14.0225 15.1627 14.0335 15.1578C14.0363 15.1562 14.0523 15.166 14.0531 15.1713C14.0576 15.2447 14.1452 15.2373 14.1669 15.2928C14.1718 15.3071 14.1942 15.3124 14.1983 15.3026C14.2386 15.2263 14.299 15.2581 14.3618 15.2765C14.3512 15.2231 14.3414 15.1802 14.3329 15.1378C14.3243 15.0954 14.31 15.0591 14.2554 15.0811C14.2321 15.0905 14.215 15.0803 14.2125 15.0595C14.2064 15.0326 14.2346 15.0338 14.2513 15.0289C14.3304 15.0085 14.3639 15.0501 14.3794 15.1215C14.3908 15.1864 14.3781 15.2789 14.4968 15.2337C14.5029 15.2308 14.5205 15.2451 14.5254 15.2549C14.5335 15.2724 14.5127 15.2806 14.505 15.2798C14.3998 15.2732 14.3329 15.3993 14.2191 15.3609C14.1995 15.3556 14.1909 15.3683 14.1844 15.3858C14.1563 15.4543 14.1228 15.4633 14.062 15.4115C14.0066 15.365 13.9548 15.3919 13.9172 15.4458C13.8801 15.458 13.8944 15.4111 13.8716 15.4095ZM12.6847 15.5118C12.763 15.4845 12.8136 15.4515 12.7699 15.3732C12.7561 15.3479 12.765 15.3246 12.7899 15.3173C12.8127 15.3087 12.8172 15.334 12.8254 15.3515C12.8335 15.3695 12.8393 15.3915 12.8641 15.3842C12.8898 15.378 12.8809 15.3536 12.8796 15.3356C12.8776 15.3136 12.8678 15.2871 12.8951 15.2749C12.927 15.2618 12.927 15.2981 12.9424 15.3103C12.9894 15.3422 13.0436 15.3222 13.0938 15.3271C13.1386 15.3344 13.1925 15.3222 13.1757 15.3989C13.2182 15.3931 13.2153 15.3572 13.2382 15.3446C13.2643 15.3307 13.2977 15.3087 13.3173 15.3307C13.3352 15.3519 13.3336 15.3915 13.3336 15.4237C13.3344 15.4596 13.3038 15.4596 13.2777 15.4608C13.2308 15.4617 13.1835 15.4523 13.1521 15.5086C13.137 15.5347 13.1036 15.533 13.0754 15.5098C12.9763 15.4319 12.8935 15.429 12.7985 15.4996C12.7711 15.5208 12.7414 15.5257 12.6847 15.5118ZM12.5631 15.4405C12.5811 15.3413 12.5986 15.2655 12.5937 15.1868C12.5921 15.1594 12.6015 15.1386 12.6255 15.1386C12.6663 15.1386 12.6472 15.1713 12.6443 15.1888C12.6345 15.2691 12.6223 15.3487 12.6088 15.429C12.6035 15.4564 12.5831 15.4747 12.557 15.4829C12.5313 15.4902 12.5146 15.4755 12.4991 15.4568C12.4379 15.3736 12.3449 15.3503 12.2568 15.4025C12.2275 15.4201 12.1997 15.4335 12.1561 15.4184C12.2156 15.3858 12.2589 15.3487 12.2311 15.2765C12.2258 15.263 12.2373 15.241 12.2544 15.2382C12.2752 15.2337 12.2784 15.2549 12.2805 15.2708C12.285 15.2997 12.2891 15.3291 12.3254 15.336C12.3429 15.3393 12.3584 15.3393 12.3702 15.3267C12.38 15.3144 12.3657 15.305 12.3584 15.2948C12.3041 15.2104 12.4163 15.2349 12.433 15.1896C12.4465 15.1562 12.4901 15.1888 12.4909 15.2178C12.4926 15.2549 12.6027 15.2928 12.4942 15.3303C12.513 15.3617 12.5325 15.3915 12.5631 15.4405ZM11.8567 15.0379C11.9012 15.0089 11.9509 15.0016 11.9823 15.0183C12.0076 15.0326 11.9766 15.0758 11.9689 15.1068C11.9672 15.1129 11.9644 15.1191 11.964 15.126C11.9579 15.166 11.9085 15.2231 11.9554 15.2447C12.0252 15.274 11.9885 15.1868 12.015 15.1643C12.0264 15.1562 12.0419 15.1533 12.0635 15.1443C12.0615 15.166 12.0623 15.1782 12.0606 15.1904C12.0533 15.2247 12.0182 15.2679 12.0819 15.2822C12.1414 15.2965 12.1308 15.2581 12.1308 15.2202C12.1312 15.1917 12.1659 15.1884 12.1912 15.1872C12.1932 15.1917 12.1965 15.1949 12.1956 15.1978C12.154 15.3699 12.181 15.3532 12.0113 15.3124C11.9644 15.3022 11.9183 15.2875 11.8718 15.2732C11.8477 15.2675 11.8135 15.2708 11.8106 15.2365C11.809 15.2006 11.8331 15.1778 11.8665 15.1639C11.8849 15.1595 11.902 15.1507 11.9163 15.1382C11.9566 15.0917 11.9354 15.0509 11.8567 15.0379ZM13.4449 15.4625C13.3666 15.4421 13.398 15.3858 13.4254 15.3617C13.4788 15.3181 13.4796 15.2708 13.458 15.2161C13.4462 15.1855 13.4592 15.1696 13.4821 15.166C13.5102 15.1627 13.5053 15.1908 13.5078 15.2084C13.5143 15.2573 13.5184 15.3046 13.5249 15.3528C13.5269 15.3789 13.5277 15.4103 13.5669 15.3997C13.5954 15.3919 13.6016 15.3723 13.5893 15.3471C13.5799 15.3246 13.5685 15.3006 13.5999 15.2924C13.6423 15.2822 13.6326 15.3214 13.6399 15.343C13.6656 15.4266 13.6256 15.4543 13.5477 15.4494C13.5175 15.4865 13.4788 15.4568 13.4449 15.4625ZM13.6481 15.5118C13.7088 15.4523 13.7517 15.4082 13.6872 15.3483C13.6684 15.3328 13.6852 15.3026 13.7068 15.2928C13.7296 15.2842 13.7353 15.3103 13.7459 15.3263C13.7998 15.4148 13.7786 15.4735 13.6481 15.5118ZM12.6928 15.1407C12.7226 15.1566 12.7491 15.1647 12.7361 15.1982C12.712 15.2561 12.712 15.3177 12.7067 15.3772C12.7051 15.398 12.7067 15.4294 12.6741 15.4229C12.6406 15.4168 12.6574 15.3878 12.6602 15.3683C12.6635 15.3291 12.6688 15.2916 12.6741 15.2537C12.6798 15.2186 12.6847 15.1839 12.6928 15.1407Z" fill="#BF9200"/>
<path id="Vector_22" fill-rule="evenodd" clip-rule="evenodd" d="M13.5441 15.4684C13.5636 15.4757 13.5836 15.4916 13.569 15.5104C13.5441 15.5385 13.5049 15.5157 13.4723 15.5206C13.4511 15.5251 13.4474 15.4977 13.4637 15.479C13.4878 15.461 13.5163 15.4659 13.5441 15.4684ZM13.8704 15.4092C13.8855 15.4215 13.8989 15.4341 13.9152 15.4451C13.8973 15.4863 13.8659 15.4904 13.8259 15.4835C13.8349 15.4529 13.892 15.4541 13.8704 15.4092ZM13.4197 15.2098C13.4152 15.2281 13.405 15.2322 13.3928 15.2281C13.3854 15.2261 13.3768 15.2155 13.3768 15.2114C13.3777 15.1955 13.3895 15.189 13.4042 15.1939C13.4107 15.1963 13.4156 15.2041 13.4197 15.2098ZM13.425 15.2869C13.4172 15.2962 13.4087 15.3073 13.3956 15.2999C13.3842 15.2926 13.3748 15.2828 13.383 15.2693C13.3895 15.2571 13.3989 15.2477 13.4123 15.2571C13.4233 15.262 13.4315 15.2722 13.425 15.2869ZM14.4601 15.3501C14.4544 15.368 14.4426 15.3717 14.4291 15.3705C14.4169 15.3688 14.4018 15.3631 14.4104 15.3464C14.4149 15.3379 14.4279 15.3305 14.4385 15.3289C14.4532 15.3272 14.4589 15.3391 14.4601 15.3501ZM11.8963 15.3264C11.889 15.3411 11.8796 15.3501 11.8653 15.3432C11.8588 15.3391 11.8518 15.3281 11.8539 15.3207C11.8567 15.3089 11.869 15.3016 11.882 15.3089C11.889 15.3113 11.8926 15.3211 11.8963 15.3264ZM12.0872 15.3803C12.0778 15.3864 12.0713 15.395 12.0652 15.3958C12.0497 15.399 12.0407 15.3876 12.0456 15.375C12.048 15.3684 12.0594 15.3627 12.0668 15.3627C12.0721 15.3631 12.0778 15.3729 12.0872 15.3803ZM12.1161 14.8427C12.144 14.8358 12.1731 14.836 12.2009 14.8431C12.2287 14.8503 12.2542 14.8643 12.2752 14.8839C12.2165 14.8933 12.1655 14.8729 12.1161 14.8427ZM11.8841 14.7734C11.91 14.7659 11.9375 14.766 11.9633 14.7738C11.9891 14.7815 12.0122 14.7965 12.0297 14.817C11.9787 14.8264 11.9355 14.8068 11.8841 14.7734ZM14.0355 14.8782C14.0808 14.8427 14.1359 14.8345 14.1909 14.8321C14.1926 14.8403 14.1958 14.848 14.1979 14.8562L14.0437 14.9014L14.0355 14.8782ZM14.2684 14.8223C14.3141 14.7746 14.3602 14.764 14.4263 14.7681C14.4057 14.7883 14.3808 14.8036 14.3535 14.813C14.3262 14.8224 14.2971 14.8256 14.2684 14.8223ZM12.5897 15.0005H12.9017C12.7996 15.0287 12.6918 15.0287 12.5897 15.0005ZM13.075 14.2174C13.0697 14.2182 13.0644 14.2192 13.0591 14.2203L13.084 14.0461C13.0975 14.1228 13.104 14.1718 13.075 14.2174ZM13.217 14.1579V14.069C13.2406 14.093 13.2308 14.1167 13.2349 14.1387C13.2443 14.1591 13.2333 14.1612 13.217 14.1579Z" fill="#BF9200"/>
<path id="Vector_23" fill-rule="evenodd" clip-rule="evenodd" d="M13.216 14.1576C13.2218 14.151 13.2278 14.1446 13.234 14.1384C13.2411 14.1471 13.246 14.1573 13.2483 14.1682C13.2507 14.1791 13.2504 14.1905 13.2474 14.2012C13.242 14.2072 13.2361 14.2128 13.2299 14.218C13.214 14.2012 13.2128 14.1792 13.216 14.1576ZM12.6785 14.9313C12.6211 14.9438 12.5618 14.945 12.5039 14.935C12.5651 14.8873 12.6153 14.8856 12.6785 14.9313ZM12.8869 14.9411C12.8453 14.9607 12.8004 14.9578 12.7531 14.9607C12.76 14.9228 12.7837 14.9248 12.8053 14.9248C12.8302 14.9374 12.8632 14.9154 12.8869 14.9411Z" fill="#BF9200"/>
<path id="Vector_24" fill-rule="evenodd" clip-rule="evenodd" d="M12.8863 14.9414C12.8581 14.9369 12.8283 14.9414 12.8047 14.9251C12.8373 14.9231 12.8687 14.921 12.9001 14.921C12.9087 14.921 12.9193 14.9296 12.9042 14.9377C12.8997 14.9414 12.8924 14.9394 12.8863 14.9414ZM13.7897 14.9255C13.7386 14.9439 13.6833 14.9468 13.6306 14.9341C13.6873 14.8802 13.7375 14.9014 13.7897 14.9255ZM13.5058 14.9251C13.5254 14.921 13.5417 14.9292 13.5649 14.9528C13.5175 14.9639 13.4677 14.9599 13.4226 14.9414C13.4467 14.9157 13.4793 14.9377 13.5058 14.9251Z" fill="#BF9200"/>
<path id="Vector_25" fill-rule="evenodd" clip-rule="evenodd" d="M13.5085 14.9244C13.4828 14.9407 13.4534 14.9362 13.4253 14.9407C13.4171 14.9362 13.3816 14.9387 13.4094 14.9244C13.4342 14.9093 13.4738 14.9223 13.5085 14.9244ZM12.6846 13.3419C12.6634 13.3578 12.6724 13.3814 12.665 13.401C12.6511 13.3749 12.6418 13.3476 12.6548 13.3207C12.6601 13.3076 12.6752 13.3223 12.6846 13.3288V13.3419ZM12.4395 15.2458C12.4476 15.2548 12.4562 15.2601 12.4578 15.2674C12.4664 15.2874 12.4492 15.2874 12.4378 15.2858C12.4313 15.2858 12.4211 15.2747 12.4219 15.269C12.4227 15.2617 12.4313 15.2548 12.4395 15.2458Z" fill="#BF9200"/>
</g>
</g>
<defs>
<clipPath id="clip0_1331_44699">
<rect width="26.1034" height="26.1034" fill="white"/>
</clipPath>
</defs>
</svg>
